%TF.GenerationSoftware,KiCad,Pcbnew,7.0.1*%
%TF.CreationDate,2024-04-15T22:24:18+02:00*%
%TF.ProjectId,nema17_driver,6e656d61-3137-45f6-9472-697665722e6b,rev?*%
%TF.SameCoordinates,Original*%
%TF.FileFunction,Drillmap*%
%TF.FilePolarity,Positive*%
%FSLAX45Y45*%
G04 Gerber Fmt 4.5, Leading zero omitted, Abs format (unit mm)*
G04 Created by KiCad (PCBNEW 7.0.1) date 2024-04-15 22:24:18*
%MOMM*%
%LPD*%
G01*
G04 APERTURE LIST*
%ADD10C,0.100000*%
%ADD11C,0.200000*%
%ADD12C,0.350000*%
G04 APERTURE END LIST*
D10*
X12480000Y-9760000D02*
X12480000Y-6440000D01*
X16720000Y-9760000D02*
X16260000Y-10220000D01*
X16260000Y-10220000D02*
X12940000Y-10220000D01*
X16720000Y-6440000D02*
X16720000Y-9760000D01*
X12940000Y-10220000D02*
X12480000Y-9760000D01*
X12940000Y-5980000D02*
X16260000Y-5980000D01*
X16260000Y-5980000D02*
X16720000Y-6440000D01*
X12480000Y-6440000D02*
X12940000Y-5980000D01*
D11*
D12*
X12875000Y-6375000D02*
X13225000Y-6725000D01*
X13225000Y-6375000D02*
X12875000Y-6725000D01*
X12875000Y-9475000D02*
X13225000Y-9825000D01*
X13225000Y-9475000D02*
X12875000Y-9825000D01*
X15975000Y-6375000D02*
X16325000Y-6725000D01*
X16325000Y-6375000D02*
X15975000Y-6725000D01*
X15975000Y-9475000D02*
X16325000Y-9825000D01*
X16325000Y-9475000D02*
X15975000Y-9825000D01*
D11*
X12722619Y-10537524D02*
X12722619Y-10337524D01*
X12722619Y-10337524D02*
X12770238Y-10337524D01*
X12770238Y-10337524D02*
X12798809Y-10347048D01*
X12798809Y-10347048D02*
X12817857Y-10366095D01*
X12817857Y-10366095D02*
X12827381Y-10385143D01*
X12827381Y-10385143D02*
X12836905Y-10423238D01*
X12836905Y-10423238D02*
X12836905Y-10451810D01*
X12836905Y-10451810D02*
X12827381Y-10489905D01*
X12827381Y-10489905D02*
X12817857Y-10508952D01*
X12817857Y-10508952D02*
X12798809Y-10528000D01*
X12798809Y-10528000D02*
X12770238Y-10537524D01*
X12770238Y-10537524D02*
X12722619Y-10537524D01*
X12922619Y-10537524D02*
X12922619Y-10404190D01*
X12922619Y-10442286D02*
X12932143Y-10423238D01*
X12932143Y-10423238D02*
X12941667Y-10413714D01*
X12941667Y-10413714D02*
X12960714Y-10404190D01*
X12960714Y-10404190D02*
X12979762Y-10404190D01*
X13046428Y-10537524D02*
X13046428Y-10404190D01*
X13046428Y-10337524D02*
X13036905Y-10347048D01*
X13036905Y-10347048D02*
X13046428Y-10356571D01*
X13046428Y-10356571D02*
X13055952Y-10347048D01*
X13055952Y-10347048D02*
X13046428Y-10337524D01*
X13046428Y-10337524D02*
X13046428Y-10356571D01*
X13170238Y-10537524D02*
X13151190Y-10528000D01*
X13151190Y-10528000D02*
X13141667Y-10508952D01*
X13141667Y-10508952D02*
X13141667Y-10337524D01*
X13275000Y-10537524D02*
X13255952Y-10528000D01*
X13255952Y-10528000D02*
X13246428Y-10508952D01*
X13246428Y-10508952D02*
X13246428Y-10337524D01*
X13503571Y-10537524D02*
X13503571Y-10337524D01*
X13503571Y-10337524D02*
X13570238Y-10480381D01*
X13570238Y-10480381D02*
X13636905Y-10337524D01*
X13636905Y-10337524D02*
X13636905Y-10537524D01*
X13817857Y-10537524D02*
X13817857Y-10432762D01*
X13817857Y-10432762D02*
X13808333Y-10413714D01*
X13808333Y-10413714D02*
X13789286Y-10404190D01*
X13789286Y-10404190D02*
X13751190Y-10404190D01*
X13751190Y-10404190D02*
X13732143Y-10413714D01*
X13817857Y-10528000D02*
X13798809Y-10537524D01*
X13798809Y-10537524D02*
X13751190Y-10537524D01*
X13751190Y-10537524D02*
X13732143Y-10528000D01*
X13732143Y-10528000D02*
X13722619Y-10508952D01*
X13722619Y-10508952D02*
X13722619Y-10489905D01*
X13722619Y-10489905D02*
X13732143Y-10470857D01*
X13732143Y-10470857D02*
X13751190Y-10461333D01*
X13751190Y-10461333D02*
X13798809Y-10461333D01*
X13798809Y-10461333D02*
X13817857Y-10451810D01*
X13913095Y-10404190D02*
X13913095Y-10604190D01*
X13913095Y-10413714D02*
X13932143Y-10404190D01*
X13932143Y-10404190D02*
X13970238Y-10404190D01*
X13970238Y-10404190D02*
X13989286Y-10413714D01*
X13989286Y-10413714D02*
X13998809Y-10423238D01*
X13998809Y-10423238D02*
X14008333Y-10442286D01*
X14008333Y-10442286D02*
X14008333Y-10499429D01*
X14008333Y-10499429D02*
X13998809Y-10518476D01*
X13998809Y-10518476D02*
X13989286Y-10528000D01*
X13989286Y-10528000D02*
X13970238Y-10537524D01*
X13970238Y-10537524D02*
X13932143Y-10537524D01*
X13932143Y-10537524D02*
X13913095Y-10528000D01*
X14094048Y-10518476D02*
X14103571Y-10528000D01*
X14103571Y-10528000D02*
X14094048Y-10537524D01*
X14094048Y-10537524D02*
X14084524Y-10528000D01*
X14084524Y-10528000D02*
X14094048Y-10518476D01*
X14094048Y-10518476D02*
X14094048Y-10537524D01*
X14094048Y-10413714D02*
X14103571Y-10423238D01*
X14103571Y-10423238D02*
X14094048Y-10432762D01*
X14094048Y-10432762D02*
X14084524Y-10423238D01*
X14084524Y-10423238D02*
X14094048Y-10413714D01*
X14094048Y-10413714D02*
X14094048Y-10432762D01*
X12275000Y-10765000D02*
X12475000Y-10965000D01*
X12475000Y-10765000D02*
X12275000Y-10965000D01*
X12703571Y-10757524D02*
X12827381Y-10757524D01*
X12827381Y-10757524D02*
X12760714Y-10833714D01*
X12760714Y-10833714D02*
X12789286Y-10833714D01*
X12789286Y-10833714D02*
X12808333Y-10843238D01*
X12808333Y-10843238D02*
X12817857Y-10852762D01*
X12817857Y-10852762D02*
X12827381Y-10871810D01*
X12827381Y-10871810D02*
X12827381Y-10919429D01*
X12827381Y-10919429D02*
X12817857Y-10938476D01*
X12817857Y-10938476D02*
X12808333Y-10948000D01*
X12808333Y-10948000D02*
X12789286Y-10957524D01*
X12789286Y-10957524D02*
X12732143Y-10957524D01*
X12732143Y-10957524D02*
X12713095Y-10948000D01*
X12713095Y-10948000D02*
X12703571Y-10938476D01*
X12913095Y-10938476D02*
X12922619Y-10948000D01*
X12922619Y-10948000D02*
X12913095Y-10957524D01*
X12913095Y-10957524D02*
X12903571Y-10948000D01*
X12903571Y-10948000D02*
X12913095Y-10938476D01*
X12913095Y-10938476D02*
X12913095Y-10957524D01*
X13103571Y-10757524D02*
X13008333Y-10757524D01*
X13008333Y-10757524D02*
X12998809Y-10852762D01*
X12998809Y-10852762D02*
X13008333Y-10843238D01*
X13008333Y-10843238D02*
X13027381Y-10833714D01*
X13027381Y-10833714D02*
X13075000Y-10833714D01*
X13075000Y-10833714D02*
X13094048Y-10843238D01*
X13094048Y-10843238D02*
X13103571Y-10852762D01*
X13103571Y-10852762D02*
X13113095Y-10871810D01*
X13113095Y-10871810D02*
X13113095Y-10919429D01*
X13113095Y-10919429D02*
X13103571Y-10938476D01*
X13103571Y-10938476D02*
X13094048Y-10948000D01*
X13094048Y-10948000D02*
X13075000Y-10957524D01*
X13075000Y-10957524D02*
X13027381Y-10957524D01*
X13027381Y-10957524D02*
X13008333Y-10948000D01*
X13008333Y-10948000D02*
X12998809Y-10938476D01*
X13236905Y-10757524D02*
X13255952Y-10757524D01*
X13255952Y-10757524D02*
X13275000Y-10767048D01*
X13275000Y-10767048D02*
X13284524Y-10776571D01*
X13284524Y-10776571D02*
X13294048Y-10795619D01*
X13294048Y-10795619D02*
X13303571Y-10833714D01*
X13303571Y-10833714D02*
X13303571Y-10881333D01*
X13303571Y-10881333D02*
X13294048Y-10919429D01*
X13294048Y-10919429D02*
X13284524Y-10938476D01*
X13284524Y-10938476D02*
X13275000Y-10948000D01*
X13275000Y-10948000D02*
X13255952Y-10957524D01*
X13255952Y-10957524D02*
X13236905Y-10957524D01*
X13236905Y-10957524D02*
X13217857Y-10948000D01*
X13217857Y-10948000D02*
X13208333Y-10938476D01*
X13208333Y-10938476D02*
X13198809Y-10919429D01*
X13198809Y-10919429D02*
X13189286Y-10881333D01*
X13189286Y-10881333D02*
X13189286Y-10833714D01*
X13189286Y-10833714D02*
X13198809Y-10795619D01*
X13198809Y-10795619D02*
X13208333Y-10776571D01*
X13208333Y-10776571D02*
X13217857Y-10767048D01*
X13217857Y-10767048D02*
X13236905Y-10757524D01*
X13427381Y-10757524D02*
X13446429Y-10757524D01*
X13446429Y-10757524D02*
X13465476Y-10767048D01*
X13465476Y-10767048D02*
X13475000Y-10776571D01*
X13475000Y-10776571D02*
X13484524Y-10795619D01*
X13484524Y-10795619D02*
X13494048Y-10833714D01*
X13494048Y-10833714D02*
X13494048Y-10881333D01*
X13494048Y-10881333D02*
X13484524Y-10919429D01*
X13484524Y-10919429D02*
X13475000Y-10938476D01*
X13475000Y-10938476D02*
X13465476Y-10948000D01*
X13465476Y-10948000D02*
X13446429Y-10957524D01*
X13446429Y-10957524D02*
X13427381Y-10957524D01*
X13427381Y-10957524D02*
X13408333Y-10948000D01*
X13408333Y-10948000D02*
X13398809Y-10938476D01*
X13398809Y-10938476D02*
X13389286Y-10919429D01*
X13389286Y-10919429D02*
X13379762Y-10881333D01*
X13379762Y-10881333D02*
X13379762Y-10833714D01*
X13379762Y-10833714D02*
X13389286Y-10795619D01*
X13389286Y-10795619D02*
X13398809Y-10776571D01*
X13398809Y-10776571D02*
X13408333Y-10767048D01*
X13408333Y-10767048D02*
X13427381Y-10757524D01*
X13579762Y-10957524D02*
X13579762Y-10824190D01*
X13579762Y-10843238D02*
X13589286Y-10833714D01*
X13589286Y-10833714D02*
X13608333Y-10824190D01*
X13608333Y-10824190D02*
X13636905Y-10824190D01*
X13636905Y-10824190D02*
X13655952Y-10833714D01*
X13655952Y-10833714D02*
X13665476Y-10852762D01*
X13665476Y-10852762D02*
X13665476Y-10957524D01*
X13665476Y-10852762D02*
X13675000Y-10833714D01*
X13675000Y-10833714D02*
X13694048Y-10824190D01*
X13694048Y-10824190D02*
X13722619Y-10824190D01*
X13722619Y-10824190D02*
X13741667Y-10833714D01*
X13741667Y-10833714D02*
X13751190Y-10852762D01*
X13751190Y-10852762D02*
X13751190Y-10957524D01*
X13846429Y-10957524D02*
X13846429Y-10824190D01*
X13846429Y-10843238D02*
X13855952Y-10833714D01*
X13855952Y-10833714D02*
X13875000Y-10824190D01*
X13875000Y-10824190D02*
X13903571Y-10824190D01*
X13903571Y-10824190D02*
X13922619Y-10833714D01*
X13922619Y-10833714D02*
X13932143Y-10852762D01*
X13932143Y-10852762D02*
X13932143Y-10957524D01*
X13932143Y-10852762D02*
X13941667Y-10833714D01*
X13941667Y-10833714D02*
X13960714Y-10824190D01*
X13960714Y-10824190D02*
X13989286Y-10824190D01*
X13989286Y-10824190D02*
X14008333Y-10833714D01*
X14008333Y-10833714D02*
X14017857Y-10852762D01*
X14017857Y-10852762D02*
X14017857Y-10957524D01*
X14408333Y-10748000D02*
X14236905Y-11005143D01*
X14665476Y-10757524D02*
X14684524Y-10757524D01*
X14684524Y-10757524D02*
X14703572Y-10767048D01*
X14703572Y-10767048D02*
X14713095Y-10776571D01*
X14713095Y-10776571D02*
X14722619Y-10795619D01*
X14722619Y-10795619D02*
X14732143Y-10833714D01*
X14732143Y-10833714D02*
X14732143Y-10881333D01*
X14732143Y-10881333D02*
X14722619Y-10919429D01*
X14722619Y-10919429D02*
X14713095Y-10938476D01*
X14713095Y-10938476D02*
X14703572Y-10948000D01*
X14703572Y-10948000D02*
X14684524Y-10957524D01*
X14684524Y-10957524D02*
X14665476Y-10957524D01*
X14665476Y-10957524D02*
X14646429Y-10948000D01*
X14646429Y-10948000D02*
X14636905Y-10938476D01*
X14636905Y-10938476D02*
X14627381Y-10919429D01*
X14627381Y-10919429D02*
X14617857Y-10881333D01*
X14617857Y-10881333D02*
X14617857Y-10833714D01*
X14617857Y-10833714D02*
X14627381Y-10795619D01*
X14627381Y-10795619D02*
X14636905Y-10776571D01*
X14636905Y-10776571D02*
X14646429Y-10767048D01*
X14646429Y-10767048D02*
X14665476Y-10757524D01*
X14817857Y-10938476D02*
X14827381Y-10948000D01*
X14827381Y-10948000D02*
X14817857Y-10957524D01*
X14817857Y-10957524D02*
X14808333Y-10948000D01*
X14808333Y-10948000D02*
X14817857Y-10938476D01*
X14817857Y-10938476D02*
X14817857Y-10957524D01*
X15017857Y-10957524D02*
X14903572Y-10957524D01*
X14960714Y-10957524D02*
X14960714Y-10757524D01*
X14960714Y-10757524D02*
X14941667Y-10786095D01*
X14941667Y-10786095D02*
X14922619Y-10805143D01*
X14922619Y-10805143D02*
X14903572Y-10814667D01*
X15084524Y-10757524D02*
X15208333Y-10757524D01*
X15208333Y-10757524D02*
X15141667Y-10833714D01*
X15141667Y-10833714D02*
X15170238Y-10833714D01*
X15170238Y-10833714D02*
X15189286Y-10843238D01*
X15189286Y-10843238D02*
X15198810Y-10852762D01*
X15198810Y-10852762D02*
X15208333Y-10871810D01*
X15208333Y-10871810D02*
X15208333Y-10919429D01*
X15208333Y-10919429D02*
X15198810Y-10938476D01*
X15198810Y-10938476D02*
X15189286Y-10948000D01*
X15189286Y-10948000D02*
X15170238Y-10957524D01*
X15170238Y-10957524D02*
X15113095Y-10957524D01*
X15113095Y-10957524D02*
X15094048Y-10948000D01*
X15094048Y-10948000D02*
X15084524Y-10938476D01*
X15275000Y-10757524D02*
X15408333Y-10757524D01*
X15408333Y-10757524D02*
X15322619Y-10957524D01*
X15513095Y-10843238D02*
X15494048Y-10833714D01*
X15494048Y-10833714D02*
X15484524Y-10824190D01*
X15484524Y-10824190D02*
X15475000Y-10805143D01*
X15475000Y-10805143D02*
X15475000Y-10795619D01*
X15475000Y-10795619D02*
X15484524Y-10776571D01*
X15484524Y-10776571D02*
X15494048Y-10767048D01*
X15494048Y-10767048D02*
X15513095Y-10757524D01*
X15513095Y-10757524D02*
X15551191Y-10757524D01*
X15551191Y-10757524D02*
X15570238Y-10767048D01*
X15570238Y-10767048D02*
X15579762Y-10776571D01*
X15579762Y-10776571D02*
X15589286Y-10795619D01*
X15589286Y-10795619D02*
X15589286Y-10805143D01*
X15589286Y-10805143D02*
X15579762Y-10824190D01*
X15579762Y-10824190D02*
X15570238Y-10833714D01*
X15570238Y-10833714D02*
X15551191Y-10843238D01*
X15551191Y-10843238D02*
X15513095Y-10843238D01*
X15513095Y-10843238D02*
X15494048Y-10852762D01*
X15494048Y-10852762D02*
X15484524Y-10862286D01*
X15484524Y-10862286D02*
X15475000Y-10881333D01*
X15475000Y-10881333D02*
X15475000Y-10919429D01*
X15475000Y-10919429D02*
X15484524Y-10938476D01*
X15484524Y-10938476D02*
X15494048Y-10948000D01*
X15494048Y-10948000D02*
X15513095Y-10957524D01*
X15513095Y-10957524D02*
X15551191Y-10957524D01*
X15551191Y-10957524D02*
X15570238Y-10948000D01*
X15570238Y-10948000D02*
X15579762Y-10938476D01*
X15579762Y-10938476D02*
X15589286Y-10919429D01*
X15589286Y-10919429D02*
X15589286Y-10881333D01*
X15589286Y-10881333D02*
X15579762Y-10862286D01*
X15579762Y-10862286D02*
X15570238Y-10852762D01*
X15570238Y-10852762D02*
X15551191Y-10843238D01*
X15665476Y-10757524D02*
X15665476Y-10795619D01*
X15741667Y-10757524D02*
X15741667Y-10795619D01*
X16036905Y-11033714D02*
X16027381Y-11024190D01*
X16027381Y-11024190D02*
X16008334Y-10995619D01*
X16008334Y-10995619D02*
X15998810Y-10976571D01*
X15998810Y-10976571D02*
X15989286Y-10948000D01*
X15989286Y-10948000D02*
X15979762Y-10900381D01*
X15979762Y-10900381D02*
X15979762Y-10862286D01*
X15979762Y-10862286D02*
X15989286Y-10814667D01*
X15989286Y-10814667D02*
X15998810Y-10786095D01*
X15998810Y-10786095D02*
X16008334Y-10767048D01*
X16008334Y-10767048D02*
X16027381Y-10738476D01*
X16027381Y-10738476D02*
X16036905Y-10728952D01*
X16198810Y-10824190D02*
X16198810Y-10957524D01*
X16151191Y-10748000D02*
X16103572Y-10890857D01*
X16103572Y-10890857D02*
X16227381Y-10890857D01*
X16455953Y-10957524D02*
X16455953Y-10757524D01*
X16541667Y-10957524D02*
X16541667Y-10852762D01*
X16541667Y-10852762D02*
X16532143Y-10833714D01*
X16532143Y-10833714D02*
X16513096Y-10824190D01*
X16513096Y-10824190D02*
X16484524Y-10824190D01*
X16484524Y-10824190D02*
X16465476Y-10833714D01*
X16465476Y-10833714D02*
X16455953Y-10843238D01*
X16665476Y-10957524D02*
X16646429Y-10948000D01*
X16646429Y-10948000D02*
X16636905Y-10938476D01*
X16636905Y-10938476D02*
X16627381Y-10919429D01*
X16627381Y-10919429D02*
X16627381Y-10862286D01*
X16627381Y-10862286D02*
X16636905Y-10843238D01*
X16636905Y-10843238D02*
X16646429Y-10833714D01*
X16646429Y-10833714D02*
X16665476Y-10824190D01*
X16665476Y-10824190D02*
X16694048Y-10824190D01*
X16694048Y-10824190D02*
X16713096Y-10833714D01*
X16713096Y-10833714D02*
X16722619Y-10843238D01*
X16722619Y-10843238D02*
X16732143Y-10862286D01*
X16732143Y-10862286D02*
X16732143Y-10919429D01*
X16732143Y-10919429D02*
X16722619Y-10938476D01*
X16722619Y-10938476D02*
X16713096Y-10948000D01*
X16713096Y-10948000D02*
X16694048Y-10957524D01*
X16694048Y-10957524D02*
X16665476Y-10957524D01*
X16846429Y-10957524D02*
X16827381Y-10948000D01*
X16827381Y-10948000D02*
X16817858Y-10928952D01*
X16817858Y-10928952D02*
X16817858Y-10757524D01*
X16998810Y-10948000D02*
X16979762Y-10957524D01*
X16979762Y-10957524D02*
X16941667Y-10957524D01*
X16941667Y-10957524D02*
X16922619Y-10948000D01*
X16922619Y-10948000D02*
X16913096Y-10928952D01*
X16913096Y-10928952D02*
X16913096Y-10852762D01*
X16913096Y-10852762D02*
X16922619Y-10833714D01*
X16922619Y-10833714D02*
X16941667Y-10824190D01*
X16941667Y-10824190D02*
X16979762Y-10824190D01*
X16979762Y-10824190D02*
X16998810Y-10833714D01*
X16998810Y-10833714D02*
X17008334Y-10852762D01*
X17008334Y-10852762D02*
X17008334Y-10871810D01*
X17008334Y-10871810D02*
X16913096Y-10890857D01*
X17084524Y-10948000D02*
X17103572Y-10957524D01*
X17103572Y-10957524D02*
X17141667Y-10957524D01*
X17141667Y-10957524D02*
X17160715Y-10948000D01*
X17160715Y-10948000D02*
X17170239Y-10928952D01*
X17170239Y-10928952D02*
X17170239Y-10919429D01*
X17170239Y-10919429D02*
X17160715Y-10900381D01*
X17160715Y-10900381D02*
X17141667Y-10890857D01*
X17141667Y-10890857D02*
X17113096Y-10890857D01*
X17113096Y-10890857D02*
X17094048Y-10881333D01*
X17094048Y-10881333D02*
X17084524Y-10862286D01*
X17084524Y-10862286D02*
X17084524Y-10852762D01*
X17084524Y-10852762D02*
X17094048Y-10833714D01*
X17094048Y-10833714D02*
X17113096Y-10824190D01*
X17113096Y-10824190D02*
X17141667Y-10824190D01*
X17141667Y-10824190D02*
X17160715Y-10833714D01*
X17236905Y-11033714D02*
X17246429Y-11024190D01*
X17246429Y-11024190D02*
X17265477Y-10995619D01*
X17265477Y-10995619D02*
X17275000Y-10976571D01*
X17275000Y-10976571D02*
X17284524Y-10948000D01*
X17284524Y-10948000D02*
X17294048Y-10900381D01*
X17294048Y-10900381D02*
X17294048Y-10862286D01*
X17294048Y-10862286D02*
X17284524Y-10814667D01*
X17284524Y-10814667D02*
X17275000Y-10786095D01*
X17275000Y-10786095D02*
X17265477Y-10767048D01*
X17265477Y-10767048D02*
X17246429Y-10738476D01*
X17246429Y-10738476D02*
X17236905Y-10728952D01*
X17598810Y-11033714D02*
X17589286Y-11024190D01*
X17589286Y-11024190D02*
X17570239Y-10995619D01*
X17570239Y-10995619D02*
X17560715Y-10976571D01*
X17560715Y-10976571D02*
X17551191Y-10948000D01*
X17551191Y-10948000D02*
X17541667Y-10900381D01*
X17541667Y-10900381D02*
X17541667Y-10862286D01*
X17541667Y-10862286D02*
X17551191Y-10814667D01*
X17551191Y-10814667D02*
X17560715Y-10786095D01*
X17560715Y-10786095D02*
X17570239Y-10767048D01*
X17570239Y-10767048D02*
X17589286Y-10738476D01*
X17589286Y-10738476D02*
X17598810Y-10728952D01*
X17675000Y-10824190D02*
X17675000Y-10957524D01*
X17675000Y-10843238D02*
X17684524Y-10833714D01*
X17684524Y-10833714D02*
X17703572Y-10824190D01*
X17703572Y-10824190D02*
X17732143Y-10824190D01*
X17732143Y-10824190D02*
X17751191Y-10833714D01*
X17751191Y-10833714D02*
X17760715Y-10852762D01*
X17760715Y-10852762D02*
X17760715Y-10957524D01*
X17884524Y-10957524D02*
X17865477Y-10948000D01*
X17865477Y-10948000D02*
X17855953Y-10938476D01*
X17855953Y-10938476D02*
X17846429Y-10919429D01*
X17846429Y-10919429D02*
X17846429Y-10862286D01*
X17846429Y-10862286D02*
X17855953Y-10843238D01*
X17855953Y-10843238D02*
X17865477Y-10833714D01*
X17865477Y-10833714D02*
X17884524Y-10824190D01*
X17884524Y-10824190D02*
X17913096Y-10824190D01*
X17913096Y-10824190D02*
X17932143Y-10833714D01*
X17932143Y-10833714D02*
X17941667Y-10843238D01*
X17941667Y-10843238D02*
X17951191Y-10862286D01*
X17951191Y-10862286D02*
X17951191Y-10919429D01*
X17951191Y-10919429D02*
X17941667Y-10938476D01*
X17941667Y-10938476D02*
X17932143Y-10948000D01*
X17932143Y-10948000D02*
X17913096Y-10957524D01*
X17913096Y-10957524D02*
X17884524Y-10957524D01*
X18008334Y-10824190D02*
X18084524Y-10824190D01*
X18036905Y-10757524D02*
X18036905Y-10928952D01*
X18036905Y-10928952D02*
X18046429Y-10948000D01*
X18046429Y-10948000D02*
X18065477Y-10957524D01*
X18065477Y-10957524D02*
X18084524Y-10957524D01*
X18303572Y-10824190D02*
X18303572Y-11024190D01*
X18303572Y-10833714D02*
X18322620Y-10824190D01*
X18322620Y-10824190D02*
X18360715Y-10824190D01*
X18360715Y-10824190D02*
X18379762Y-10833714D01*
X18379762Y-10833714D02*
X18389286Y-10843238D01*
X18389286Y-10843238D02*
X18398810Y-10862286D01*
X18398810Y-10862286D02*
X18398810Y-10919429D01*
X18398810Y-10919429D02*
X18389286Y-10938476D01*
X18389286Y-10938476D02*
X18379762Y-10948000D01*
X18379762Y-10948000D02*
X18360715Y-10957524D01*
X18360715Y-10957524D02*
X18322620Y-10957524D01*
X18322620Y-10957524D02*
X18303572Y-10948000D01*
X18513096Y-10957524D02*
X18494048Y-10948000D01*
X18494048Y-10948000D02*
X18484524Y-10928952D01*
X18484524Y-10928952D02*
X18484524Y-10757524D01*
X18675001Y-10957524D02*
X18675001Y-10852762D01*
X18675001Y-10852762D02*
X18665477Y-10833714D01*
X18665477Y-10833714D02*
X18646429Y-10824190D01*
X18646429Y-10824190D02*
X18608334Y-10824190D01*
X18608334Y-10824190D02*
X18589286Y-10833714D01*
X18675001Y-10948000D02*
X18655953Y-10957524D01*
X18655953Y-10957524D02*
X18608334Y-10957524D01*
X18608334Y-10957524D02*
X18589286Y-10948000D01*
X18589286Y-10948000D02*
X18579762Y-10928952D01*
X18579762Y-10928952D02*
X18579762Y-10909905D01*
X18579762Y-10909905D02*
X18589286Y-10890857D01*
X18589286Y-10890857D02*
X18608334Y-10881333D01*
X18608334Y-10881333D02*
X18655953Y-10881333D01*
X18655953Y-10881333D02*
X18675001Y-10871810D01*
X18741667Y-10824190D02*
X18817858Y-10824190D01*
X18770239Y-10757524D02*
X18770239Y-10928952D01*
X18770239Y-10928952D02*
X18779762Y-10948000D01*
X18779762Y-10948000D02*
X18798810Y-10957524D01*
X18798810Y-10957524D02*
X18817858Y-10957524D01*
X18960715Y-10948000D02*
X18941667Y-10957524D01*
X18941667Y-10957524D02*
X18903572Y-10957524D01*
X18903572Y-10957524D02*
X18884524Y-10948000D01*
X18884524Y-10948000D02*
X18875001Y-10928952D01*
X18875001Y-10928952D02*
X18875001Y-10852762D01*
X18875001Y-10852762D02*
X18884524Y-10833714D01*
X18884524Y-10833714D02*
X18903572Y-10824190D01*
X18903572Y-10824190D02*
X18941667Y-10824190D01*
X18941667Y-10824190D02*
X18960715Y-10833714D01*
X18960715Y-10833714D02*
X18970239Y-10852762D01*
X18970239Y-10852762D02*
X18970239Y-10871810D01*
X18970239Y-10871810D02*
X18875001Y-10890857D01*
X19141667Y-10957524D02*
X19141667Y-10757524D01*
X19141667Y-10948000D02*
X19122620Y-10957524D01*
X19122620Y-10957524D02*
X19084524Y-10957524D01*
X19084524Y-10957524D02*
X19065477Y-10948000D01*
X19065477Y-10948000D02*
X19055953Y-10938476D01*
X19055953Y-10938476D02*
X19046429Y-10919429D01*
X19046429Y-10919429D02*
X19046429Y-10862286D01*
X19046429Y-10862286D02*
X19055953Y-10843238D01*
X19055953Y-10843238D02*
X19065477Y-10833714D01*
X19065477Y-10833714D02*
X19084524Y-10824190D01*
X19084524Y-10824190D02*
X19122620Y-10824190D01*
X19122620Y-10824190D02*
X19141667Y-10833714D01*
X19217858Y-11033714D02*
X19227382Y-11024190D01*
X19227382Y-11024190D02*
X19246429Y-10995619D01*
X19246429Y-10995619D02*
X19255953Y-10976571D01*
X19255953Y-10976571D02*
X19265477Y-10948000D01*
X19265477Y-10948000D02*
X19275001Y-10900381D01*
X19275001Y-10900381D02*
X19275001Y-10862286D01*
X19275001Y-10862286D02*
X19265477Y-10814667D01*
X19265477Y-10814667D02*
X19255953Y-10786095D01*
X19255953Y-10786095D02*
X19246429Y-10767048D01*
X19246429Y-10767048D02*
X19227382Y-10738476D01*
X19227382Y-10738476D02*
X19217858Y-10728952D01*
M02*
