%TF.GenerationSoftware,KiCad,Pcbnew,7.0.1*%
%TF.CreationDate,2024-04-15T22:24:01+02:00*%
%TF.ProjectId,nema17_driver,6e656d61-3137-45f6-9472-697665722e6b,rev?*%
%TF.SameCoordinates,Original*%
%TF.FileFunction,Legend,Top*%
%TF.FilePolarity,Positive*%
%FSLAX46Y46*%
G04 Gerber Fmt 4.6, Leading zero omitted, Abs format (unit mm)*
G04 Created by KiCad (PCBNEW 7.0.1) date 2024-04-15 22:24:01*
%MOMM*%
%LPD*%
G01*
G04 APERTURE LIST*
%ADD10C,0.150000*%
%ADD11C,0.120000*%
%ADD12C,0.152400*%
G04 APERTURE END LIST*
D10*
X131438749Y-86587999D02*
G75*
G03*
X131438749Y-86587999I-254000J0D01*
G01*
X147270000Y-82778000D02*
G75*
G03*
X147270000Y-82778000I-254000J0D01*
G01*
X135021591Y-64650072D02*
X134926353Y-64602453D01*
X134926353Y-64602453D02*
X134783496Y-64602453D01*
X134783496Y-64602453D02*
X134640639Y-64650072D01*
X134640639Y-64650072D02*
X134545401Y-64745310D01*
X134545401Y-64745310D02*
X134497782Y-64840548D01*
X134497782Y-64840548D02*
X134450163Y-65031024D01*
X134450163Y-65031024D02*
X134450163Y-65173881D01*
X134450163Y-65173881D02*
X134497782Y-65364357D01*
X134497782Y-65364357D02*
X134545401Y-65459595D01*
X134545401Y-65459595D02*
X134640639Y-65554834D01*
X134640639Y-65554834D02*
X134783496Y-65602453D01*
X134783496Y-65602453D02*
X134878734Y-65602453D01*
X134878734Y-65602453D02*
X135021591Y-65554834D01*
X135021591Y-65554834D02*
X135069210Y-65507214D01*
X135069210Y-65507214D02*
X135069210Y-65173881D01*
X135069210Y-65173881D02*
X134878734Y-65173881D01*
X135497782Y-65602453D02*
X135497782Y-64602453D01*
X135497782Y-64602453D02*
X136069210Y-65602453D01*
X136069210Y-65602453D02*
X136069210Y-64602453D01*
X136545401Y-65602453D02*
X136545401Y-64602453D01*
X136545401Y-64602453D02*
X136783496Y-64602453D01*
X136783496Y-64602453D02*
X136926353Y-64650072D01*
X136926353Y-64650072D02*
X137021591Y-64745310D01*
X137021591Y-64745310D02*
X137069210Y-64840548D01*
X137069210Y-64840548D02*
X137116829Y-65031024D01*
X137116829Y-65031024D02*
X137116829Y-65173881D01*
X137116829Y-65173881D02*
X137069210Y-65364357D01*
X137069210Y-65364357D02*
X137021591Y-65459595D01*
X137021591Y-65459595D02*
X136926353Y-65554834D01*
X136926353Y-65554834D02*
X136783496Y-65602453D01*
X136783496Y-65602453D02*
X136545401Y-65602453D01*
X138164449Y-64602453D02*
X138735877Y-64602453D01*
X138450163Y-65602453D02*
X138450163Y-64602453D01*
X138973973Y-64602453D02*
X139640639Y-65602453D01*
X139640639Y-64602453D02*
X138973973Y-65602453D01*
X141354925Y-65602453D02*
X141021592Y-65126262D01*
X140783497Y-65602453D02*
X140783497Y-64602453D01*
X140783497Y-64602453D02*
X141164449Y-64602453D01*
X141164449Y-64602453D02*
X141259687Y-64650072D01*
X141259687Y-64650072D02*
X141307306Y-64697691D01*
X141307306Y-64697691D02*
X141354925Y-64792929D01*
X141354925Y-64792929D02*
X141354925Y-64935786D01*
X141354925Y-64935786D02*
X141307306Y-65031024D01*
X141307306Y-65031024D02*
X141259687Y-65078643D01*
X141259687Y-65078643D02*
X141164449Y-65126262D01*
X141164449Y-65126262D02*
X140783497Y-65126262D01*
X141688259Y-64602453D02*
X142354925Y-65602453D01*
X142354925Y-64602453D02*
X141688259Y-65602453D01*
X153383986Y-60908552D02*
X156838386Y-60908552D01*
X156838386Y-64362952D01*
X153383986Y-64362952D01*
X153383986Y-60908552D01*
G36*
X153383986Y-60908552D02*
G01*
X156838386Y-60908552D01*
X156838386Y-64362952D01*
X153383986Y-64362952D01*
X153383986Y-60908552D01*
G37*
%TO.C,U3*%
X138113238Y-82365297D02*
X138113238Y-81839107D01*
X138113238Y-81839107D02*
X138082285Y-81777202D01*
X138082285Y-81777202D02*
X138051333Y-81746250D01*
X138051333Y-81746250D02*
X137989428Y-81715297D01*
X137989428Y-81715297D02*
X137865619Y-81715297D01*
X137865619Y-81715297D02*
X137803714Y-81746250D01*
X137803714Y-81746250D02*
X137772761Y-81777202D01*
X137772761Y-81777202D02*
X137741809Y-81839107D01*
X137741809Y-81839107D02*
X137741809Y-82365297D01*
X137494190Y-82365297D02*
X137091809Y-82365297D01*
X137091809Y-82365297D02*
X137308476Y-82117678D01*
X137308476Y-82117678D02*
X137215619Y-82117678D01*
X137215619Y-82117678D02*
X137153714Y-82086726D01*
X137153714Y-82086726D02*
X137122762Y-82055773D01*
X137122762Y-82055773D02*
X137091809Y-81993869D01*
X137091809Y-81993869D02*
X137091809Y-81839107D01*
X137091809Y-81839107D02*
X137122762Y-81777202D01*
X137122762Y-81777202D02*
X137153714Y-81746250D01*
X137153714Y-81746250D02*
X137215619Y-81715297D01*
X137215619Y-81715297D02*
X137401333Y-81715297D01*
X137401333Y-81715297D02*
X137463238Y-81746250D01*
X137463238Y-81746250D02*
X137494190Y-81777202D01*
%TO.C,R1*%
X143351666Y-100604702D02*
X143134999Y-100295178D01*
X142980237Y-100604702D02*
X142980237Y-99954702D01*
X142980237Y-99954702D02*
X143227856Y-99954702D01*
X143227856Y-99954702D02*
X143289761Y-99985654D01*
X143289761Y-99985654D02*
X143320714Y-100016607D01*
X143320714Y-100016607D02*
X143351666Y-100078511D01*
X143351666Y-100078511D02*
X143351666Y-100171369D01*
X143351666Y-100171369D02*
X143320714Y-100233273D01*
X143320714Y-100233273D02*
X143289761Y-100264226D01*
X143289761Y-100264226D02*
X143227856Y-100295178D01*
X143227856Y-100295178D02*
X142980237Y-100295178D01*
X143970714Y-100604702D02*
X143599285Y-100604702D01*
X143784999Y-100604702D02*
X143784999Y-99954702D01*
X143784999Y-99954702D02*
X143723095Y-100047559D01*
X143723095Y-100047559D02*
X143661190Y-100109464D01*
X143661190Y-100109464D02*
X143599285Y-100140416D01*
%TO.C,X5*%
X133485009Y-62261102D02*
X133918342Y-62911102D01*
X133918342Y-62261102D02*
X133485009Y-62911102D01*
X134475485Y-62261102D02*
X134165961Y-62261102D01*
X134165961Y-62261102D02*
X134135009Y-62570626D01*
X134135009Y-62570626D02*
X134165961Y-62539673D01*
X134165961Y-62539673D02*
X134227866Y-62508721D01*
X134227866Y-62508721D02*
X134382628Y-62508721D01*
X134382628Y-62508721D02*
X134444533Y-62539673D01*
X134444533Y-62539673D02*
X134475485Y-62570626D01*
X134475485Y-62570626D02*
X134506438Y-62632530D01*
X134506438Y-62632530D02*
X134506438Y-62787292D01*
X134506438Y-62787292D02*
X134475485Y-62849197D01*
X134475485Y-62849197D02*
X134444533Y-62880150D01*
X134444533Y-62880150D02*
X134382628Y-62911102D01*
X134382628Y-62911102D02*
X134227866Y-62911102D01*
X134227866Y-62911102D02*
X134165961Y-62880150D01*
X134165961Y-62880150D02*
X134135009Y-62849197D01*
%TO.C,R6*%
X145739266Y-65654302D02*
X145522599Y-65344778D01*
X145367837Y-65654302D02*
X145367837Y-65004302D01*
X145367837Y-65004302D02*
X145615456Y-65004302D01*
X145615456Y-65004302D02*
X145677361Y-65035254D01*
X145677361Y-65035254D02*
X145708314Y-65066207D01*
X145708314Y-65066207D02*
X145739266Y-65128111D01*
X145739266Y-65128111D02*
X145739266Y-65220969D01*
X145739266Y-65220969D02*
X145708314Y-65282873D01*
X145708314Y-65282873D02*
X145677361Y-65313826D01*
X145677361Y-65313826D02*
X145615456Y-65344778D01*
X145615456Y-65344778D02*
X145367837Y-65344778D01*
X146296409Y-65004302D02*
X146172599Y-65004302D01*
X146172599Y-65004302D02*
X146110695Y-65035254D01*
X146110695Y-65035254D02*
X146079742Y-65066207D01*
X146079742Y-65066207D02*
X146017837Y-65159064D01*
X146017837Y-65159064D02*
X145986885Y-65282873D01*
X145986885Y-65282873D02*
X145986885Y-65530492D01*
X145986885Y-65530492D02*
X146017837Y-65592397D01*
X146017837Y-65592397D02*
X146048790Y-65623350D01*
X146048790Y-65623350D02*
X146110695Y-65654302D01*
X146110695Y-65654302D02*
X146234504Y-65654302D01*
X146234504Y-65654302D02*
X146296409Y-65623350D01*
X146296409Y-65623350D02*
X146327361Y-65592397D01*
X146327361Y-65592397D02*
X146358314Y-65530492D01*
X146358314Y-65530492D02*
X146358314Y-65375730D01*
X146358314Y-65375730D02*
X146327361Y-65313826D01*
X146327361Y-65313826D02*
X146296409Y-65282873D01*
X146296409Y-65282873D02*
X146234504Y-65251921D01*
X146234504Y-65251921D02*
X146110695Y-65251921D01*
X146110695Y-65251921D02*
X146048790Y-65282873D01*
X146048790Y-65282873D02*
X146017837Y-65313826D01*
X146017837Y-65313826D02*
X145986885Y-65375730D01*
%TO.C,R9*%
X159000702Y-68916333D02*
X158691178Y-69133000D01*
X159000702Y-69287762D02*
X158350702Y-69287762D01*
X158350702Y-69287762D02*
X158350702Y-69040143D01*
X158350702Y-69040143D02*
X158381654Y-68978238D01*
X158381654Y-68978238D02*
X158412607Y-68947285D01*
X158412607Y-68947285D02*
X158474511Y-68916333D01*
X158474511Y-68916333D02*
X158567369Y-68916333D01*
X158567369Y-68916333D02*
X158629273Y-68947285D01*
X158629273Y-68947285D02*
X158660226Y-68978238D01*
X158660226Y-68978238D02*
X158691178Y-69040143D01*
X158691178Y-69040143D02*
X158691178Y-69287762D01*
X159000702Y-68606809D02*
X159000702Y-68483000D01*
X159000702Y-68483000D02*
X158969750Y-68421095D01*
X158969750Y-68421095D02*
X158938797Y-68390143D01*
X158938797Y-68390143D02*
X158845940Y-68328238D01*
X158845940Y-68328238D02*
X158722130Y-68297285D01*
X158722130Y-68297285D02*
X158474511Y-68297285D01*
X158474511Y-68297285D02*
X158412607Y-68328238D01*
X158412607Y-68328238D02*
X158381654Y-68359190D01*
X158381654Y-68359190D02*
X158350702Y-68421095D01*
X158350702Y-68421095D02*
X158350702Y-68544904D01*
X158350702Y-68544904D02*
X158381654Y-68606809D01*
X158381654Y-68606809D02*
X158412607Y-68637762D01*
X158412607Y-68637762D02*
X158474511Y-68668714D01*
X158474511Y-68668714D02*
X158629273Y-68668714D01*
X158629273Y-68668714D02*
X158691178Y-68637762D01*
X158691178Y-68637762D02*
X158722130Y-68606809D01*
X158722130Y-68606809D02*
X158753083Y-68544904D01*
X158753083Y-68544904D02*
X158753083Y-68421095D01*
X158753083Y-68421095D02*
X158722130Y-68359190D01*
X158722130Y-68359190D02*
X158691178Y-68328238D01*
X158691178Y-68328238D02*
X158629273Y-68297285D01*
%TO.C,C10*%
X134554797Y-90561857D02*
X134585750Y-90592809D01*
X134585750Y-90592809D02*
X134616702Y-90685667D01*
X134616702Y-90685667D02*
X134616702Y-90747571D01*
X134616702Y-90747571D02*
X134585750Y-90840428D01*
X134585750Y-90840428D02*
X134523845Y-90902333D01*
X134523845Y-90902333D02*
X134461940Y-90933286D01*
X134461940Y-90933286D02*
X134338130Y-90964238D01*
X134338130Y-90964238D02*
X134245273Y-90964238D01*
X134245273Y-90964238D02*
X134121464Y-90933286D01*
X134121464Y-90933286D02*
X134059559Y-90902333D01*
X134059559Y-90902333D02*
X133997654Y-90840428D01*
X133997654Y-90840428D02*
X133966702Y-90747571D01*
X133966702Y-90747571D02*
X133966702Y-90685667D01*
X133966702Y-90685667D02*
X133997654Y-90592809D01*
X133997654Y-90592809D02*
X134028607Y-90561857D01*
X134616702Y-89942809D02*
X134616702Y-90314238D01*
X134616702Y-90128524D02*
X133966702Y-90128524D01*
X133966702Y-90128524D02*
X134059559Y-90190428D01*
X134059559Y-90190428D02*
X134121464Y-90252333D01*
X134121464Y-90252333D02*
X134152416Y-90314238D01*
X133966702Y-89540428D02*
X133966702Y-89478523D01*
X133966702Y-89478523D02*
X133997654Y-89416619D01*
X133997654Y-89416619D02*
X134028607Y-89385666D01*
X134028607Y-89385666D02*
X134090511Y-89354714D01*
X134090511Y-89354714D02*
X134214321Y-89323761D01*
X134214321Y-89323761D02*
X134369083Y-89323761D01*
X134369083Y-89323761D02*
X134492892Y-89354714D01*
X134492892Y-89354714D02*
X134554797Y-89385666D01*
X134554797Y-89385666D02*
X134585750Y-89416619D01*
X134585750Y-89416619D02*
X134616702Y-89478523D01*
X134616702Y-89478523D02*
X134616702Y-89540428D01*
X134616702Y-89540428D02*
X134585750Y-89602333D01*
X134585750Y-89602333D02*
X134554797Y-89633285D01*
X134554797Y-89633285D02*
X134492892Y-89664238D01*
X134492892Y-89664238D02*
X134369083Y-89695190D01*
X134369083Y-89695190D02*
X134214321Y-89695190D01*
X134214321Y-89695190D02*
X134090511Y-89664238D01*
X134090511Y-89664238D02*
X134028607Y-89633285D01*
X134028607Y-89633285D02*
X133997654Y-89602333D01*
X133997654Y-89602333D02*
X133966702Y-89540428D01*
%TO.C,R2*%
X143760702Y-68916333D02*
X143451178Y-69133000D01*
X143760702Y-69287762D02*
X143110702Y-69287762D01*
X143110702Y-69287762D02*
X143110702Y-69040143D01*
X143110702Y-69040143D02*
X143141654Y-68978238D01*
X143141654Y-68978238D02*
X143172607Y-68947285D01*
X143172607Y-68947285D02*
X143234511Y-68916333D01*
X143234511Y-68916333D02*
X143327369Y-68916333D01*
X143327369Y-68916333D02*
X143389273Y-68947285D01*
X143389273Y-68947285D02*
X143420226Y-68978238D01*
X143420226Y-68978238D02*
X143451178Y-69040143D01*
X143451178Y-69040143D02*
X143451178Y-69287762D01*
X143172607Y-68668714D02*
X143141654Y-68637762D01*
X143141654Y-68637762D02*
X143110702Y-68575857D01*
X143110702Y-68575857D02*
X143110702Y-68421095D01*
X143110702Y-68421095D02*
X143141654Y-68359190D01*
X143141654Y-68359190D02*
X143172607Y-68328238D01*
X143172607Y-68328238D02*
X143234511Y-68297285D01*
X143234511Y-68297285D02*
X143296416Y-68297285D01*
X143296416Y-68297285D02*
X143389273Y-68328238D01*
X143389273Y-68328238D02*
X143760702Y-68699666D01*
X143760702Y-68699666D02*
X143760702Y-68297285D01*
%TO.C,R14*%
X146300702Y-68971857D02*
X145991178Y-69188524D01*
X146300702Y-69343286D02*
X145650702Y-69343286D01*
X145650702Y-69343286D02*
X145650702Y-69095667D01*
X145650702Y-69095667D02*
X145681654Y-69033762D01*
X145681654Y-69033762D02*
X145712607Y-69002809D01*
X145712607Y-69002809D02*
X145774511Y-68971857D01*
X145774511Y-68971857D02*
X145867369Y-68971857D01*
X145867369Y-68971857D02*
X145929273Y-69002809D01*
X145929273Y-69002809D02*
X145960226Y-69033762D01*
X145960226Y-69033762D02*
X145991178Y-69095667D01*
X145991178Y-69095667D02*
X145991178Y-69343286D01*
X146300702Y-68352809D02*
X146300702Y-68724238D01*
X146300702Y-68538524D02*
X145650702Y-68538524D01*
X145650702Y-68538524D02*
X145743559Y-68600428D01*
X145743559Y-68600428D02*
X145805464Y-68662333D01*
X145805464Y-68662333D02*
X145836416Y-68724238D01*
X145867369Y-67795666D02*
X146300702Y-67795666D01*
X145619750Y-67950428D02*
X146084035Y-68105190D01*
X146084035Y-68105190D02*
X146084035Y-67702809D01*
%TO.C,VREG1*%
X153673761Y-76332702D02*
X153890428Y-76982702D01*
X153890428Y-76982702D02*
X154107095Y-76332702D01*
X154695190Y-76982702D02*
X154478523Y-76673178D01*
X154323761Y-76982702D02*
X154323761Y-76332702D01*
X154323761Y-76332702D02*
X154571380Y-76332702D01*
X154571380Y-76332702D02*
X154633285Y-76363654D01*
X154633285Y-76363654D02*
X154664238Y-76394607D01*
X154664238Y-76394607D02*
X154695190Y-76456511D01*
X154695190Y-76456511D02*
X154695190Y-76549369D01*
X154695190Y-76549369D02*
X154664238Y-76611273D01*
X154664238Y-76611273D02*
X154633285Y-76642226D01*
X154633285Y-76642226D02*
X154571380Y-76673178D01*
X154571380Y-76673178D02*
X154323761Y-76673178D01*
X154973761Y-76642226D02*
X155190428Y-76642226D01*
X155283285Y-76982702D02*
X154973761Y-76982702D01*
X154973761Y-76982702D02*
X154973761Y-76332702D01*
X154973761Y-76332702D02*
X155283285Y-76332702D01*
X155902333Y-76363654D02*
X155840428Y-76332702D01*
X155840428Y-76332702D02*
X155747571Y-76332702D01*
X155747571Y-76332702D02*
X155654714Y-76363654D01*
X155654714Y-76363654D02*
X155592809Y-76425559D01*
X155592809Y-76425559D02*
X155561856Y-76487464D01*
X155561856Y-76487464D02*
X155530904Y-76611273D01*
X155530904Y-76611273D02*
X155530904Y-76704130D01*
X155530904Y-76704130D02*
X155561856Y-76827940D01*
X155561856Y-76827940D02*
X155592809Y-76889845D01*
X155592809Y-76889845D02*
X155654714Y-76951750D01*
X155654714Y-76951750D02*
X155747571Y-76982702D01*
X155747571Y-76982702D02*
X155809475Y-76982702D01*
X155809475Y-76982702D02*
X155902333Y-76951750D01*
X155902333Y-76951750D02*
X155933285Y-76920797D01*
X155933285Y-76920797D02*
X155933285Y-76704130D01*
X155933285Y-76704130D02*
X155809475Y-76704130D01*
X156552333Y-76982702D02*
X156180904Y-76982702D01*
X156366618Y-76982702D02*
X156366618Y-76332702D01*
X156366618Y-76332702D02*
X156304714Y-76425559D01*
X156304714Y-76425559D02*
X156242809Y-76487464D01*
X156242809Y-76487464D02*
X156180904Y-76518416D01*
%TO.C,C5*%
X147161666Y-85302797D02*
X147130714Y-85333750D01*
X147130714Y-85333750D02*
X147037856Y-85364702D01*
X147037856Y-85364702D02*
X146975952Y-85364702D01*
X146975952Y-85364702D02*
X146883095Y-85333750D01*
X146883095Y-85333750D02*
X146821190Y-85271845D01*
X146821190Y-85271845D02*
X146790237Y-85209940D01*
X146790237Y-85209940D02*
X146759285Y-85086130D01*
X146759285Y-85086130D02*
X146759285Y-84993273D01*
X146759285Y-84993273D02*
X146790237Y-84869464D01*
X146790237Y-84869464D02*
X146821190Y-84807559D01*
X146821190Y-84807559D02*
X146883095Y-84745654D01*
X146883095Y-84745654D02*
X146975952Y-84714702D01*
X146975952Y-84714702D02*
X147037856Y-84714702D01*
X147037856Y-84714702D02*
X147130714Y-84745654D01*
X147130714Y-84745654D02*
X147161666Y-84776607D01*
X147749761Y-84714702D02*
X147440237Y-84714702D01*
X147440237Y-84714702D02*
X147409285Y-85024226D01*
X147409285Y-85024226D02*
X147440237Y-84993273D01*
X147440237Y-84993273D02*
X147502142Y-84962321D01*
X147502142Y-84962321D02*
X147656904Y-84962321D01*
X147656904Y-84962321D02*
X147718809Y-84993273D01*
X147718809Y-84993273D02*
X147749761Y-85024226D01*
X147749761Y-85024226D02*
X147780714Y-85086130D01*
X147780714Y-85086130D02*
X147780714Y-85240892D01*
X147780714Y-85240892D02*
X147749761Y-85302797D01*
X147749761Y-85302797D02*
X147718809Y-85333750D01*
X147718809Y-85333750D02*
X147656904Y-85364702D01*
X147656904Y-85364702D02*
X147502142Y-85364702D01*
X147502142Y-85364702D02*
X147440237Y-85333750D01*
X147440237Y-85333750D02*
X147409285Y-85302797D01*
%TO.C,R8*%
X161540702Y-68916333D02*
X161231178Y-69133000D01*
X161540702Y-69287762D02*
X160890702Y-69287762D01*
X160890702Y-69287762D02*
X160890702Y-69040143D01*
X160890702Y-69040143D02*
X160921654Y-68978238D01*
X160921654Y-68978238D02*
X160952607Y-68947285D01*
X160952607Y-68947285D02*
X161014511Y-68916333D01*
X161014511Y-68916333D02*
X161107369Y-68916333D01*
X161107369Y-68916333D02*
X161169273Y-68947285D01*
X161169273Y-68947285D02*
X161200226Y-68978238D01*
X161200226Y-68978238D02*
X161231178Y-69040143D01*
X161231178Y-69040143D02*
X161231178Y-69287762D01*
X161169273Y-68544904D02*
X161138321Y-68606809D01*
X161138321Y-68606809D02*
X161107369Y-68637762D01*
X161107369Y-68637762D02*
X161045464Y-68668714D01*
X161045464Y-68668714D02*
X161014511Y-68668714D01*
X161014511Y-68668714D02*
X160952607Y-68637762D01*
X160952607Y-68637762D02*
X160921654Y-68606809D01*
X160921654Y-68606809D02*
X160890702Y-68544904D01*
X160890702Y-68544904D02*
X160890702Y-68421095D01*
X160890702Y-68421095D02*
X160921654Y-68359190D01*
X160921654Y-68359190D02*
X160952607Y-68328238D01*
X160952607Y-68328238D02*
X161014511Y-68297285D01*
X161014511Y-68297285D02*
X161045464Y-68297285D01*
X161045464Y-68297285D02*
X161107369Y-68328238D01*
X161107369Y-68328238D02*
X161138321Y-68359190D01*
X161138321Y-68359190D02*
X161169273Y-68421095D01*
X161169273Y-68421095D02*
X161169273Y-68544904D01*
X161169273Y-68544904D02*
X161200226Y-68606809D01*
X161200226Y-68606809D02*
X161231178Y-68637762D01*
X161231178Y-68637762D02*
X161293083Y-68668714D01*
X161293083Y-68668714D02*
X161416892Y-68668714D01*
X161416892Y-68668714D02*
X161478797Y-68637762D01*
X161478797Y-68637762D02*
X161509750Y-68606809D01*
X161509750Y-68606809D02*
X161540702Y-68544904D01*
X161540702Y-68544904D02*
X161540702Y-68421095D01*
X161540702Y-68421095D02*
X161509750Y-68359190D01*
X161509750Y-68359190D02*
X161478797Y-68328238D01*
X161478797Y-68328238D02*
X161416892Y-68297285D01*
X161416892Y-68297285D02*
X161293083Y-68297285D01*
X161293083Y-68297285D02*
X161231178Y-68328238D01*
X161231178Y-68328238D02*
X161200226Y-68359190D01*
X161200226Y-68359190D02*
X161169273Y-68421095D01*
%TO.C,R5*%
X151124066Y-65755902D02*
X150907399Y-65446378D01*
X150752637Y-65755902D02*
X150752637Y-65105902D01*
X150752637Y-65105902D02*
X151000256Y-65105902D01*
X151000256Y-65105902D02*
X151062161Y-65136854D01*
X151062161Y-65136854D02*
X151093114Y-65167807D01*
X151093114Y-65167807D02*
X151124066Y-65229711D01*
X151124066Y-65229711D02*
X151124066Y-65322569D01*
X151124066Y-65322569D02*
X151093114Y-65384473D01*
X151093114Y-65384473D02*
X151062161Y-65415426D01*
X151062161Y-65415426D02*
X151000256Y-65446378D01*
X151000256Y-65446378D02*
X150752637Y-65446378D01*
X151712161Y-65105902D02*
X151402637Y-65105902D01*
X151402637Y-65105902D02*
X151371685Y-65415426D01*
X151371685Y-65415426D02*
X151402637Y-65384473D01*
X151402637Y-65384473D02*
X151464542Y-65353521D01*
X151464542Y-65353521D02*
X151619304Y-65353521D01*
X151619304Y-65353521D02*
X151681209Y-65384473D01*
X151681209Y-65384473D02*
X151712161Y-65415426D01*
X151712161Y-65415426D02*
X151743114Y-65477330D01*
X151743114Y-65477330D02*
X151743114Y-65632092D01*
X151743114Y-65632092D02*
X151712161Y-65693997D01*
X151712161Y-65693997D02*
X151681209Y-65724950D01*
X151681209Y-65724950D02*
X151619304Y-65755902D01*
X151619304Y-65755902D02*
X151464542Y-65755902D01*
X151464542Y-65755902D02*
X151402637Y-65724950D01*
X151402637Y-65724950D02*
X151371685Y-65693997D01*
%TO.C,U2*%
X132646502Y-86067238D02*
X133172692Y-86067238D01*
X133172692Y-86067238D02*
X133234597Y-86036285D01*
X133234597Y-86036285D02*
X133265550Y-86005333D01*
X133265550Y-86005333D02*
X133296502Y-85943428D01*
X133296502Y-85943428D02*
X133296502Y-85819619D01*
X133296502Y-85819619D02*
X133265550Y-85757714D01*
X133265550Y-85757714D02*
X133234597Y-85726761D01*
X133234597Y-85726761D02*
X133172692Y-85695809D01*
X133172692Y-85695809D02*
X132646502Y-85695809D01*
X132708407Y-85417238D02*
X132677454Y-85386286D01*
X132677454Y-85386286D02*
X132646502Y-85324381D01*
X132646502Y-85324381D02*
X132646502Y-85169619D01*
X132646502Y-85169619D02*
X132677454Y-85107714D01*
X132677454Y-85107714D02*
X132708407Y-85076762D01*
X132708407Y-85076762D02*
X132770311Y-85045809D01*
X132770311Y-85045809D02*
X132832216Y-85045809D01*
X132832216Y-85045809D02*
X132925073Y-85076762D01*
X132925073Y-85076762D02*
X133296502Y-85448190D01*
X133296502Y-85448190D02*
X133296502Y-85045809D01*
%TO.C,R12*%
X151380702Y-68971857D02*
X151071178Y-69188524D01*
X151380702Y-69343286D02*
X150730702Y-69343286D01*
X150730702Y-69343286D02*
X150730702Y-69095667D01*
X150730702Y-69095667D02*
X150761654Y-69033762D01*
X150761654Y-69033762D02*
X150792607Y-69002809D01*
X150792607Y-69002809D02*
X150854511Y-68971857D01*
X150854511Y-68971857D02*
X150947369Y-68971857D01*
X150947369Y-68971857D02*
X151009273Y-69002809D01*
X151009273Y-69002809D02*
X151040226Y-69033762D01*
X151040226Y-69033762D02*
X151071178Y-69095667D01*
X151071178Y-69095667D02*
X151071178Y-69343286D01*
X151380702Y-68352809D02*
X151380702Y-68724238D01*
X151380702Y-68538524D02*
X150730702Y-68538524D01*
X150730702Y-68538524D02*
X150823559Y-68600428D01*
X150823559Y-68600428D02*
X150885464Y-68662333D01*
X150885464Y-68662333D02*
X150916416Y-68724238D01*
X150792607Y-68105190D02*
X150761654Y-68074238D01*
X150761654Y-68074238D02*
X150730702Y-68012333D01*
X150730702Y-68012333D02*
X150730702Y-67857571D01*
X150730702Y-67857571D02*
X150761654Y-67795666D01*
X150761654Y-67795666D02*
X150792607Y-67764714D01*
X150792607Y-67764714D02*
X150854511Y-67733761D01*
X150854511Y-67733761D02*
X150916416Y-67733761D01*
X150916416Y-67733761D02*
X151009273Y-67764714D01*
X151009273Y-67764714D02*
X151380702Y-68136142D01*
X151380702Y-68136142D02*
X151380702Y-67733761D01*
%TO.C,R7*%
X164080702Y-68916333D02*
X163771178Y-69133000D01*
X164080702Y-69287762D02*
X163430702Y-69287762D01*
X163430702Y-69287762D02*
X163430702Y-69040143D01*
X163430702Y-69040143D02*
X163461654Y-68978238D01*
X163461654Y-68978238D02*
X163492607Y-68947285D01*
X163492607Y-68947285D02*
X163554511Y-68916333D01*
X163554511Y-68916333D02*
X163647369Y-68916333D01*
X163647369Y-68916333D02*
X163709273Y-68947285D01*
X163709273Y-68947285D02*
X163740226Y-68978238D01*
X163740226Y-68978238D02*
X163771178Y-69040143D01*
X163771178Y-69040143D02*
X163771178Y-69287762D01*
X163430702Y-68699666D02*
X163430702Y-68266333D01*
X163430702Y-68266333D02*
X164080702Y-68544904D01*
%TO.C,U1*%
X149314761Y-84714702D02*
X149314761Y-85240892D01*
X149314761Y-85240892D02*
X149345714Y-85302797D01*
X149345714Y-85302797D02*
X149376666Y-85333750D01*
X149376666Y-85333750D02*
X149438571Y-85364702D01*
X149438571Y-85364702D02*
X149562380Y-85364702D01*
X149562380Y-85364702D02*
X149624285Y-85333750D01*
X149624285Y-85333750D02*
X149655238Y-85302797D01*
X149655238Y-85302797D02*
X149686190Y-85240892D01*
X149686190Y-85240892D02*
X149686190Y-84714702D01*
X150336190Y-85364702D02*
X149964761Y-85364702D01*
X150150475Y-85364702D02*
X150150475Y-84714702D01*
X150150475Y-84714702D02*
X150088571Y-84807559D01*
X150088571Y-84807559D02*
X150026666Y-84869464D01*
X150026666Y-84869464D02*
X149964761Y-84900416D01*
%TO.C,X4*%
X157411809Y-62311902D02*
X157845142Y-62961902D01*
X157845142Y-62311902D02*
X157411809Y-62961902D01*
X158371333Y-62528569D02*
X158371333Y-62961902D01*
X158216571Y-62280950D02*
X158061809Y-62745235D01*
X158061809Y-62745235D02*
X158464190Y-62745235D01*
%TO.C,R4*%
X138731502Y-68916333D02*
X138421978Y-69133000D01*
X138731502Y-69287762D02*
X138081502Y-69287762D01*
X138081502Y-69287762D02*
X138081502Y-69040143D01*
X138081502Y-69040143D02*
X138112454Y-68978238D01*
X138112454Y-68978238D02*
X138143407Y-68947285D01*
X138143407Y-68947285D02*
X138205311Y-68916333D01*
X138205311Y-68916333D02*
X138298169Y-68916333D01*
X138298169Y-68916333D02*
X138360073Y-68947285D01*
X138360073Y-68947285D02*
X138391026Y-68978238D01*
X138391026Y-68978238D02*
X138421978Y-69040143D01*
X138421978Y-69040143D02*
X138421978Y-69287762D01*
X138298169Y-68359190D02*
X138731502Y-68359190D01*
X138050550Y-68513952D02*
X138514835Y-68668714D01*
X138514835Y-68668714D02*
X138514835Y-68266333D01*
%TO.C,C4*%
X148939666Y-89620797D02*
X148908714Y-89651750D01*
X148908714Y-89651750D02*
X148815856Y-89682702D01*
X148815856Y-89682702D02*
X148753952Y-89682702D01*
X148753952Y-89682702D02*
X148661095Y-89651750D01*
X148661095Y-89651750D02*
X148599190Y-89589845D01*
X148599190Y-89589845D02*
X148568237Y-89527940D01*
X148568237Y-89527940D02*
X148537285Y-89404130D01*
X148537285Y-89404130D02*
X148537285Y-89311273D01*
X148537285Y-89311273D02*
X148568237Y-89187464D01*
X148568237Y-89187464D02*
X148599190Y-89125559D01*
X148599190Y-89125559D02*
X148661095Y-89063654D01*
X148661095Y-89063654D02*
X148753952Y-89032702D01*
X148753952Y-89032702D02*
X148815856Y-89032702D01*
X148815856Y-89032702D02*
X148908714Y-89063654D01*
X148908714Y-89063654D02*
X148939666Y-89094607D01*
X149496809Y-89249369D02*
X149496809Y-89682702D01*
X149342047Y-89001750D02*
X149187285Y-89466035D01*
X149187285Y-89466035D02*
X149589666Y-89466035D01*
%TO.C,C9*%
X139888797Y-73996333D02*
X139919750Y-74027285D01*
X139919750Y-74027285D02*
X139950702Y-74120143D01*
X139950702Y-74120143D02*
X139950702Y-74182047D01*
X139950702Y-74182047D02*
X139919750Y-74274904D01*
X139919750Y-74274904D02*
X139857845Y-74336809D01*
X139857845Y-74336809D02*
X139795940Y-74367762D01*
X139795940Y-74367762D02*
X139672130Y-74398714D01*
X139672130Y-74398714D02*
X139579273Y-74398714D01*
X139579273Y-74398714D02*
X139455464Y-74367762D01*
X139455464Y-74367762D02*
X139393559Y-74336809D01*
X139393559Y-74336809D02*
X139331654Y-74274904D01*
X139331654Y-74274904D02*
X139300702Y-74182047D01*
X139300702Y-74182047D02*
X139300702Y-74120143D01*
X139300702Y-74120143D02*
X139331654Y-74027285D01*
X139331654Y-74027285D02*
X139362607Y-73996333D01*
X139950702Y-73686809D02*
X139950702Y-73563000D01*
X139950702Y-73563000D02*
X139919750Y-73501095D01*
X139919750Y-73501095D02*
X139888797Y-73470143D01*
X139888797Y-73470143D02*
X139795940Y-73408238D01*
X139795940Y-73408238D02*
X139672130Y-73377285D01*
X139672130Y-73377285D02*
X139424511Y-73377285D01*
X139424511Y-73377285D02*
X139362607Y-73408238D01*
X139362607Y-73408238D02*
X139331654Y-73439190D01*
X139331654Y-73439190D02*
X139300702Y-73501095D01*
X139300702Y-73501095D02*
X139300702Y-73624904D01*
X139300702Y-73624904D02*
X139331654Y-73686809D01*
X139331654Y-73686809D02*
X139362607Y-73717762D01*
X139362607Y-73717762D02*
X139424511Y-73748714D01*
X139424511Y-73748714D02*
X139579273Y-73748714D01*
X139579273Y-73748714D02*
X139641178Y-73717762D01*
X139641178Y-73717762D02*
X139672130Y-73686809D01*
X139672130Y-73686809D02*
X139703083Y-73624904D01*
X139703083Y-73624904D02*
X139703083Y-73501095D01*
X139703083Y-73501095D02*
X139672130Y-73439190D01*
X139672130Y-73439190D02*
X139641178Y-73408238D01*
X139641178Y-73408238D02*
X139579273Y-73377285D01*
%TO.C,C2*%
X160877666Y-78190797D02*
X160846714Y-78221750D01*
X160846714Y-78221750D02*
X160753856Y-78252702D01*
X160753856Y-78252702D02*
X160691952Y-78252702D01*
X160691952Y-78252702D02*
X160599095Y-78221750D01*
X160599095Y-78221750D02*
X160537190Y-78159845D01*
X160537190Y-78159845D02*
X160506237Y-78097940D01*
X160506237Y-78097940D02*
X160475285Y-77974130D01*
X160475285Y-77974130D02*
X160475285Y-77881273D01*
X160475285Y-77881273D02*
X160506237Y-77757464D01*
X160506237Y-77757464D02*
X160537190Y-77695559D01*
X160537190Y-77695559D02*
X160599095Y-77633654D01*
X160599095Y-77633654D02*
X160691952Y-77602702D01*
X160691952Y-77602702D02*
X160753856Y-77602702D01*
X160753856Y-77602702D02*
X160846714Y-77633654D01*
X160846714Y-77633654D02*
X160877666Y-77664607D01*
X161125285Y-77664607D02*
X161156237Y-77633654D01*
X161156237Y-77633654D02*
X161218142Y-77602702D01*
X161218142Y-77602702D02*
X161372904Y-77602702D01*
X161372904Y-77602702D02*
X161434809Y-77633654D01*
X161434809Y-77633654D02*
X161465761Y-77664607D01*
X161465761Y-77664607D02*
X161496714Y-77726511D01*
X161496714Y-77726511D02*
X161496714Y-77788416D01*
X161496714Y-77788416D02*
X161465761Y-77881273D01*
X161465761Y-77881273D02*
X161094333Y-78252702D01*
X161094333Y-78252702D02*
X161496714Y-78252702D01*
%TO.C,R3*%
X141220702Y-68916333D02*
X140911178Y-69133000D01*
X141220702Y-69287762D02*
X140570702Y-69287762D01*
X140570702Y-69287762D02*
X140570702Y-69040143D01*
X140570702Y-69040143D02*
X140601654Y-68978238D01*
X140601654Y-68978238D02*
X140632607Y-68947285D01*
X140632607Y-68947285D02*
X140694511Y-68916333D01*
X140694511Y-68916333D02*
X140787369Y-68916333D01*
X140787369Y-68916333D02*
X140849273Y-68947285D01*
X140849273Y-68947285D02*
X140880226Y-68978238D01*
X140880226Y-68978238D02*
X140911178Y-69040143D01*
X140911178Y-69040143D02*
X140911178Y-69287762D01*
X140570702Y-68699666D02*
X140570702Y-68297285D01*
X140570702Y-68297285D02*
X140818321Y-68513952D01*
X140818321Y-68513952D02*
X140818321Y-68421095D01*
X140818321Y-68421095D02*
X140849273Y-68359190D01*
X140849273Y-68359190D02*
X140880226Y-68328238D01*
X140880226Y-68328238D02*
X140942130Y-68297285D01*
X140942130Y-68297285D02*
X141096892Y-68297285D01*
X141096892Y-68297285D02*
X141158797Y-68328238D01*
X141158797Y-68328238D02*
X141189750Y-68359190D01*
X141189750Y-68359190D02*
X141220702Y-68421095D01*
X141220702Y-68421095D02*
X141220702Y-68606809D01*
X141220702Y-68606809D02*
X141189750Y-68668714D01*
X141189750Y-68668714D02*
X141158797Y-68699666D01*
%TO.C,C3*%
X164687666Y-89620797D02*
X164656714Y-89651750D01*
X164656714Y-89651750D02*
X164563856Y-89682702D01*
X164563856Y-89682702D02*
X164501952Y-89682702D01*
X164501952Y-89682702D02*
X164409095Y-89651750D01*
X164409095Y-89651750D02*
X164347190Y-89589845D01*
X164347190Y-89589845D02*
X164316237Y-89527940D01*
X164316237Y-89527940D02*
X164285285Y-89404130D01*
X164285285Y-89404130D02*
X164285285Y-89311273D01*
X164285285Y-89311273D02*
X164316237Y-89187464D01*
X164316237Y-89187464D02*
X164347190Y-89125559D01*
X164347190Y-89125559D02*
X164409095Y-89063654D01*
X164409095Y-89063654D02*
X164501952Y-89032702D01*
X164501952Y-89032702D02*
X164563856Y-89032702D01*
X164563856Y-89032702D02*
X164656714Y-89063654D01*
X164656714Y-89063654D02*
X164687666Y-89094607D01*
X164904333Y-89032702D02*
X165306714Y-89032702D01*
X165306714Y-89032702D02*
X165090047Y-89280321D01*
X165090047Y-89280321D02*
X165182904Y-89280321D01*
X165182904Y-89280321D02*
X165244809Y-89311273D01*
X165244809Y-89311273D02*
X165275761Y-89342226D01*
X165275761Y-89342226D02*
X165306714Y-89404130D01*
X165306714Y-89404130D02*
X165306714Y-89558892D01*
X165306714Y-89558892D02*
X165275761Y-89620797D01*
X165275761Y-89620797D02*
X165244809Y-89651750D01*
X165244809Y-89651750D02*
X165182904Y-89682702D01*
X165182904Y-89682702D02*
X164997190Y-89682702D01*
X164997190Y-89682702D02*
X164935285Y-89651750D01*
X164935285Y-89651750D02*
X164904333Y-89620797D01*
%TO.C,R10*%
X156460702Y-68971857D02*
X156151178Y-69188524D01*
X156460702Y-69343286D02*
X155810702Y-69343286D01*
X155810702Y-69343286D02*
X155810702Y-69095667D01*
X155810702Y-69095667D02*
X155841654Y-69033762D01*
X155841654Y-69033762D02*
X155872607Y-69002809D01*
X155872607Y-69002809D02*
X155934511Y-68971857D01*
X155934511Y-68971857D02*
X156027369Y-68971857D01*
X156027369Y-68971857D02*
X156089273Y-69002809D01*
X156089273Y-69002809D02*
X156120226Y-69033762D01*
X156120226Y-69033762D02*
X156151178Y-69095667D01*
X156151178Y-69095667D02*
X156151178Y-69343286D01*
X156460702Y-68352809D02*
X156460702Y-68724238D01*
X156460702Y-68538524D02*
X155810702Y-68538524D01*
X155810702Y-68538524D02*
X155903559Y-68600428D01*
X155903559Y-68600428D02*
X155965464Y-68662333D01*
X155965464Y-68662333D02*
X155996416Y-68724238D01*
X155810702Y-67950428D02*
X155810702Y-67888523D01*
X155810702Y-67888523D02*
X155841654Y-67826619D01*
X155841654Y-67826619D02*
X155872607Y-67795666D01*
X155872607Y-67795666D02*
X155934511Y-67764714D01*
X155934511Y-67764714D02*
X156058321Y-67733761D01*
X156058321Y-67733761D02*
X156213083Y-67733761D01*
X156213083Y-67733761D02*
X156336892Y-67764714D01*
X156336892Y-67764714D02*
X156398797Y-67795666D01*
X156398797Y-67795666D02*
X156429750Y-67826619D01*
X156429750Y-67826619D02*
X156460702Y-67888523D01*
X156460702Y-67888523D02*
X156460702Y-67950428D01*
X156460702Y-67950428D02*
X156429750Y-68012333D01*
X156429750Y-68012333D02*
X156398797Y-68043285D01*
X156398797Y-68043285D02*
X156336892Y-68074238D01*
X156336892Y-68074238D02*
X156213083Y-68105190D01*
X156213083Y-68105190D02*
X156058321Y-68105190D01*
X156058321Y-68105190D02*
X155934511Y-68074238D01*
X155934511Y-68074238D02*
X155872607Y-68043285D01*
X155872607Y-68043285D02*
X155841654Y-68012333D01*
X155841654Y-68012333D02*
X155810702Y-67950428D01*
%TO.C,C1*%
X143351666Y-86064797D02*
X143320714Y-86095750D01*
X143320714Y-86095750D02*
X143227856Y-86126702D01*
X143227856Y-86126702D02*
X143165952Y-86126702D01*
X143165952Y-86126702D02*
X143073095Y-86095750D01*
X143073095Y-86095750D02*
X143011190Y-86033845D01*
X143011190Y-86033845D02*
X142980237Y-85971940D01*
X142980237Y-85971940D02*
X142949285Y-85848130D01*
X142949285Y-85848130D02*
X142949285Y-85755273D01*
X142949285Y-85755273D02*
X142980237Y-85631464D01*
X142980237Y-85631464D02*
X143011190Y-85569559D01*
X143011190Y-85569559D02*
X143073095Y-85507654D01*
X143073095Y-85507654D02*
X143165952Y-85476702D01*
X143165952Y-85476702D02*
X143227856Y-85476702D01*
X143227856Y-85476702D02*
X143320714Y-85507654D01*
X143320714Y-85507654D02*
X143351666Y-85538607D01*
X143970714Y-86126702D02*
X143599285Y-86126702D01*
X143784999Y-86126702D02*
X143784999Y-85476702D01*
X143784999Y-85476702D02*
X143723095Y-85569559D01*
X143723095Y-85569559D02*
X143661190Y-85631464D01*
X143661190Y-85631464D02*
X143599285Y-85662416D01*
%TO.C,C6*%
X141412797Y-79584333D02*
X141443750Y-79615285D01*
X141443750Y-79615285D02*
X141474702Y-79708143D01*
X141474702Y-79708143D02*
X141474702Y-79770047D01*
X141474702Y-79770047D02*
X141443750Y-79862904D01*
X141443750Y-79862904D02*
X141381845Y-79924809D01*
X141381845Y-79924809D02*
X141319940Y-79955762D01*
X141319940Y-79955762D02*
X141196130Y-79986714D01*
X141196130Y-79986714D02*
X141103273Y-79986714D01*
X141103273Y-79986714D02*
X140979464Y-79955762D01*
X140979464Y-79955762D02*
X140917559Y-79924809D01*
X140917559Y-79924809D02*
X140855654Y-79862904D01*
X140855654Y-79862904D02*
X140824702Y-79770047D01*
X140824702Y-79770047D02*
X140824702Y-79708143D01*
X140824702Y-79708143D02*
X140855654Y-79615285D01*
X140855654Y-79615285D02*
X140886607Y-79584333D01*
X140824702Y-79027190D02*
X140824702Y-79151000D01*
X140824702Y-79151000D02*
X140855654Y-79212904D01*
X140855654Y-79212904D02*
X140886607Y-79243857D01*
X140886607Y-79243857D02*
X140979464Y-79305762D01*
X140979464Y-79305762D02*
X141103273Y-79336714D01*
X141103273Y-79336714D02*
X141350892Y-79336714D01*
X141350892Y-79336714D02*
X141412797Y-79305762D01*
X141412797Y-79305762D02*
X141443750Y-79274809D01*
X141443750Y-79274809D02*
X141474702Y-79212904D01*
X141474702Y-79212904D02*
X141474702Y-79089095D01*
X141474702Y-79089095D02*
X141443750Y-79027190D01*
X141443750Y-79027190D02*
X141412797Y-78996238D01*
X141412797Y-78996238D02*
X141350892Y-78965285D01*
X141350892Y-78965285D02*
X141196130Y-78965285D01*
X141196130Y-78965285D02*
X141134226Y-78996238D01*
X141134226Y-78996238D02*
X141103273Y-79027190D01*
X141103273Y-79027190D02*
X141072321Y-79089095D01*
X141072321Y-79089095D02*
X141072321Y-79212904D01*
X141072321Y-79212904D02*
X141103273Y-79274809D01*
X141103273Y-79274809D02*
X141134226Y-79305762D01*
X141134226Y-79305762D02*
X141196130Y-79336714D01*
%TO.C,R11*%
X153920702Y-68971857D02*
X153611178Y-69188524D01*
X153920702Y-69343286D02*
X153270702Y-69343286D01*
X153270702Y-69343286D02*
X153270702Y-69095667D01*
X153270702Y-69095667D02*
X153301654Y-69033762D01*
X153301654Y-69033762D02*
X153332607Y-69002809D01*
X153332607Y-69002809D02*
X153394511Y-68971857D01*
X153394511Y-68971857D02*
X153487369Y-68971857D01*
X153487369Y-68971857D02*
X153549273Y-69002809D01*
X153549273Y-69002809D02*
X153580226Y-69033762D01*
X153580226Y-69033762D02*
X153611178Y-69095667D01*
X153611178Y-69095667D02*
X153611178Y-69343286D01*
X153920702Y-68352809D02*
X153920702Y-68724238D01*
X153920702Y-68538524D02*
X153270702Y-68538524D01*
X153270702Y-68538524D02*
X153363559Y-68600428D01*
X153363559Y-68600428D02*
X153425464Y-68662333D01*
X153425464Y-68662333D02*
X153456416Y-68724238D01*
X153920702Y-67733761D02*
X153920702Y-68105190D01*
X153920702Y-67919476D02*
X153270702Y-67919476D01*
X153270702Y-67919476D02*
X153363559Y-67981380D01*
X153363559Y-67981380D02*
X153425464Y-68043285D01*
X153425464Y-68043285D02*
X153456416Y-68105190D01*
%TO.C,R13*%
X148840702Y-68971857D02*
X148531178Y-69188524D01*
X148840702Y-69343286D02*
X148190702Y-69343286D01*
X148190702Y-69343286D02*
X148190702Y-69095667D01*
X148190702Y-69095667D02*
X148221654Y-69033762D01*
X148221654Y-69033762D02*
X148252607Y-69002809D01*
X148252607Y-69002809D02*
X148314511Y-68971857D01*
X148314511Y-68971857D02*
X148407369Y-68971857D01*
X148407369Y-68971857D02*
X148469273Y-69002809D01*
X148469273Y-69002809D02*
X148500226Y-69033762D01*
X148500226Y-69033762D02*
X148531178Y-69095667D01*
X148531178Y-69095667D02*
X148531178Y-69343286D01*
X148840702Y-68352809D02*
X148840702Y-68724238D01*
X148840702Y-68538524D02*
X148190702Y-68538524D01*
X148190702Y-68538524D02*
X148283559Y-68600428D01*
X148283559Y-68600428D02*
X148345464Y-68662333D01*
X148345464Y-68662333D02*
X148376416Y-68724238D01*
X148190702Y-68136142D02*
X148190702Y-67733761D01*
X148190702Y-67733761D02*
X148438321Y-67950428D01*
X148438321Y-67950428D02*
X148438321Y-67857571D01*
X148438321Y-67857571D02*
X148469273Y-67795666D01*
X148469273Y-67795666D02*
X148500226Y-67764714D01*
X148500226Y-67764714D02*
X148562130Y-67733761D01*
X148562130Y-67733761D02*
X148716892Y-67733761D01*
X148716892Y-67733761D02*
X148778797Y-67764714D01*
X148778797Y-67764714D02*
X148809750Y-67795666D01*
X148809750Y-67795666D02*
X148840702Y-67857571D01*
X148840702Y-67857571D02*
X148840702Y-68043285D01*
X148840702Y-68043285D02*
X148809750Y-68105190D01*
X148809750Y-68105190D02*
X148778797Y-68136142D01*
%TO.C,U3*%
G36*
X128385100Y-77384501D02*
G01*
X128131100Y-77384501D01*
X128131100Y-77003500D01*
X128385100Y-77003500D01*
X128385100Y-77384501D01*
G37*
G36*
X132426499Y-82798899D02*
G01*
X132045499Y-82798899D01*
X132045499Y-82544899D01*
X132426499Y-82544899D01*
X132426499Y-82798899D01*
G37*
G36*
X132926498Y-72343101D02*
G01*
X132545498Y-72343101D01*
X132545498Y-72089101D01*
X132926498Y-72089101D01*
X132926498Y-72343101D01*
G37*
G36*
X138840898Y-75884501D02*
G01*
X138586898Y-75884501D01*
X138586898Y-75503501D01*
X138840898Y-75503501D01*
X138840898Y-75884501D01*
G37*
D11*
X136555942Y-79984000D02*
G75*
G03*
X136555942Y-79984000I-529943J0D01*
G01*
D12*
X138913100Y-80194000D02*
G75*
G03*
X138913100Y-80194000I-76200J0D01*
G01*
X129764899Y-73722900D02*
X129764899Y-74208860D01*
X129764899Y-80679140D02*
X129764899Y-81165100D01*
X129764899Y-81165100D02*
X130250859Y-81165100D01*
X130250859Y-73722900D02*
X129764899Y-73722900D01*
X136721139Y-81165100D02*
X137207099Y-81165100D01*
X137207099Y-73722900D02*
X136721139Y-73722900D01*
X137207099Y-74208860D02*
X137207099Y-73722900D01*
X137207099Y-81165100D02*
X137207099Y-80679140D01*
D11*
%TO.C,R1*%
X140885064Y-101214000D02*
X139430936Y-101214000D01*
X140885064Y-99394000D02*
X139430936Y-99394000D01*
%TO.C,X5*%
X135033000Y-64017000D02*
X135033000Y-62687000D01*
X136363000Y-64017000D02*
X135033000Y-64017000D01*
X137633000Y-64017000D02*
X142773000Y-64017000D01*
X137633000Y-64017000D02*
X137633000Y-61357000D01*
X142773000Y-64017000D02*
X142773000Y-61357000D01*
X137633000Y-61357000D02*
X142773000Y-61357000D01*
%TO.C,R6*%
X148150342Y-64881900D02*
X148624858Y-64881900D01*
X148150342Y-65926900D02*
X148624858Y-65926900D01*
%TO.C,R9*%
X158237500Y-71233352D02*
X158237500Y-70758836D01*
X159282500Y-71233352D02*
X159282500Y-70758836D01*
%TO.C,C10*%
X132536000Y-90271580D02*
X132536000Y-89990420D01*
X133556000Y-90271580D02*
X133556000Y-89990420D01*
%TO.C,R2*%
X143982500Y-70822742D02*
X143982500Y-71297258D01*
X142937500Y-70822742D02*
X142937500Y-71297258D01*
%TO.C,R14*%
X145477500Y-71296352D02*
X145477500Y-70821836D01*
X146522500Y-71296352D02*
X146522500Y-70821836D01*
%TO.C,VREG1*%
X151552000Y-77336000D02*
X157562000Y-77336000D01*
X153802000Y-84156000D02*
X157562000Y-84156000D01*
X157562000Y-77336000D02*
X157562000Y-78596000D01*
X157562000Y-84156000D02*
X157562000Y-82896000D01*
%TO.C,C5*%
X145084420Y-84046000D02*
X145365580Y-84046000D01*
X145084420Y-85066000D02*
X145365580Y-85066000D01*
%TO.C,R8*%
X160747500Y-71233352D02*
X160747500Y-70758836D01*
X161792500Y-71233352D02*
X161792500Y-70758836D01*
%TO.C,R5*%
X153382742Y-64881900D02*
X153857258Y-64881900D01*
X153382742Y-65926900D02*
X153857258Y-65926900D01*
%TO.C,U2*%
X131846800Y-87604000D02*
X131846800Y-84154000D01*
X131846800Y-87604000D02*
X131846800Y-89554000D01*
X126726800Y-87604000D02*
X126726800Y-85654000D01*
X126726800Y-87604000D02*
X126726800Y-89554000D01*
%TO.C,R12*%
X150497500Y-71296352D02*
X150497500Y-70821836D01*
X151542500Y-71296352D02*
X151542500Y-70821836D01*
%TO.C,R7*%
X163257500Y-71233352D02*
X163257500Y-70758836D01*
X164302500Y-71233352D02*
X164302500Y-70758836D01*
%TO.C,U1*%
X146000000Y-83560000D02*
X149450000Y-83560000D01*
X146000000Y-83560000D02*
X144050000Y-83560000D01*
X146000000Y-78440000D02*
X147950000Y-78440000D01*
X146000000Y-78440000D02*
X144050000Y-78440000D01*
%TO.C,X4*%
X156220000Y-61382000D02*
X156220000Y-62712000D01*
X154890000Y-61382000D02*
X156220000Y-61382000D01*
X153620000Y-61382000D02*
X145940000Y-61382000D01*
X153620000Y-61382000D02*
X153620000Y-64042000D01*
X145940000Y-61382000D02*
X145940000Y-64042000D01*
X153620000Y-64042000D02*
X145940000Y-64042000D01*
%TO.C,R4*%
X138902500Y-70782134D02*
X138902500Y-71256650D01*
X137857500Y-70782134D02*
X137857500Y-71256650D01*
%TO.C,C4*%
X146494420Y-88872000D02*
X146775580Y-88872000D01*
X146494420Y-89892000D02*
X146775580Y-89892000D01*
%TO.C,C9*%
X140345999Y-75792420D02*
X140345999Y-76073580D01*
X139325999Y-75792420D02*
X139325999Y-76073580D01*
%TO.C,C2*%
X164832000Y-78000000D02*
X164832000Y-78500000D01*
X165082000Y-78250000D02*
X164582000Y-78250000D01*
X164467563Y-78740000D02*
X164332000Y-78740000D01*
X164467563Y-78740000D02*
X165532000Y-79804437D01*
X162076437Y-78740000D02*
X162212000Y-78740000D01*
X162076437Y-78740000D02*
X161012000Y-79804437D01*
X165532000Y-79804437D02*
X165532000Y-83260000D01*
X161012000Y-79804437D02*
X161012000Y-83260000D01*
X165532000Y-83260000D02*
X164332000Y-83260000D01*
X161012000Y-83260000D02*
X162212000Y-83260000D01*
%TO.C,R3*%
X141517202Y-70822742D02*
X141517202Y-71297258D01*
X140472202Y-70822742D02*
X140472202Y-71297258D01*
%TO.C,C3*%
X162369420Y-88872000D02*
X162650580Y-88872000D01*
X162369420Y-89892000D02*
X162650580Y-89892000D01*
%TO.C,R10*%
X155637500Y-71296352D02*
X155637500Y-70821836D01*
X156682500Y-71296352D02*
X156682500Y-70821836D01*
%TO.C,C1*%
X135732000Y-83940000D02*
X135732000Y-86290000D01*
X135732000Y-90760000D02*
X135732000Y-88410000D01*
X141487563Y-83940000D02*
X135732000Y-83940000D01*
X141487563Y-90760000D02*
X135732000Y-90760000D01*
X142552000Y-85004437D02*
X141487563Y-83940000D01*
X142552000Y-85004437D02*
X142552000Y-86290000D01*
X142552000Y-89695563D02*
X141487563Y-90760000D01*
X142552000Y-89695563D02*
X142552000Y-88410000D01*
X143185750Y-89591250D02*
X143185750Y-88803750D01*
X143579500Y-89197500D02*
X142792000Y-89197500D01*
%TO.C,C6*%
X139325999Y-79134580D02*
X139325999Y-78853420D01*
X140345999Y-79134580D02*
X140345999Y-78853420D01*
%TO.C,R11*%
X153007500Y-71296352D02*
X153007500Y-70821836D01*
X154052500Y-71296352D02*
X154052500Y-70821836D01*
%TO.C,R13*%
X147987500Y-71296352D02*
X147987500Y-70821836D01*
X149032500Y-71296352D02*
X149032500Y-70821836D01*
%TD*%
M02*
