%TF.GenerationSoftware,KiCad,Pcbnew,7.0.1*%
%TF.CreationDate,2024-04-15T22:24:01+02:00*%
%TF.ProjectId,nema17_driver,6e656d61-3137-45f6-9472-697665722e6b,rev?*%
%TF.SameCoordinates,Original*%
%TF.FileFunction,Copper,L1,Top*%
%TF.FilePolarity,Positive*%
%FSLAX46Y46*%
G04 Gerber Fmt 4.6, Leading zero omitted, Abs format (unit mm)*
G04 Created by KiCad (PCBNEW 7.0.1) date 2024-04-15 22:24:01*
%MOMM*%
%LPD*%
G01*
G04 APERTURE LIST*
G04 Aperture macros list*
%AMRoundRect*
0 Rectangle with rounded corners*
0 $1 Rounding radius*
0 $2 $3 $4 $5 $6 $7 $8 $9 X,Y pos of 4 corners*
0 Add a 4 corners polygon primitive as box body*
4,1,4,$2,$3,$4,$5,$6,$7,$8,$9,$2,$3,0*
0 Add four circle primitives for the rounded corners*
1,1,$1+$1,$2,$3*
1,1,$1+$1,$4,$5*
1,1,$1+$1,$6,$7*
1,1,$1+$1,$8,$9*
0 Add four rect primitives between the rounded corners*
20,1,$1+$1,$2,$3,$4,$5,0*
20,1,$1+$1,$4,$5,$6,$7,0*
20,1,$1+$1,$6,$7,$8,$9,0*
20,1,$1+$1,$8,$9,$2,$3,0*%
G04 Aperture macros list end*
%TA.AperFunction,ComponentPad*%
%ADD10R,1.700000X1.700000*%
%TD*%
%TA.AperFunction,ComponentPad*%
%ADD11O,1.700000X1.700000*%
%TD*%
%TA.AperFunction,SMDPad,CuDef*%
%ADD12R,0.304800X1.193800*%
%TD*%
%TA.AperFunction,SMDPad,CuDef*%
%ADD13R,1.193800X0.304800*%
%TD*%
%TA.AperFunction,SMDPad,CuDef*%
%ADD14RoundRect,0.250000X0.312500X0.625000X-0.312500X0.625000X-0.312500X-0.625000X0.312500X-0.625000X0*%
%TD*%
%TA.AperFunction,SMDPad,CuDef*%
%ADD15RoundRect,0.200000X-0.200000X-0.275000X0.200000X-0.275000X0.200000X0.275000X-0.200000X0.275000X0*%
%TD*%
%TA.AperFunction,SMDPad,CuDef*%
%ADD16RoundRect,0.200000X0.275000X-0.200000X0.275000X0.200000X-0.275000X0.200000X-0.275000X-0.200000X0*%
%TD*%
%TA.AperFunction,SMDPad,CuDef*%
%ADD17RoundRect,0.225000X0.250000X-0.225000X0.250000X0.225000X-0.250000X0.225000X-0.250000X-0.225000X0*%
%TD*%
%TA.AperFunction,SMDPad,CuDef*%
%ADD18RoundRect,0.200000X-0.275000X0.200000X-0.275000X-0.200000X0.275000X-0.200000X0.275000X0.200000X0*%
%TD*%
%TA.AperFunction,SMDPad,CuDef*%
%ADD19R,2.000000X1.500000*%
%TD*%
%TA.AperFunction,SMDPad,CuDef*%
%ADD20R,2.000000X3.800000*%
%TD*%
%TA.AperFunction,SMDPad,CuDef*%
%ADD21RoundRect,0.225000X-0.225000X-0.250000X0.225000X-0.250000X0.225000X0.250000X-0.225000X0.250000X0*%
%TD*%
%TA.AperFunction,SMDPad,CuDef*%
%ADD22RoundRect,0.150000X-0.150000X0.825000X-0.150000X-0.825000X0.150000X-0.825000X0.150000X0.825000X0*%
%TD*%
%TA.AperFunction,SMDPad,CuDef*%
%ADD23RoundRect,0.150000X0.725000X0.150000X-0.725000X0.150000X-0.725000X-0.150000X0.725000X-0.150000X0*%
%TD*%
%TA.AperFunction,SMDPad,CuDef*%
%ADD24RoundRect,0.225000X-0.250000X0.225000X-0.250000X-0.225000X0.250000X-0.225000X0.250000X0.225000X0*%
%TD*%
%TA.AperFunction,SMDPad,CuDef*%
%ADD25RoundRect,0.250000X-0.550000X1.050000X-0.550000X-1.050000X0.550000X-1.050000X0.550000X1.050000X0*%
%TD*%
%TA.AperFunction,SMDPad,CuDef*%
%ADD26RoundRect,0.250000X1.500000X0.550000X-1.500000X0.550000X-1.500000X-0.550000X1.500000X-0.550000X0*%
%TD*%
%TA.AperFunction,ComponentPad*%
%ADD27C,2.540000*%
%TD*%
%TA.AperFunction,ViaPad*%
%ADD28C,0.800000*%
%TD*%
%TA.AperFunction,ViaPad*%
%ADD29C,0.600000*%
%TD*%
%TA.AperFunction,Conductor*%
%ADD30C,0.304800*%
%TD*%
%TA.AperFunction,Conductor*%
%ADD31C,0.203200*%
%TD*%
%TA.AperFunction,Conductor*%
%ADD32C,0.609600*%
%TD*%
%TA.AperFunction,Conductor*%
%ADD33C,0.406400*%
%TD*%
%TA.AperFunction,Conductor*%
%ADD34C,1.778000*%
%TD*%
%TA.AperFunction,Conductor*%
%ADD35C,1.000000*%
%TD*%
G04 APERTURE END LIST*
D10*
%TO.P,X2,1,Pin_1*%
%TO.N,+12V*%
X156135000Y-92694000D03*
D11*
%TO.P,X2,2,Pin_2*%
%TO.N,GND*%
X156135000Y-95234000D03*
%TO.P,X2,3,Pin_3*%
%TO.N,Net-(U2-B)*%
X156135000Y-97774000D03*
%TO.P,X2,4,Pin_4*%
%TO.N,Net-(JP1-B)*%
X156135000Y-100314000D03*
%TD*%
D10*
%TO.P,X1,1,Pin_1*%
%TO.N,+12V*%
X136094000Y-92684000D03*
D11*
%TO.P,X1,2,Pin_2*%
%TO.N,GND*%
X136094000Y-95224000D03*
%TO.P,X1,3,Pin_3*%
%TO.N,Net-(U2-B)*%
X136094000Y-97764000D03*
%TO.P,X1,4,Pin_4*%
%TO.N,Net-(JP1-B)*%
X136094000Y-100304000D03*
%TD*%
D12*
%TO.P,U3,48,PB9*%
%TO.N,unconnected-(U3-PB9-Pad48)*%
X136235999Y-81693999D03*
%TO.P,U3,47,PB8*%
%TO.N,unconnected-(U3-PB8-Pad47)*%
X135736000Y-81693999D03*
%TO.P,U3,46,PB7*%
%TO.N,RX-DCE*%
X135235998Y-81693999D03*
%TO.P,U3,45,PB6*%
%TO.N,TX-DCE*%
X134735999Y-81693999D03*
%TO.P,U3,44,PB5*%
%TO.N,unconnected-(U3-PB5-Pad44)*%
X134236000Y-81693999D03*
%TO.P,U3,43,PB4*%
%TO.N,unconnected-(U3-PB4-Pad43)*%
X133735999Y-81693999D03*
%TO.P,U3,42,PB3*%
%TO.N,TX-EN*%
X133235999Y-81693999D03*
%TO.P,U3,41,PD3*%
%TO.N,unconnected-(U3-PD3-Pad41)*%
X132735998Y-81693999D03*
%TO.P,U3,40,PD2*%
%TO.N,unconnected-(U3-PD2-Pad40)*%
X132235999Y-81693999D03*
%TO.P,U3,39,PD1*%
%TO.N,unconnected-(U3-PD1-Pad39)*%
X131736000Y-81693999D03*
%TO.P,U3,38,PD0*%
%TO.N,unconnected-(U3-PD0-Pad38)*%
X131235998Y-81693999D03*
%TO.P,U3,37,PA15*%
%TO.N,unconnected-(U3-PA15-Pad37)*%
X130735999Y-81693999D03*
D13*
%TO.P,U3,36,PA14-BOOT0*%
%TO.N,SWCLK*%
X129236000Y-80194000D03*
%TO.P,U3,35,PA13*%
%TO.N,SWDIO*%
X129236000Y-79694001D03*
%TO.P,U3,34,PA12[PA10]*%
%TO.N,unconnected-(U3-PA12[PA10]-Pad34)*%
X129236000Y-79193999D03*
%TO.P,U3,33,PA11[PA9]*%
%TO.N,unconnected-(U3-PA11[PA9]-Pad33)*%
X129236000Y-78694000D03*
%TO.P,U3,32,PA10*%
%TO.N,ADD7*%
X129236000Y-78194001D03*
%TO.P,U3,31,PC7*%
%TO.N,ADD6*%
X129236000Y-77694000D03*
%TO.P,U3,30,PC6*%
%TO.N,ADD5*%
X129236000Y-77194000D03*
%TO.P,U3,29,PA9*%
%TO.N,ADD4*%
X129236000Y-76693999D03*
%TO.P,U3,28,PA8*%
%TO.N,ADD3*%
X129236000Y-76194000D03*
%TO.P,U3,27,PB15*%
%TO.N,ADD2*%
X129236000Y-75694001D03*
%TO.P,U3,26,PB14*%
%TO.N,ADD1*%
X129236000Y-75193999D03*
%TO.P,U3,25,PB13*%
%TO.N,ADD0*%
X129236000Y-74694000D03*
D12*
%TO.P,U3,24,PB12*%
%TO.N,unconnected-(U3-PB12-Pad24)*%
X130735999Y-73194001D03*
%TO.P,U3,23,PB11*%
%TO.N,unconnected-(U3-PB11-Pad23)*%
X131235998Y-73194001D03*
%TO.P,U3,22,PB10*%
%TO.N,Net-(U3-PB10)*%
X131736000Y-73194001D03*
%TO.P,U3,21,PB2*%
%TO.N,Net-(U3-PB2)*%
X132235999Y-73194001D03*
%TO.P,U3,20,PB1*%
%TO.N,Net-(U3-PB1)*%
X132735998Y-73194001D03*
%TO.P,U3,19,PB0*%
%TO.N,Net-(U3-PB0)*%
X133235999Y-73194001D03*
%TO.P,U3,18,PA7*%
%TO.N,Net-(U3-PA7)*%
X133735999Y-73194001D03*
%TO.P,U3,17,PA6*%
%TO.N,Net-(U3-PA6)*%
X134236000Y-73194001D03*
%TO.P,U3,16,PA5*%
%TO.N,Net-(U3-PA5)*%
X134735999Y-73194001D03*
%TO.P,U3,15,PA4*%
%TO.N,Net-(U3-PA4)*%
X135235998Y-73194001D03*
%TO.P,U3,14,PA3*%
%TO.N,U2-RX-DCE*%
X135736000Y-73194001D03*
%TO.P,U3,13,PA2*%
%TO.N,U2-TX-DCE*%
X136235999Y-73194001D03*
D13*
%TO.P,U3,12,PA1*%
%TO.N,unconnected-(U3-PA1-Pad12)*%
X137735998Y-74694000D03*
%TO.P,U3,11,PA0*%
%TO.N,POS-AN*%
X137735998Y-75193999D03*
%TO.P,U3,10,PF2-NRST*%
%TO.N,Net-(U3-PF2-NRST)*%
X137735998Y-75694001D03*
%TO.P,U3,9,PF1-OSC_OUT*%
%TO.N,unconnected-(U3-PF1-OSC_OUT-Pad9)*%
X137735998Y-76194000D03*
%TO.P,U3,8,PF0-OSC_IN*%
%TO.N,unconnected-(U3-PF0-OSC_IN-Pad8)*%
X137735998Y-76693999D03*
%TO.P,U3,7,VSS/VSSA*%
%TO.N,GND*%
X137735998Y-77194000D03*
%TO.P,U3,6,VDD/VDDA*%
%TO.N,+3.3V*%
X137735998Y-77694000D03*
%TO.P,U3,5,VREF+*%
X137735998Y-78194001D03*
%TO.P,U3,4,PF3*%
%TO.N,unconnected-(U3-PF3-Pad4)*%
X137735998Y-78694000D03*
%TO.P,U3,3,PC15-OSCX_OUT*%
%TO.N,unconnected-(U3-PC15-OSCX_OUT-Pad3)*%
X137735998Y-79193999D03*
%TO.P,U3,2,PC14-OSCX_IN*%
%TO.N,unconnected-(U3-PC14-OSCX_IN-Pad2)*%
X137735998Y-79694001D03*
%TO.P,U3,1,PC13*%
%TO.N,unconnected-(U3-PC13-Pad1)*%
X137735998Y-80194000D03*
%TD*%
D14*
%TO.P,R1,1*%
%TO.N,Net-(JP1-A)*%
X141620500Y-100304000D03*
%TO.P,R1,2*%
%TO.N,Net-(U2-B)*%
X138695500Y-100304000D03*
%TD*%
D10*
%TO.P,X5,1,Pin_1*%
%TO.N,GND*%
X136363000Y-62687000D03*
D11*
%TO.P,X5,2,Pin_2*%
%TO.N,U2-TX-DCE*%
X138903000Y-62687000D03*
%TO.P,X5,3,Pin_3*%
%TO.N,U2-RX-DCE*%
X141443000Y-62687000D03*
%TD*%
D15*
%TO.P,R6,1*%
%TO.N,+3.3V*%
X147562600Y-65404400D03*
%TO.P,R6,2*%
%TO.N,SWDIO*%
X149212600Y-65404400D03*
%TD*%
D16*
%TO.P,R9,1*%
%TO.N,~{SLEEP}*%
X158760000Y-71821094D03*
%TO.P,R9,2*%
%TO.N,Net-(U3-PB1)*%
X158760000Y-70171094D03*
%TD*%
D17*
%TO.P,C10,1*%
%TO.N,+3.3V*%
X133046000Y-90906000D03*
%TO.P,C10,2*%
%TO.N,GND*%
X133046000Y-89356000D03*
%TD*%
D18*
%TO.P,R2,1*%
%TO.N,+3.3V*%
X143460000Y-70235000D03*
%TO.P,R2,2*%
%TO.N,Net-(U1-SCL)*%
X143460000Y-71885000D03*
%TD*%
D16*
%TO.P,R14,1*%
%TO.N,~{EN}*%
X146000000Y-71884094D03*
%TO.P,R14,2*%
%TO.N,Net-(U3-PA4)*%
X146000000Y-70234094D03*
%TD*%
D19*
%TO.P,VREG1,1,GND*%
%TO.N,GND*%
X152502000Y-78446000D03*
%TO.P,VREG1,2,VO*%
%TO.N,+3.3V*%
X152502000Y-80746000D03*
D20*
X158802000Y-80746000D03*
D19*
%TO.P,VREG1,3,VI*%
%TO.N,+12V*%
X152502000Y-83046000D03*
%TD*%
D21*
%TO.P,C5,1*%
%TO.N,+3.3V*%
X144450000Y-84556000D03*
%TO.P,C5,2*%
%TO.N,GND*%
X146000000Y-84556000D03*
%TD*%
D16*
%TO.P,R8,1*%
%TO.N,STEP*%
X161270000Y-71821094D03*
%TO.P,R8,2*%
%TO.N,Net-(U3-PB2)*%
X161270000Y-70171094D03*
%TD*%
D15*
%TO.P,R5,1*%
%TO.N,SWCLK*%
X152795000Y-65404400D03*
%TO.P,R5,2*%
%TO.N,GND*%
X154445000Y-65404400D03*
%TD*%
D22*
%TO.P,U2,1,RO*%
%TO.N,RX-DCE*%
X131191800Y-85129000D03*
%TO.P,U2,2,~{RE}*%
%TO.N,TX-EN*%
X129921800Y-85129000D03*
%TO.P,U2,3,DE*%
X128651800Y-85129000D03*
%TO.P,U2,4,DI*%
%TO.N,TX-DCE*%
X127381800Y-85129000D03*
%TO.P,U2,5,GND*%
%TO.N,GND*%
X127381800Y-90079000D03*
%TO.P,U2,6,A*%
%TO.N,Net-(JP1-B)*%
X128651800Y-90079000D03*
%TO.P,U2,7,B*%
%TO.N,Net-(U2-B)*%
X129921800Y-90079000D03*
%TO.P,U2,8,VCC*%
%TO.N,+3.3V*%
X131191800Y-90079000D03*
%TD*%
D16*
%TO.P,R12,1*%
%TO.N,MS2*%
X151020000Y-71884094D03*
%TO.P,R12,2*%
%TO.N,Net-(U3-PA6)*%
X151020000Y-70234094D03*
%TD*%
%TO.P,R7,1*%
%TO.N,DIR*%
X163780000Y-71821094D03*
%TO.P,R7,2*%
%TO.N,Net-(U3-PB10)*%
X163780000Y-70171094D03*
%TD*%
D23*
%TO.P,U1,1,VDD5V*%
%TO.N,+3.3V*%
X148575000Y-82905000D03*
%TO.P,U1,2,VDD3V3*%
X148575000Y-81635000D03*
%TO.P,U1,3,OUT*%
%TO.N,POS-AN*%
X148575000Y-80365000D03*
%TO.P,U1,4,GND*%
%TO.N,GND*%
X148575000Y-79095000D03*
%TO.P,U1,5,PGO*%
%TO.N,Net-(U1-PGO)*%
X143425000Y-79095000D03*
%TO.P,U1,6,SDA*%
%TO.N,Net-(U1-SDA)*%
X143425000Y-80365000D03*
%TO.P,U1,7,SCL*%
%TO.N,Net-(U1-SCL)*%
X143425000Y-81635000D03*
%TO.P,U1,8,DIR*%
%TO.N,+3.3V*%
X143425000Y-82905000D03*
%TD*%
D10*
%TO.P,X4,1,Pin_1*%
%TO.N,GND*%
X154890000Y-62712000D03*
D11*
%TO.P,X4,2,Pin_2*%
%TO.N,SWCLK*%
X152350000Y-62712000D03*
%TO.P,X4,3,Pin_3*%
%TO.N,SWDIO*%
X149810000Y-62712000D03*
%TO.P,X4,4,Pin_4*%
%TO.N,+3.3V*%
X147270000Y-62712000D03*
%TD*%
D18*
%TO.P,R4,1*%
%TO.N,+3.3V*%
X138380000Y-70194392D03*
%TO.P,R4,2*%
%TO.N,Net-(U1-PGO)*%
X138380000Y-71844392D03*
%TD*%
D21*
%TO.P,C4,1*%
%TO.N,+12V*%
X145860000Y-89382000D03*
%TO.P,C4,2*%
%TO.N,GND*%
X147410000Y-89382000D03*
%TD*%
D24*
%TO.P,C9,1*%
%TO.N,Net-(U3-PF2-NRST)*%
X139835999Y-75158000D03*
%TO.P,C9,2*%
%TO.N,GND*%
X139835999Y-76708000D03*
%TD*%
D25*
%TO.P,C2,1*%
%TO.N,+3.3V*%
X163272000Y-79200000D03*
%TO.P,C2,2*%
%TO.N,GND*%
X163272000Y-82800000D03*
%TD*%
D18*
%TO.P,R3,1*%
%TO.N,+3.3V*%
X140994702Y-70235000D03*
%TO.P,R3,2*%
%TO.N,Net-(U1-SDA)*%
X140994702Y-71885000D03*
%TD*%
D21*
%TO.P,C3,1*%
%TO.N,+3.3V*%
X161735000Y-89382000D03*
%TO.P,C3,2*%
%TO.N,GND*%
X163285000Y-89382000D03*
%TD*%
D16*
%TO.P,R10,1*%
%TO.N,USART-~{RST}*%
X156160000Y-71884094D03*
%TO.P,R10,2*%
%TO.N,Net-(U3-PB0)*%
X156160000Y-70234094D03*
%TD*%
D26*
%TO.P,C1,2*%
%TO.N,GND*%
X136442000Y-87350000D03*
%TO.P,C1,1*%
%TO.N,+12V*%
X141842000Y-87350000D03*
%TD*%
D17*
%TO.P,C6,1*%
%TO.N,+3.3V*%
X139835999Y-79769000D03*
%TO.P,C6,2*%
%TO.N,GND*%
X139835999Y-78219000D03*
%TD*%
D16*
%TO.P,R11,1*%
%TO.N,MS3*%
X153530000Y-71884094D03*
%TO.P,R11,2*%
%TO.N,Net-(U3-PA7)*%
X153530000Y-70234094D03*
%TD*%
%TO.P,R13,1*%
%TO.N,MS1*%
X148510000Y-71884094D03*
%TO.P,R13,2*%
%TO.N,Net-(U3-PA5)*%
X148510000Y-70234094D03*
%TD*%
D10*
%TO.P,POW1,1,Pin_1*%
%TO.N,~{EN}*%
X146000000Y-74650000D03*
D11*
%TO.P,POW1,2,Pin_2*%
%TO.N,MS1*%
X148540000Y-74650000D03*
%TO.P,POW1,3,Pin_3*%
%TO.N,MS2*%
X151080000Y-74650000D03*
%TO.P,POW1,4,Pin_4*%
%TO.N,MS3*%
X153620000Y-74650000D03*
%TO.P,POW1,5,Pin_5*%
%TO.N,USART-~{RST}*%
X156160000Y-74650000D03*
%TO.P,POW1,6,Pin_6*%
%TO.N,~{SLEEP}*%
X158700000Y-74650000D03*
%TO.P,POW1,7,Pin_7*%
%TO.N,STEP*%
X161240000Y-74650000D03*
%TO.P,POW1,8,Pin_8*%
%TO.N,DIR*%
X163780000Y-74650000D03*
%TD*%
D10*
%TO.P,POW2,1,Pin_1*%
%TO.N,+12V*%
X146000000Y-87350000D03*
D11*
%TO.P,POW2,2,Pin_2*%
%TO.N,GND*%
X148540000Y-87350000D03*
%TO.P,POW2,3,Pin_3*%
%TO.N,Net-(POW2-Pin_3)*%
X151080000Y-87350000D03*
%TO.P,POW2,4,Pin_4*%
%TO.N,Net-(POW2-Pin_4)*%
X153620000Y-87350000D03*
%TO.P,POW2,5,Pin_5*%
%TO.N,Net-(POW2-Pin_5)*%
X156160000Y-87350000D03*
%TO.P,POW2,6,Pin_6*%
%TO.N,Net-(POW2-Pin_6)*%
X158700000Y-87350000D03*
%TO.P,POW2,7,Pin_7*%
%TO.N,+3.3V*%
X161240000Y-87350000D03*
%TO.P,POW2,8,Pin_8*%
%TO.N,GND*%
X163780000Y-87350000D03*
%TD*%
D27*
%TO.P,X3,1,Pin_1*%
%TO.N,Net-(POW2-Pin_6)*%
X150500000Y-91982000D03*
%TO.P,X3,2,Pin_2*%
%TO.N,Net-(POW2-Pin_5)*%
X147000000Y-96982000D03*
%TO.P,X3,3,Pin_3*%
%TO.N,Net-(POW2-Pin_4)*%
X143500000Y-91982000D03*
%TO.P,X3,4,Pin_4*%
%TO.N,Net-(POW2-Pin_3)*%
X140000000Y-96982000D03*
%TD*%
D28*
%TO.N,GND*%
X133909600Y-76631200D03*
D29*
%TO.N,U2-TX-DCE*%
X156160000Y-65658400D03*
D28*
%TO.N,+3.3V*%
X139599200Y-70027200D03*
%TO.N,GND*%
X141428000Y-78104400D03*
X146609600Y-78460000D03*
X146914400Y-84149600D03*
%TO.N,+3.3V*%
X139802400Y-81203200D03*
X133401600Y-87350000D03*
X130709200Y-70230400D03*
D29*
%TO.N,Net-(JP1-A)*%
X140615200Y-99237200D03*
%TO.N,Net-(JP1-B)*%
X126391200Y-88315200D03*
%TO.N,POS-AN*%
X146914400Y-80339600D03*
X141377200Y-76123200D03*
%TO.N,SWCLK*%
X135382800Y-78764800D03*
%TO.N,SWDIO*%
X134976400Y-77748800D03*
%TO.N,U2-TX-DCE*%
X136602000Y-71754400D03*
%TO.N,U2-RX-DCE*%
X136602000Y-70586000D03*
%TO.N,ADD7*%
X126340400Y-82778000D03*
%TO.N,ADD6*%
X126289600Y-81152400D03*
%TO.N,ADD5*%
X126569000Y-79704600D03*
%TO.N,ADD4*%
X126423358Y-78034958D03*
%TO.N,ADD3*%
X126238800Y-75920000D03*
%TO.N,ADD2*%
X126188000Y-73583200D03*
%TO.N,ADD1*%
X127508800Y-73278400D03*
%TO.N,ADD0*%
X128829600Y-71094000D03*
%TD*%
D30*
%TO.N,Net-(JP1-A)*%
X140615200Y-99237200D02*
X141620500Y-100242500D01*
X141620500Y-100242500D02*
X141620500Y-100304000D01*
D31*
%TO.N,ADD7*%
X127819305Y-78860695D02*
X128485999Y-78194001D01*
X126340400Y-82778000D02*
X127819305Y-81299095D01*
X127819305Y-81299095D02*
X127819305Y-78860695D01*
X128485999Y-78194001D02*
X129236000Y-78194001D01*
%TO.N,TX-DCE*%
X127381800Y-84276600D02*
X127381800Y-85129000D01*
X130099600Y-83223790D02*
X129884990Y-83438400D01*
X130534698Y-80542800D02*
X130099600Y-80977898D01*
X134437301Y-80542800D02*
X130534698Y-80542800D01*
X134735999Y-80841498D02*
X134437301Y-80542800D01*
X129884990Y-83438400D02*
X128220000Y-83438400D01*
X134735999Y-81693999D02*
X134735999Y-80841498D01*
X130099600Y-80977898D02*
X130099600Y-83223790D01*
X128220000Y-83438400D02*
X127381800Y-84276600D01*
%TO.N,SWCLK*%
X130367687Y-80139600D02*
X133195200Y-80139600D01*
X134570000Y-78764800D02*
X135382800Y-78764800D01*
X130313287Y-80194000D02*
X130367687Y-80139600D01*
X133195200Y-80139600D02*
X134570000Y-78764800D01*
X129236000Y-80194000D02*
X130313287Y-80194000D01*
%TO.N,SWDIO*%
X133031199Y-79694001D02*
X134976400Y-77748800D01*
X129236000Y-79694001D02*
X133031199Y-79694001D01*
D30*
%TO.N,Net-(JP1-B)*%
X128651800Y-89204200D02*
X128651800Y-90079000D01*
X126391200Y-88315200D02*
X127762800Y-88315200D01*
X127762800Y-88315200D02*
X128651800Y-89204200D01*
D32*
%TO.N,U2-TX-DCE*%
X157023600Y-64794800D02*
X156160000Y-65658400D01*
X157023600Y-61391200D02*
X157023600Y-64794800D01*
X156566400Y-60934000D02*
X157023600Y-61391200D01*
X139243600Y-60934000D02*
X156566400Y-60934000D01*
X138903000Y-61274600D02*
X139243600Y-60934000D01*
X138903000Y-62687000D02*
X138903000Y-61274600D01*
D33*
%TO.N,+3.3V*%
X139599200Y-70235000D02*
X139599200Y-70027200D01*
X139599200Y-70235000D02*
X138420608Y-70235000D01*
X140994702Y-70235000D02*
X139599200Y-70235000D01*
X146508000Y-65404400D02*
X147562600Y-65404400D01*
X146508000Y-63474000D02*
X146508000Y-65404400D01*
X147270000Y-62712000D02*
X146508000Y-63474000D01*
%TO.N,GND*%
X146863600Y-84149600D02*
X146914400Y-84149600D01*
X146609600Y-84403600D02*
X146863600Y-84149600D01*
X146457200Y-84556000D02*
X146609600Y-84403600D01*
X146000000Y-84556000D02*
X146457200Y-84556000D01*
%TO.N,Net-(U2-B)*%
X136094000Y-98119600D02*
X136094000Y-97764000D01*
X138278400Y-100304000D02*
X136094000Y-98119600D01*
X138695500Y-100304000D02*
X138278400Y-100304000D01*
%TO.N,+3.3V*%
X139802400Y-79802599D02*
X139835999Y-79769000D01*
X139802400Y-81203200D02*
X139802400Y-79802599D01*
D30*
X131623600Y-88112000D02*
X132385600Y-87350000D01*
X131191800Y-88543800D02*
X131623600Y-88112000D01*
X132385600Y-87350000D02*
X133401600Y-87350000D01*
X131191800Y-90079000D02*
X131191800Y-88543800D01*
X132995200Y-90956800D02*
X133046000Y-90906000D01*
X131191800Y-90423400D02*
X131725200Y-90956800D01*
X131191800Y-90079000D02*
X131191800Y-90423400D01*
X131725200Y-90956800D02*
X132995200Y-90956800D01*
D33*
X130810800Y-70230400D02*
X130709200Y-70230400D01*
X131776000Y-69265200D02*
X130810800Y-70230400D01*
X135636800Y-65404400D02*
X131776000Y-69265200D01*
X147562600Y-65404400D02*
X135636800Y-65404400D01*
X138420608Y-70235000D02*
X138380000Y-70194392D01*
X143460000Y-70235000D02*
X140994702Y-70235000D01*
D32*
%TO.N,+12V*%
X151093600Y-84454400D02*
X152502000Y-83046000D01*
X148286000Y-84454400D02*
X151093600Y-84454400D01*
X146000000Y-86740400D02*
X148286000Y-84454400D01*
X146000000Y-87350000D02*
X146000000Y-86740400D01*
D30*
%TO.N,Net-(U2-B)*%
X134773200Y-96443200D02*
X136094000Y-97764000D01*
X133300000Y-91972800D02*
X134773200Y-93446000D01*
X130760000Y-91972800D02*
X133300000Y-91972800D01*
X129921800Y-91134600D02*
X130760000Y-91972800D01*
X129921800Y-90079000D02*
X129921800Y-91134600D01*
X134773200Y-93446000D02*
X134773200Y-96443200D01*
%TO.N,Net-(JP1-B)*%
X132944400Y-92531600D02*
X134163600Y-93750800D01*
X134163600Y-93750800D02*
X134163600Y-98373600D01*
X134163600Y-98373600D02*
X135629290Y-99839290D01*
X128651800Y-91033000D02*
X130150400Y-92531600D01*
X130150400Y-92531600D02*
X132944400Y-92531600D01*
X128651800Y-90079000D02*
X128651800Y-91033000D01*
D31*
%TO.N,TX-EN*%
X130048800Y-83946400D02*
X130048800Y-84352800D01*
X128651800Y-83946400D02*
X130048800Y-83946400D01*
X128651800Y-85129000D02*
X128651800Y-83946400D01*
X129896400Y-84505200D02*
X130048800Y-84352800D01*
X129896400Y-85103600D02*
X129896400Y-84505200D01*
X129921800Y-85129000D02*
X129896400Y-85103600D01*
%TO.N,RX-DCE*%
X135004498Y-82778000D02*
X135235998Y-82546500D01*
X131623600Y-83590800D02*
X132600210Y-83590800D01*
X131191800Y-85129000D02*
X131191800Y-84022600D01*
X132600210Y-83590800D02*
X133413010Y-82778000D01*
X131191800Y-84022600D02*
X131623600Y-83590800D01*
X133413010Y-82778000D02*
X135004498Y-82778000D01*
X135235998Y-82546500D02*
X135235998Y-81693999D01*
%TO.N,TX-EN*%
X133235999Y-82384801D02*
X133235999Y-81693999D01*
X130709200Y-83184400D02*
X132436400Y-83184400D01*
X130048800Y-83844800D02*
X130709200Y-83184400D01*
X132436400Y-83184400D02*
X133235999Y-82384801D01*
X130048800Y-84352800D02*
X130048800Y-83844800D01*
%TO.N,POS-AN*%
X140412000Y-74091200D02*
X141377200Y-75056400D01*
X138786400Y-74853200D02*
X138786400Y-74497600D01*
X141377200Y-75056400D02*
X141377200Y-76123200D01*
X138445601Y-75193999D02*
X138786400Y-74853200D01*
X138786400Y-74497600D02*
X139192800Y-74091200D01*
X137735998Y-75193999D02*
X138445601Y-75193999D01*
X139192800Y-74091200D02*
X140412000Y-74091200D01*
D32*
X146914400Y-80339600D02*
X148549600Y-80339600D01*
X148549600Y-80339600D02*
X148575000Y-80365000D01*
D30*
%TO.N,Net-(U1-PGO)*%
X142799600Y-78469600D02*
X143425000Y-79095000D01*
X140513600Y-73075200D02*
X142799600Y-75361200D01*
X142799600Y-75361200D02*
X142799600Y-78469600D01*
X139294400Y-73075200D02*
X140513600Y-73075200D01*
X138380000Y-72160800D02*
X139294400Y-73075200D01*
X138380000Y-71844392D02*
X138380000Y-72160800D01*
D31*
%TO.N,GND*%
X139349999Y-77194000D02*
X139835999Y-76708000D01*
X137735998Y-77194000D02*
X139349999Y-77194000D01*
%TO.N,Net-(U3-PF2-NRST)*%
X137735998Y-75694001D02*
X139299998Y-75694001D01*
X139299998Y-75694001D02*
X139835999Y-75158000D01*
%TO.N,U2-RX-DCE*%
X135736000Y-71248800D02*
X135736000Y-73194001D01*
X136398800Y-70586000D02*
X135736000Y-71248800D01*
X136602000Y-70586000D02*
X136398800Y-70586000D01*
%TO.N,U2-TX-DCE*%
X136500400Y-71856000D02*
X136602000Y-71754400D01*
X136235999Y-72069601D02*
X136449600Y-71856000D01*
X136449600Y-71856000D02*
X136500400Y-71856000D01*
X136235999Y-73194001D02*
X136235999Y-72069601D01*
D32*
%TO.N,SWDIO*%
X149810000Y-64998000D02*
X149810000Y-62712000D01*
X149403600Y-65404400D02*
X149810000Y-64998000D01*
X149212600Y-65404400D02*
X149403600Y-65404400D01*
%TO.N,SWCLK*%
X152350000Y-65048800D02*
X152350000Y-62712000D01*
X152705600Y-65404400D02*
X152350000Y-65048800D01*
X152795000Y-65404400D02*
X152705600Y-65404400D01*
D31*
%TO.N,Net-(U3-PB10)*%
X163780000Y-69316000D02*
X163780000Y-70171094D01*
X163424400Y-68960400D02*
X163780000Y-69316000D01*
X160032210Y-68960400D02*
X163424400Y-68960400D01*
X157444610Y-66372800D02*
X160032210Y-68960400D01*
X136090950Y-66372800D02*
X157444610Y-66372800D01*
X136071750Y-66392000D02*
X136090950Y-66372800D01*
X135737730Y-66392000D02*
X136071750Y-66392000D01*
X131736000Y-70393730D02*
X135737730Y-66392000D01*
X131736000Y-73194001D02*
X131736000Y-70393730D01*
%TO.N,Net-(U3-PB2)*%
X135904740Y-66795200D02*
X132235999Y-70463941D01*
X132235999Y-70463941D02*
X132235999Y-73194001D01*
X157258400Y-66795200D02*
X135904740Y-66795200D01*
X160672694Y-70171094D02*
X157277600Y-66776000D01*
X157277600Y-66776000D02*
X157258400Y-66795200D01*
X161270000Y-70171094D02*
X160672694Y-70171094D01*
%TO.N,Net-(U3-PB1)*%
X132735998Y-70534152D02*
X132735998Y-73194001D01*
X136071750Y-67198400D02*
X132735998Y-70534152D01*
X155787306Y-67198400D02*
X136071750Y-67198400D01*
X158760000Y-70171094D02*
X155787306Y-67198400D01*
%TO.N,Net-(U3-PB0)*%
X133235999Y-70604361D02*
X133235999Y-73194001D01*
X136238760Y-67601600D02*
X133235999Y-70604361D01*
X153527506Y-67601600D02*
X136238760Y-67601600D01*
X156160000Y-70234094D02*
X153527506Y-67601600D01*
%TO.N,Net-(U3-PA7)*%
X133735999Y-70674571D02*
X133735999Y-73194001D01*
X136405770Y-68004800D02*
X133735999Y-70674571D01*
X151445200Y-68004800D02*
X136405770Y-68004800D01*
X153530000Y-70089600D02*
X151445200Y-68004800D01*
X153530000Y-70234094D02*
X153530000Y-70089600D01*
%TO.N,Net-(U3-PA6)*%
X134236000Y-70744780D02*
X134236000Y-73194001D01*
X136572780Y-68408000D02*
X134236000Y-70744780D01*
X149193906Y-68408000D02*
X136572780Y-68408000D01*
X151020000Y-70234094D02*
X149193906Y-68408000D01*
%TO.N,Net-(U3-PA5)*%
X134735999Y-70826401D02*
X134735999Y-73194001D01*
X134874800Y-70676190D02*
X134874800Y-70687600D01*
X136739790Y-68811200D02*
X134874800Y-70676190D01*
X134874800Y-70687600D02*
X134735999Y-70826401D01*
X147087106Y-68811200D02*
X136739790Y-68811200D01*
X148510000Y-70234094D02*
X147087106Y-68811200D01*
%TO.N,Net-(U3-PA4)*%
X145542800Y-69214400D02*
X136906800Y-69214400D01*
X135235998Y-70885202D02*
X135235998Y-73194001D01*
X146000000Y-69671600D02*
X145542800Y-69214400D01*
X146000000Y-70234094D02*
X146000000Y-69671600D01*
X136906800Y-69214400D02*
X135235998Y-70885202D01*
%TO.N,ADD5*%
X126569000Y-78891800D02*
X128266800Y-77194000D01*
X126569000Y-79704600D02*
X126569000Y-78891800D01*
X128266800Y-77194000D02*
X129236000Y-77194000D01*
%TO.N,ADD6*%
X127254800Y-78854990D02*
X128415790Y-77694000D01*
X128415790Y-77694000D02*
X129236000Y-77694000D01*
X127254800Y-80187200D02*
X127254800Y-78854990D01*
X126289600Y-81152400D02*
X127254800Y-80187200D01*
%TO.N,ADD4*%
X127649201Y-76693999D02*
X129236000Y-76693999D01*
X126423358Y-78034958D02*
X126423358Y-77919842D01*
X126423358Y-77919842D02*
X127649201Y-76693999D01*
%TO.N,ADD3*%
X127793600Y-76194000D02*
X129236000Y-76194000D01*
X126238800Y-75920000D02*
X127519600Y-75920000D01*
X127519600Y-75920000D02*
X127793600Y-76194000D01*
%TO.N,ADD2*%
X128185791Y-75694001D02*
X129236000Y-75694001D01*
X126188000Y-73583200D02*
X126188000Y-73696210D01*
X126188000Y-73696210D02*
X128185791Y-75694001D01*
%TO.N,ADD0*%
X128423200Y-74694000D02*
X129236000Y-74694000D01*
X128829600Y-71094000D02*
X128423200Y-71500400D01*
X128423200Y-71500400D02*
X128423200Y-74694000D01*
%TO.N,ADD1*%
X128285601Y-75193999D02*
X129236000Y-75193999D01*
X128270800Y-75208800D02*
X128285601Y-75193999D01*
X127915200Y-74853200D02*
X128270800Y-75208800D01*
X127915200Y-73684800D02*
X127915200Y-74853200D01*
X127508800Y-73278400D02*
X127915200Y-73684800D01*
D30*
%TO.N,Net-(U1-SCL)*%
X145492000Y-80847600D02*
X144704600Y-81635000D01*
X145492000Y-78510800D02*
X145492000Y-80847600D01*
X144704600Y-81635000D02*
X143425000Y-81635000D01*
X144069600Y-74802400D02*
X144069600Y-77088400D01*
X143460000Y-74192800D02*
X144069600Y-74802400D01*
X144069600Y-77088400D02*
X145492000Y-78510800D01*
X143460000Y-71885000D02*
X143460000Y-74192800D01*
%TO.N,Net-(U1-SDA)*%
X143450400Y-80390400D02*
X143425000Y-80365000D01*
X144577600Y-80390400D02*
X143450400Y-80390400D01*
X144831600Y-78767496D02*
X144831600Y-80136400D01*
X143409200Y-77345096D02*
X144831600Y-78767496D01*
X144831600Y-80136400D02*
X144577600Y-80390400D01*
X140994702Y-72641902D02*
X143409200Y-75056400D01*
X140994702Y-71885000D02*
X140994702Y-72641902D01*
X143409200Y-75056400D02*
X143409200Y-77345096D01*
D32*
%TO.N,~{EN}*%
X146000000Y-71884094D02*
X146000000Y-74650000D01*
%TO.N,MS1*%
X148510000Y-74620000D02*
X148540000Y-74650000D01*
X148510000Y-71884094D02*
X148510000Y-74620000D01*
%TO.N,MS2*%
X151020000Y-74590000D02*
X151080000Y-74650000D01*
X151020000Y-71884094D02*
X151020000Y-74590000D01*
%TO.N,MS3*%
X153530000Y-74560000D02*
X153620000Y-74650000D01*
X153530000Y-71884094D02*
X153530000Y-74560000D01*
%TO.N,USART-~{RST}*%
X156160000Y-71884094D02*
X156160000Y-74650000D01*
%TO.N,~{SLEEP}*%
X158760000Y-74590000D02*
X158700000Y-74650000D01*
X158760000Y-71821094D02*
X158760000Y-74590000D01*
%TO.N,STEP*%
X161270000Y-71821094D02*
X161270000Y-74620000D01*
X161270000Y-74620000D02*
X161240000Y-74650000D01*
%TO.N,DIR*%
X163780000Y-71821094D02*
X163780000Y-74650000D01*
D34*
%TO.N,+12V*%
X154880000Y-92694000D02*
X156135000Y-92694000D01*
X149175000Y-94970000D02*
X152604000Y-94970000D01*
X145238000Y-94208000D02*
X148413000Y-94208000D01*
X144476000Y-94970000D02*
X145238000Y-94208000D01*
X148413000Y-94208000D02*
X149175000Y-94970000D01*
X142190000Y-94970000D02*
X144476000Y-94970000D01*
X139904000Y-92684000D02*
X142190000Y-94970000D01*
X152604000Y-94970000D02*
X154880000Y-92694000D01*
D35*
%TO.N,Net-(POW2-Pin_4)*%
X153620000Y-88239000D02*
X153620000Y-87350000D01*
X152350000Y-89509000D02*
X153620000Y-88239000D01*
X149937000Y-89509000D02*
X152350000Y-89509000D01*
X147464000Y-91982000D02*
X149937000Y-89509000D01*
X143500000Y-91982000D02*
X147464000Y-91982000D01*
%TO.N,Net-(POW2-Pin_6)*%
X152417000Y-91982000D02*
X150500000Y-91982000D01*
X154382000Y-90017000D02*
X152417000Y-91982000D01*
X158700000Y-90017000D02*
X154382000Y-90017000D01*
X158700000Y-87350000D02*
X158700000Y-90017000D01*
D32*
%TO.N,+12V*%
X146000000Y-88620000D02*
X146000000Y-87350000D01*
X145860000Y-88760000D02*
X146000000Y-88620000D01*
X145860000Y-89382000D02*
X145860000Y-88760000D01*
%TO.N,+3.3V*%
X161240000Y-89255000D02*
X161240000Y-87350000D01*
X161367000Y-89382000D02*
X161240000Y-89255000D01*
X161735000Y-89382000D02*
X161367000Y-89382000D01*
D34*
%TO.N,+12V*%
X146000000Y-87350000D02*
X141842000Y-87350000D01*
X139904000Y-90906000D02*
X139904000Y-92684000D01*
X141842000Y-87350000D02*
X141842000Y-88968000D01*
X141842000Y-88968000D02*
X139904000Y-90906000D01*
X136094000Y-92684000D02*
X139904000Y-92684000D01*
%TD*%
%TA.AperFunction,Conductor*%
%TO.N,+3.3V*%
G36*
X160319340Y-88338529D02*
G01*
X160368922Y-88388111D01*
X160562418Y-88523599D01*
X160776504Y-88623429D01*
X160880584Y-88651316D01*
X160905742Y-88667515D01*
X160916789Y-88695323D01*
X160909607Y-88724371D01*
X160848453Y-88823516D01*
X160795143Y-88984395D01*
X160785000Y-89083682D01*
X160785000Y-89132000D01*
X161936000Y-89132000D01*
X161970648Y-89146352D01*
X161985000Y-89181000D01*
X161985000Y-89583000D01*
X161970648Y-89617648D01*
X161936000Y-89632000D01*
X160785001Y-89632000D01*
X160785001Y-89680310D01*
X160786442Y-89694421D01*
X160780394Y-89723436D01*
X160758725Y-89743657D01*
X160729361Y-89747685D01*
X160703047Y-89734047D01*
X160250044Y-89281044D01*
X160235692Y-89246396D01*
X160235692Y-88373177D01*
X160250044Y-88338529D01*
X160284692Y-88324177D01*
X160319340Y-88338529D01*
G37*
%TD.AperFunction*%
%TA.AperFunction,Conductor*%
G36*
X165953352Y-76442352D02*
G01*
X166051648Y-76540648D01*
X166066000Y-76575296D01*
X166066000Y-80570000D01*
X166051648Y-80604648D01*
X166017000Y-80619000D01*
X164557687Y-80619000D01*
X164528809Y-80609586D01*
X164511027Y-80584961D01*
X164511174Y-80554587D01*
X164561506Y-80402694D01*
X164572000Y-80299982D01*
X164572000Y-79450000D01*
X161972001Y-79450000D01*
X161972001Y-80299980D01*
X161982493Y-80402694D01*
X162032826Y-80554587D01*
X162032973Y-80584961D01*
X162015191Y-80609586D01*
X161986313Y-80619000D01*
X161875000Y-80619000D01*
X160859000Y-81634999D01*
X160859000Y-83794000D01*
X162198006Y-85133006D01*
X162212358Y-85167654D01*
X162212358Y-86294873D01*
X162198006Y-86329521D01*
X162163358Y-86343873D01*
X162128710Y-86329521D01*
X162111077Y-86311888D01*
X161917581Y-86176400D01*
X161703489Y-86076568D01*
X161490000Y-86019363D01*
X161490000Y-87551000D01*
X161475648Y-87585648D01*
X161441000Y-87600000D01*
X161039000Y-87600000D01*
X161004352Y-87585648D01*
X160990000Y-87551000D01*
X160990000Y-86019364D01*
X160989999Y-86019363D01*
X160776510Y-86076568D01*
X160562424Y-86176398D01*
X160368919Y-86311891D01*
X160319340Y-86361471D01*
X160284692Y-86375823D01*
X160250044Y-86361471D01*
X160235692Y-86326823D01*
X160235692Y-85329693D01*
X160235691Y-85329691D01*
X160097000Y-85191000D01*
X154275296Y-85191000D01*
X154240648Y-85176648D01*
X154151352Y-85087352D01*
X154137000Y-85052704D01*
X154137000Y-81496000D01*
X154051000Y-81496000D01*
X154016352Y-81481648D01*
X154002000Y-81447000D01*
X154002000Y-80996000D01*
X157302000Y-80996000D01*
X157302000Y-82693830D01*
X157308401Y-82753372D01*
X157358648Y-82888091D01*
X157444811Y-83003188D01*
X157559908Y-83089351D01*
X157694627Y-83139598D01*
X157754170Y-83146000D01*
X158552000Y-83146000D01*
X158552000Y-80996000D01*
X159052000Y-80996000D01*
X159052000Y-83146000D01*
X159849830Y-83146000D01*
X159909372Y-83139598D01*
X160044091Y-83089351D01*
X160159188Y-83003188D01*
X160245351Y-82888091D01*
X160295598Y-82753372D01*
X160302000Y-82693830D01*
X160302000Y-80996000D01*
X159052000Y-80996000D01*
X158552000Y-80996000D01*
X157302000Y-80996000D01*
X154002000Y-80996000D01*
X151002000Y-80996000D01*
X151002000Y-81543830D01*
X151008401Y-81603372D01*
X151058648Y-81738091D01*
X151119366Y-81819198D01*
X151129015Y-81852058D01*
X151114789Y-81883211D01*
X151080000Y-81918000D01*
X151080000Y-81918001D01*
X151080000Y-82884704D01*
X151065648Y-82919352D01*
X150713352Y-83271648D01*
X150678704Y-83286000D01*
X149975026Y-83286000D01*
X149946641Y-83276941D01*
X149928752Y-83253114D01*
X149927972Y-83223329D01*
X149947099Y-83157492D01*
X149947296Y-83155000D01*
X147202704Y-83155000D01*
X147202900Y-83157492D01*
X147222028Y-83223329D01*
X147221248Y-83253114D01*
X147203359Y-83276941D01*
X147174974Y-83286000D01*
X145492000Y-83286000D01*
X145103694Y-83674304D01*
X145074735Y-83688325D01*
X145043323Y-83681361D01*
X144983485Y-83644454D01*
X144822604Y-83591143D01*
X144723318Y-83581000D01*
X144661535Y-83581000D01*
X144626887Y-83566648D01*
X144612535Y-83532000D01*
X144626887Y-83497352D01*
X144667682Y-83456556D01*
X144751281Y-83315198D01*
X144797099Y-83157492D01*
X144797296Y-83155000D01*
X143675000Y-83155000D01*
X143675000Y-83705000D01*
X143682399Y-83705000D01*
X143717047Y-83719352D01*
X143731399Y-83754000D01*
X143717047Y-83788648D01*
X143652428Y-83853266D01*
X143563453Y-83997516D01*
X143510143Y-84158395D01*
X143500000Y-84257682D01*
X143500000Y-84306000D01*
X144651000Y-84306000D01*
X144685648Y-84320352D01*
X144700000Y-84355000D01*
X144700000Y-84757000D01*
X144685648Y-84791648D01*
X144651000Y-84806000D01*
X143500001Y-84806000D01*
X143500001Y-84854318D01*
X143509125Y-84943638D01*
X143504210Y-84970522D01*
X143485659Y-84990592D01*
X143459244Y-84997604D01*
X142925132Y-84985224D01*
X142891954Y-84971217D01*
X141188687Y-83300407D01*
X141177821Y-83284396D01*
X141174000Y-83265427D01*
X141174000Y-83155000D01*
X142052704Y-83155000D01*
X142052900Y-83157492D01*
X142098718Y-83315198D01*
X142182317Y-83456556D01*
X142298443Y-83572682D01*
X142439801Y-83656281D01*
X142597508Y-83702099D01*
X142634358Y-83705000D01*
X143175000Y-83705000D01*
X143175000Y-83155000D01*
X142052704Y-83155000D01*
X141174000Y-83155000D01*
X141174000Y-80365001D01*
X141173999Y-80364999D01*
X141028000Y-80219000D01*
X140843067Y-80219000D01*
X140814189Y-80209586D01*
X140796407Y-80184962D01*
X140796554Y-80154588D01*
X140800855Y-80141606D01*
X140810999Y-80042318D01*
X140810999Y-80019000D01*
X138923000Y-80019000D01*
X138648352Y-79744352D01*
X138634000Y-79709704D01*
X138634000Y-78770104D01*
X138639183Y-78748171D01*
X138653635Y-78730878D01*
X138690087Y-78703589D01*
X138776249Y-78588492D01*
X138826496Y-78453773D01*
X138832898Y-78394231D01*
X138832898Y-78346401D01*
X138520401Y-78346401D01*
X138384120Y-78346401D01*
X138374560Y-78345459D01*
X138352647Y-78341100D01*
X138352646Y-78341100D01*
X137632598Y-78341100D01*
X137597950Y-78326748D01*
X137583598Y-78292100D01*
X137583598Y-78090601D01*
X137597950Y-78055953D01*
X137632598Y-78041601D01*
X138832898Y-78041601D01*
X138832898Y-77993772D01*
X138828109Y-77949239D01*
X138828109Y-77938761D01*
X138832898Y-77894229D01*
X138832898Y-77846400D01*
X137632598Y-77846400D01*
X137597950Y-77832048D01*
X137583598Y-77797400D01*
X137583598Y-77595900D01*
X137597950Y-77561252D01*
X137632598Y-77546900D01*
X138352647Y-77546900D01*
X138374555Y-77542542D01*
X138384115Y-77541600D01*
X138867704Y-77541600D01*
X138902352Y-77555952D01*
X139127648Y-77781248D01*
X139142000Y-77815896D01*
X139142000Y-78942398D01*
X139127648Y-78977046D01*
X139013427Y-79091266D01*
X138924452Y-79235516D01*
X138871142Y-79396395D01*
X138860999Y-79495682D01*
X138860999Y-79519000D01*
X140810998Y-79519000D01*
X140810998Y-79495684D01*
X140800855Y-79396396D01*
X140796553Y-79383413D01*
X140796406Y-79353039D01*
X140814188Y-79328414D01*
X140843066Y-79319000D01*
X141377704Y-79319000D01*
X141412352Y-79333352D01*
X141921648Y-79842648D01*
X141936000Y-79877296D01*
X141936000Y-82270000D01*
X142094913Y-82428913D01*
X142108878Y-82457418D01*
X142102443Y-82488501D01*
X142098717Y-82494802D01*
X142052900Y-82652506D01*
X142052704Y-82655000D01*
X144797295Y-82655000D01*
X144796706Y-82647504D01*
X144798155Y-82647389D01*
X144798728Y-82625633D01*
X144816618Y-82601809D01*
X144845001Y-82592752D01*
X145423247Y-82592752D01*
X145423248Y-82592752D01*
X146130999Y-81885000D01*
X147202704Y-81885000D01*
X147202900Y-81887492D01*
X147248718Y-82045198D01*
X147332317Y-82186556D01*
X147381113Y-82235352D01*
X147395465Y-82270000D01*
X147381113Y-82304648D01*
X147332317Y-82353443D01*
X147248718Y-82494801D01*
X147202900Y-82652507D01*
X147202704Y-82655000D01*
X148325000Y-82655000D01*
X148325000Y-81885000D01*
X148825000Y-81885000D01*
X148825000Y-82655000D01*
X149947295Y-82655000D01*
X149947099Y-82652507D01*
X149901281Y-82494801D01*
X149817682Y-82353443D01*
X149768887Y-82304648D01*
X149754535Y-82270000D01*
X149768887Y-82235352D01*
X149817682Y-82186556D01*
X149901281Y-82045198D01*
X149947099Y-81887492D01*
X149947296Y-81885000D01*
X148825000Y-81885000D01*
X148325000Y-81885000D01*
X147202704Y-81885000D01*
X146130999Y-81885000D01*
X146620648Y-81395351D01*
X146655296Y-81381000D01*
X147177573Y-81381000D01*
X147196701Y-81385000D01*
X149947295Y-81385000D01*
X149947099Y-81382507D01*
X149923980Y-81302931D01*
X149923573Y-81277074D01*
X149936383Y-81254616D01*
X150318000Y-80873000D01*
X150318000Y-80385296D01*
X150332352Y-80350648D01*
X150672648Y-80010352D01*
X150707296Y-79996000D01*
X150953000Y-79996000D01*
X150987648Y-80010352D01*
X151002000Y-80045000D01*
X151002000Y-80496000D01*
X154002000Y-80496000D01*
X157302000Y-80496000D01*
X158552000Y-80496000D01*
X158552000Y-78346000D01*
X159052000Y-78346000D01*
X159052000Y-80496000D01*
X160302000Y-80496000D01*
X160302000Y-78950000D01*
X161972000Y-78950000D01*
X163022000Y-78950000D01*
X163022000Y-77400001D01*
X162672020Y-77400001D01*
X162569305Y-77410493D01*
X162402878Y-77465642D01*
X162253654Y-77557684D01*
X162129684Y-77681654D01*
X162037642Y-77830878D01*
X161982493Y-77997305D01*
X161972000Y-78100018D01*
X161972000Y-78950000D01*
X160302000Y-78950000D01*
X160302000Y-78798170D01*
X160295598Y-78738627D01*
X160245351Y-78603908D01*
X160159188Y-78488811D01*
X160044091Y-78402648D01*
X159909372Y-78352401D01*
X159849830Y-78346000D01*
X159052000Y-78346000D01*
X158552000Y-78346000D01*
X157754170Y-78346000D01*
X157694627Y-78352401D01*
X157559908Y-78402648D01*
X157444811Y-78488811D01*
X157358648Y-78603908D01*
X157308401Y-78738627D01*
X157302000Y-78798170D01*
X157302000Y-80496000D01*
X154002000Y-80496000D01*
X154002000Y-79948170D01*
X153995558Y-79888255D01*
X153998068Y-79866715D01*
X154009623Y-79848376D01*
X154128000Y-79730000D01*
X154128000Y-77400000D01*
X163522000Y-77400000D01*
X163522000Y-78950000D01*
X164571999Y-78950000D01*
X164571999Y-78100020D01*
X164561506Y-77997305D01*
X164506357Y-77830878D01*
X164414315Y-77681654D01*
X164290345Y-77557684D01*
X164141121Y-77465642D01*
X163974694Y-77410493D01*
X163871982Y-77400000D01*
X163522000Y-77400000D01*
X154128000Y-77400000D01*
X154128000Y-76702296D01*
X154142352Y-76667648D01*
X154367648Y-76442352D01*
X154402296Y-76428000D01*
X165918704Y-76428000D01*
X165953352Y-76442352D01*
G37*
%TD.AperFunction*%
%TD*%
%TA.AperFunction,Conductor*%
%TO.N,GND*%
G36*
X139325328Y-94081036D02*
G01*
X139357446Y-94102496D01*
X140312946Y-95057996D01*
X140340694Y-95112330D01*
X140331319Y-95172614D01*
X140288382Y-95215956D01*
X140228188Y-95225894D01*
X140132684Y-95211500D01*
X140132681Y-95211500D01*
X139867319Y-95211500D01*
X139867317Y-95211500D01*
X139604926Y-95251048D01*
X139351347Y-95329267D01*
X139112271Y-95444399D01*
X138893012Y-95593889D01*
X138698489Y-95774378D01*
X138533042Y-95981844D01*
X138400363Y-96211648D01*
X138303413Y-96458674D01*
X138244364Y-96717383D01*
X138224534Y-96982000D01*
X138244364Y-97246616D01*
X138303413Y-97505325D01*
X138400363Y-97752351D01*
X138533042Y-97982155D01*
X138698489Y-98189621D01*
X138807312Y-98290593D01*
X138893016Y-98370114D01*
X139100260Y-98511411D01*
X139112271Y-98519600D01*
X139148941Y-98537259D01*
X139351350Y-98634734D01*
X139604922Y-98712950D01*
X139604923Y-98712950D01*
X139604926Y-98712951D01*
X139709290Y-98728681D01*
X139815573Y-98744700D01*
X139860336Y-98763483D01*
X139890789Y-98801289D01*
X139899608Y-98849027D01*
X139890776Y-98876338D01*
X139893095Y-98877150D01*
X139829832Y-99057941D01*
X139812029Y-99215952D01*
X139787332Y-99270990D01*
X139735279Y-99301477D01*
X139675195Y-99296094D01*
X139629390Y-99256839D01*
X139600714Y-99210347D01*
X139600713Y-99210346D01*
X139600712Y-99210344D01*
X139476656Y-99086288D01*
X139430704Y-99057945D01*
X139327334Y-98994186D01*
X139160795Y-98939000D01*
X139058012Y-98928500D01*
X138332996Y-98928500D01*
X138230202Y-98939001D01*
X138202946Y-98948033D01*
X138063666Y-98994186D01*
X138063663Y-98994187D01*
X138052684Y-98997826D01*
X138052323Y-98996739D01*
X138027056Y-99005380D01*
X137983568Y-99000292D01*
X137946527Y-98976945D01*
X137362648Y-98393065D01*
X137335156Y-98340252D01*
X137342928Y-98281221D01*
X137363238Y-98237667D01*
X137367903Y-98227663D01*
X137429063Y-97999408D01*
X137449659Y-97764000D01*
X137429063Y-97528592D01*
X137367903Y-97300337D01*
X137360749Y-97284996D01*
X137268036Y-97086173D01*
X137132497Y-96892602D01*
X137132495Y-96892599D01*
X136965401Y-96725505D01*
X136953799Y-96717381D01*
X136771828Y-96589963D01*
X136757852Y-96583446D01*
X136716196Y-96546913D01*
X136700694Y-96493719D01*
X136716200Y-96440527D01*
X136757859Y-96403997D01*
X136771579Y-96397599D01*
X136965074Y-96262112D01*
X137132112Y-96095074D01*
X137267601Y-95901576D01*
X137367429Y-95687495D01*
X137424636Y-95474000D01*
X135943000Y-95474000D01*
X135893500Y-95460737D01*
X135857263Y-95424500D01*
X135844000Y-95375000D01*
X135844000Y-95073000D01*
X135857263Y-95023500D01*
X135893500Y-94987263D01*
X135943000Y-94974000D01*
X137424636Y-94974000D01*
X137367429Y-94760505D01*
X137267601Y-94546424D01*
X137132112Y-94352925D01*
X137021691Y-94242504D01*
X136994597Y-94191814D01*
X137000231Y-94134614D01*
X137036694Y-94090185D01*
X137091695Y-94073500D01*
X139287442Y-94073500D01*
X139325328Y-94081036D01*
G37*
%TD.AperFunction*%
%TA.AperFunction,Conductor*%
G36*
X153582000Y-84309762D02*
G01*
X153618237Y-84345999D01*
X153631500Y-84395499D01*
X153631500Y-85052707D01*
X153641211Y-85151321D01*
X153669981Y-85246158D01*
X153684331Y-85280801D01*
X153708512Y-85326039D01*
X153731045Y-85368194D01*
X153793910Y-85444794D01*
X153883206Y-85534090D01*
X153959806Y-85596955D01*
X154047197Y-85643667D01*
X154047198Y-85643668D01*
X154060823Y-85649312D01*
X154081846Y-85658020D01*
X154134125Y-85673879D01*
X154176678Y-85686788D01*
X154275293Y-85696500D01*
X154275296Y-85696500D01*
X159631191Y-85696500D01*
X159680691Y-85709763D01*
X159716928Y-85746000D01*
X159730191Y-85795500D01*
X159730191Y-86232514D01*
X159715827Y-86283873D01*
X159676904Y-86320328D01*
X159624716Y-86331302D01*
X159574407Y-86313610D01*
X159571396Y-86311502D01*
X159377830Y-86175965D01*
X159377829Y-86175964D01*
X159377827Y-86175963D01*
X159163667Y-86076098D01*
X158935405Y-86014936D01*
X158700000Y-85994340D01*
X158464594Y-86014936D01*
X158236332Y-86076098D01*
X158022173Y-86175963D01*
X157828602Y-86311502D01*
X157661502Y-86478602D01*
X157525964Y-86672171D01*
X157519724Y-86685554D01*
X157483192Y-86727210D01*
X157430000Y-86742714D01*
X157376808Y-86727210D01*
X157340276Y-86685554D01*
X157334035Y-86672171D01*
X157233623Y-86528767D01*
X157198495Y-86478599D01*
X157031401Y-86311505D01*
X156991938Y-86283873D01*
X156837827Y-86175963D01*
X156623667Y-86076098D01*
X156395405Y-86014936D01*
X156160000Y-85994340D01*
X155924594Y-86014936D01*
X155696332Y-86076098D01*
X155482173Y-86175963D01*
X155288602Y-86311502D01*
X155121502Y-86478602D01*
X154985964Y-86672171D01*
X154979724Y-86685554D01*
X154943192Y-86727210D01*
X154890000Y-86742714D01*
X154836808Y-86727210D01*
X154800276Y-86685554D01*
X154794035Y-86672171D01*
X154693623Y-86528767D01*
X154658495Y-86478599D01*
X154491401Y-86311505D01*
X154451938Y-86283873D01*
X154297827Y-86175963D01*
X154083667Y-86076098D01*
X153855405Y-86014936D01*
X153620000Y-85994340D01*
X153384594Y-86014936D01*
X153156332Y-86076098D01*
X152942173Y-86175963D01*
X152748602Y-86311502D01*
X152581502Y-86478602D01*
X152445964Y-86672171D01*
X152439724Y-86685554D01*
X152403192Y-86727210D01*
X152350000Y-86742714D01*
X152296808Y-86727210D01*
X152260276Y-86685554D01*
X152254035Y-86672171D01*
X152153623Y-86528767D01*
X152118495Y-86478599D01*
X151951401Y-86311505D01*
X151911938Y-86283873D01*
X151757827Y-86175963D01*
X151543667Y-86076098D01*
X151315405Y-86014936D01*
X151080000Y-85994340D01*
X150844594Y-86014936D01*
X150616332Y-86076098D01*
X150402173Y-86175963D01*
X150208602Y-86311502D01*
X150041502Y-86478602D01*
X149905963Y-86672173D01*
X149899445Y-86686150D01*
X149862912Y-86727804D01*
X149809719Y-86743306D01*
X149756528Y-86727800D01*
X149719997Y-86686143D01*
X149713597Y-86672418D01*
X149578112Y-86478925D01*
X149411074Y-86311887D01*
X149217576Y-86176398D01*
X149003495Y-86076570D01*
X148790000Y-86019364D01*
X148790000Y-88680636D01*
X149003495Y-88623429D01*
X149217576Y-88523601D01*
X149411074Y-88388112D01*
X149578112Y-88221074D01*
X149713599Y-88027579D01*
X149719997Y-88013859D01*
X149756527Y-87972200D01*
X149809719Y-87956694D01*
X149862913Y-87972196D01*
X149899446Y-88013852D01*
X149905963Y-88027828D01*
X150040058Y-88219335D01*
X150041505Y-88221401D01*
X150159602Y-88339498D01*
X150186695Y-88390186D01*
X150181061Y-88447386D01*
X150144598Y-88491815D01*
X150089597Y-88508500D01*
X149950944Y-88508500D01*
X149948436Y-88508468D01*
X149860635Y-88506242D01*
X149801639Y-88516816D01*
X149794193Y-88517861D01*
X149734561Y-88523926D01*
X149704013Y-88533509D01*
X149691852Y-88536493D01*
X149660352Y-88542140D01*
X149604682Y-88564376D01*
X149597599Y-88566897D01*
X149540414Y-88584840D01*
X149512419Y-88600377D01*
X149501105Y-88605750D01*
X149471382Y-88617623D01*
X149421338Y-88650604D01*
X149414909Y-88654499D01*
X149362498Y-88683591D01*
X149338205Y-88704445D01*
X149328203Y-88711986D01*
X149301479Y-88729598D01*
X149259096Y-88771981D01*
X149253581Y-88777092D01*
X149208105Y-88816132D01*
X149188517Y-88841438D01*
X149180236Y-88850841D01*
X148428073Y-89603004D01*
X148395955Y-89624464D01*
X148358069Y-89632000D01*
X147660001Y-89632000D01*
X147660000Y-89632001D01*
X147660000Y-90330071D01*
X147652464Y-90367957D01*
X147631004Y-90400075D01*
X147078576Y-90952504D01*
X147046458Y-90973964D01*
X147008572Y-90981500D01*
X145014358Y-90981500D01*
X144971403Y-90971696D01*
X144936959Y-90944227D01*
X144831711Y-90812250D01*
X144801506Y-90774374D01*
X144606983Y-90593885D01*
X144387734Y-90444402D01*
X144148652Y-90329267D01*
X144148650Y-90329266D01*
X144023417Y-90290637D01*
X143895073Y-90251048D01*
X143632683Y-90211500D01*
X143632681Y-90211500D01*
X143367319Y-90211500D01*
X143367317Y-90211500D01*
X143104926Y-90251048D01*
X142908142Y-90311748D01*
X142852213Y-90329000D01*
X142851347Y-90329267D01*
X142612269Y-90444400D01*
X142599549Y-90453073D01*
X142544521Y-90470270D01*
X142489242Y-90453895D01*
X142452461Y-90409499D01*
X142446649Y-90352140D01*
X142473777Y-90301271D01*
X142791027Y-89984021D01*
X142795592Y-89979739D01*
X142848785Y-89932925D01*
X142913159Y-89853198D01*
X142914459Y-89851622D01*
X142980542Y-89773245D01*
X142984326Y-89766796D01*
X142992679Y-89754715D01*
X142997377Y-89748898D01*
X143047371Y-89659401D01*
X143048370Y-89657657D01*
X143100251Y-89569249D01*
X143102890Y-89562254D01*
X143109077Y-89548943D01*
X143112730Y-89542406D01*
X143146881Y-89445746D01*
X143147589Y-89443810D01*
X143149085Y-89439846D01*
X143183764Y-89347955D01*
X143185182Y-89340616D01*
X143189036Y-89326437D01*
X143191527Y-89319389D01*
X143208841Y-89218402D01*
X143209217Y-89216344D01*
X143228677Y-89115730D01*
X143228835Y-89108251D01*
X143230238Y-89093621D01*
X143231500Y-89086263D01*
X143231500Y-88983841D01*
X143231522Y-88981739D01*
X143233698Y-88879254D01*
X143232591Y-88871860D01*
X143231500Y-88857202D01*
X143231500Y-88838500D01*
X143244763Y-88789000D01*
X143281000Y-88752763D01*
X143330500Y-88739500D01*
X144863668Y-88739500D01*
X144908741Y-88750356D01*
X144943930Y-88780543D01*
X144961516Y-88823440D01*
X144957643Y-88869638D01*
X144952592Y-88884882D01*
X144919650Y-88984293D01*
X144909500Y-89083651D01*
X144909500Y-89680339D01*
X144919651Y-89779709D01*
X144966549Y-89921237D01*
X144972997Y-89940697D01*
X145062032Y-90085044D01*
X145181956Y-90204968D01*
X145326303Y-90294003D01*
X145487292Y-90347349D01*
X145586655Y-90357500D01*
X146133344Y-90357499D01*
X146232708Y-90347349D01*
X146393697Y-90294003D01*
X146538044Y-90204968D01*
X146565351Y-90177660D01*
X146609728Y-90152039D01*
X146660975Y-90152038D01*
X146705357Y-90177661D01*
X146732268Y-90204572D01*
X146876518Y-90293547D01*
X147037395Y-90346856D01*
X147136682Y-90357000D01*
X147159999Y-90357000D01*
X147160000Y-90356999D01*
X147160000Y-88642694D01*
X147170471Y-88598380D01*
X147199667Y-88563443D01*
X147207546Y-88557546D01*
X147293796Y-88442331D01*
X147344091Y-88307483D01*
X147345678Y-88292719D01*
X147366473Y-88241876D01*
X147411174Y-88209944D01*
X147466016Y-88206759D01*
X147514114Y-88233301D01*
X147631004Y-88350191D01*
X147652464Y-88382309D01*
X147660000Y-88420195D01*
X147660000Y-89131999D01*
X147660001Y-89132000D01*
X148359998Y-89132000D01*
X148359999Y-89131999D01*
X148359999Y-89083681D01*
X148349857Y-88984396D01*
X148296546Y-88823515D01*
X148281559Y-88799217D01*
X148267016Y-88753479D01*
X148275693Y-88706276D01*
X148290000Y-88688272D01*
X148290000Y-86019364D01*
X148076507Y-86076569D01*
X148072305Y-86078529D01*
X148018401Y-86087062D01*
X147968166Y-86065736D01*
X147936865Y-86021029D01*
X147934010Y-85966529D01*
X147960469Y-85918797D01*
X148083767Y-85795500D01*
X148428346Y-85450921D01*
X148590572Y-85288696D01*
X148622689Y-85267236D01*
X148660575Y-85259700D01*
X150990674Y-85259700D01*
X150990682Y-85259701D01*
X151002865Y-85259701D01*
X151184333Y-85259701D01*
X151184335Y-85259701D01*
X151223301Y-85250807D01*
X151234220Y-85248951D01*
X151273930Y-85244478D01*
X151311647Y-85231279D01*
X151322294Y-85228212D01*
X151361257Y-85219320D01*
X151397259Y-85201981D01*
X151407495Y-85197740D01*
X151445218Y-85184542D01*
X151479055Y-85163279D01*
X151488754Y-85157919D01*
X151524757Y-85140582D01*
X151555996Y-85115668D01*
X151565033Y-85109255D01*
X151598874Y-85087993D01*
X151727193Y-84959674D01*
X151727193Y-84959672D01*
X151735339Y-84951527D01*
X151735341Y-84951523D01*
X152361369Y-84325495D01*
X152393488Y-84304035D01*
X152431374Y-84296499D01*
X153532500Y-84296499D01*
X153582000Y-84309762D01*
G37*
%TD.AperFunction*%
%TA.AperFunction,Conductor*%
G36*
X147616060Y-83664431D02*
G01*
X147704075Y-83690001D01*
X147747548Y-83716174D01*
X147772344Y-83760449D01*
X147771945Y-83811193D01*
X147746458Y-83855074D01*
X147119003Y-84482529D01*
X147068313Y-84509623D01*
X147011113Y-84503989D01*
X146966684Y-84467526D01*
X146949999Y-84412525D01*
X146949999Y-84257681D01*
X146939857Y-84158396D01*
X146886547Y-83997518D01*
X146852595Y-83942473D01*
X146837880Y-83892660D01*
X146850409Y-83842252D01*
X146886734Y-83805126D01*
X146936856Y-83791500D01*
X147174973Y-83791500D01*
X147174974Y-83791500D01*
X147252746Y-83785482D01*
X147328666Y-83767569D01*
X147357051Y-83758510D01*
X147452284Y-83716903D01*
X147481348Y-83696247D01*
X147505893Y-83678804D01*
X147563244Y-83660500D01*
X147588440Y-83660500D01*
X147616060Y-83664431D01*
G37*
%TD.AperFunction*%
%TA.AperFunction,Conductor*%
G36*
X136635200Y-74294795D02*
G01*
X136661935Y-74343754D01*
X136657957Y-74399394D01*
X136645008Y-74434114D01*
X136645007Y-74434117D01*
X136638625Y-74493476D01*
X136638598Y-74493730D01*
X136638598Y-74894274D01*
X136642806Y-74933417D01*
X136642806Y-74954576D01*
X136638598Y-74993724D01*
X136638598Y-75394272D01*
X136642806Y-75433418D01*
X136642806Y-75454577D01*
X136638598Y-75493726D01*
X136638598Y-75894275D01*
X136642806Y-75933418D01*
X136642806Y-75954577D01*
X136638598Y-75993725D01*
X136638598Y-76394274D01*
X136642806Y-76433417D01*
X136642806Y-76454576D01*
X136638598Y-76493724D01*
X136638598Y-76894273D01*
X136643058Y-76935766D01*
X136643058Y-76956923D01*
X136639098Y-76993769D01*
X136639098Y-77041599D01*
X136647958Y-77050459D01*
X136654779Y-77052071D01*
X136689718Y-77081271D01*
X136729692Y-77134669D01*
X136747176Y-77172953D01*
X136747177Y-77215041D01*
X136729693Y-77253325D01*
X136689718Y-77306727D01*
X136654779Y-77335928D01*
X136647959Y-77337539D01*
X136639098Y-77346401D01*
X136639098Y-77394229D01*
X136643058Y-77431072D01*
X136643058Y-77452232D01*
X136638598Y-77493725D01*
X136638598Y-77894273D01*
X136642806Y-77933418D01*
X136642806Y-77954577D01*
X136638598Y-77993726D01*
X136638598Y-78394275D01*
X136642806Y-78433418D01*
X136642806Y-78454577D01*
X136638598Y-78493725D01*
X136638598Y-78894274D01*
X136642806Y-78933417D01*
X136642806Y-78954576D01*
X136638598Y-78993724D01*
X136638598Y-79394272D01*
X136642806Y-79433418D01*
X136642806Y-79454577D01*
X136638598Y-79493726D01*
X136638598Y-79894275D01*
X136642806Y-79933418D01*
X136642806Y-79954577D01*
X136638598Y-79993725D01*
X136638598Y-80394271D01*
X136645007Y-80453884D01*
X136657956Y-80488603D01*
X136661936Y-80544243D01*
X136635202Y-80593202D01*
X136586243Y-80619936D01*
X136530603Y-80615958D01*
X136495882Y-80603008D01*
X136436272Y-80596599D01*
X136436268Y-80596599D01*
X136035725Y-80596599D01*
X135996580Y-80600807D01*
X135975420Y-80600807D01*
X135942428Y-80597260D01*
X135936272Y-80596599D01*
X135535725Y-80596599D01*
X135496578Y-80600807D01*
X135475420Y-80600807D01*
X135436272Y-80596599D01*
X135436271Y-80596599D01*
X135352415Y-80596599D01*
X135297412Y-80579913D01*
X135270795Y-80547478D01*
X135269866Y-80548191D01*
X135185705Y-80438509D01*
X135185696Y-80438499D01*
X135176574Y-80426611D01*
X135165421Y-80412076D01*
X135138991Y-80391795D01*
X135129264Y-80383265D01*
X134895532Y-80149533D01*
X134886994Y-80139796D01*
X134866723Y-80113378D01*
X134835149Y-80089150D01*
X134835151Y-80089151D01*
X134740948Y-80016867D01*
X134594480Y-79956197D01*
X134582359Y-79954602D01*
X134582358Y-79954602D01*
X134564221Y-79952214D01*
X134471525Y-79940010D01*
X134421643Y-79918385D01*
X134390702Y-79873679D01*
X134388034Y-79819376D01*
X134414442Y-79771855D01*
X134770145Y-79416152D01*
X134807449Y-79392714D01*
X134851231Y-79387780D01*
X134892817Y-79402331D01*
X135033278Y-79490589D01*
X135105893Y-79515998D01*
X135203541Y-79550167D01*
X135203542Y-79550167D01*
X135203545Y-79550168D01*
X135382800Y-79570365D01*
X135562055Y-79550168D01*
X135732322Y-79490589D01*
X135885062Y-79394616D01*
X136012616Y-79267062D01*
X136108589Y-79114322D01*
X136168168Y-78944055D01*
X136188365Y-78764800D01*
X136168168Y-78585545D01*
X136167234Y-78582877D01*
X136138979Y-78502128D01*
X136108589Y-78415278D01*
X136012616Y-78262538D01*
X135885062Y-78134984D01*
X135791481Y-78076183D01*
X135760327Y-78045029D01*
X135745775Y-78003442D01*
X135750709Y-77959659D01*
X135750728Y-77959603D01*
X135761768Y-77928055D01*
X135781965Y-77748800D01*
X135761768Y-77569545D01*
X135753941Y-77547178D01*
X135721540Y-77454581D01*
X135702189Y-77399278D01*
X135606216Y-77246538D01*
X135478662Y-77118984D01*
X135325922Y-77023011D01*
X135318215Y-77020314D01*
X135155658Y-76963432D01*
X134976400Y-76943235D01*
X134797141Y-76963432D01*
X134626880Y-77023010D01*
X134626878Y-77023010D01*
X134626878Y-77023011D01*
X134590589Y-77045813D01*
X134474139Y-77118983D01*
X134346583Y-77246539D01*
X134250610Y-77399280D01*
X134191030Y-77569545D01*
X134180545Y-77662609D01*
X134171364Y-77694479D01*
X134152172Y-77721528D01*
X132810797Y-79062905D01*
X132778679Y-79084365D01*
X132740793Y-79091901D01*
X130432399Y-79091901D01*
X130382899Y-79078638D01*
X130346662Y-79042401D01*
X130335003Y-78998890D01*
X130333966Y-78999002D01*
X130329191Y-78954581D01*
X130329191Y-78933417D01*
X130330115Y-78924821D01*
X130333400Y-78894273D01*
X130333399Y-78493728D01*
X130332073Y-78481395D01*
X130329191Y-78454582D01*
X130329191Y-78433418D01*
X130329847Y-78427314D01*
X130333400Y-78394274D01*
X130333399Y-77993729D01*
X130330741Y-77969000D01*
X130329191Y-77954582D01*
X130329191Y-77933418D01*
X130329767Y-77928056D01*
X130333400Y-77894273D01*
X130333399Y-77493728D01*
X130329191Y-77454581D01*
X130329191Y-77433417D01*
X130330224Y-77423806D01*
X130333400Y-77394273D01*
X130333399Y-76993728D01*
X130330142Y-76963432D01*
X130329191Y-76954581D01*
X130329191Y-76933417D01*
X130329691Y-76928764D01*
X130333400Y-76894272D01*
X130333399Y-76493727D01*
X130331566Y-76476676D01*
X130329191Y-76454581D01*
X130329191Y-76433417D01*
X130330390Y-76422262D01*
X130333400Y-76394273D01*
X130333399Y-75993728D01*
X130333399Y-75993725D01*
X130329191Y-75954582D01*
X130329191Y-75933418D01*
X130330365Y-75922500D01*
X130333400Y-75894274D01*
X130333399Y-75493729D01*
X130330229Y-75464240D01*
X130329191Y-75454580D01*
X130329191Y-75433417D01*
X130329384Y-75431620D01*
X130333400Y-75394272D01*
X130333399Y-74993727D01*
X130329191Y-74954581D01*
X130329191Y-74933417D01*
X130329316Y-74932247D01*
X130333400Y-74894273D01*
X130333399Y-74493728D01*
X130326991Y-74434117D01*
X130314040Y-74399396D01*
X130310061Y-74343756D01*
X130336795Y-74294797D01*
X130385754Y-74268063D01*
X130441395Y-74272042D01*
X130476116Y-74284992D01*
X130535726Y-74291401D01*
X130936271Y-74291400D01*
X130975421Y-74287191D01*
X130996571Y-74287191D01*
X131035725Y-74291401D01*
X131436270Y-74291400D01*
X131475422Y-74287191D01*
X131496573Y-74287191D01*
X131535727Y-74291401D01*
X131936272Y-74291400D01*
X131975422Y-74287191D01*
X131996572Y-74287191D01*
X132035726Y-74291401D01*
X132436271Y-74291400D01*
X132475421Y-74287191D01*
X132496571Y-74287191D01*
X132535725Y-74291401D01*
X132936270Y-74291400D01*
X132975421Y-74287191D01*
X132996572Y-74287191D01*
X133035726Y-74291401D01*
X133436271Y-74291400D01*
X133475422Y-74287191D01*
X133496572Y-74287191D01*
X133535726Y-74291401D01*
X133936271Y-74291400D01*
X133975422Y-74287191D01*
X133996573Y-74287191D01*
X134035727Y-74291401D01*
X134436272Y-74291400D01*
X134475422Y-74287191D01*
X134496572Y-74287191D01*
X134535726Y-74291401D01*
X134936271Y-74291400D01*
X134975421Y-74287191D01*
X134996571Y-74287191D01*
X135035725Y-74291401D01*
X135436270Y-74291400D01*
X135475422Y-74287191D01*
X135496573Y-74287191D01*
X135535727Y-74291401D01*
X135936272Y-74291400D01*
X135975422Y-74287191D01*
X135996572Y-74287191D01*
X136035726Y-74291401D01*
X136436271Y-74291400D01*
X136495882Y-74284992D01*
X136530603Y-74272041D01*
X136586241Y-74268062D01*
X136635200Y-74294795D01*
G37*
%TD.AperFunction*%
%TA.AperFunction,Conductor*%
G36*
X152403193Y-75272790D02*
G01*
X152439723Y-75314445D01*
X152441335Y-75317900D01*
X152445966Y-75327832D01*
X152527307Y-75443999D01*
X152581505Y-75521401D01*
X152748599Y-75688495D01*
X152942170Y-75824035D01*
X152942171Y-75824035D01*
X152942172Y-75824036D01*
X153156332Y-75923901D01*
X153156333Y-75923901D01*
X153156337Y-75923903D01*
X153384592Y-75985063D01*
X153523773Y-75997240D01*
X153619999Y-76005659D01*
X153619999Y-76005658D01*
X153620000Y-76005659D01*
X153855408Y-75985063D01*
X153855412Y-75985061D01*
X153863502Y-75984354D01*
X153921631Y-75997240D01*
X153961855Y-76041137D01*
X153969627Y-76100168D01*
X153942135Y-76152980D01*
X153784911Y-76310204D01*
X153722044Y-76386807D01*
X153675331Y-76474198D01*
X153660981Y-76508841D01*
X153632211Y-76603678D01*
X153622500Y-76702293D01*
X153622500Y-77097000D01*
X153609237Y-77146500D01*
X153573000Y-77182737D01*
X153523500Y-77196000D01*
X152752001Y-77196000D01*
X152752000Y-77196001D01*
X152752000Y-78597000D01*
X152738737Y-78646500D01*
X152702500Y-78682737D01*
X152653000Y-78696000D01*
X151002001Y-78696000D01*
X151002000Y-78696001D01*
X151002000Y-79243826D01*
X151008401Y-79303376D01*
X151028366Y-79356903D01*
X151033836Y-79403838D01*
X151016929Y-79447962D01*
X150981495Y-79479223D01*
X150935608Y-79490500D01*
X150707293Y-79490500D01*
X150608678Y-79500211D01*
X150513841Y-79528981D01*
X150479198Y-79543331D01*
X150391807Y-79590044D01*
X150315204Y-79652911D01*
X150033527Y-79934588D01*
X149981055Y-79962019D01*
X149922312Y-79954598D01*
X149878312Y-79914981D01*
X149818081Y-79813135D01*
X149804593Y-79799647D01*
X149778972Y-79755268D01*
X149778973Y-79704021D01*
X149804597Y-79659641D01*
X149817684Y-79646553D01*
X149901281Y-79505199D01*
X149947099Y-79347492D01*
X149947296Y-79345000D01*
X147202704Y-79345000D01*
X147202900Y-79347493D01*
X147220386Y-79407681D01*
X147218810Y-79467858D01*
X147182666Y-79515998D01*
X147125317Y-79534300D01*
X146922312Y-79534300D01*
X146914400Y-79533855D01*
X146906488Y-79534300D01*
X146869171Y-79534300D01*
X146811270Y-79540823D01*
X146734066Y-79549522D01*
X146562784Y-79609457D01*
X146409127Y-79706006D01*
X146409126Y-79706006D01*
X146409126Y-79706007D01*
X146313901Y-79801231D01*
X146263214Y-79828324D01*
X146206014Y-79822690D01*
X146161585Y-79786227D01*
X146144900Y-79731226D01*
X146144900Y-78845000D01*
X147202704Y-78845000D01*
X148324999Y-78845000D01*
X148325000Y-78844999D01*
X148825000Y-78844999D01*
X148825001Y-78845000D01*
X149947295Y-78845000D01*
X149947099Y-78842507D01*
X149901281Y-78684800D01*
X149817685Y-78543447D01*
X149701552Y-78427314D01*
X149560199Y-78343718D01*
X149402491Y-78297900D01*
X149365640Y-78295000D01*
X148825001Y-78295000D01*
X148825000Y-78295001D01*
X148825000Y-78844999D01*
X148325000Y-78844999D01*
X148325000Y-78295001D01*
X148324999Y-78295000D01*
X147784360Y-78295000D01*
X147747508Y-78297900D01*
X147589800Y-78343718D01*
X147448447Y-78427314D01*
X147332314Y-78543447D01*
X147248718Y-78684800D01*
X147202900Y-78842507D01*
X147202704Y-78845000D01*
X146144900Y-78845000D01*
X146144900Y-78593808D01*
X146147181Y-78573145D01*
X146144949Y-78502128D01*
X146144900Y-78499018D01*
X146144900Y-78469726D01*
X146144194Y-78464139D01*
X146143462Y-78454836D01*
X146143137Y-78444500D01*
X146141986Y-78407852D01*
X146135482Y-78385470D01*
X146132336Y-78370276D01*
X146129414Y-78347140D01*
X146112104Y-78303421D01*
X146109084Y-78294605D01*
X146095964Y-78249441D01*
X146084098Y-78229377D01*
X146077269Y-78215438D01*
X146069573Y-78195999D01*
X151002000Y-78195999D01*
X151002001Y-78196000D01*
X152251999Y-78196000D01*
X152252000Y-78195999D01*
X152252000Y-77196001D01*
X152251999Y-77196000D01*
X151454174Y-77196000D01*
X151394623Y-77202401D01*
X151259910Y-77252646D01*
X151144811Y-77338811D01*
X151058646Y-77453910D01*
X151008401Y-77588623D01*
X151002000Y-77648174D01*
X151002000Y-78195999D01*
X146069573Y-78195999D01*
X146068688Y-78193763D01*
X146068686Y-78193760D01*
X146041043Y-78155712D01*
X146035932Y-78147932D01*
X146011992Y-78107452D01*
X146011988Y-78107448D01*
X145995510Y-78090969D01*
X145985423Y-78079159D01*
X145971725Y-78060306D01*
X145935499Y-78030337D01*
X145928601Y-78024061D01*
X144751496Y-76846956D01*
X144730036Y-76814838D01*
X144722500Y-76776952D01*
X144722500Y-76002957D01*
X144737274Y-75950928D01*
X144777186Y-75914428D01*
X144830325Y-75904351D01*
X144880829Y-75923704D01*
X144907669Y-75943796D01*
X145042517Y-75994091D01*
X145102127Y-76000500D01*
X146897872Y-76000499D01*
X146957483Y-75994091D01*
X147092331Y-75943796D01*
X147207546Y-75857546D01*
X147293796Y-75742331D01*
X147344091Y-75607483D01*
X147345609Y-75593359D01*
X147366403Y-75542516D01*
X147411104Y-75510583D01*
X147465947Y-75507398D01*
X147514042Y-75533938D01*
X147668599Y-75688495D01*
X147862170Y-75824035D01*
X147862171Y-75824035D01*
X147862172Y-75824036D01*
X148076332Y-75923901D01*
X148076333Y-75923901D01*
X148076337Y-75923903D01*
X148304592Y-75985063D01*
X148443773Y-75997240D01*
X148539999Y-76005659D01*
X148539999Y-76005658D01*
X148540000Y-76005659D01*
X148775408Y-75985063D01*
X149003663Y-75923903D01*
X149217830Y-75824035D01*
X149411401Y-75688495D01*
X149578495Y-75521401D01*
X149714035Y-75327830D01*
X149720276Y-75314445D01*
X149756807Y-75272790D01*
X149810000Y-75257286D01*
X149863193Y-75272790D01*
X149899723Y-75314445D01*
X149901335Y-75317900D01*
X149905966Y-75327832D01*
X149987307Y-75443999D01*
X150041505Y-75521401D01*
X150208599Y-75688495D01*
X150402170Y-75824035D01*
X150402171Y-75824035D01*
X150402172Y-75824036D01*
X150616332Y-75923901D01*
X150616333Y-75923901D01*
X150616337Y-75923903D01*
X150844592Y-75985063D01*
X150983773Y-75997240D01*
X151079999Y-76005659D01*
X151079999Y-76005658D01*
X151080000Y-76005659D01*
X151315408Y-75985063D01*
X151543663Y-75923903D01*
X151757830Y-75824035D01*
X151951401Y-75688495D01*
X152118495Y-75521401D01*
X152254035Y-75327830D01*
X152260276Y-75314445D01*
X152296807Y-75272790D01*
X152350000Y-75257286D01*
X152403193Y-75272790D01*
G37*
%TD.AperFunction*%
%TA.AperFunction,Conductor*%
G36*
X140036499Y-76471263D02*
G01*
X140072736Y-76507500D01*
X140085999Y-76557000D01*
X140085999Y-77968999D01*
X140086000Y-77969000D01*
X140810997Y-77969000D01*
X140810998Y-77968999D01*
X140810998Y-77945681D01*
X140800856Y-77846396D01*
X140747546Y-77685518D01*
X140658571Y-77541268D01*
X140650807Y-77533504D01*
X140625184Y-77489123D01*
X140625184Y-77437877D01*
X140650807Y-77393496D01*
X140658571Y-77385731D01*
X140747546Y-77241481D01*
X140800855Y-77080604D01*
X140810998Y-76981318D01*
X140810998Y-76891967D01*
X140824728Y-76841667D01*
X140862110Y-76805319D01*
X140912775Y-76793005D01*
X140962667Y-76808140D01*
X141027678Y-76848989D01*
X141107160Y-76876801D01*
X141197941Y-76908567D01*
X141197942Y-76908567D01*
X141197945Y-76908568D01*
X141377200Y-76928765D01*
X141556455Y-76908568D01*
X141726722Y-76848989D01*
X141879462Y-76753016D01*
X141977698Y-76654779D01*
X142028386Y-76627687D01*
X142085586Y-76633321D01*
X142130015Y-76669784D01*
X142146700Y-76724785D01*
X142146700Y-78386593D01*
X142144418Y-78407256D01*
X142146651Y-78478285D01*
X142146700Y-78481395D01*
X142146700Y-78510675D01*
X142147405Y-78516260D01*
X142148135Y-78525548D01*
X142149461Y-78567739D01*
X142135725Y-78621242D01*
X142098255Y-78684602D01*
X142052402Y-78842430D01*
X142049500Y-78879308D01*
X142049500Y-79016609D01*
X142032815Y-79071610D01*
X141988386Y-79108073D01*
X141931186Y-79113707D01*
X141880498Y-79086614D01*
X141769794Y-78975910D01*
X141693194Y-78913045D01*
X141658069Y-78894270D01*
X141605801Y-78866331D01*
X141571158Y-78851981D01*
X141476321Y-78823211D01*
X141377707Y-78813500D01*
X141377704Y-78813500D01*
X140864426Y-78813500D01*
X140819353Y-78802644D01*
X140784164Y-78772458D01*
X140766578Y-78729560D01*
X140770451Y-78683360D01*
X140800855Y-78591604D01*
X140810999Y-78492318D01*
X140810999Y-78469001D01*
X140810998Y-78469000D01*
X139746500Y-78469000D01*
X139697000Y-78455737D01*
X139660763Y-78419500D01*
X139647500Y-78370000D01*
X139647500Y-77815893D01*
X139637788Y-77717278D01*
X139609018Y-77622440D01*
X139593536Y-77585065D01*
X139585999Y-77547178D01*
X139585999Y-76557000D01*
X139599262Y-76507500D01*
X139635499Y-76471263D01*
X139684999Y-76458000D01*
X139986999Y-76458000D01*
X140036499Y-76471263D01*
G37*
%TD.AperFunction*%
%TA.AperFunction,Conductor*%
G36*
X155090500Y-62475263D02*
G01*
X155126737Y-62511500D01*
X155140000Y-62561000D01*
X155140000Y-64061999D01*
X155140001Y-64062000D01*
X155787826Y-64062000D01*
X155847376Y-64055598D01*
X155982087Y-64005354D01*
X156059970Y-63947050D01*
X156110475Y-63927697D01*
X156163613Y-63937774D01*
X156203526Y-63974274D01*
X156218300Y-64026303D01*
X156218300Y-64420226D01*
X156210764Y-64458112D01*
X156189304Y-64490230D01*
X155558579Y-65120955D01*
X155535312Y-65150130D01*
X155530042Y-65156029D01*
X155525474Y-65162466D01*
X155521407Y-65167567D01*
X155471414Y-65200979D01*
X155411306Y-65199296D01*
X155363260Y-65163141D01*
X155344999Y-65105850D01*
X155344999Y-65072827D01*
X155338590Y-65002292D01*
X155288018Y-64840002D01*
X155200075Y-64694527D01*
X155079872Y-64574324D01*
X154934397Y-64486381D01*
X154772106Y-64435809D01*
X154701573Y-64429400D01*
X154695001Y-64429400D01*
X154695000Y-64429401D01*
X154695000Y-65555400D01*
X154681737Y-65604900D01*
X154645500Y-65641137D01*
X154596000Y-65654400D01*
X154294000Y-65654400D01*
X154244500Y-65641137D01*
X154208263Y-65604900D01*
X154195000Y-65555400D01*
X154195000Y-64429402D01*
X154194999Y-64429401D01*
X154188427Y-64429401D01*
X154117892Y-64435809D01*
X153955602Y-64486381D01*
X153810127Y-64574324D01*
X153690358Y-64694094D01*
X153645977Y-64719717D01*
X153594731Y-64719717D01*
X153550352Y-64694095D01*
X153430185Y-64573928D01*
X153284606Y-64485922D01*
X153224843Y-64467299D01*
X153188651Y-64446887D01*
X153164022Y-64413415D01*
X153155300Y-64372784D01*
X153155300Y-63848315D01*
X153166486Y-63802601D01*
X153197515Y-63767219D01*
X153221401Y-63750495D01*
X153376411Y-63595484D01*
X153424506Y-63568943D01*
X153479348Y-63572128D01*
X153524050Y-63604060D01*
X153544846Y-63654906D01*
X153546401Y-63669376D01*
X153596646Y-63804089D01*
X153682811Y-63919188D01*
X153797910Y-64005353D01*
X153932623Y-64055598D01*
X153992174Y-64062000D01*
X154639999Y-64062000D01*
X154640000Y-64061999D01*
X154640000Y-62561000D01*
X154653263Y-62511500D01*
X154689500Y-62475263D01*
X154739000Y-62462000D01*
X155041000Y-62462000D01*
X155090500Y-62475263D01*
G37*
%TD.AperFunction*%
%TA.AperFunction,Conductor*%
G36*
X162659278Y-59874736D02*
G01*
X162691396Y-59896196D01*
X167154604Y-64359404D01*
X167176064Y-64391522D01*
X167183600Y-64429408D01*
X167183600Y-97214992D01*
X167176064Y-97252878D01*
X167154604Y-97284996D01*
X162488196Y-101951404D01*
X162456078Y-101972864D01*
X162418192Y-101980400D01*
X129429408Y-101980400D01*
X129391522Y-101972864D01*
X129359404Y-101951404D01*
X124829496Y-97421496D01*
X124808036Y-97389378D01*
X124800500Y-97351492D01*
X124800500Y-96499999D01*
X128494390Y-96499999D01*
X128514803Y-96785425D01*
X128538118Y-96892602D01*
X128557565Y-96982000D01*
X128575632Y-97065049D01*
X128675632Y-97333160D01*
X128769642Y-97505325D01*
X128812774Y-97584315D01*
X128984261Y-97813395D01*
X129186605Y-98015739D01*
X129415685Y-98187226D01*
X129666839Y-98324367D01*
X129934954Y-98424369D01*
X130214572Y-98485196D01*
X130428552Y-98500500D01*
X130571446Y-98500500D01*
X130571448Y-98500500D01*
X130785428Y-98485196D01*
X131065046Y-98424369D01*
X131333161Y-98324367D01*
X131584315Y-98187226D01*
X131813395Y-98015739D01*
X132015739Y-97813395D01*
X132187226Y-97584315D01*
X132324367Y-97333161D01*
X132424369Y-97065046D01*
X132485196Y-96785428D01*
X132505610Y-96500000D01*
X132485196Y-96214572D01*
X132424369Y-95934954D01*
X132324367Y-95666839D01*
X132187226Y-95415685D01*
X132015739Y-95186605D01*
X131813395Y-94984261D01*
X131584315Y-94812774D01*
X131584310Y-94812771D01*
X131333160Y-94675632D01*
X131065049Y-94575632D01*
X131065048Y-94575631D01*
X131065046Y-94575631D01*
X130958574Y-94552469D01*
X130785426Y-94514803D01*
X130602054Y-94501688D01*
X130571448Y-94499500D01*
X130428552Y-94499500D01*
X130399988Y-94501542D01*
X130214573Y-94514803D01*
X130023247Y-94556424D01*
X129934954Y-94575631D01*
X129934953Y-94575631D01*
X129934950Y-94575632D01*
X129666839Y-94675632D01*
X129415689Y-94812771D01*
X129186605Y-94984261D01*
X128984261Y-95186605D01*
X128812771Y-95415689D01*
X128675632Y-95666839D01*
X128575632Y-95934950D01*
X128575631Y-95934954D01*
X128569537Y-95962969D01*
X128514803Y-96214574D01*
X128494390Y-96499999D01*
X124800500Y-96499999D01*
X124800500Y-90969640D01*
X126581800Y-90969640D01*
X126584700Y-91006491D01*
X126630518Y-91164199D01*
X126714114Y-91305552D01*
X126830247Y-91421685D01*
X126971600Y-91505281D01*
X127129307Y-91551099D01*
X127131800Y-91551295D01*
X127131800Y-90329001D01*
X127131799Y-90329000D01*
X126581801Y-90329000D01*
X126581800Y-90329001D01*
X126581800Y-90969640D01*
X124800500Y-90969640D01*
X124800500Y-73583200D01*
X125382435Y-73583200D01*
X125402632Y-73762458D01*
X125450196Y-73898385D01*
X125462211Y-73932722D01*
X125558184Y-74085462D01*
X125685738Y-74213016D01*
X125838478Y-74308989D01*
X125987592Y-74361166D01*
X126024898Y-74384606D01*
X126660306Y-75020014D01*
X126686301Y-75065828D01*
X126685119Y-75118490D01*
X126657094Y-75163092D01*
X126610160Y-75187006D01*
X126557604Y-75183462D01*
X126418058Y-75134632D01*
X126238800Y-75114435D01*
X126059541Y-75134632D01*
X125889280Y-75194210D01*
X125736539Y-75290183D01*
X125608983Y-75417739D01*
X125513010Y-75570480D01*
X125453432Y-75740741D01*
X125433235Y-75919999D01*
X125453432Y-76099258D01*
X125482809Y-76183210D01*
X125513011Y-76269522D01*
X125608984Y-76422262D01*
X125736538Y-76549816D01*
X125889278Y-76645789D01*
X125997651Y-76683710D01*
X126059541Y-76705367D01*
X126059542Y-76705367D01*
X126059545Y-76705368D01*
X126238800Y-76725565D01*
X126418055Y-76705368D01*
X126575156Y-76650395D01*
X126627711Y-76646852D01*
X126674645Y-76670766D01*
X126702670Y-76715368D01*
X126703852Y-76768030D01*
X126677856Y-76813844D01*
X126257015Y-77234684D01*
X126219710Y-77258124D01*
X126073838Y-77309168D01*
X126073836Y-77309168D01*
X126073836Y-77309169D01*
X126026661Y-77338811D01*
X125921097Y-77405141D01*
X125793541Y-77532697D01*
X125697568Y-77685438D01*
X125637990Y-77855699D01*
X125617793Y-78034957D01*
X125637990Y-78214216D01*
X125667273Y-78297900D01*
X125697569Y-78384480D01*
X125793542Y-78537220D01*
X125921096Y-78664774D01*
X125932436Y-78671899D01*
X125969359Y-78713606D01*
X125977918Y-78768647D01*
X125966053Y-78858773D01*
X125966053Y-78858779D01*
X125961705Y-78891800D01*
X125966053Y-78924821D01*
X125966900Y-78937742D01*
X125966900Y-79133615D01*
X125959364Y-79171501D01*
X125945084Y-79192871D01*
X125945119Y-79192893D01*
X125939184Y-79202337D01*
X125939184Y-79202338D01*
X125847978Y-79347492D01*
X125843210Y-79355080D01*
X125783632Y-79525341D01*
X125763435Y-79704600D01*
X125783632Y-79883858D01*
X125822077Y-79993725D01*
X125843211Y-80054122D01*
X125939184Y-80206862D01*
X125990794Y-80258472D01*
X126015920Y-80301066D01*
X126017307Y-80350502D01*
X125994610Y-80394440D01*
X125953490Y-80421917D01*
X125940081Y-80426609D01*
X125787339Y-80522583D01*
X125659783Y-80650139D01*
X125632366Y-80693773D01*
X125566815Y-80798098D01*
X125563810Y-80802880D01*
X125504232Y-80973141D01*
X125484035Y-81152399D01*
X125504232Y-81331658D01*
X125547838Y-81456274D01*
X125563811Y-81501922D01*
X125659784Y-81654662D01*
X125787338Y-81782216D01*
X125940078Y-81878189D01*
X125956558Y-81883955D01*
X126001260Y-81915672D01*
X126022237Y-81966313D01*
X126013056Y-82020353D01*
X125976532Y-82061224D01*
X125838141Y-82148181D01*
X125710583Y-82275739D01*
X125614610Y-82428480D01*
X125555032Y-82598741D01*
X125534835Y-82778000D01*
X125555032Y-82957258D01*
X125587485Y-83050001D01*
X125614611Y-83127522D01*
X125710584Y-83280262D01*
X125838138Y-83407816D01*
X125990878Y-83503789D01*
X126099251Y-83541710D01*
X126161141Y-83563367D01*
X126161142Y-83563367D01*
X126161145Y-83563368D01*
X126340400Y-83583565D01*
X126519655Y-83563368D01*
X126689922Y-83503789D01*
X126842662Y-83407816D01*
X126970216Y-83280262D01*
X127066189Y-83127522D01*
X127125768Y-82957255D01*
X127136253Y-82864185D01*
X127145435Y-82832319D01*
X127164624Y-82805272D01*
X128212576Y-81757320D01*
X128222308Y-81748788D01*
X128222405Y-81748714D01*
X128248727Y-81728517D01*
X128264681Y-81707723D01*
X128264686Y-81707720D01*
X128264685Y-81707720D01*
X128272954Y-81696942D01*
X128272957Y-81696941D01*
X128345239Y-81602742D01*
X128405907Y-81456275D01*
X128426600Y-81299095D01*
X128422251Y-81266066D01*
X128421405Y-81253146D01*
X128421405Y-80938857D01*
X128436490Y-80886329D01*
X128477147Y-80849808D01*
X128530987Y-80840424D01*
X128556502Y-80843166D01*
X128591227Y-80846900D01*
X129396664Y-80846899D01*
X129449856Y-80862403D01*
X129486388Y-80904058D01*
X129494817Y-80958819D01*
X129492305Y-80977896D01*
X129496653Y-81010919D01*
X129497500Y-81023840D01*
X129497500Y-82737300D01*
X129484237Y-82786800D01*
X129448000Y-82823037D01*
X129398500Y-82836300D01*
X128265948Y-82836300D01*
X128253026Y-82835453D01*
X128220000Y-82831105D01*
X128062820Y-82851797D01*
X127916354Y-82912466D01*
X127822601Y-82984405D01*
X127822583Y-82984419D01*
X127790576Y-83008979D01*
X127770299Y-83035403D01*
X127761764Y-83045136D01*
X127177181Y-83629719D01*
X127134798Y-83654784D01*
X126971400Y-83702256D01*
X126829938Y-83785916D01*
X126713716Y-83902138D01*
X126630056Y-84043600D01*
X126584202Y-84201430D01*
X126581300Y-84238308D01*
X126581300Y-86019692D01*
X126584202Y-86056569D01*
X126630056Y-86214399D01*
X126713716Y-86355861D01*
X126713717Y-86355862D01*
X126713719Y-86355865D01*
X126829935Y-86472081D01*
X126829937Y-86472082D01*
X126829938Y-86472083D01*
X126917316Y-86523758D01*
X126971402Y-86555744D01*
X127129231Y-86601598D01*
X127166106Y-86604500D01*
X127597492Y-86604500D01*
X127597494Y-86604500D01*
X127634369Y-86601598D01*
X127792198Y-86555744D01*
X127933665Y-86472081D01*
X127946796Y-86458949D01*
X127991174Y-86433327D01*
X128042420Y-86433326D01*
X128086801Y-86458948D01*
X128099934Y-86472081D01*
X128187316Y-86523758D01*
X128241402Y-86555744D01*
X128399231Y-86601598D01*
X128436106Y-86604500D01*
X128867492Y-86604500D01*
X128867494Y-86604500D01*
X128904369Y-86601598D01*
X129062198Y-86555744D01*
X129203665Y-86472081D01*
X129216796Y-86458949D01*
X129261174Y-86433327D01*
X129312420Y-86433326D01*
X129356801Y-86458948D01*
X129369934Y-86472081D01*
X129457316Y-86523758D01*
X129511402Y-86555744D01*
X129669231Y-86601598D01*
X129706106Y-86604500D01*
X130137492Y-86604500D01*
X130137494Y-86604500D01*
X130174369Y-86601598D01*
X130332198Y-86555744D01*
X130473665Y-86472081D01*
X130486796Y-86458949D01*
X130531174Y-86433327D01*
X130582420Y-86433326D01*
X130626801Y-86458948D01*
X130639934Y-86472081D01*
X130727316Y-86523758D01*
X130781402Y-86555744D01*
X130939231Y-86601598D01*
X130976106Y-86604500D01*
X131407492Y-86604500D01*
X131407494Y-86604500D01*
X131444369Y-86601598D01*
X131602198Y-86555744D01*
X131743665Y-86472081D01*
X131859881Y-86355865D01*
X131943544Y-86214398D01*
X131989398Y-86056569D01*
X131992300Y-86019694D01*
X131992300Y-84291900D01*
X132005563Y-84242400D01*
X132041800Y-84206163D01*
X132091300Y-84192900D01*
X132554268Y-84192900D01*
X132567189Y-84193747D01*
X132600210Y-84198094D01*
X132633231Y-84193747D01*
X132633242Y-84193746D01*
X132639668Y-84192900D01*
X132639670Y-84192900D01*
X132757390Y-84177402D01*
X132903857Y-84116733D01*
X132943566Y-84086263D01*
X132998057Y-84044451D01*
X132998057Y-84044449D01*
X133011065Y-84034469D01*
X133011067Y-84034466D01*
X133029632Y-84020222D01*
X133049914Y-83993789D01*
X133058435Y-83984072D01*
X133633411Y-83409096D01*
X133665530Y-83387636D01*
X133703416Y-83380100D01*
X134958556Y-83380100D01*
X134971477Y-83380947D01*
X135004498Y-83385294D01*
X135037519Y-83380947D01*
X135037530Y-83380946D01*
X135043956Y-83380100D01*
X135043958Y-83380100D01*
X135161678Y-83364602D01*
X135308145Y-83303933D01*
X135367748Y-83258198D01*
X135402345Y-83231651D01*
X135402344Y-83231651D01*
X135415356Y-83221668D01*
X135415360Y-83221663D01*
X135433920Y-83207422D01*
X135454200Y-83180991D01*
X135462724Y-83171270D01*
X135629269Y-83004725D01*
X135639001Y-82996193D01*
X135665419Y-82975923D01*
X135665420Y-82975922D01*
X135679741Y-82957258D01*
X135689647Y-82944347D01*
X135689649Y-82944347D01*
X135761931Y-82850148D01*
X135761931Y-82850147D01*
X135769866Y-82839807D01*
X135770794Y-82840519D01*
X135797413Y-82808083D01*
X135852416Y-82791398D01*
X135936267Y-82791398D01*
X135936272Y-82791398D01*
X135975422Y-82787189D01*
X135996572Y-82787189D01*
X136035726Y-82791399D01*
X136436271Y-82791398D01*
X136495882Y-82784990D01*
X136630730Y-82734695D01*
X136745945Y-82648445D01*
X136832195Y-82533230D01*
X136882490Y-82398382D01*
X136888899Y-82338772D01*
X136888898Y-81049227D01*
X136882490Y-80989616D01*
X136869539Y-80954895D01*
X136865560Y-80899255D01*
X136892294Y-80850296D01*
X136941253Y-80823562D01*
X136996894Y-80827541D01*
X137031615Y-80840491D01*
X137091225Y-80846900D01*
X138380770Y-80846899D01*
X138440381Y-80840491D01*
X138575229Y-80790196D01*
X138690444Y-80703946D01*
X138776694Y-80588731D01*
X138778834Y-80582990D01*
X138802990Y-80546209D01*
X138840701Y-80523529D01*
X138884514Y-80519433D01*
X138923000Y-80524500D01*
X138982967Y-80524500D01*
X139032467Y-80537763D01*
X139068704Y-80574000D01*
X139081967Y-80623500D01*
X139068703Y-80673000D01*
X138975222Y-80834911D01*
X138936301Y-80954699D01*
X138916726Y-81014944D01*
X138896940Y-81203200D01*
X138916726Y-81391456D01*
X138975221Y-81571484D01*
X139069868Y-81735418D01*
X139196526Y-81876086D01*
X139196529Y-81876088D01*
X139349670Y-81987351D01*
X139522597Y-82064344D01*
X139707754Y-82103700D01*
X139897044Y-82103700D01*
X139897046Y-82103700D01*
X140082203Y-82064344D01*
X140255130Y-81987351D01*
X140408271Y-81876088D01*
X140495929Y-81778733D01*
X140546388Y-81748714D01*
X140604977Y-81752554D01*
X140651087Y-81788905D01*
X140668499Y-81844979D01*
X140668500Y-83155000D01*
X140668500Y-83265432D01*
X140678452Y-83365240D01*
X140682276Y-83384223D01*
X140711735Y-83480086D01*
X140711736Y-83480089D01*
X140711737Y-83480090D01*
X140759549Y-83568260D01*
X140768530Y-83581494D01*
X140770416Y-83584272D01*
X140834695Y-83661267D01*
X140834698Y-83661270D01*
X140834699Y-83661271D01*
X142537966Y-85332081D01*
X142611711Y-85391923D01*
X142647953Y-85411420D01*
X142695347Y-85436917D01*
X142728518Y-85450921D01*
X142728522Y-85450922D01*
X142728524Y-85450923D01*
X142819100Y-85479478D01*
X142913418Y-85490588D01*
X143020240Y-85493063D01*
X143447526Y-85502968D01*
X143447526Y-85502967D01*
X143447530Y-85502968D01*
X143588940Y-85486183D01*
X143615355Y-85479171D01*
X143746460Y-85423620D01*
X143746463Y-85423617D01*
X143757408Y-85418980D01*
X143803545Y-85411420D01*
X143848001Y-85425873D01*
X143916303Y-85468003D01*
X144077292Y-85521349D01*
X144176655Y-85531500D01*
X144723344Y-85531499D01*
X144822708Y-85521349D01*
X144983697Y-85468003D01*
X145128044Y-85378968D01*
X145155351Y-85351660D01*
X145199728Y-85326039D01*
X145250975Y-85326038D01*
X145295357Y-85351661D01*
X145322268Y-85378572D01*
X145466518Y-85467547D01*
X145627395Y-85520856D01*
X145726681Y-85530999D01*
X145831525Y-85530999D01*
X145886527Y-85547683D01*
X145922990Y-85592113D01*
X145928624Y-85649312D01*
X145901530Y-85700002D01*
X145670031Y-85931503D01*
X145637913Y-85952964D01*
X145600027Y-85960500D01*
X141936914Y-85960500D01*
X141924340Y-85959698D01*
X141901187Y-85956733D01*
X141901185Y-85956733D01*
X141814597Y-85960411D01*
X141810398Y-85960500D01*
X141782966Y-85960500D01*
X141755656Y-85962824D01*
X141751465Y-85963092D01*
X141664871Y-85966770D01*
X141664871Y-85966771D01*
X141642040Y-85971690D01*
X141629592Y-85973554D01*
X141606323Y-85975535D01*
X141522443Y-85997374D01*
X141518358Y-85998346D01*
X141433646Y-86016604D01*
X141411979Y-86025310D01*
X141400022Y-86029251D01*
X141377429Y-86035135D01*
X141365085Y-86040714D01*
X141324313Y-86049500D01*
X140291996Y-86049500D01*
X140189202Y-86060001D01*
X140022664Y-86115186D01*
X139873346Y-86207286D01*
X139749286Y-86331346D01*
X139657186Y-86480665D01*
X139602000Y-86647204D01*
X139591500Y-86749987D01*
X139591500Y-87950003D01*
X139602001Y-88052797D01*
X139657186Y-88219335D01*
X139726469Y-88331660D01*
X139749288Y-88368656D01*
X139873344Y-88492712D01*
X140022666Y-88584814D01*
X140048676Y-88593433D01*
X140090523Y-88620521D01*
X140113865Y-88664574D01*
X140112778Y-88714417D01*
X140087538Y-88757410D01*
X138954992Y-89889956D01*
X138950396Y-89894267D01*
X138897214Y-89941074D01*
X138832845Y-90020791D01*
X138831511Y-90022409D01*
X138765454Y-90100759D01*
X138761669Y-90107209D01*
X138753324Y-90119278D01*
X138748622Y-90125102D01*
X138698663Y-90214532D01*
X138697620Y-90216354D01*
X138645747Y-90304752D01*
X138643107Y-90311748D01*
X138636920Y-90325058D01*
X138633270Y-90331592D01*
X138599118Y-90428246D01*
X138598398Y-90430217D01*
X138562235Y-90526045D01*
X138560816Y-90533382D01*
X138556966Y-90547553D01*
X138554473Y-90554609D01*
X138537155Y-90655604D01*
X138536778Y-90657669D01*
X138517322Y-90758274D01*
X138517162Y-90765759D01*
X138515763Y-90780363D01*
X138514500Y-90787734D01*
X138514500Y-90890159D01*
X138514478Y-90892261D01*
X138512301Y-90994745D01*
X138513409Y-91002140D01*
X138514500Y-91016798D01*
X138514500Y-91195500D01*
X138501237Y-91245000D01*
X138465000Y-91281237D01*
X138415500Y-91294500D01*
X136034969Y-91294500D01*
X135858327Y-91309534D01*
X135778549Y-91330306D01*
X135753604Y-91333500D01*
X135196128Y-91333500D01*
X135136515Y-91339909D01*
X135001669Y-91390203D01*
X134886454Y-91476454D01*
X134800203Y-91591669D01*
X134753316Y-91717383D01*
X134749909Y-91726517D01*
X134748834Y-91736517D01*
X134743500Y-91786131D01*
X134743500Y-92253952D01*
X134726815Y-92308953D01*
X134682386Y-92345416D01*
X134625186Y-92351050D01*
X134574496Y-92323956D01*
X133911202Y-91660662D01*
X133887852Y-91623614D01*
X133882769Y-91580119D01*
X133896946Y-91538685D01*
X133930990Y-91483491D01*
X133958003Y-91439697D01*
X134011349Y-91278708D01*
X134021500Y-91179345D01*
X134021499Y-90632656D01*
X134011349Y-90533292D01*
X133958003Y-90372303D01*
X133868968Y-90227956D01*
X133841659Y-90200647D01*
X133816038Y-90156268D01*
X133816039Y-90105021D01*
X133841663Y-90060640D01*
X133868573Y-90033730D01*
X133957547Y-89889481D01*
X134010856Y-89728604D01*
X134021000Y-89629318D01*
X134021000Y-89606001D01*
X134020999Y-89606000D01*
X132895000Y-89606000D01*
X132845500Y-89592737D01*
X132809263Y-89556500D01*
X132796000Y-89507000D01*
X132796000Y-88406002D01*
X132795999Y-88406001D01*
X132747681Y-88406001D01*
X132648396Y-88416142D01*
X132487515Y-88469453D01*
X132430653Y-88504526D01*
X132375801Y-88519223D01*
X132321896Y-88501361D01*
X132286675Y-88456816D01*
X132281726Y-88400245D01*
X132308678Y-88350261D01*
X132627045Y-88031896D01*
X132659162Y-88010436D01*
X132697048Y-88002900D01*
X132736051Y-88002900D01*
X132766644Y-88007745D01*
X132794242Y-88021807D01*
X132795727Y-88022886D01*
X132795729Y-88022888D01*
X132948870Y-88134151D01*
X133121797Y-88211144D01*
X133247812Y-88237929D01*
X133294428Y-88262067D01*
X133322150Y-88306647D01*
X133323181Y-88359133D01*
X133297232Y-88404767D01*
X133296000Y-88405999D01*
X133296000Y-89105999D01*
X133296001Y-89106000D01*
X134020998Y-89106000D01*
X134020999Y-89105999D01*
X134020999Y-89082681D01*
X134010857Y-88983396D01*
X133957547Y-88822518D01*
X133868572Y-88678268D01*
X133748731Y-88558427D01*
X133604481Y-88469452D01*
X133506321Y-88436926D01*
X133463582Y-88408852D01*
X133440553Y-88363196D01*
X133443378Y-88312139D01*
X133471303Y-88269303D01*
X133516876Y-88246114D01*
X133681403Y-88211144D01*
X133854330Y-88134151D01*
X134007471Y-88022888D01*
X134030514Y-87997295D01*
X134078532Y-87967894D01*
X134134816Y-87969429D01*
X134181160Y-88001405D01*
X134198146Y-88042713D01*
X134199083Y-88042403D01*
X134257642Y-88219122D01*
X134349681Y-88368341D01*
X134473658Y-88492318D01*
X134622878Y-88584357D01*
X134789305Y-88639506D01*
X134892018Y-88650000D01*
X136191999Y-88650000D01*
X136192000Y-88649999D01*
X136192000Y-88649998D01*
X136692000Y-88649998D01*
X136692001Y-88649999D01*
X137991973Y-88649999D01*
X138094696Y-88639505D01*
X138261122Y-88584357D01*
X138410341Y-88492318D01*
X138534318Y-88368341D01*
X138626357Y-88219121D01*
X138681506Y-88052694D01*
X138692000Y-87949982D01*
X138692000Y-87600001D01*
X138691999Y-87600000D01*
X136692001Y-87600000D01*
X136692000Y-87600001D01*
X136692000Y-88649998D01*
X136192000Y-88649998D01*
X136192000Y-87099999D01*
X136692000Y-87099999D01*
X136692001Y-87100000D01*
X138691998Y-87100000D01*
X138691999Y-87099999D01*
X138691999Y-86750027D01*
X138681505Y-86647303D01*
X138626357Y-86480877D01*
X138534318Y-86331658D01*
X138410341Y-86207681D01*
X138261121Y-86115642D01*
X138094694Y-86060493D01*
X137991982Y-86050000D01*
X136692001Y-86050000D01*
X136692000Y-86050001D01*
X136692000Y-87099999D01*
X136192000Y-87099999D01*
X136192000Y-86050002D01*
X136191999Y-86050001D01*
X134892027Y-86050001D01*
X134789303Y-86060494D01*
X134622877Y-86115642D01*
X134473658Y-86207681D01*
X134349681Y-86331658D01*
X134257642Y-86480878D01*
X134199084Y-86657596D01*
X134198149Y-86657286D01*
X134181155Y-86698601D01*
X134134811Y-86730573D01*
X134078529Y-86732105D01*
X134030514Y-86702704D01*
X134023413Y-86694818D01*
X134007471Y-86677112D01*
X133854330Y-86565849D01*
X133831632Y-86555743D01*
X133681404Y-86488856D01*
X133619683Y-86475737D01*
X133496246Y-86449500D01*
X133306954Y-86449500D01*
X133214375Y-86469178D01*
X133121795Y-86488856D01*
X132948871Y-86565848D01*
X132948869Y-86565849D01*
X132948870Y-86565849D01*
X132795729Y-86677112D01*
X132795727Y-86677113D01*
X132794242Y-86678193D01*
X132766644Y-86692255D01*
X132736051Y-86697100D01*
X132468612Y-86697100D01*
X132447940Y-86694818D01*
X132376896Y-86697051D01*
X132373786Y-86697100D01*
X132344522Y-86697100D01*
X132338936Y-86697805D01*
X132329651Y-86698535D01*
X132282651Y-86700013D01*
X132260268Y-86706515D01*
X132245062Y-86709664D01*
X132221940Y-86712585D01*
X132178224Y-86729893D01*
X132169405Y-86732912D01*
X132124243Y-86746034D01*
X132104177Y-86757900D01*
X132090235Y-86764730D01*
X132068562Y-86773311D01*
X132030521Y-86800950D01*
X132022728Y-86806069D01*
X131982251Y-86830007D01*
X131965768Y-86846490D01*
X131953964Y-86856572D01*
X131935106Y-86870274D01*
X131905137Y-86906499D01*
X131898862Y-86913395D01*
X131206328Y-87605931D01*
X131206328Y-87605932D01*
X131206327Y-87605933D01*
X131206326Y-87605933D01*
X130788823Y-88023435D01*
X130772598Y-88036435D01*
X130723946Y-88088244D01*
X130721784Y-88090475D01*
X130701085Y-88111174D01*
X130697639Y-88115617D01*
X130691585Y-88122705D01*
X130659392Y-88156986D01*
X130648166Y-88177406D01*
X130639643Y-88190382D01*
X130625355Y-88208803D01*
X130606680Y-88251958D01*
X130602578Y-88260331D01*
X130579924Y-88301539D01*
X130574127Y-88324116D01*
X130569097Y-88338806D01*
X130559840Y-88360197D01*
X130552485Y-88406638D01*
X130550594Y-88415768D01*
X130538900Y-88461318D01*
X130538900Y-88484627D01*
X130537681Y-88500115D01*
X130534035Y-88523128D01*
X130538461Y-88569941D01*
X130538900Y-88579258D01*
X130538900Y-88600934D01*
X130525507Y-88650658D01*
X130488950Y-88686929D01*
X130439122Y-88699931D01*
X130389505Y-88686147D01*
X130332199Y-88652256D01*
X130174369Y-88606402D01*
X130166084Y-88605750D01*
X130137494Y-88603500D01*
X129706106Y-88603500D01*
X129681522Y-88605434D01*
X129669230Y-88606402D01*
X129511400Y-88652256D01*
X129369934Y-88735918D01*
X129356802Y-88749051D01*
X129312422Y-88774673D01*
X129261178Y-88774673D01*
X129216798Y-88749051D01*
X129203665Y-88735918D01*
X129062196Y-88652254D01*
X129031632Y-88643374D01*
X128989250Y-88618310D01*
X128283165Y-87912225D01*
X128270168Y-87896001D01*
X128218370Y-87847360D01*
X128216138Y-87845197D01*
X128195425Y-87824485D01*
X128190986Y-87821042D01*
X128183896Y-87814987D01*
X128149615Y-87782795D01*
X128129186Y-87771564D01*
X128116214Y-87763042D01*
X128097795Y-87748755D01*
X128054636Y-87730078D01*
X128046261Y-87725975D01*
X128005058Y-87703323D01*
X127982484Y-87697527D01*
X127967796Y-87692499D01*
X127946401Y-87683241D01*
X127946398Y-87683240D01*
X127946397Y-87683240D01*
X127899961Y-87675885D01*
X127890829Y-87673994D01*
X127845281Y-87662300D01*
X127845280Y-87662300D01*
X127821973Y-87662300D01*
X127806485Y-87661081D01*
X127783471Y-87657435D01*
X127736659Y-87661861D01*
X127727342Y-87662300D01*
X126885246Y-87662300D01*
X126832575Y-87647126D01*
X126818945Y-87638562D01*
X126740722Y-87589411D01*
X126729282Y-87585408D01*
X126570458Y-87529832D01*
X126391200Y-87509635D01*
X126211941Y-87529832D01*
X126041680Y-87589410D01*
X126041678Y-87589410D01*
X126041678Y-87589411D01*
X125979283Y-87628616D01*
X125888939Y-87685383D01*
X125761383Y-87812939D01*
X125754128Y-87824486D01*
X125675274Y-87949982D01*
X125665410Y-87965680D01*
X125605832Y-88135941D01*
X125587678Y-88297069D01*
X125585635Y-88315200D01*
X125588436Y-88340062D01*
X125605832Y-88494458D01*
X125657703Y-88642694D01*
X125665411Y-88664722D01*
X125761384Y-88817462D01*
X125888938Y-88945016D01*
X126041678Y-89040989D01*
X126150051Y-89078910D01*
X126211941Y-89100567D01*
X126211942Y-89100567D01*
X126211945Y-89100568D01*
X126391200Y-89120765D01*
X126471715Y-89111693D01*
X126525754Y-89120874D01*
X126566626Y-89157399D01*
X126581800Y-89210070D01*
X126581800Y-89828999D01*
X126581801Y-89829000D01*
X127532800Y-89829000D01*
X127582300Y-89842263D01*
X127618537Y-89878500D01*
X127631800Y-89928000D01*
X127631800Y-91551296D01*
X127634292Y-91551099D01*
X127791999Y-91505281D01*
X127933353Y-91421684D01*
X127946441Y-91408597D01*
X127990821Y-91382973D01*
X128042068Y-91382972D01*
X128086447Y-91408593D01*
X128099935Y-91422081D01*
X128099937Y-91422082D01*
X128099938Y-91422083D01*
X128130541Y-91440182D01*
X128160237Y-91467202D01*
X128172072Y-91483491D01*
X128172073Y-91483492D01*
X128172074Y-91483493D01*
X128198411Y-91505281D01*
X128208298Y-91513460D01*
X128215197Y-91519737D01*
X129630035Y-92934575D01*
X129643030Y-92950797D01*
X129694827Y-92999437D01*
X129697061Y-93001601D01*
X129717777Y-93022317D01*
X129722217Y-93025761D01*
X129729309Y-93031818D01*
X129763585Y-93064005D01*
X129784005Y-93075231D01*
X129796990Y-93083761D01*
X129815405Y-93098045D01*
X129844499Y-93110635D01*
X129858560Y-93116720D01*
X129866937Y-93120824D01*
X129908140Y-93143476D01*
X129930711Y-93149271D01*
X129945409Y-93154303D01*
X129966796Y-93163558D01*
X129966797Y-93163558D01*
X129966799Y-93163559D01*
X130013256Y-93170916D01*
X130022374Y-93172805D01*
X130067919Y-93184500D01*
X130067920Y-93184500D01*
X130091227Y-93184500D01*
X130106715Y-93185719D01*
X130129728Y-93189364D01*
X130129728Y-93189363D01*
X130129729Y-93189364D01*
X130176540Y-93184939D01*
X130185858Y-93184500D01*
X132632952Y-93184500D01*
X132670838Y-93192036D01*
X132702956Y-93213496D01*
X133481704Y-93992244D01*
X133503164Y-94024362D01*
X133510700Y-94062248D01*
X133510700Y-98290593D01*
X133508418Y-98311256D01*
X133510651Y-98382285D01*
X133510700Y-98385395D01*
X133510700Y-98414675D01*
X133511405Y-98420260D01*
X133512135Y-98429546D01*
X133513613Y-98476548D01*
X133520115Y-98498932D01*
X133523264Y-98514136D01*
X133526186Y-98537259D01*
X133543494Y-98580977D01*
X133546514Y-98589798D01*
X133559635Y-98634960D01*
X133571500Y-98655024D01*
X133578331Y-98668968D01*
X133586911Y-98690636D01*
X133614552Y-98728681D01*
X133619672Y-98736475D01*
X133643608Y-98776949D01*
X133660089Y-98793430D01*
X133670175Y-98805239D01*
X133683874Y-98824093D01*
X133714014Y-98849027D01*
X133720098Y-98854060D01*
X133726997Y-98860337D01*
X134755780Y-99889120D01*
X134781403Y-99933500D01*
X134781403Y-99984746D01*
X134758937Y-100068593D01*
X134738340Y-100303999D01*
X134758936Y-100539405D01*
X134820098Y-100767667D01*
X134919963Y-100981827D01*
X134919964Y-100981829D01*
X134919965Y-100981830D01*
X135055505Y-101175401D01*
X135222599Y-101342495D01*
X135416170Y-101478035D01*
X135416171Y-101478035D01*
X135416172Y-101478036D01*
X135630332Y-101577901D01*
X135630333Y-101577901D01*
X135630337Y-101577903D01*
X135858592Y-101639063D01*
X136094000Y-101659659D01*
X136329408Y-101639063D01*
X136557663Y-101577903D01*
X136771830Y-101478035D01*
X136965401Y-101342495D01*
X137132495Y-101175401D01*
X137268035Y-100981830D01*
X137367903Y-100767663D01*
X137403610Y-100634400D01*
X137429231Y-100590023D01*
X137473611Y-100564399D01*
X137524858Y-100564399D01*
X137569239Y-100590022D01*
X137603504Y-100624287D01*
X137624964Y-100656405D01*
X137632500Y-100694291D01*
X137632500Y-100979004D01*
X137643001Y-101081797D01*
X137698186Y-101248335D01*
X137762434Y-101352497D01*
X137790288Y-101397656D01*
X137914344Y-101521712D01*
X138063666Y-101613814D01*
X138230203Y-101668999D01*
X138332991Y-101679500D01*
X139058008Y-101679499D01*
X139160797Y-101668999D01*
X139327334Y-101613814D01*
X139476656Y-101521712D01*
X139600712Y-101397656D01*
X139692814Y-101248334D01*
X139747999Y-101081797D01*
X139758500Y-100979009D01*
X139758499Y-99722011D01*
X139771395Y-99673155D01*
X139806722Y-99637025D01*
X139855278Y-99623037D01*
X139904412Y-99634833D01*
X139941322Y-99669338D01*
X139985384Y-99739462D01*
X140112938Y-99867016D01*
X140265678Y-99962989D01*
X140374051Y-100000910D01*
X140435941Y-100022567D01*
X140435942Y-100022567D01*
X140435945Y-100022568D01*
X140448045Y-100023931D01*
X140479914Y-100033112D01*
X140506963Y-100052304D01*
X140528502Y-100073842D01*
X140549964Y-100105960D01*
X140557500Y-100143847D01*
X140557500Y-100979003D01*
X140568001Y-101081797D01*
X140623186Y-101248335D01*
X140687434Y-101352497D01*
X140715288Y-101397656D01*
X140839344Y-101521712D01*
X140988666Y-101613814D01*
X141155203Y-101668999D01*
X141257991Y-101679500D01*
X141983008Y-101679499D01*
X142085797Y-101668999D01*
X142252334Y-101613814D01*
X142401656Y-101521712D01*
X142525712Y-101397656D01*
X142617814Y-101248334D01*
X142672999Y-101081797D01*
X142683500Y-100979009D01*
X142683500Y-100313999D01*
X154779340Y-100313999D01*
X154799936Y-100549405D01*
X154861098Y-100777667D01*
X154960963Y-100991827D01*
X154960964Y-100991829D01*
X154960965Y-100991830D01*
X155096505Y-101185401D01*
X155263599Y-101352495D01*
X155457170Y-101488035D01*
X155457171Y-101488035D01*
X155457172Y-101488036D01*
X155671332Y-101587901D01*
X155671333Y-101587901D01*
X155671337Y-101587903D01*
X155899592Y-101649063D01*
X156135000Y-101669659D01*
X156370408Y-101649063D01*
X156598663Y-101587903D01*
X156812830Y-101488035D01*
X157006401Y-101352495D01*
X157173495Y-101185401D01*
X157309035Y-100991830D01*
X157408903Y-100777663D01*
X157470063Y-100549408D01*
X157490659Y-100314000D01*
X157470063Y-100078592D01*
X157408903Y-99850337D01*
X157309035Y-99636171D01*
X157173495Y-99442599D01*
X157006401Y-99275505D01*
X156999953Y-99270990D01*
X156812832Y-99139966D01*
X156812828Y-99139964D01*
X156799445Y-99133723D01*
X156757790Y-99097193D01*
X156742286Y-99044000D01*
X156757790Y-98990807D01*
X156799445Y-98954276D01*
X156812830Y-98948035D01*
X157006401Y-98812495D01*
X157173495Y-98645401D01*
X157309035Y-98451830D01*
X157408903Y-98237663D01*
X157470063Y-98009408D01*
X157490659Y-97774000D01*
X157470063Y-97538592D01*
X157408903Y-97310337D01*
X157397086Y-97284996D01*
X157309036Y-97096173D01*
X157173497Y-96902602D01*
X157173495Y-96902599D01*
X157006401Y-96735505D01*
X156992120Y-96725505D01*
X156812828Y-96599963D01*
X156798852Y-96593446D01*
X156757196Y-96556913D01*
X156741694Y-96503719D01*
X156742778Y-96499999D01*
X159494390Y-96499999D01*
X159514803Y-96785425D01*
X159538118Y-96892602D01*
X159557565Y-96982000D01*
X159575632Y-97065049D01*
X159675632Y-97333160D01*
X159769642Y-97505325D01*
X159812774Y-97584315D01*
X159984261Y-97813395D01*
X160186605Y-98015739D01*
X160415685Y-98187226D01*
X160666839Y-98324367D01*
X160934954Y-98424369D01*
X161214572Y-98485196D01*
X161428552Y-98500500D01*
X161571446Y-98500500D01*
X161571448Y-98500500D01*
X161785428Y-98485196D01*
X162065046Y-98424369D01*
X162333161Y-98324367D01*
X162584315Y-98187226D01*
X162813395Y-98015739D01*
X163015739Y-97813395D01*
X163187226Y-97584315D01*
X163324367Y-97333161D01*
X163424369Y-97065046D01*
X163485196Y-96785428D01*
X163505610Y-96500000D01*
X163485196Y-96214572D01*
X163424369Y-95934954D01*
X163324367Y-95666839D01*
X163187226Y-95415685D01*
X163015739Y-95186605D01*
X162813395Y-94984261D01*
X162584315Y-94812774D01*
X162584310Y-94812771D01*
X162333160Y-94675632D01*
X162065049Y-94575632D01*
X162065048Y-94575631D01*
X162065046Y-94575631D01*
X161958574Y-94552469D01*
X161785426Y-94514803D01*
X161602054Y-94501688D01*
X161571448Y-94499500D01*
X161428552Y-94499500D01*
X161399988Y-94501542D01*
X161214573Y-94514803D01*
X161023247Y-94556424D01*
X160934954Y-94575631D01*
X160934953Y-94575631D01*
X160934950Y-94575632D01*
X160666839Y-94675632D01*
X160415689Y-94812771D01*
X160186605Y-94984261D01*
X159984261Y-95186605D01*
X159812771Y-95415689D01*
X159675632Y-95666839D01*
X159575632Y-95934950D01*
X159575631Y-95934954D01*
X159569537Y-95962969D01*
X159514803Y-96214574D01*
X159494390Y-96499999D01*
X156742778Y-96499999D01*
X156757200Y-96450527D01*
X156798859Y-96413997D01*
X156812579Y-96407599D01*
X157006074Y-96272112D01*
X157173112Y-96105074D01*
X157308601Y-95911576D01*
X157408429Y-95697495D01*
X157465636Y-95484000D01*
X154804364Y-95484000D01*
X154861570Y-95697495D01*
X154961398Y-95911576D01*
X155096887Y-96105074D01*
X155263925Y-96272112D01*
X155457418Y-96407598D01*
X155471145Y-96413999D01*
X155512801Y-96450531D01*
X155528306Y-96503723D01*
X155512802Y-96556916D01*
X155471146Y-96593448D01*
X155457171Y-96599964D01*
X155263602Y-96735502D01*
X155096502Y-96902602D01*
X154960963Y-97096173D01*
X154861098Y-97310332D01*
X154799936Y-97538594D01*
X154779340Y-97773999D01*
X154799936Y-98009405D01*
X154861098Y-98237667D01*
X154960963Y-98451827D01*
X154960964Y-98451829D01*
X154960965Y-98451830D01*
X155096505Y-98645401D01*
X155263599Y-98812495D01*
X155263602Y-98812497D01*
X155429272Y-98928501D01*
X155457170Y-98948035D01*
X155470554Y-98954276D01*
X155512209Y-98990807D01*
X155527714Y-99043999D01*
X155512210Y-99097192D01*
X155470554Y-99133724D01*
X155457171Y-99139964D01*
X155263602Y-99275502D01*
X155096502Y-99442602D01*
X154960963Y-99636173D01*
X154861098Y-99850332D01*
X154799936Y-100078594D01*
X154779340Y-100313999D01*
X142683500Y-100313999D01*
X142683499Y-99628992D01*
X142672999Y-99526203D01*
X142617814Y-99359666D01*
X142525712Y-99210344D01*
X142401656Y-99086288D01*
X142355704Y-99057945D01*
X142252334Y-98994186D01*
X142085795Y-98939000D01*
X141983012Y-98928500D01*
X141983009Y-98928500D01*
X141421354Y-98928500D01*
X141373466Y-98916147D01*
X141337529Y-98882172D01*
X141245016Y-98734938D01*
X141117462Y-98607384D01*
X141117459Y-98607382D01*
X141117458Y-98607381D01*
X141058933Y-98570607D01*
X141025409Y-98535478D01*
X141012622Y-98488632D01*
X141023649Y-98441342D01*
X141055833Y-98404987D01*
X141106984Y-98370114D01*
X141301508Y-98189623D01*
X141466958Y-97982155D01*
X141564392Y-97813394D01*
X141599636Y-97752351D01*
X141599636Y-97752348D01*
X141599639Y-97752345D01*
X141696586Y-97505327D01*
X141755635Y-97246619D01*
X141775465Y-96982000D01*
X141755635Y-96717381D01*
X141696586Y-96458673D01*
X141690612Y-96443453D01*
X141685797Y-96387357D01*
X141712346Y-96337705D01*
X141761675Y-96310560D01*
X141801128Y-96313469D01*
X141801768Y-96310164D01*
X141817373Y-96313181D01*
X141831562Y-96317036D01*
X141838611Y-96319527D01*
X141924315Y-96334221D01*
X141939585Y-96336840D01*
X141941654Y-96337217D01*
X141951659Y-96339152D01*
X142042270Y-96356677D01*
X142049747Y-96356835D01*
X142064362Y-96358235D01*
X142071736Y-96359500D01*
X142174159Y-96359500D01*
X142176261Y-96359522D01*
X142278745Y-96361698D01*
X142286140Y-96360591D01*
X142300798Y-96359500D01*
X144428591Y-96359500D01*
X144434892Y-96359701D01*
X144505595Y-96364210D01*
X144505596Y-96364209D01*
X144505599Y-96364210D01*
X144607596Y-96353342D01*
X144609452Y-96353164D01*
X144711676Y-96344465D01*
X144718912Y-96342580D01*
X144733363Y-96339944D01*
X144740797Y-96339153D01*
X144839491Y-96311204D01*
X144841326Y-96310705D01*
X144940571Y-96284865D01*
X144947380Y-96281786D01*
X144961184Y-96276743D01*
X144968375Y-96274708D01*
X145060885Y-96230501D01*
X145062669Y-96229672D01*
X145156102Y-96187439D01*
X145162295Y-96183252D01*
X145175051Y-96175948D01*
X145181790Y-96172729D01*
X145235236Y-96134928D01*
X145282169Y-96117287D01*
X145331731Y-96124905D01*
X145371202Y-96155831D01*
X145390457Y-96202130D01*
X145384556Y-96251925D01*
X145375615Y-96274706D01*
X145303413Y-96458674D01*
X145244364Y-96717383D01*
X145224534Y-96982000D01*
X145244364Y-97246616D01*
X145303413Y-97505325D01*
X145400363Y-97752351D01*
X145533042Y-97982155D01*
X145698489Y-98189621D01*
X145807312Y-98290593D01*
X145893016Y-98370114D01*
X146100260Y-98511411D01*
X146112271Y-98519600D01*
X146148941Y-98537259D01*
X146351350Y-98634734D01*
X146604922Y-98712950D01*
X146604923Y-98712950D01*
X146604926Y-98712951D01*
X146867317Y-98752500D01*
X146867319Y-98752500D01*
X147132681Y-98752500D01*
X147132683Y-98752500D01*
X147395073Y-98712951D01*
X147395074Y-98712950D01*
X147395078Y-98712950D01*
X147648650Y-98634734D01*
X147887733Y-98519598D01*
X148106984Y-98370114D01*
X148301508Y-98189623D01*
X148466958Y-97982155D01*
X148564392Y-97813394D01*
X148599636Y-97752351D01*
X148599636Y-97752348D01*
X148599639Y-97752345D01*
X148696586Y-97505327D01*
X148755635Y-97246619D01*
X148775465Y-96982000D01*
X148755635Y-96717381D01*
X148696586Y-96458673D01*
X148691892Y-96446714D01*
X148686966Y-96391158D01*
X148712855Y-96341753D01*
X148761343Y-96314185D01*
X148817036Y-96317203D01*
X148823611Y-96319527D01*
X148924600Y-96336843D01*
X148926598Y-96337207D01*
X149027270Y-96356678D01*
X149034753Y-96356836D01*
X149049382Y-96358239D01*
X149056735Y-96359500D01*
X149056736Y-96359500D01*
X149159140Y-96359500D01*
X149161241Y-96359522D01*
X149263744Y-96361698D01*
X149263744Y-96361697D01*
X149263745Y-96361698D01*
X149271139Y-96360591D01*
X149285798Y-96359500D01*
X152556591Y-96359500D01*
X152562892Y-96359701D01*
X152633595Y-96364210D01*
X152633596Y-96364209D01*
X152633599Y-96364210D01*
X152735596Y-96353342D01*
X152737452Y-96353164D01*
X152839676Y-96344465D01*
X152846912Y-96342580D01*
X152861363Y-96339944D01*
X152868797Y-96339153D01*
X152967491Y-96311204D01*
X152969326Y-96310705D01*
X153068571Y-96284865D01*
X153075380Y-96281786D01*
X153089184Y-96276743D01*
X153096375Y-96274708D01*
X153188885Y-96230501D01*
X153190669Y-96229672D01*
X153284102Y-96187439D01*
X153290295Y-96183252D01*
X153303051Y-96175948D01*
X153309790Y-96172729D01*
X153393534Y-96113499D01*
X153395074Y-96112434D01*
X153480068Y-96054990D01*
X153485467Y-96049814D01*
X153496793Y-96040468D01*
X153502900Y-96036150D01*
X153575394Y-95963654D01*
X153576754Y-95962322D01*
X153650831Y-95891327D01*
X153655274Y-95885318D01*
X153664859Y-95874189D01*
X154634364Y-94904684D01*
X154678742Y-94879064D01*
X154729987Y-94879064D01*
X154774368Y-94904687D01*
X154799991Y-94949066D01*
X154799991Y-94978302D01*
X154804363Y-94984000D01*
X157465636Y-94984000D01*
X157408429Y-94770505D01*
X157308601Y-94556424D01*
X157173112Y-94362925D01*
X157018301Y-94208114D01*
X156991759Y-94160016D01*
X156994945Y-94105172D01*
X157026878Y-94060471D01*
X157077724Y-94039677D01*
X157092483Y-94038091D01*
X157227331Y-93987796D01*
X157342546Y-93901546D01*
X157428796Y-93786331D01*
X157479091Y-93651483D01*
X157485500Y-93591873D01*
X157485499Y-93044165D01*
X157489839Y-93015174D01*
X157493996Y-93001601D01*
X157498224Y-92987797D01*
X157528267Y-92753185D01*
X157518229Y-92516871D01*
X157493932Y-92404137D01*
X157487721Y-92375315D01*
X157485499Y-92354458D01*
X157485499Y-91796128D01*
X157484424Y-91786127D01*
X157479091Y-91736517D01*
X157428796Y-91601669D01*
X157342546Y-91486454D01*
X157227331Y-91400204D01*
X157227330Y-91400203D01*
X157131366Y-91364411D01*
X157092483Y-91349909D01*
X157032873Y-91343500D01*
X157032869Y-91343500D01*
X156489142Y-91343500D01*
X156472411Y-91342076D01*
X156253264Y-91304500D01*
X154927396Y-91304500D01*
X154921096Y-91304299D01*
X154917437Y-91304065D01*
X154850400Y-91299790D01*
X154752654Y-91310203D01*
X154693885Y-91298188D01*
X154652841Y-91254443D01*
X154644591Y-91195028D01*
X154672163Y-91141757D01*
X154767424Y-91046496D01*
X154799543Y-91025036D01*
X154837428Y-91017500D01*
X158672134Y-91017500D01*
X158677148Y-91017627D01*
X158750936Y-91021369D01*
X158823979Y-91010178D01*
X158828915Y-91009550D01*
X158902438Y-91002074D01*
X158919621Y-90996682D01*
X158934268Y-90993282D01*
X158952071Y-90990556D01*
X159021362Y-90964893D01*
X159026083Y-90963279D01*
X159051039Y-90955449D01*
X159096586Y-90941160D01*
X159096588Y-90941159D01*
X159112339Y-90932415D01*
X159125988Y-90926143D01*
X159142887Y-90919886D01*
X159205617Y-90880785D01*
X159209878Y-90878276D01*
X159274502Y-90842409D01*
X159288165Y-90830678D01*
X159300280Y-90821781D01*
X159315571Y-90812252D01*
X159369140Y-90761329D01*
X159372821Y-90758003D01*
X159428895Y-90709866D01*
X159439925Y-90695615D01*
X159449990Y-90684475D01*
X159463053Y-90672059D01*
X159505278Y-90611390D01*
X159508199Y-90607412D01*
X159553448Y-90548958D01*
X159561384Y-90532778D01*
X159569002Y-90519836D01*
X159579295Y-90505049D01*
X159608440Y-90437131D01*
X159610504Y-90432639D01*
X159643060Y-90366271D01*
X159647573Y-90348836D01*
X159652437Y-90334609D01*
X159656536Y-90325058D01*
X159659540Y-90318058D01*
X159674416Y-90245660D01*
X159675537Y-90240829D01*
X159694063Y-90169285D01*
X159694975Y-90151291D01*
X159696873Y-90136385D01*
X159700500Y-90118741D01*
X159700500Y-90044866D01*
X159700627Y-90039852D01*
X159704369Y-89966064D01*
X159701642Y-89948264D01*
X159700500Y-89933271D01*
X159700500Y-89681095D01*
X159718559Y-89624090D01*
X159766148Y-89587882D01*
X159825905Y-89585681D01*
X159876026Y-89618289D01*
X159892602Y-89638486D01*
X160345605Y-90091489D01*
X160377401Y-90118741D01*
X160404507Y-90141974D01*
X160470446Y-90182854D01*
X160496753Y-90196488D01*
X160496755Y-90196489D01*
X160547111Y-90216354D01*
X160576528Y-90227959D01*
X160592904Y-90234419D01*
X160694759Y-90251999D01*
X160694760Y-90251998D01*
X160694761Y-90251999D01*
X160722795Y-90251048D01*
X160798060Y-90248495D01*
X160827424Y-90244467D01*
X160927858Y-90220023D01*
X160965934Y-90201930D01*
X161013818Y-90192496D01*
X161060392Y-90207087D01*
X161201303Y-90294003D01*
X161362292Y-90347349D01*
X161461655Y-90357500D01*
X162008344Y-90357499D01*
X162107708Y-90347349D01*
X162268697Y-90294003D01*
X162413044Y-90204968D01*
X162440351Y-90177660D01*
X162484728Y-90152039D01*
X162535975Y-90152038D01*
X162580357Y-90177661D01*
X162607268Y-90204572D01*
X162751518Y-90293547D01*
X162912395Y-90346856D01*
X163011682Y-90357000D01*
X163034999Y-90357000D01*
X163035000Y-90356999D01*
X163035000Y-90356998D01*
X163535000Y-90356998D01*
X163535001Y-90356999D01*
X163558319Y-90356999D01*
X163657603Y-90346857D01*
X163818481Y-90293547D01*
X163962731Y-90204572D01*
X164082572Y-90084731D01*
X164171547Y-89940481D01*
X164224856Y-89779604D01*
X164235000Y-89680318D01*
X164235000Y-89632001D01*
X164234999Y-89632000D01*
X163535001Y-89632000D01*
X163535000Y-89632001D01*
X163535000Y-90356998D01*
X163035000Y-90356998D01*
X163035000Y-89231000D01*
X163048263Y-89181500D01*
X163084500Y-89145263D01*
X163134000Y-89132000D01*
X164234998Y-89132000D01*
X164234999Y-89131999D01*
X164234999Y-89083681D01*
X164224857Y-88984396D01*
X164171546Y-88823514D01*
X164145652Y-88781534D01*
X164131140Y-88722846D01*
X164153461Y-88666663D01*
X164204290Y-88633934D01*
X164243494Y-88623429D01*
X164457576Y-88523601D01*
X164651074Y-88388112D01*
X164818112Y-88221074D01*
X164953601Y-88027576D01*
X165053429Y-87813495D01*
X165110636Y-87600000D01*
X163629000Y-87600000D01*
X163579500Y-87586737D01*
X163543263Y-87550500D01*
X163530000Y-87501000D01*
X163530000Y-86019364D01*
X164030000Y-86019364D01*
X164030000Y-87099999D01*
X164030001Y-87100000D01*
X165110636Y-87100000D01*
X165053429Y-86886505D01*
X164953601Y-86672424D01*
X164818112Y-86478925D01*
X164651074Y-86311887D01*
X164457576Y-86176398D01*
X164243495Y-86076570D01*
X164030000Y-86019364D01*
X163530000Y-86019364D01*
X163316505Y-86076570D01*
X163102424Y-86176398D01*
X162908925Y-86311887D01*
X162886862Y-86333951D01*
X162836172Y-86361045D01*
X162778972Y-86355411D01*
X162734543Y-86318948D01*
X162717858Y-86263947D01*
X162717858Y-85167651D01*
X162708146Y-85069036D01*
X162679376Y-84974199D01*
X162665026Y-84939556D01*
X162618313Y-84852164D01*
X162555448Y-84775564D01*
X162543413Y-84763529D01*
X162515861Y-84710364D01*
X162524001Y-84651037D01*
X162564858Y-84607256D01*
X162623481Y-84595041D01*
X162672018Y-84600000D01*
X163021999Y-84600000D01*
X163022000Y-84599999D01*
X163022000Y-84599998D01*
X163522000Y-84599998D01*
X163522001Y-84599999D01*
X163871973Y-84599999D01*
X163974696Y-84589505D01*
X164141122Y-84534357D01*
X164290341Y-84442318D01*
X164414318Y-84318341D01*
X164506357Y-84169121D01*
X164561506Y-84002694D01*
X164572000Y-83899982D01*
X164572000Y-83050001D01*
X164571999Y-83050000D01*
X163522001Y-83050000D01*
X163522000Y-83050001D01*
X163522000Y-84599998D01*
X163022000Y-84599998D01*
X163022000Y-83050001D01*
X163021999Y-83050000D01*
X161972002Y-83050000D01*
X161972001Y-83050001D01*
X161972001Y-83899973D01*
X161976960Y-83948520D01*
X161964743Y-84007143D01*
X161920962Y-84047998D01*
X161861635Y-84056138D01*
X161808468Y-84028584D01*
X161393496Y-83613612D01*
X161372036Y-83581494D01*
X161364500Y-83543608D01*
X161364500Y-81885392D01*
X161372036Y-81847506D01*
X161393496Y-81815389D01*
X161870944Y-81337939D01*
X161916439Y-81312024D01*
X161968789Y-81312937D01*
X162013352Y-81340424D01*
X162037663Y-81386795D01*
X162034923Y-81439082D01*
X161982493Y-81597305D01*
X161972000Y-81700018D01*
X161972000Y-82549999D01*
X161972001Y-82550000D01*
X164571998Y-82550000D01*
X164571999Y-82549999D01*
X164571999Y-81700027D01*
X164561505Y-81597303D01*
X164506357Y-81430877D01*
X164408242Y-81271807D01*
X164411447Y-81269830D01*
X164393770Y-81235959D01*
X164401328Y-81177102D01*
X164441185Y-81133141D01*
X164499019Y-81119868D01*
X164557687Y-81124500D01*
X166017000Y-81124500D01*
X166017003Y-81124500D01*
X166115617Y-81114788D01*
X166130408Y-81110301D01*
X166210450Y-81086020D01*
X166245098Y-81071668D01*
X166359378Y-81005687D01*
X166452687Y-80912378D01*
X166518668Y-80798098D01*
X166533020Y-80763450D01*
X166561787Y-80668620D01*
X166561786Y-80668620D01*
X166561788Y-80668617D01*
X166571500Y-80570003D01*
X166571500Y-76575293D01*
X166561788Y-76476678D01*
X166536790Y-76394274D01*
X166533020Y-76381846D01*
X166518668Y-76347198D01*
X166471955Y-76259806D01*
X166409090Y-76183206D01*
X166310794Y-76084910D01*
X166234194Y-76022045D01*
X166193885Y-76000499D01*
X166146801Y-75975331D01*
X166112158Y-75960981D01*
X166017321Y-75932211D01*
X165918707Y-75922500D01*
X165918704Y-75922500D01*
X164631195Y-75922500D01*
X164583199Y-75910087D01*
X164547238Y-75875962D01*
X164532331Y-75828681D01*
X164542214Y-75780101D01*
X164574411Y-75742404D01*
X164576786Y-75740741D01*
X164651401Y-75688495D01*
X164818495Y-75521401D01*
X164954035Y-75327830D01*
X165053903Y-75113663D01*
X165115063Y-74885408D01*
X165135659Y-74650000D01*
X165115063Y-74414592D01*
X165053903Y-74186337D01*
X165052838Y-74184054D01*
X164954036Y-73972173D01*
X164932979Y-73942101D01*
X164818495Y-73778599D01*
X164651401Y-73611505D01*
X164627515Y-73594780D01*
X164596486Y-73559399D01*
X164585300Y-73513685D01*
X164585300Y-72522458D01*
X164592836Y-72484572D01*
X164604690Y-72466830D01*
X164604253Y-72466566D01*
X164610472Y-72456279D01*
X164698478Y-72310700D01*
X164749086Y-72148290D01*
X164755500Y-72077710D01*
X164755500Y-71564478D01*
X164749086Y-71493898D01*
X164718110Y-71394490D01*
X164698479Y-71331490D01*
X164698478Y-71331488D01*
X164610472Y-71185909D01*
X164490658Y-71066095D01*
X164465037Y-71021717D01*
X164465037Y-70970471D01*
X164490658Y-70926092D01*
X164610472Y-70806279D01*
X164698478Y-70660700D01*
X164749086Y-70498290D01*
X164755500Y-70427710D01*
X164755500Y-69914478D01*
X164749086Y-69843898D01*
X164745160Y-69831298D01*
X164698479Y-69681490D01*
X164698478Y-69681488D01*
X164610472Y-69535909D01*
X164490185Y-69415622D01*
X164486344Y-69413300D01*
X164433371Y-69381276D01*
X164401722Y-69350723D01*
X164386435Y-69309476D01*
X164382947Y-69282981D01*
X164382945Y-69282965D01*
X164382100Y-69276546D01*
X164382100Y-69276540D01*
X164366602Y-69158820D01*
X164305933Y-69012353D01*
X164245759Y-68933933D01*
X164233651Y-68918153D01*
X164233650Y-68918152D01*
X164229700Y-68913004D01*
X164229699Y-68913004D01*
X164229697Y-68913001D01*
X164209422Y-68886578D01*
X164182992Y-68866297D01*
X164173265Y-68857767D01*
X163882631Y-68567133D01*
X163874093Y-68557396D01*
X163853822Y-68530978D01*
X163822248Y-68506750D01*
X163822250Y-68506751D01*
X163728047Y-68434467D01*
X163581579Y-68373797D01*
X163457432Y-68357453D01*
X163457421Y-68357453D01*
X163424400Y-68353105D01*
X163391379Y-68357453D01*
X163378458Y-68358300D01*
X160322616Y-68358300D01*
X160284730Y-68350764D01*
X160252612Y-68329304D01*
X157902841Y-65979533D01*
X157894303Y-65969796D01*
X157874032Y-65943378D01*
X157842458Y-65919150D01*
X157842460Y-65919151D01*
X157748257Y-65846867D01*
X157601789Y-65786197D01*
X157590450Y-65784705D01*
X157590449Y-65784704D01*
X157590449Y-65784705D01*
X157477642Y-65769853D01*
X157477631Y-65769853D01*
X157444608Y-65765505D01*
X157442571Y-65765774D01*
X157431912Y-65763834D01*
X157431689Y-65763805D01*
X157431690Y-65763793D01*
X157382981Y-65754930D01*
X157340860Y-65711407D01*
X157331973Y-65651494D01*
X157359647Y-65597618D01*
X157437019Y-65520246D01*
X157457266Y-65499999D01*
X159494390Y-65499999D01*
X159514803Y-65785425D01*
X159575632Y-66065049D01*
X159675632Y-66333160D01*
X159675633Y-66333161D01*
X159812774Y-66584315D01*
X159984261Y-66813395D01*
X160186605Y-67015739D01*
X160415685Y-67187226D01*
X160666839Y-67324367D01*
X160934954Y-67424369D01*
X161214572Y-67485196D01*
X161428552Y-67500500D01*
X161571446Y-67500500D01*
X161571448Y-67500500D01*
X161785428Y-67485196D01*
X162065046Y-67424369D01*
X162333161Y-67324367D01*
X162584315Y-67187226D01*
X162813395Y-67015739D01*
X163015739Y-66813395D01*
X163187226Y-66584315D01*
X163324367Y-66333161D01*
X163424369Y-66065046D01*
X163485196Y-65785428D01*
X163505610Y-65500000D01*
X163485196Y-65214572D01*
X163424369Y-64934954D01*
X163324367Y-64666839D01*
X163187226Y-64415685D01*
X163015739Y-64186605D01*
X162813395Y-63984261D01*
X162584315Y-63812774D01*
X162565685Y-63802601D01*
X162333160Y-63675632D01*
X162065049Y-63575632D01*
X162065048Y-63575631D01*
X162065046Y-63575631D01*
X161934024Y-63547129D01*
X161785426Y-63514803D01*
X161602053Y-63501688D01*
X161571448Y-63499500D01*
X161428552Y-63499500D01*
X161399988Y-63501542D01*
X161214573Y-63514803D01*
X161014159Y-63558401D01*
X160934954Y-63575631D01*
X160934953Y-63575631D01*
X160934950Y-63575632D01*
X160666839Y-63675632D01*
X160415689Y-63812771D01*
X160186605Y-63984261D01*
X159984261Y-64186605D01*
X159812771Y-64415689D01*
X159675632Y-64666839D01*
X159579737Y-64923945D01*
X159575631Y-64934954D01*
X159566891Y-64975130D01*
X159514803Y-65214574D01*
X159494390Y-65499999D01*
X157457266Y-65499999D01*
X157520722Y-65436542D01*
X157520727Y-65436539D01*
X157528872Y-65428393D01*
X157528874Y-65428393D01*
X157657193Y-65300074D01*
X157678455Y-65266233D01*
X157684868Y-65257196D01*
X157709782Y-65225957D01*
X157727119Y-65189954D01*
X157732479Y-65180255D01*
X157753742Y-65146418D01*
X157766940Y-65108695D01*
X157771181Y-65098459D01*
X157788520Y-65062457D01*
X157797412Y-65023494D01*
X157800479Y-65012847D01*
X157813678Y-64975130D01*
X157818151Y-64935420D01*
X157820007Y-64924501D01*
X157828901Y-64885535D01*
X157828901Y-64704065D01*
X157828901Y-64691882D01*
X157828900Y-64691874D01*
X157828900Y-61300466D01*
X157828900Y-61300464D01*
X157820007Y-61261505D01*
X157818150Y-61250570D01*
X157813678Y-61210870D01*
X157800480Y-61173153D01*
X157797410Y-61162494D01*
X157792160Y-61139491D01*
X157788520Y-61123543D01*
X157771180Y-61087537D01*
X157766941Y-61077306D01*
X157753742Y-61039582D01*
X157732479Y-61005743D01*
X157727115Y-60996036D01*
X157709782Y-60960042D01*
X157684870Y-60928805D01*
X157678454Y-60919764D01*
X157657193Y-60885926D01*
X157614707Y-60843440D01*
X157528876Y-60757608D01*
X157528873Y-60757606D01*
X157211355Y-60440089D01*
X157211351Y-60440083D01*
X157071673Y-60300406D01*
X157037846Y-60279151D01*
X157028792Y-60272727D01*
X156997556Y-60247817D01*
X156975355Y-60237125D01*
X156961562Y-60230483D01*
X156951851Y-60225116D01*
X156918019Y-60203858D01*
X156880313Y-60190664D01*
X156870058Y-60186416D01*
X156834058Y-60169080D01*
X156795104Y-60160189D01*
X156784437Y-60157116D01*
X156746728Y-60143921D01*
X156707031Y-60139448D01*
X156696091Y-60137589D01*
X156657137Y-60128699D01*
X156657135Y-60128699D01*
X156475665Y-60128699D01*
X156463482Y-60128699D01*
X156463474Y-60128700D01*
X139334335Y-60128700D01*
X139152865Y-60128700D01*
X139141023Y-60131402D01*
X139113920Y-60137588D01*
X139102980Y-60139446D01*
X139063269Y-60143921D01*
X139025555Y-60157117D01*
X139014891Y-60160190D01*
X138975942Y-60169080D01*
X138939943Y-60186416D01*
X138929689Y-60190663D01*
X138891982Y-60203858D01*
X138891980Y-60203858D01*
X138891980Y-60203859D01*
X138858153Y-60225113D01*
X138848441Y-60230481D01*
X138812440Y-60247819D01*
X138781207Y-60272726D01*
X138772156Y-60279149D01*
X138738326Y-60300406D01*
X138269406Y-60769326D01*
X138248149Y-60803156D01*
X138241726Y-60812207D01*
X138216819Y-60843440D01*
X138199481Y-60879441D01*
X138194113Y-60889153D01*
X138172858Y-60922982D01*
X138161643Y-60955029D01*
X138159663Y-60960690D01*
X138155416Y-60970943D01*
X138138078Y-61006946D01*
X138129187Y-61045899D01*
X138126116Y-61056562D01*
X138112921Y-61094273D01*
X138108448Y-61133969D01*
X138106589Y-61144909D01*
X138097699Y-61183863D01*
X138097699Y-61377518D01*
X138097700Y-61377526D01*
X138097700Y-61550685D01*
X138086514Y-61596399D01*
X138055484Y-61631780D01*
X138041103Y-61641849D01*
X138031597Y-61648506D01*
X137876589Y-61803514D01*
X137828492Y-61830056D01*
X137773649Y-61826870D01*
X137728948Y-61794937D01*
X137708153Y-61744090D01*
X137706598Y-61729622D01*
X137656353Y-61594910D01*
X137570188Y-61479811D01*
X137455089Y-61393646D01*
X137320376Y-61343401D01*
X137260826Y-61337000D01*
X136613001Y-61337000D01*
X136613000Y-61337001D01*
X136613000Y-64036999D01*
X136613001Y-64037000D01*
X137260826Y-64037000D01*
X137320376Y-64030598D01*
X137455089Y-63980353D01*
X137570188Y-63894188D01*
X137656353Y-63779089D01*
X137706597Y-63644377D01*
X137708153Y-63629909D01*
X137728948Y-63579062D01*
X137773649Y-63547129D01*
X137828492Y-63543943D01*
X137876587Y-63570483D01*
X138031599Y-63725495D01*
X138225170Y-63861035D01*
X138225171Y-63861035D01*
X138225172Y-63861036D01*
X138439332Y-63960901D01*
X138439333Y-63960901D01*
X138439337Y-63960903D01*
X138667592Y-64022063D01*
X138903000Y-64042659D01*
X139138408Y-64022063D01*
X139366663Y-63960903D01*
X139580830Y-63861035D01*
X139774401Y-63725495D01*
X139941495Y-63558401D01*
X140077035Y-63364830D01*
X140083276Y-63351445D01*
X140119807Y-63309790D01*
X140173000Y-63294286D01*
X140226193Y-63309790D01*
X140262723Y-63351445D01*
X140268964Y-63364827D01*
X140268966Y-63364832D01*
X140358192Y-63492259D01*
X140404505Y-63558401D01*
X140571599Y-63725495D01*
X140765170Y-63861035D01*
X140765171Y-63861035D01*
X140765172Y-63861036D01*
X140979332Y-63960901D01*
X140979333Y-63960901D01*
X140979337Y-63960903D01*
X141207592Y-64022063D01*
X141443000Y-64042659D01*
X141678408Y-64022063D01*
X141906663Y-63960903D01*
X142120830Y-63861035D01*
X142314401Y-63725495D01*
X142481495Y-63558401D01*
X142617035Y-63364830D01*
X142716903Y-63150663D01*
X142778063Y-62922408D01*
X142798659Y-62687000D01*
X142778063Y-62451592D01*
X142716903Y-62223337D01*
X142634933Y-62047554D01*
X142617036Y-62009173D01*
X142537151Y-61895084D01*
X142519459Y-61844775D01*
X142530433Y-61792587D01*
X142566889Y-61753664D01*
X142618247Y-61739300D01*
X146112258Y-61739300D01*
X146163616Y-61753664D01*
X146200072Y-61792587D01*
X146211046Y-61844775D01*
X146193354Y-61895084D01*
X146095963Y-62034173D01*
X145996098Y-62248332D01*
X145934936Y-62476594D01*
X145914340Y-62711999D01*
X145934937Y-62947409D01*
X145945503Y-62986845D01*
X145946875Y-63032269D01*
X145927809Y-63073519D01*
X145901363Y-63107275D01*
X145896231Y-63118679D01*
X145887432Y-63134280D01*
X145880330Y-63144569D01*
X145858626Y-63201795D01*
X145856339Y-63207315D01*
X145831229Y-63263111D01*
X145828976Y-63275403D01*
X145824167Y-63292655D01*
X145819730Y-63304355D01*
X145812352Y-63365112D01*
X145811453Y-63371020D01*
X145800425Y-63431201D01*
X145804119Y-63492259D01*
X145804300Y-63498236D01*
X145804300Y-64601700D01*
X145791037Y-64651200D01*
X145754800Y-64687437D01*
X145705300Y-64700700D01*
X135661036Y-64700700D01*
X135655059Y-64700519D01*
X135594001Y-64696825D01*
X135533815Y-64707854D01*
X135527906Y-64708753D01*
X135467155Y-64716130D01*
X135455461Y-64720565D01*
X135438208Y-64725375D01*
X135425911Y-64727628D01*
X135370113Y-64752741D01*
X135364590Y-64755028D01*
X135307371Y-64776728D01*
X135297078Y-64783833D01*
X135281483Y-64792629D01*
X135270076Y-64797763D01*
X135221900Y-64835506D01*
X135217086Y-64839049D01*
X135166732Y-64873806D01*
X135126168Y-64919592D01*
X135122071Y-64923945D01*
X134126868Y-65919149D01*
X131308505Y-68737512D01*
X131308506Y-68737512D01*
X130745114Y-69300904D01*
X130712996Y-69322364D01*
X130675110Y-69329900D01*
X130614554Y-69329900D01*
X130521975Y-69349578D01*
X130429395Y-69369256D01*
X130256471Y-69446248D01*
X130103326Y-69557513D01*
X129976668Y-69698181D01*
X129882021Y-69862115D01*
X129823526Y-70042144D01*
X129812075Y-70151100D01*
X129803740Y-70230400D01*
X129823526Y-70418656D01*
X129847232Y-70491616D01*
X129882021Y-70598684D01*
X129976668Y-70762618D01*
X130103326Y-70903286D01*
X130103329Y-70903288D01*
X130256470Y-71014551D01*
X130429397Y-71091544D01*
X130614554Y-71130900D01*
X130803844Y-71130900D01*
X130803846Y-71130900D01*
X130989003Y-71091544D01*
X130994634Y-71089036D01*
X131042667Y-71080783D01*
X131088819Y-71096450D01*
X131121903Y-71132239D01*
X131133900Y-71179478D01*
X131133900Y-71997602D01*
X131120637Y-72047102D01*
X131084400Y-72083339D01*
X131040888Y-72094997D01*
X131041000Y-72096035D01*
X130996579Y-72100809D01*
X130975419Y-72100809D01*
X130942427Y-72097262D01*
X130936271Y-72096601D01*
X130535727Y-72096601D01*
X130476114Y-72103010D01*
X130341268Y-72153304D01*
X130226053Y-72239555D01*
X130139802Y-72354770D01*
X130093254Y-72479575D01*
X130089508Y-72489618D01*
X130085213Y-72529566D01*
X130083099Y-72549231D01*
X130083099Y-73838772D01*
X130089508Y-73898385D01*
X130102457Y-73933104D01*
X130106437Y-73988744D01*
X130079703Y-74037703D01*
X130030744Y-74064437D01*
X129975104Y-74060459D01*
X129940383Y-74047509D01*
X129940374Y-74047508D01*
X129880773Y-74041100D01*
X129880769Y-74041100D01*
X129880738Y-74041100D01*
X129124299Y-74041100D01*
X129074800Y-74027838D01*
X129038564Y-73991601D01*
X129025300Y-73942101D01*
X129025300Y-71943858D01*
X129043559Y-71886570D01*
X129091602Y-71850414D01*
X129107100Y-71844990D01*
X129179122Y-71819789D01*
X129331862Y-71723816D01*
X129459416Y-71596262D01*
X129555389Y-71443522D01*
X129614968Y-71273255D01*
X129635165Y-71094000D01*
X129614968Y-70914745D01*
X129610958Y-70903286D01*
X129571152Y-70789526D01*
X129555389Y-70744478D01*
X129459416Y-70591738D01*
X129331862Y-70464184D01*
X129179122Y-70368211D01*
X129171415Y-70365514D01*
X129008858Y-70308632D01*
X128829600Y-70288435D01*
X128650341Y-70308632D01*
X128480080Y-70368210D01*
X128327339Y-70464183D01*
X128199783Y-70591739D01*
X128194268Y-70600516D01*
X128116298Y-70724606D01*
X128103810Y-70744480D01*
X128044232Y-70914741D01*
X128040275Y-70949864D01*
X128035700Y-70990472D01*
X128034451Y-71001554D01*
X128022270Y-71039164D01*
X127996344Y-71069009D01*
X127993779Y-71070977D01*
X127967608Y-71105081D01*
X127967555Y-71105150D01*
X127919485Y-71167798D01*
X127897267Y-71196752D01*
X127836597Y-71343220D01*
X127820253Y-71467373D01*
X127820253Y-71467379D01*
X127815905Y-71500400D01*
X127820253Y-71533421D01*
X127821100Y-71546342D01*
X127821100Y-72400059D01*
X127810056Y-72445499D01*
X127779387Y-72480800D01*
X127735937Y-72498087D01*
X127689400Y-72493502D01*
X127688058Y-72493032D01*
X127508800Y-72472835D01*
X127329541Y-72493032D01*
X127159280Y-72552610D01*
X127159278Y-72552610D01*
X127159278Y-72552611D01*
X127127870Y-72572346D01*
X127006539Y-72648583D01*
X126878981Y-72776141D01*
X126798388Y-72904404D01*
X126760822Y-72939260D01*
X126710861Y-72950663D01*
X126661892Y-72935558D01*
X126651261Y-72928878D01*
X126537522Y-72857411D01*
X126529815Y-72854714D01*
X126367258Y-72797832D01*
X126188000Y-72777635D01*
X126008741Y-72797832D01*
X125838480Y-72857410D01*
X125685739Y-72953383D01*
X125685738Y-72953383D01*
X125685738Y-72953384D01*
X125558184Y-73080938D01*
X125482982Y-73200622D01*
X125462210Y-73233680D01*
X125402632Y-73403941D01*
X125382435Y-73583200D01*
X124800500Y-73583200D01*
X124800500Y-65499999D01*
X128494390Y-65499999D01*
X128514803Y-65785425D01*
X128575632Y-66065049D01*
X128675632Y-66333160D01*
X128675633Y-66333161D01*
X128812774Y-66584315D01*
X128984261Y-66813395D01*
X129186605Y-67015739D01*
X129415685Y-67187226D01*
X129666839Y-67324367D01*
X129934954Y-67424369D01*
X130214572Y-67485196D01*
X130428552Y-67500500D01*
X130571446Y-67500500D01*
X130571448Y-67500500D01*
X130785428Y-67485196D01*
X131065046Y-67424369D01*
X131333161Y-67324367D01*
X131584315Y-67187226D01*
X131813395Y-67015739D01*
X132015739Y-66813395D01*
X132187226Y-66584315D01*
X132324367Y-66333161D01*
X132424369Y-66065046D01*
X132485196Y-65785428D01*
X132505610Y-65500000D01*
X132485196Y-65214572D01*
X132424369Y-64934954D01*
X132324367Y-64666839D01*
X132187226Y-64415685D01*
X132015739Y-64186605D01*
X131813395Y-63984261D01*
X131584315Y-63812774D01*
X131565685Y-63802601D01*
X131333160Y-63675632D01*
X131089699Y-63584826D01*
X135013000Y-63584826D01*
X135019401Y-63644376D01*
X135069646Y-63779089D01*
X135155811Y-63894188D01*
X135270910Y-63980353D01*
X135405623Y-64030598D01*
X135465174Y-64037000D01*
X136112999Y-64037000D01*
X136113000Y-64036999D01*
X136113000Y-62937001D01*
X136112999Y-62937000D01*
X135013001Y-62937000D01*
X135013000Y-62937001D01*
X135013000Y-63584826D01*
X131089699Y-63584826D01*
X131065049Y-63575632D01*
X131065048Y-63575631D01*
X131065046Y-63575631D01*
X130934024Y-63547129D01*
X130785426Y-63514803D01*
X130602053Y-63501688D01*
X130571448Y-63499500D01*
X130428552Y-63499500D01*
X130399988Y-63501542D01*
X130214573Y-63514803D01*
X130014159Y-63558401D01*
X129934954Y-63575631D01*
X129934953Y-63575631D01*
X129934950Y-63575632D01*
X129666839Y-63675632D01*
X129415689Y-63812771D01*
X129186605Y-63984261D01*
X128984261Y-64186605D01*
X128812771Y-64415689D01*
X128675632Y-64666839D01*
X128579737Y-64923945D01*
X128575631Y-64934954D01*
X128566891Y-64975130D01*
X128514803Y-65214574D01*
X128494390Y-65499999D01*
X124800500Y-65499999D01*
X124800500Y-64441216D01*
X124808036Y-64403330D01*
X124829496Y-64371212D01*
X126763709Y-62436999D01*
X135013000Y-62436999D01*
X135013001Y-62437000D01*
X136112999Y-62437000D01*
X136113000Y-62436999D01*
X136113000Y-61337001D01*
X136112999Y-61337000D01*
X135465174Y-61337000D01*
X135405623Y-61343401D01*
X135270910Y-61393646D01*
X135155811Y-61479811D01*
X135069646Y-61594910D01*
X135019401Y-61729623D01*
X135013000Y-61789174D01*
X135013000Y-62436999D01*
X126763709Y-62436999D01*
X126985741Y-62214967D01*
X129304511Y-59896195D01*
X129336629Y-59874736D01*
X129374515Y-59867200D01*
X162621392Y-59867200D01*
X162659278Y-59874736D01*
G37*
%TD.AperFunction*%
%TD*%
M02*
