M48
; DRILL file {KiCad 7.0.1} date Mon Apr 15 22:24:16 2024
; FORMAT={-:-/ absolute / inch / decimal}
; #@! TF.CreationDate,2024-04-15T22:24:16+02:00
; #@! TF.GenerationSoftware,Kicad,Pcbnew,7.0.1
; #@! TF.FileFunction,Plated,1,2,PTH
FMAT,2
INCH
; #@! TA.AperFunction,Plated,PTH,ViaDrill
T1C0.0098
; #@! TA.AperFunction,Plated,PTH,ViaDrill
T2C0.0157
; #@! TA.AperFunction,Plated,PTH,ComponentDrill
T3C0.0394
; #@! TA.AperFunction,Plated,PTH,ComponentDrill
T4C0.0472
%
G90
G05
T1
X4.968Y-2.897
X4.97Y-2.989
X4.972Y-3.195
X4.974Y-3.259
X4.976Y-3.477
X4.9773Y-3.0722
X4.983Y-3.138
X5.02Y-2.885
X5.072Y-2.799
X5.314Y-3.061
X5.33Y-3.101
X5.378Y-2.779
X5.378Y-2.825
X5.536Y-3.907
X5.566Y-2.997
X5.784Y-3.163
X6.148Y-2.585
T2
X5.146Y-2.765
X5.252Y-3.439
X5.272Y-3.017
X5.496Y-2.757
X5.504Y-3.197
X5.568Y-3.075
X5.772Y-3.089
X5.784Y-3.313
T3
X5.358Y-3.649
X5.358Y-3.749
X5.358Y-3.849
X5.358Y-3.949
X5.3686Y-2.468
X5.4686Y-2.468
X5.5686Y-2.468
X5.748Y-2.939
X5.748Y-3.439
X5.798Y-2.469
X5.848Y-2.939
X5.848Y-3.439
X5.898Y-2.469
X5.948Y-2.939
X5.948Y-3.439
X5.998Y-2.469
X6.048Y-2.939
X6.048Y-3.439
X6.098Y-2.469
X6.147Y-3.6494
X6.147Y-3.7494
X6.147Y-3.8494
X6.147Y-3.9494
X6.148Y-2.939
X6.148Y-3.439
X6.248Y-2.939
X6.248Y-3.439
X6.348Y-2.939
X6.348Y-3.439
X6.448Y-2.939
X6.448Y-3.439
T4
X5.5118Y-3.8182
X5.6496Y-3.6213
X5.7874Y-3.8182
X5.9252Y-3.6213
T0
M30
