%TF.GenerationSoftware,KiCad,Pcbnew,7.0.1*%
%TF.CreationDate,2024-04-15T22:24:01+02:00*%
%TF.ProjectId,nema17_driver,6e656d61-3137-45f6-9472-697665722e6b,rev?*%
%TF.SameCoordinates,Original*%
%TF.FileFunction,Paste,Top*%
%TF.FilePolarity,Positive*%
%FSLAX46Y46*%
G04 Gerber Fmt 4.6, Leading zero omitted, Abs format (unit mm)*
G04 Created by KiCad (PCBNEW 7.0.1) date 2024-04-15 22:24:01*
%MOMM*%
%LPD*%
G01*
G04 APERTURE LIST*
G04 Aperture macros list*
%AMRoundRect*
0 Rectangle with rounded corners*
0 $1 Rounding radius*
0 $2 $3 $4 $5 $6 $7 $8 $9 X,Y pos of 4 corners*
0 Add a 4 corners polygon primitive as box body*
4,1,4,$2,$3,$4,$5,$6,$7,$8,$9,$2,$3,0*
0 Add four circle primitives for the rounded corners*
1,1,$1+$1,$2,$3*
1,1,$1+$1,$4,$5*
1,1,$1+$1,$6,$7*
1,1,$1+$1,$8,$9*
0 Add four rect primitives between the rounded corners*
20,1,$1+$1,$2,$3,$4,$5,0*
20,1,$1+$1,$4,$5,$6,$7,0*
20,1,$1+$1,$6,$7,$8,$9,0*
20,1,$1+$1,$8,$9,$2,$3,0*%
G04 Aperture macros list end*
%ADD10R,0.304800X1.193800*%
%ADD11R,1.193800X0.304800*%
%ADD12RoundRect,0.250000X0.312500X0.625000X-0.312500X0.625000X-0.312500X-0.625000X0.312500X-0.625000X0*%
%ADD13RoundRect,0.200000X-0.200000X-0.275000X0.200000X-0.275000X0.200000X0.275000X-0.200000X0.275000X0*%
%ADD14RoundRect,0.200000X0.275000X-0.200000X0.275000X0.200000X-0.275000X0.200000X-0.275000X-0.200000X0*%
%ADD15RoundRect,0.225000X0.250000X-0.225000X0.250000X0.225000X-0.250000X0.225000X-0.250000X-0.225000X0*%
%ADD16RoundRect,0.200000X-0.275000X0.200000X-0.275000X-0.200000X0.275000X-0.200000X0.275000X0.200000X0*%
%ADD17R,2.000000X1.500000*%
%ADD18R,2.000000X3.800000*%
%ADD19RoundRect,0.225000X-0.225000X-0.250000X0.225000X-0.250000X0.225000X0.250000X-0.225000X0.250000X0*%
%ADD20RoundRect,0.150000X-0.150000X0.825000X-0.150000X-0.825000X0.150000X-0.825000X0.150000X0.825000X0*%
%ADD21RoundRect,0.150000X0.725000X0.150000X-0.725000X0.150000X-0.725000X-0.150000X0.725000X-0.150000X0*%
%ADD22RoundRect,0.225000X-0.250000X0.225000X-0.250000X-0.225000X0.250000X-0.225000X0.250000X0.225000X0*%
%ADD23RoundRect,0.250000X-0.550000X1.050000X-0.550000X-1.050000X0.550000X-1.050000X0.550000X1.050000X0*%
%ADD24RoundRect,0.250000X1.500000X0.550000X-1.500000X0.550000X-1.500000X-0.550000X1.500000X-0.550000X0*%
G04 APERTURE END LIST*
D10*
%TO.C,U3*%
X136235999Y-81693999D03*
X135736000Y-81693999D03*
X135235998Y-81693999D03*
X134735999Y-81693999D03*
X134236000Y-81693999D03*
X133735999Y-81693999D03*
X133235999Y-81693999D03*
X132735998Y-81693999D03*
X132235999Y-81693999D03*
X131736000Y-81693999D03*
X131235998Y-81693999D03*
X130735999Y-81693999D03*
D11*
X129236000Y-80194000D03*
X129236000Y-79694001D03*
X129236000Y-79193999D03*
X129236000Y-78694000D03*
X129236000Y-78194001D03*
X129236000Y-77694000D03*
X129236000Y-77194000D03*
X129236000Y-76693999D03*
X129236000Y-76194000D03*
X129236000Y-75694001D03*
X129236000Y-75193999D03*
X129236000Y-74694000D03*
D10*
X130735999Y-73194001D03*
X131235998Y-73194001D03*
X131736000Y-73194001D03*
X132235999Y-73194001D03*
X132735998Y-73194001D03*
X133235999Y-73194001D03*
X133735999Y-73194001D03*
X134236000Y-73194001D03*
X134735999Y-73194001D03*
X135235998Y-73194001D03*
X135736000Y-73194001D03*
X136235999Y-73194001D03*
D11*
X137735998Y-74694000D03*
X137735998Y-75193999D03*
X137735998Y-75694001D03*
X137735998Y-76194000D03*
X137735998Y-76693999D03*
X137735998Y-77194000D03*
X137735998Y-77694000D03*
X137735998Y-78194001D03*
X137735998Y-78694000D03*
X137735998Y-79193999D03*
X137735998Y-79694001D03*
X137735998Y-80194000D03*
%TD*%
D12*
%TO.C,R1*%
X141620500Y-100304000D03*
X138695500Y-100304000D03*
%TD*%
D13*
%TO.C,R6*%
X147562600Y-65404400D03*
X149212600Y-65404400D03*
%TD*%
D14*
%TO.C,R9*%
X158760000Y-71821094D03*
X158760000Y-70171094D03*
%TD*%
D15*
%TO.C,C10*%
X133046000Y-90906000D03*
X133046000Y-89356000D03*
%TD*%
D16*
%TO.C,R2*%
X143460000Y-70235000D03*
X143460000Y-71885000D03*
%TD*%
D14*
%TO.C,R14*%
X146000000Y-71884094D03*
X146000000Y-70234094D03*
%TD*%
D17*
%TO.C,VREG1*%
X152502000Y-78446000D03*
X152502000Y-80746000D03*
D18*
X158802000Y-80746000D03*
D17*
X152502000Y-83046000D03*
%TD*%
D19*
%TO.C,C5*%
X144450000Y-84556000D03*
X146000000Y-84556000D03*
%TD*%
D14*
%TO.C,R8*%
X161270000Y-71821094D03*
X161270000Y-70171094D03*
%TD*%
D13*
%TO.C,R5*%
X152795000Y-65404400D03*
X154445000Y-65404400D03*
%TD*%
D20*
%TO.C,U2*%
X131191800Y-85129000D03*
X129921800Y-85129000D03*
X128651800Y-85129000D03*
X127381800Y-85129000D03*
X127381800Y-90079000D03*
X128651800Y-90079000D03*
X129921800Y-90079000D03*
X131191800Y-90079000D03*
%TD*%
D14*
%TO.C,R12*%
X151020000Y-71884094D03*
X151020000Y-70234094D03*
%TD*%
%TO.C,R7*%
X163780000Y-71821094D03*
X163780000Y-70171094D03*
%TD*%
D21*
%TO.C,U1*%
X148575000Y-82905000D03*
X148575000Y-81635000D03*
X148575000Y-80365000D03*
X148575000Y-79095000D03*
X143425000Y-79095000D03*
X143425000Y-80365000D03*
X143425000Y-81635000D03*
X143425000Y-82905000D03*
%TD*%
D16*
%TO.C,R4*%
X138380000Y-70194392D03*
X138380000Y-71844392D03*
%TD*%
D19*
%TO.C,C4*%
X145860000Y-89382000D03*
X147410000Y-89382000D03*
%TD*%
D22*
%TO.C,C9*%
X139835999Y-75158000D03*
X139835999Y-76708000D03*
%TD*%
D23*
%TO.C,C2*%
X163272000Y-79200000D03*
X163272000Y-82800000D03*
%TD*%
D16*
%TO.C,R3*%
X140994702Y-70235000D03*
X140994702Y-71885000D03*
%TD*%
D19*
%TO.C,C3*%
X161735000Y-89382000D03*
X163285000Y-89382000D03*
%TD*%
D14*
%TO.C,R10*%
X156160000Y-71884094D03*
X156160000Y-70234094D03*
%TD*%
D24*
%TO.C,C1*%
X136442000Y-87350000D03*
X141842000Y-87350000D03*
%TD*%
D15*
%TO.C,C6*%
X139835999Y-79769000D03*
X139835999Y-78219000D03*
%TD*%
D14*
%TO.C,R11*%
X153530000Y-71884094D03*
X153530000Y-70234094D03*
%TD*%
%TO.C,R13*%
X148510000Y-71884094D03*
X148510000Y-70234094D03*
%TD*%
M02*
