%TF.GenerationSoftware,KiCad,Pcbnew,7.0.1*%
%TF.CreationDate,2024-04-15T22:24:01+02:00*%
%TF.ProjectId,nema17_driver,6e656d61-3137-45f6-9472-697665722e6b,rev?*%
%TF.SameCoordinates,Original*%
%TF.FileFunction,Copper,L2,Bot*%
%TF.FilePolarity,Positive*%
%FSLAX46Y46*%
G04 Gerber Fmt 4.6, Leading zero omitted, Abs format (unit mm)*
G04 Created by KiCad (PCBNEW 7.0.1) date 2024-04-15 22:24:01*
%MOMM*%
%LPD*%
G01*
G04 APERTURE LIST*
G04 Aperture macros list*
%AMFreePoly0*
4,1,19,0.500000,-0.750000,0.000000,-0.750000,0.000000,-0.744911,-0.071157,-0.744911,-0.207708,-0.704816,-0.327430,-0.627875,-0.420627,-0.520320,-0.479746,-0.390866,-0.500000,-0.250000,-0.500000,0.250000,-0.479746,0.390866,-0.420627,0.520320,-0.327430,0.627875,-0.207708,0.704816,-0.071157,0.744911,0.000000,0.744911,0.000000,0.750000,0.500000,0.750000,0.500000,-0.750000,0.500000,-0.750000,
$1*%
%AMFreePoly1*
4,1,19,0.000000,0.744911,0.071157,0.744911,0.207708,0.704816,0.327430,0.627875,0.420627,0.520320,0.479746,0.390866,0.500000,0.250000,0.500000,-0.250000,0.479746,-0.390866,0.420627,-0.520320,0.327430,-0.627875,0.207708,-0.704816,0.071157,-0.744911,0.000000,-0.744911,0.000000,-0.750000,-0.500000,-0.750000,-0.500000,0.750000,0.000000,0.750000,0.000000,0.744911,0.000000,0.744911,
$1*%
G04 Aperture macros list end*
%TA.AperFunction,ComponentPad*%
%ADD10R,1.700000X1.700000*%
%TD*%
%TA.AperFunction,ComponentPad*%
%ADD11O,1.700000X1.700000*%
%TD*%
%TA.AperFunction,SMDPad,CuDef*%
%ADD12FreePoly0,180.000000*%
%TD*%
%TA.AperFunction,SMDPad,CuDef*%
%ADD13FreePoly1,180.000000*%
%TD*%
%TA.AperFunction,SMDPad,CuDef*%
%ADD14FreePoly0,270.000000*%
%TD*%
%TA.AperFunction,SMDPad,CuDef*%
%ADD15FreePoly1,270.000000*%
%TD*%
%TA.AperFunction,ComponentPad*%
%ADD16C,2.540000*%
%TD*%
%TA.AperFunction,ViaPad*%
%ADD17C,0.800000*%
%TD*%
%TA.AperFunction,ViaPad*%
%ADD18C,0.600000*%
%TD*%
%TA.AperFunction,Conductor*%
%ADD19C,0.406400*%
%TD*%
%TA.AperFunction,Conductor*%
%ADD20C,0.304800*%
%TD*%
%TA.AperFunction,Conductor*%
%ADD21C,0.609600*%
%TD*%
%TA.AperFunction,Conductor*%
%ADD22C,1.000000*%
%TD*%
G04 APERTURE END LIST*
D10*
%TO.P,X2,1,Pin_1*%
%TO.N,+12V*%
X156135000Y-92694000D03*
D11*
%TO.P,X2,2,Pin_2*%
%TO.N,GND*%
X156135000Y-95234000D03*
%TO.P,X2,3,Pin_3*%
%TO.N,Net-(U2-B)*%
X156135000Y-97774000D03*
%TO.P,X2,4,Pin_4*%
%TO.N,Net-(JP1-B)*%
X156135000Y-100314000D03*
%TD*%
D10*
%TO.P,X1,1,Pin_1*%
%TO.N,+12V*%
X136094000Y-92684000D03*
D11*
%TO.P,X1,2,Pin_2*%
%TO.N,GND*%
X136094000Y-95224000D03*
%TO.P,X1,3,Pin_3*%
%TO.N,Net-(U2-B)*%
X136094000Y-97764000D03*
%TO.P,X1,4,Pin_4*%
%TO.N,Net-(JP1-B)*%
X136094000Y-100304000D03*
%TD*%
D10*
%TO.P,X5,1,Pin_1*%
%TO.N,GND*%
X136363000Y-62687000D03*
D11*
%TO.P,X5,2,Pin_2*%
%TO.N,U2-TX-DCE*%
X138903000Y-62687000D03*
%TO.P,X5,3,Pin_3*%
%TO.N,U2-RX-DCE*%
X141443000Y-62687000D03*
%TD*%
D10*
%TO.P,X4,1,Pin_1*%
%TO.N,GND*%
X154890000Y-62712000D03*
D11*
%TO.P,X4,2,Pin_2*%
%TO.N,SWCLK*%
X152350000Y-62712000D03*
%TO.P,X4,3,Pin_3*%
%TO.N,SWDIO*%
X149810000Y-62712000D03*
%TO.P,X4,4,Pin_4*%
%TO.N,+3.3V*%
X147270000Y-62712000D03*
%TD*%
D12*
%TO.P,JP7,1,A*%
%TO.N,+3.3V*%
X132060000Y-79730000D03*
D13*
%TO.P,JP7,2,B*%
%TO.N,ADD3*%
X130760000Y-79730000D03*
%TD*%
D10*
%TO.P,POW1,1,Pin_1*%
%TO.N,~{EN}*%
X146000000Y-74650000D03*
D11*
%TO.P,POW1,2,Pin_2*%
%TO.N,MS1*%
X148540000Y-74650000D03*
%TO.P,POW1,3,Pin_3*%
%TO.N,MS2*%
X151080000Y-74650000D03*
%TO.P,POW1,4,Pin_4*%
%TO.N,MS3*%
X153620000Y-74650000D03*
%TO.P,POW1,5,Pin_5*%
%TO.N,USART-~{RST}*%
X156160000Y-74650000D03*
%TO.P,POW1,6,Pin_6*%
%TO.N,~{SLEEP}*%
X158700000Y-74650000D03*
%TO.P,POW1,7,Pin_7*%
%TO.N,STEP*%
X161240000Y-74650000D03*
%TO.P,POW1,8,Pin_8*%
%TO.N,DIR*%
X163780000Y-74650000D03*
%TD*%
D12*
%TO.P,JP5,1,A*%
%TO.N,+3.3V*%
X132060000Y-84810000D03*
D13*
%TO.P,JP5,2,B*%
%TO.N,ADD5*%
X130760000Y-84810000D03*
%TD*%
D14*
%TO.P,JP2,1,A*%
%TO.N,U2-TX-DCE*%
X156160000Y-69936000D03*
D15*
%TO.P,JP2,2,B*%
%TO.N,USART-~{RST}*%
X156160000Y-71236000D03*
%TD*%
D13*
%TO.P,JP1,2,B*%
%TO.N,Net-(JP1-B)*%
X135545600Y-87908800D03*
D12*
%TO.P,JP1,1,A*%
%TO.N,Net-(JP1-A)*%
X136845600Y-87908800D03*
%TD*%
%TO.P,JP6,1,A*%
%TO.N,+3.3V*%
X132060000Y-82270000D03*
D13*
%TO.P,JP6,2,B*%
%TO.N,ADD4*%
X130760000Y-82270000D03*
%TD*%
D12*
%TO.P,JP3,1,A*%
%TO.N,+3.3V*%
X132060000Y-89890000D03*
D13*
%TO.P,JP3,2,B*%
%TO.N,ADD7*%
X130760000Y-89890000D03*
%TD*%
D10*
%TO.P,POW2,1,Pin_1*%
%TO.N,+12V*%
X146000000Y-87350000D03*
D11*
%TO.P,POW2,2,Pin_2*%
%TO.N,GND*%
X148540000Y-87350000D03*
%TO.P,POW2,3,Pin_3*%
%TO.N,Net-(POW2-Pin_3)*%
X151080000Y-87350000D03*
%TO.P,POW2,4,Pin_4*%
%TO.N,Net-(POW2-Pin_4)*%
X153620000Y-87350000D03*
%TO.P,POW2,5,Pin_5*%
%TO.N,Net-(POW2-Pin_5)*%
X156160000Y-87350000D03*
%TO.P,POW2,6,Pin_6*%
%TO.N,Net-(POW2-Pin_6)*%
X158700000Y-87350000D03*
%TO.P,POW2,7,Pin_7*%
%TO.N,+3.3V*%
X161240000Y-87350000D03*
%TO.P,POW2,8,Pin_8*%
%TO.N,GND*%
X163780000Y-87350000D03*
%TD*%
D12*
%TO.P,JP10,1,A*%
%TO.N,+3.3V*%
X132060000Y-72110000D03*
D13*
%TO.P,JP10,2,B*%
%TO.N,ADD0*%
X130760000Y-72110000D03*
%TD*%
D12*
%TO.P,JP8,1,A*%
%TO.N,+3.3V*%
X132060000Y-77190000D03*
D13*
%TO.P,JP8,2,B*%
%TO.N,ADD2*%
X130760000Y-77190000D03*
%TD*%
D12*
%TO.P,JP9,1,A*%
%TO.N,+3.3V*%
X132060000Y-74650000D03*
D13*
%TO.P,JP9,2,B*%
%TO.N,ADD1*%
X130760000Y-74650000D03*
%TD*%
D12*
%TO.P,JP4,1,A*%
%TO.N,+3.3V*%
X132060000Y-87350000D03*
D13*
%TO.P,JP4,2,B*%
%TO.N,ADD6*%
X130760000Y-87350000D03*
%TD*%
D16*
%TO.P,X3,1,Pin_1*%
%TO.N,Net-(POW2-Pin_6)*%
X150500000Y-91982000D03*
%TO.P,X3,2,Pin_2*%
%TO.N,Net-(POW2-Pin_5)*%
X147000000Y-96982000D03*
%TO.P,X3,3,Pin_3*%
%TO.N,Net-(POW2-Pin_4)*%
X143500000Y-91982000D03*
%TO.P,X3,4,Pin_4*%
%TO.N,Net-(POW2-Pin_3)*%
X140000000Y-96982000D03*
%TD*%
D17*
%TO.N,GND*%
X133909600Y-76631200D03*
D18*
%TO.N,U2-TX-DCE*%
X156160000Y-65658400D03*
D17*
%TO.N,+3.3V*%
X139599200Y-70027200D03*
%TO.N,GND*%
X141428000Y-78104400D03*
X146609600Y-78460000D03*
X146914400Y-84149600D03*
%TO.N,+3.3V*%
X139802400Y-81203200D03*
X133401600Y-87350000D03*
X130709200Y-70230400D03*
D18*
%TO.N,Net-(JP1-A)*%
X140615200Y-99237200D03*
%TO.N,Net-(JP1-B)*%
X126391200Y-88315200D03*
%TO.N,POS-AN*%
X146914400Y-80339600D03*
X141377200Y-76123200D03*
%TO.N,SWCLK*%
X135382800Y-78764800D03*
%TO.N,SWDIO*%
X134976400Y-77748800D03*
%TO.N,U2-TX-DCE*%
X136602000Y-71754400D03*
%TO.N,U2-RX-DCE*%
X136602000Y-70586000D03*
%TO.N,ADD7*%
X126340400Y-82778000D03*
%TO.N,ADD6*%
X126289600Y-81152400D03*
%TO.N,ADD5*%
X126569000Y-79704600D03*
%TO.N,ADD4*%
X126423358Y-78034958D03*
%TO.N,ADD3*%
X126238800Y-75920000D03*
%TO.N,ADD2*%
X126188000Y-73583200D03*
%TO.N,ADD1*%
X127508800Y-73278400D03*
%TO.N,ADD0*%
X128829600Y-71094000D03*
%TD*%
D19*
%TO.N,+3.3V*%
X142240800Y-70027200D02*
X147981200Y-64286800D01*
X147981200Y-64286800D02*
X147981200Y-63423200D01*
X147981200Y-63423200D02*
X147270000Y-62712000D01*
X139599200Y-70027200D02*
X142240800Y-70027200D01*
%TO.N,SWCLK*%
X152121400Y-62712000D02*
X152350000Y-62712000D01*
X136068600Y-78764800D02*
X152121400Y-62712000D01*
X135382800Y-78764800D02*
X136068600Y-78764800D01*
D20*
%TO.N,Net-(JP1-A)*%
X137618000Y-90855200D02*
X136845600Y-90082800D01*
X137618000Y-98424400D02*
X137618000Y-90855200D01*
X138430800Y-99237200D02*
X137618000Y-98424400D01*
X140615200Y-99237200D02*
X138430800Y-99237200D01*
X136845600Y-90082800D02*
X136845600Y-87908800D01*
D21*
%TO.N,ADD7*%
X127305600Y-86435600D02*
X130760000Y-89890000D01*
X127305600Y-83743200D02*
X127305600Y-86435600D01*
X126340400Y-82778000D02*
X127305600Y-83743200D01*
D22*
%TO.N,Net-(POW2-Pin_3)*%
X140000000Y-91572000D02*
X140000000Y-96982000D01*
X149200400Y-89636000D02*
X141936000Y-89636000D01*
X141936000Y-89636000D02*
X140000000Y-91572000D01*
X151080000Y-87350000D02*
X151080000Y-87756400D01*
X151080000Y-87756400D02*
X149200400Y-89636000D01*
%TO.N,Net-(POW2-Pin_5)*%
X156160000Y-87756400D02*
X156160000Y-87350000D01*
X153366000Y-90550400D02*
X156160000Y-87756400D01*
X153366000Y-94335000D02*
X153366000Y-90550400D01*
X150719000Y-96982000D02*
X153366000Y-94335000D01*
X147000000Y-96982000D02*
X150719000Y-96982000D01*
D20*
%TO.N,Net-(JP1-B)*%
X128321600Y-92125200D02*
X133554000Y-92125200D01*
X126391200Y-90194800D02*
X128321600Y-92125200D01*
X126391200Y-88315200D02*
X126391200Y-90194800D01*
X133554000Y-92125200D02*
X135545600Y-90133600D01*
X135545600Y-90133600D02*
X135545600Y-87908800D01*
D21*
%TO.N,ADD6*%
X128372400Y-85368800D02*
X130353600Y-87350000D01*
X128372400Y-83235200D02*
X128372400Y-85368800D01*
X126289600Y-81152400D02*
X128372400Y-83235200D01*
X130353600Y-87350000D02*
X130760000Y-87350000D01*
%TO.N,ADD5*%
X129896400Y-84810000D02*
X130760000Y-84810000D01*
X129388400Y-82524000D02*
X129388400Y-84302000D01*
X126569000Y-79704600D02*
X129388400Y-82524000D01*
X129388400Y-84302000D02*
X129896400Y-84810000D01*
%TO.N,ADD3*%
X130760000Y-79628400D02*
X130760000Y-79730000D01*
X126238800Y-75920000D02*
X127051600Y-75920000D01*
X127051600Y-75920000D02*
X130760000Y-79628400D01*
%TO.N,ADD1*%
X130658400Y-74751600D02*
X130760000Y-74650000D01*
X128982000Y-74751600D02*
X130658400Y-74751600D01*
X127508800Y-73278400D02*
X128982000Y-74751600D01*
%TO.N,U2-TX-DCE*%
X138903000Y-63306600D02*
X138903000Y-62687000D01*
X135433600Y-66776000D02*
X138903000Y-63306600D01*
X135433600Y-71449600D02*
X135433600Y-66776000D01*
X136602000Y-71754400D02*
X135738400Y-71754400D01*
X135738400Y-71754400D02*
X135433600Y-71449600D01*
%TO.N,U2-RX-DCE*%
X141249800Y-62687000D02*
X141443000Y-62687000D01*
X136602000Y-67334800D02*
X141249800Y-62687000D01*
X136602000Y-70586000D02*
X136602000Y-67334800D01*
D19*
%TO.N,SWDIO*%
X149810000Y-63728000D02*
X149810000Y-62712000D01*
X134976400Y-77748800D02*
X135789200Y-77748800D01*
X135789200Y-77748800D02*
X149810000Y-63728000D01*
D21*
%TO.N,U2-TX-DCE*%
X156160000Y-65658400D02*
X156160000Y-69936000D01*
%TO.N,POS-AN*%
X146152400Y-80339600D02*
X146914400Y-80339600D01*
X141936000Y-76123200D02*
X146152400Y-80339600D01*
X141377200Y-76123200D02*
X141936000Y-76123200D01*
D20*
%TO.N,Net-(U2-B)*%
X153913000Y-99996000D02*
X156135000Y-97774000D01*
X136094000Y-98170400D02*
X137919600Y-99996000D01*
X137919600Y-99996000D02*
X153913000Y-99996000D01*
X136094000Y-97764000D02*
X136094000Y-98170400D01*
D19*
%TO.N,+3.3V*%
X139802400Y-81050800D02*
X139802400Y-81203200D01*
X138481600Y-79730000D02*
X139091200Y-80339600D01*
X139091200Y-80339600D02*
X139802400Y-81050800D01*
X132060000Y-79730000D02*
X138481600Y-79730000D01*
X133401600Y-87350000D02*
X132060000Y-87350000D01*
X132060000Y-87350000D02*
X132060000Y-89890000D01*
X132060000Y-84810000D02*
X132060000Y-87350000D01*
X132060000Y-82270000D02*
X132060000Y-84810000D01*
X132060000Y-79730000D02*
X132060000Y-82270000D01*
X132060000Y-77190000D02*
X132060000Y-79730000D01*
X132060000Y-74650000D02*
X132060000Y-77190000D01*
X132060000Y-72110000D02*
X132060000Y-74650000D01*
X132030000Y-70789200D02*
X132030000Y-72080000D01*
X131471200Y-70230400D02*
X132030000Y-70789200D01*
X130709200Y-70230400D02*
X131471200Y-70230400D01*
X132030000Y-72080000D02*
X132060000Y-72110000D01*
D20*
%TO.N,Net-(JP1-B)*%
X155611200Y-100314000D02*
X156135000Y-100314000D01*
X137160800Y-100812000D02*
X155113200Y-100812000D01*
X155113200Y-100812000D02*
X155611200Y-100314000D01*
X136652800Y-100304000D02*
X137160800Y-100812000D01*
X136094000Y-100304000D02*
X136652800Y-100304000D01*
D21*
%TO.N,USART-~{RST}*%
X156160000Y-71236000D02*
X156160000Y-74650000D01*
%TO.N,ADD4*%
X130658400Y-82270000D02*
X130760000Y-82270000D01*
X126423358Y-78034958D02*
X130658400Y-82270000D01*
%TO.N,ADD2*%
X129794800Y-77190000D02*
X130760000Y-77190000D01*
X126188000Y-73583200D02*
X129794800Y-77190000D01*
%TO.N,ADD0*%
X128829600Y-71094000D02*
X129947200Y-72211600D01*
X129947200Y-72211600D02*
X130658400Y-72211600D01*
D19*
X130658400Y-72211600D02*
X130760000Y-72110000D01*
%TD*%
%TA.AperFunction,Conductor*%
%TO.N,GND*%
G36*
X162659278Y-59874736D02*
G01*
X162691396Y-59896196D01*
X167154604Y-64359404D01*
X167176064Y-64391522D01*
X167183600Y-64429408D01*
X167183600Y-97214992D01*
X167176064Y-97252878D01*
X167154604Y-97284996D01*
X162488196Y-101951404D01*
X162456078Y-101972864D01*
X162418192Y-101980400D01*
X129429408Y-101980400D01*
X129391522Y-101972864D01*
X129359404Y-101951404D01*
X124829496Y-97421496D01*
X124808036Y-97389378D01*
X124800500Y-97351492D01*
X124800500Y-96499999D01*
X128494390Y-96499999D01*
X128514803Y-96785425D01*
X128538118Y-96892602D01*
X128557565Y-96982000D01*
X128575632Y-97065049D01*
X128675632Y-97333160D01*
X128769642Y-97505325D01*
X128812774Y-97584315D01*
X128984261Y-97813395D01*
X129186605Y-98015739D01*
X129415685Y-98187226D01*
X129666839Y-98324367D01*
X129934954Y-98424369D01*
X130214572Y-98485196D01*
X130428552Y-98500500D01*
X130571446Y-98500500D01*
X130571448Y-98500500D01*
X130785428Y-98485196D01*
X131065046Y-98424369D01*
X131333161Y-98324367D01*
X131584315Y-98187226D01*
X131813395Y-98015739D01*
X132015739Y-97813395D01*
X132187226Y-97584315D01*
X132324367Y-97333161D01*
X132424369Y-97065046D01*
X132485196Y-96785428D01*
X132505610Y-96500000D01*
X132485196Y-96214572D01*
X132424369Y-95934954D01*
X132324367Y-95666839D01*
X132187226Y-95415685D01*
X132015739Y-95186605D01*
X131813395Y-94984261D01*
X131584315Y-94812774D01*
X131584310Y-94812771D01*
X131333160Y-94675632D01*
X131065049Y-94575632D01*
X131065048Y-94575631D01*
X131065046Y-94575631D01*
X130958574Y-94552469D01*
X130785426Y-94514803D01*
X130602054Y-94501688D01*
X130571448Y-94499500D01*
X130428552Y-94499500D01*
X130399988Y-94501542D01*
X130214573Y-94514803D01*
X130023247Y-94556424D01*
X129934954Y-94575631D01*
X129934953Y-94575631D01*
X129934950Y-94575632D01*
X129666839Y-94675632D01*
X129415689Y-94812771D01*
X129186605Y-94984261D01*
X128984261Y-95186605D01*
X128812771Y-95415689D01*
X128675632Y-95666839D01*
X128575632Y-95934950D01*
X128514803Y-96214574D01*
X128494390Y-96499999D01*
X124800500Y-96499999D01*
X124800500Y-88315199D01*
X125585635Y-88315199D01*
X125605832Y-88494458D01*
X125655186Y-88635500D01*
X125665411Y-88664722D01*
X125708156Y-88732750D01*
X125723126Y-88756575D01*
X125738300Y-88809246D01*
X125738300Y-90111793D01*
X125736018Y-90132456D01*
X125738251Y-90203485D01*
X125738300Y-90206595D01*
X125738300Y-90235875D01*
X125739005Y-90241460D01*
X125739735Y-90250746D01*
X125741213Y-90297748D01*
X125747715Y-90320132D01*
X125750864Y-90335336D01*
X125753257Y-90354277D01*
X125753786Y-90358459D01*
X125771094Y-90402177D01*
X125774114Y-90410998D01*
X125787235Y-90456160D01*
X125799100Y-90476224D01*
X125805931Y-90490168D01*
X125814511Y-90511836D01*
X125842152Y-90549881D01*
X125847272Y-90557675D01*
X125871208Y-90598149D01*
X125887689Y-90614630D01*
X125897775Y-90626439D01*
X125905085Y-90636500D01*
X125911474Y-90645293D01*
X125947698Y-90675260D01*
X125954597Y-90681537D01*
X127801238Y-92528179D01*
X127814228Y-92544394D01*
X127814532Y-92544680D01*
X127814534Y-92544682D01*
X127816072Y-92546126D01*
X127866011Y-92593022D01*
X127868243Y-92595185D01*
X127888969Y-92615910D01*
X127888974Y-92615915D01*
X127893427Y-92619369D01*
X127900513Y-92625420D01*
X127934785Y-92657605D01*
X127949563Y-92665729D01*
X127955206Y-92668832D01*
X127968187Y-92677359D01*
X127986605Y-92691645D01*
X128029772Y-92710325D01*
X128038126Y-92714418D01*
X128064953Y-92729166D01*
X128079341Y-92737076D01*
X128101911Y-92742871D01*
X128116609Y-92747903D01*
X128137996Y-92757158D01*
X128137997Y-92757158D01*
X128137999Y-92757159D01*
X128184456Y-92764516D01*
X128193571Y-92766404D01*
X128202449Y-92768684D01*
X128239119Y-92778100D01*
X128239120Y-92778100D01*
X128262427Y-92778100D01*
X128277915Y-92779319D01*
X128300928Y-92782964D01*
X128300928Y-92782963D01*
X128300929Y-92782964D01*
X128347740Y-92778539D01*
X128357058Y-92778100D01*
X133470993Y-92778100D01*
X133491656Y-92780381D01*
X133550274Y-92778539D01*
X133562686Y-92778148D01*
X133565795Y-92778100D01*
X133595073Y-92778100D01*
X133595075Y-92778100D01*
X133600656Y-92777394D01*
X133609950Y-92776663D01*
X133656948Y-92775187D01*
X133679340Y-92768681D01*
X133694530Y-92765535D01*
X133717660Y-92762614D01*
X133761384Y-92745301D01*
X133770188Y-92742288D01*
X133803282Y-92732673D01*
X133815359Y-92729165D01*
X133835430Y-92717294D01*
X133849365Y-92710468D01*
X133871037Y-92701888D01*
X133909080Y-92674246D01*
X133916863Y-92669133D01*
X133957348Y-92645192D01*
X133973829Y-92628709D01*
X133985637Y-92618624D01*
X134004493Y-92604926D01*
X134034461Y-92568699D01*
X134040728Y-92561810D01*
X134574498Y-92028040D01*
X134625186Y-92000948D01*
X134682386Y-92006582D01*
X134726815Y-92043045D01*
X134743500Y-92098046D01*
X134743500Y-93581871D01*
X134749909Y-93641484D01*
X134800203Y-93776330D01*
X134800204Y-93776331D01*
X134886454Y-93891546D01*
X135001669Y-93977796D01*
X135136517Y-94028091D01*
X135151280Y-94029678D01*
X135202123Y-94050473D01*
X135234055Y-94095174D01*
X135237240Y-94150016D01*
X135210698Y-94198113D01*
X135055890Y-94352921D01*
X134920398Y-94546424D01*
X134820570Y-94760505D01*
X134763364Y-94974000D01*
X136245000Y-94974000D01*
X136294500Y-94987263D01*
X136330737Y-95023500D01*
X136344000Y-95073000D01*
X136344000Y-95375000D01*
X136330737Y-95424500D01*
X136294500Y-95460737D01*
X136245000Y-95474000D01*
X134763364Y-95474000D01*
X134820570Y-95687495D01*
X134920398Y-95901576D01*
X135055887Y-96095074D01*
X135222925Y-96262112D01*
X135416418Y-96397598D01*
X135430145Y-96403999D01*
X135471801Y-96440531D01*
X135487306Y-96493723D01*
X135471802Y-96546916D01*
X135430146Y-96583448D01*
X135416171Y-96589964D01*
X135222602Y-96725502D01*
X135055502Y-96892602D01*
X134919963Y-97086173D01*
X134820098Y-97300332D01*
X134758936Y-97528594D01*
X134738340Y-97764000D01*
X134758936Y-97999405D01*
X134820098Y-98227667D01*
X134919963Y-98441827D01*
X135055036Y-98634732D01*
X135055505Y-98635401D01*
X135222599Y-98802495D01*
X135416170Y-98938035D01*
X135429554Y-98944276D01*
X135471209Y-98980807D01*
X135486714Y-99033999D01*
X135471210Y-99087192D01*
X135429554Y-99123724D01*
X135416171Y-99129964D01*
X135222602Y-99265502D01*
X135055502Y-99432602D01*
X134919963Y-99626173D01*
X134820098Y-99840332D01*
X134758936Y-100068594D01*
X134738340Y-100303999D01*
X134758936Y-100539405D01*
X134820098Y-100767667D01*
X134919963Y-100981827D01*
X134919964Y-100981829D01*
X134919965Y-100981830D01*
X135055505Y-101175401D01*
X135222599Y-101342495D01*
X135416170Y-101478035D01*
X135416171Y-101478035D01*
X135416172Y-101478036D01*
X135630332Y-101577901D01*
X135630333Y-101577901D01*
X135630337Y-101577903D01*
X135858592Y-101639063D01*
X136094000Y-101659659D01*
X136329408Y-101639063D01*
X136557663Y-101577903D01*
X136771830Y-101478035D01*
X136830488Y-101436961D01*
X136869568Y-101420654D01*
X136911891Y-101422168D01*
X136918539Y-101423874D01*
X136918541Y-101423876D01*
X136941116Y-101429672D01*
X136955809Y-101434703D01*
X136977196Y-101443958D01*
X136977197Y-101443958D01*
X136977199Y-101443959D01*
X137023656Y-101451316D01*
X137032771Y-101453204D01*
X137041649Y-101455484D01*
X137078319Y-101464900D01*
X137078320Y-101464900D01*
X137101627Y-101464900D01*
X137117115Y-101466119D01*
X137140128Y-101469764D01*
X137140128Y-101469763D01*
X137140129Y-101469764D01*
X137186940Y-101465339D01*
X137196258Y-101464900D01*
X155030193Y-101464900D01*
X155050856Y-101467181D01*
X155109474Y-101465339D01*
X155121886Y-101464948D01*
X155124995Y-101464900D01*
X155154273Y-101464900D01*
X155154275Y-101464900D01*
X155159856Y-101464194D01*
X155169150Y-101463463D01*
X155216148Y-101461987D01*
X155238540Y-101455481D01*
X155253730Y-101452335D01*
X155276860Y-101449414D01*
X155307244Y-101437383D01*
X155355237Y-101431107D01*
X155400472Y-101448335D01*
X155457171Y-101488036D01*
X155671332Y-101587901D01*
X155671333Y-101587901D01*
X155671337Y-101587903D01*
X155899592Y-101649063D01*
X156135000Y-101669659D01*
X156370408Y-101649063D01*
X156598663Y-101587903D01*
X156812830Y-101488035D01*
X157006401Y-101352495D01*
X157173495Y-101185401D01*
X157309035Y-100991830D01*
X157408903Y-100777663D01*
X157470063Y-100549408D01*
X157490659Y-100314000D01*
X157470063Y-100078592D01*
X157408903Y-99850337D01*
X157309035Y-99636171D01*
X157173495Y-99442599D01*
X157006401Y-99275505D01*
X156992120Y-99265505D01*
X156812832Y-99139966D01*
X156812830Y-99139965D01*
X156799445Y-99133723D01*
X156757790Y-99097193D01*
X156742286Y-99044000D01*
X156757790Y-98990807D01*
X156799445Y-98954276D01*
X156812830Y-98948035D01*
X157006401Y-98812495D01*
X157173495Y-98645401D01*
X157309035Y-98451830D01*
X157408903Y-98237663D01*
X157470063Y-98009408D01*
X157490659Y-97774000D01*
X157470063Y-97538592D01*
X157408903Y-97310337D01*
X157397086Y-97284996D01*
X157309036Y-97096173D01*
X157173497Y-96902602D01*
X157173495Y-96902599D01*
X157006401Y-96735505D01*
X156992120Y-96725505D01*
X156812828Y-96599963D01*
X156798852Y-96593446D01*
X156757196Y-96556913D01*
X156741694Y-96503719D01*
X156742778Y-96499999D01*
X159494390Y-96499999D01*
X159514803Y-96785425D01*
X159538118Y-96892602D01*
X159557565Y-96982000D01*
X159575632Y-97065049D01*
X159675632Y-97333160D01*
X159769642Y-97505325D01*
X159812774Y-97584315D01*
X159984261Y-97813395D01*
X160186605Y-98015739D01*
X160415685Y-98187226D01*
X160666839Y-98324367D01*
X160934954Y-98424369D01*
X161214572Y-98485196D01*
X161428552Y-98500500D01*
X161571446Y-98500500D01*
X161571448Y-98500500D01*
X161785428Y-98485196D01*
X162065046Y-98424369D01*
X162333161Y-98324367D01*
X162584315Y-98187226D01*
X162813395Y-98015739D01*
X163015739Y-97813395D01*
X163187226Y-97584315D01*
X163324367Y-97333161D01*
X163424369Y-97065046D01*
X163485196Y-96785428D01*
X163505610Y-96500000D01*
X163485196Y-96214572D01*
X163424369Y-95934954D01*
X163324367Y-95666839D01*
X163187226Y-95415685D01*
X163015739Y-95186605D01*
X162813395Y-94984261D01*
X162584315Y-94812774D01*
X162584310Y-94812771D01*
X162333160Y-94675632D01*
X162065049Y-94575632D01*
X162065048Y-94575631D01*
X162065046Y-94575631D01*
X161958574Y-94552469D01*
X161785426Y-94514803D01*
X161602054Y-94501688D01*
X161571448Y-94499500D01*
X161428552Y-94499500D01*
X161399988Y-94501542D01*
X161214573Y-94514803D01*
X161023247Y-94556424D01*
X160934954Y-94575631D01*
X160934953Y-94575631D01*
X160934950Y-94575632D01*
X160666839Y-94675632D01*
X160415689Y-94812771D01*
X160186605Y-94984261D01*
X159984261Y-95186605D01*
X159812771Y-95415689D01*
X159675632Y-95666839D01*
X159575632Y-95934950D01*
X159514803Y-96214574D01*
X159494390Y-96499999D01*
X156742778Y-96499999D01*
X156757200Y-96450527D01*
X156798859Y-96413997D01*
X156812579Y-96407599D01*
X157006074Y-96272112D01*
X157173112Y-96105074D01*
X157308601Y-95911576D01*
X157408429Y-95697495D01*
X157465636Y-95484000D01*
X154804364Y-95484000D01*
X154861570Y-95697495D01*
X154961398Y-95911576D01*
X155096887Y-96105074D01*
X155263925Y-96272112D01*
X155457418Y-96407598D01*
X155471145Y-96413999D01*
X155512801Y-96450531D01*
X155528306Y-96503723D01*
X155512802Y-96556916D01*
X155471146Y-96593448D01*
X155457171Y-96599964D01*
X155263602Y-96735502D01*
X155096502Y-96902602D01*
X154960963Y-97096173D01*
X154861098Y-97310332D01*
X154799936Y-97538594D01*
X154779340Y-97773999D01*
X154792572Y-97925229D01*
X154799937Y-98009408D01*
X154802715Y-98019775D01*
X154822402Y-98093253D01*
X154822401Y-98144499D01*
X154796779Y-98188879D01*
X153671556Y-99314104D01*
X153639438Y-99335564D01*
X153601552Y-99343100D01*
X141519614Y-99343100D01*
X141466945Y-99327927D01*
X141430420Y-99287058D01*
X141423795Y-99248083D01*
X141422013Y-99248284D01*
X141420764Y-99237203D01*
X141420765Y-99237200D01*
X141400568Y-99057945D01*
X141395688Y-99044000D01*
X141360793Y-98944275D01*
X141340989Y-98887678D01*
X141245016Y-98734938D01*
X141117462Y-98607384D01*
X141117459Y-98607382D01*
X141117458Y-98607381D01*
X141058933Y-98570607D01*
X141025409Y-98535478D01*
X141012622Y-98488632D01*
X141023649Y-98441342D01*
X141055833Y-98404987D01*
X141106984Y-98370114D01*
X141301508Y-98189623D01*
X141302102Y-98188879D01*
X141378360Y-98093253D01*
X141466958Y-97982155D01*
X141584244Y-97779010D01*
X141599636Y-97752351D01*
X141599636Y-97752348D01*
X141599639Y-97752345D01*
X141696586Y-97505327D01*
X141755635Y-97246619D01*
X141775465Y-96982000D01*
X141755635Y-96717381D01*
X141696586Y-96458673D01*
X141599639Y-96211655D01*
X141599638Y-96211653D01*
X141599636Y-96211648D01*
X141466957Y-95981844D01*
X141301510Y-95774378D01*
X141106983Y-95593885D01*
X141043731Y-95550760D01*
X141011972Y-95515222D01*
X141000500Y-95468963D01*
X141000500Y-92027429D01*
X141008036Y-91989543D01*
X141029496Y-91957426D01*
X141462016Y-91524904D01*
X141645667Y-91341252D01*
X141692199Y-91315079D01*
X141745557Y-91316875D01*
X141790223Y-91346118D01*
X141813209Y-91394305D01*
X141807829Y-91447421D01*
X141803414Y-91458669D01*
X141744364Y-91717383D01*
X141724534Y-91982000D01*
X141744364Y-92246616D01*
X141803413Y-92505325D01*
X141900363Y-92752351D01*
X142033042Y-92982155D01*
X142198489Y-93189621D01*
X142340657Y-93321532D01*
X142393016Y-93370114D01*
X142612267Y-93519597D01*
X142612271Y-93519600D01*
X142731808Y-93577165D01*
X142851350Y-93634734D01*
X143104922Y-93712950D01*
X143104923Y-93712950D01*
X143104926Y-93712951D01*
X143367317Y-93752500D01*
X143367319Y-93752500D01*
X143632681Y-93752500D01*
X143632683Y-93752500D01*
X143895073Y-93712951D01*
X143895074Y-93712950D01*
X143895078Y-93712950D01*
X144148650Y-93634734D01*
X144387733Y-93519598D01*
X144606984Y-93370114D01*
X144801508Y-93189623D01*
X144966958Y-92982155D01*
X145081961Y-92782964D01*
X145099636Y-92752351D01*
X145099636Y-92752348D01*
X145099639Y-92752345D01*
X145196586Y-92505327D01*
X145255635Y-92246619D01*
X145275465Y-91982000D01*
X145255635Y-91717381D01*
X145196586Y-91458673D01*
X145099639Y-91211655D01*
X145099638Y-91211653D01*
X145099636Y-91211648D01*
X144966957Y-90981844D01*
X144955871Y-90967943D01*
X144932163Y-90938213D01*
X144819730Y-90797225D01*
X144798753Y-90746584D01*
X144807935Y-90692545D01*
X144844460Y-90651674D01*
X144897131Y-90636500D01*
X149102869Y-90636500D01*
X149155540Y-90651674D01*
X149192065Y-90692545D01*
X149201247Y-90746584D01*
X149180270Y-90797225D01*
X149033042Y-90981844D01*
X148900363Y-91211648D01*
X148803413Y-91458674D01*
X148744364Y-91717383D01*
X148724534Y-91982000D01*
X148744364Y-92246616D01*
X148803413Y-92505325D01*
X148900363Y-92752351D01*
X149033042Y-92982155D01*
X149198489Y-93189621D01*
X149340657Y-93321532D01*
X149393016Y-93370114D01*
X149612267Y-93519597D01*
X149612271Y-93519600D01*
X149731808Y-93577165D01*
X149851350Y-93634734D01*
X150104922Y-93712950D01*
X150104923Y-93712950D01*
X150104926Y-93712951D01*
X150367317Y-93752500D01*
X150367319Y-93752500D01*
X150632681Y-93752500D01*
X150632683Y-93752500D01*
X150895073Y-93712951D01*
X150895074Y-93712950D01*
X150895078Y-93712950D01*
X151148650Y-93634734D01*
X151387733Y-93519598D01*
X151606984Y-93370114D01*
X151801508Y-93189623D01*
X151966958Y-92982155D01*
X152081961Y-92782964D01*
X152099636Y-92752351D01*
X152099636Y-92752348D01*
X152099639Y-92752345D01*
X152174344Y-92561998D01*
X152207118Y-92518956D01*
X152257626Y-92499568D01*
X152310784Y-92509626D01*
X152350717Y-92546126D01*
X152365500Y-92598169D01*
X152365500Y-93879571D01*
X152357964Y-93917457D01*
X152336504Y-93949575D01*
X150333576Y-95952504D01*
X150301458Y-95973964D01*
X150263572Y-95981500D01*
X148514358Y-95981500D01*
X148471403Y-95971696D01*
X148436959Y-95944227D01*
X148301508Y-95774377D01*
X148301506Y-95774374D01*
X148106983Y-95593885D01*
X147887734Y-95444402D01*
X147648652Y-95329267D01*
X147648650Y-95329266D01*
X147533116Y-95293628D01*
X147395073Y-95251048D01*
X147132683Y-95211500D01*
X147132681Y-95211500D01*
X146867319Y-95211500D01*
X146867317Y-95211500D01*
X146604926Y-95251048D01*
X146351347Y-95329267D01*
X146112271Y-95444399D01*
X146008394Y-95515222D01*
X145893018Y-95593885D01*
X145893012Y-95593889D01*
X145698489Y-95774378D01*
X145533042Y-95981844D01*
X145400363Y-96211648D01*
X145303413Y-96458674D01*
X145244364Y-96717383D01*
X145224534Y-96982000D01*
X145244364Y-97246616D01*
X145303413Y-97505325D01*
X145400363Y-97752351D01*
X145533042Y-97982155D01*
X145698489Y-98189621D01*
X145750267Y-98237663D01*
X145893016Y-98370114D01*
X146100260Y-98511411D01*
X146112271Y-98519600D01*
X146186412Y-98555304D01*
X146351350Y-98634734D01*
X146604922Y-98712950D01*
X146604923Y-98712950D01*
X146604926Y-98712951D01*
X146867317Y-98752500D01*
X146867319Y-98752500D01*
X147132681Y-98752500D01*
X147132683Y-98752500D01*
X147395073Y-98712951D01*
X147395074Y-98712950D01*
X147395078Y-98712950D01*
X147648650Y-98634734D01*
X147887733Y-98519598D01*
X148106984Y-98370114D01*
X148301508Y-98189623D01*
X148436959Y-98019772D01*
X148471403Y-97992304D01*
X148514358Y-97982500D01*
X150705039Y-97982500D01*
X150707546Y-97982531D01*
X150795363Y-97984757D01*
X150854371Y-97974180D01*
X150861810Y-97973137D01*
X150888232Y-97970450D01*
X150921439Y-97967074D01*
X150951983Y-97957491D01*
X150964154Y-97954503D01*
X150995653Y-97948858D01*
X151051322Y-97926620D01*
X151058388Y-97924104D01*
X151115588Y-97906159D01*
X151143580Y-97890621D01*
X151154887Y-97885251D01*
X151184617Y-97873377D01*
X151234680Y-97840382D01*
X151241070Y-97836510D01*
X151293502Y-97807409D01*
X151317799Y-97786548D01*
X151327787Y-97779018D01*
X151354519Y-97761402D01*
X151396911Y-97719008D01*
X151402401Y-97713919D01*
X151447895Y-97674866D01*
X151467488Y-97649551D01*
X151475757Y-97640162D01*
X154063659Y-95052260D01*
X154065376Y-95050587D01*
X154129053Y-94990059D01*
X154163316Y-94940830D01*
X154167803Y-94934880D01*
X154205698Y-94888407D01*
X154220521Y-94860027D01*
X154227005Y-94849325D01*
X154245295Y-94823049D01*
X154268942Y-94767942D01*
X154272147Y-94761195D01*
X154299909Y-94708049D01*
X154308713Y-94677274D01*
X154312912Y-94665480D01*
X154325540Y-94636058D01*
X154337606Y-94577337D01*
X154339394Y-94570049D01*
X154355886Y-94512418D01*
X154358316Y-94480500D01*
X154360055Y-94468101D01*
X154366500Y-94436741D01*
X154366500Y-94376803D01*
X154366786Y-94369285D01*
X154371337Y-94309525D01*
X154367293Y-94277771D01*
X154366500Y-94265263D01*
X154366500Y-93591871D01*
X154784500Y-93591871D01*
X154790909Y-93651484D01*
X154841203Y-93786330D01*
X154841204Y-93786331D01*
X154927454Y-93901546D01*
X155042669Y-93987796D01*
X155177517Y-94038091D01*
X155192280Y-94039678D01*
X155243123Y-94060473D01*
X155275055Y-94105174D01*
X155278240Y-94160016D01*
X155251698Y-94208113D01*
X155096890Y-94362921D01*
X154961398Y-94556424D01*
X154861570Y-94770505D01*
X154804364Y-94984000D01*
X157465636Y-94984000D01*
X157408429Y-94770505D01*
X157308601Y-94556424D01*
X157173112Y-94362925D01*
X157018301Y-94208114D01*
X156991759Y-94160016D01*
X156994945Y-94105172D01*
X157026878Y-94060471D01*
X157077724Y-94039677D01*
X157092483Y-94038091D01*
X157227331Y-93987796D01*
X157342546Y-93901546D01*
X157428796Y-93786331D01*
X157479091Y-93651483D01*
X157485500Y-93591873D01*
X157485499Y-91796128D01*
X157479091Y-91736517D01*
X157428796Y-91601669D01*
X157342546Y-91486454D01*
X157227331Y-91400204D01*
X157227330Y-91400203D01*
X157131366Y-91364411D01*
X157092483Y-91349909D01*
X157032873Y-91343500D01*
X157032869Y-91343500D01*
X155237128Y-91343500D01*
X155177515Y-91349909D01*
X155042669Y-91400203D01*
X154927454Y-91486454D01*
X154841203Y-91601669D01*
X154790910Y-91736514D01*
X154790909Y-91736517D01*
X154784500Y-91796127D01*
X154784500Y-91796130D01*
X154784500Y-93591871D01*
X154366500Y-93591871D01*
X154366500Y-91005829D01*
X154374036Y-90967943D01*
X154395496Y-90935825D01*
X154987162Y-90344159D01*
X156768258Y-88563061D01*
X156796420Y-88543344D01*
X156837830Y-88524035D01*
X157031401Y-88388495D01*
X157198495Y-88221401D01*
X157334035Y-88027830D01*
X157340276Y-88014445D01*
X157376807Y-87972790D01*
X157430000Y-87957286D01*
X157483193Y-87972790D01*
X157519723Y-88014445D01*
X157523660Y-88022886D01*
X157525966Y-88027832D01*
X157653483Y-88209944D01*
X157661505Y-88221401D01*
X157828599Y-88388495D01*
X158022170Y-88524035D01*
X158022171Y-88524035D01*
X158022172Y-88524036D01*
X158236332Y-88623901D01*
X158236333Y-88623901D01*
X158236337Y-88623903D01*
X158464592Y-88685063D01*
X158700000Y-88705659D01*
X158935408Y-88685063D01*
X159163663Y-88623903D01*
X159377830Y-88524035D01*
X159571401Y-88388495D01*
X159738495Y-88221401D01*
X159874035Y-88027830D01*
X159880276Y-88014445D01*
X159916807Y-87972790D01*
X159970000Y-87957286D01*
X160023193Y-87972790D01*
X160059723Y-88014445D01*
X160063660Y-88022886D01*
X160065966Y-88027832D01*
X160193483Y-88209944D01*
X160201505Y-88221401D01*
X160368599Y-88388495D01*
X160562170Y-88524035D01*
X160562171Y-88524035D01*
X160562172Y-88524036D01*
X160776332Y-88623901D01*
X160776333Y-88623901D01*
X160776337Y-88623903D01*
X161004592Y-88685063D01*
X161240000Y-88705659D01*
X161475408Y-88685063D01*
X161703663Y-88623903D01*
X161917830Y-88524035D01*
X162111401Y-88388495D01*
X162278495Y-88221401D01*
X162414035Y-88027830D01*
X162420552Y-88013853D01*
X162457083Y-87972198D01*
X162510276Y-87956694D01*
X162563469Y-87972198D01*
X162600001Y-88013855D01*
X162606401Y-88027581D01*
X162741887Y-88221074D01*
X162908925Y-88388112D01*
X163102423Y-88523601D01*
X163316504Y-88623429D01*
X163530000Y-88680636D01*
X164030000Y-88680636D01*
X164243495Y-88623429D01*
X164457576Y-88523601D01*
X164651074Y-88388112D01*
X164818112Y-88221074D01*
X164953601Y-88027576D01*
X165053429Y-87813495D01*
X165110636Y-87600000D01*
X164030001Y-87600000D01*
X164030000Y-87600001D01*
X164030000Y-88680636D01*
X163530000Y-88680636D01*
X163530000Y-86019364D01*
X164030000Y-86019364D01*
X164030000Y-87099999D01*
X164030001Y-87100000D01*
X165110636Y-87100000D01*
X165053429Y-86886505D01*
X164953601Y-86672424D01*
X164818112Y-86478925D01*
X164651074Y-86311887D01*
X164457576Y-86176398D01*
X164243495Y-86076570D01*
X164030000Y-86019364D01*
X163530000Y-86019364D01*
X163316505Y-86076570D01*
X163102424Y-86176398D01*
X162908925Y-86311887D01*
X162741887Y-86478925D01*
X162606399Y-86672422D01*
X162600000Y-86686146D01*
X162563468Y-86727802D01*
X162510276Y-86743306D01*
X162457084Y-86727802D01*
X162420552Y-86686146D01*
X162414035Y-86672171D01*
X162401057Y-86653637D01*
X162278495Y-86478599D01*
X162111401Y-86311505D01*
X161917830Y-86175965D01*
X161917829Y-86175964D01*
X161917827Y-86175963D01*
X161703667Y-86076098D01*
X161475405Y-86014936D01*
X161240000Y-85994340D01*
X161004594Y-86014936D01*
X160776332Y-86076098D01*
X160562173Y-86175963D01*
X160368602Y-86311502D01*
X160201502Y-86478602D01*
X160065964Y-86672171D01*
X160059724Y-86685554D01*
X160023192Y-86727210D01*
X159970000Y-86742714D01*
X159916808Y-86727210D01*
X159880276Y-86685554D01*
X159874035Y-86672171D01*
X159861057Y-86653637D01*
X159738495Y-86478599D01*
X159571401Y-86311505D01*
X159377830Y-86175965D01*
X159377829Y-86175964D01*
X159377827Y-86175963D01*
X159163667Y-86076098D01*
X158935405Y-86014936D01*
X158700000Y-85994340D01*
X158464594Y-86014936D01*
X158236332Y-86076098D01*
X158022173Y-86175963D01*
X157828602Y-86311502D01*
X157661502Y-86478602D01*
X157525964Y-86672171D01*
X157519724Y-86685554D01*
X157483192Y-86727210D01*
X157430000Y-86742714D01*
X157376808Y-86727210D01*
X157340276Y-86685554D01*
X157334035Y-86672171D01*
X157321057Y-86653637D01*
X157198495Y-86478599D01*
X157031401Y-86311505D01*
X156837830Y-86175965D01*
X156837829Y-86175964D01*
X156837827Y-86175963D01*
X156623667Y-86076098D01*
X156395405Y-86014936D01*
X156160000Y-85994340D01*
X155924594Y-86014936D01*
X155696332Y-86076098D01*
X155482173Y-86175963D01*
X155288602Y-86311502D01*
X155121502Y-86478602D01*
X154985964Y-86672171D01*
X154979724Y-86685554D01*
X154943192Y-86727210D01*
X154890000Y-86742714D01*
X154836808Y-86727210D01*
X154800276Y-86685554D01*
X154794035Y-86672171D01*
X154781057Y-86653637D01*
X154658495Y-86478599D01*
X154491401Y-86311505D01*
X154297830Y-86175965D01*
X154297829Y-86175964D01*
X154297827Y-86175963D01*
X154083667Y-86076098D01*
X153855405Y-86014936D01*
X153620000Y-85994340D01*
X153384594Y-86014936D01*
X153156332Y-86076098D01*
X152942173Y-86175963D01*
X152748602Y-86311502D01*
X152581502Y-86478602D01*
X152445964Y-86672171D01*
X152439724Y-86685554D01*
X152403192Y-86727210D01*
X152350000Y-86742714D01*
X152296808Y-86727210D01*
X152260276Y-86685554D01*
X152254035Y-86672171D01*
X152241057Y-86653637D01*
X152118495Y-86478599D01*
X151951401Y-86311505D01*
X151757830Y-86175965D01*
X151757829Y-86175964D01*
X151757827Y-86175963D01*
X151543667Y-86076098D01*
X151315405Y-86014936D01*
X151080000Y-85994340D01*
X150844594Y-86014936D01*
X150616332Y-86076098D01*
X150402173Y-86175963D01*
X150208602Y-86311502D01*
X150041502Y-86478602D01*
X149905963Y-86672173D01*
X149899445Y-86686150D01*
X149862912Y-86727804D01*
X149809719Y-86743306D01*
X149756528Y-86727800D01*
X149719997Y-86686143D01*
X149713597Y-86672418D01*
X149578112Y-86478925D01*
X149411074Y-86311887D01*
X149217576Y-86176398D01*
X149003495Y-86076570D01*
X148790000Y-86019364D01*
X148790000Y-87501000D01*
X148776737Y-87550500D01*
X148740500Y-87586737D01*
X148691000Y-87600000D01*
X148389000Y-87600000D01*
X148339500Y-87586737D01*
X148303263Y-87550500D01*
X148290000Y-87501000D01*
X148290000Y-86019364D01*
X148076505Y-86076570D01*
X147862424Y-86176398D01*
X147668921Y-86311890D01*
X147514113Y-86466698D01*
X147466015Y-86493240D01*
X147411172Y-86490054D01*
X147366472Y-86458121D01*
X147345677Y-86407273D01*
X147345363Y-86404352D01*
X147344091Y-86392517D01*
X147293796Y-86257669D01*
X147207546Y-86142454D01*
X147092331Y-86056204D01*
X147092330Y-86056203D01*
X146981688Y-86014937D01*
X146957483Y-86005909D01*
X146897873Y-85999500D01*
X146897869Y-85999500D01*
X145102128Y-85999500D01*
X145042515Y-86005909D01*
X144907669Y-86056203D01*
X144792454Y-86142454D01*
X144706203Y-86257669D01*
X144655910Y-86392514D01*
X144655909Y-86392517D01*
X144649500Y-86452127D01*
X144649500Y-86452130D01*
X144649500Y-88247871D01*
X144655909Y-88307484D01*
X144706203Y-88442330D01*
X144732285Y-88477171D01*
X144751638Y-88527675D01*
X144741561Y-88580814D01*
X144705061Y-88620726D01*
X144653032Y-88635500D01*
X141949920Y-88635500D01*
X141947412Y-88635468D01*
X141859635Y-88633243D01*
X141800647Y-88643816D01*
X141793198Y-88644861D01*
X141733559Y-88650925D01*
X141703017Y-88660508D01*
X141690850Y-88663495D01*
X141659348Y-88669141D01*
X141603682Y-88691376D01*
X141596599Y-88693897D01*
X141539414Y-88711840D01*
X141511419Y-88727377D01*
X141500105Y-88732750D01*
X141470382Y-88744623D01*
X141420338Y-88777604D01*
X141413909Y-88781499D01*
X141361498Y-88810591D01*
X141337205Y-88831445D01*
X141327203Y-88838986D01*
X141300479Y-88856598D01*
X141258096Y-88898981D01*
X141252581Y-88904092D01*
X141207105Y-88943132D01*
X141187517Y-88968438D01*
X141179236Y-88977841D01*
X139302414Y-90854664D01*
X139300620Y-90856413D01*
X139236946Y-90916942D01*
X139202706Y-90966134D01*
X139198180Y-90972136D01*
X139160303Y-91018591D01*
X139145481Y-91046964D01*
X139138991Y-91057676D01*
X139120703Y-91083951D01*
X139097069Y-91139026D01*
X139093844Y-91145819D01*
X139066089Y-91198954D01*
X139057284Y-91229725D01*
X139053082Y-91241527D01*
X139040459Y-91270940D01*
X139028396Y-91329641D01*
X139026604Y-91336944D01*
X139010112Y-91394583D01*
X139007681Y-91426503D01*
X139005941Y-91438909D01*
X138999500Y-91470257D01*
X138999500Y-91530193D01*
X138999214Y-91537711D01*
X138994662Y-91597473D01*
X138998707Y-91629229D01*
X138999500Y-91641737D01*
X138999500Y-95468963D01*
X138988028Y-95515222D01*
X138956269Y-95550760D01*
X138893016Y-95593885D01*
X138698489Y-95774378D01*
X138533042Y-95981844D01*
X138455636Y-96115915D01*
X138419400Y-96152152D01*
X138369900Y-96165415D01*
X138320400Y-96152151D01*
X138284163Y-96115915D01*
X138270900Y-96066415D01*
X138270900Y-90938213D01*
X138273181Y-90917541D01*
X138273168Y-90917135D01*
X138273169Y-90917132D01*
X138270949Y-90846497D01*
X138270900Y-90843387D01*
X138270900Y-90814128D01*
X138270900Y-90814125D01*
X138270195Y-90808548D01*
X138269463Y-90799249D01*
X138267987Y-90752253D01*
X138261482Y-90729865D01*
X138258335Y-90714668D01*
X138255414Y-90691540D01*
X138238099Y-90647808D01*
X138235086Y-90639008D01*
X138221965Y-90593842D01*
X138210095Y-90573772D01*
X138203267Y-90559831D01*
X138194688Y-90538162D01*
X138167047Y-90500118D01*
X138161925Y-90492322D01*
X138137992Y-90451852D01*
X138130542Y-90444402D01*
X138121510Y-90435369D01*
X138111423Y-90423559D01*
X138100963Y-90409163D01*
X138097726Y-90404707D01*
X138061499Y-90374737D01*
X138054601Y-90368461D01*
X137527496Y-89841356D01*
X137506036Y-89809238D01*
X137498500Y-89771352D01*
X137498500Y-88972737D01*
X137506036Y-88934851D01*
X137527493Y-88902736D01*
X137558543Y-88871687D01*
X137652697Y-88763026D01*
X137730504Y-88641955D01*
X137790232Y-88511170D01*
X137815444Y-88443573D01*
X137830780Y-88373077D01*
X137851242Y-88230762D01*
X137856389Y-88158800D01*
X137851499Y-88090431D01*
X137851247Y-88083368D01*
X137851247Y-87734232D01*
X137851499Y-87727169D01*
X137852134Y-87718284D01*
X137856389Y-87658800D01*
X137851242Y-87586838D01*
X137830780Y-87444523D01*
X137815444Y-87374027D01*
X137790232Y-87306430D01*
X137730504Y-87175645D01*
X137652697Y-87054574D01*
X137558543Y-86945913D01*
X137507527Y-86894897D01*
X137484911Y-86877967D01*
X137449768Y-86851659D01*
X137328820Y-86773931D01*
X137328816Y-86773929D01*
X137197900Y-86714142D01*
X137148827Y-86699733D01*
X137059940Y-86673633D01*
X136917492Y-86653153D01*
X136917489Y-86653153D01*
X136345600Y-86653153D01*
X136208522Y-86671200D01*
X136182678Y-86671200D01*
X136045600Y-86653153D01*
X135473711Y-86653153D01*
X135473708Y-86653153D01*
X135331259Y-86673633D01*
X135193300Y-86714142D01*
X135062379Y-86773931D01*
X134941431Y-86851659D01*
X134883677Y-86894893D01*
X134832655Y-86945915D01*
X134738500Y-87054578D01*
X134660695Y-87175645D01*
X134600971Y-87306422D01*
X134575755Y-87374028D01*
X134560419Y-87444523D01*
X134539959Y-87586829D01*
X134534811Y-87658800D01*
X134539701Y-87727169D01*
X134539953Y-87734232D01*
X134539953Y-88083368D01*
X134539701Y-88090431D01*
X134537876Y-88115954D01*
X134534811Y-88158800D01*
X134539288Y-88221401D01*
X134539959Y-88230770D01*
X134560419Y-88373076D01*
X134575755Y-88443571D01*
X134600971Y-88511177D01*
X134660695Y-88641954D01*
X134694077Y-88693897D01*
X134738503Y-88763026D01*
X134832657Y-88871687D01*
X134863706Y-88902736D01*
X134885164Y-88934851D01*
X134892700Y-88972737D01*
X134892700Y-89822152D01*
X134885164Y-89860038D01*
X134863704Y-89892156D01*
X133312556Y-91443304D01*
X133280438Y-91464764D01*
X133242552Y-91472300D01*
X128633048Y-91472300D01*
X128595162Y-91464764D01*
X128563044Y-91443304D01*
X127073096Y-89953356D01*
X127051636Y-89921238D01*
X127044100Y-89883352D01*
X127044100Y-88809246D01*
X127059274Y-88756575D01*
X127074244Y-88732750D01*
X127116989Y-88664722D01*
X127176568Y-88494455D01*
X127196765Y-88315200D01*
X127176568Y-88135945D01*
X127175940Y-88134151D01*
X127154910Y-88074051D01*
X127116989Y-87965678D01*
X127021016Y-87812938D01*
X126893462Y-87685384D01*
X126740722Y-87589411D01*
X126729282Y-87585408D01*
X126570458Y-87529832D01*
X126391200Y-87509635D01*
X126211941Y-87529832D01*
X126041680Y-87589410D01*
X125888939Y-87685383D01*
X125761383Y-87812939D01*
X125665410Y-87965680D01*
X125605832Y-88135941D01*
X125585635Y-88315199D01*
X124800500Y-88315199D01*
X124800500Y-73583200D01*
X125382255Y-73583200D01*
X125382699Y-73591099D01*
X125382699Y-73673936D01*
X125401133Y-73754705D01*
X125402459Y-73762503D01*
X125404648Y-73770101D01*
X125423079Y-73850856D01*
X125459020Y-73925487D01*
X125462053Y-73932810D01*
X125465883Y-73939737D01*
X125501818Y-74014357D01*
X125528352Y-74047630D01*
X125553459Y-74079112D01*
X125558047Y-74085578D01*
X125563321Y-74091480D01*
X125582259Y-74115227D01*
X125586585Y-74120651D01*
X126115933Y-74649999D01*
X126411630Y-74945696D01*
X126438724Y-74996386D01*
X126433090Y-75053586D01*
X126396627Y-75098015D01*
X126341626Y-75114700D01*
X126246712Y-75114700D01*
X126238800Y-75114255D01*
X126230888Y-75114700D01*
X126193571Y-75114700D01*
X126135670Y-75121223D01*
X126058466Y-75129922D01*
X125887184Y-75189857D01*
X125733527Y-75286406D01*
X125605206Y-75414727D01*
X125558156Y-75489607D01*
X125521546Y-75547872D01*
X125508657Y-75568384D01*
X125448722Y-75739666D01*
X125428404Y-75920000D01*
X125448722Y-76100333D01*
X125490901Y-76220871D01*
X125508658Y-76271618D01*
X125605207Y-76425274D01*
X125733526Y-76553593D01*
X125887182Y-76650142D01*
X125996206Y-76688291D01*
X126058466Y-76710077D01*
X126058467Y-76710077D01*
X126058470Y-76710078D01*
X126193571Y-76725300D01*
X126230888Y-76725300D01*
X126238800Y-76725744D01*
X126246712Y-76725300D01*
X126677026Y-76725300D01*
X126714912Y-76732836D01*
X126747030Y-76754296D01*
X129725357Y-79732623D01*
X129746817Y-79764741D01*
X129754353Y-79802627D01*
X129754353Y-79904568D01*
X129754101Y-79911631D01*
X129748706Y-79987063D01*
X129746301Y-79986891D01*
X129735296Y-80033422D01*
X129691279Y-80072948D01*
X129632580Y-80080316D01*
X129580160Y-80052894D01*
X128281384Y-78754118D01*
X126960809Y-77433543D01*
X126960803Y-77433538D01*
X126931638Y-77410279D01*
X126925736Y-77405005D01*
X126919274Y-77400420D01*
X126854515Y-77348776D01*
X126779895Y-77312841D01*
X126772968Y-77309011D01*
X126765645Y-77305978D01*
X126691014Y-77270037D01*
X126610259Y-77251606D01*
X126602661Y-77249417D01*
X126594863Y-77248091D01*
X126514094Y-77229657D01*
X126514093Y-77229657D01*
X126431257Y-77229657D01*
X126423358Y-77229213D01*
X126415459Y-77229657D01*
X126332622Y-77229657D01*
X126251848Y-77248092D01*
X126244053Y-77249417D01*
X126236461Y-77251604D01*
X126155699Y-77270038D01*
X126081063Y-77305981D01*
X126073752Y-77309010D01*
X126066831Y-77312835D01*
X125992203Y-77348775D01*
X125992201Y-77348776D01*
X125972398Y-77364568D01*
X125927419Y-77400436D01*
X125920977Y-77405008D01*
X125915090Y-77410268D01*
X125850321Y-77461921D01*
X125798668Y-77526690D01*
X125793408Y-77532577D01*
X125788835Y-77539019D01*
X125737176Y-77603801D01*
X125737175Y-77603802D01*
X125737175Y-77603803D01*
X125701235Y-77678431D01*
X125697410Y-77685352D01*
X125694381Y-77692663D01*
X125658438Y-77767299D01*
X125640004Y-77848061D01*
X125637817Y-77855653D01*
X125636492Y-77863448D01*
X125618057Y-77944222D01*
X125618057Y-78027059D01*
X125617613Y-78034958D01*
X125618057Y-78042857D01*
X125618057Y-78125694D01*
X125636491Y-78206463D01*
X125637817Y-78214261D01*
X125640006Y-78221859D01*
X125658437Y-78302614D01*
X125694378Y-78377245D01*
X125697411Y-78384568D01*
X125701241Y-78391495D01*
X125737176Y-78466115D01*
X125788817Y-78530870D01*
X125793405Y-78537336D01*
X125798679Y-78543238D01*
X125821942Y-78572408D01*
X126131893Y-78882360D01*
X126158407Y-78930334D01*
X126155333Y-78985062D01*
X126123613Y-79029765D01*
X126117862Y-79034352D01*
X126073061Y-79070078D01*
X126066619Y-79074650D01*
X126060732Y-79079910D01*
X125995963Y-79131563D01*
X125944310Y-79196332D01*
X125939050Y-79202219D01*
X125934477Y-79208661D01*
X125882818Y-79273443D01*
X125882817Y-79273444D01*
X125882817Y-79273445D01*
X125846877Y-79348073D01*
X125843052Y-79354994D01*
X125840023Y-79362305D01*
X125804080Y-79436941D01*
X125785646Y-79517703D01*
X125783459Y-79525295D01*
X125782134Y-79533090D01*
X125763699Y-79613864D01*
X125763699Y-79696701D01*
X125763255Y-79704599D01*
X125763699Y-79712499D01*
X125763699Y-79795336D01*
X125782133Y-79876105D01*
X125783459Y-79883903D01*
X125785648Y-79891501D01*
X125804079Y-79972256D01*
X125840020Y-80046887D01*
X125843053Y-80054210D01*
X125846883Y-80061137D01*
X125882818Y-80135757D01*
X125929486Y-80194277D01*
X125934459Y-80200512D01*
X125939047Y-80206978D01*
X125944321Y-80212880D01*
X125967580Y-80242045D01*
X125967585Y-80242051D01*
X125984752Y-80259218D01*
X126009071Y-80299155D01*
X126012349Y-80345801D01*
X125993851Y-80388748D01*
X125957705Y-80418414D01*
X125947309Y-80423421D01*
X125939994Y-80426451D01*
X125933073Y-80430277D01*
X125865756Y-80462696D01*
X125858443Y-80466218D01*
X125798901Y-80513699D01*
X125793661Y-80517878D01*
X125787219Y-80522450D01*
X125781332Y-80527710D01*
X125716563Y-80579363D01*
X125664910Y-80644132D01*
X125659650Y-80650019D01*
X125655077Y-80656461D01*
X125603418Y-80721243D01*
X125603417Y-80721244D01*
X125603417Y-80721245D01*
X125567477Y-80795873D01*
X125563652Y-80802794D01*
X125560623Y-80810105D01*
X125524680Y-80884741D01*
X125506246Y-80965503D01*
X125504059Y-80973095D01*
X125502734Y-80980890D01*
X125484299Y-81061664D01*
X125484299Y-81144501D01*
X125483855Y-81152400D01*
X125484299Y-81160299D01*
X125484299Y-81243136D01*
X125502733Y-81323905D01*
X125504059Y-81331703D01*
X125506248Y-81339301D01*
X125524679Y-81420056D01*
X125560620Y-81494687D01*
X125563653Y-81502010D01*
X125567483Y-81508937D01*
X125603418Y-81583557D01*
X125655059Y-81648312D01*
X125659647Y-81654778D01*
X125664921Y-81660680D01*
X125688184Y-81689850D01*
X125932688Y-81934355D01*
X125957009Y-81974293D01*
X125960285Y-82020940D01*
X125941787Y-82063887D01*
X125917276Y-82084003D01*
X125917963Y-82084865D01*
X125909244Y-82091817D01*
X125909243Y-82091818D01*
X125894343Y-82103700D01*
X125844461Y-82143478D01*
X125838019Y-82148050D01*
X125832132Y-82153310D01*
X125767363Y-82204963D01*
X125715710Y-82269732D01*
X125710450Y-82275619D01*
X125705877Y-82282061D01*
X125654218Y-82346843D01*
X125654217Y-82346844D01*
X125654217Y-82346845D01*
X125618277Y-82421473D01*
X125614452Y-82428394D01*
X125611423Y-82435705D01*
X125575480Y-82510341D01*
X125557046Y-82591103D01*
X125554859Y-82598695D01*
X125553534Y-82606490D01*
X125535099Y-82687264D01*
X125535099Y-82770101D01*
X125534655Y-82777999D01*
X125535099Y-82785899D01*
X125535099Y-82868736D01*
X125553533Y-82949505D01*
X125554859Y-82957303D01*
X125557048Y-82964901D01*
X125575479Y-83045656D01*
X125611420Y-83120287D01*
X125614453Y-83127610D01*
X125618283Y-83134537D01*
X125654218Y-83209157D01*
X125683505Y-83245882D01*
X125705859Y-83273912D01*
X125710447Y-83280378D01*
X125715721Y-83286280D01*
X125738980Y-83315445D01*
X125738985Y-83315451D01*
X126152058Y-83728524D01*
X126471304Y-84047770D01*
X126492764Y-84079888D01*
X126500300Y-84117774D01*
X126500300Y-86332674D01*
X126500299Y-86332682D01*
X126500299Y-86526337D01*
X126509189Y-86565291D01*
X126511048Y-86576231D01*
X126515521Y-86615928D01*
X126528716Y-86653637D01*
X126531789Y-86664304D01*
X126540680Y-86703258D01*
X126558016Y-86739258D01*
X126562264Y-86749513D01*
X126575458Y-86787219D01*
X126596716Y-86821051D01*
X126602086Y-86830767D01*
X126619417Y-86866756D01*
X126644327Y-86897992D01*
X126650751Y-86907046D01*
X126672006Y-86940873D01*
X126811680Y-87080548D01*
X126811687Y-87080553D01*
X129725357Y-89994224D01*
X129746817Y-90026342D01*
X129754353Y-90064228D01*
X129754353Y-90064568D01*
X129754100Y-90071631D01*
X129749211Y-90140000D01*
X129753974Y-90206595D01*
X129754359Y-90211970D01*
X129774819Y-90354276D01*
X129790155Y-90424771D01*
X129790156Y-90424773D01*
X129813047Y-90486148D01*
X129815371Y-90492377D01*
X129875095Y-90623154D01*
X129919043Y-90691539D01*
X129952903Y-90744226D01*
X130047057Y-90852887D01*
X130098073Y-90903903D01*
X130098076Y-90903905D01*
X130098077Y-90903906D01*
X130155831Y-90947140D01*
X130247154Y-91005829D01*
X130276784Y-91024871D01*
X130407700Y-91084658D01*
X130545655Y-91125165D01*
X130545656Y-91125165D01*
X130545659Y-91125166D01*
X130688108Y-91145647D01*
X130688111Y-91145647D01*
X131260000Y-91145647D01*
X131397078Y-91127600D01*
X131422922Y-91127600D01*
X131560000Y-91145647D01*
X132131889Y-91145647D01*
X132131892Y-91145647D01*
X132274340Y-91125166D01*
X132274341Y-91125165D01*
X132274345Y-91125165D01*
X132412300Y-91084658D01*
X132543216Y-91024871D01*
X132664170Y-90947139D01*
X132721927Y-90903903D01*
X132772943Y-90852887D01*
X132867097Y-90744226D01*
X132944904Y-90623155D01*
X133004632Y-90492370D01*
X133029844Y-90424773D01*
X133045180Y-90354277D01*
X133065642Y-90211962D01*
X133070789Y-90140000D01*
X133065899Y-90071631D01*
X133065647Y-90064568D01*
X133065647Y-89715432D01*
X133065899Y-89708369D01*
X133066000Y-89706955D01*
X133070789Y-89640000D01*
X133065642Y-89568038D01*
X133045180Y-89425723D01*
X133029844Y-89355227D01*
X133004632Y-89287630D01*
X132944904Y-89156845D01*
X132867097Y-89035774D01*
X132787878Y-88944350D01*
X132769942Y-88914118D01*
X132763700Y-88879521D01*
X132763700Y-88360479D01*
X132769942Y-88325883D01*
X132787880Y-88295649D01*
X132829279Y-88247871D01*
X132867097Y-88204226D01*
X132874371Y-88192906D01*
X132907882Y-88160852D01*
X132952316Y-88147575D01*
X132997920Y-88155989D01*
X133121797Y-88211144D01*
X133306954Y-88250500D01*
X133496244Y-88250500D01*
X133496246Y-88250500D01*
X133681403Y-88211144D01*
X133854330Y-88134151D01*
X134007471Y-88022888D01*
X134015072Y-88014447D01*
X134134131Y-87882218D01*
X134134130Y-87882218D01*
X134134133Y-87882216D01*
X134228779Y-87718284D01*
X134287274Y-87538256D01*
X134307060Y-87350000D01*
X134287274Y-87161744D01*
X134228779Y-86981716D01*
X134134133Y-86817784D01*
X134134132Y-86817783D01*
X134134131Y-86817781D01*
X134007473Y-86677113D01*
X133923258Y-86615928D01*
X133854330Y-86565849D01*
X133853077Y-86565291D01*
X133681404Y-86488856D01*
X133619683Y-86475737D01*
X133496246Y-86449500D01*
X133306954Y-86449500D01*
X133226043Y-86466698D01*
X133121795Y-86488856D01*
X132997921Y-86544009D01*
X132952315Y-86552424D01*
X132907881Y-86539147D01*
X132874369Y-86507090D01*
X132867098Y-86495776D01*
X132867097Y-86495774D01*
X132787878Y-86404350D01*
X132769942Y-86374118D01*
X132763700Y-86339521D01*
X132763700Y-85820479D01*
X132769942Y-85785882D01*
X132787880Y-85755648D01*
X132867097Y-85664226D01*
X132944904Y-85543155D01*
X133004632Y-85412370D01*
X133029844Y-85344773D01*
X133045180Y-85274277D01*
X133065642Y-85131962D01*
X133070789Y-85060000D01*
X133065899Y-84991631D01*
X133065647Y-84984568D01*
X133065647Y-84635432D01*
X133065899Y-84628369D01*
X133066000Y-84626955D01*
X133070789Y-84560000D01*
X133065642Y-84488038D01*
X133045180Y-84345723D01*
X133029844Y-84275227D01*
X133004632Y-84207630D01*
X132944904Y-84076845D01*
X132867097Y-83955774D01*
X132787878Y-83864350D01*
X132769942Y-83834118D01*
X132763700Y-83799521D01*
X132763700Y-83280479D01*
X132769942Y-83245882D01*
X132787880Y-83215648D01*
X132867097Y-83124226D01*
X132944904Y-83003155D01*
X133004632Y-82872370D01*
X133029844Y-82804773D01*
X133045180Y-82734277D01*
X133065642Y-82591962D01*
X133070789Y-82520000D01*
X133065899Y-82451631D01*
X133065647Y-82444568D01*
X133065647Y-82095432D01*
X133065899Y-82088369D01*
X133068485Y-82052211D01*
X133070789Y-82020000D01*
X133065642Y-81948038D01*
X133045180Y-81805723D01*
X133029844Y-81735227D01*
X133004632Y-81667630D01*
X132944904Y-81536845D01*
X132867097Y-81415774D01*
X132787878Y-81324350D01*
X132769942Y-81294118D01*
X132763700Y-81259521D01*
X132763700Y-80740479D01*
X132769942Y-80705882D01*
X132787880Y-80675648D01*
X132867097Y-80584226D01*
X132911442Y-80515222D01*
X132934608Y-80479177D01*
X132970446Y-80445810D01*
X133017892Y-80433700D01*
X138149110Y-80433700D01*
X138186996Y-80441236D01*
X138219114Y-80462696D01*
X138869511Y-81113093D01*
X138892828Y-81150048D01*
X138897965Y-81193441D01*
X138896940Y-81203195D01*
X138896940Y-81203197D01*
X138896940Y-81203200D01*
X138916726Y-81391456D01*
X138953268Y-81503920D01*
X138975221Y-81571484D01*
X139069868Y-81735418D01*
X139196526Y-81876086D01*
X139196529Y-81876088D01*
X139349670Y-81987351D01*
X139522597Y-82064344D01*
X139707754Y-82103700D01*
X139897044Y-82103700D01*
X139897046Y-82103700D01*
X140082203Y-82064344D01*
X140255130Y-81987351D01*
X140408271Y-81876088D01*
X140534933Y-81735416D01*
X140629579Y-81571484D01*
X140688074Y-81391456D01*
X140707860Y-81203200D01*
X140688074Y-81014944D01*
X140629579Y-80834916D01*
X140534933Y-80670984D01*
X140534932Y-80670983D01*
X140534931Y-80670981D01*
X140408273Y-80530313D01*
X140255128Y-80419047D01*
X140110926Y-80354844D01*
X140081189Y-80334407D01*
X138996320Y-79249538D01*
X138992238Y-79245201D01*
X138951666Y-79199405D01*
X138901315Y-79164651D01*
X138896503Y-79161109D01*
X138848328Y-79123365D01*
X138836917Y-79118230D01*
X138821314Y-79109430D01*
X138811027Y-79102329D01*
X138753809Y-79080628D01*
X138748288Y-79078341D01*
X138692488Y-79053229D01*
X138680201Y-79050977D01*
X138662944Y-79046167D01*
X138651243Y-79041729D01*
X138590487Y-79034352D01*
X138584578Y-79033453D01*
X138524397Y-79022425D01*
X138463341Y-79026119D01*
X138457364Y-79026300D01*
X137041290Y-79026300D01*
X136986289Y-79009615D01*
X136949826Y-78965186D01*
X136944192Y-78907986D01*
X136971286Y-78857296D01*
X139705382Y-76123200D01*
X140566804Y-76123200D01*
X140587122Y-76303533D01*
X140629721Y-76425272D01*
X140647058Y-76474818D01*
X140743607Y-76628474D01*
X140871926Y-76756793D01*
X141025582Y-76853342D01*
X141134606Y-76891491D01*
X141196866Y-76913277D01*
X141196867Y-76913277D01*
X141196870Y-76913278D01*
X141331971Y-76928500D01*
X141369288Y-76928500D01*
X141377200Y-76928944D01*
X141385112Y-76928500D01*
X141561426Y-76928500D01*
X141599312Y-76936036D01*
X141631430Y-76957496D01*
X145518805Y-80844871D01*
X145518807Y-80844874D01*
X145647126Y-80973193D01*
X145647128Y-80973194D01*
X145647129Y-80973195D01*
X145680954Y-80994449D01*
X145690008Y-81000873D01*
X145721242Y-81025782D01*
X145743094Y-81036304D01*
X145757240Y-81043117D01*
X145766943Y-81048479D01*
X145787928Y-81061665D01*
X145800784Y-81069743D01*
X145838492Y-81082937D01*
X145848749Y-81087185D01*
X145884743Y-81104520D01*
X145923697Y-81113410D01*
X145934347Y-81116477D01*
X145972070Y-81129678D01*
X146011780Y-81134152D01*
X146022695Y-81136006D01*
X146061665Y-81144901D01*
X146243135Y-81144901D01*
X146255318Y-81144901D01*
X146255326Y-81144900D01*
X146906488Y-81144900D01*
X146914400Y-81145344D01*
X146922312Y-81144900D01*
X146959626Y-81144900D01*
X146959629Y-81144900D01*
X147094730Y-81129678D01*
X147266018Y-81069742D01*
X147419674Y-80973193D01*
X147547993Y-80844874D01*
X147644542Y-80691218D01*
X147704478Y-80519930D01*
X147724796Y-80339600D01*
X147704478Y-80159270D01*
X147696250Y-80135757D01*
X147667685Y-80054122D01*
X147644542Y-79987982D01*
X147547993Y-79834326D01*
X147419674Y-79706007D01*
X147266018Y-79609458D01*
X147258266Y-79606745D01*
X147094733Y-79549522D01*
X147027179Y-79541911D01*
X146959629Y-79534300D01*
X146959626Y-79534300D01*
X146922312Y-79534300D01*
X146914400Y-79533855D01*
X146906488Y-79534300D01*
X146526974Y-79534300D01*
X146489088Y-79526764D01*
X146456970Y-79505304D01*
X142580953Y-75629287D01*
X142580948Y-75629280D01*
X142499538Y-75547871D01*
X144649500Y-75547871D01*
X144655909Y-75607484D01*
X144706203Y-75742330D01*
X144706204Y-75742331D01*
X144792454Y-75857546D01*
X144907669Y-75943796D01*
X145042517Y-75994091D01*
X145102127Y-76000500D01*
X146897872Y-76000499D01*
X146957483Y-75994091D01*
X147092331Y-75943796D01*
X147207546Y-75857546D01*
X147293796Y-75742331D01*
X147344091Y-75607483D01*
X147345609Y-75593359D01*
X147366403Y-75542516D01*
X147411104Y-75510583D01*
X147465947Y-75507398D01*
X147514042Y-75533938D01*
X147668599Y-75688495D01*
X147862170Y-75824035D01*
X147862171Y-75824035D01*
X147862172Y-75824036D01*
X148076332Y-75923901D01*
X148076333Y-75923901D01*
X148076337Y-75923903D01*
X148304592Y-75985063D01*
X148422079Y-75995342D01*
X148539999Y-76005659D01*
X148539999Y-76005658D01*
X148540000Y-76005659D01*
X148775408Y-75985063D01*
X149003663Y-75923903D01*
X149217830Y-75824035D01*
X149411401Y-75688495D01*
X149578495Y-75521401D01*
X149714035Y-75327830D01*
X149720276Y-75314445D01*
X149756807Y-75272790D01*
X149810000Y-75257286D01*
X149863193Y-75272790D01*
X149899723Y-75314445D01*
X149901335Y-75317900D01*
X149905966Y-75327832D01*
X150029475Y-75504221D01*
X150041505Y-75521401D01*
X150208599Y-75688495D01*
X150402170Y-75824035D01*
X150402171Y-75824035D01*
X150402172Y-75824036D01*
X150616332Y-75923901D01*
X150616333Y-75923901D01*
X150616337Y-75923903D01*
X150844592Y-75985063D01*
X150962079Y-75995342D01*
X151079999Y-76005659D01*
X151079999Y-76005658D01*
X151080000Y-76005659D01*
X151315408Y-75985063D01*
X151543663Y-75923903D01*
X151757830Y-75824035D01*
X151951401Y-75688495D01*
X152118495Y-75521401D01*
X152254035Y-75327830D01*
X152260276Y-75314445D01*
X152296807Y-75272790D01*
X152350000Y-75257286D01*
X152403193Y-75272790D01*
X152439723Y-75314445D01*
X152441335Y-75317900D01*
X152445966Y-75327832D01*
X152569475Y-75504221D01*
X152581505Y-75521401D01*
X152748599Y-75688495D01*
X152942170Y-75824035D01*
X152942171Y-75824035D01*
X152942172Y-75824036D01*
X153156332Y-75923901D01*
X153156333Y-75923901D01*
X153156337Y-75923903D01*
X153384592Y-75985063D01*
X153502079Y-75995342D01*
X153619999Y-76005659D01*
X153619999Y-76005658D01*
X153620000Y-76005659D01*
X153855408Y-75985063D01*
X154083663Y-75923903D01*
X154297830Y-75824035D01*
X154491401Y-75688495D01*
X154658495Y-75521401D01*
X154794035Y-75327830D01*
X154800276Y-75314445D01*
X154836807Y-75272790D01*
X154890000Y-75257286D01*
X154943193Y-75272790D01*
X154979723Y-75314445D01*
X154981335Y-75317900D01*
X154985966Y-75327832D01*
X155109475Y-75504221D01*
X155121505Y-75521401D01*
X155288599Y-75688495D01*
X155482170Y-75824035D01*
X155482171Y-75824035D01*
X155482172Y-75824036D01*
X155696332Y-75923901D01*
X155696333Y-75923901D01*
X155696337Y-75923903D01*
X155924592Y-75985063D01*
X156042079Y-75995342D01*
X156159999Y-76005659D01*
X156159999Y-76005658D01*
X156160000Y-76005659D01*
X156395408Y-75985063D01*
X156623663Y-75923903D01*
X156837830Y-75824035D01*
X157031401Y-75688495D01*
X157198495Y-75521401D01*
X157334035Y-75327830D01*
X157340276Y-75314445D01*
X157376807Y-75272790D01*
X157430000Y-75257286D01*
X157483193Y-75272790D01*
X157519723Y-75314445D01*
X157521335Y-75317900D01*
X157525966Y-75327832D01*
X157649475Y-75504221D01*
X157661505Y-75521401D01*
X157828599Y-75688495D01*
X158022170Y-75824035D01*
X158022171Y-75824035D01*
X158022172Y-75824036D01*
X158236332Y-75923901D01*
X158236333Y-75923901D01*
X158236337Y-75923903D01*
X158464592Y-75985063D01*
X158582079Y-75995342D01*
X158699999Y-76005659D01*
X158699999Y-76005658D01*
X158700000Y-76005659D01*
X158935408Y-75985063D01*
X159163663Y-75923903D01*
X159377830Y-75824035D01*
X159571401Y-75688495D01*
X159738495Y-75521401D01*
X159874035Y-75327830D01*
X159880276Y-75314445D01*
X159916807Y-75272790D01*
X159970000Y-75257286D01*
X160023193Y-75272790D01*
X160059723Y-75314445D01*
X160061335Y-75317900D01*
X160065966Y-75327832D01*
X160189475Y-75504221D01*
X160201505Y-75521401D01*
X160368599Y-75688495D01*
X160562170Y-75824035D01*
X160562171Y-75824035D01*
X160562172Y-75824036D01*
X160776332Y-75923901D01*
X160776333Y-75923901D01*
X160776337Y-75923903D01*
X161004592Y-75985063D01*
X161122079Y-75995342D01*
X161239999Y-76005659D01*
X161239999Y-76005658D01*
X161240000Y-76005659D01*
X161475408Y-75985063D01*
X161703663Y-75923903D01*
X161917830Y-75824035D01*
X162111401Y-75688495D01*
X162278495Y-75521401D01*
X162414035Y-75327830D01*
X162420276Y-75314445D01*
X162456807Y-75272790D01*
X162510000Y-75257286D01*
X162563193Y-75272790D01*
X162599723Y-75314445D01*
X162601335Y-75317900D01*
X162605966Y-75327832D01*
X162729475Y-75504221D01*
X162741505Y-75521401D01*
X162908599Y-75688495D01*
X163102170Y-75824035D01*
X163102171Y-75824035D01*
X163102172Y-75824036D01*
X163316332Y-75923901D01*
X163316333Y-75923901D01*
X163316337Y-75923903D01*
X163544592Y-75985063D01*
X163662079Y-75995342D01*
X163779999Y-76005659D01*
X163779999Y-76005658D01*
X163780000Y-76005659D01*
X164015408Y-75985063D01*
X164243663Y-75923903D01*
X164457830Y-75824035D01*
X164651401Y-75688495D01*
X164818495Y-75521401D01*
X164954035Y-75327830D01*
X165053903Y-75113663D01*
X165115063Y-74885408D01*
X165135659Y-74650000D01*
X165115063Y-74414592D01*
X165053903Y-74186337D01*
X165005930Y-74083460D01*
X164954036Y-73972173D01*
X164931324Y-73939737D01*
X164818495Y-73778599D01*
X164651401Y-73611505D01*
X164614323Y-73585543D01*
X164457827Y-73475963D01*
X164243667Y-73376098D01*
X164015405Y-73314936D01*
X163779999Y-73294340D01*
X163544594Y-73314936D01*
X163316332Y-73376098D01*
X163102173Y-73475963D01*
X162908602Y-73611502D01*
X162741502Y-73778602D01*
X162605964Y-73972171D01*
X162599724Y-73985554D01*
X162563192Y-74027210D01*
X162510000Y-74042714D01*
X162456808Y-74027210D01*
X162420276Y-73985554D01*
X162414035Y-73972171D01*
X162278497Y-73778602D01*
X162278495Y-73778599D01*
X162111401Y-73611505D01*
X162074323Y-73585543D01*
X161917827Y-73475963D01*
X161703667Y-73376098D01*
X161475405Y-73314936D01*
X161239999Y-73294340D01*
X161004594Y-73314936D01*
X160776332Y-73376098D01*
X160562173Y-73475963D01*
X160368602Y-73611502D01*
X160201502Y-73778602D01*
X160065964Y-73972171D01*
X160059724Y-73985554D01*
X160023192Y-74027210D01*
X159970000Y-74042714D01*
X159916808Y-74027210D01*
X159880276Y-73985554D01*
X159874035Y-73972171D01*
X159738497Y-73778602D01*
X159738495Y-73778599D01*
X159571401Y-73611505D01*
X159534323Y-73585543D01*
X159377827Y-73475963D01*
X159163667Y-73376098D01*
X158935405Y-73314936D01*
X158699999Y-73294340D01*
X158464594Y-73314936D01*
X158236332Y-73376098D01*
X158022173Y-73475963D01*
X157828602Y-73611502D01*
X157661502Y-73778602D01*
X157525964Y-73972171D01*
X157519724Y-73985554D01*
X157483192Y-74027210D01*
X157430000Y-74042714D01*
X157376808Y-74027210D01*
X157340276Y-73985554D01*
X157334035Y-73972171D01*
X157198497Y-73778602D01*
X157198495Y-73778599D01*
X157031401Y-73611505D01*
X157007515Y-73594780D01*
X156976486Y-73559399D01*
X156965300Y-73513685D01*
X156965300Y-72128598D01*
X156977410Y-72081153D01*
X157010776Y-72045314D01*
X157014226Y-72043097D01*
X157122887Y-71948943D01*
X157173903Y-71897927D01*
X157217139Y-71840170D01*
X157294871Y-71719216D01*
X157354658Y-71588300D01*
X157395165Y-71450345D01*
X157395859Y-71445520D01*
X157415647Y-71307892D01*
X157415647Y-70736000D01*
X157397600Y-70598922D01*
X157397600Y-70573078D01*
X157415647Y-70436000D01*
X157415647Y-69864108D01*
X157395166Y-69721659D01*
X157388272Y-69698181D01*
X157354658Y-69583700D01*
X157294871Y-69452784D01*
X157231588Y-69354313D01*
X157217140Y-69331831D01*
X157173906Y-69274077D01*
X157173905Y-69274076D01*
X157173903Y-69274073D01*
X157122887Y-69223057D01*
X157014226Y-69128903D01*
X157010775Y-69126685D01*
X156977410Y-69090847D01*
X156965300Y-69043402D01*
X156965300Y-65666312D01*
X156965744Y-65658399D01*
X156965300Y-65650488D01*
X156965300Y-65613174D01*
X156965300Y-65613171D01*
X156952549Y-65499999D01*
X159494390Y-65499999D01*
X159514803Y-65785425D01*
X159575632Y-66065049D01*
X159675632Y-66333160D01*
X159795519Y-66552715D01*
X159812774Y-66584315D01*
X159984261Y-66813395D01*
X160186605Y-67015739D01*
X160415685Y-67187226D01*
X160666839Y-67324367D01*
X160934954Y-67424369D01*
X161214572Y-67485196D01*
X161428552Y-67500500D01*
X161571446Y-67500500D01*
X161571448Y-67500500D01*
X161785428Y-67485196D01*
X162065046Y-67424369D01*
X162333161Y-67324367D01*
X162584315Y-67187226D01*
X162813395Y-67015739D01*
X163015739Y-66813395D01*
X163187226Y-66584315D01*
X163324367Y-66333161D01*
X163424369Y-66065046D01*
X163485196Y-65785428D01*
X163505610Y-65500000D01*
X163485196Y-65214572D01*
X163424369Y-64934954D01*
X163324367Y-64666839D01*
X163187226Y-64415685D01*
X163015739Y-64186605D01*
X162813395Y-63984261D01*
X162584315Y-63812774D01*
X162470264Y-63750497D01*
X162333160Y-63675632D01*
X162065049Y-63575632D01*
X162065048Y-63575631D01*
X162065046Y-63575631D01*
X161958574Y-63552469D01*
X161785426Y-63514803D01*
X161602053Y-63501688D01*
X161571448Y-63499500D01*
X161428552Y-63499500D01*
X161399988Y-63501542D01*
X161214573Y-63514803D01*
X161014159Y-63558401D01*
X160934954Y-63575631D01*
X160934953Y-63575631D01*
X160934950Y-63575632D01*
X160666839Y-63675632D01*
X160415689Y-63812771D01*
X160186605Y-63984261D01*
X159984261Y-64186605D01*
X159812771Y-64415689D01*
X159675632Y-64666839D01*
X159575632Y-64934950D01*
X159514803Y-65214574D01*
X159494390Y-65499999D01*
X156952549Y-65499999D01*
X156950078Y-65478070D01*
X156890142Y-65306782D01*
X156793593Y-65153126D01*
X156665274Y-65024807D01*
X156511618Y-64928258D01*
X156503866Y-64925545D01*
X156340333Y-64868322D01*
X156160000Y-64848004D01*
X155979666Y-64868322D01*
X155808384Y-64928257D01*
X155808382Y-64928257D01*
X155808382Y-64928258D01*
X155745612Y-64967699D01*
X155654727Y-65024806D01*
X155526406Y-65153127D01*
X155429857Y-65306784D01*
X155369922Y-65478066D01*
X155354700Y-65613174D01*
X155354700Y-65650488D01*
X155354255Y-65658399D01*
X155354700Y-65666312D01*
X155354700Y-69043402D01*
X155342590Y-69090847D01*
X155309224Y-69126686D01*
X155305775Y-69128902D01*
X155197115Y-69223055D01*
X155146093Y-69274077D01*
X155102859Y-69331831D01*
X155025131Y-69452779D01*
X154965342Y-69583700D01*
X154924833Y-69721659D01*
X154904353Y-69864108D01*
X154904353Y-70436000D01*
X154922400Y-70573077D01*
X154922400Y-70598921D01*
X154904353Y-70735999D01*
X154904353Y-71307892D01*
X154924833Y-71450340D01*
X154924891Y-71450537D01*
X154965342Y-71588300D01*
X155024235Y-71717258D01*
X155025131Y-71719220D01*
X155102859Y-71840168D01*
X155146093Y-71897922D01*
X155146097Y-71897927D01*
X155197113Y-71948943D01*
X155305774Y-72043097D01*
X155309224Y-72045314D01*
X155342590Y-72081153D01*
X155354700Y-72128598D01*
X155354700Y-73513685D01*
X155343514Y-73559399D01*
X155312484Y-73594780D01*
X155296507Y-73605967D01*
X155288600Y-73611504D01*
X155121502Y-73778602D01*
X154985964Y-73972171D01*
X154979724Y-73985554D01*
X154943192Y-74027210D01*
X154890000Y-74042714D01*
X154836808Y-74027210D01*
X154800276Y-73985554D01*
X154794035Y-73972171D01*
X154658497Y-73778602D01*
X154658495Y-73778599D01*
X154491401Y-73611505D01*
X154454323Y-73585543D01*
X154297827Y-73475963D01*
X154083667Y-73376098D01*
X153855405Y-73314936D01*
X153619999Y-73294340D01*
X153384594Y-73314936D01*
X153156332Y-73376098D01*
X152942173Y-73475963D01*
X152748602Y-73611502D01*
X152581502Y-73778602D01*
X152445964Y-73972171D01*
X152439724Y-73985554D01*
X152403192Y-74027210D01*
X152350000Y-74042714D01*
X152296808Y-74027210D01*
X152260276Y-73985554D01*
X152254035Y-73972171D01*
X152118497Y-73778602D01*
X152118495Y-73778599D01*
X151951401Y-73611505D01*
X151914323Y-73585543D01*
X151757827Y-73475963D01*
X151543667Y-73376098D01*
X151315405Y-73314936D01*
X151079999Y-73294340D01*
X150844594Y-73314936D01*
X150616332Y-73376098D01*
X150402173Y-73475963D01*
X150208602Y-73611502D01*
X150041502Y-73778602D01*
X149905964Y-73972171D01*
X149899724Y-73985554D01*
X149863192Y-74027210D01*
X149810000Y-74042714D01*
X149756808Y-74027210D01*
X149720276Y-73985554D01*
X149714035Y-73972171D01*
X149578497Y-73778602D01*
X149578495Y-73778599D01*
X149411401Y-73611505D01*
X149374323Y-73585543D01*
X149217827Y-73475963D01*
X149003667Y-73376098D01*
X148775405Y-73314936D01*
X148539999Y-73294340D01*
X148304594Y-73314936D01*
X148076332Y-73376098D01*
X147862173Y-73475963D01*
X147668598Y-73611505D01*
X147514044Y-73766059D01*
X147465946Y-73792601D01*
X147411103Y-73789415D01*
X147366402Y-73757481D01*
X147345608Y-73706633D01*
X147345363Y-73704352D01*
X147344091Y-73692517D01*
X147293796Y-73557669D01*
X147207546Y-73442454D01*
X147092331Y-73356204D01*
X147092330Y-73356203D01*
X146981688Y-73314937D01*
X146957483Y-73305909D01*
X146897873Y-73299500D01*
X146897869Y-73299500D01*
X145102128Y-73299500D01*
X145042515Y-73305909D01*
X144907669Y-73356203D01*
X144792454Y-73442454D01*
X144706203Y-73557669D01*
X144657924Y-73687115D01*
X144655909Y-73692517D01*
X144649500Y-73752127D01*
X144649500Y-73752130D01*
X144649500Y-75547871D01*
X142499538Y-75547871D01*
X142441273Y-75489606D01*
X142407446Y-75468351D01*
X142398392Y-75461927D01*
X142367156Y-75437017D01*
X142344955Y-75426325D01*
X142331162Y-75419683D01*
X142321451Y-75414316D01*
X142287619Y-75393058D01*
X142249913Y-75379864D01*
X142239658Y-75375616D01*
X142203658Y-75358280D01*
X142164704Y-75349389D01*
X142154037Y-75346316D01*
X142116328Y-75333121D01*
X142076631Y-75328648D01*
X142065691Y-75326789D01*
X142026737Y-75317899D01*
X142026735Y-75317899D01*
X141845265Y-75317899D01*
X141833082Y-75317899D01*
X141833074Y-75317900D01*
X141385112Y-75317900D01*
X141377200Y-75317455D01*
X141369288Y-75317900D01*
X141331971Y-75317900D01*
X141274070Y-75324423D01*
X141196866Y-75333122D01*
X141025584Y-75393057D01*
X141025582Y-75393057D01*
X141025582Y-75393058D01*
X140983204Y-75419686D01*
X140871927Y-75489606D01*
X140743606Y-75617927D01*
X140647057Y-75771584D01*
X140587122Y-75942866D01*
X140566804Y-76123200D01*
X139705382Y-76123200D01*
X140643811Y-75184771D01*
X151811490Y-64017090D01*
X151855869Y-63991469D01*
X151907110Y-63991469D01*
X152114592Y-64047063D01*
X152350000Y-64067659D01*
X152585408Y-64047063D01*
X152813663Y-63985903D01*
X153027830Y-63886035D01*
X153221401Y-63750495D01*
X153376411Y-63595484D01*
X153424506Y-63568943D01*
X153479348Y-63572128D01*
X153524050Y-63604060D01*
X153544846Y-63654906D01*
X153546401Y-63669376D01*
X153596646Y-63804089D01*
X153682811Y-63919188D01*
X153797910Y-64005353D01*
X153932623Y-64055598D01*
X153992174Y-64062000D01*
X154639999Y-64062000D01*
X154640000Y-64061999D01*
X155140000Y-64061999D01*
X155140001Y-64062000D01*
X155787826Y-64062000D01*
X155847376Y-64055598D01*
X155982089Y-64005353D01*
X156097188Y-63919188D01*
X156183353Y-63804089D01*
X156233598Y-63669376D01*
X156240000Y-63609826D01*
X156240000Y-62962001D01*
X156239999Y-62962000D01*
X155140001Y-62962000D01*
X155140000Y-62962001D01*
X155140000Y-64061999D01*
X154640000Y-64061999D01*
X154640000Y-62461999D01*
X155140000Y-62461999D01*
X155140001Y-62462000D01*
X156239999Y-62462000D01*
X156240000Y-62461999D01*
X156240000Y-61814174D01*
X156233598Y-61754623D01*
X156183353Y-61619910D01*
X156097188Y-61504811D01*
X155982089Y-61418646D01*
X155847376Y-61368401D01*
X155787826Y-61362000D01*
X155140001Y-61362000D01*
X155140000Y-61362001D01*
X155140000Y-62461999D01*
X154640000Y-62461999D01*
X154640000Y-61362001D01*
X154639999Y-61362000D01*
X153992174Y-61362000D01*
X153932623Y-61368401D01*
X153797910Y-61418646D01*
X153682811Y-61504811D01*
X153596646Y-61619910D01*
X153546401Y-61754623D01*
X153544846Y-61769094D01*
X153524049Y-61819940D01*
X153479348Y-61851871D01*
X153424506Y-61855056D01*
X153376411Y-61828515D01*
X153221401Y-61673505D01*
X153185697Y-61648505D01*
X153027827Y-61537963D01*
X152813667Y-61438098D01*
X152585405Y-61376936D01*
X152350000Y-61356340D01*
X152114594Y-61376936D01*
X151886332Y-61438098D01*
X151672173Y-61537963D01*
X151478602Y-61673502D01*
X151311502Y-61840602D01*
X151175964Y-62034171D01*
X151169724Y-62047554D01*
X151133192Y-62089210D01*
X151080000Y-62104714D01*
X151026808Y-62089210D01*
X150990276Y-62047554D01*
X150984035Y-62034171D01*
X150848497Y-61840602D01*
X150848495Y-61840599D01*
X150681401Y-61673505D01*
X150645697Y-61648505D01*
X150487827Y-61537963D01*
X150273667Y-61438098D01*
X150045405Y-61376936D01*
X149810000Y-61356340D01*
X149574594Y-61376936D01*
X149346332Y-61438098D01*
X149132173Y-61537963D01*
X148938602Y-61673502D01*
X148771502Y-61840602D01*
X148635964Y-62034171D01*
X148629724Y-62047554D01*
X148593192Y-62089210D01*
X148540000Y-62104714D01*
X148486808Y-62089210D01*
X148450276Y-62047554D01*
X148444035Y-62034171D01*
X148308497Y-61840602D01*
X148308495Y-61840599D01*
X148141401Y-61673505D01*
X148105697Y-61648505D01*
X147947827Y-61537963D01*
X147733667Y-61438098D01*
X147505405Y-61376936D01*
X147270000Y-61356340D01*
X147034594Y-61376936D01*
X146806332Y-61438098D01*
X146592173Y-61537963D01*
X146398602Y-61673502D01*
X146231502Y-61840602D01*
X146095963Y-62034173D01*
X145996098Y-62248332D01*
X145934936Y-62476594D01*
X145914340Y-62711999D01*
X145934936Y-62947405D01*
X145996098Y-63175667D01*
X146095963Y-63389827D01*
X146223611Y-63572128D01*
X146231505Y-63583401D01*
X146398599Y-63750495D01*
X146592170Y-63886035D01*
X146592171Y-63886035D01*
X146592172Y-63886036D01*
X146806332Y-63985901D01*
X146806333Y-63985901D01*
X146806337Y-63985903D01*
X147019726Y-64043079D01*
X147064105Y-64068702D01*
X147089729Y-64113083D01*
X147089729Y-64164329D01*
X147064106Y-64208710D01*
X141978314Y-69294504D01*
X141946196Y-69315964D01*
X141908310Y-69323500D01*
X140194829Y-69323500D01*
X140164236Y-69318655D01*
X140136639Y-69304593D01*
X140051930Y-69243049D01*
X140007028Y-69223057D01*
X139879004Y-69166056D01*
X139817283Y-69152937D01*
X139693846Y-69126700D01*
X139504554Y-69126700D01*
X139411975Y-69146377D01*
X139319395Y-69166056D01*
X139146471Y-69243048D01*
X138993326Y-69354313D01*
X138866668Y-69494981D01*
X138772021Y-69658915D01*
X138772021Y-69658916D01*
X138713526Y-69838944D01*
X138693740Y-70027200D01*
X138713526Y-70215456D01*
X138737324Y-70288699D01*
X138772021Y-70395484D01*
X138866668Y-70559418D01*
X138993326Y-70700086D01*
X138993329Y-70700088D01*
X139146470Y-70811351D01*
X139319397Y-70888344D01*
X139504554Y-70927700D01*
X139693844Y-70927700D01*
X139693846Y-70927700D01*
X139879003Y-70888344D01*
X140051930Y-70811351D01*
X140136639Y-70749806D01*
X140164236Y-70735745D01*
X140194829Y-70730900D01*
X141572910Y-70730900D01*
X141627911Y-70747585D01*
X141664374Y-70792014D01*
X141670008Y-70849214D01*
X141642914Y-70899904D01*
X135526714Y-77016104D01*
X135494596Y-77037564D01*
X135456710Y-77045100D01*
X135389598Y-77045100D01*
X135336927Y-77029926D01*
X135325920Y-77023010D01*
X135155658Y-76963432D01*
X134976400Y-76943235D01*
X134797141Y-76963432D01*
X134626880Y-77023010D01*
X134474139Y-77118983D01*
X134346583Y-77246539D01*
X134307230Y-77309169D01*
X134270197Y-77368108D01*
X134250610Y-77399280D01*
X134191032Y-77569541D01*
X134170835Y-77748800D01*
X134191032Y-77928058D01*
X134231203Y-78042857D01*
X134250611Y-78098322D01*
X134346584Y-78251062D01*
X134474138Y-78378616D01*
X134567718Y-78437416D01*
X134598871Y-78468569D01*
X134613423Y-78510156D01*
X134608491Y-78553937D01*
X134597432Y-78585542D01*
X134578016Y-78757870D01*
X134577235Y-78764800D01*
X134594295Y-78916218D01*
X134585114Y-78970255D01*
X134548589Y-79011126D01*
X134495918Y-79026300D01*
X133017892Y-79026300D01*
X132970446Y-79014190D01*
X132934608Y-78980823D01*
X132887798Y-78907986D01*
X132867097Y-78875774D01*
X132787878Y-78784350D01*
X132769942Y-78754118D01*
X132763700Y-78719521D01*
X132763700Y-78200479D01*
X132769942Y-78165882D01*
X132787880Y-78135648D01*
X132867097Y-78044226D01*
X132944904Y-77923155D01*
X133004632Y-77792370D01*
X133029844Y-77724773D01*
X133045180Y-77654277D01*
X133065642Y-77511962D01*
X133070789Y-77440000D01*
X133065899Y-77371631D01*
X133065647Y-77364568D01*
X133065647Y-77015432D01*
X133065899Y-77008369D01*
X133066000Y-77006955D01*
X133070789Y-76940000D01*
X133065642Y-76868038D01*
X133045180Y-76725723D01*
X133029844Y-76655227D01*
X133004632Y-76587630D01*
X132944904Y-76456845D01*
X132867097Y-76335774D01*
X132787878Y-76244350D01*
X132769942Y-76214118D01*
X132763700Y-76179521D01*
X132763700Y-75660479D01*
X132769942Y-75625882D01*
X132787880Y-75595648D01*
X132791847Y-75591070D01*
X132867097Y-75504226D01*
X132944904Y-75383155D01*
X133004632Y-75252370D01*
X133029844Y-75184773D01*
X133045180Y-75114277D01*
X133065642Y-74971962D01*
X133070789Y-74900000D01*
X133065899Y-74831631D01*
X133065647Y-74824568D01*
X133065647Y-74475432D01*
X133065899Y-74468369D01*
X133066000Y-74466955D01*
X133070789Y-74400000D01*
X133065642Y-74328038D01*
X133045180Y-74185723D01*
X133029844Y-74115227D01*
X133004632Y-74047630D01*
X132944904Y-73916845D01*
X132867097Y-73795774D01*
X132787878Y-73704350D01*
X132769942Y-73674118D01*
X132763700Y-73639521D01*
X132763700Y-73120479D01*
X132769942Y-73085882D01*
X132787880Y-73055648D01*
X132791846Y-73051071D01*
X132867097Y-72964226D01*
X132944904Y-72843155D01*
X133004632Y-72712370D01*
X133029844Y-72644773D01*
X133045180Y-72574277D01*
X133065642Y-72431962D01*
X133070789Y-72360000D01*
X133065899Y-72291631D01*
X133065647Y-72284568D01*
X133065647Y-71935432D01*
X133065899Y-71928369D01*
X133068076Y-71897927D01*
X133070789Y-71860000D01*
X133065642Y-71788038D01*
X133045180Y-71645723D01*
X133029844Y-71575227D01*
X133016831Y-71540337D01*
X134628299Y-71540337D01*
X134637189Y-71579291D01*
X134639048Y-71590231D01*
X134643521Y-71629928D01*
X134656716Y-71667637D01*
X134659789Y-71678304D01*
X134668680Y-71717258D01*
X134686016Y-71753258D01*
X134690264Y-71763513D01*
X134703458Y-71801219D01*
X134724716Y-71835051D01*
X134730086Y-71844767D01*
X134747417Y-71880756D01*
X134772327Y-71911992D01*
X134778751Y-71921046D01*
X134800006Y-71954873D01*
X134928326Y-72083194D01*
X134928326Y-72083193D01*
X135104807Y-72259674D01*
X135104806Y-72259674D01*
X135205132Y-72359999D01*
X135233126Y-72387993D01*
X135266964Y-72409254D01*
X135276005Y-72415670D01*
X135307242Y-72440582D01*
X135329094Y-72451104D01*
X135343240Y-72457917D01*
X135352943Y-72463279D01*
X135386782Y-72484542D01*
X135386784Y-72484543D01*
X135424492Y-72497737D01*
X135434749Y-72501985D01*
X135470743Y-72519320D01*
X135509705Y-72528211D01*
X135520347Y-72531277D01*
X135558070Y-72544478D01*
X135597771Y-72548950D01*
X135608718Y-72550810D01*
X135647665Y-72559700D01*
X135693171Y-72559700D01*
X135829135Y-72559700D01*
X136594088Y-72559700D01*
X136602000Y-72560144D01*
X136609912Y-72559700D01*
X136647226Y-72559700D01*
X136647229Y-72559700D01*
X136782330Y-72544478D01*
X136953618Y-72484542D01*
X137107274Y-72387993D01*
X137235593Y-72259674D01*
X137332142Y-72106018D01*
X137392078Y-71934730D01*
X137412396Y-71754400D01*
X137392078Y-71574070D01*
X137380274Y-71540337D01*
X137348783Y-71450340D01*
X137332142Y-71402782D01*
X137235593Y-71249126D01*
X137226668Y-71240201D01*
X137201047Y-71195823D01*
X137201047Y-71144577D01*
X137226668Y-71100198D01*
X137235593Y-71091274D01*
X137332142Y-70937618D01*
X137392078Y-70766330D01*
X137407300Y-70631229D01*
X137407300Y-70593912D01*
X137407744Y-70586000D01*
X137407300Y-70578088D01*
X137407300Y-67709374D01*
X137414836Y-67671488D01*
X137436296Y-67639370D01*
X138262272Y-66813394D01*
X141045729Y-64029935D01*
X141090108Y-64004314D01*
X141141352Y-64004314D01*
X141207592Y-64022063D01*
X141443000Y-64042659D01*
X141678408Y-64022063D01*
X141906663Y-63960903D01*
X142120830Y-63861035D01*
X142314401Y-63725495D01*
X142481495Y-63558401D01*
X142617035Y-63364830D01*
X142716903Y-63150663D01*
X142778063Y-62922408D01*
X142798659Y-62687000D01*
X142778063Y-62451592D01*
X142716903Y-62223337D01*
X142634933Y-62047554D01*
X142617036Y-62009173D01*
X142484534Y-61819940D01*
X142481495Y-61815599D01*
X142314401Y-61648505D01*
X142237859Y-61594910D01*
X142120827Y-61512963D01*
X141906667Y-61413098D01*
X141678405Y-61351936D01*
X141443000Y-61331340D01*
X141207594Y-61351936D01*
X140979332Y-61413098D01*
X140765173Y-61512963D01*
X140571602Y-61648502D01*
X140404502Y-61815602D01*
X140268964Y-62009171D01*
X140262724Y-62022554D01*
X140226192Y-62064210D01*
X140173000Y-62079714D01*
X140119808Y-62064210D01*
X140083276Y-62022554D01*
X140077035Y-62009171D01*
X139949387Y-61826870D01*
X139941495Y-61815599D01*
X139774401Y-61648505D01*
X139697859Y-61594910D01*
X139580827Y-61512963D01*
X139366667Y-61413098D01*
X139138405Y-61351936D01*
X138903000Y-61331340D01*
X138667594Y-61351936D01*
X138439332Y-61413098D01*
X138225173Y-61512963D01*
X138031598Y-61648505D01*
X137876589Y-61803514D01*
X137828492Y-61830056D01*
X137773649Y-61826870D01*
X137728948Y-61794937D01*
X137708153Y-61744090D01*
X137706598Y-61729622D01*
X137656353Y-61594910D01*
X137570188Y-61479811D01*
X137455089Y-61393646D01*
X137320376Y-61343401D01*
X137260826Y-61337000D01*
X136613001Y-61337000D01*
X136613000Y-61337001D01*
X136613000Y-64036999D01*
X136613001Y-64037000D01*
X136794725Y-64037000D01*
X136849726Y-64053685D01*
X136886189Y-64098114D01*
X136891823Y-64155314D01*
X136864729Y-64206004D01*
X134800006Y-66270726D01*
X134778749Y-66304556D01*
X134772326Y-66313607D01*
X134747419Y-66344840D01*
X134730081Y-66380841D01*
X134724713Y-66390553D01*
X134703459Y-66424380D01*
X134690263Y-66462090D01*
X134686016Y-66472343D01*
X134668678Y-66508346D01*
X134659787Y-66547299D01*
X134656716Y-66557962D01*
X134643521Y-66595673D01*
X134639048Y-66635369D01*
X134637189Y-66646309D01*
X134628299Y-66685263D01*
X134628299Y-66878918D01*
X134628300Y-66878926D01*
X134628300Y-71346674D01*
X134628299Y-71346682D01*
X134628299Y-71540337D01*
X133016831Y-71540337D01*
X133004632Y-71507630D01*
X132944904Y-71376845D01*
X132867097Y-71255774D01*
X132772943Y-71147113D01*
X132762693Y-71136863D01*
X132741236Y-71104749D01*
X132733700Y-71066863D01*
X132733700Y-70813447D01*
X132733881Y-70807469D01*
X132737575Y-70746400D01*
X132734734Y-70730900D01*
X132726543Y-70686204D01*
X132725645Y-70680301D01*
X132723525Y-70662843D01*
X132718270Y-70619557D01*
X132713834Y-70607864D01*
X132709023Y-70590602D01*
X132708611Y-70588352D01*
X132706771Y-70578310D01*
X132681647Y-70522489D01*
X132679372Y-70516995D01*
X132657671Y-70459773D01*
X132650565Y-70449479D01*
X132641770Y-70433883D01*
X132636636Y-70422476D01*
X132598873Y-70374276D01*
X132595364Y-70369506D01*
X132560595Y-70319134D01*
X132514798Y-70278561D01*
X132510460Y-70274478D01*
X131985920Y-69749938D01*
X131981838Y-69745601D01*
X131941266Y-69699805D01*
X131890915Y-69665051D01*
X131886103Y-69661509D01*
X131837928Y-69623765D01*
X131826517Y-69618630D01*
X131810914Y-69609830D01*
X131800627Y-69602729D01*
X131743409Y-69581028D01*
X131737888Y-69578741D01*
X131682088Y-69553629D01*
X131669801Y-69551377D01*
X131652544Y-69546567D01*
X131640843Y-69542129D01*
X131580087Y-69534752D01*
X131574178Y-69533853D01*
X131513997Y-69522825D01*
X131452941Y-69526519D01*
X131446964Y-69526700D01*
X131304829Y-69526700D01*
X131274236Y-69521855D01*
X131246639Y-69507793D01*
X131161930Y-69446249D01*
X131161928Y-69446248D01*
X130989004Y-69369256D01*
X130918696Y-69354312D01*
X130803846Y-69329900D01*
X130614554Y-69329900D01*
X130521975Y-69349578D01*
X130429395Y-69369256D01*
X130256471Y-69446248D01*
X130103326Y-69557513D01*
X129976668Y-69698181D01*
X129882021Y-69862115D01*
X129828382Y-70027199D01*
X129823526Y-70042144D01*
X129803740Y-70230400D01*
X129823526Y-70418656D01*
X129877813Y-70585732D01*
X129882021Y-70598684D01*
X129976668Y-70762618D01*
X130034045Y-70826341D01*
X130103329Y-70903288D01*
X130122767Y-70917410D01*
X130158585Y-70966462D01*
X130159020Y-71027197D01*
X130123907Y-71076757D01*
X130098073Y-71096097D01*
X130098071Y-71096098D01*
X130093827Y-71099276D01*
X130050915Y-71117652D01*
X130004353Y-71114322D01*
X129964493Y-71090027D01*
X129666480Y-70792014D01*
X129367051Y-70492585D01*
X129367045Y-70492580D01*
X129337880Y-70469321D01*
X129331978Y-70464047D01*
X129325516Y-70459462D01*
X129260757Y-70407818D01*
X129235145Y-70395484D01*
X129186137Y-70371883D01*
X129179210Y-70368053D01*
X129171887Y-70365020D01*
X129097256Y-70329079D01*
X129016501Y-70310648D01*
X129008903Y-70308459D01*
X129001105Y-70307133D01*
X128920336Y-70288699D01*
X128920335Y-70288699D01*
X128837499Y-70288699D01*
X128829600Y-70288255D01*
X128821701Y-70288699D01*
X128738864Y-70288699D01*
X128658090Y-70307134D01*
X128650295Y-70308459D01*
X128642703Y-70310646D01*
X128561941Y-70329080D01*
X128487305Y-70365023D01*
X128479994Y-70368052D01*
X128473073Y-70371877D01*
X128398445Y-70407817D01*
X128398443Y-70407818D01*
X128380062Y-70422476D01*
X128333661Y-70459478D01*
X128327219Y-70464050D01*
X128321332Y-70469310D01*
X128256563Y-70520963D01*
X128204910Y-70585732D01*
X128199650Y-70591619D01*
X128195077Y-70598061D01*
X128143418Y-70662843D01*
X128143417Y-70662844D01*
X128143417Y-70662845D01*
X128107477Y-70737473D01*
X128103652Y-70744394D01*
X128100623Y-70751705D01*
X128064680Y-70826341D01*
X128046246Y-70907103D01*
X128044059Y-70914695D01*
X128042734Y-70922490D01*
X128024299Y-71003264D01*
X128024299Y-71086101D01*
X128023855Y-71093999D01*
X128024299Y-71101899D01*
X128024299Y-71184736D01*
X128042733Y-71265505D01*
X128044059Y-71273303D01*
X128046248Y-71280901D01*
X128064679Y-71361656D01*
X128100620Y-71436287D01*
X128103653Y-71443610D01*
X128107483Y-71450537D01*
X128143418Y-71525157D01*
X128193772Y-71588299D01*
X128195059Y-71589912D01*
X128199647Y-71596378D01*
X128204921Y-71602280D01*
X128226970Y-71629928D01*
X128228185Y-71631451D01*
X129313605Y-72716871D01*
X129313607Y-72716874D01*
X129441926Y-72845193D01*
X129441928Y-72845194D01*
X129441929Y-72845195D01*
X129475754Y-72866449D01*
X129484808Y-72872873D01*
X129516042Y-72897782D01*
X129537894Y-72908304D01*
X129552040Y-72915117D01*
X129561743Y-72920479D01*
X129595582Y-72941742D01*
X129595584Y-72941743D01*
X129633292Y-72954937D01*
X129643549Y-72959185D01*
X129679543Y-72976520D01*
X129718497Y-72985410D01*
X129729147Y-72988477D01*
X129766870Y-73001678D01*
X129806580Y-73006152D01*
X129817495Y-73008006D01*
X129856465Y-73016901D01*
X129953334Y-73016901D01*
X129994461Y-73025848D01*
X130028153Y-73051070D01*
X130047057Y-73072887D01*
X130098073Y-73123903D01*
X130098076Y-73123905D01*
X130098077Y-73123906D01*
X130155831Y-73167140D01*
X130276779Y-73244868D01*
X130276784Y-73244871D01*
X130375487Y-73289946D01*
X130417644Y-73326476D01*
X130433360Y-73380000D01*
X130417644Y-73433524D01*
X130375487Y-73470053D01*
X130362542Y-73475965D01*
X130276779Y-73515131D01*
X130155831Y-73592859D01*
X130098077Y-73636093D01*
X130047055Y-73687115D01*
X130030143Y-73706633D01*
X129955653Y-73792601D01*
X129952900Y-73795778D01*
X129885392Y-73900823D01*
X129849554Y-73934190D01*
X129802108Y-73946300D01*
X129356575Y-73946300D01*
X129318689Y-73938764D01*
X129286571Y-73917304D01*
X128980769Y-73611502D01*
X128046251Y-72676985D01*
X128046245Y-72676980D01*
X128017080Y-72653721D01*
X128011178Y-72648447D01*
X128004716Y-72643862D01*
X127939957Y-72592218D01*
X127865337Y-72556283D01*
X127858410Y-72552453D01*
X127851087Y-72549420D01*
X127776456Y-72513479D01*
X127695701Y-72495048D01*
X127688103Y-72492859D01*
X127680305Y-72491533D01*
X127599536Y-72473099D01*
X127599535Y-72473099D01*
X127516699Y-72473099D01*
X127508800Y-72472655D01*
X127500901Y-72473099D01*
X127418064Y-72473099D01*
X127337290Y-72491534D01*
X127329495Y-72492859D01*
X127321903Y-72495046D01*
X127241141Y-72513480D01*
X127166505Y-72549423D01*
X127159194Y-72552452D01*
X127152273Y-72556277D01*
X127077645Y-72592217D01*
X127077643Y-72592218D01*
X127018101Y-72639699D01*
X127012861Y-72643878D01*
X127006419Y-72648450D01*
X127000532Y-72653710D01*
X126935763Y-72705363D01*
X126884110Y-72770132D01*
X126878850Y-72776019D01*
X126874278Y-72782461D01*
X126822617Y-72847243D01*
X126802704Y-72888593D01*
X126763008Y-72931373D01*
X126706110Y-72944359D01*
X126651784Y-72923037D01*
X126619157Y-72897018D01*
X126544537Y-72861083D01*
X126537610Y-72857253D01*
X126530287Y-72854220D01*
X126455656Y-72818279D01*
X126374901Y-72799848D01*
X126367303Y-72797659D01*
X126359505Y-72796333D01*
X126278736Y-72777899D01*
X126278735Y-72777899D01*
X126195899Y-72777899D01*
X126188000Y-72777455D01*
X126180101Y-72777899D01*
X126097264Y-72777899D01*
X126016490Y-72796334D01*
X126008695Y-72797659D01*
X126001103Y-72799846D01*
X125920341Y-72818280D01*
X125845705Y-72854223D01*
X125838394Y-72857252D01*
X125831473Y-72861077D01*
X125756845Y-72897017D01*
X125756843Y-72897018D01*
X125713762Y-72931373D01*
X125692061Y-72948678D01*
X125685619Y-72953250D01*
X125679732Y-72958510D01*
X125614963Y-73010163D01*
X125563310Y-73074932D01*
X125558050Y-73080819D01*
X125553477Y-73087261D01*
X125501818Y-73152043D01*
X125501817Y-73152044D01*
X125501817Y-73152045D01*
X125465877Y-73226673D01*
X125462052Y-73233594D01*
X125459023Y-73240905D01*
X125423080Y-73315541D01*
X125404646Y-73396303D01*
X125402459Y-73403895D01*
X125401134Y-73411690D01*
X125382699Y-73492464D01*
X125382699Y-73575301D01*
X125382255Y-73583200D01*
X124800500Y-73583200D01*
X124800500Y-65499999D01*
X128494390Y-65499999D01*
X128514803Y-65785425D01*
X128575632Y-66065049D01*
X128675632Y-66333160D01*
X128795519Y-66552715D01*
X128812774Y-66584315D01*
X128984261Y-66813395D01*
X129186605Y-67015739D01*
X129415685Y-67187226D01*
X129666839Y-67324367D01*
X129934954Y-67424369D01*
X130214572Y-67485196D01*
X130428552Y-67500500D01*
X130571446Y-67500500D01*
X130571448Y-67500500D01*
X130785428Y-67485196D01*
X131065046Y-67424369D01*
X131333161Y-67324367D01*
X131584315Y-67187226D01*
X131813395Y-67015739D01*
X132015739Y-66813395D01*
X132187226Y-66584315D01*
X132324367Y-66333161D01*
X132424369Y-66065046D01*
X132485196Y-65785428D01*
X132505610Y-65500000D01*
X132485196Y-65214572D01*
X132424369Y-64934954D01*
X132324367Y-64666839D01*
X132187226Y-64415685D01*
X132015739Y-64186605D01*
X131813395Y-63984261D01*
X131584315Y-63812774D01*
X131470264Y-63750497D01*
X131333160Y-63675632D01*
X131089699Y-63584826D01*
X135013000Y-63584826D01*
X135019401Y-63644376D01*
X135069646Y-63779089D01*
X135155811Y-63894188D01*
X135270910Y-63980353D01*
X135405623Y-64030598D01*
X135465174Y-64037000D01*
X136112999Y-64037000D01*
X136113000Y-64036999D01*
X136113000Y-62937001D01*
X136112999Y-62937000D01*
X135013001Y-62937000D01*
X135013000Y-62937001D01*
X135013000Y-63584826D01*
X131089699Y-63584826D01*
X131065049Y-63575632D01*
X131065048Y-63575631D01*
X131065046Y-63575631D01*
X130958574Y-63552469D01*
X130785426Y-63514803D01*
X130602053Y-63501688D01*
X130571448Y-63499500D01*
X130428552Y-63499500D01*
X130399988Y-63501542D01*
X130214573Y-63514803D01*
X130014159Y-63558401D01*
X129934954Y-63575631D01*
X129934953Y-63575631D01*
X129934950Y-63575632D01*
X129666839Y-63675632D01*
X129415689Y-63812771D01*
X129186605Y-63984261D01*
X128984261Y-64186605D01*
X128812771Y-64415689D01*
X128675632Y-64666839D01*
X128575632Y-64934950D01*
X128514803Y-65214574D01*
X128494390Y-65499999D01*
X124800500Y-65499999D01*
X124800500Y-64441216D01*
X124808036Y-64403330D01*
X124829496Y-64371212D01*
X126763709Y-62436999D01*
X135013000Y-62436999D01*
X135013001Y-62437000D01*
X136112999Y-62437000D01*
X136113000Y-62436999D01*
X136113000Y-61337001D01*
X136112999Y-61337000D01*
X135465174Y-61337000D01*
X135405623Y-61343401D01*
X135270910Y-61393646D01*
X135155811Y-61479811D01*
X135069646Y-61594910D01*
X135019401Y-61729623D01*
X135013000Y-61789174D01*
X135013000Y-62436999D01*
X126763709Y-62436999D01*
X126985741Y-62214967D01*
X129304511Y-59896195D01*
X129336629Y-59874736D01*
X129374515Y-59867200D01*
X162621392Y-59867200D01*
X162659278Y-59874736D01*
G37*
%TD.AperFunction*%
%TD*%
M02*
