%TF.GenerationSoftware,KiCad,Pcbnew,7.0.1*%
%TF.CreationDate,2024-04-15T22:24:01+02:00*%
%TF.ProjectId,nema17_driver,6e656d61-3137-45f6-9472-697665722e6b,rev?*%
%TF.SameCoordinates,Original*%
%TF.FileFunction,Legend,Bot*%
%TF.FilePolarity,Positive*%
%FSLAX46Y46*%
G04 Gerber Fmt 4.6, Leading zero omitted, Abs format (unit mm)*
G04 Created by KiCad (PCBNEW 7.0.1) date 2024-04-15 22:24:01*
%MOMM*%
%LPD*%
G01*
G04 APERTURE LIST*
%ADD10C,0.150000*%
%ADD11C,0.300000*%
%ADD12C,0.250000*%
%ADD13C,0.120000*%
G04 APERTURE END LIST*
D10*
X153381904Y-100943619D02*
X153381904Y-99943619D01*
X153381904Y-100324571D02*
X153286666Y-100276952D01*
X153286666Y-100276952D02*
X153096190Y-100276952D01*
X153096190Y-100276952D02*
X153000952Y-100324571D01*
X153000952Y-100324571D02*
X152953333Y-100372190D01*
X152953333Y-100372190D02*
X152905714Y-100467428D01*
X152905714Y-100467428D02*
X152905714Y-100753142D01*
X152905714Y-100753142D02*
X152953333Y-100848380D01*
X152953333Y-100848380D02*
X153000952Y-100896000D01*
X153000952Y-100896000D02*
X153096190Y-100943619D01*
X153096190Y-100943619D02*
X153286666Y-100943619D01*
X153286666Y-100943619D02*
X153381904Y-100896000D01*
X152334285Y-100943619D02*
X152429523Y-100896000D01*
X152429523Y-100896000D02*
X152477142Y-100848380D01*
X152477142Y-100848380D02*
X152524761Y-100753142D01*
X152524761Y-100753142D02*
X152524761Y-100467428D01*
X152524761Y-100467428D02*
X152477142Y-100372190D01*
X152477142Y-100372190D02*
X152429523Y-100324571D01*
X152429523Y-100324571D02*
X152334285Y-100276952D01*
X152334285Y-100276952D02*
X152191428Y-100276952D01*
X152191428Y-100276952D02*
X152096190Y-100324571D01*
X152096190Y-100324571D02*
X152048571Y-100372190D01*
X152048571Y-100372190D02*
X152000952Y-100467428D01*
X152000952Y-100467428D02*
X152000952Y-100753142D01*
X152000952Y-100753142D02*
X152048571Y-100848380D01*
X152048571Y-100848380D02*
X152096190Y-100896000D01*
X152096190Y-100896000D02*
X152191428Y-100943619D01*
X152191428Y-100943619D02*
X152334285Y-100943619D01*
X151715237Y-100276952D02*
X151334285Y-100276952D01*
X151572380Y-99943619D02*
X151572380Y-100800761D01*
X151572380Y-100800761D02*
X151524761Y-100896000D01*
X151524761Y-100896000D02*
X151429523Y-100943619D01*
X151429523Y-100943619D02*
X151334285Y-100943619D01*
X151143808Y-100276952D02*
X150762856Y-100276952D01*
X151000951Y-99943619D02*
X151000951Y-100800761D01*
X151000951Y-100800761D02*
X150953332Y-100896000D01*
X150953332Y-100896000D02*
X150858094Y-100943619D01*
X150858094Y-100943619D02*
X150762856Y-100943619D01*
X150286665Y-100943619D02*
X150381903Y-100896000D01*
X150381903Y-100896000D02*
X150429522Y-100848380D01*
X150429522Y-100848380D02*
X150477141Y-100753142D01*
X150477141Y-100753142D02*
X150477141Y-100467428D01*
X150477141Y-100467428D02*
X150429522Y-100372190D01*
X150429522Y-100372190D02*
X150381903Y-100324571D01*
X150381903Y-100324571D02*
X150286665Y-100276952D01*
X150286665Y-100276952D02*
X150143808Y-100276952D01*
X150143808Y-100276952D02*
X150048570Y-100324571D01*
X150048570Y-100324571D02*
X150000951Y-100372190D01*
X150000951Y-100372190D02*
X149953332Y-100467428D01*
X149953332Y-100467428D02*
X149953332Y-100753142D01*
X149953332Y-100753142D02*
X150000951Y-100848380D01*
X150000951Y-100848380D02*
X150048570Y-100896000D01*
X150048570Y-100896000D02*
X150143808Y-100943619D01*
X150143808Y-100943619D02*
X150286665Y-100943619D01*
X149524760Y-100943619D02*
X149524760Y-100276952D01*
X149524760Y-100372190D02*
X149477141Y-100324571D01*
X149477141Y-100324571D02*
X149381903Y-100276952D01*
X149381903Y-100276952D02*
X149239046Y-100276952D01*
X149239046Y-100276952D02*
X149143808Y-100324571D01*
X149143808Y-100324571D02*
X149096189Y-100419809D01*
X149096189Y-100419809D02*
X149096189Y-100943619D01*
X149096189Y-100419809D02*
X149048570Y-100324571D01*
X149048570Y-100324571D02*
X148953332Y-100276952D01*
X148953332Y-100276952D02*
X148810475Y-100276952D01*
X148810475Y-100276952D02*
X148715236Y-100324571D01*
X148715236Y-100324571D02*
X148667617Y-100419809D01*
X148667617Y-100419809D02*
X148667617Y-100943619D01*
D11*
X155802857Y-80672428D02*
X155802857Y-79172428D01*
X155802857Y-79172428D02*
X154945714Y-80672428D01*
X154945714Y-80672428D02*
X154945714Y-79172428D01*
X154231428Y-79886714D02*
X153731428Y-79886714D01*
X153517142Y-80672428D02*
X154231428Y-80672428D01*
X154231428Y-80672428D02*
X154231428Y-79172428D01*
X154231428Y-79172428D02*
X153517142Y-79172428D01*
X152874285Y-80672428D02*
X152874285Y-79172428D01*
X152874285Y-79172428D02*
X152374285Y-80243857D01*
X152374285Y-80243857D02*
X151874285Y-79172428D01*
X151874285Y-79172428D02*
X151874285Y-80672428D01*
X151231427Y-80243857D02*
X150517142Y-80243857D01*
X151374284Y-80672428D02*
X150874284Y-79172428D01*
X150874284Y-79172428D02*
X150374284Y-80672428D01*
X149088570Y-80672428D02*
X149945713Y-80672428D01*
X149517142Y-80672428D02*
X149517142Y-79172428D01*
X149517142Y-79172428D02*
X149659999Y-79386714D01*
X149659999Y-79386714D02*
X149802856Y-79529571D01*
X149802856Y-79529571D02*
X149945713Y-79601000D01*
X148588571Y-79172428D02*
X147588571Y-79172428D01*
X147588571Y-79172428D02*
X148231428Y-80672428D01*
X155802857Y-83102428D02*
X155802857Y-81602428D01*
X155802857Y-81602428D02*
X155445714Y-81602428D01*
X155445714Y-81602428D02*
X155231428Y-81673857D01*
X155231428Y-81673857D02*
X155088571Y-81816714D01*
X155088571Y-81816714D02*
X155017142Y-81959571D01*
X155017142Y-81959571D02*
X154945714Y-82245285D01*
X154945714Y-82245285D02*
X154945714Y-82459571D01*
X154945714Y-82459571D02*
X155017142Y-82745285D01*
X155017142Y-82745285D02*
X155088571Y-82888142D01*
X155088571Y-82888142D02*
X155231428Y-83031000D01*
X155231428Y-83031000D02*
X155445714Y-83102428D01*
X155445714Y-83102428D02*
X155802857Y-83102428D01*
X153445714Y-83102428D02*
X153945714Y-82388142D01*
X154302857Y-83102428D02*
X154302857Y-81602428D01*
X154302857Y-81602428D02*
X153731428Y-81602428D01*
X153731428Y-81602428D02*
X153588571Y-81673857D01*
X153588571Y-81673857D02*
X153517142Y-81745285D01*
X153517142Y-81745285D02*
X153445714Y-81888142D01*
X153445714Y-81888142D02*
X153445714Y-82102428D01*
X153445714Y-82102428D02*
X153517142Y-82245285D01*
X153517142Y-82245285D02*
X153588571Y-82316714D01*
X153588571Y-82316714D02*
X153731428Y-82388142D01*
X153731428Y-82388142D02*
X154302857Y-82388142D01*
X152802857Y-83102428D02*
X152802857Y-81602428D01*
X152302856Y-81602428D02*
X151802856Y-83102428D01*
X151802856Y-83102428D02*
X151302856Y-81602428D01*
X150802857Y-82316714D02*
X150302857Y-82316714D01*
X150088571Y-83102428D02*
X150802857Y-83102428D01*
X150802857Y-83102428D02*
X150802857Y-81602428D01*
X150802857Y-81602428D02*
X150088571Y-81602428D01*
X148588571Y-83102428D02*
X149088571Y-82388142D01*
X149445714Y-83102428D02*
X149445714Y-81602428D01*
X149445714Y-81602428D02*
X148874285Y-81602428D01*
X148874285Y-81602428D02*
X148731428Y-81673857D01*
X148731428Y-81673857D02*
X148659999Y-81745285D01*
X148659999Y-81745285D02*
X148588571Y-81888142D01*
X148588571Y-81888142D02*
X148588571Y-82102428D01*
X148588571Y-82102428D02*
X148659999Y-82245285D01*
X148659999Y-82245285D02*
X148731428Y-82316714D01*
X148731428Y-82316714D02*
X148874285Y-82388142D01*
X148874285Y-82388142D02*
X149445714Y-82388142D01*
D12*
X163377656Y-93071800D02*
X162234799Y-93071800D01*
X162806227Y-93643228D02*
X162806227Y-92500371D01*
X160734798Y-93643228D02*
X161591941Y-93643228D01*
X161163370Y-93643228D02*
X161163370Y-92143228D01*
X161163370Y-92143228D02*
X161306227Y-92357514D01*
X161306227Y-92357514D02*
X161449084Y-92500371D01*
X161449084Y-92500371D02*
X161591941Y-92571800D01*
X160163370Y-92286085D02*
X160091942Y-92214657D01*
X160091942Y-92214657D02*
X159949085Y-92143228D01*
X159949085Y-92143228D02*
X159591942Y-92143228D01*
X159591942Y-92143228D02*
X159449085Y-92214657D01*
X159449085Y-92214657D02*
X159377656Y-92286085D01*
X159377656Y-92286085D02*
X159306227Y-92428942D01*
X159306227Y-92428942D02*
X159306227Y-92571800D01*
X159306227Y-92571800D02*
X159377656Y-92786085D01*
X159377656Y-92786085D02*
X160234799Y-93643228D01*
X160234799Y-93643228D02*
X159306227Y-93643228D01*
X158877656Y-92143228D02*
X158377656Y-93643228D01*
X158377656Y-93643228D02*
X157877656Y-92143228D01*
X158091942Y-94644657D02*
X158234800Y-94573228D01*
X158234800Y-94573228D02*
X158449085Y-94573228D01*
X158449085Y-94573228D02*
X158663371Y-94644657D01*
X158663371Y-94644657D02*
X158806228Y-94787514D01*
X158806228Y-94787514D02*
X158877657Y-94930371D01*
X158877657Y-94930371D02*
X158949085Y-95216085D01*
X158949085Y-95216085D02*
X158949085Y-95430371D01*
X158949085Y-95430371D02*
X158877657Y-95716085D01*
X158877657Y-95716085D02*
X158806228Y-95858942D01*
X158806228Y-95858942D02*
X158663371Y-96001800D01*
X158663371Y-96001800D02*
X158449085Y-96073228D01*
X158449085Y-96073228D02*
X158306228Y-96073228D01*
X158306228Y-96073228D02*
X158091942Y-96001800D01*
X158091942Y-96001800D02*
X158020514Y-95930371D01*
X158020514Y-95930371D02*
X158020514Y-95430371D01*
X158020514Y-95430371D02*
X158306228Y-95430371D01*
X158377657Y-97717514D02*
X158163371Y-97788942D01*
X158163371Y-97788942D02*
X158091942Y-97860371D01*
X158091942Y-97860371D02*
X158020514Y-98003228D01*
X158020514Y-98003228D02*
X158020514Y-98217514D01*
X158020514Y-98217514D02*
X158091942Y-98360371D01*
X158091942Y-98360371D02*
X158163371Y-98431800D01*
X158163371Y-98431800D02*
X158306228Y-98503228D01*
X158306228Y-98503228D02*
X158877657Y-98503228D01*
X158877657Y-98503228D02*
X158877657Y-97003228D01*
X158877657Y-97003228D02*
X158377657Y-97003228D01*
X158377657Y-97003228D02*
X158234800Y-97074657D01*
X158234800Y-97074657D02*
X158163371Y-97146085D01*
X158163371Y-97146085D02*
X158091942Y-97288942D01*
X158091942Y-97288942D02*
X158091942Y-97431800D01*
X158091942Y-97431800D02*
X158163371Y-97574657D01*
X158163371Y-97574657D02*
X158234800Y-97646085D01*
X158234800Y-97646085D02*
X158377657Y-97717514D01*
X158377657Y-97717514D02*
X158877657Y-97717514D01*
X158734799Y-100504657D02*
X158020514Y-100504657D01*
X158877656Y-100933228D02*
X158377656Y-99433228D01*
X158377656Y-99433228D02*
X157877656Y-100933228D01*
X134314457Y-92817800D02*
X133171600Y-92817800D01*
X133743028Y-93389228D02*
X133743028Y-92246371D01*
X131671599Y-93389228D02*
X132528742Y-93389228D01*
X132100171Y-93389228D02*
X132100171Y-91889228D01*
X132100171Y-91889228D02*
X132243028Y-92103514D01*
X132243028Y-92103514D02*
X132385885Y-92246371D01*
X132385885Y-92246371D02*
X132528742Y-92317800D01*
X131100171Y-92032085D02*
X131028743Y-91960657D01*
X131028743Y-91960657D02*
X130885886Y-91889228D01*
X130885886Y-91889228D02*
X130528743Y-91889228D01*
X130528743Y-91889228D02*
X130385886Y-91960657D01*
X130385886Y-91960657D02*
X130314457Y-92032085D01*
X130314457Y-92032085D02*
X130243028Y-92174942D01*
X130243028Y-92174942D02*
X130243028Y-92317800D01*
X130243028Y-92317800D02*
X130314457Y-92532085D01*
X130314457Y-92532085D02*
X131171600Y-93389228D01*
X131171600Y-93389228D02*
X130243028Y-93389228D01*
X129814457Y-91889228D02*
X129314457Y-93389228D01*
X129314457Y-93389228D02*
X128814457Y-91889228D01*
X133528742Y-94390657D02*
X133671600Y-94319228D01*
X133671600Y-94319228D02*
X133885885Y-94319228D01*
X133885885Y-94319228D02*
X134100171Y-94390657D01*
X134100171Y-94390657D02*
X134243028Y-94533514D01*
X134243028Y-94533514D02*
X134314457Y-94676371D01*
X134314457Y-94676371D02*
X134385885Y-94962085D01*
X134385885Y-94962085D02*
X134385885Y-95176371D01*
X134385885Y-95176371D02*
X134314457Y-95462085D01*
X134314457Y-95462085D02*
X134243028Y-95604942D01*
X134243028Y-95604942D02*
X134100171Y-95747800D01*
X134100171Y-95747800D02*
X133885885Y-95819228D01*
X133885885Y-95819228D02*
X133743028Y-95819228D01*
X133743028Y-95819228D02*
X133528742Y-95747800D01*
X133528742Y-95747800D02*
X133457314Y-95676371D01*
X133457314Y-95676371D02*
X133457314Y-95176371D01*
X133457314Y-95176371D02*
X133743028Y-95176371D01*
X133814457Y-97463514D02*
X133600171Y-97534942D01*
X133600171Y-97534942D02*
X133528742Y-97606371D01*
X133528742Y-97606371D02*
X133457314Y-97749228D01*
X133457314Y-97749228D02*
X133457314Y-97963514D01*
X133457314Y-97963514D02*
X133528742Y-98106371D01*
X133528742Y-98106371D02*
X133600171Y-98177800D01*
X133600171Y-98177800D02*
X133743028Y-98249228D01*
X133743028Y-98249228D02*
X134314457Y-98249228D01*
X134314457Y-98249228D02*
X134314457Y-96749228D01*
X134314457Y-96749228D02*
X133814457Y-96749228D01*
X133814457Y-96749228D02*
X133671600Y-96820657D01*
X133671600Y-96820657D02*
X133600171Y-96892085D01*
X133600171Y-96892085D02*
X133528742Y-97034942D01*
X133528742Y-97034942D02*
X133528742Y-97177800D01*
X133528742Y-97177800D02*
X133600171Y-97320657D01*
X133600171Y-97320657D02*
X133671600Y-97392085D01*
X133671600Y-97392085D02*
X133814457Y-97463514D01*
X133814457Y-97463514D02*
X134314457Y-97463514D01*
X134385885Y-100250657D02*
X133671600Y-100250657D01*
X134528742Y-100679228D02*
X134028742Y-99179228D01*
X134028742Y-99179228D02*
X133528742Y-100679228D01*
D10*
X146777904Y-77305809D02*
X146444571Y-77305809D01*
X146301714Y-77829619D02*
X146777904Y-77829619D01*
X146777904Y-77829619D02*
X146777904Y-76829619D01*
X146777904Y-76829619D02*
X146301714Y-76829619D01*
X145873142Y-77829619D02*
X145873142Y-76829619D01*
X145873142Y-76829619D02*
X145301714Y-77829619D01*
X145301714Y-77829619D02*
X145301714Y-76829619D01*
X146916000Y-76382000D02*
X145163619Y-76382000D01*
%TO.C,X2*%
X156944523Y-89826619D02*
X156277857Y-90826619D01*
X156277857Y-89826619D02*
X156944523Y-90826619D01*
X155944523Y-89921857D02*
X155896904Y-89874238D01*
X155896904Y-89874238D02*
X155801666Y-89826619D01*
X155801666Y-89826619D02*
X155563571Y-89826619D01*
X155563571Y-89826619D02*
X155468333Y-89874238D01*
X155468333Y-89874238D02*
X155420714Y-89921857D01*
X155420714Y-89921857D02*
X155373095Y-90017095D01*
X155373095Y-90017095D02*
X155373095Y-90112333D01*
X155373095Y-90112333D02*
X155420714Y-90255190D01*
X155420714Y-90255190D02*
X155992142Y-90826619D01*
X155992142Y-90826619D02*
X155373095Y-90826619D01*
%TO.C,X1*%
X136903523Y-89816619D02*
X136236857Y-90816619D01*
X136236857Y-89816619D02*
X136903523Y-90816619D01*
X135332095Y-90816619D02*
X135903523Y-90816619D01*
X135617809Y-90816619D02*
X135617809Y-89816619D01*
X135617809Y-89816619D02*
X135713047Y-89959476D01*
X135713047Y-89959476D02*
X135808285Y-90054714D01*
X135808285Y-90054714D02*
X135903523Y-90102333D01*
%TO.C,JP7*%
X129314285Y-79906904D02*
X128838095Y-79906904D01*
X129409523Y-80192619D02*
X129076190Y-79192619D01*
X129076190Y-79192619D02*
X128742857Y-80192619D01*
X128409523Y-80192619D02*
X128409523Y-79192619D01*
X128409523Y-79192619D02*
X128171428Y-79192619D01*
X128171428Y-79192619D02*
X128028571Y-79240238D01*
X128028571Y-79240238D02*
X127933333Y-79335476D01*
X127933333Y-79335476D02*
X127885714Y-79430714D01*
X127885714Y-79430714D02*
X127838095Y-79621190D01*
X127838095Y-79621190D02*
X127838095Y-79764047D01*
X127838095Y-79764047D02*
X127885714Y-79954523D01*
X127885714Y-79954523D02*
X127933333Y-80049761D01*
X127933333Y-80049761D02*
X128028571Y-80145000D01*
X128028571Y-80145000D02*
X128171428Y-80192619D01*
X128171428Y-80192619D02*
X128409523Y-80192619D01*
X127409523Y-80192619D02*
X127409523Y-79192619D01*
X127409523Y-79192619D02*
X127171428Y-79192619D01*
X127171428Y-79192619D02*
X127028571Y-79240238D01*
X127028571Y-79240238D02*
X126933333Y-79335476D01*
X126933333Y-79335476D02*
X126885714Y-79430714D01*
X126885714Y-79430714D02*
X126838095Y-79621190D01*
X126838095Y-79621190D02*
X126838095Y-79764047D01*
X126838095Y-79764047D02*
X126885714Y-79954523D01*
X126885714Y-79954523D02*
X126933333Y-80049761D01*
X126933333Y-80049761D02*
X127028571Y-80145000D01*
X127028571Y-80145000D02*
X127171428Y-80192619D01*
X127171428Y-80192619D02*
X127409523Y-80192619D01*
X126504761Y-79192619D02*
X125885714Y-79192619D01*
X125885714Y-79192619D02*
X126219047Y-79573571D01*
X126219047Y-79573571D02*
X126076190Y-79573571D01*
X126076190Y-79573571D02*
X125980952Y-79621190D01*
X125980952Y-79621190D02*
X125933333Y-79668809D01*
X125933333Y-79668809D02*
X125885714Y-79764047D01*
X125885714Y-79764047D02*
X125885714Y-80002142D01*
X125885714Y-80002142D02*
X125933333Y-80097380D01*
X125933333Y-80097380D02*
X125980952Y-80145000D01*
X125980952Y-80145000D02*
X126076190Y-80192619D01*
X126076190Y-80192619D02*
X126361904Y-80192619D01*
X126361904Y-80192619D02*
X126457142Y-80145000D01*
X126457142Y-80145000D02*
X126504761Y-80097380D01*
%TO.C,POW1*%
X149103332Y-72572619D02*
X149103332Y-71572619D01*
X149103332Y-71572619D02*
X148722380Y-71572619D01*
X148722380Y-71572619D02*
X148627142Y-71620238D01*
X148627142Y-71620238D02*
X148579523Y-71667857D01*
X148579523Y-71667857D02*
X148531904Y-71763095D01*
X148531904Y-71763095D02*
X148531904Y-71905952D01*
X148531904Y-71905952D02*
X148579523Y-72001190D01*
X148579523Y-72001190D02*
X148627142Y-72048809D01*
X148627142Y-72048809D02*
X148722380Y-72096428D01*
X148722380Y-72096428D02*
X149103332Y-72096428D01*
X147912856Y-71572619D02*
X147722380Y-71572619D01*
X147722380Y-71572619D02*
X147627142Y-71620238D01*
X147627142Y-71620238D02*
X147531904Y-71715476D01*
X147531904Y-71715476D02*
X147484285Y-71905952D01*
X147484285Y-71905952D02*
X147484285Y-72239285D01*
X147484285Y-72239285D02*
X147531904Y-72429761D01*
X147531904Y-72429761D02*
X147627142Y-72525000D01*
X147627142Y-72525000D02*
X147722380Y-72572619D01*
X147722380Y-72572619D02*
X147912856Y-72572619D01*
X147912856Y-72572619D02*
X148008094Y-72525000D01*
X148008094Y-72525000D02*
X148103332Y-72429761D01*
X148103332Y-72429761D02*
X148150951Y-72239285D01*
X148150951Y-72239285D02*
X148150951Y-71905952D01*
X148150951Y-71905952D02*
X148103332Y-71715476D01*
X148103332Y-71715476D02*
X148008094Y-71620238D01*
X148008094Y-71620238D02*
X147912856Y-71572619D01*
X147150951Y-71572619D02*
X146912856Y-72572619D01*
X146912856Y-72572619D02*
X146722380Y-71858333D01*
X146722380Y-71858333D02*
X146531904Y-72572619D01*
X146531904Y-72572619D02*
X146293809Y-71572619D01*
X145389047Y-72572619D02*
X145960475Y-72572619D01*
X145674761Y-72572619D02*
X145674761Y-71572619D01*
X145674761Y-71572619D02*
X145769999Y-71715476D01*
X145769999Y-71715476D02*
X145865237Y-71810714D01*
X145865237Y-71810714D02*
X145960475Y-71858333D01*
%TO.C,JP5*%
X129314285Y-84986904D02*
X128838095Y-84986904D01*
X129409523Y-85272619D02*
X129076190Y-84272619D01*
X129076190Y-84272619D02*
X128742857Y-85272619D01*
X128409523Y-85272619D02*
X128409523Y-84272619D01*
X128409523Y-84272619D02*
X128171428Y-84272619D01*
X128171428Y-84272619D02*
X128028571Y-84320238D01*
X128028571Y-84320238D02*
X127933333Y-84415476D01*
X127933333Y-84415476D02*
X127885714Y-84510714D01*
X127885714Y-84510714D02*
X127838095Y-84701190D01*
X127838095Y-84701190D02*
X127838095Y-84844047D01*
X127838095Y-84844047D02*
X127885714Y-85034523D01*
X127885714Y-85034523D02*
X127933333Y-85129761D01*
X127933333Y-85129761D02*
X128028571Y-85225000D01*
X128028571Y-85225000D02*
X128171428Y-85272619D01*
X128171428Y-85272619D02*
X128409523Y-85272619D01*
X127409523Y-85272619D02*
X127409523Y-84272619D01*
X127409523Y-84272619D02*
X127171428Y-84272619D01*
X127171428Y-84272619D02*
X127028571Y-84320238D01*
X127028571Y-84320238D02*
X126933333Y-84415476D01*
X126933333Y-84415476D02*
X126885714Y-84510714D01*
X126885714Y-84510714D02*
X126838095Y-84701190D01*
X126838095Y-84701190D02*
X126838095Y-84844047D01*
X126838095Y-84844047D02*
X126885714Y-85034523D01*
X126885714Y-85034523D02*
X126933333Y-85129761D01*
X126933333Y-85129761D02*
X127028571Y-85225000D01*
X127028571Y-85225000D02*
X127171428Y-85272619D01*
X127171428Y-85272619D02*
X127409523Y-85272619D01*
X125933333Y-84272619D02*
X126409523Y-84272619D01*
X126409523Y-84272619D02*
X126457142Y-84748809D01*
X126457142Y-84748809D02*
X126409523Y-84701190D01*
X126409523Y-84701190D02*
X126314285Y-84653571D01*
X126314285Y-84653571D02*
X126076190Y-84653571D01*
X126076190Y-84653571D02*
X125980952Y-84701190D01*
X125980952Y-84701190D02*
X125933333Y-84748809D01*
X125933333Y-84748809D02*
X125885714Y-84844047D01*
X125885714Y-84844047D02*
X125885714Y-85082142D01*
X125885714Y-85082142D02*
X125933333Y-85177380D01*
X125933333Y-85177380D02*
X125980952Y-85225000D01*
X125980952Y-85225000D02*
X126076190Y-85272619D01*
X126076190Y-85272619D02*
X126314285Y-85272619D01*
X126314285Y-85272619D02*
X126409523Y-85225000D01*
X126409523Y-85225000D02*
X126457142Y-85177380D01*
%TO.C,JP2*%
X161311237Y-70092572D02*
X161311237Y-70902095D01*
X161311237Y-70902095D02*
X161263618Y-70997333D01*
X161263618Y-70997333D02*
X161215999Y-71044953D01*
X161215999Y-71044953D02*
X161120761Y-71092572D01*
X161120761Y-71092572D02*
X160930285Y-71092572D01*
X160930285Y-71092572D02*
X160835047Y-71044953D01*
X160835047Y-71044953D02*
X160787428Y-70997333D01*
X160787428Y-70997333D02*
X160739809Y-70902095D01*
X160739809Y-70902095D02*
X160739809Y-70092572D01*
X160311237Y-70806857D02*
X159835047Y-70806857D01*
X160406475Y-71092572D02*
X160073142Y-70092572D01*
X160073142Y-70092572D02*
X159739809Y-71092572D01*
X158835047Y-71092572D02*
X159168380Y-70616381D01*
X159406475Y-71092572D02*
X159406475Y-70092572D01*
X159406475Y-70092572D02*
X159025523Y-70092572D01*
X159025523Y-70092572D02*
X158930285Y-70140191D01*
X158930285Y-70140191D02*
X158882666Y-70187810D01*
X158882666Y-70187810D02*
X158835047Y-70283048D01*
X158835047Y-70283048D02*
X158835047Y-70425905D01*
X158835047Y-70425905D02*
X158882666Y-70521143D01*
X158882666Y-70521143D02*
X158930285Y-70568762D01*
X158930285Y-70568762D02*
X159025523Y-70616381D01*
X159025523Y-70616381D02*
X159406475Y-70616381D01*
X158549332Y-70092572D02*
X157977904Y-70092572D01*
X158263618Y-71092572D02*
X158263618Y-70092572D01*
%TO.C,JP1*%
X137470318Y-86437456D02*
X137946508Y-86437456D01*
X137946508Y-86437456D02*
X137946508Y-85437456D01*
X136946508Y-85437456D02*
X136756032Y-85437456D01*
X136756032Y-85437456D02*
X136660794Y-85485075D01*
X136660794Y-85485075D02*
X136565556Y-85580313D01*
X136565556Y-85580313D02*
X136517937Y-85770789D01*
X136517937Y-85770789D02*
X136517937Y-86104122D01*
X136517937Y-86104122D02*
X136565556Y-86294598D01*
X136565556Y-86294598D02*
X136660794Y-86389837D01*
X136660794Y-86389837D02*
X136756032Y-86437456D01*
X136756032Y-86437456D02*
X136946508Y-86437456D01*
X136946508Y-86437456D02*
X137041746Y-86389837D01*
X137041746Y-86389837D02*
X137136984Y-86294598D01*
X137136984Y-86294598D02*
X137184603Y-86104122D01*
X137184603Y-86104122D02*
X137184603Y-85770789D01*
X137184603Y-85770789D02*
X137136984Y-85580313D01*
X137136984Y-85580313D02*
X137041746Y-85485075D01*
X137041746Y-85485075D02*
X136946508Y-85437456D01*
X136136984Y-86151741D02*
X135660794Y-86151741D01*
X136232222Y-86437456D02*
X135898889Y-85437456D01*
X135898889Y-85437456D02*
X135565556Y-86437456D01*
X135232222Y-86437456D02*
X135232222Y-85437456D01*
X135232222Y-85437456D02*
X134994127Y-85437456D01*
X134994127Y-85437456D02*
X134851270Y-85485075D01*
X134851270Y-85485075D02*
X134756032Y-85580313D01*
X134756032Y-85580313D02*
X134708413Y-85675551D01*
X134708413Y-85675551D02*
X134660794Y-85866027D01*
X134660794Y-85866027D02*
X134660794Y-86008884D01*
X134660794Y-86008884D02*
X134708413Y-86199360D01*
X134708413Y-86199360D02*
X134756032Y-86294598D01*
X134756032Y-86294598D02*
X134851270Y-86389837D01*
X134851270Y-86389837D02*
X134994127Y-86437456D01*
X134994127Y-86437456D02*
X135232222Y-86437456D01*
%TO.C,JP6*%
X129314285Y-82446904D02*
X128838095Y-82446904D01*
X129409523Y-82732619D02*
X129076190Y-81732619D01*
X129076190Y-81732619D02*
X128742857Y-82732619D01*
X128409523Y-82732619D02*
X128409523Y-81732619D01*
X128409523Y-81732619D02*
X128171428Y-81732619D01*
X128171428Y-81732619D02*
X128028571Y-81780238D01*
X128028571Y-81780238D02*
X127933333Y-81875476D01*
X127933333Y-81875476D02*
X127885714Y-81970714D01*
X127885714Y-81970714D02*
X127838095Y-82161190D01*
X127838095Y-82161190D02*
X127838095Y-82304047D01*
X127838095Y-82304047D02*
X127885714Y-82494523D01*
X127885714Y-82494523D02*
X127933333Y-82589761D01*
X127933333Y-82589761D02*
X128028571Y-82685000D01*
X128028571Y-82685000D02*
X128171428Y-82732619D01*
X128171428Y-82732619D02*
X128409523Y-82732619D01*
X127409523Y-82732619D02*
X127409523Y-81732619D01*
X127409523Y-81732619D02*
X127171428Y-81732619D01*
X127171428Y-81732619D02*
X127028571Y-81780238D01*
X127028571Y-81780238D02*
X126933333Y-81875476D01*
X126933333Y-81875476D02*
X126885714Y-81970714D01*
X126885714Y-81970714D02*
X126838095Y-82161190D01*
X126838095Y-82161190D02*
X126838095Y-82304047D01*
X126838095Y-82304047D02*
X126885714Y-82494523D01*
X126885714Y-82494523D02*
X126933333Y-82589761D01*
X126933333Y-82589761D02*
X127028571Y-82685000D01*
X127028571Y-82685000D02*
X127171428Y-82732619D01*
X127171428Y-82732619D02*
X127409523Y-82732619D01*
X125980952Y-82065952D02*
X125980952Y-82732619D01*
X126219047Y-81685000D02*
X126457142Y-82399285D01*
X126457142Y-82399285D02*
X125838095Y-82399285D01*
%TO.C,JP3*%
X129284285Y-90066904D02*
X128808095Y-90066904D01*
X129379523Y-90352619D02*
X129046190Y-89352619D01*
X129046190Y-89352619D02*
X128712857Y-90352619D01*
X128379523Y-90352619D02*
X128379523Y-89352619D01*
X128379523Y-89352619D02*
X128141428Y-89352619D01*
X128141428Y-89352619D02*
X127998571Y-89400238D01*
X127998571Y-89400238D02*
X127903333Y-89495476D01*
X127903333Y-89495476D02*
X127855714Y-89590714D01*
X127855714Y-89590714D02*
X127808095Y-89781190D01*
X127808095Y-89781190D02*
X127808095Y-89924047D01*
X127808095Y-89924047D02*
X127855714Y-90114523D01*
X127855714Y-90114523D02*
X127903333Y-90209761D01*
X127903333Y-90209761D02*
X127998571Y-90305000D01*
X127998571Y-90305000D02*
X128141428Y-90352619D01*
X128141428Y-90352619D02*
X128379523Y-90352619D01*
X127379523Y-90352619D02*
X127379523Y-89352619D01*
X127379523Y-89352619D02*
X127141428Y-89352619D01*
X127141428Y-89352619D02*
X126998571Y-89400238D01*
X126998571Y-89400238D02*
X126903333Y-89495476D01*
X126903333Y-89495476D02*
X126855714Y-89590714D01*
X126855714Y-89590714D02*
X126808095Y-89781190D01*
X126808095Y-89781190D02*
X126808095Y-89924047D01*
X126808095Y-89924047D02*
X126855714Y-90114523D01*
X126855714Y-90114523D02*
X126903333Y-90209761D01*
X126903333Y-90209761D02*
X126998571Y-90305000D01*
X126998571Y-90305000D02*
X127141428Y-90352619D01*
X127141428Y-90352619D02*
X127379523Y-90352619D01*
X126474761Y-89352619D02*
X125808095Y-89352619D01*
X125808095Y-89352619D02*
X126236666Y-90352619D01*
%TO.C,POW2*%
X149103332Y-85272619D02*
X149103332Y-84272619D01*
X149103332Y-84272619D02*
X148722380Y-84272619D01*
X148722380Y-84272619D02*
X148627142Y-84320238D01*
X148627142Y-84320238D02*
X148579523Y-84367857D01*
X148579523Y-84367857D02*
X148531904Y-84463095D01*
X148531904Y-84463095D02*
X148531904Y-84605952D01*
X148531904Y-84605952D02*
X148579523Y-84701190D01*
X148579523Y-84701190D02*
X148627142Y-84748809D01*
X148627142Y-84748809D02*
X148722380Y-84796428D01*
X148722380Y-84796428D02*
X149103332Y-84796428D01*
X147912856Y-84272619D02*
X147722380Y-84272619D01*
X147722380Y-84272619D02*
X147627142Y-84320238D01*
X147627142Y-84320238D02*
X147531904Y-84415476D01*
X147531904Y-84415476D02*
X147484285Y-84605952D01*
X147484285Y-84605952D02*
X147484285Y-84939285D01*
X147484285Y-84939285D02*
X147531904Y-85129761D01*
X147531904Y-85129761D02*
X147627142Y-85225000D01*
X147627142Y-85225000D02*
X147722380Y-85272619D01*
X147722380Y-85272619D02*
X147912856Y-85272619D01*
X147912856Y-85272619D02*
X148008094Y-85225000D01*
X148008094Y-85225000D02*
X148103332Y-85129761D01*
X148103332Y-85129761D02*
X148150951Y-84939285D01*
X148150951Y-84939285D02*
X148150951Y-84605952D01*
X148150951Y-84605952D02*
X148103332Y-84415476D01*
X148103332Y-84415476D02*
X148008094Y-84320238D01*
X148008094Y-84320238D02*
X147912856Y-84272619D01*
X147150951Y-84272619D02*
X146912856Y-85272619D01*
X146912856Y-85272619D02*
X146722380Y-84558333D01*
X146722380Y-84558333D02*
X146531904Y-85272619D01*
X146531904Y-85272619D02*
X146293809Y-84272619D01*
X145960475Y-84367857D02*
X145912856Y-84320238D01*
X145912856Y-84320238D02*
X145817618Y-84272619D01*
X145817618Y-84272619D02*
X145579523Y-84272619D01*
X145579523Y-84272619D02*
X145484285Y-84320238D01*
X145484285Y-84320238D02*
X145436666Y-84367857D01*
X145436666Y-84367857D02*
X145389047Y-84463095D01*
X145389047Y-84463095D02*
X145389047Y-84558333D01*
X145389047Y-84558333D02*
X145436666Y-84701190D01*
X145436666Y-84701190D02*
X146008094Y-85272619D01*
X146008094Y-85272619D02*
X145389047Y-85272619D01*
%TO.C,JP10*%
X129314285Y-72286904D02*
X128838095Y-72286904D01*
X129409523Y-72572619D02*
X129076190Y-71572619D01*
X129076190Y-71572619D02*
X128742857Y-72572619D01*
X128409523Y-72572619D02*
X128409523Y-71572619D01*
X128409523Y-71572619D02*
X128171428Y-71572619D01*
X128171428Y-71572619D02*
X128028571Y-71620238D01*
X128028571Y-71620238D02*
X127933333Y-71715476D01*
X127933333Y-71715476D02*
X127885714Y-71810714D01*
X127885714Y-71810714D02*
X127838095Y-72001190D01*
X127838095Y-72001190D02*
X127838095Y-72144047D01*
X127838095Y-72144047D02*
X127885714Y-72334523D01*
X127885714Y-72334523D02*
X127933333Y-72429761D01*
X127933333Y-72429761D02*
X128028571Y-72525000D01*
X128028571Y-72525000D02*
X128171428Y-72572619D01*
X128171428Y-72572619D02*
X128409523Y-72572619D01*
X127409523Y-72572619D02*
X127409523Y-71572619D01*
X127409523Y-71572619D02*
X127171428Y-71572619D01*
X127171428Y-71572619D02*
X127028571Y-71620238D01*
X127028571Y-71620238D02*
X126933333Y-71715476D01*
X126933333Y-71715476D02*
X126885714Y-71810714D01*
X126885714Y-71810714D02*
X126838095Y-72001190D01*
X126838095Y-72001190D02*
X126838095Y-72144047D01*
X126838095Y-72144047D02*
X126885714Y-72334523D01*
X126885714Y-72334523D02*
X126933333Y-72429761D01*
X126933333Y-72429761D02*
X127028571Y-72525000D01*
X127028571Y-72525000D02*
X127171428Y-72572619D01*
X127171428Y-72572619D02*
X127409523Y-72572619D01*
X126219047Y-71572619D02*
X126123809Y-71572619D01*
X126123809Y-71572619D02*
X126028571Y-71620238D01*
X126028571Y-71620238D02*
X125980952Y-71667857D01*
X125980952Y-71667857D02*
X125933333Y-71763095D01*
X125933333Y-71763095D02*
X125885714Y-71953571D01*
X125885714Y-71953571D02*
X125885714Y-72191666D01*
X125885714Y-72191666D02*
X125933333Y-72382142D01*
X125933333Y-72382142D02*
X125980952Y-72477380D01*
X125980952Y-72477380D02*
X126028571Y-72525000D01*
X126028571Y-72525000D02*
X126123809Y-72572619D01*
X126123809Y-72572619D02*
X126219047Y-72572619D01*
X126219047Y-72572619D02*
X126314285Y-72525000D01*
X126314285Y-72525000D02*
X126361904Y-72477380D01*
X126361904Y-72477380D02*
X126409523Y-72382142D01*
X126409523Y-72382142D02*
X126457142Y-72191666D01*
X126457142Y-72191666D02*
X126457142Y-71953571D01*
X126457142Y-71953571D02*
X126409523Y-71763095D01*
X126409523Y-71763095D02*
X126361904Y-71667857D01*
X126361904Y-71667857D02*
X126314285Y-71620238D01*
X126314285Y-71620238D02*
X126219047Y-71572619D01*
%TO.C,JP8*%
X129314285Y-77366904D02*
X128838095Y-77366904D01*
X129409523Y-77652619D02*
X129076190Y-76652619D01*
X129076190Y-76652619D02*
X128742857Y-77652619D01*
X128409523Y-77652619D02*
X128409523Y-76652619D01*
X128409523Y-76652619D02*
X128171428Y-76652619D01*
X128171428Y-76652619D02*
X128028571Y-76700238D01*
X128028571Y-76700238D02*
X127933333Y-76795476D01*
X127933333Y-76795476D02*
X127885714Y-76890714D01*
X127885714Y-76890714D02*
X127838095Y-77081190D01*
X127838095Y-77081190D02*
X127838095Y-77224047D01*
X127838095Y-77224047D02*
X127885714Y-77414523D01*
X127885714Y-77414523D02*
X127933333Y-77509761D01*
X127933333Y-77509761D02*
X128028571Y-77605000D01*
X128028571Y-77605000D02*
X128171428Y-77652619D01*
X128171428Y-77652619D02*
X128409523Y-77652619D01*
X127409523Y-77652619D02*
X127409523Y-76652619D01*
X127409523Y-76652619D02*
X127171428Y-76652619D01*
X127171428Y-76652619D02*
X127028571Y-76700238D01*
X127028571Y-76700238D02*
X126933333Y-76795476D01*
X126933333Y-76795476D02*
X126885714Y-76890714D01*
X126885714Y-76890714D02*
X126838095Y-77081190D01*
X126838095Y-77081190D02*
X126838095Y-77224047D01*
X126838095Y-77224047D02*
X126885714Y-77414523D01*
X126885714Y-77414523D02*
X126933333Y-77509761D01*
X126933333Y-77509761D02*
X127028571Y-77605000D01*
X127028571Y-77605000D02*
X127171428Y-77652619D01*
X127171428Y-77652619D02*
X127409523Y-77652619D01*
X126457142Y-76747857D02*
X126409523Y-76700238D01*
X126409523Y-76700238D02*
X126314285Y-76652619D01*
X126314285Y-76652619D02*
X126076190Y-76652619D01*
X126076190Y-76652619D02*
X125980952Y-76700238D01*
X125980952Y-76700238D02*
X125933333Y-76747857D01*
X125933333Y-76747857D02*
X125885714Y-76843095D01*
X125885714Y-76843095D02*
X125885714Y-76938333D01*
X125885714Y-76938333D02*
X125933333Y-77081190D01*
X125933333Y-77081190D02*
X126504761Y-77652619D01*
X126504761Y-77652619D02*
X125885714Y-77652619D01*
%TO.C,JP9*%
X129314285Y-74826904D02*
X128838095Y-74826904D01*
X129409523Y-75112619D02*
X129076190Y-74112619D01*
X129076190Y-74112619D02*
X128742857Y-75112619D01*
X128409523Y-75112619D02*
X128409523Y-74112619D01*
X128409523Y-74112619D02*
X128171428Y-74112619D01*
X128171428Y-74112619D02*
X128028571Y-74160238D01*
X128028571Y-74160238D02*
X127933333Y-74255476D01*
X127933333Y-74255476D02*
X127885714Y-74350714D01*
X127885714Y-74350714D02*
X127838095Y-74541190D01*
X127838095Y-74541190D02*
X127838095Y-74684047D01*
X127838095Y-74684047D02*
X127885714Y-74874523D01*
X127885714Y-74874523D02*
X127933333Y-74969761D01*
X127933333Y-74969761D02*
X128028571Y-75065000D01*
X128028571Y-75065000D02*
X128171428Y-75112619D01*
X128171428Y-75112619D02*
X128409523Y-75112619D01*
X127409523Y-75112619D02*
X127409523Y-74112619D01*
X127409523Y-74112619D02*
X127171428Y-74112619D01*
X127171428Y-74112619D02*
X127028571Y-74160238D01*
X127028571Y-74160238D02*
X126933333Y-74255476D01*
X126933333Y-74255476D02*
X126885714Y-74350714D01*
X126885714Y-74350714D02*
X126838095Y-74541190D01*
X126838095Y-74541190D02*
X126838095Y-74684047D01*
X126838095Y-74684047D02*
X126885714Y-74874523D01*
X126885714Y-74874523D02*
X126933333Y-74969761D01*
X126933333Y-74969761D02*
X127028571Y-75065000D01*
X127028571Y-75065000D02*
X127171428Y-75112619D01*
X127171428Y-75112619D02*
X127409523Y-75112619D01*
X125885714Y-75112619D02*
X126457142Y-75112619D01*
X126171428Y-75112619D02*
X126171428Y-74112619D01*
X126171428Y-74112619D02*
X126266666Y-74255476D01*
X126266666Y-74255476D02*
X126361904Y-74350714D01*
X126361904Y-74350714D02*
X126457142Y-74398333D01*
%TO.C,JP4*%
X129314285Y-87526904D02*
X128838095Y-87526904D01*
X129409523Y-87812619D02*
X129076190Y-86812619D01*
X129076190Y-86812619D02*
X128742857Y-87812619D01*
X128409523Y-87812619D02*
X128409523Y-86812619D01*
X128409523Y-86812619D02*
X128171428Y-86812619D01*
X128171428Y-86812619D02*
X128028571Y-86860238D01*
X128028571Y-86860238D02*
X127933333Y-86955476D01*
X127933333Y-86955476D02*
X127885714Y-87050714D01*
X127885714Y-87050714D02*
X127838095Y-87241190D01*
X127838095Y-87241190D02*
X127838095Y-87384047D01*
X127838095Y-87384047D02*
X127885714Y-87574523D01*
X127885714Y-87574523D02*
X127933333Y-87669761D01*
X127933333Y-87669761D02*
X128028571Y-87765000D01*
X128028571Y-87765000D02*
X128171428Y-87812619D01*
X128171428Y-87812619D02*
X128409523Y-87812619D01*
X127409523Y-87812619D02*
X127409523Y-86812619D01*
X127409523Y-86812619D02*
X127171428Y-86812619D01*
X127171428Y-86812619D02*
X127028571Y-86860238D01*
X127028571Y-86860238D02*
X126933333Y-86955476D01*
X126933333Y-86955476D02*
X126885714Y-87050714D01*
X126885714Y-87050714D02*
X126838095Y-87241190D01*
X126838095Y-87241190D02*
X126838095Y-87384047D01*
X126838095Y-87384047D02*
X126885714Y-87574523D01*
X126885714Y-87574523D02*
X126933333Y-87669761D01*
X126933333Y-87669761D02*
X127028571Y-87765000D01*
X127028571Y-87765000D02*
X127171428Y-87812619D01*
X127171428Y-87812619D02*
X127409523Y-87812619D01*
X125980952Y-86812619D02*
X126171428Y-86812619D01*
X126171428Y-86812619D02*
X126266666Y-86860238D01*
X126266666Y-86860238D02*
X126314285Y-86907857D01*
X126314285Y-86907857D02*
X126409523Y-87050714D01*
X126409523Y-87050714D02*
X126457142Y-87241190D01*
X126457142Y-87241190D02*
X126457142Y-87622142D01*
X126457142Y-87622142D02*
X126409523Y-87717380D01*
X126409523Y-87717380D02*
X126361904Y-87765000D01*
X126361904Y-87765000D02*
X126266666Y-87812619D01*
X126266666Y-87812619D02*
X126076190Y-87812619D01*
X126076190Y-87812619D02*
X125980952Y-87765000D01*
X125980952Y-87765000D02*
X125933333Y-87717380D01*
X125933333Y-87717380D02*
X125885714Y-87622142D01*
X125885714Y-87622142D02*
X125885714Y-87384047D01*
X125885714Y-87384047D02*
X125933333Y-87288809D01*
X125933333Y-87288809D02*
X125980952Y-87241190D01*
X125980952Y-87241190D02*
X126076190Y-87193571D01*
X126076190Y-87193571D02*
X126266666Y-87193571D01*
X126266666Y-87193571D02*
X126361904Y-87241190D01*
X126361904Y-87241190D02*
X126409523Y-87288809D01*
X126409523Y-87288809D02*
X126457142Y-87384047D01*
%TO.C,X3*%
X143146846Y-86582561D02*
X142480180Y-87582561D01*
X142480180Y-86582561D02*
X143146846Y-87582561D01*
X142194465Y-86582561D02*
X141575418Y-86582561D01*
X141575418Y-86582561D02*
X141908751Y-86963513D01*
X141908751Y-86963513D02*
X141765894Y-86963513D01*
X141765894Y-86963513D02*
X141670656Y-87011132D01*
X141670656Y-87011132D02*
X141623037Y-87058751D01*
X141623037Y-87058751D02*
X141575418Y-87153989D01*
X141575418Y-87153989D02*
X141575418Y-87392084D01*
X141575418Y-87392084D02*
X141623037Y-87487322D01*
X141623037Y-87487322D02*
X141670656Y-87534942D01*
X141670656Y-87534942D02*
X141765894Y-87582561D01*
X141765894Y-87582561D02*
X142051608Y-87582561D01*
X142051608Y-87582561D02*
X142146846Y-87534942D01*
X142146846Y-87534942D02*
X142194465Y-87487322D01*
X143181904Y-89082619D02*
X143181904Y-88082619D01*
X143181904Y-88082619D02*
X142848571Y-88796904D01*
X142848571Y-88796904D02*
X142515238Y-88082619D01*
X142515238Y-88082619D02*
X142515238Y-89082619D01*
X141848571Y-88082619D02*
X141658095Y-88082619D01*
X141658095Y-88082619D02*
X141562857Y-88130238D01*
X141562857Y-88130238D02*
X141467619Y-88225476D01*
X141467619Y-88225476D02*
X141420000Y-88415952D01*
X141420000Y-88415952D02*
X141420000Y-88749285D01*
X141420000Y-88749285D02*
X141467619Y-88939761D01*
X141467619Y-88939761D02*
X141562857Y-89035000D01*
X141562857Y-89035000D02*
X141658095Y-89082619D01*
X141658095Y-89082619D02*
X141848571Y-89082619D01*
X141848571Y-89082619D02*
X141943809Y-89035000D01*
X141943809Y-89035000D02*
X142039047Y-88939761D01*
X142039047Y-88939761D02*
X142086666Y-88749285D01*
X142086666Y-88749285D02*
X142086666Y-88415952D01*
X142086666Y-88415952D02*
X142039047Y-88225476D01*
X142039047Y-88225476D02*
X141943809Y-88130238D01*
X141943809Y-88130238D02*
X141848571Y-88082619D01*
X141134285Y-88082619D02*
X140562857Y-88082619D01*
X140848571Y-89082619D02*
X140848571Y-88082619D01*
X140039047Y-88082619D02*
X139848571Y-88082619D01*
X139848571Y-88082619D02*
X139753333Y-88130238D01*
X139753333Y-88130238D02*
X139658095Y-88225476D01*
X139658095Y-88225476D02*
X139610476Y-88415952D01*
X139610476Y-88415952D02*
X139610476Y-88749285D01*
X139610476Y-88749285D02*
X139658095Y-88939761D01*
X139658095Y-88939761D02*
X139753333Y-89035000D01*
X139753333Y-89035000D02*
X139848571Y-89082619D01*
X139848571Y-89082619D02*
X140039047Y-89082619D01*
X140039047Y-89082619D02*
X140134285Y-89035000D01*
X140134285Y-89035000D02*
X140229523Y-88939761D01*
X140229523Y-88939761D02*
X140277142Y-88749285D01*
X140277142Y-88749285D02*
X140277142Y-88415952D01*
X140277142Y-88415952D02*
X140229523Y-88225476D01*
X140229523Y-88225476D02*
X140134285Y-88130238D01*
X140134285Y-88130238D02*
X140039047Y-88082619D01*
X138610476Y-89082619D02*
X138943809Y-88606428D01*
X139181904Y-89082619D02*
X139181904Y-88082619D01*
X139181904Y-88082619D02*
X138800952Y-88082619D01*
X138800952Y-88082619D02*
X138705714Y-88130238D01*
X138705714Y-88130238D02*
X138658095Y-88177857D01*
X138658095Y-88177857D02*
X138610476Y-88273095D01*
X138610476Y-88273095D02*
X138610476Y-88415952D01*
X138610476Y-88415952D02*
X138658095Y-88511190D01*
X138658095Y-88511190D02*
X138705714Y-88558809D01*
X138705714Y-88558809D02*
X138800952Y-88606428D01*
X138800952Y-88606428D02*
X139181904Y-88606428D01*
%TO.C,G\u002A\u002A\u002A*%
G36*
X159336071Y-82666386D02*
G01*
X159336071Y-83276243D01*
X159257610Y-83276243D01*
X159179149Y-83276243D01*
X159179149Y-82666386D01*
X159179149Y-82056529D01*
X159257610Y-82056529D01*
X159336071Y-82056529D01*
X159336071Y-82666386D01*
G37*
G36*
X161647108Y-82666386D02*
G01*
X161647108Y-83276243D01*
X161318998Y-83276243D01*
X160990888Y-83276243D01*
X160990888Y-83204915D01*
X160990888Y-83133586D01*
X161240536Y-83133586D01*
X161490185Y-83133586D01*
X161490185Y-82905336D01*
X161490185Y-82677085D01*
X161247669Y-82677085D01*
X161005153Y-82677085D01*
X161005153Y-82605757D01*
X161005153Y-82534429D01*
X161247669Y-82534429D01*
X161490185Y-82534429D01*
X161490185Y-82366807D01*
X161490185Y-82199186D01*
X161240536Y-82199186D01*
X160990888Y-82199186D01*
X160990888Y-82127858D01*
X160990888Y-82056529D01*
X161318998Y-82056529D01*
X161647108Y-82056529D01*
X161647108Y-82666386D01*
G37*
G36*
X160919559Y-82127858D02*
G01*
X160919559Y-82199186D01*
X160773336Y-82199186D01*
X160627113Y-82199186D01*
X160627113Y-82737714D01*
X160627113Y-83276243D01*
X160552219Y-83276243D01*
X160477324Y-83276243D01*
X160477324Y-82737990D01*
X160477324Y-82199737D01*
X160325751Y-82197678D01*
X160281962Y-82197213D01*
X160218190Y-82196864D01*
X160151722Y-82196802D01*
X160088209Y-82197030D01*
X160033305Y-82197550D01*
X159892432Y-82199481D01*
X159892432Y-82737862D01*
X159892432Y-83276243D01*
X159813971Y-83276243D01*
X159735510Y-83276243D01*
X159735510Y-82737714D01*
X159735510Y-82199186D01*
X159592853Y-82199186D01*
X159450197Y-82199186D01*
X159450197Y-82127858D01*
X159450197Y-82056529D01*
X160184878Y-82056529D01*
X160919559Y-82056529D01*
X160919559Y-82127858D01*
G37*
G36*
X159654679Y-84046382D02*
G01*
X159655651Y-84052266D01*
X159655756Y-84079301D01*
X159655592Y-84087152D01*
X159656556Y-84112871D01*
X159661005Y-84130854D01*
X159670035Y-84146243D01*
X159682266Y-84167224D01*
X159684150Y-84186727D01*
X159673775Y-84204732D01*
X159656801Y-84214924D01*
X159630324Y-84215900D01*
X159596591Y-84206470D01*
X159556588Y-84186919D01*
X159511301Y-84157534D01*
X159497814Y-84147455D01*
X159462536Y-84117273D01*
X159431850Y-84085606D01*
X159407622Y-84054733D01*
X159391717Y-84026931D01*
X159391652Y-84026676D01*
X159500126Y-84026676D01*
X159501659Y-84042083D01*
X159508344Y-84049596D01*
X159521248Y-84045106D01*
X159535152Y-84040915D01*
X159556143Y-84045155D01*
X159557988Y-84045778D01*
X159572760Y-84048892D01*
X159578588Y-84046382D01*
X159576220Y-84040821D01*
X159563800Y-84030322D01*
X159544580Y-84020425D01*
X159522935Y-84013703D01*
X159508907Y-84011670D01*
X159501611Y-84014959D01*
X159500126Y-84026676D01*
X159391652Y-84026676D01*
X159386001Y-84004480D01*
X159389798Y-83989012D01*
X159404002Y-83969099D01*
X159424898Y-83953071D01*
X159448388Y-83944847D01*
X159484351Y-83944234D01*
X159528872Y-83951845D01*
X159572541Y-83966867D01*
X159610976Y-83987742D01*
X159639793Y-84012910D01*
X159645655Y-84020445D01*
X159652690Y-84034336D01*
X159654679Y-84046382D01*
G37*
G36*
X165926804Y-82192053D02*
G01*
X165926804Y-82665654D01*
X165926804Y-83276243D01*
X165848343Y-83276243D01*
X165769882Y-83276243D01*
X165769882Y-83019461D01*
X165769882Y-82762679D01*
X165687554Y-82762679D01*
X165634873Y-82761084D01*
X165550955Y-82750617D01*
X165477041Y-82730303D01*
X165412843Y-82700052D01*
X165358075Y-82659776D01*
X165345850Y-82647909D01*
X165310657Y-82602027D01*
X165284426Y-82548556D01*
X165267180Y-82489815D01*
X165258939Y-82428121D01*
X165259020Y-82421657D01*
X165407133Y-82421657D01*
X165414331Y-82474758D01*
X165432750Y-82519501D01*
X165462608Y-82556115D01*
X165504122Y-82584831D01*
X165557509Y-82605875D01*
X165622986Y-82619478D01*
X165655581Y-82623204D01*
X165692663Y-82626062D01*
X165724035Y-82627155D01*
X165769882Y-82627155D01*
X165769882Y-82409604D01*
X165769882Y-82192053D01*
X165732435Y-82192073D01*
X165725896Y-82192130D01*
X165685512Y-82194211D01*
X165641304Y-82198811D01*
X165597795Y-82205278D01*
X165559507Y-82212958D01*
X165530961Y-82221196D01*
X165505499Y-82232225D01*
X165464453Y-82259463D01*
X165434844Y-82294749D01*
X165416094Y-82338886D01*
X165407627Y-82392675D01*
X165407133Y-82421657D01*
X165259020Y-82421657D01*
X165259723Y-82365794D01*
X165269554Y-82305153D01*
X165288453Y-82248517D01*
X165316441Y-82198204D01*
X165353538Y-82156533D01*
X165371435Y-82142545D01*
X165414428Y-82117044D01*
X165465894Y-82094558D01*
X165522036Y-82076881D01*
X165538129Y-82073022D01*
X165560008Y-82068829D01*
X165584374Y-82065591D01*
X165613585Y-82063119D01*
X165649994Y-82061226D01*
X165695959Y-82059726D01*
X165753833Y-82058430D01*
X165926804Y-82055066D01*
X165926804Y-82192053D01*
G37*
G36*
X165127928Y-82192053D02*
G01*
X165127928Y-82666386D01*
X165127928Y-83276243D01*
X165049467Y-83276243D01*
X164971005Y-83276243D01*
X164971005Y-83019461D01*
X164971005Y-82762679D01*
X164941477Y-82762679D01*
X164918587Y-82765291D01*
X164902602Y-82775162D01*
X164900811Y-82777641D01*
X164891395Y-82790986D01*
X164875163Y-82814152D01*
X164853022Y-82845842D01*
X164825879Y-82884755D01*
X164794639Y-82929593D01*
X164760209Y-82979057D01*
X164723495Y-83031848D01*
X164553735Y-83276051D01*
X164458378Y-83276147D01*
X164363022Y-83276243D01*
X164380546Y-83253061D01*
X164388035Y-83243092D01*
X164408108Y-83216014D01*
X164433081Y-83181984D01*
X164461929Y-83142423D01*
X164493631Y-83098754D01*
X164527166Y-83052399D01*
X164561510Y-83004781D01*
X164595641Y-82957323D01*
X164628539Y-82911446D01*
X164659179Y-82868572D01*
X164686541Y-82830125D01*
X164709601Y-82797526D01*
X164727338Y-82772198D01*
X164738730Y-82755564D01*
X164742755Y-82749045D01*
X164742205Y-82747773D01*
X164732785Y-82742874D01*
X164715385Y-82738727D01*
X164701969Y-82735873D01*
X164662828Y-82721695D01*
X164621469Y-82699927D01*
X164582579Y-82673256D01*
X164550845Y-82644370D01*
X164512942Y-82594721D01*
X164483328Y-82536308D01*
X164465302Y-82474741D01*
X164458579Y-82411766D01*
X164460041Y-82390438D01*
X164607408Y-82390438D01*
X164608462Y-82423152D01*
X164609285Y-82439969D01*
X164611634Y-82468337D01*
X164615617Y-82488950D01*
X164622299Y-82506273D01*
X164632749Y-82524769D01*
X164644850Y-82541616D01*
X164680151Y-82573929D01*
X164726154Y-82599040D01*
X164781243Y-82615957D01*
X164805687Y-82620314D01*
X164840418Y-82624826D01*
X164877068Y-82628238D01*
X164911636Y-82630257D01*
X164940121Y-82630591D01*
X164958523Y-82628945D01*
X164961443Y-82627743D01*
X164964379Y-82624111D01*
X164966648Y-82616706D01*
X164968334Y-82604027D01*
X164969522Y-82584576D01*
X164970299Y-82556855D01*
X164970748Y-82519365D01*
X164970955Y-82470606D01*
X164971005Y-82409081D01*
X164971005Y-82192053D01*
X164933371Y-82192053D01*
X164906429Y-82192813D01*
X164860532Y-82196685D01*
X164814119Y-82203182D01*
X164772116Y-82211567D01*
X164739447Y-82221100D01*
X164726346Y-82226284D01*
X164682184Y-82249783D01*
X164649114Y-82279221D01*
X164624992Y-82316384D01*
X164617795Y-82331723D01*
X164611364Y-82349315D01*
X164608139Y-82367356D01*
X164607408Y-82390438D01*
X164460041Y-82390438D01*
X164462872Y-82349130D01*
X164477896Y-82288578D01*
X164503365Y-82231857D01*
X164538993Y-82180714D01*
X164584494Y-82136894D01*
X164639583Y-82102143D01*
X164650391Y-82096953D01*
X164680123Y-82084637D01*
X164711444Y-82075002D01*
X164746461Y-82067755D01*
X164787283Y-82062602D01*
X164836018Y-82059250D01*
X164894773Y-82057407D01*
X164965656Y-82056778D01*
X165127928Y-82056529D01*
X165127928Y-82192053D01*
G37*
G36*
X164332327Y-82662820D02*
G01*
X164331153Y-82717350D01*
X164325712Y-82775102D01*
X164316156Y-82824334D01*
X164289268Y-82904117D01*
X164247684Y-82988337D01*
X164195132Y-83065213D01*
X164132687Y-83133199D01*
X164061421Y-83190751D01*
X164060963Y-83191066D01*
X163998361Y-83227707D01*
X163926851Y-83258839D01*
X163851271Y-83282654D01*
X163776456Y-83297342D01*
X163759003Y-83299524D01*
X163725285Y-83302701D01*
X163694979Y-83303423D01*
X163662263Y-83301696D01*
X163621313Y-83297528D01*
X163582998Y-83292011D01*
X163491484Y-83269264D01*
X163405633Y-83234239D01*
X163326544Y-83187763D01*
X163255314Y-83130666D01*
X163193043Y-83063777D01*
X163140828Y-82987923D01*
X163099767Y-82903934D01*
X163094901Y-82891526D01*
X163076815Y-82838118D01*
X163065139Y-82786962D01*
X163058895Y-82732694D01*
X163058096Y-82704676D01*
X163211999Y-82704676D01*
X163222494Y-82774288D01*
X163246374Y-82850166D01*
X163281802Y-82920617D01*
X163327614Y-82984294D01*
X163382646Y-83039848D01*
X163445734Y-83085931D01*
X163515716Y-83121195D01*
X163591428Y-83144292D01*
X163607320Y-83147361D01*
X163684301Y-83154492D01*
X163761934Y-83149766D01*
X163836831Y-83133589D01*
X163905603Y-83106373D01*
X163957278Y-83076659D01*
X164023093Y-83025492D01*
X164078314Y-82964816D01*
X164122674Y-82894940D01*
X164155907Y-82816175D01*
X164158800Y-82807320D01*
X164165886Y-82783072D01*
X164170542Y-82760475D01*
X164173260Y-82735552D01*
X164174530Y-82704326D01*
X164174844Y-82662820D01*
X164174815Y-82647411D01*
X164174238Y-82609877D01*
X164172543Y-82581287D01*
X164169240Y-82557670D01*
X164163835Y-82535052D01*
X164155837Y-82509464D01*
X164128253Y-82441722D01*
X164087820Y-82374330D01*
X164035981Y-82313810D01*
X164019739Y-82298279D01*
X163956027Y-82248922D01*
X163886557Y-82212418D01*
X163811017Y-82188662D01*
X163729098Y-82177547D01*
X163640489Y-82178967D01*
X163586951Y-82186597D01*
X163512660Y-82208446D01*
X163444323Y-82241929D01*
X163382883Y-82285885D01*
X163329286Y-82339156D01*
X163284476Y-82400583D01*
X163249397Y-82469008D01*
X163224995Y-82543271D01*
X163212214Y-82622213D01*
X163211999Y-82704676D01*
X163058096Y-82704676D01*
X163057106Y-82669952D01*
X163059567Y-82600518D01*
X163067346Y-82539432D01*
X163081324Y-82482368D01*
X163102383Y-82424544D01*
X163103982Y-82420743D01*
X163144890Y-82342023D01*
X163197658Y-82268631D01*
X163260416Y-82202310D01*
X163331294Y-82144804D01*
X163408425Y-82097855D01*
X163489939Y-82063206D01*
X163548763Y-82046434D01*
X163639887Y-82031810D01*
X163730131Y-82030409D01*
X163818366Y-82041617D01*
X163903461Y-82064820D01*
X163984286Y-82099406D01*
X164059711Y-82144761D01*
X164128607Y-82200273D01*
X164189842Y-82265327D01*
X164242287Y-82339311D01*
X164284811Y-82421611D01*
X164316285Y-82511615D01*
X164322765Y-82540861D01*
X164329682Y-82595440D01*
X164332477Y-82655866D01*
X164332327Y-82662820D01*
G37*
G36*
X162421132Y-82033725D02*
G01*
X162465001Y-82037655D01*
X162505098Y-82045156D01*
X162546142Y-82057059D01*
X162592854Y-82074197D01*
X162650017Y-82100119D01*
X162727649Y-82148059D01*
X162797288Y-82206935D01*
X162858050Y-82275699D01*
X162909053Y-82353305D01*
X162949415Y-82438708D01*
X162978252Y-82530862D01*
X162986023Y-82575379D01*
X162990460Y-82635470D01*
X162989931Y-82699137D01*
X162984511Y-82761125D01*
X162974273Y-82816175D01*
X162968222Y-82838473D01*
X162935656Y-82927173D01*
X162891885Y-83008826D01*
X162837943Y-83082481D01*
X162774859Y-83147188D01*
X162703666Y-83201998D01*
X162625395Y-83245960D01*
X162541076Y-83278124D01*
X162451742Y-83297541D01*
X162407840Y-83301042D01*
X162348091Y-83300085D01*
X162285379Y-83293891D01*
X162225155Y-83282814D01*
X162172862Y-83267756D01*
X162093849Y-83233338D01*
X162021715Y-83187015D01*
X161957525Y-83129651D01*
X161902347Y-83062107D01*
X161857247Y-82985247D01*
X161845391Y-82959455D01*
X161821608Y-82892339D01*
X161806394Y-82820292D01*
X161798841Y-82739497D01*
X161794939Y-82655687D01*
X162038434Y-82655687D01*
X162281929Y-82655687D01*
X162281929Y-82727015D01*
X162281929Y-82798343D01*
X162125007Y-82798343D01*
X161968085Y-82798343D01*
X161968085Y-82815424D01*
X161969926Y-82832760D01*
X161977892Y-82864256D01*
X161990637Y-82900055D01*
X162006491Y-82935637D01*
X162023789Y-82966479D01*
X162041380Y-82990636D01*
X162066538Y-83020225D01*
X162091662Y-83045689D01*
X162131850Y-83078659D01*
X162197499Y-83118590D01*
X162266554Y-83144886D01*
X162338178Y-83157432D01*
X162411535Y-83156109D01*
X162485791Y-83140801D01*
X162560110Y-83111390D01*
X162561307Y-83110799D01*
X162593405Y-83093531D01*
X162621325Y-83074838D01*
X162649412Y-83051470D01*
X162682013Y-83020172D01*
X162724937Y-82973547D01*
X162760947Y-82924342D01*
X162789636Y-82871129D01*
X162814046Y-82809043D01*
X162819369Y-82792886D01*
X162826645Y-82766311D01*
X162831058Y-82740242D01*
X162833316Y-82709762D01*
X162834132Y-82669952D01*
X162834144Y-82668023D01*
X162833145Y-82615662D01*
X162828695Y-82571965D01*
X162819653Y-82531818D01*
X162804878Y-82490102D01*
X162783230Y-82441702D01*
X162772391Y-82419632D01*
X162756811Y-82391706D01*
X162739904Y-82367567D01*
X162718495Y-82342865D01*
X162689408Y-82313254D01*
X162659550Y-82285568D01*
X162597010Y-82238916D01*
X162531167Y-82205204D01*
X162460075Y-82183547D01*
X162381789Y-82173058D01*
X162380214Y-82172962D01*
X162300276Y-82175124D01*
X162223145Y-82191147D01*
X162149383Y-82220804D01*
X162079554Y-82263872D01*
X162014220Y-82320124D01*
X162008263Y-82326073D01*
X161988674Y-82344884D01*
X161973736Y-82355369D01*
X161960485Y-82357194D01*
X161945956Y-82350024D01*
X161927183Y-82333523D01*
X161901201Y-82307358D01*
X161859283Y-82264705D01*
X161893668Y-82227944D01*
X161925299Y-82196782D01*
X161996346Y-82141562D01*
X162078644Y-82094787D01*
X162079053Y-82094589D01*
X162134847Y-82069706D01*
X162185839Y-82052107D01*
X162236712Y-82040746D01*
X162292146Y-82034576D01*
X162356824Y-82032548D01*
X162368770Y-82032531D01*
X162421132Y-82033725D01*
G37*
G36*
X160171950Y-83486615D02*
G01*
X160207594Y-83489545D01*
X160283630Y-83504887D01*
X160362237Y-83532918D01*
X160444097Y-83573909D01*
X160529893Y-83628127D01*
X160552609Y-83643637D01*
X160580752Y-83662277D01*
X160604261Y-83677221D01*
X160619630Y-83686199D01*
X160626319Y-83690281D01*
X160645253Y-83704566D01*
X160668733Y-83724589D01*
X160693168Y-83747367D01*
X160703403Y-83757128D01*
X160731057Y-83781747D01*
X160758096Y-83803738D01*
X160779893Y-83819265D01*
X160797908Y-83831684D01*
X160821216Y-83852644D01*
X160843161Y-83879490D01*
X160865729Y-83914760D01*
X160890911Y-83960994D01*
X160898466Y-83975825D01*
X160911162Y-84003223D01*
X160918830Y-84026069D01*
X160923026Y-84049731D01*
X160925309Y-84079577D01*
X160925726Y-84089586D01*
X160923077Y-84141656D01*
X160911342Y-84183254D01*
X160889972Y-84215256D01*
X160858419Y-84238538D01*
X160816133Y-84253976D01*
X160806389Y-84255617D01*
X160778766Y-84256705D01*
X160745631Y-84255029D01*
X160712606Y-84250977D01*
X160685318Y-84244939D01*
X160680008Y-84243350D01*
X160652431Y-84235634D01*
X160612238Y-84224953D01*
X160560415Y-84211567D01*
X160497951Y-84195734D01*
X160474470Y-84188730D01*
X160438879Y-84175966D01*
X160399852Y-84160252D01*
X160362427Y-84143530D01*
X160330089Y-84128661D01*
X160294955Y-84113448D01*
X160264166Y-84101044D01*
X160241941Y-84093211D01*
X160239225Y-84092326D01*
X160220615Y-84085004D01*
X160192106Y-84072674D01*
X160156018Y-84056425D01*
X160114672Y-84037345D01*
X160070386Y-84016523D01*
X160025483Y-83995048D01*
X159982281Y-83974007D01*
X159943101Y-83954491D01*
X159910264Y-83937587D01*
X159902723Y-83933626D01*
X159883654Y-83923638D01*
X159857705Y-83910061D01*
X159828237Y-83894657D01*
X159816948Y-83888756D01*
X159773332Y-83865884D01*
X159740024Y-83848219D01*
X159715088Y-83834666D01*
X159696588Y-83824129D01*
X159682587Y-83815513D01*
X159671149Y-83807722D01*
X159660337Y-83799661D01*
X159655125Y-83795787D01*
X159629487Y-83778889D01*
X159604304Y-83764841D01*
X159587167Y-83755268D01*
X159578167Y-83745340D01*
X159576940Y-83732744D01*
X159580764Y-83719779D01*
X159591206Y-83705678D01*
X159594791Y-83703121D01*
X159601712Y-83699617D01*
X159609824Y-83698683D01*
X159620693Y-83701019D01*
X159635883Y-83707326D01*
X159656961Y-83718305D01*
X159685492Y-83734659D01*
X159723041Y-83757087D01*
X159771174Y-83786291D01*
X159778827Y-83790908D01*
X159811518Y-83809838D01*
X159843136Y-83827031D01*
X159870901Y-83841069D01*
X159892035Y-83850532D01*
X159903759Y-83854002D01*
X159904184Y-83854020D01*
X159908121Y-83854980D01*
X159915788Y-83857891D01*
X159928714Y-83863438D01*
X159948431Y-83872309D01*
X159976467Y-83885191D01*
X160014354Y-83902768D01*
X160063620Y-83925729D01*
X160079994Y-83933278D01*
X160120104Y-83951093D01*
X160158453Y-83967279D01*
X160191350Y-83980302D01*
X160215103Y-83988630D01*
X160221815Y-83990760D01*
X160249514Y-84000420D01*
X160285178Y-84013731D01*
X160324930Y-84029222D01*
X160364893Y-84045423D01*
X160371338Y-84048089D01*
X160431702Y-84072547D01*
X160482599Y-84091951D01*
X160527127Y-84107311D01*
X160568388Y-84119632D01*
X160609482Y-84129922D01*
X160653509Y-84139188D01*
X160671905Y-84142750D01*
X160701690Y-84148071D01*
X160722979Y-84150662D01*
X160739466Y-84150652D01*
X160754846Y-84148168D01*
X160772813Y-84143340D01*
X160789442Y-84137591D01*
X160808588Y-84128222D01*
X160818632Y-84119550D01*
X160821010Y-84112235D01*
X160821746Y-84089772D01*
X160817484Y-84061521D01*
X160809111Y-84032221D01*
X160797513Y-84006611D01*
X160797462Y-84006525D01*
X160775373Y-83972944D01*
X160746005Y-83934565D01*
X160711576Y-83893737D01*
X160674304Y-83852807D01*
X160636406Y-83814125D01*
X160600100Y-83780039D01*
X160567602Y-83752898D01*
X160541131Y-83735051D01*
X160535703Y-83731990D01*
X160512367Y-83717272D01*
X160492957Y-83702954D01*
X160484006Y-83696733D01*
X160463021Y-83684201D01*
X160433759Y-83667896D01*
X160398773Y-83649232D01*
X160360614Y-83629623D01*
X160351652Y-83625112D01*
X160311539Y-83605243D01*
X160280923Y-83590939D01*
X160257215Y-83581226D01*
X160237824Y-83575133D01*
X160220160Y-83571685D01*
X160201633Y-83569910D01*
X160185235Y-83569119D01*
X160160871Y-83570160D01*
X160147940Y-83575779D01*
X160144726Y-83587145D01*
X160149513Y-83605427D01*
X160156988Y-83617931D01*
X160174920Y-83638609D01*
X160200078Y-83663066D01*
X160229876Y-83689064D01*
X160261727Y-83714367D01*
X160293045Y-83736738D01*
X160321244Y-83753941D01*
X160339349Y-83763675D01*
X160371383Y-83780872D01*
X160401210Y-83796857D01*
X160403731Y-83798190D01*
X160432461Y-83812084D01*
X160467017Y-83827160D01*
X160500475Y-83840382D01*
X160527483Y-83849826D01*
X160551668Y-83856284D01*
X160571273Y-83858224D01*
X160590854Y-83856456D01*
X160599738Y-83855185D01*
X160622148Y-83853103D01*
X160637813Y-83853183D01*
X160654051Y-83858296D01*
X160678461Y-83873569D01*
X160700755Y-83894720D01*
X160716064Y-83917732D01*
X160719209Y-83925347D01*
X160724322Y-83951099D01*
X160718119Y-83969571D01*
X160700849Y-83979754D01*
X160695407Y-83980885D01*
X160663890Y-83982064D01*
X160624588Y-83977248D01*
X160581310Y-83967273D01*
X160537867Y-83952976D01*
X160498068Y-83935195D01*
X160482698Y-83927145D01*
X160456959Y-83913681D01*
X160430306Y-83899751D01*
X160419492Y-83894004D01*
X160390283Y-83877968D01*
X160356669Y-83859024D01*
X160323968Y-83840152D01*
X160309663Y-83831822D01*
X160274783Y-83811794D01*
X160240804Y-83792613D01*
X160213409Y-83777499D01*
X160209666Y-83775472D01*
X160161707Y-83748849D01*
X160124813Y-83726521D01*
X160097232Y-83706880D01*
X160077211Y-83688320D01*
X160062998Y-83669235D01*
X160052841Y-83648017D01*
X160044987Y-83623060D01*
X160044813Y-83622406D01*
X160037004Y-83586648D01*
X160035844Y-83560504D01*
X160041641Y-83540855D01*
X160054704Y-83524583D01*
X160073169Y-83508260D01*
X160092277Y-83495294D01*
X160112126Y-83488331D01*
X160137191Y-83485921D01*
X160171950Y-83486615D01*
G37*
G36*
X161804285Y-78490487D02*
G01*
X161856860Y-78490797D01*
X161906224Y-78491394D01*
X161950352Y-78492281D01*
X161987219Y-78493460D01*
X162014800Y-78494934D01*
X162031071Y-78496706D01*
X162038798Y-78498396D01*
X162058387Y-78504489D01*
X162070108Y-78510824D01*
X162070610Y-78511613D01*
X162073691Y-78523493D01*
X162077774Y-78547632D01*
X162082646Y-78582420D01*
X162088091Y-78626247D01*
X162093897Y-78677503D01*
X162099849Y-78734578D01*
X162121441Y-78950183D01*
X162142839Y-78952225D01*
X162165030Y-78954930D01*
X162200214Y-78960160D01*
X162243637Y-78967225D01*
X162292283Y-78975592D01*
X162343139Y-78984731D01*
X162393188Y-78994110D01*
X162439414Y-79003197D01*
X162478803Y-79011460D01*
X162513947Y-79019582D01*
X162589780Y-79039433D01*
X162666768Y-79062356D01*
X162739803Y-79086782D01*
X162803774Y-79111145D01*
X162809434Y-79113441D01*
X162834195Y-79122594D01*
X162853442Y-79128310D01*
X162863406Y-79129433D01*
X162867501Y-79125411D01*
X162879165Y-79111073D01*
X162896886Y-79087921D01*
X162919453Y-79057570D01*
X162945655Y-79021632D01*
X162974281Y-78981720D01*
X162985886Y-78965437D01*
X163023109Y-78913683D01*
X163053551Y-78872362D01*
X163078154Y-78840386D01*
X163097859Y-78816666D01*
X163113609Y-78800112D01*
X163126345Y-78789636D01*
X163137009Y-78784148D01*
X163146544Y-78782561D01*
X163147447Y-78782646D01*
X163159991Y-78787133D01*
X163182940Y-78797820D01*
X163214634Y-78813850D01*
X163253412Y-78834366D01*
X163297616Y-78858509D01*
X163345584Y-78885422D01*
X163351206Y-78888616D01*
X163399642Y-78916133D01*
X163445899Y-78942404D01*
X163487934Y-78966269D01*
X163523701Y-78986567D01*
X163551155Y-79002137D01*
X163568252Y-79011819D01*
X163588059Y-79024475D01*
X163608341Y-79041005D01*
X163620172Y-79055229D01*
X163620382Y-79055637D01*
X163623431Y-79062691D01*
X163624953Y-79070493D01*
X163624454Y-79080402D01*
X163621441Y-79093773D01*
X163615422Y-79111963D01*
X163605903Y-79136328D01*
X163592391Y-79168226D01*
X163574393Y-79209013D01*
X163551416Y-79260045D01*
X163522967Y-79322679D01*
X163453187Y-79476015D01*
X163525514Y-79534076D01*
X163577470Y-79577353D01*
X163666210Y-79658197D01*
X163758423Y-79750668D01*
X163854659Y-79855330D01*
X163955469Y-79972744D01*
X163970626Y-79990938D01*
X164126657Y-79919110D01*
X164161297Y-79903209D01*
X164218557Y-79877238D01*
X164264964Y-79856756D01*
X164301822Y-79841282D01*
X164330434Y-79830331D01*
X164352103Y-79823422D01*
X164368133Y-79820071D01*
X164379827Y-79819795D01*
X164388487Y-79822113D01*
X164394740Y-79827400D01*
X164408712Y-79845195D01*
X164428277Y-79874406D01*
X164452931Y-79914271D01*
X164482170Y-79964026D01*
X164482221Y-79964114D01*
X164509323Y-80011104D01*
X164538029Y-80060778D01*
X164566160Y-80109372D01*
X164591538Y-80153124D01*
X164611985Y-80188272D01*
X164631393Y-80222174D01*
X164648195Y-80253881D01*
X164658483Y-80277612D01*
X164662990Y-80295520D01*
X164662445Y-80309755D01*
X164657580Y-80322469D01*
X164656947Y-80323353D01*
X164647327Y-80332189D01*
X164627904Y-80347839D01*
X164600211Y-80369137D01*
X164565779Y-80394921D01*
X164526140Y-80424026D01*
X164482826Y-80455287D01*
X164472177Y-80462921D01*
X164430133Y-80493324D01*
X164392478Y-80520958D01*
X164360664Y-80544729D01*
X164336144Y-80563543D01*
X164320367Y-80576306D01*
X164314785Y-80581926D01*
X164315053Y-80583426D01*
X164318898Y-80595899D01*
X164326600Y-80618258D01*
X164337247Y-80647904D01*
X164349931Y-80682239D01*
X164352583Y-80689353D01*
X164394413Y-80809841D01*
X164428988Y-80927613D01*
X164457797Y-81048239D01*
X164482331Y-81177286D01*
X164485260Y-81194442D01*
X164491289Y-81228870D01*
X164496375Y-81256744D01*
X164500054Y-81275557D01*
X164501863Y-81282802D01*
X164501900Y-81282824D01*
X164509807Y-81283980D01*
X164529984Y-81286281D01*
X164560581Y-81289532D01*
X164599748Y-81293542D01*
X164645635Y-81298117D01*
X164696392Y-81303064D01*
X164701241Y-81303532D01*
X164766031Y-81309921D01*
X164818150Y-81315447D01*
X164859049Y-81320407D01*
X164890175Y-81325096D01*
X164912979Y-81329811D01*
X164928909Y-81334846D01*
X164939414Y-81340499D01*
X164945943Y-81347065D01*
X164949947Y-81354839D01*
X164951699Y-81363673D01*
X164953708Y-81385676D01*
X164955305Y-81417072D01*
X164956359Y-81455118D01*
X164956740Y-81497067D01*
X164956740Y-81621427D01*
X164451141Y-81621427D01*
X164382729Y-81621420D01*
X164294705Y-81621374D01*
X164219296Y-81621263D01*
X164155522Y-81621065D01*
X164102407Y-81620754D01*
X164058970Y-81620307D01*
X164024235Y-81619700D01*
X163997224Y-81618908D01*
X163976956Y-81617908D01*
X163962456Y-81616676D01*
X163952744Y-81615188D01*
X163946842Y-81613419D01*
X163943771Y-81611346D01*
X163942555Y-81608944D01*
X163941484Y-81600561D01*
X163940080Y-81579844D01*
X163938799Y-81551150D01*
X163937824Y-81518001D01*
X163929400Y-81375789D01*
X163906733Y-81212428D01*
X163870629Y-81051539D01*
X163821524Y-80894075D01*
X163759852Y-80740989D01*
X163686051Y-80593236D01*
X163600555Y-80451767D01*
X163503799Y-80317536D01*
X163396221Y-80191497D01*
X163278255Y-80074603D01*
X163206678Y-80012126D01*
X163066489Y-79903912D01*
X162919367Y-79807750D01*
X162766056Y-79723861D01*
X162607301Y-79652466D01*
X162443849Y-79593783D01*
X162276444Y-79548035D01*
X162105831Y-79515441D01*
X161932756Y-79496221D01*
X161757963Y-79490597D01*
X161582200Y-79498788D01*
X161406209Y-79521015D01*
X161259371Y-79551102D01*
X161098859Y-79597522D01*
X160943608Y-79657099D01*
X160793858Y-79729689D01*
X160649855Y-79815145D01*
X160511841Y-79913321D01*
X160380061Y-80024072D01*
X160254756Y-80147251D01*
X160136172Y-80282712D01*
X160117877Y-80305633D01*
X160100839Y-80327949D01*
X160089278Y-80344249D01*
X160085018Y-80352059D01*
X160089764Y-80352788D01*
X160108035Y-80353667D01*
X160139439Y-80354528D01*
X160183356Y-80355366D01*
X160239162Y-80356176D01*
X160306236Y-80356951D01*
X160383957Y-80357687D01*
X160471702Y-80358376D01*
X160568850Y-80359013D01*
X160674779Y-80359593D01*
X160788868Y-80360109D01*
X160910493Y-80360556D01*
X161039034Y-80360929D01*
X161157943Y-80361231D01*
X161282082Y-80361558D01*
X161393381Y-80361876D01*
X161492604Y-80362198D01*
X161580513Y-80362536D01*
X161657870Y-80362905D01*
X161725439Y-80363318D01*
X161783983Y-80363788D01*
X161834264Y-80364327D01*
X161877046Y-80364950D01*
X161913091Y-80365670D01*
X161943161Y-80366500D01*
X161968021Y-80367453D01*
X161988433Y-80368543D01*
X162005159Y-80369782D01*
X162018963Y-80371184D01*
X162030608Y-80372763D01*
X162040855Y-80374531D01*
X162050469Y-80376502D01*
X162060212Y-80378690D01*
X162161832Y-80405868D01*
X162290340Y-80452562D01*
X162411164Y-80511034D01*
X162523848Y-80580919D01*
X162627934Y-80661852D01*
X162722965Y-80753468D01*
X162808483Y-80855401D01*
X162884031Y-80967286D01*
X162949152Y-81088758D01*
X162952711Y-81096343D01*
X162996268Y-81203198D01*
X163030011Y-81314166D01*
X163053010Y-81425649D01*
X163064335Y-81534050D01*
X163068616Y-81621427D01*
X162790466Y-81621427D01*
X162512316Y-81621427D01*
X162507860Y-81558644D01*
X162506264Y-81540248D01*
X162490077Y-81449416D01*
X162460760Y-81360209D01*
X162419240Y-81274609D01*
X162366447Y-81194596D01*
X162303307Y-81122149D01*
X162238229Y-81064064D01*
X162164594Y-81013511D01*
X162083179Y-80972306D01*
X161991510Y-80938996D01*
X161979095Y-80935264D01*
X161956804Y-80929212D01*
X161935945Y-80924976D01*
X161913376Y-80922232D01*
X161885960Y-80920658D01*
X161850558Y-80919932D01*
X161804030Y-80919731D01*
X161773736Y-80919871D01*
X161718345Y-80921552D01*
X161671731Y-80925741D01*
X161630212Y-80933201D01*
X161590108Y-80944693D01*
X161547737Y-80960981D01*
X161499417Y-80982827D01*
X161465060Y-80999934D01*
X161403039Y-81036625D01*
X161347510Y-81078826D01*
X161293258Y-81130266D01*
X161237428Y-81194531D01*
X161184229Y-81273879D01*
X161143371Y-81359069D01*
X161114281Y-81451328D01*
X161096387Y-81551882D01*
X161088125Y-81621427D01*
X160810206Y-81621427D01*
X160532287Y-81621427D01*
X160536274Y-81537616D01*
X160541138Y-81477099D01*
X160558628Y-81369046D01*
X160586674Y-81259378D01*
X160624147Y-81151610D01*
X160669919Y-81049258D01*
X160722865Y-80955835D01*
X160747330Y-80917590D01*
X160410824Y-80912875D01*
X160383571Y-80912512D01*
X160305892Y-80911628D01*
X160217828Y-80910808D01*
X160122162Y-80910068D01*
X160021673Y-80909424D01*
X159919144Y-80908894D01*
X159817354Y-80908494D01*
X159719085Y-80908241D01*
X159627119Y-80908152D01*
X159179918Y-80908144D01*
X159191001Y-80870697D01*
X159199462Y-80843478D01*
X159211603Y-80806364D01*
X159225890Y-80763925D01*
X159241022Y-80719943D01*
X159255696Y-80678200D01*
X159268613Y-80642476D01*
X159278470Y-80616554D01*
X159284944Y-80599675D01*
X159290441Y-80583493D01*
X159291753Y-80576633D01*
X159287141Y-80573345D01*
X159272272Y-80562791D01*
X159248680Y-80546064D01*
X159217937Y-80524278D01*
X159181616Y-80498548D01*
X159141288Y-80469987D01*
X159109203Y-80447224D01*
X159061583Y-80413168D01*
X159023861Y-80385680D01*
X158994859Y-80363791D01*
X158973396Y-80346535D01*
X158958291Y-80332945D01*
X158948366Y-80322054D01*
X158942439Y-80312895D01*
X158939332Y-80304501D01*
X158939182Y-80303786D01*
X158939836Y-80295500D01*
X158944264Y-80282085D01*
X158953061Y-80262358D01*
X158966823Y-80235136D01*
X158986144Y-80199235D01*
X159011620Y-80153471D01*
X159043845Y-80096661D01*
X159082325Y-80029556D01*
X159114814Y-79973698D01*
X159141833Y-79928336D01*
X159164054Y-79892450D01*
X159182151Y-79865019D01*
X159196798Y-79845022D01*
X159208668Y-79831439D01*
X159218433Y-79823251D01*
X159226767Y-79819435D01*
X159227874Y-79819243D01*
X159238846Y-79820598D01*
X159258076Y-79826469D01*
X159286472Y-79837217D01*
X159324939Y-79853201D01*
X159374385Y-79874782D01*
X159435716Y-79902318D01*
X159450809Y-79909143D01*
X159498534Y-79930497D01*
X159541629Y-79949441D01*
X159578430Y-79965267D01*
X159607268Y-79977263D01*
X159626478Y-79984721D01*
X159634393Y-79986931D01*
X159636084Y-79985676D01*
X159645794Y-79975617D01*
X159661944Y-79957292D01*
X159682758Y-79932742D01*
X159706464Y-79904008D01*
X159738792Y-79865606D01*
X159797325Y-79800687D01*
X159862248Y-79733276D01*
X159930643Y-79666205D01*
X159999592Y-79602307D01*
X160066176Y-79544416D01*
X160127476Y-79495363D01*
X160151656Y-79477051D01*
X160078126Y-79317043D01*
X160059512Y-79276327D01*
X160032919Y-79217107D01*
X160012073Y-79169027D01*
X159996567Y-79131075D01*
X159985995Y-79102238D01*
X159979951Y-79081505D01*
X159978026Y-79067863D01*
X159980540Y-79058385D01*
X159990508Y-79044645D01*
X160002140Y-79036146D01*
X160024252Y-79022007D01*
X160054881Y-79003405D01*
X160092293Y-78981314D01*
X160134753Y-78956707D01*
X160180525Y-78930556D01*
X160227875Y-78903836D01*
X160275066Y-78877520D01*
X160320363Y-78852581D01*
X160362031Y-78829992D01*
X160398335Y-78810726D01*
X160427540Y-78795758D01*
X160447909Y-78786059D01*
X160457709Y-78782605D01*
X160473253Y-78785565D01*
X160489806Y-78795257D01*
X160490317Y-78795803D01*
X160498596Y-78806174D01*
X160513784Y-78826352D01*
X160534696Y-78854722D01*
X160560146Y-78889664D01*
X160588949Y-78929561D01*
X160619917Y-78972795D01*
X160737546Y-79137638D01*
X160773273Y-79122935D01*
X160775941Y-79121844D01*
X160813706Y-79107334D01*
X160861216Y-79090352D01*
X160914779Y-79072107D01*
X160970702Y-79053811D01*
X161025294Y-79036672D01*
X161074861Y-79021901D01*
X161115712Y-79010708D01*
X161129606Y-79007271D01*
X161172125Y-78997576D01*
X161221642Y-78987157D01*
X161273085Y-78977058D01*
X161321383Y-78968325D01*
X161352971Y-78962854D01*
X161388592Y-78956495D01*
X161417158Y-78951178D01*
X161436332Y-78947341D01*
X161443775Y-78945420D01*
X161443803Y-78945380D01*
X161445122Y-78937379D01*
X161447568Y-78917110D01*
X161450942Y-78886428D01*
X161455046Y-78847189D01*
X161459681Y-78801249D01*
X161464649Y-78750464D01*
X161468735Y-78708570D01*
X161474666Y-78650626D01*
X161479895Y-78604579D01*
X161484686Y-78568985D01*
X161489308Y-78542402D01*
X161494027Y-78523388D01*
X161499108Y-78510500D01*
X161504819Y-78502295D01*
X161511427Y-78497332D01*
X161516447Y-78496165D01*
X161534801Y-78494531D01*
X161564118Y-78493166D01*
X161602374Y-78492075D01*
X161647543Y-78491259D01*
X161697602Y-78490721D01*
X161750524Y-78490462D01*
X161804285Y-78490487D01*
G37*
G36*
X159095356Y-83859954D02*
G01*
X159094167Y-83867124D01*
X159093223Y-83868842D01*
X159081741Y-83884219D01*
X159064938Y-83897191D01*
X159040611Y-83908835D01*
X159006554Y-83920229D01*
X158960564Y-83932451D01*
X158945783Y-83937364D01*
X158930088Y-83946937D01*
X158912909Y-83963151D01*
X158891019Y-83988610D01*
X158883229Y-83998308D01*
X158866753Y-84020178D01*
X158855319Y-84037334D01*
X158851039Y-84046709D01*
X158851247Y-84048447D01*
X158856808Y-84061402D01*
X158867574Y-84078013D01*
X158873405Y-84086266D01*
X158887351Y-84107457D01*
X158904563Y-84134748D01*
X158922578Y-84164280D01*
X158932923Y-84181356D01*
X158951795Y-84211703D01*
X158968940Y-84238356D01*
X158981615Y-84257007D01*
X158986924Y-84264705D01*
X159001868Y-84288107D01*
X159019510Y-84317343D01*
X159037063Y-84347850D01*
X159043176Y-84358623D01*
X159065535Y-84396501D01*
X159090273Y-84436700D01*
X159113064Y-84472151D01*
X159131544Y-84499985D01*
X159145180Y-84520672D01*
X159155512Y-84536845D01*
X159164585Y-84551902D01*
X159174445Y-84569239D01*
X159187138Y-84592256D01*
X159204709Y-84624347D01*
X159206071Y-84626830D01*
X159226212Y-84663188D01*
X159250367Y-84706283D01*
X159275618Y-84750937D01*
X159299052Y-84791969D01*
X159304129Y-84800802D01*
X159325808Y-84838524D01*
X159346972Y-84875359D01*
X159365422Y-84907479D01*
X159378959Y-84931059D01*
X159389719Y-84950210D01*
X159406303Y-84980532D01*
X159425330Y-85015914D01*
X159445253Y-85053427D01*
X159464526Y-85090139D01*
X159481604Y-85123121D01*
X159494940Y-85149441D01*
X159502989Y-85166169D01*
X159504638Y-85169835D01*
X159518474Y-85198952D01*
X159534135Y-85229717D01*
X159550021Y-85259230D01*
X159564532Y-85284588D01*
X159576067Y-85302891D01*
X159583024Y-85311236D01*
X159583424Y-85311487D01*
X159590097Y-85322527D01*
X159592853Y-85340321D01*
X159593302Y-85347539D01*
X159599620Y-85375261D01*
X159613516Y-85413656D01*
X159635135Y-85463100D01*
X159664625Y-85523967D01*
X159673648Y-85542649D01*
X159689971Y-85579663D01*
X159704083Y-85615502D01*
X159713674Y-85644492D01*
X159722603Y-85672700D01*
X159734488Y-85703668D01*
X159745907Y-85727819D01*
X159751721Y-85739291D01*
X159760560Y-85762365D01*
X159764041Y-85780447D01*
X159764413Y-85785120D01*
X159770486Y-85805526D01*
X159781641Y-85826565D01*
X159787649Y-85836544D01*
X159792527Y-85848792D01*
X159792630Y-85849051D01*
X159795792Y-85864905D01*
X159797274Y-85886281D01*
X159797215Y-85915355D01*
X159795752Y-85954300D01*
X159793024Y-86005291D01*
X159792815Y-86006475D01*
X159786638Y-86017710D01*
X159774703Y-86032447D01*
X159763561Y-86042832D01*
X159748433Y-86049276D01*
X159726556Y-86049538D01*
X159718480Y-86048756D01*
X159699537Y-86043533D01*
X159690006Y-86033081D01*
X159688027Y-86029961D01*
X159675689Y-86017585D01*
X159655625Y-86001416D01*
X159631054Y-85984128D01*
X159603246Y-85964114D01*
X159567199Y-85931411D01*
X159531076Y-85889755D01*
X159516334Y-85871612D01*
X159495710Y-85847670D01*
X159478367Y-85829171D01*
X159466986Y-85819069D01*
X159455686Y-85808717D01*
X159450197Y-85796817D01*
X159448207Y-85791005D01*
X159436834Y-85773825D01*
X159415594Y-85747210D01*
X159384735Y-85711451D01*
X159344502Y-85666837D01*
X159295140Y-85613660D01*
X159294834Y-85613334D01*
X159272060Y-85588557D01*
X159253421Y-85567325D01*
X159240833Y-85551884D01*
X159236212Y-85544484D01*
X159236138Y-85544127D01*
X159230823Y-85535525D01*
X159218076Y-85517864D01*
X159199255Y-85492951D01*
X159175721Y-85462588D01*
X159148835Y-85428580D01*
X159121632Y-85394486D01*
X159091965Y-85357301D01*
X159064648Y-85323057D01*
X159041863Y-85294492D01*
X159025793Y-85274342D01*
X159009984Y-85254279D01*
X158975774Y-85209390D01*
X158943360Y-85165007D01*
X158915231Y-85124576D01*
X158893874Y-85091547D01*
X158878897Y-85068928D01*
X158858129Y-85040497D01*
X158836993Y-85013872D01*
X158835331Y-85011870D01*
X158817658Y-84988269D01*
X158803956Y-84966012D01*
X158797070Y-84949676D01*
X158791032Y-84927736D01*
X158780501Y-84898416D01*
X158767986Y-84868944D01*
X158755467Y-84843939D01*
X158744923Y-84828021D01*
X158743058Y-84825734D01*
X158733490Y-84807306D01*
X158727330Y-84784915D01*
X158725106Y-84775219D01*
X158715204Y-84749881D01*
X158701422Y-84725861D01*
X158694038Y-84714412D01*
X158683849Y-84694165D01*
X158679851Y-84679222D01*
X158677304Y-84665414D01*
X158668695Y-84647258D01*
X158662490Y-84633662D01*
X158661902Y-84617583D01*
X158661998Y-84617255D01*
X158661992Y-84603373D01*
X158658161Y-84580903D01*
X158651295Y-84554548D01*
X158650498Y-84551886D01*
X158637703Y-84495135D01*
X158630451Y-84433250D01*
X158629167Y-84372121D01*
X158629459Y-84369005D01*
X158708871Y-84369005D01*
X158709166Y-84392025D01*
X158710839Y-84414985D01*
X158714223Y-84440205D01*
X158719651Y-84470004D01*
X158727457Y-84506703D01*
X158737974Y-84552622D01*
X158751535Y-84610082D01*
X158753462Y-84617423D01*
X158764204Y-84649296D01*
X158780513Y-84690061D01*
X158801129Y-84737078D01*
X158824794Y-84787706D01*
X158850248Y-84839302D01*
X158876232Y-84889225D01*
X158901487Y-84934834D01*
X158924754Y-84973488D01*
X158926072Y-84975561D01*
X158942070Y-85001309D01*
X158956078Y-85024820D01*
X158965198Y-85041236D01*
X158967642Y-85045652D01*
X158981553Y-85065589D01*
X158998502Y-85085035D01*
X159003163Y-85090004D01*
X159021489Y-85113502D01*
X159036590Y-85138103D01*
X159037883Y-85140512D01*
X159048407Y-85157277D01*
X159064442Y-85180367D01*
X159084025Y-85207214D01*
X159105191Y-85235250D01*
X159125978Y-85261907D01*
X159144423Y-85284618D01*
X159158561Y-85300814D01*
X159166430Y-85307928D01*
X159167188Y-85308403D01*
X159175370Y-85316808D01*
X159189045Y-85333094D01*
X159205701Y-85354291D01*
X159209249Y-85358852D01*
X159226634Y-85380165D01*
X159251009Y-85409058D01*
X159280391Y-85443217D01*
X159312797Y-85480333D01*
X159346244Y-85518093D01*
X159358217Y-85531547D01*
X159390283Y-85567955D01*
X159419825Y-85602022D01*
X159445085Y-85631687D01*
X159464300Y-85654891D01*
X159475709Y-85669572D01*
X159485434Y-85681899D01*
X159503450Y-85702135D01*
X159526193Y-85726004D01*
X159551834Y-85751768D01*
X159578545Y-85777688D01*
X159604500Y-85802026D01*
X159627868Y-85823044D01*
X159646824Y-85839003D01*
X159659537Y-85848165D01*
X159664182Y-85848792D01*
X159663914Y-85844461D01*
X159661081Y-85825081D01*
X159655656Y-85795777D01*
X159648261Y-85759351D01*
X159639518Y-85718602D01*
X159630050Y-85676332D01*
X159620478Y-85635341D01*
X159611425Y-85598430D01*
X159603514Y-85568399D01*
X159597365Y-85548048D01*
X159595663Y-85543474D01*
X159586271Y-85521530D01*
X159571748Y-85490158D01*
X159553305Y-85451759D01*
X159532150Y-85408733D01*
X159509491Y-85363480D01*
X159486539Y-85318402D01*
X159464500Y-85275898D01*
X159444586Y-85238370D01*
X159428004Y-85208217D01*
X159415963Y-85187841D01*
X159412160Y-85181264D01*
X159401955Y-85162087D01*
X159387726Y-85134349D01*
X159370805Y-85100662D01*
X159352525Y-85063637D01*
X159339827Y-85037798D01*
X159323685Y-85005279D01*
X159310446Y-84978994D01*
X159301222Y-84961144D01*
X159297121Y-84953926D01*
X159296886Y-84953636D01*
X159291818Y-84944838D01*
X159281849Y-84926150D01*
X159268306Y-84900090D01*
X159252515Y-84869180D01*
X159243915Y-84852231D01*
X159217807Y-84801063D01*
X159196089Y-84759062D01*
X159177279Y-84723415D01*
X159159896Y-84691304D01*
X159142460Y-84659916D01*
X159126826Y-84631784D01*
X159107361Y-84596242D01*
X159089808Y-84563718D01*
X159071433Y-84529805D01*
X159042052Y-84478340D01*
X159015955Y-84436809D01*
X158991787Y-84403117D01*
X158968197Y-84375166D01*
X158965153Y-84371782D01*
X158946016Y-84348410D01*
X158922022Y-84316650D01*
X158895354Y-84279640D01*
X158868198Y-84240515D01*
X158842738Y-84202410D01*
X158821158Y-84168463D01*
X158805644Y-84141809D01*
X158792346Y-84116962D01*
X158774914Y-84133338D01*
X158764067Y-84146503D01*
X158749737Y-84168876D01*
X158736148Y-84194415D01*
X158726668Y-84215767D01*
X158720125Y-84235520D01*
X158715777Y-84257573D01*
X158712837Y-84285914D01*
X158710520Y-84324531D01*
X158709621Y-84343605D01*
X158708871Y-84369005D01*
X158629459Y-84369005D01*
X158634272Y-84317636D01*
X158637952Y-84296720D01*
X158642213Y-84274184D01*
X158647217Y-84249834D01*
X158653609Y-84220655D01*
X158662032Y-84183631D01*
X158673131Y-84135749D01*
X158683884Y-84105845D01*
X158702466Y-84079209D01*
X158709601Y-84072022D01*
X158725140Y-84053758D01*
X158730726Y-84038469D01*
X158727082Y-84021439D01*
X158714933Y-83997947D01*
X158704900Y-83981533D01*
X158694151Y-83966708D01*
X158687538Y-83960994D01*
X158687022Y-83960926D01*
X158680433Y-83953819D01*
X158673435Y-83938586D01*
X158668474Y-83927343D01*
X158656841Y-83905130D01*
X158641011Y-83877207D01*
X158622926Y-83847091D01*
X158593729Y-83799849D01*
X158688829Y-83799849D01*
X158689046Y-83800983D01*
X158694618Y-83810860D01*
X158706043Y-83828485D01*
X158721532Y-83851059D01*
X158725316Y-83856485D01*
X158743021Y-83882739D01*
X158758269Y-83906624D01*
X158768107Y-83923547D01*
X158769975Y-83927042D01*
X158778935Y-83940837D01*
X158785244Y-83946105D01*
X158794646Y-83940608D01*
X158809831Y-83927148D01*
X158827437Y-83909179D01*
X158844266Y-83890143D01*
X158857123Y-83873479D01*
X158862810Y-83862628D01*
X158863088Y-83859954D01*
X158860444Y-83851251D01*
X158849625Y-83844059D01*
X158827732Y-83836192D01*
X158813333Y-83831547D01*
X158790998Y-83823898D01*
X158776144Y-83818244D01*
X158772533Y-83816849D01*
X158756142Y-83812013D01*
X158734922Y-83806915D01*
X158713527Y-83802534D01*
X158696611Y-83799852D01*
X158688829Y-83799849D01*
X158593729Y-83799849D01*
X158580228Y-83778004D01*
X158506998Y-83755496D01*
X158488249Y-83749950D01*
X158449788Y-83739618D01*
X158413011Y-83730905D01*
X158383839Y-83725265D01*
X158356934Y-83720566D01*
X158333746Y-83715548D01*
X158319643Y-83711353D01*
X158309875Y-83708884D01*
X158287281Y-83705129D01*
X158254812Y-83700657D01*
X158214801Y-83695725D01*
X158169579Y-83690585D01*
X158121479Y-83685493D01*
X158072831Y-83680703D01*
X158025967Y-83676469D01*
X157983219Y-83673046D01*
X157946920Y-83670689D01*
X157920241Y-83669020D01*
X157887756Y-83665633D01*
X157866921Y-83660735D01*
X157856125Y-83653578D01*
X157853756Y-83643413D01*
X157858199Y-83629491D01*
X157868500Y-83616645D01*
X157891559Y-83607470D01*
X157908857Y-83606219D01*
X157938522Y-83606459D01*
X157978169Y-83608054D01*
X158025684Y-83610817D01*
X158078952Y-83614563D01*
X158135859Y-83619104D01*
X158194287Y-83624254D01*
X158252124Y-83629826D01*
X158307254Y-83635634D01*
X158357562Y-83641491D01*
X158400932Y-83647210D01*
X158435251Y-83652605D01*
X158458402Y-83657489D01*
X158474975Y-83661672D01*
X158492181Y-83665140D01*
X158499883Y-83665441D01*
X158500090Y-83665070D01*
X158497693Y-83656141D01*
X158489371Y-83638556D01*
X158476765Y-83615240D01*
X158461514Y-83589118D01*
X158445259Y-83563116D01*
X158429639Y-83540157D01*
X158415562Y-83519967D01*
X158399390Y-83495255D01*
X158387891Y-83475962D01*
X158386505Y-83473487D01*
X158374191Y-83454394D01*
X158356604Y-83429888D01*
X158337069Y-83404634D01*
X158335194Y-83402289D01*
X158316074Y-83377219D01*
X158292369Y-83344622D01*
X158266913Y-83308455D01*
X158242541Y-83272676D01*
X158229921Y-83253861D01*
X158191700Y-83198187D01*
X158156715Y-83149643D01*
X158122003Y-83104200D01*
X158084602Y-83057827D01*
X158063804Y-83031979D01*
X158038019Y-82998778D01*
X158015481Y-82968667D01*
X158004850Y-82954521D01*
X157983814Y-82927628D01*
X157957545Y-82894863D01*
X157928373Y-82859124D01*
X157898628Y-82823308D01*
X157874746Y-82794572D01*
X157848697Y-82762620D01*
X157826501Y-82734743D01*
X157809958Y-82713205D01*
X157800864Y-82700267D01*
X157798487Y-82696544D01*
X157786871Y-82682691D01*
X157777233Y-82677085D01*
X157767837Y-82671522D01*
X157758322Y-82657727D01*
X157745815Y-82642215D01*
X157722023Y-82631995D01*
X157710625Y-82628616D01*
X157694058Y-82617920D01*
X157680917Y-82597962D01*
X157679513Y-82595265D01*
X157663080Y-82571598D01*
X157641012Y-82554988D01*
X157608995Y-82542084D01*
X157592106Y-82534861D01*
X157581834Y-82523386D01*
X157574396Y-82502806D01*
X157572848Y-82496998D01*
X157569196Y-82469460D01*
X157575163Y-82447174D01*
X157591983Y-82424665D01*
X157593828Y-82422783D01*
X157613943Y-82410312D01*
X157637596Y-82405316D01*
X157659783Y-82408129D01*
X157675501Y-82419085D01*
X157675976Y-82419705D01*
X157687711Y-82429547D01*
X157708013Y-82442396D01*
X157732790Y-82455640D01*
X157748476Y-82463791D01*
X157778213Y-82483689D01*
X157796985Y-82504667D01*
X157799793Y-82509056D01*
X157813062Y-82529258D01*
X157823912Y-82545040D01*
X157824963Y-82546517D01*
X157836431Y-82563740D01*
X157848877Y-82583758D01*
X157851227Y-82587664D01*
X157871514Y-82619452D01*
X157895608Y-82653727D01*
X157925455Y-82693164D01*
X157963002Y-82740435D01*
X157984324Y-82767134D01*
X158016231Y-82807790D01*
X158048660Y-82849754D01*
X158077127Y-82887256D01*
X158100891Y-82918693D01*
X158127816Y-82953800D01*
X158152886Y-82986013D01*
X158172786Y-83011046D01*
X158188071Y-83030735D01*
X158211658Y-83062957D01*
X158236757Y-83098821D01*
X158259996Y-83133586D01*
X158274719Y-83155996D01*
X158305251Y-83200847D01*
X158334599Y-83241942D01*
X158361197Y-83277178D01*
X158383482Y-83304450D01*
X158399888Y-83321656D01*
X158411031Y-83333921D01*
X158415937Y-83344352D01*
X158415963Y-83344798D01*
X158419998Y-83356113D01*
X158429872Y-83376767D01*
X158444115Y-83404145D01*
X158461256Y-83435631D01*
X158479826Y-83468611D01*
X158498354Y-83500470D01*
X158515368Y-83528592D01*
X158529400Y-83550362D01*
X158538978Y-83563166D01*
X158543156Y-83567824D01*
X158554174Y-83581614D01*
X158558593Y-83589736D01*
X158561611Y-83595831D01*
X158571641Y-83606817D01*
X158577501Y-83613520D01*
X158589535Y-83631851D01*
X158601392Y-83654286D01*
X158606454Y-83664461D01*
X158619558Y-83683712D01*
X158631610Y-83689947D01*
X158640306Y-83690915D01*
X158658007Y-83696841D01*
X158658478Y-83697083D01*
X158672668Y-83702106D01*
X158698025Y-83709147D01*
X158731875Y-83717610D01*
X158771540Y-83726898D01*
X158814347Y-83736417D01*
X158857617Y-83745570D01*
X158898677Y-83753760D01*
X158934851Y-83760393D01*
X158963462Y-83764872D01*
X158983381Y-83767768D01*
X159014921Y-83774106D01*
X159038224Y-83782107D01*
X159057321Y-83792978D01*
X159068464Y-83801523D01*
X159088609Y-83823975D01*
X159097567Y-83846629D01*
X159095356Y-83859954D01*
G37*
D13*
%TO.C,X2*%
X154805000Y-93964000D02*
X154805000Y-101644000D01*
X157465000Y-92694000D02*
X157465000Y-91364000D01*
X157465000Y-101644000D02*
X154805000Y-101644000D01*
X157465000Y-93964000D02*
X154805000Y-93964000D01*
X157465000Y-91364000D02*
X156135000Y-91364000D01*
X157465000Y-93964000D02*
X157465000Y-101644000D01*
%TO.C,X1*%
X134764000Y-93954000D02*
X134764000Y-101634000D01*
X137424000Y-92684000D02*
X137424000Y-91354000D01*
X137424000Y-101634000D02*
X134764000Y-101634000D01*
X137424000Y-93954000D02*
X134764000Y-93954000D01*
X137424000Y-91354000D02*
X136094000Y-91354000D01*
X137424000Y-93954000D02*
X137424000Y-101634000D01*
%TO.C,JP7*%
X132810000Y-80030000D02*
X132810000Y-79430000D01*
X132110000Y-78730000D02*
X130710000Y-78730000D01*
X130710000Y-80730000D02*
X132110000Y-80730000D01*
X130010000Y-79430000D02*
X130010000Y-80030000D01*
X132110000Y-80730000D02*
G75*
G03*
X132810000Y-80030000I1J699999D01*
G01*
X132810000Y-79430000D02*
G75*
G03*
X132110000Y-78730000I-699999J1D01*
G01*
X130010000Y-80030000D02*
G75*
G03*
X130710000Y-80730000I700000J0D01*
G01*
X130710000Y-78730000D02*
G75*
G03*
X130010000Y-79430000I0J-700000D01*
G01*
%TO.C,POW1*%
X165110000Y-73320000D02*
X165110000Y-75980000D01*
X147270000Y-73320000D02*
X165110000Y-73320000D01*
X147270000Y-73320000D02*
X147270000Y-75980000D01*
X144670000Y-74650000D02*
X144670000Y-75980000D01*
X147270000Y-75980000D02*
X165110000Y-75980000D01*
X144670000Y-75980000D02*
X146000000Y-75980000D01*
%TO.C,JP5*%
X132810000Y-85110000D02*
X132810000Y-84510000D01*
X132110000Y-83810000D02*
X130710000Y-83810000D01*
X130710000Y-85810000D02*
X132110000Y-85810000D01*
X130010000Y-84510000D02*
X130010000Y-85110000D01*
X132110000Y-85810000D02*
G75*
G03*
X132810000Y-85110000I1J699999D01*
G01*
X132810000Y-84510000D02*
G75*
G03*
X132110000Y-83810000I-699999J1D01*
G01*
X130010000Y-85110000D02*
G75*
G03*
X130710000Y-85810000I700000J0D01*
G01*
X130710000Y-83810000D02*
G75*
G03*
X130010000Y-84510000I0J-700000D01*
G01*
%TO.C,JP2*%
X156460000Y-69186000D02*
X155860000Y-69186000D01*
X155160000Y-69886000D02*
X155160000Y-71286000D01*
X157160000Y-71286000D02*
X157160000Y-69886000D01*
X155860000Y-71986000D02*
X156460000Y-71986000D01*
X157160000Y-69886000D02*
G75*
G03*
X156460000Y-69186000I-699999J1D01*
G01*
X155860000Y-69186000D02*
G75*
G03*
X155160000Y-69886000I-1J-699999D01*
G01*
X156460000Y-71986000D02*
G75*
G03*
X157160000Y-71286000I0J700000D01*
G01*
X155160000Y-71286000D02*
G75*
G03*
X155860000Y-71986000I700000J0D01*
G01*
%TO.C,JP1*%
X135495600Y-86908800D02*
G75*
G03*
X134795600Y-87608800I0J-700000D01*
G01*
X134795600Y-88208800D02*
G75*
G03*
X135495600Y-88908800I700000J0D01*
G01*
X137595600Y-87608800D02*
G75*
G03*
X136895600Y-86908800I-699999J1D01*
G01*
X136895600Y-88908800D02*
G75*
G03*
X137595600Y-88208800I1J699999D01*
G01*
X134795600Y-87608800D02*
X134795600Y-88208800D01*
X135495600Y-88908800D02*
X136895600Y-88908800D01*
X136895600Y-86908800D02*
X135495600Y-86908800D01*
X137595600Y-88208800D02*
X137595600Y-87608800D01*
%TO.C,JP6*%
X132810000Y-82570000D02*
X132810000Y-81970000D01*
X132110000Y-81270000D02*
X130710000Y-81270000D01*
X130710000Y-83270000D02*
X132110000Y-83270000D01*
X130010000Y-81970000D02*
X130010000Y-82570000D01*
X132110000Y-83270000D02*
G75*
G03*
X132810000Y-82570000I1J699999D01*
G01*
X132810000Y-81970000D02*
G75*
G03*
X132110000Y-81270000I-699999J1D01*
G01*
X130010000Y-82570000D02*
G75*
G03*
X130710000Y-83270000I700000J0D01*
G01*
X130710000Y-81270000D02*
G75*
G03*
X130010000Y-81970000I0J-700000D01*
G01*
%TO.C,JP3*%
X132810000Y-90190000D02*
X132810000Y-89590000D01*
X132110000Y-88890000D02*
X130710000Y-88890000D01*
X130710000Y-90890000D02*
X132110000Y-90890000D01*
X130010000Y-89590000D02*
X130010000Y-90190000D01*
X132110000Y-90890000D02*
G75*
G03*
X132810000Y-90190000I1J699999D01*
G01*
X132810000Y-89590000D02*
G75*
G03*
X132110000Y-88890000I-699999J1D01*
G01*
X130010000Y-90190000D02*
G75*
G03*
X130710000Y-90890000I700000J0D01*
G01*
X130710000Y-88890000D02*
G75*
G03*
X130010000Y-89590000I0J-700000D01*
G01*
%TO.C,POW2*%
X165110000Y-86020000D02*
X165110000Y-88680000D01*
X147270000Y-86020000D02*
X165110000Y-86020000D01*
X147270000Y-86020000D02*
X147270000Y-88680000D01*
X144670000Y-87350000D02*
X144670000Y-88680000D01*
X147270000Y-88680000D02*
X165110000Y-88680000D01*
X144670000Y-88680000D02*
X146000000Y-88680000D01*
%TO.C,JP10*%
X132810000Y-72410000D02*
X132810000Y-71810000D01*
X132110000Y-71110000D02*
X130710000Y-71110000D01*
X130710000Y-73110000D02*
X132110000Y-73110000D01*
X130010000Y-71810000D02*
X130010000Y-72410000D01*
X132110000Y-73110000D02*
G75*
G03*
X132810000Y-72410000I1J699999D01*
G01*
X132810000Y-71810000D02*
G75*
G03*
X132110000Y-71110000I-699999J1D01*
G01*
X130010000Y-72410000D02*
G75*
G03*
X130710000Y-73110000I700000J0D01*
G01*
X130710000Y-71110000D02*
G75*
G03*
X130010000Y-71810000I0J-700000D01*
G01*
%TO.C,JP8*%
X132810000Y-77490000D02*
X132810000Y-76890000D01*
X132110000Y-76190000D02*
X130710000Y-76190000D01*
X130710000Y-78190000D02*
X132110000Y-78190000D01*
X130010000Y-76890000D02*
X130010000Y-77490000D01*
X132110000Y-78190000D02*
G75*
G03*
X132810000Y-77490000I1J699999D01*
G01*
X132810000Y-76890000D02*
G75*
G03*
X132110000Y-76190000I-699999J1D01*
G01*
X130010000Y-77490000D02*
G75*
G03*
X130710000Y-78190000I700000J0D01*
G01*
X130710000Y-76190000D02*
G75*
G03*
X130010000Y-76890000I0J-700000D01*
G01*
%TO.C,JP9*%
X132810000Y-74950000D02*
X132810000Y-74350000D01*
X132110000Y-73650000D02*
X130710000Y-73650000D01*
X130710000Y-75650000D02*
X132110000Y-75650000D01*
X130010000Y-74350000D02*
X130010000Y-74950000D01*
X132110000Y-75650000D02*
G75*
G03*
X132810000Y-74950000I1J699999D01*
G01*
X132810000Y-74350000D02*
G75*
G03*
X132110000Y-73650000I-699999J1D01*
G01*
X130010000Y-74950000D02*
G75*
G03*
X130710000Y-75650000I700000J0D01*
G01*
X130710000Y-73650000D02*
G75*
G03*
X130010000Y-74350000I0J-700000D01*
G01*
%TO.C,JP4*%
X132810000Y-87650000D02*
X132810000Y-87050000D01*
X132110000Y-86350000D02*
X130710000Y-86350000D01*
X130710000Y-88350000D02*
X132110000Y-88350000D01*
X130010000Y-87050000D02*
X130010000Y-87650000D01*
X132110000Y-88350000D02*
G75*
G03*
X132810000Y-87650000I1J699999D01*
G01*
X132810000Y-87050000D02*
G75*
G03*
X132110000Y-86350000I-699999J1D01*
G01*
X130010000Y-87650000D02*
G75*
G03*
X130710000Y-88350000I700000J0D01*
G01*
X130710000Y-86350000D02*
G75*
G03*
X130010000Y-87050000I0J-700000D01*
G01*
%TO.C,X3*%
X154000000Y-101982000D02*
X154000000Y-89482000D01*
X154000000Y-99482000D02*
X138000000Y-99482000D01*
X154000000Y-89482000D02*
X138000000Y-89482000D01*
X138000000Y-101982000D02*
X154000000Y-101982000D01*
X138000000Y-89482000D02*
X138000000Y-101982000D01*
%TD*%
M02*
