%TF.GenerationSoftware,KiCad,Pcbnew,7.0.1*%
%TF.CreationDate,2024-04-15T22:24:18+02:00*%
%TF.ProjectId,nema17_driver,6e656d61-3137-45f6-9472-697665722e6b,rev?*%
%TF.SameCoordinates,Original*%
%TF.FileFunction,Drillmap*%
%TF.FilePolarity,Positive*%
%FSLAX45Y45*%
G04 Gerber Fmt 4.5, Leading zero omitted, Abs format (unit mm)*
G04 Created by KiCad (PCBNEW 7.0.1) date 2024-04-15 22:24:18*
%MOMM*%
%LPD*%
G01*
G04 APERTURE LIST*
%ADD10C,0.100000*%
%ADD11C,0.200000*%
%ADD12C,0.025000*%
%ADD13C,0.040000*%
%ADD14C,0.120000*%
G04 APERTURE END LIST*
D10*
X12480000Y-9760000D02*
X12480000Y-6440000D01*
X16720000Y-9760000D02*
X16260000Y-10220000D01*
X16260000Y-10220000D02*
X12940000Y-10220000D01*
X16720000Y-6440000D02*
X16720000Y-9760000D01*
X12940000Y-10220000D02*
X12480000Y-9760000D01*
X12940000Y-5980000D02*
X16260000Y-5980000D01*
X16260000Y-5980000D02*
X16720000Y-6440000D01*
X12480000Y-6440000D02*
X12940000Y-5980000D01*
D11*
D12*
X12606300Y-7345820D02*
X12631300Y-7370820D01*
X12631300Y-7345820D02*
X12606300Y-7370820D01*
X12611380Y-7579500D02*
X12636380Y-7604500D01*
X12636380Y-7579500D02*
X12611380Y-7604500D01*
X12616460Y-8102740D02*
X12641460Y-8127740D01*
X12641460Y-8102740D02*
X12616460Y-8127740D01*
X12621540Y-8265300D02*
X12646540Y-8290300D01*
X12646540Y-8265300D02*
X12621540Y-8290300D01*
X12626620Y-8819020D02*
X12651620Y-8844020D01*
X12651620Y-8819020D02*
X12626620Y-8844020D01*
X12629836Y-7790996D02*
X12654836Y-7815996D01*
X12654836Y-7790996D02*
X12629836Y-7815996D01*
X12644400Y-7957960D02*
X12669400Y-7982960D01*
X12669400Y-7957960D02*
X12644400Y-7982960D01*
X12738380Y-7315340D02*
X12763380Y-7340340D01*
X12763380Y-7315340D02*
X12738380Y-7340340D01*
X12870460Y-7096900D02*
X12895460Y-7121900D01*
X12895460Y-7096900D02*
X12870460Y-7121900D01*
X13485140Y-7762380D02*
X13510140Y-7787380D01*
X13510140Y-7762380D02*
X13485140Y-7787380D01*
X13525780Y-7863980D02*
X13550780Y-7888980D01*
X13550780Y-7863980D02*
X13525780Y-7888980D01*
X13647700Y-7046100D02*
X13672700Y-7071100D01*
X13672700Y-7046100D02*
X13647700Y-7071100D01*
X13647700Y-7162940D02*
X13672700Y-7187940D01*
X13672700Y-7162940D02*
X13647700Y-7187940D01*
X14049020Y-9911220D02*
X14074020Y-9936220D01*
X14074020Y-9911220D02*
X14049020Y-9936220D01*
X14125220Y-7599820D02*
X14150220Y-7624820D01*
X14150220Y-7599820D02*
X14125220Y-7624820D01*
X14678940Y-8021460D02*
X14703940Y-8046460D01*
X14703940Y-8021460D02*
X14678940Y-8046460D01*
X15603500Y-6553340D02*
X15628500Y-6578340D01*
X15628500Y-6553340D02*
X15603500Y-6578340D01*
D13*
X13090920Y-7023040D02*
G75*
G03*
X13090920Y-7023040I-20000J0D01*
G01*
X13360160Y-8735000D02*
G75*
G03*
X13360160Y-8735000I-20000J0D01*
G01*
X13410960Y-7663120D02*
G75*
G03*
X13410960Y-7663120I-20000J0D01*
G01*
X13979920Y-7002720D02*
G75*
G03*
X13979920Y-7002720I-20000J0D01*
G01*
X14000240Y-8120320D02*
G75*
G03*
X14000240Y-8120320I-20000J0D01*
G01*
X14162800Y-7810440D02*
G75*
G03*
X14162800Y-7810440I-20000J0D01*
G01*
X14680960Y-7846000D02*
G75*
G03*
X14680960Y-7846000I-20000J0D01*
G01*
X14711440Y-8414960D02*
G75*
G03*
X14711440Y-8414960I-20000J0D01*
G01*
D10*
X13609400Y-9218400D02*
X13609400Y-9318400D01*
X13559400Y-9268400D02*
X13659400Y-9268400D01*
X13609400Y-9472400D02*
X13609400Y-9572400D01*
X13559400Y-9522400D02*
X13659400Y-9522400D01*
X13609400Y-9726400D02*
X13609400Y-9826400D01*
X13559400Y-9776400D02*
X13659400Y-9776400D01*
X13609400Y-9980400D02*
X13609400Y-10080400D01*
X13559400Y-10030400D02*
X13659400Y-10030400D01*
X13636300Y-6218700D02*
X13636300Y-6318700D01*
X13586300Y-6268700D02*
X13686300Y-6268700D01*
X13890300Y-6218700D02*
X13890300Y-6318700D01*
X13840300Y-6268700D02*
X13940300Y-6268700D01*
X14144300Y-6218700D02*
X14144300Y-6318700D01*
X14094300Y-6268700D02*
X14194300Y-6268700D01*
X14600000Y-7415000D02*
X14600000Y-7515000D01*
X14550000Y-7465000D02*
X14650000Y-7465000D01*
X14600000Y-8685000D02*
X14600000Y-8785000D01*
X14550000Y-8735000D02*
X14650000Y-8735000D01*
X14727000Y-6221200D02*
X14727000Y-6321200D01*
X14677000Y-6271200D02*
X14777000Y-6271200D01*
X14854000Y-7415000D02*
X14854000Y-7515000D01*
X14804000Y-7465000D02*
X14904000Y-7465000D01*
X14854000Y-8685000D02*
X14854000Y-8785000D01*
X14804000Y-8735000D02*
X14904000Y-8735000D01*
X14981000Y-6221200D02*
X14981000Y-6321200D01*
X14931000Y-6271200D02*
X15031000Y-6271200D01*
X15108000Y-7415000D02*
X15108000Y-7515000D01*
X15058000Y-7465000D02*
X15158000Y-7465000D01*
X15108000Y-8685000D02*
X15108000Y-8785000D01*
X15058000Y-8735000D02*
X15158000Y-8735000D01*
X15235000Y-6221200D02*
X15235000Y-6321200D01*
X15185000Y-6271200D02*
X15285000Y-6271200D01*
X15362000Y-7415000D02*
X15362000Y-7515000D01*
X15312000Y-7465000D02*
X15412000Y-7465000D01*
X15362000Y-8685000D02*
X15362000Y-8785000D01*
X15312000Y-8735000D02*
X15412000Y-8735000D01*
X15489000Y-6221200D02*
X15489000Y-6321200D01*
X15439000Y-6271200D02*
X15539000Y-6271200D01*
X15613500Y-9219400D02*
X15613500Y-9319400D01*
X15563500Y-9269400D02*
X15663500Y-9269400D01*
X15613500Y-9473400D02*
X15613500Y-9573400D01*
X15563500Y-9523400D02*
X15663500Y-9523400D01*
X15613500Y-9727400D02*
X15613500Y-9827400D01*
X15563500Y-9777400D02*
X15663500Y-9777400D01*
X15613500Y-9981400D02*
X15613500Y-10081400D01*
X15563500Y-10031400D02*
X15663500Y-10031400D01*
X15616000Y-7415000D02*
X15616000Y-7515000D01*
X15566000Y-7465000D02*
X15666000Y-7465000D01*
X15616000Y-8685000D02*
X15616000Y-8785000D01*
X15566000Y-8735000D02*
X15666000Y-8735000D01*
X15870000Y-7415000D02*
X15870000Y-7515000D01*
X15820000Y-7465000D02*
X15920000Y-7465000D01*
X15870000Y-8685000D02*
X15870000Y-8785000D01*
X15820000Y-8735000D02*
X15920000Y-8735000D01*
X16124000Y-7415000D02*
X16124000Y-7515000D01*
X16074000Y-7465000D02*
X16174000Y-7465000D01*
X16124000Y-8685000D02*
X16124000Y-8785000D01*
X16074000Y-8735000D02*
X16174000Y-8735000D01*
X16378000Y-7415000D02*
X16378000Y-7515000D01*
X16328000Y-7465000D02*
X16428000Y-7465000D01*
X16378000Y-8685000D02*
X16378000Y-8785000D01*
X16328000Y-8735000D02*
X16428000Y-8735000D01*
D14*
X14042427Y-9740627D02*
X14042427Y-9655773D01*
X13957573Y-9655773D01*
X13957573Y-9740627D01*
X14042427Y-9740627D01*
X14392427Y-9240627D02*
X14392427Y-9155773D01*
X14307573Y-9155773D01*
X14307573Y-9240627D01*
X14392427Y-9240627D01*
X14742427Y-9740627D02*
X14742427Y-9655773D01*
X14657573Y-9655773D01*
X14657573Y-9740627D01*
X14742427Y-9740627D01*
X15092427Y-9240627D02*
X15092427Y-9155773D01*
X15007573Y-9155773D01*
X15007573Y-9240627D01*
X15092427Y-9240627D01*
D11*
X12722619Y-10537524D02*
X12722619Y-10337524D01*
X12722619Y-10337524D02*
X12770238Y-10337524D01*
X12770238Y-10337524D02*
X12798809Y-10347048D01*
X12798809Y-10347048D02*
X12817857Y-10366095D01*
X12817857Y-10366095D02*
X12827381Y-10385143D01*
X12827381Y-10385143D02*
X12836905Y-10423238D01*
X12836905Y-10423238D02*
X12836905Y-10451810D01*
X12836905Y-10451810D02*
X12827381Y-10489905D01*
X12827381Y-10489905D02*
X12817857Y-10508952D01*
X12817857Y-10508952D02*
X12798809Y-10528000D01*
X12798809Y-10528000D02*
X12770238Y-10537524D01*
X12770238Y-10537524D02*
X12722619Y-10537524D01*
X12922619Y-10537524D02*
X12922619Y-10404190D01*
X12922619Y-10442286D02*
X12932143Y-10423238D01*
X12932143Y-10423238D02*
X12941667Y-10413714D01*
X12941667Y-10413714D02*
X12960714Y-10404190D01*
X12960714Y-10404190D02*
X12979762Y-10404190D01*
X13046428Y-10537524D02*
X13046428Y-10404190D01*
X13046428Y-10337524D02*
X13036905Y-10347048D01*
X13036905Y-10347048D02*
X13046428Y-10356571D01*
X13046428Y-10356571D02*
X13055952Y-10347048D01*
X13055952Y-10347048D02*
X13046428Y-10337524D01*
X13046428Y-10337524D02*
X13046428Y-10356571D01*
X13170238Y-10537524D02*
X13151190Y-10528000D01*
X13151190Y-10528000D02*
X13141667Y-10508952D01*
X13141667Y-10508952D02*
X13141667Y-10337524D01*
X13275000Y-10537524D02*
X13255952Y-10528000D01*
X13255952Y-10528000D02*
X13246428Y-10508952D01*
X13246428Y-10508952D02*
X13246428Y-10337524D01*
X13503571Y-10537524D02*
X13503571Y-10337524D01*
X13503571Y-10337524D02*
X13570238Y-10480381D01*
X13570238Y-10480381D02*
X13636905Y-10337524D01*
X13636905Y-10337524D02*
X13636905Y-10537524D01*
X13817857Y-10537524D02*
X13817857Y-10432762D01*
X13817857Y-10432762D02*
X13808333Y-10413714D01*
X13808333Y-10413714D02*
X13789286Y-10404190D01*
X13789286Y-10404190D02*
X13751190Y-10404190D01*
X13751190Y-10404190D02*
X13732143Y-10413714D01*
X13817857Y-10528000D02*
X13798809Y-10537524D01*
X13798809Y-10537524D02*
X13751190Y-10537524D01*
X13751190Y-10537524D02*
X13732143Y-10528000D01*
X13732143Y-10528000D02*
X13722619Y-10508952D01*
X13722619Y-10508952D02*
X13722619Y-10489905D01*
X13722619Y-10489905D02*
X13732143Y-10470857D01*
X13732143Y-10470857D02*
X13751190Y-10461333D01*
X13751190Y-10461333D02*
X13798809Y-10461333D01*
X13798809Y-10461333D02*
X13817857Y-10451810D01*
X13913095Y-10404190D02*
X13913095Y-10604190D01*
X13913095Y-10413714D02*
X13932143Y-10404190D01*
X13932143Y-10404190D02*
X13970238Y-10404190D01*
X13970238Y-10404190D02*
X13989286Y-10413714D01*
X13989286Y-10413714D02*
X13998809Y-10423238D01*
X13998809Y-10423238D02*
X14008333Y-10442286D01*
X14008333Y-10442286D02*
X14008333Y-10499429D01*
X14008333Y-10499429D02*
X13998809Y-10518476D01*
X13998809Y-10518476D02*
X13989286Y-10528000D01*
X13989286Y-10528000D02*
X13970238Y-10537524D01*
X13970238Y-10537524D02*
X13932143Y-10537524D01*
X13932143Y-10537524D02*
X13913095Y-10528000D01*
X14094048Y-10518476D02*
X14103571Y-10528000D01*
X14103571Y-10528000D02*
X14094048Y-10537524D01*
X14094048Y-10537524D02*
X14084524Y-10528000D01*
X14084524Y-10528000D02*
X14094048Y-10518476D01*
X14094048Y-10518476D02*
X14094048Y-10537524D01*
X14094048Y-10413714D02*
X14103571Y-10423238D01*
X14103571Y-10423238D02*
X14094048Y-10432762D01*
X14094048Y-10432762D02*
X14084524Y-10423238D01*
X14084524Y-10423238D02*
X14094048Y-10413714D01*
X14094048Y-10413714D02*
X14094048Y-10432762D01*
D12*
X12450000Y-10852500D02*
X12475000Y-10877500D01*
X12475000Y-10852500D02*
X12450000Y-10877500D01*
D11*
X12760714Y-10757524D02*
X12779762Y-10757524D01*
X12779762Y-10757524D02*
X12798809Y-10767048D01*
X12798809Y-10767048D02*
X12808333Y-10776571D01*
X12808333Y-10776571D02*
X12817857Y-10795619D01*
X12817857Y-10795619D02*
X12827381Y-10833714D01*
X12827381Y-10833714D02*
X12827381Y-10881333D01*
X12827381Y-10881333D02*
X12817857Y-10919429D01*
X12817857Y-10919429D02*
X12808333Y-10938476D01*
X12808333Y-10938476D02*
X12798809Y-10948000D01*
X12798809Y-10948000D02*
X12779762Y-10957524D01*
X12779762Y-10957524D02*
X12760714Y-10957524D01*
X12760714Y-10957524D02*
X12741667Y-10948000D01*
X12741667Y-10948000D02*
X12732143Y-10938476D01*
X12732143Y-10938476D02*
X12722619Y-10919429D01*
X12722619Y-10919429D02*
X12713095Y-10881333D01*
X12713095Y-10881333D02*
X12713095Y-10833714D01*
X12713095Y-10833714D02*
X12722619Y-10795619D01*
X12722619Y-10795619D02*
X12732143Y-10776571D01*
X12732143Y-10776571D02*
X12741667Y-10767048D01*
X12741667Y-10767048D02*
X12760714Y-10757524D01*
X12913095Y-10938476D02*
X12922619Y-10948000D01*
X12922619Y-10948000D02*
X12913095Y-10957524D01*
X12913095Y-10957524D02*
X12903571Y-10948000D01*
X12903571Y-10948000D02*
X12913095Y-10938476D01*
X12913095Y-10938476D02*
X12913095Y-10957524D01*
X12998809Y-10776571D02*
X13008333Y-10767048D01*
X13008333Y-10767048D02*
X13027381Y-10757524D01*
X13027381Y-10757524D02*
X13075000Y-10757524D01*
X13075000Y-10757524D02*
X13094048Y-10767048D01*
X13094048Y-10767048D02*
X13103571Y-10776571D01*
X13103571Y-10776571D02*
X13113095Y-10795619D01*
X13113095Y-10795619D02*
X13113095Y-10814667D01*
X13113095Y-10814667D02*
X13103571Y-10843238D01*
X13103571Y-10843238D02*
X12989286Y-10957524D01*
X12989286Y-10957524D02*
X13113095Y-10957524D01*
X13294048Y-10757524D02*
X13198809Y-10757524D01*
X13198809Y-10757524D02*
X13189286Y-10852762D01*
X13189286Y-10852762D02*
X13198809Y-10843238D01*
X13198809Y-10843238D02*
X13217857Y-10833714D01*
X13217857Y-10833714D02*
X13265476Y-10833714D01*
X13265476Y-10833714D02*
X13284524Y-10843238D01*
X13284524Y-10843238D02*
X13294048Y-10852762D01*
X13294048Y-10852762D02*
X13303571Y-10871810D01*
X13303571Y-10871810D02*
X13303571Y-10919429D01*
X13303571Y-10919429D02*
X13294048Y-10938476D01*
X13294048Y-10938476D02*
X13284524Y-10948000D01*
X13284524Y-10948000D02*
X13265476Y-10957524D01*
X13265476Y-10957524D02*
X13217857Y-10957524D01*
X13217857Y-10957524D02*
X13198809Y-10948000D01*
X13198809Y-10948000D02*
X13189286Y-10938476D01*
X13427381Y-10757524D02*
X13446429Y-10757524D01*
X13446429Y-10757524D02*
X13465476Y-10767048D01*
X13465476Y-10767048D02*
X13475000Y-10776571D01*
X13475000Y-10776571D02*
X13484524Y-10795619D01*
X13484524Y-10795619D02*
X13494048Y-10833714D01*
X13494048Y-10833714D02*
X13494048Y-10881333D01*
X13494048Y-10881333D02*
X13484524Y-10919429D01*
X13484524Y-10919429D02*
X13475000Y-10938476D01*
X13475000Y-10938476D02*
X13465476Y-10948000D01*
X13465476Y-10948000D02*
X13446429Y-10957524D01*
X13446429Y-10957524D02*
X13427381Y-10957524D01*
X13427381Y-10957524D02*
X13408333Y-10948000D01*
X13408333Y-10948000D02*
X13398809Y-10938476D01*
X13398809Y-10938476D02*
X13389286Y-10919429D01*
X13389286Y-10919429D02*
X13379762Y-10881333D01*
X13379762Y-10881333D02*
X13379762Y-10833714D01*
X13379762Y-10833714D02*
X13389286Y-10795619D01*
X13389286Y-10795619D02*
X13398809Y-10776571D01*
X13398809Y-10776571D02*
X13408333Y-10767048D01*
X13408333Y-10767048D02*
X13427381Y-10757524D01*
X13579762Y-10957524D02*
X13579762Y-10824190D01*
X13579762Y-10843238D02*
X13589286Y-10833714D01*
X13589286Y-10833714D02*
X13608333Y-10824190D01*
X13608333Y-10824190D02*
X13636905Y-10824190D01*
X13636905Y-10824190D02*
X13655952Y-10833714D01*
X13655952Y-10833714D02*
X13665476Y-10852762D01*
X13665476Y-10852762D02*
X13665476Y-10957524D01*
X13665476Y-10852762D02*
X13675000Y-10833714D01*
X13675000Y-10833714D02*
X13694048Y-10824190D01*
X13694048Y-10824190D02*
X13722619Y-10824190D01*
X13722619Y-10824190D02*
X13741667Y-10833714D01*
X13741667Y-10833714D02*
X13751190Y-10852762D01*
X13751190Y-10852762D02*
X13751190Y-10957524D01*
X13846429Y-10957524D02*
X13846429Y-10824190D01*
X13846429Y-10843238D02*
X13855952Y-10833714D01*
X13855952Y-10833714D02*
X13875000Y-10824190D01*
X13875000Y-10824190D02*
X13903571Y-10824190D01*
X13903571Y-10824190D02*
X13922619Y-10833714D01*
X13922619Y-10833714D02*
X13932143Y-10852762D01*
X13932143Y-10852762D02*
X13932143Y-10957524D01*
X13932143Y-10852762D02*
X13941667Y-10833714D01*
X13941667Y-10833714D02*
X13960714Y-10824190D01*
X13960714Y-10824190D02*
X13989286Y-10824190D01*
X13989286Y-10824190D02*
X14008333Y-10833714D01*
X14008333Y-10833714D02*
X14017857Y-10852762D01*
X14017857Y-10852762D02*
X14017857Y-10957524D01*
X14408333Y-10748000D02*
X14236905Y-11005143D01*
X14665476Y-10757524D02*
X14684524Y-10757524D01*
X14684524Y-10757524D02*
X14703572Y-10767048D01*
X14703572Y-10767048D02*
X14713095Y-10776571D01*
X14713095Y-10776571D02*
X14722619Y-10795619D01*
X14722619Y-10795619D02*
X14732143Y-10833714D01*
X14732143Y-10833714D02*
X14732143Y-10881333D01*
X14732143Y-10881333D02*
X14722619Y-10919429D01*
X14722619Y-10919429D02*
X14713095Y-10938476D01*
X14713095Y-10938476D02*
X14703572Y-10948000D01*
X14703572Y-10948000D02*
X14684524Y-10957524D01*
X14684524Y-10957524D02*
X14665476Y-10957524D01*
X14665476Y-10957524D02*
X14646429Y-10948000D01*
X14646429Y-10948000D02*
X14636905Y-10938476D01*
X14636905Y-10938476D02*
X14627381Y-10919429D01*
X14627381Y-10919429D02*
X14617857Y-10881333D01*
X14617857Y-10881333D02*
X14617857Y-10833714D01*
X14617857Y-10833714D02*
X14627381Y-10795619D01*
X14627381Y-10795619D02*
X14636905Y-10776571D01*
X14636905Y-10776571D02*
X14646429Y-10767048D01*
X14646429Y-10767048D02*
X14665476Y-10757524D01*
X14817857Y-10938476D02*
X14827381Y-10948000D01*
X14827381Y-10948000D02*
X14817857Y-10957524D01*
X14817857Y-10957524D02*
X14808333Y-10948000D01*
X14808333Y-10948000D02*
X14817857Y-10938476D01*
X14817857Y-10938476D02*
X14817857Y-10957524D01*
X14951191Y-10757524D02*
X14970238Y-10757524D01*
X14970238Y-10757524D02*
X14989286Y-10767048D01*
X14989286Y-10767048D02*
X14998810Y-10776571D01*
X14998810Y-10776571D02*
X15008333Y-10795619D01*
X15008333Y-10795619D02*
X15017857Y-10833714D01*
X15017857Y-10833714D02*
X15017857Y-10881333D01*
X15017857Y-10881333D02*
X15008333Y-10919429D01*
X15008333Y-10919429D02*
X14998810Y-10938476D01*
X14998810Y-10938476D02*
X14989286Y-10948000D01*
X14989286Y-10948000D02*
X14970238Y-10957524D01*
X14970238Y-10957524D02*
X14951191Y-10957524D01*
X14951191Y-10957524D02*
X14932143Y-10948000D01*
X14932143Y-10948000D02*
X14922619Y-10938476D01*
X14922619Y-10938476D02*
X14913095Y-10919429D01*
X14913095Y-10919429D02*
X14903572Y-10881333D01*
X14903572Y-10881333D02*
X14903572Y-10833714D01*
X14903572Y-10833714D02*
X14913095Y-10795619D01*
X14913095Y-10795619D02*
X14922619Y-10776571D01*
X14922619Y-10776571D02*
X14932143Y-10767048D01*
X14932143Y-10767048D02*
X14951191Y-10757524D01*
X15141667Y-10757524D02*
X15160714Y-10757524D01*
X15160714Y-10757524D02*
X15179762Y-10767048D01*
X15179762Y-10767048D02*
X15189286Y-10776571D01*
X15189286Y-10776571D02*
X15198810Y-10795619D01*
X15198810Y-10795619D02*
X15208333Y-10833714D01*
X15208333Y-10833714D02*
X15208333Y-10881333D01*
X15208333Y-10881333D02*
X15198810Y-10919429D01*
X15198810Y-10919429D02*
X15189286Y-10938476D01*
X15189286Y-10938476D02*
X15179762Y-10948000D01*
X15179762Y-10948000D02*
X15160714Y-10957524D01*
X15160714Y-10957524D02*
X15141667Y-10957524D01*
X15141667Y-10957524D02*
X15122619Y-10948000D01*
X15122619Y-10948000D02*
X15113095Y-10938476D01*
X15113095Y-10938476D02*
X15103572Y-10919429D01*
X15103572Y-10919429D02*
X15094048Y-10881333D01*
X15094048Y-10881333D02*
X15094048Y-10833714D01*
X15094048Y-10833714D02*
X15103572Y-10795619D01*
X15103572Y-10795619D02*
X15113095Y-10776571D01*
X15113095Y-10776571D02*
X15122619Y-10767048D01*
X15122619Y-10767048D02*
X15141667Y-10757524D01*
X15303572Y-10957524D02*
X15341667Y-10957524D01*
X15341667Y-10957524D02*
X15360714Y-10948000D01*
X15360714Y-10948000D02*
X15370238Y-10938476D01*
X15370238Y-10938476D02*
X15389286Y-10909905D01*
X15389286Y-10909905D02*
X15398810Y-10871810D01*
X15398810Y-10871810D02*
X15398810Y-10795619D01*
X15398810Y-10795619D02*
X15389286Y-10776571D01*
X15389286Y-10776571D02*
X15379762Y-10767048D01*
X15379762Y-10767048D02*
X15360714Y-10757524D01*
X15360714Y-10757524D02*
X15322619Y-10757524D01*
X15322619Y-10757524D02*
X15303572Y-10767048D01*
X15303572Y-10767048D02*
X15294048Y-10776571D01*
X15294048Y-10776571D02*
X15284524Y-10795619D01*
X15284524Y-10795619D02*
X15284524Y-10843238D01*
X15284524Y-10843238D02*
X15294048Y-10862286D01*
X15294048Y-10862286D02*
X15303572Y-10871810D01*
X15303572Y-10871810D02*
X15322619Y-10881333D01*
X15322619Y-10881333D02*
X15360714Y-10881333D01*
X15360714Y-10881333D02*
X15379762Y-10871810D01*
X15379762Y-10871810D02*
X15389286Y-10862286D01*
X15389286Y-10862286D02*
X15398810Y-10843238D01*
X15513095Y-10843238D02*
X15494048Y-10833714D01*
X15494048Y-10833714D02*
X15484524Y-10824190D01*
X15484524Y-10824190D02*
X15475000Y-10805143D01*
X15475000Y-10805143D02*
X15475000Y-10795619D01*
X15475000Y-10795619D02*
X15484524Y-10776571D01*
X15484524Y-10776571D02*
X15494048Y-10767048D01*
X15494048Y-10767048D02*
X15513095Y-10757524D01*
X15513095Y-10757524D02*
X15551191Y-10757524D01*
X15551191Y-10757524D02*
X15570238Y-10767048D01*
X15570238Y-10767048D02*
X15579762Y-10776571D01*
X15579762Y-10776571D02*
X15589286Y-10795619D01*
X15589286Y-10795619D02*
X15589286Y-10805143D01*
X15589286Y-10805143D02*
X15579762Y-10824190D01*
X15579762Y-10824190D02*
X15570238Y-10833714D01*
X15570238Y-10833714D02*
X15551191Y-10843238D01*
X15551191Y-10843238D02*
X15513095Y-10843238D01*
X15513095Y-10843238D02*
X15494048Y-10852762D01*
X15494048Y-10852762D02*
X15484524Y-10862286D01*
X15484524Y-10862286D02*
X15475000Y-10881333D01*
X15475000Y-10881333D02*
X15475000Y-10919429D01*
X15475000Y-10919429D02*
X15484524Y-10938476D01*
X15484524Y-10938476D02*
X15494048Y-10948000D01*
X15494048Y-10948000D02*
X15513095Y-10957524D01*
X15513095Y-10957524D02*
X15551191Y-10957524D01*
X15551191Y-10957524D02*
X15570238Y-10948000D01*
X15570238Y-10948000D02*
X15579762Y-10938476D01*
X15579762Y-10938476D02*
X15589286Y-10919429D01*
X15589286Y-10919429D02*
X15589286Y-10881333D01*
X15589286Y-10881333D02*
X15579762Y-10862286D01*
X15579762Y-10862286D02*
X15570238Y-10852762D01*
X15570238Y-10852762D02*
X15551191Y-10843238D01*
X15665476Y-10757524D02*
X15665476Y-10795619D01*
X15741667Y-10757524D02*
X15741667Y-10795619D01*
X16036905Y-11033714D02*
X16027381Y-11024190D01*
X16027381Y-11024190D02*
X16008334Y-10995619D01*
X16008334Y-10995619D02*
X15998810Y-10976571D01*
X15998810Y-10976571D02*
X15989286Y-10948000D01*
X15989286Y-10948000D02*
X15979762Y-10900381D01*
X15979762Y-10900381D02*
X15979762Y-10862286D01*
X15979762Y-10862286D02*
X15989286Y-10814667D01*
X15989286Y-10814667D02*
X15998810Y-10786095D01*
X15998810Y-10786095D02*
X16008334Y-10767048D01*
X16008334Y-10767048D02*
X16027381Y-10738476D01*
X16027381Y-10738476D02*
X16036905Y-10728952D01*
X16217857Y-10957524D02*
X16103572Y-10957524D01*
X16160714Y-10957524D02*
X16160714Y-10757524D01*
X16160714Y-10757524D02*
X16141667Y-10786095D01*
X16141667Y-10786095D02*
X16122619Y-10805143D01*
X16122619Y-10805143D02*
X16103572Y-10814667D01*
X16284524Y-10757524D02*
X16417857Y-10757524D01*
X16417857Y-10757524D02*
X16332143Y-10957524D01*
X16646429Y-10957524D02*
X16646429Y-10757524D01*
X16732143Y-10957524D02*
X16732143Y-10852762D01*
X16732143Y-10852762D02*
X16722619Y-10833714D01*
X16722619Y-10833714D02*
X16703572Y-10824190D01*
X16703572Y-10824190D02*
X16675000Y-10824190D01*
X16675000Y-10824190D02*
X16655953Y-10833714D01*
X16655953Y-10833714D02*
X16646429Y-10843238D01*
X16855953Y-10957524D02*
X16836905Y-10948000D01*
X16836905Y-10948000D02*
X16827381Y-10938476D01*
X16827381Y-10938476D02*
X16817858Y-10919429D01*
X16817858Y-10919429D02*
X16817858Y-10862286D01*
X16817858Y-10862286D02*
X16827381Y-10843238D01*
X16827381Y-10843238D02*
X16836905Y-10833714D01*
X16836905Y-10833714D02*
X16855953Y-10824190D01*
X16855953Y-10824190D02*
X16884524Y-10824190D01*
X16884524Y-10824190D02*
X16903572Y-10833714D01*
X16903572Y-10833714D02*
X16913096Y-10843238D01*
X16913096Y-10843238D02*
X16922619Y-10862286D01*
X16922619Y-10862286D02*
X16922619Y-10919429D01*
X16922619Y-10919429D02*
X16913096Y-10938476D01*
X16913096Y-10938476D02*
X16903572Y-10948000D01*
X16903572Y-10948000D02*
X16884524Y-10957524D01*
X16884524Y-10957524D02*
X16855953Y-10957524D01*
X17036905Y-10957524D02*
X17017858Y-10948000D01*
X17017858Y-10948000D02*
X17008334Y-10928952D01*
X17008334Y-10928952D02*
X17008334Y-10757524D01*
X17189286Y-10948000D02*
X17170239Y-10957524D01*
X17170239Y-10957524D02*
X17132143Y-10957524D01*
X17132143Y-10957524D02*
X17113096Y-10948000D01*
X17113096Y-10948000D02*
X17103572Y-10928952D01*
X17103572Y-10928952D02*
X17103572Y-10852762D01*
X17103572Y-10852762D02*
X17113096Y-10833714D01*
X17113096Y-10833714D02*
X17132143Y-10824190D01*
X17132143Y-10824190D02*
X17170239Y-10824190D01*
X17170239Y-10824190D02*
X17189286Y-10833714D01*
X17189286Y-10833714D02*
X17198810Y-10852762D01*
X17198810Y-10852762D02*
X17198810Y-10871810D01*
X17198810Y-10871810D02*
X17103572Y-10890857D01*
X17275000Y-10948000D02*
X17294048Y-10957524D01*
X17294048Y-10957524D02*
X17332143Y-10957524D01*
X17332143Y-10957524D02*
X17351191Y-10948000D01*
X17351191Y-10948000D02*
X17360715Y-10928952D01*
X17360715Y-10928952D02*
X17360715Y-10919429D01*
X17360715Y-10919429D02*
X17351191Y-10900381D01*
X17351191Y-10900381D02*
X17332143Y-10890857D01*
X17332143Y-10890857D02*
X17303572Y-10890857D01*
X17303572Y-10890857D02*
X17284524Y-10881333D01*
X17284524Y-10881333D02*
X17275000Y-10862286D01*
X17275000Y-10862286D02*
X17275000Y-10852762D01*
X17275000Y-10852762D02*
X17284524Y-10833714D01*
X17284524Y-10833714D02*
X17303572Y-10824190D01*
X17303572Y-10824190D02*
X17332143Y-10824190D01*
X17332143Y-10824190D02*
X17351191Y-10833714D01*
X17427381Y-11033714D02*
X17436905Y-11024190D01*
X17436905Y-11024190D02*
X17455953Y-10995619D01*
X17455953Y-10995619D02*
X17465477Y-10976571D01*
X17465477Y-10976571D02*
X17475000Y-10948000D01*
X17475000Y-10948000D02*
X17484524Y-10900381D01*
X17484524Y-10900381D02*
X17484524Y-10862286D01*
X17484524Y-10862286D02*
X17475000Y-10814667D01*
X17475000Y-10814667D02*
X17465477Y-10786095D01*
X17465477Y-10786095D02*
X17455953Y-10767048D01*
X17455953Y-10767048D02*
X17436905Y-10738476D01*
X17436905Y-10738476D02*
X17427381Y-10728952D01*
D13*
X12475000Y-11129000D02*
G75*
G03*
X12475000Y-11129000I-20000J0D01*
G01*
D11*
X12760714Y-11021524D02*
X12779762Y-11021524D01*
X12779762Y-11021524D02*
X12798809Y-11031048D01*
X12798809Y-11031048D02*
X12808333Y-11040571D01*
X12808333Y-11040571D02*
X12817857Y-11059619D01*
X12817857Y-11059619D02*
X12827381Y-11097714D01*
X12827381Y-11097714D02*
X12827381Y-11145333D01*
X12827381Y-11145333D02*
X12817857Y-11183429D01*
X12817857Y-11183429D02*
X12808333Y-11202476D01*
X12808333Y-11202476D02*
X12798809Y-11212000D01*
X12798809Y-11212000D02*
X12779762Y-11221524D01*
X12779762Y-11221524D02*
X12760714Y-11221524D01*
X12760714Y-11221524D02*
X12741667Y-11212000D01*
X12741667Y-11212000D02*
X12732143Y-11202476D01*
X12732143Y-11202476D02*
X12722619Y-11183429D01*
X12722619Y-11183429D02*
X12713095Y-11145333D01*
X12713095Y-11145333D02*
X12713095Y-11097714D01*
X12713095Y-11097714D02*
X12722619Y-11059619D01*
X12722619Y-11059619D02*
X12732143Y-11040571D01*
X12732143Y-11040571D02*
X12741667Y-11031048D01*
X12741667Y-11031048D02*
X12760714Y-11021524D01*
X12913095Y-11202476D02*
X12922619Y-11212000D01*
X12922619Y-11212000D02*
X12913095Y-11221524D01*
X12913095Y-11221524D02*
X12903571Y-11212000D01*
X12903571Y-11212000D02*
X12913095Y-11202476D01*
X12913095Y-11202476D02*
X12913095Y-11221524D01*
X13094048Y-11088190D02*
X13094048Y-11221524D01*
X13046428Y-11012000D02*
X12998809Y-11154857D01*
X12998809Y-11154857D02*
X13122619Y-11154857D01*
X13236905Y-11021524D02*
X13255952Y-11021524D01*
X13255952Y-11021524D02*
X13275000Y-11031048D01*
X13275000Y-11031048D02*
X13284524Y-11040571D01*
X13284524Y-11040571D02*
X13294048Y-11059619D01*
X13294048Y-11059619D02*
X13303571Y-11097714D01*
X13303571Y-11097714D02*
X13303571Y-11145333D01*
X13303571Y-11145333D02*
X13294048Y-11183429D01*
X13294048Y-11183429D02*
X13284524Y-11202476D01*
X13284524Y-11202476D02*
X13275000Y-11212000D01*
X13275000Y-11212000D02*
X13255952Y-11221524D01*
X13255952Y-11221524D02*
X13236905Y-11221524D01*
X13236905Y-11221524D02*
X13217857Y-11212000D01*
X13217857Y-11212000D02*
X13208333Y-11202476D01*
X13208333Y-11202476D02*
X13198809Y-11183429D01*
X13198809Y-11183429D02*
X13189286Y-11145333D01*
X13189286Y-11145333D02*
X13189286Y-11097714D01*
X13189286Y-11097714D02*
X13198809Y-11059619D01*
X13198809Y-11059619D02*
X13208333Y-11040571D01*
X13208333Y-11040571D02*
X13217857Y-11031048D01*
X13217857Y-11031048D02*
X13236905Y-11021524D01*
X13427381Y-11021524D02*
X13446429Y-11021524D01*
X13446429Y-11021524D02*
X13465476Y-11031048D01*
X13465476Y-11031048D02*
X13475000Y-11040571D01*
X13475000Y-11040571D02*
X13484524Y-11059619D01*
X13484524Y-11059619D02*
X13494048Y-11097714D01*
X13494048Y-11097714D02*
X13494048Y-11145333D01*
X13494048Y-11145333D02*
X13484524Y-11183429D01*
X13484524Y-11183429D02*
X13475000Y-11202476D01*
X13475000Y-11202476D02*
X13465476Y-11212000D01*
X13465476Y-11212000D02*
X13446429Y-11221524D01*
X13446429Y-11221524D02*
X13427381Y-11221524D01*
X13427381Y-11221524D02*
X13408333Y-11212000D01*
X13408333Y-11212000D02*
X13398809Y-11202476D01*
X13398809Y-11202476D02*
X13389286Y-11183429D01*
X13389286Y-11183429D02*
X13379762Y-11145333D01*
X13379762Y-11145333D02*
X13379762Y-11097714D01*
X13379762Y-11097714D02*
X13389286Y-11059619D01*
X13389286Y-11059619D02*
X13398809Y-11040571D01*
X13398809Y-11040571D02*
X13408333Y-11031048D01*
X13408333Y-11031048D02*
X13427381Y-11021524D01*
X13579762Y-11221524D02*
X13579762Y-11088190D01*
X13579762Y-11107238D02*
X13589286Y-11097714D01*
X13589286Y-11097714D02*
X13608333Y-11088190D01*
X13608333Y-11088190D02*
X13636905Y-11088190D01*
X13636905Y-11088190D02*
X13655952Y-11097714D01*
X13655952Y-11097714D02*
X13665476Y-11116762D01*
X13665476Y-11116762D02*
X13665476Y-11221524D01*
X13665476Y-11116762D02*
X13675000Y-11097714D01*
X13675000Y-11097714D02*
X13694048Y-11088190D01*
X13694048Y-11088190D02*
X13722619Y-11088190D01*
X13722619Y-11088190D02*
X13741667Y-11097714D01*
X13741667Y-11097714D02*
X13751190Y-11116762D01*
X13751190Y-11116762D02*
X13751190Y-11221524D01*
X13846429Y-11221524D02*
X13846429Y-11088190D01*
X13846429Y-11107238D02*
X13855952Y-11097714D01*
X13855952Y-11097714D02*
X13875000Y-11088190D01*
X13875000Y-11088190D02*
X13903571Y-11088190D01*
X13903571Y-11088190D02*
X13922619Y-11097714D01*
X13922619Y-11097714D02*
X13932143Y-11116762D01*
X13932143Y-11116762D02*
X13932143Y-11221524D01*
X13932143Y-11116762D02*
X13941667Y-11097714D01*
X13941667Y-11097714D02*
X13960714Y-11088190D01*
X13960714Y-11088190D02*
X13989286Y-11088190D01*
X13989286Y-11088190D02*
X14008333Y-11097714D01*
X14008333Y-11097714D02*
X14017857Y-11116762D01*
X14017857Y-11116762D02*
X14017857Y-11221524D01*
X14408333Y-11012000D02*
X14236905Y-11269143D01*
X14665476Y-11021524D02*
X14684524Y-11021524D01*
X14684524Y-11021524D02*
X14703572Y-11031048D01*
X14703572Y-11031048D02*
X14713095Y-11040571D01*
X14713095Y-11040571D02*
X14722619Y-11059619D01*
X14722619Y-11059619D02*
X14732143Y-11097714D01*
X14732143Y-11097714D02*
X14732143Y-11145333D01*
X14732143Y-11145333D02*
X14722619Y-11183429D01*
X14722619Y-11183429D02*
X14713095Y-11202476D01*
X14713095Y-11202476D02*
X14703572Y-11212000D01*
X14703572Y-11212000D02*
X14684524Y-11221524D01*
X14684524Y-11221524D02*
X14665476Y-11221524D01*
X14665476Y-11221524D02*
X14646429Y-11212000D01*
X14646429Y-11212000D02*
X14636905Y-11202476D01*
X14636905Y-11202476D02*
X14627381Y-11183429D01*
X14627381Y-11183429D02*
X14617857Y-11145333D01*
X14617857Y-11145333D02*
X14617857Y-11097714D01*
X14617857Y-11097714D02*
X14627381Y-11059619D01*
X14627381Y-11059619D02*
X14636905Y-11040571D01*
X14636905Y-11040571D02*
X14646429Y-11031048D01*
X14646429Y-11031048D02*
X14665476Y-11021524D01*
X14817857Y-11202476D02*
X14827381Y-11212000D01*
X14827381Y-11212000D02*
X14817857Y-11221524D01*
X14817857Y-11221524D02*
X14808333Y-11212000D01*
X14808333Y-11212000D02*
X14817857Y-11202476D01*
X14817857Y-11202476D02*
X14817857Y-11221524D01*
X14951191Y-11021524D02*
X14970238Y-11021524D01*
X14970238Y-11021524D02*
X14989286Y-11031048D01*
X14989286Y-11031048D02*
X14998810Y-11040571D01*
X14998810Y-11040571D02*
X15008333Y-11059619D01*
X15008333Y-11059619D02*
X15017857Y-11097714D01*
X15017857Y-11097714D02*
X15017857Y-11145333D01*
X15017857Y-11145333D02*
X15008333Y-11183429D01*
X15008333Y-11183429D02*
X14998810Y-11202476D01*
X14998810Y-11202476D02*
X14989286Y-11212000D01*
X14989286Y-11212000D02*
X14970238Y-11221524D01*
X14970238Y-11221524D02*
X14951191Y-11221524D01*
X14951191Y-11221524D02*
X14932143Y-11212000D01*
X14932143Y-11212000D02*
X14922619Y-11202476D01*
X14922619Y-11202476D02*
X14913095Y-11183429D01*
X14913095Y-11183429D02*
X14903572Y-11145333D01*
X14903572Y-11145333D02*
X14903572Y-11097714D01*
X14903572Y-11097714D02*
X14913095Y-11059619D01*
X14913095Y-11059619D02*
X14922619Y-11040571D01*
X14922619Y-11040571D02*
X14932143Y-11031048D01*
X14932143Y-11031048D02*
X14951191Y-11021524D01*
X15208333Y-11221524D02*
X15094048Y-11221524D01*
X15151191Y-11221524D02*
X15151191Y-11021524D01*
X15151191Y-11021524D02*
X15132143Y-11050095D01*
X15132143Y-11050095D02*
X15113095Y-11069143D01*
X15113095Y-11069143D02*
X15094048Y-11078667D01*
X15389286Y-11021524D02*
X15294048Y-11021524D01*
X15294048Y-11021524D02*
X15284524Y-11116762D01*
X15284524Y-11116762D02*
X15294048Y-11107238D01*
X15294048Y-11107238D02*
X15313095Y-11097714D01*
X15313095Y-11097714D02*
X15360714Y-11097714D01*
X15360714Y-11097714D02*
X15379762Y-11107238D01*
X15379762Y-11107238D02*
X15389286Y-11116762D01*
X15389286Y-11116762D02*
X15398810Y-11135810D01*
X15398810Y-11135810D02*
X15398810Y-11183429D01*
X15398810Y-11183429D02*
X15389286Y-11202476D01*
X15389286Y-11202476D02*
X15379762Y-11212000D01*
X15379762Y-11212000D02*
X15360714Y-11221524D01*
X15360714Y-11221524D02*
X15313095Y-11221524D01*
X15313095Y-11221524D02*
X15294048Y-11212000D01*
X15294048Y-11212000D02*
X15284524Y-11202476D01*
X15465476Y-11021524D02*
X15598810Y-11021524D01*
X15598810Y-11021524D02*
X15513095Y-11221524D01*
X15665476Y-11021524D02*
X15665476Y-11059619D01*
X15741667Y-11021524D02*
X15741667Y-11059619D01*
X16036905Y-11297714D02*
X16027381Y-11288190D01*
X16027381Y-11288190D02*
X16008334Y-11259619D01*
X16008334Y-11259619D02*
X15998810Y-11240571D01*
X15998810Y-11240571D02*
X15989286Y-11212000D01*
X15989286Y-11212000D02*
X15979762Y-11164381D01*
X15979762Y-11164381D02*
X15979762Y-11126286D01*
X15979762Y-11126286D02*
X15989286Y-11078667D01*
X15989286Y-11078667D02*
X15998810Y-11050095D01*
X15998810Y-11050095D02*
X16008334Y-11031048D01*
X16008334Y-11031048D02*
X16027381Y-11002476D01*
X16027381Y-11002476D02*
X16036905Y-10992952D01*
X16141667Y-11107238D02*
X16122619Y-11097714D01*
X16122619Y-11097714D02*
X16113095Y-11088190D01*
X16113095Y-11088190D02*
X16103572Y-11069143D01*
X16103572Y-11069143D02*
X16103572Y-11059619D01*
X16103572Y-11059619D02*
X16113095Y-11040571D01*
X16113095Y-11040571D02*
X16122619Y-11031048D01*
X16122619Y-11031048D02*
X16141667Y-11021524D01*
X16141667Y-11021524D02*
X16179762Y-11021524D01*
X16179762Y-11021524D02*
X16198810Y-11031048D01*
X16198810Y-11031048D02*
X16208334Y-11040571D01*
X16208334Y-11040571D02*
X16217857Y-11059619D01*
X16217857Y-11059619D02*
X16217857Y-11069143D01*
X16217857Y-11069143D02*
X16208334Y-11088190D01*
X16208334Y-11088190D02*
X16198810Y-11097714D01*
X16198810Y-11097714D02*
X16179762Y-11107238D01*
X16179762Y-11107238D02*
X16141667Y-11107238D01*
X16141667Y-11107238D02*
X16122619Y-11116762D01*
X16122619Y-11116762D02*
X16113095Y-11126286D01*
X16113095Y-11126286D02*
X16103572Y-11145333D01*
X16103572Y-11145333D02*
X16103572Y-11183429D01*
X16103572Y-11183429D02*
X16113095Y-11202476D01*
X16113095Y-11202476D02*
X16122619Y-11212000D01*
X16122619Y-11212000D02*
X16141667Y-11221524D01*
X16141667Y-11221524D02*
X16179762Y-11221524D01*
X16179762Y-11221524D02*
X16198810Y-11212000D01*
X16198810Y-11212000D02*
X16208334Y-11202476D01*
X16208334Y-11202476D02*
X16217857Y-11183429D01*
X16217857Y-11183429D02*
X16217857Y-11145333D01*
X16217857Y-11145333D02*
X16208334Y-11126286D01*
X16208334Y-11126286D02*
X16198810Y-11116762D01*
X16198810Y-11116762D02*
X16179762Y-11107238D01*
X16455953Y-11221524D02*
X16455953Y-11021524D01*
X16541667Y-11221524D02*
X16541667Y-11116762D01*
X16541667Y-11116762D02*
X16532143Y-11097714D01*
X16532143Y-11097714D02*
X16513096Y-11088190D01*
X16513096Y-11088190D02*
X16484524Y-11088190D01*
X16484524Y-11088190D02*
X16465476Y-11097714D01*
X16465476Y-11097714D02*
X16455953Y-11107238D01*
X16665476Y-11221524D02*
X16646429Y-11212000D01*
X16646429Y-11212000D02*
X16636905Y-11202476D01*
X16636905Y-11202476D02*
X16627381Y-11183429D01*
X16627381Y-11183429D02*
X16627381Y-11126286D01*
X16627381Y-11126286D02*
X16636905Y-11107238D01*
X16636905Y-11107238D02*
X16646429Y-11097714D01*
X16646429Y-11097714D02*
X16665476Y-11088190D01*
X16665476Y-11088190D02*
X16694048Y-11088190D01*
X16694048Y-11088190D02*
X16713096Y-11097714D01*
X16713096Y-11097714D02*
X16722619Y-11107238D01*
X16722619Y-11107238D02*
X16732143Y-11126286D01*
X16732143Y-11126286D02*
X16732143Y-11183429D01*
X16732143Y-11183429D02*
X16722619Y-11202476D01*
X16722619Y-11202476D02*
X16713096Y-11212000D01*
X16713096Y-11212000D02*
X16694048Y-11221524D01*
X16694048Y-11221524D02*
X16665476Y-11221524D01*
X16846429Y-11221524D02*
X16827381Y-11212000D01*
X16827381Y-11212000D02*
X16817858Y-11192952D01*
X16817858Y-11192952D02*
X16817858Y-11021524D01*
X16998810Y-11212000D02*
X16979762Y-11221524D01*
X16979762Y-11221524D02*
X16941667Y-11221524D01*
X16941667Y-11221524D02*
X16922619Y-11212000D01*
X16922619Y-11212000D02*
X16913096Y-11192952D01*
X16913096Y-11192952D02*
X16913096Y-11116762D01*
X16913096Y-11116762D02*
X16922619Y-11097714D01*
X16922619Y-11097714D02*
X16941667Y-11088190D01*
X16941667Y-11088190D02*
X16979762Y-11088190D01*
X16979762Y-11088190D02*
X16998810Y-11097714D01*
X16998810Y-11097714D02*
X17008334Y-11116762D01*
X17008334Y-11116762D02*
X17008334Y-11135810D01*
X17008334Y-11135810D02*
X16913096Y-11154857D01*
X17084524Y-11212000D02*
X17103572Y-11221524D01*
X17103572Y-11221524D02*
X17141667Y-11221524D01*
X17141667Y-11221524D02*
X17160715Y-11212000D01*
X17160715Y-11212000D02*
X17170239Y-11192952D01*
X17170239Y-11192952D02*
X17170239Y-11183429D01*
X17170239Y-11183429D02*
X17160715Y-11164381D01*
X17160715Y-11164381D02*
X17141667Y-11154857D01*
X17141667Y-11154857D02*
X17113096Y-11154857D01*
X17113096Y-11154857D02*
X17094048Y-11145333D01*
X17094048Y-11145333D02*
X17084524Y-11126286D01*
X17084524Y-11126286D02*
X17084524Y-11116762D01*
X17084524Y-11116762D02*
X17094048Y-11097714D01*
X17094048Y-11097714D02*
X17113096Y-11088190D01*
X17113096Y-11088190D02*
X17141667Y-11088190D01*
X17141667Y-11088190D02*
X17160715Y-11097714D01*
X17236905Y-11297714D02*
X17246429Y-11288190D01*
X17246429Y-11288190D02*
X17265477Y-11259619D01*
X17265477Y-11259619D02*
X17275000Y-11240571D01*
X17275000Y-11240571D02*
X17284524Y-11212000D01*
X17284524Y-11212000D02*
X17294048Y-11164381D01*
X17294048Y-11164381D02*
X17294048Y-11126286D01*
X17294048Y-11126286D02*
X17284524Y-11078667D01*
X17284524Y-11078667D02*
X17275000Y-11050095D01*
X17275000Y-11050095D02*
X17265477Y-11031048D01*
X17265477Y-11031048D02*
X17246429Y-11002476D01*
X17246429Y-11002476D02*
X17236905Y-10992952D01*
D10*
X12425000Y-11343000D02*
X12425000Y-11443000D01*
X12375000Y-11393000D02*
X12475000Y-11393000D01*
D11*
X12827381Y-11485524D02*
X12713095Y-11485524D01*
X12770238Y-11485524D02*
X12770238Y-11285524D01*
X12770238Y-11285524D02*
X12751190Y-11314095D01*
X12751190Y-11314095D02*
X12732143Y-11333143D01*
X12732143Y-11333143D02*
X12713095Y-11342667D01*
X12913095Y-11466476D02*
X12922619Y-11476000D01*
X12922619Y-11476000D02*
X12913095Y-11485524D01*
X12913095Y-11485524D02*
X12903571Y-11476000D01*
X12903571Y-11476000D02*
X12913095Y-11466476D01*
X12913095Y-11466476D02*
X12913095Y-11485524D01*
X13046428Y-11285524D02*
X13065476Y-11285524D01*
X13065476Y-11285524D02*
X13084524Y-11295048D01*
X13084524Y-11295048D02*
X13094048Y-11304571D01*
X13094048Y-11304571D02*
X13103571Y-11323619D01*
X13103571Y-11323619D02*
X13113095Y-11361714D01*
X13113095Y-11361714D02*
X13113095Y-11409333D01*
X13113095Y-11409333D02*
X13103571Y-11447428D01*
X13103571Y-11447428D02*
X13094048Y-11466476D01*
X13094048Y-11466476D02*
X13084524Y-11476000D01*
X13084524Y-11476000D02*
X13065476Y-11485524D01*
X13065476Y-11485524D02*
X13046428Y-11485524D01*
X13046428Y-11485524D02*
X13027381Y-11476000D01*
X13027381Y-11476000D02*
X13017857Y-11466476D01*
X13017857Y-11466476D02*
X13008333Y-11447428D01*
X13008333Y-11447428D02*
X12998809Y-11409333D01*
X12998809Y-11409333D02*
X12998809Y-11361714D01*
X12998809Y-11361714D02*
X13008333Y-11323619D01*
X13008333Y-11323619D02*
X13017857Y-11304571D01*
X13017857Y-11304571D02*
X13027381Y-11295048D01*
X13027381Y-11295048D02*
X13046428Y-11285524D01*
X13236905Y-11285524D02*
X13255952Y-11285524D01*
X13255952Y-11285524D02*
X13275000Y-11295048D01*
X13275000Y-11295048D02*
X13284524Y-11304571D01*
X13284524Y-11304571D02*
X13294048Y-11323619D01*
X13294048Y-11323619D02*
X13303571Y-11361714D01*
X13303571Y-11361714D02*
X13303571Y-11409333D01*
X13303571Y-11409333D02*
X13294048Y-11447428D01*
X13294048Y-11447428D02*
X13284524Y-11466476D01*
X13284524Y-11466476D02*
X13275000Y-11476000D01*
X13275000Y-11476000D02*
X13255952Y-11485524D01*
X13255952Y-11485524D02*
X13236905Y-11485524D01*
X13236905Y-11485524D02*
X13217857Y-11476000D01*
X13217857Y-11476000D02*
X13208333Y-11466476D01*
X13208333Y-11466476D02*
X13198809Y-11447428D01*
X13198809Y-11447428D02*
X13189286Y-11409333D01*
X13189286Y-11409333D02*
X13189286Y-11361714D01*
X13189286Y-11361714D02*
X13198809Y-11323619D01*
X13198809Y-11323619D02*
X13208333Y-11304571D01*
X13208333Y-11304571D02*
X13217857Y-11295048D01*
X13217857Y-11295048D02*
X13236905Y-11285524D01*
X13427381Y-11285524D02*
X13446429Y-11285524D01*
X13446429Y-11285524D02*
X13465476Y-11295048D01*
X13465476Y-11295048D02*
X13475000Y-11304571D01*
X13475000Y-11304571D02*
X13484524Y-11323619D01*
X13484524Y-11323619D02*
X13494048Y-11361714D01*
X13494048Y-11361714D02*
X13494048Y-11409333D01*
X13494048Y-11409333D02*
X13484524Y-11447428D01*
X13484524Y-11447428D02*
X13475000Y-11466476D01*
X13475000Y-11466476D02*
X13465476Y-11476000D01*
X13465476Y-11476000D02*
X13446429Y-11485524D01*
X13446429Y-11485524D02*
X13427381Y-11485524D01*
X13427381Y-11485524D02*
X13408333Y-11476000D01*
X13408333Y-11476000D02*
X13398809Y-11466476D01*
X13398809Y-11466476D02*
X13389286Y-11447428D01*
X13389286Y-11447428D02*
X13379762Y-11409333D01*
X13379762Y-11409333D02*
X13379762Y-11361714D01*
X13379762Y-11361714D02*
X13389286Y-11323619D01*
X13389286Y-11323619D02*
X13398809Y-11304571D01*
X13398809Y-11304571D02*
X13408333Y-11295048D01*
X13408333Y-11295048D02*
X13427381Y-11285524D01*
X13579762Y-11485524D02*
X13579762Y-11352190D01*
X13579762Y-11371238D02*
X13589286Y-11361714D01*
X13589286Y-11361714D02*
X13608333Y-11352190D01*
X13608333Y-11352190D02*
X13636905Y-11352190D01*
X13636905Y-11352190D02*
X13655952Y-11361714D01*
X13655952Y-11361714D02*
X13665476Y-11380762D01*
X13665476Y-11380762D02*
X13665476Y-11485524D01*
X13665476Y-11380762D02*
X13675000Y-11361714D01*
X13675000Y-11361714D02*
X13694048Y-11352190D01*
X13694048Y-11352190D02*
X13722619Y-11352190D01*
X13722619Y-11352190D02*
X13741667Y-11361714D01*
X13741667Y-11361714D02*
X13751190Y-11380762D01*
X13751190Y-11380762D02*
X13751190Y-11485524D01*
X13846429Y-11485524D02*
X13846429Y-11352190D01*
X13846429Y-11371238D02*
X13855952Y-11361714D01*
X13855952Y-11361714D02*
X13875000Y-11352190D01*
X13875000Y-11352190D02*
X13903571Y-11352190D01*
X13903571Y-11352190D02*
X13922619Y-11361714D01*
X13922619Y-11361714D02*
X13932143Y-11380762D01*
X13932143Y-11380762D02*
X13932143Y-11485524D01*
X13932143Y-11380762D02*
X13941667Y-11361714D01*
X13941667Y-11361714D02*
X13960714Y-11352190D01*
X13960714Y-11352190D02*
X13989286Y-11352190D01*
X13989286Y-11352190D02*
X14008333Y-11361714D01*
X14008333Y-11361714D02*
X14017857Y-11380762D01*
X14017857Y-11380762D02*
X14017857Y-11485524D01*
X14408333Y-11276000D02*
X14236905Y-11533143D01*
X14665476Y-11285524D02*
X14684524Y-11285524D01*
X14684524Y-11285524D02*
X14703572Y-11295048D01*
X14703572Y-11295048D02*
X14713095Y-11304571D01*
X14713095Y-11304571D02*
X14722619Y-11323619D01*
X14722619Y-11323619D02*
X14732143Y-11361714D01*
X14732143Y-11361714D02*
X14732143Y-11409333D01*
X14732143Y-11409333D02*
X14722619Y-11447428D01*
X14722619Y-11447428D02*
X14713095Y-11466476D01*
X14713095Y-11466476D02*
X14703572Y-11476000D01*
X14703572Y-11476000D02*
X14684524Y-11485524D01*
X14684524Y-11485524D02*
X14665476Y-11485524D01*
X14665476Y-11485524D02*
X14646429Y-11476000D01*
X14646429Y-11476000D02*
X14636905Y-11466476D01*
X14636905Y-11466476D02*
X14627381Y-11447428D01*
X14627381Y-11447428D02*
X14617857Y-11409333D01*
X14617857Y-11409333D02*
X14617857Y-11361714D01*
X14617857Y-11361714D02*
X14627381Y-11323619D01*
X14627381Y-11323619D02*
X14636905Y-11304571D01*
X14636905Y-11304571D02*
X14646429Y-11295048D01*
X14646429Y-11295048D02*
X14665476Y-11285524D01*
X14817857Y-11466476D02*
X14827381Y-11476000D01*
X14827381Y-11476000D02*
X14817857Y-11485524D01*
X14817857Y-11485524D02*
X14808333Y-11476000D01*
X14808333Y-11476000D02*
X14817857Y-11466476D01*
X14817857Y-11466476D02*
X14817857Y-11485524D01*
X14951191Y-11285524D02*
X14970238Y-11285524D01*
X14970238Y-11285524D02*
X14989286Y-11295048D01*
X14989286Y-11295048D02*
X14998810Y-11304571D01*
X14998810Y-11304571D02*
X15008333Y-11323619D01*
X15008333Y-11323619D02*
X15017857Y-11361714D01*
X15017857Y-11361714D02*
X15017857Y-11409333D01*
X15017857Y-11409333D02*
X15008333Y-11447428D01*
X15008333Y-11447428D02*
X14998810Y-11466476D01*
X14998810Y-11466476D02*
X14989286Y-11476000D01*
X14989286Y-11476000D02*
X14970238Y-11485524D01*
X14970238Y-11485524D02*
X14951191Y-11485524D01*
X14951191Y-11485524D02*
X14932143Y-11476000D01*
X14932143Y-11476000D02*
X14922619Y-11466476D01*
X14922619Y-11466476D02*
X14913095Y-11447428D01*
X14913095Y-11447428D02*
X14903572Y-11409333D01*
X14903572Y-11409333D02*
X14903572Y-11361714D01*
X14903572Y-11361714D02*
X14913095Y-11323619D01*
X14913095Y-11323619D02*
X14922619Y-11304571D01*
X14922619Y-11304571D02*
X14932143Y-11295048D01*
X14932143Y-11295048D02*
X14951191Y-11285524D01*
X15084524Y-11285524D02*
X15208333Y-11285524D01*
X15208333Y-11285524D02*
X15141667Y-11361714D01*
X15141667Y-11361714D02*
X15170238Y-11361714D01*
X15170238Y-11361714D02*
X15189286Y-11371238D01*
X15189286Y-11371238D02*
X15198810Y-11380762D01*
X15198810Y-11380762D02*
X15208333Y-11399809D01*
X15208333Y-11399809D02*
X15208333Y-11447428D01*
X15208333Y-11447428D02*
X15198810Y-11466476D01*
X15198810Y-11466476D02*
X15189286Y-11476000D01*
X15189286Y-11476000D02*
X15170238Y-11485524D01*
X15170238Y-11485524D02*
X15113095Y-11485524D01*
X15113095Y-11485524D02*
X15094048Y-11476000D01*
X15094048Y-11476000D02*
X15084524Y-11466476D01*
X15303572Y-11485524D02*
X15341667Y-11485524D01*
X15341667Y-11485524D02*
X15360714Y-11476000D01*
X15360714Y-11476000D02*
X15370238Y-11466476D01*
X15370238Y-11466476D02*
X15389286Y-11437905D01*
X15389286Y-11437905D02*
X15398810Y-11399809D01*
X15398810Y-11399809D02*
X15398810Y-11323619D01*
X15398810Y-11323619D02*
X15389286Y-11304571D01*
X15389286Y-11304571D02*
X15379762Y-11295048D01*
X15379762Y-11295048D02*
X15360714Y-11285524D01*
X15360714Y-11285524D02*
X15322619Y-11285524D01*
X15322619Y-11285524D02*
X15303572Y-11295048D01*
X15303572Y-11295048D02*
X15294048Y-11304571D01*
X15294048Y-11304571D02*
X15284524Y-11323619D01*
X15284524Y-11323619D02*
X15284524Y-11371238D01*
X15284524Y-11371238D02*
X15294048Y-11390286D01*
X15294048Y-11390286D02*
X15303572Y-11399809D01*
X15303572Y-11399809D02*
X15322619Y-11409333D01*
X15322619Y-11409333D02*
X15360714Y-11409333D01*
X15360714Y-11409333D02*
X15379762Y-11399809D01*
X15379762Y-11399809D02*
X15389286Y-11390286D01*
X15389286Y-11390286D02*
X15398810Y-11371238D01*
X15570238Y-11352190D02*
X15570238Y-11485524D01*
X15522619Y-11276000D02*
X15475000Y-11418857D01*
X15475000Y-11418857D02*
X15598810Y-11418857D01*
X15665476Y-11285524D02*
X15665476Y-11323619D01*
X15741667Y-11285524D02*
X15741667Y-11323619D01*
X16036905Y-11561714D02*
X16027381Y-11552190D01*
X16027381Y-11552190D02*
X16008334Y-11523619D01*
X16008334Y-11523619D02*
X15998810Y-11504571D01*
X15998810Y-11504571D02*
X15989286Y-11476000D01*
X15989286Y-11476000D02*
X15979762Y-11428381D01*
X15979762Y-11428381D02*
X15979762Y-11390286D01*
X15979762Y-11390286D02*
X15989286Y-11342667D01*
X15989286Y-11342667D02*
X15998810Y-11314095D01*
X15998810Y-11314095D02*
X16008334Y-11295048D01*
X16008334Y-11295048D02*
X16027381Y-11266476D01*
X16027381Y-11266476D02*
X16036905Y-11256952D01*
X16094048Y-11285524D02*
X16217857Y-11285524D01*
X16217857Y-11285524D02*
X16151191Y-11361714D01*
X16151191Y-11361714D02*
X16179762Y-11361714D01*
X16179762Y-11361714D02*
X16198810Y-11371238D01*
X16198810Y-11371238D02*
X16208334Y-11380762D01*
X16208334Y-11380762D02*
X16217857Y-11399809D01*
X16217857Y-11399809D02*
X16217857Y-11447428D01*
X16217857Y-11447428D02*
X16208334Y-11466476D01*
X16208334Y-11466476D02*
X16198810Y-11476000D01*
X16198810Y-11476000D02*
X16179762Y-11485524D01*
X16179762Y-11485524D02*
X16122619Y-11485524D01*
X16122619Y-11485524D02*
X16103572Y-11476000D01*
X16103572Y-11476000D02*
X16094048Y-11466476D01*
X16408334Y-11485524D02*
X16294048Y-11485524D01*
X16351191Y-11485524D02*
X16351191Y-11285524D01*
X16351191Y-11285524D02*
X16332143Y-11314095D01*
X16332143Y-11314095D02*
X16313095Y-11333143D01*
X16313095Y-11333143D02*
X16294048Y-11342667D01*
X16646429Y-11485524D02*
X16646429Y-11285524D01*
X16732143Y-11485524D02*
X16732143Y-11380762D01*
X16732143Y-11380762D02*
X16722619Y-11361714D01*
X16722619Y-11361714D02*
X16703572Y-11352190D01*
X16703572Y-11352190D02*
X16675000Y-11352190D01*
X16675000Y-11352190D02*
X16655953Y-11361714D01*
X16655953Y-11361714D02*
X16646429Y-11371238D01*
X16855953Y-11485524D02*
X16836905Y-11476000D01*
X16836905Y-11476000D02*
X16827381Y-11466476D01*
X16827381Y-11466476D02*
X16817858Y-11447428D01*
X16817858Y-11447428D02*
X16817858Y-11390286D01*
X16817858Y-11390286D02*
X16827381Y-11371238D01*
X16827381Y-11371238D02*
X16836905Y-11361714D01*
X16836905Y-11361714D02*
X16855953Y-11352190D01*
X16855953Y-11352190D02*
X16884524Y-11352190D01*
X16884524Y-11352190D02*
X16903572Y-11361714D01*
X16903572Y-11361714D02*
X16913096Y-11371238D01*
X16913096Y-11371238D02*
X16922619Y-11390286D01*
X16922619Y-11390286D02*
X16922619Y-11447428D01*
X16922619Y-11447428D02*
X16913096Y-11466476D01*
X16913096Y-11466476D02*
X16903572Y-11476000D01*
X16903572Y-11476000D02*
X16884524Y-11485524D01*
X16884524Y-11485524D02*
X16855953Y-11485524D01*
X17036905Y-11485524D02*
X17017858Y-11476000D01*
X17017858Y-11476000D02*
X17008334Y-11456952D01*
X17008334Y-11456952D02*
X17008334Y-11285524D01*
X17189286Y-11476000D02*
X17170239Y-11485524D01*
X17170239Y-11485524D02*
X17132143Y-11485524D01*
X17132143Y-11485524D02*
X17113096Y-11476000D01*
X17113096Y-11476000D02*
X17103572Y-11456952D01*
X17103572Y-11456952D02*
X17103572Y-11380762D01*
X17103572Y-11380762D02*
X17113096Y-11361714D01*
X17113096Y-11361714D02*
X17132143Y-11352190D01*
X17132143Y-11352190D02*
X17170239Y-11352190D01*
X17170239Y-11352190D02*
X17189286Y-11361714D01*
X17189286Y-11361714D02*
X17198810Y-11380762D01*
X17198810Y-11380762D02*
X17198810Y-11399809D01*
X17198810Y-11399809D02*
X17103572Y-11418857D01*
X17275000Y-11476000D02*
X17294048Y-11485524D01*
X17294048Y-11485524D02*
X17332143Y-11485524D01*
X17332143Y-11485524D02*
X17351191Y-11476000D01*
X17351191Y-11476000D02*
X17360715Y-11456952D01*
X17360715Y-11456952D02*
X17360715Y-11447428D01*
X17360715Y-11447428D02*
X17351191Y-11428381D01*
X17351191Y-11428381D02*
X17332143Y-11418857D01*
X17332143Y-11418857D02*
X17303572Y-11418857D01*
X17303572Y-11418857D02*
X17284524Y-11409333D01*
X17284524Y-11409333D02*
X17275000Y-11390286D01*
X17275000Y-11390286D02*
X17275000Y-11380762D01*
X17275000Y-11380762D02*
X17284524Y-11361714D01*
X17284524Y-11361714D02*
X17303572Y-11352190D01*
X17303572Y-11352190D02*
X17332143Y-11352190D01*
X17332143Y-11352190D02*
X17351191Y-11361714D01*
X17427381Y-11561714D02*
X17436905Y-11552190D01*
X17436905Y-11552190D02*
X17455953Y-11523619D01*
X17455953Y-11523619D02*
X17465477Y-11504571D01*
X17465477Y-11504571D02*
X17475000Y-11476000D01*
X17475000Y-11476000D02*
X17484524Y-11428381D01*
X17484524Y-11428381D02*
X17484524Y-11390286D01*
X17484524Y-11390286D02*
X17475000Y-11342667D01*
X17475000Y-11342667D02*
X17465477Y-11314095D01*
X17465477Y-11314095D02*
X17455953Y-11295048D01*
X17455953Y-11295048D02*
X17436905Y-11266476D01*
X17436905Y-11266476D02*
X17427381Y-11256952D01*
D14*
X12457427Y-11699427D02*
X12457427Y-11614573D01*
X12372573Y-11614573D01*
X12372573Y-11699427D01*
X12457427Y-11699427D01*
D11*
X12827381Y-11749524D02*
X12713095Y-11749524D01*
X12770238Y-11749524D02*
X12770238Y-11549524D01*
X12770238Y-11549524D02*
X12751190Y-11578095D01*
X12751190Y-11578095D02*
X12732143Y-11597143D01*
X12732143Y-11597143D02*
X12713095Y-11606667D01*
X12913095Y-11730476D02*
X12922619Y-11740000D01*
X12922619Y-11740000D02*
X12913095Y-11749524D01*
X12913095Y-11749524D02*
X12903571Y-11740000D01*
X12903571Y-11740000D02*
X12913095Y-11730476D01*
X12913095Y-11730476D02*
X12913095Y-11749524D01*
X12998809Y-11568571D02*
X13008333Y-11559048D01*
X13008333Y-11559048D02*
X13027381Y-11549524D01*
X13027381Y-11549524D02*
X13075000Y-11549524D01*
X13075000Y-11549524D02*
X13094048Y-11559048D01*
X13094048Y-11559048D02*
X13103571Y-11568571D01*
X13103571Y-11568571D02*
X13113095Y-11587619D01*
X13113095Y-11587619D02*
X13113095Y-11606667D01*
X13113095Y-11606667D02*
X13103571Y-11635238D01*
X13103571Y-11635238D02*
X12989286Y-11749524D01*
X12989286Y-11749524D02*
X13113095Y-11749524D01*
X13236905Y-11549524D02*
X13255952Y-11549524D01*
X13255952Y-11549524D02*
X13275000Y-11559048D01*
X13275000Y-11559048D02*
X13284524Y-11568571D01*
X13284524Y-11568571D02*
X13294048Y-11587619D01*
X13294048Y-11587619D02*
X13303571Y-11625714D01*
X13303571Y-11625714D02*
X13303571Y-11673333D01*
X13303571Y-11673333D02*
X13294048Y-11711428D01*
X13294048Y-11711428D02*
X13284524Y-11730476D01*
X13284524Y-11730476D02*
X13275000Y-11740000D01*
X13275000Y-11740000D02*
X13255952Y-11749524D01*
X13255952Y-11749524D02*
X13236905Y-11749524D01*
X13236905Y-11749524D02*
X13217857Y-11740000D01*
X13217857Y-11740000D02*
X13208333Y-11730476D01*
X13208333Y-11730476D02*
X13198809Y-11711428D01*
X13198809Y-11711428D02*
X13189286Y-11673333D01*
X13189286Y-11673333D02*
X13189286Y-11625714D01*
X13189286Y-11625714D02*
X13198809Y-11587619D01*
X13198809Y-11587619D02*
X13208333Y-11568571D01*
X13208333Y-11568571D02*
X13217857Y-11559048D01*
X13217857Y-11559048D02*
X13236905Y-11549524D01*
X13427381Y-11549524D02*
X13446429Y-11549524D01*
X13446429Y-11549524D02*
X13465476Y-11559048D01*
X13465476Y-11559048D02*
X13475000Y-11568571D01*
X13475000Y-11568571D02*
X13484524Y-11587619D01*
X13484524Y-11587619D02*
X13494048Y-11625714D01*
X13494048Y-11625714D02*
X13494048Y-11673333D01*
X13494048Y-11673333D02*
X13484524Y-11711428D01*
X13484524Y-11711428D02*
X13475000Y-11730476D01*
X13475000Y-11730476D02*
X13465476Y-11740000D01*
X13465476Y-11740000D02*
X13446429Y-11749524D01*
X13446429Y-11749524D02*
X13427381Y-11749524D01*
X13427381Y-11749524D02*
X13408333Y-11740000D01*
X13408333Y-11740000D02*
X13398809Y-11730476D01*
X13398809Y-11730476D02*
X13389286Y-11711428D01*
X13389286Y-11711428D02*
X13379762Y-11673333D01*
X13379762Y-11673333D02*
X13379762Y-11625714D01*
X13379762Y-11625714D02*
X13389286Y-11587619D01*
X13389286Y-11587619D02*
X13398809Y-11568571D01*
X13398809Y-11568571D02*
X13408333Y-11559048D01*
X13408333Y-11559048D02*
X13427381Y-11549524D01*
X13579762Y-11749524D02*
X13579762Y-11616190D01*
X13579762Y-11635238D02*
X13589286Y-11625714D01*
X13589286Y-11625714D02*
X13608333Y-11616190D01*
X13608333Y-11616190D02*
X13636905Y-11616190D01*
X13636905Y-11616190D02*
X13655952Y-11625714D01*
X13655952Y-11625714D02*
X13665476Y-11644762D01*
X13665476Y-11644762D02*
X13665476Y-11749524D01*
X13665476Y-11644762D02*
X13675000Y-11625714D01*
X13675000Y-11625714D02*
X13694048Y-11616190D01*
X13694048Y-11616190D02*
X13722619Y-11616190D01*
X13722619Y-11616190D02*
X13741667Y-11625714D01*
X13741667Y-11625714D02*
X13751190Y-11644762D01*
X13751190Y-11644762D02*
X13751190Y-11749524D01*
X13846429Y-11749524D02*
X13846429Y-11616190D01*
X13846429Y-11635238D02*
X13855952Y-11625714D01*
X13855952Y-11625714D02*
X13875000Y-11616190D01*
X13875000Y-11616190D02*
X13903571Y-11616190D01*
X13903571Y-11616190D02*
X13922619Y-11625714D01*
X13922619Y-11625714D02*
X13932143Y-11644762D01*
X13932143Y-11644762D02*
X13932143Y-11749524D01*
X13932143Y-11644762D02*
X13941667Y-11625714D01*
X13941667Y-11625714D02*
X13960714Y-11616190D01*
X13960714Y-11616190D02*
X13989286Y-11616190D01*
X13989286Y-11616190D02*
X14008333Y-11625714D01*
X14008333Y-11625714D02*
X14017857Y-11644762D01*
X14017857Y-11644762D02*
X14017857Y-11749524D01*
X14408333Y-11540000D02*
X14236905Y-11797143D01*
X14665476Y-11549524D02*
X14684524Y-11549524D01*
X14684524Y-11549524D02*
X14703572Y-11559048D01*
X14703572Y-11559048D02*
X14713095Y-11568571D01*
X14713095Y-11568571D02*
X14722619Y-11587619D01*
X14722619Y-11587619D02*
X14732143Y-11625714D01*
X14732143Y-11625714D02*
X14732143Y-11673333D01*
X14732143Y-11673333D02*
X14722619Y-11711428D01*
X14722619Y-11711428D02*
X14713095Y-11730476D01*
X14713095Y-11730476D02*
X14703572Y-11740000D01*
X14703572Y-11740000D02*
X14684524Y-11749524D01*
X14684524Y-11749524D02*
X14665476Y-11749524D01*
X14665476Y-11749524D02*
X14646429Y-11740000D01*
X14646429Y-11740000D02*
X14636905Y-11730476D01*
X14636905Y-11730476D02*
X14627381Y-11711428D01*
X14627381Y-11711428D02*
X14617857Y-11673333D01*
X14617857Y-11673333D02*
X14617857Y-11625714D01*
X14617857Y-11625714D02*
X14627381Y-11587619D01*
X14627381Y-11587619D02*
X14636905Y-11568571D01*
X14636905Y-11568571D02*
X14646429Y-11559048D01*
X14646429Y-11559048D02*
X14665476Y-11549524D01*
X14817857Y-11730476D02*
X14827381Y-11740000D01*
X14827381Y-11740000D02*
X14817857Y-11749524D01*
X14817857Y-11749524D02*
X14808333Y-11740000D01*
X14808333Y-11740000D02*
X14817857Y-11730476D01*
X14817857Y-11730476D02*
X14817857Y-11749524D01*
X14951191Y-11549524D02*
X14970238Y-11549524D01*
X14970238Y-11549524D02*
X14989286Y-11559048D01*
X14989286Y-11559048D02*
X14998810Y-11568571D01*
X14998810Y-11568571D02*
X15008333Y-11587619D01*
X15008333Y-11587619D02*
X15017857Y-11625714D01*
X15017857Y-11625714D02*
X15017857Y-11673333D01*
X15017857Y-11673333D02*
X15008333Y-11711428D01*
X15008333Y-11711428D02*
X14998810Y-11730476D01*
X14998810Y-11730476D02*
X14989286Y-11740000D01*
X14989286Y-11740000D02*
X14970238Y-11749524D01*
X14970238Y-11749524D02*
X14951191Y-11749524D01*
X14951191Y-11749524D02*
X14932143Y-11740000D01*
X14932143Y-11740000D02*
X14922619Y-11730476D01*
X14922619Y-11730476D02*
X14913095Y-11711428D01*
X14913095Y-11711428D02*
X14903572Y-11673333D01*
X14903572Y-11673333D02*
X14903572Y-11625714D01*
X14903572Y-11625714D02*
X14913095Y-11587619D01*
X14913095Y-11587619D02*
X14922619Y-11568571D01*
X14922619Y-11568571D02*
X14932143Y-11559048D01*
X14932143Y-11559048D02*
X14951191Y-11549524D01*
X15189286Y-11616190D02*
X15189286Y-11749524D01*
X15141667Y-11540000D02*
X15094048Y-11682857D01*
X15094048Y-11682857D02*
X15217857Y-11682857D01*
X15275000Y-11549524D02*
X15408333Y-11549524D01*
X15408333Y-11549524D02*
X15322619Y-11749524D01*
X15475000Y-11568571D02*
X15484524Y-11559048D01*
X15484524Y-11559048D02*
X15503572Y-11549524D01*
X15503572Y-11549524D02*
X15551191Y-11549524D01*
X15551191Y-11549524D02*
X15570238Y-11559048D01*
X15570238Y-11559048D02*
X15579762Y-11568571D01*
X15579762Y-11568571D02*
X15589286Y-11587619D01*
X15589286Y-11587619D02*
X15589286Y-11606667D01*
X15589286Y-11606667D02*
X15579762Y-11635238D01*
X15579762Y-11635238D02*
X15465476Y-11749524D01*
X15465476Y-11749524D02*
X15589286Y-11749524D01*
X15665476Y-11549524D02*
X15665476Y-11587619D01*
X15741667Y-11549524D02*
X15741667Y-11587619D01*
X16036905Y-11825714D02*
X16027381Y-11816190D01*
X16027381Y-11816190D02*
X16008334Y-11787619D01*
X16008334Y-11787619D02*
X15998810Y-11768571D01*
X15998810Y-11768571D02*
X15989286Y-11740000D01*
X15989286Y-11740000D02*
X15979762Y-11692381D01*
X15979762Y-11692381D02*
X15979762Y-11654286D01*
X15979762Y-11654286D02*
X15989286Y-11606667D01*
X15989286Y-11606667D02*
X15998810Y-11578095D01*
X15998810Y-11578095D02*
X16008334Y-11559048D01*
X16008334Y-11559048D02*
X16027381Y-11530476D01*
X16027381Y-11530476D02*
X16036905Y-11520952D01*
X16198810Y-11616190D02*
X16198810Y-11749524D01*
X16151191Y-11540000D02*
X16103572Y-11682857D01*
X16103572Y-11682857D02*
X16227381Y-11682857D01*
X16455953Y-11749524D02*
X16455953Y-11549524D01*
X16541667Y-11749524D02*
X16541667Y-11644762D01*
X16541667Y-11644762D02*
X16532143Y-11625714D01*
X16532143Y-11625714D02*
X16513096Y-11616190D01*
X16513096Y-11616190D02*
X16484524Y-11616190D01*
X16484524Y-11616190D02*
X16465476Y-11625714D01*
X16465476Y-11625714D02*
X16455953Y-11635238D01*
X16665476Y-11749524D02*
X16646429Y-11740000D01*
X16646429Y-11740000D02*
X16636905Y-11730476D01*
X16636905Y-11730476D02*
X16627381Y-11711428D01*
X16627381Y-11711428D02*
X16627381Y-11654286D01*
X16627381Y-11654286D02*
X16636905Y-11635238D01*
X16636905Y-11635238D02*
X16646429Y-11625714D01*
X16646429Y-11625714D02*
X16665476Y-11616190D01*
X16665476Y-11616190D02*
X16694048Y-11616190D01*
X16694048Y-11616190D02*
X16713096Y-11625714D01*
X16713096Y-11625714D02*
X16722619Y-11635238D01*
X16722619Y-11635238D02*
X16732143Y-11654286D01*
X16732143Y-11654286D02*
X16732143Y-11711428D01*
X16732143Y-11711428D02*
X16722619Y-11730476D01*
X16722619Y-11730476D02*
X16713096Y-11740000D01*
X16713096Y-11740000D02*
X16694048Y-11749524D01*
X16694048Y-11749524D02*
X16665476Y-11749524D01*
X16846429Y-11749524D02*
X16827381Y-11740000D01*
X16827381Y-11740000D02*
X16817858Y-11720952D01*
X16817858Y-11720952D02*
X16817858Y-11549524D01*
X16998810Y-11740000D02*
X16979762Y-11749524D01*
X16979762Y-11749524D02*
X16941667Y-11749524D01*
X16941667Y-11749524D02*
X16922619Y-11740000D01*
X16922619Y-11740000D02*
X16913096Y-11720952D01*
X16913096Y-11720952D02*
X16913096Y-11644762D01*
X16913096Y-11644762D02*
X16922619Y-11625714D01*
X16922619Y-11625714D02*
X16941667Y-11616190D01*
X16941667Y-11616190D02*
X16979762Y-11616190D01*
X16979762Y-11616190D02*
X16998810Y-11625714D01*
X16998810Y-11625714D02*
X17008334Y-11644762D01*
X17008334Y-11644762D02*
X17008334Y-11663809D01*
X17008334Y-11663809D02*
X16913096Y-11682857D01*
X17084524Y-11740000D02*
X17103572Y-11749524D01*
X17103572Y-11749524D02*
X17141667Y-11749524D01*
X17141667Y-11749524D02*
X17160715Y-11740000D01*
X17160715Y-11740000D02*
X17170239Y-11720952D01*
X17170239Y-11720952D02*
X17170239Y-11711428D01*
X17170239Y-11711428D02*
X17160715Y-11692381D01*
X17160715Y-11692381D02*
X17141667Y-11682857D01*
X17141667Y-11682857D02*
X17113096Y-11682857D01*
X17113096Y-11682857D02*
X17094048Y-11673333D01*
X17094048Y-11673333D02*
X17084524Y-11654286D01*
X17084524Y-11654286D02*
X17084524Y-11644762D01*
X17084524Y-11644762D02*
X17094048Y-11625714D01*
X17094048Y-11625714D02*
X17113096Y-11616190D01*
X17113096Y-11616190D02*
X17141667Y-11616190D01*
X17141667Y-11616190D02*
X17160715Y-11625714D01*
X17236905Y-11825714D02*
X17246429Y-11816190D01*
X17246429Y-11816190D02*
X17265477Y-11787619D01*
X17265477Y-11787619D02*
X17275000Y-11768571D01*
X17275000Y-11768571D02*
X17284524Y-11740000D01*
X17284524Y-11740000D02*
X17294048Y-11692381D01*
X17294048Y-11692381D02*
X17294048Y-11654286D01*
X17294048Y-11654286D02*
X17284524Y-11606667D01*
X17284524Y-11606667D02*
X17275000Y-11578095D01*
X17275000Y-11578095D02*
X17265477Y-11559048D01*
X17265477Y-11559048D02*
X17246429Y-11530476D01*
X17246429Y-11530476D02*
X17236905Y-11520952D01*
M02*
