%TF.GenerationSoftware,KiCad,Pcbnew,7.0.1*%
%TF.CreationDate,2025-02-05T10:51:01+01:00*%
%TF.ProjectId,mangiatoia,6d616e67-6961-4746-9f69-612e6b696361,1.1*%
%TF.SameCoordinates,Original*%
%TF.FileFunction,Drillmap*%
%TF.FilePolarity,Positive*%
%FSLAX45Y45*%
G04 Gerber Fmt 4.5, Leading zero omitted, Abs format (unit mm)*
G04 Created by KiCad (PCBNEW 7.0.1) date 2025-02-05 10:51:01*
%MOMM*%
%LPD*%
G01*
G04 APERTURE LIST*
%ADD10C,0.100000*%
%ADD11C,0.200000*%
%ADD12C,0.060000*%
%ADD13C,0.080000*%
%ADD14C,0.090000*%
%ADD15C,0.110000*%
%ADD16C,0.120000*%
%ADD17C,0.130000*%
%ADD18C,0.140000*%
%ADD19C,0.150000*%
G04 APERTURE END LIST*
D10*
X20503000Y-4509500D02*
X7503000Y-4509500D01*
X20503000Y-12509500D02*
G75*
G03*
X21003000Y-12009500I0J500000D01*
G01*
X7003000Y-12009500D02*
G75*
G03*
X7503000Y-12509500I500000J0D01*
G01*
X7003000Y-5009500D02*
X7003000Y-12009500D01*
X12550690Y-10792870D02*
G75*
G03*
X12550690Y-10792870I-254000J0D01*
G01*
X21003000Y-5009500D02*
G75*
G03*
X20503000Y-4509500I-500000J0D01*
G01*
X12550690Y-6398670D02*
G75*
G03*
X12550690Y-6398670I-254000J0D01*
G01*
X20208799Y-6363621D02*
G75*
G03*
X20208799Y-6363621I-254000J0D01*
G01*
X7503000Y-4509500D02*
G75*
G03*
X7003000Y-5009500I0J-500000D01*
G01*
X21003000Y-12009500D02*
X21003000Y-5009500D01*
X7503000Y-12509500D02*
X20503000Y-12509500D01*
X20212000Y-10804500D02*
G75*
G03*
X20212000Y-10804500I-254000J0D01*
G01*
D11*
D12*
X7785800Y-8085300D02*
X7845800Y-8145300D01*
X7845800Y-8085300D02*
X7785800Y-8145300D01*
X10605200Y-11971500D02*
X10665200Y-12031500D01*
X10665200Y-11971500D02*
X10605200Y-12031500D01*
X10630600Y-8059900D02*
X10690600Y-8119900D01*
X10690600Y-8059900D02*
X10630600Y-8119900D01*
X10630600Y-10396700D02*
X10690600Y-10456700D01*
X10690600Y-10396700D02*
X10630600Y-10456700D01*
X10656000Y-9837900D02*
X10716000Y-9897900D01*
X10716000Y-9837900D02*
X10656000Y-9897900D01*
X10732200Y-8361500D02*
X10792200Y-8421500D01*
X10792200Y-8361500D02*
X10732200Y-8421500D01*
X10732200Y-8618700D02*
X10792200Y-8678700D01*
X10792200Y-8618700D02*
X10732200Y-8678700D01*
X10735400Y-8869500D02*
X10795400Y-8929500D01*
X10795400Y-8869500D02*
X10735400Y-8929500D01*
X10808400Y-9710900D02*
X10868400Y-9770900D01*
X10868400Y-9710900D02*
X10808400Y-9770900D01*
X10808400Y-10015700D02*
X10868400Y-10075700D01*
X10868400Y-10015700D02*
X10808400Y-10075700D01*
X11037000Y-10295100D02*
X11097000Y-10355100D01*
X11097000Y-10295100D02*
X11037000Y-10355100D01*
X11062400Y-9329900D02*
X11122400Y-9389900D01*
X11122400Y-9329900D02*
X11062400Y-9389900D01*
X11291000Y-9736300D02*
X11351000Y-9796300D01*
X11351000Y-9736300D02*
X11291000Y-9796300D01*
X11392600Y-5723100D02*
X11452600Y-5783100D01*
X11452600Y-5723100D02*
X11392600Y-5783100D01*
X11418000Y-9939500D02*
X11478000Y-9999500D01*
X11478000Y-9939500D02*
X11418000Y-9999500D01*
X11489043Y-8548689D02*
X11549043Y-8608689D01*
X11549043Y-8548689D02*
X11489043Y-8608689D01*
X11494200Y-10777700D02*
X11554200Y-10837700D01*
X11554200Y-10777700D02*
X11494200Y-10837700D01*
X11672000Y-9761700D02*
X11732000Y-9821700D01*
X11732000Y-9761700D02*
X11672000Y-9821700D01*
X11936497Y-8551539D02*
X11996497Y-8611539D01*
X11996497Y-8551539D02*
X11936497Y-8611539D01*
X12103800Y-9812500D02*
X12163800Y-9872500D01*
X12163800Y-9812500D02*
X12103800Y-9872500D01*
X12432401Y-9956600D02*
X12492401Y-10016600D01*
X12492401Y-9956600D02*
X12432401Y-10016600D01*
X12688000Y-11285700D02*
X12748000Y-11345700D01*
X12748000Y-11285700D02*
X12688000Y-11345700D01*
X13170600Y-7704300D02*
X13230600Y-7764300D01*
X13230600Y-7704300D02*
X13170600Y-7764300D01*
X13424600Y-7755100D02*
X13484600Y-7815100D01*
X13484600Y-7755100D02*
X13424600Y-7815100D01*
X14008800Y-9050500D02*
X14068800Y-9110500D01*
X14068800Y-9050500D02*
X14008800Y-9110500D01*
X14288200Y-8161500D02*
X14348200Y-8221500D01*
X14348200Y-8161500D02*
X14288200Y-8221500D01*
X14567600Y-8059900D02*
X14627600Y-8119900D01*
X14627600Y-8059900D02*
X14567600Y-8119900D01*
X14770800Y-7958300D02*
X14830800Y-8018300D01*
X14830800Y-7958300D02*
X14770800Y-8018300D01*
X19165000Y-9025100D02*
X19225000Y-9085100D01*
X19225000Y-9025100D02*
X19165000Y-9085100D01*
X19360785Y-8172070D02*
X19420785Y-8232070D01*
X19420785Y-8172070D02*
X19360785Y-8232070D01*
X19368200Y-9583900D02*
X19428200Y-9643900D01*
X19428200Y-9583900D02*
X19368200Y-9643900D01*
X19469800Y-9837900D02*
X19529800Y-9897900D01*
X19529800Y-9837900D02*
X19469800Y-9897900D01*
D13*
X12348690Y-8201070D02*
G75*
G03*
X12348690Y-8201070I-40000J0D01*
G01*
X12348690Y-8455070D02*
G75*
G03*
X12348690Y-8455070I-40000J0D01*
G01*
X12348690Y-8709070D02*
G75*
G03*
X12348690Y-8709070I-40000J0D01*
G01*
X12348690Y-8963070D02*
G75*
G03*
X12348690Y-8963070I-40000J0D01*
G01*
X12602690Y-8201070D02*
G75*
G03*
X12602690Y-8201070I-40000J0D01*
G01*
X12602690Y-8455070D02*
G75*
G03*
X12602690Y-8455070I-40000J0D01*
G01*
X12602690Y-8709070D02*
G75*
G03*
X12602690Y-8709070I-40000J0D01*
G01*
X12602690Y-8963070D02*
G75*
G03*
X12602690Y-8963070I-40000J0D01*
G01*
X15577400Y-8801100D02*
G75*
G03*
X15577400Y-8801100I-40000J0D01*
G01*
X15827400Y-8801100D02*
G75*
G03*
X15827400Y-8801100I-40000J0D01*
G01*
X20210690Y-6932070D02*
G75*
G03*
X20210690Y-6932070I-40000J0D01*
G01*
X20210690Y-7186070D02*
G75*
G03*
X20210690Y-7186070I-40000J0D01*
G01*
X20210690Y-7440070D02*
G75*
G03*
X20210690Y-7440070I-40000J0D01*
G01*
X20210690Y-7694070D02*
G75*
G03*
X20210690Y-7694070I-40000J0D01*
G01*
X20210690Y-7948070D02*
G75*
G03*
X20210690Y-7948070I-40000J0D01*
G01*
X20210690Y-8202070D02*
G75*
G03*
X20210690Y-8202070I-40000J0D01*
G01*
X20210690Y-8456070D02*
G75*
G03*
X20210690Y-8456070I-40000J0D01*
G01*
X20210690Y-8710070D02*
G75*
G03*
X20210690Y-8710070I-40000J0D01*
G01*
X20210690Y-8964070D02*
G75*
G03*
X20210690Y-8964070I-40000J0D01*
G01*
X20210690Y-9218070D02*
G75*
G03*
X20210690Y-9218070I-40000J0D01*
G01*
X20210690Y-9472070D02*
G75*
G03*
X20210690Y-9472070I-40000J0D01*
G01*
X20210690Y-9726070D02*
G75*
G03*
X20210690Y-9726070I-40000J0D01*
G01*
X20210690Y-9980070D02*
G75*
G03*
X20210690Y-9980070I-40000J0D01*
G01*
X20210690Y-10234070D02*
G75*
G03*
X20210690Y-10234070I-40000J0D01*
G01*
X20464690Y-6932070D02*
G75*
G03*
X20464690Y-6932070I-40000J0D01*
G01*
X20464690Y-7186070D02*
G75*
G03*
X20464690Y-7186070I-40000J0D01*
G01*
X20464690Y-7440070D02*
G75*
G03*
X20464690Y-7440070I-40000J0D01*
G01*
X20464690Y-7694070D02*
G75*
G03*
X20464690Y-7694070I-40000J0D01*
G01*
X20464690Y-7948070D02*
G75*
G03*
X20464690Y-7948070I-40000J0D01*
G01*
X20464690Y-8202070D02*
G75*
G03*
X20464690Y-8202070I-40000J0D01*
G01*
X20464690Y-8456070D02*
G75*
G03*
X20464690Y-8456070I-40000J0D01*
G01*
X20464690Y-8710070D02*
G75*
G03*
X20464690Y-8710070I-40000J0D01*
G01*
X20464690Y-8964070D02*
G75*
G03*
X20464690Y-8964070I-40000J0D01*
G01*
X20464690Y-9218070D02*
G75*
G03*
X20464690Y-9218070I-40000J0D01*
G01*
X20464690Y-9472070D02*
G75*
G03*
X20464690Y-9472070I-40000J0D01*
G01*
X20464690Y-9726070D02*
G75*
G03*
X20464690Y-9726070I-40000J0D01*
G01*
X20464690Y-9980070D02*
G75*
G03*
X20464690Y-9980070I-40000J0D01*
G01*
X20464690Y-10234070D02*
G75*
G03*
X20464690Y-10234070I-40000J0D01*
G01*
D14*
X9480500Y-11964500D02*
X9480500Y-12054500D01*
X9435500Y-12009500D02*
X9525500Y-12009500D01*
X9734500Y-11964500D02*
X9734500Y-12054500D01*
X9689500Y-12009500D02*
X9779500Y-12009500D01*
D10*
X7677606Y-6140856D02*
X7677606Y-6070144D01*
X7606894Y-6070144D01*
X7606894Y-6140856D01*
X7677606Y-6140856D01*
X7677606Y-6394856D02*
X7677606Y-6324144D01*
X7606894Y-6324144D01*
X7606894Y-6394856D01*
X7677606Y-6394856D01*
X7677606Y-7282356D02*
X7677606Y-7211644D01*
X7606894Y-7211644D01*
X7606894Y-7282356D01*
X7677606Y-7282356D01*
X7677606Y-7536356D02*
X7677606Y-7465644D01*
X7606894Y-7465644D01*
X7606894Y-7536356D01*
X7677606Y-7536356D01*
X7677606Y-7790356D02*
X7677606Y-7719644D01*
X7606894Y-7719644D01*
X7606894Y-7790356D01*
X7677606Y-7790356D01*
X7677606Y-8552856D02*
X7677606Y-8482144D01*
X7606894Y-8482144D01*
X7606894Y-8552856D01*
X7677606Y-8552856D01*
X7677606Y-8806856D02*
X7677606Y-8736144D01*
X7606894Y-8736144D01*
X7606894Y-8806856D01*
X7677606Y-8806856D01*
X7677606Y-9060856D02*
X7677606Y-8990144D01*
X7606894Y-8990144D01*
X7606894Y-9060856D01*
X7677606Y-9060856D01*
X7677606Y-9314856D02*
X7677606Y-9244144D01*
X7606894Y-9244144D01*
X7606894Y-9314856D01*
X7677606Y-9314856D01*
X9250156Y-11871756D02*
X9250156Y-11801044D01*
X9179444Y-11801044D01*
X9179444Y-11871756D01*
X9250156Y-11871756D01*
X9456356Y-8336856D02*
X9456356Y-8266144D01*
X9385644Y-8266144D01*
X9385644Y-8336856D01*
X9456356Y-8336856D01*
X9456356Y-9786856D02*
X9456356Y-9716144D01*
X9385644Y-9716144D01*
X9385644Y-9786856D01*
X9456356Y-9786856D01*
X9706356Y-9786856D02*
X9706356Y-9716144D01*
X9635644Y-9716144D01*
X9635644Y-9786856D01*
X9706356Y-9786856D01*
X9956356Y-8336856D02*
X9956356Y-8266144D01*
X9885644Y-8266144D01*
X9885644Y-8336856D01*
X9956356Y-8336856D01*
X9956356Y-9786856D02*
X9956356Y-9716144D01*
X9885644Y-9716144D01*
X9885644Y-9786856D01*
X9956356Y-9786856D01*
X10010156Y-11871756D02*
X10010156Y-11801044D01*
X9939444Y-11801044D01*
X9939444Y-11871756D01*
X10010156Y-11871756D01*
X13210856Y-11325656D02*
X13210856Y-11254944D01*
X13140144Y-11254944D01*
X13140144Y-11325656D01*
X13210856Y-11325656D01*
X13210856Y-12145656D02*
X13210856Y-12074944D01*
X13140144Y-12074944D01*
X13140144Y-12145656D01*
X13210856Y-12145656D01*
X13305856Y-7274356D02*
X13305856Y-7203644D01*
X13235144Y-7203644D01*
X13235144Y-7274356D01*
X13305856Y-7274356D01*
X13559856Y-7274356D02*
X13559856Y-7203644D01*
X13489144Y-7203644D01*
X13489144Y-7274356D01*
X13559856Y-7274356D01*
X13560856Y-9750856D02*
X13560856Y-9680144D01*
X13490144Y-9680144D01*
X13490144Y-9750856D01*
X13560856Y-9750856D01*
X13813856Y-7274356D02*
X13813856Y-7203644D01*
X13743144Y-7203644D01*
X13743144Y-7274356D01*
X13813856Y-7274356D01*
X13814856Y-9750856D02*
X13814856Y-9680144D01*
X13744144Y-9680144D01*
X13744144Y-9750856D01*
X13814856Y-9750856D01*
X14067856Y-7274356D02*
X14067856Y-7203644D01*
X13997144Y-7203644D01*
X13997144Y-7274356D01*
X14067856Y-7274356D01*
X14068856Y-9750856D02*
X14068856Y-9680144D01*
X13998144Y-9680144D01*
X13998144Y-9750856D01*
X14068856Y-9750856D01*
X14321856Y-7274356D02*
X14321856Y-7203644D01*
X14251144Y-7203644D01*
X14251144Y-7274356D01*
X14321856Y-7274356D01*
X14322856Y-9750856D02*
X14322856Y-9680144D01*
X14252144Y-9680144D01*
X14252144Y-9750856D01*
X14322856Y-9750856D01*
X14575856Y-7274356D02*
X14575856Y-7203644D01*
X14505144Y-7203644D01*
X14505144Y-7274356D01*
X14575856Y-7274356D01*
X14710856Y-11325656D02*
X14710856Y-11254944D01*
X14640144Y-11254944D01*
X14640144Y-11325656D01*
X14710856Y-11325656D01*
X14710856Y-12145656D02*
X14710856Y-12074944D01*
X14640144Y-12074944D01*
X14640144Y-12145656D01*
X14710856Y-12145656D01*
X15546856Y-8125256D02*
X15546856Y-8054544D01*
X15476144Y-8054544D01*
X15476144Y-8125256D01*
X15546856Y-8125256D01*
X15548356Y-11465623D02*
X15548356Y-11394912D01*
X15477644Y-11394912D01*
X15477644Y-11465623D01*
X15548356Y-11465623D01*
X15548356Y-11965623D02*
X15548356Y-11894912D01*
X15477644Y-11894912D01*
X15477644Y-11965623D01*
X15548356Y-11965623D01*
X15800856Y-8125256D02*
X15800856Y-8054544D01*
X15730144Y-8054544D01*
X15730144Y-8125256D01*
X15800856Y-8125256D01*
X16373856Y-7728356D02*
X16373856Y-7657644D01*
X16303144Y-7657644D01*
X16303144Y-7728356D01*
X16373856Y-7728356D01*
X16373856Y-7982356D02*
X16373856Y-7911644D01*
X16303144Y-7911644D01*
X16303144Y-7982356D01*
X16373856Y-7982356D01*
X16373856Y-8236356D02*
X16373856Y-8165644D01*
X16303144Y-8165644D01*
X16303144Y-8236356D01*
X16373856Y-8236356D01*
X16373856Y-8490356D02*
X16373856Y-8419644D01*
X16303144Y-8419644D01*
X16303144Y-8490356D01*
X16373856Y-8490356D01*
X16373856Y-8744356D02*
X16373856Y-8673644D01*
X16303144Y-8673644D01*
X16303144Y-8744356D01*
X16373856Y-8744356D01*
X16373856Y-8998356D02*
X16373856Y-8927644D01*
X16303144Y-8927644D01*
X16303144Y-8998356D01*
X16373856Y-8998356D01*
X16373856Y-9252356D02*
X16373856Y-9181644D01*
X16303144Y-9181644D01*
X16303144Y-9252356D01*
X16373856Y-9252356D01*
X16373856Y-9506356D02*
X16373856Y-9435644D01*
X16303144Y-9435644D01*
X16303144Y-9506356D01*
X16373856Y-9506356D01*
X16373856Y-9760356D02*
X16373856Y-9689644D01*
X16303144Y-9689644D01*
X16303144Y-9760356D01*
X16373856Y-9760356D01*
X16373856Y-10014356D02*
X16373856Y-9943644D01*
X16303144Y-9943644D01*
X16303144Y-10014356D01*
X16373856Y-10014356D01*
X16373856Y-10268356D02*
X16373856Y-10197644D01*
X16303144Y-10197644D01*
X16303144Y-10268356D01*
X16373856Y-10268356D01*
X16373856Y-10522356D02*
X16373856Y-10451644D01*
X16303144Y-10451644D01*
X16303144Y-10522356D01*
X16373856Y-10522356D01*
X16373856Y-10776356D02*
X16373856Y-10705644D01*
X16303144Y-10705644D01*
X16303144Y-10776356D01*
X16373856Y-10776356D01*
X16373856Y-11030356D02*
X16373856Y-10959644D01*
X16303144Y-10959644D01*
X16303144Y-11030356D01*
X16373856Y-11030356D01*
X16373856Y-11284356D02*
X16373856Y-11213644D01*
X16303144Y-11213644D01*
X16303144Y-11284356D01*
X16373856Y-11284356D01*
X16373856Y-11538356D02*
X16373856Y-11467644D01*
X16303144Y-11467644D01*
X16303144Y-11538356D01*
X16373856Y-11538356D01*
X16373856Y-11792356D02*
X16373856Y-11721644D01*
X16303144Y-11721644D01*
X16303144Y-11792356D01*
X16373856Y-11792356D01*
X16373856Y-12046356D02*
X16373856Y-11975644D01*
X16303144Y-11975644D01*
X16303144Y-12046356D01*
X16373856Y-12046356D01*
X16373856Y-12300356D02*
X16373856Y-12229644D01*
X16303144Y-12229644D01*
X16303144Y-12300356D01*
X16373856Y-12300356D01*
X18913488Y-12046084D02*
X18913488Y-11975372D01*
X18842776Y-11975372D01*
X18842776Y-12046084D01*
X18913488Y-12046084D01*
X18913488Y-12300084D02*
X18913488Y-12229372D01*
X18842776Y-12229372D01*
X18842776Y-12300084D01*
X18913488Y-12300084D01*
X18913856Y-7728356D02*
X18913856Y-7657644D01*
X18843144Y-7657644D01*
X18843144Y-7728356D01*
X18913856Y-7728356D01*
X18913856Y-7982356D02*
X18913856Y-7911644D01*
X18843144Y-7911644D01*
X18843144Y-7982356D01*
X18913856Y-7982356D01*
X18913856Y-8236356D02*
X18913856Y-8165644D01*
X18843144Y-8165644D01*
X18843144Y-8236356D01*
X18913856Y-8236356D01*
X18913856Y-8490356D02*
X18913856Y-8419644D01*
X18843144Y-8419644D01*
X18843144Y-8490356D01*
X18913856Y-8490356D01*
X18913856Y-8744356D02*
X18913856Y-8673644D01*
X18843144Y-8673644D01*
X18843144Y-8744356D01*
X18913856Y-8744356D01*
X18913856Y-8998356D02*
X18913856Y-8927644D01*
X18843144Y-8927644D01*
X18843144Y-8998356D01*
X18913856Y-8998356D01*
X18913856Y-9252356D02*
X18913856Y-9181644D01*
X18843144Y-9181644D01*
X18843144Y-9252356D01*
X18913856Y-9252356D01*
X18913856Y-9506356D02*
X18913856Y-9435644D01*
X18843144Y-9435644D01*
X18843144Y-9506356D01*
X18913856Y-9506356D01*
X18913856Y-9760356D02*
X18913856Y-9689644D01*
X18843144Y-9689644D01*
X18843144Y-9760356D01*
X18913856Y-9760356D01*
X18913856Y-10014356D02*
X18913856Y-9943644D01*
X18843144Y-9943644D01*
X18843144Y-10014356D01*
X18913856Y-10014356D01*
X18913856Y-10268356D02*
X18913856Y-10197644D01*
X18843144Y-10197644D01*
X18843144Y-10268356D01*
X18913856Y-10268356D01*
X18913856Y-10522356D02*
X18913856Y-10451644D01*
X18843144Y-10451644D01*
X18843144Y-10522356D01*
X18913856Y-10522356D01*
X18913856Y-10776356D02*
X18913856Y-10705644D01*
X18843144Y-10705644D01*
X18843144Y-10776356D01*
X18913856Y-10776356D01*
X18913856Y-11030356D02*
X18913856Y-10959644D01*
X18843144Y-10959644D01*
X18843144Y-11030356D01*
X18913856Y-11030356D01*
X18913856Y-11284356D02*
X18913856Y-11213644D01*
X18843144Y-11213644D01*
X18843144Y-11284356D01*
X18913856Y-11284356D01*
X18913856Y-11538356D02*
X18913856Y-11467644D01*
X18843144Y-11467644D01*
X18843144Y-11538356D01*
X18913856Y-11538356D01*
X18913856Y-11792356D02*
X18913856Y-11721644D01*
X18843144Y-11721644D01*
X18843144Y-11792356D01*
X18913856Y-11792356D01*
D15*
X13708600Y-11802500D02*
X13763600Y-11747500D01*
X13708600Y-11692500D01*
X13653600Y-11747500D01*
X13708600Y-11802500D01*
X13962600Y-11802500D02*
X14017600Y-11747500D01*
X13962600Y-11692500D01*
X13907600Y-11747500D01*
X13962600Y-11802500D01*
X14216600Y-11802500D02*
X14271600Y-11747500D01*
X14216600Y-11692500D01*
X14161600Y-11747500D01*
X14216600Y-11802500D01*
D16*
X12988200Y-5693100D02*
X13108200Y-5813100D01*
X13108200Y-5693100D02*
X12988200Y-5813100D01*
X13108200Y-5753100D02*
G75*
G03*
X13108200Y-5753100I-60000J0D01*
G01*
X13338200Y-6193100D02*
X13458200Y-6313100D01*
X13458200Y-6193100D02*
X13338200Y-6313100D01*
X13458200Y-6253100D02*
G75*
G03*
X13458200Y-6253100I-60000J0D01*
G01*
X13688200Y-5693100D02*
X13808200Y-5813100D01*
X13808200Y-5693100D02*
X13688200Y-5813100D01*
X13808200Y-5753100D02*
G75*
G03*
X13808200Y-5753100I-60000J0D01*
G01*
X14038200Y-6193100D02*
X14158200Y-6313100D01*
X14158200Y-6193100D02*
X14038200Y-6313100D01*
X14158200Y-6253100D02*
G75*
G03*
X14158200Y-6253100I-60000J0D01*
G01*
X14388200Y-5693100D02*
X14508200Y-5813100D01*
X14508200Y-5693100D02*
X14388200Y-5813100D01*
X14508200Y-5753100D02*
G75*
G03*
X14508200Y-5753100I-60000J0D01*
G01*
X14738200Y-6193100D02*
X14858200Y-6313100D01*
X14858200Y-6193100D02*
X14738200Y-6313100D01*
X14858200Y-6253100D02*
G75*
G03*
X14858200Y-6253100I-60000J0D01*
G01*
D17*
X8928000Y-6920000D02*
X9058000Y-7050000D01*
X9058000Y-6920000D02*
X8928000Y-7050000D01*
X8993000Y-6920000D02*
X8993000Y-7050000D01*
X8928000Y-6985000D02*
X9058000Y-6985000D01*
X9128000Y-6320000D02*
X9258000Y-6450000D01*
X9258000Y-6320000D02*
X9128000Y-6450000D01*
X9193000Y-6320000D02*
X9193000Y-6450000D01*
X9128000Y-6385000D02*
X9258000Y-6385000D01*
X9128000Y-7520000D02*
X9258000Y-7650000D01*
X9258000Y-7520000D02*
X9128000Y-7650000D01*
X9193000Y-7520000D02*
X9193000Y-7650000D01*
X9128000Y-7585000D02*
X9258000Y-7585000D01*
X10348000Y-6320000D02*
X10478000Y-6450000D01*
X10478000Y-6320000D02*
X10348000Y-6450000D01*
X10413000Y-6320000D02*
X10413000Y-6450000D01*
X10348000Y-6385000D02*
X10478000Y-6385000D01*
X10348000Y-7520000D02*
X10478000Y-7650000D01*
X10478000Y-7520000D02*
X10348000Y-7650000D01*
X10413000Y-7520000D02*
X10413000Y-7650000D01*
X10348000Y-7585000D02*
X10478000Y-7585000D01*
D18*
X7696000Y-10099500D02*
X7836000Y-10239500D01*
X7836000Y-10099500D02*
X7696000Y-10239500D01*
X7815498Y-10218998D02*
X7815498Y-10120002D01*
X7716502Y-10120002D01*
X7716502Y-10218998D01*
X7815498Y-10218998D01*
X7696000Y-10607500D02*
X7836000Y-10747500D01*
X7836000Y-10607500D02*
X7696000Y-10747500D01*
X7815498Y-10726998D02*
X7815498Y-10628002D01*
X7716502Y-10628002D01*
X7716502Y-10726998D01*
X7815498Y-10726998D01*
D19*
X9036000Y-8926500D02*
X9186000Y-9076500D01*
X9186000Y-8926500D02*
X9036000Y-9076500D01*
X9111000Y-9076500D02*
X9186000Y-9001500D01*
X9111000Y-8926500D01*
X9036000Y-9001500D01*
X9111000Y-9076500D01*
D11*
X9186000Y-9066500D02*
X9186000Y-8936500D01*
X9186000Y-8936500D02*
G75*
G03*
X9036000Y-8936500I-75000J0D01*
G01*
X9036000Y-8936500D02*
X9036000Y-9066500D01*
X9036000Y-9066500D02*
G75*
G03*
X9186000Y-9066500I75000J0D01*
G01*
D19*
X10156000Y-8926500D02*
X10306000Y-9076500D01*
X10306000Y-8926500D02*
X10156000Y-9076500D01*
X10231000Y-9076500D02*
X10306000Y-9001500D01*
X10231000Y-8926500D01*
X10156000Y-9001500D01*
X10231000Y-9076500D01*
D11*
X10306000Y-9066500D02*
X10306000Y-8936500D01*
X10306000Y-8936500D02*
G75*
G03*
X10156000Y-8936500I-75000J0D01*
G01*
X10156000Y-8936500D02*
X10156000Y-9066500D01*
X10156000Y-9066500D02*
G75*
G03*
X10306000Y-9066500I75000J0D01*
G01*
X7245619Y-12827024D02*
X7245619Y-12627024D01*
X7245619Y-12627024D02*
X7293238Y-12627024D01*
X7293238Y-12627024D02*
X7321809Y-12636548D01*
X7321809Y-12636548D02*
X7340857Y-12655595D01*
X7340857Y-12655595D02*
X7350381Y-12674643D01*
X7350381Y-12674643D02*
X7359905Y-12712738D01*
X7359905Y-12712738D02*
X7359905Y-12741309D01*
X7359905Y-12741309D02*
X7350381Y-12779405D01*
X7350381Y-12779405D02*
X7340857Y-12798452D01*
X7340857Y-12798452D02*
X7321809Y-12817500D01*
X7321809Y-12817500D02*
X7293238Y-12827024D01*
X7293238Y-12827024D02*
X7245619Y-12827024D01*
X7445619Y-12827024D02*
X7445619Y-12693690D01*
X7445619Y-12731786D02*
X7455143Y-12712738D01*
X7455143Y-12712738D02*
X7464667Y-12703214D01*
X7464667Y-12703214D02*
X7483714Y-12693690D01*
X7483714Y-12693690D02*
X7502762Y-12693690D01*
X7569428Y-12827024D02*
X7569428Y-12693690D01*
X7569428Y-12627024D02*
X7559905Y-12636548D01*
X7559905Y-12636548D02*
X7569428Y-12646071D01*
X7569428Y-12646071D02*
X7578952Y-12636548D01*
X7578952Y-12636548D02*
X7569428Y-12627024D01*
X7569428Y-12627024D02*
X7569428Y-12646071D01*
X7693238Y-12827024D02*
X7674190Y-12817500D01*
X7674190Y-12817500D02*
X7664667Y-12798452D01*
X7664667Y-12798452D02*
X7664667Y-12627024D01*
X7798000Y-12827024D02*
X7778952Y-12817500D01*
X7778952Y-12817500D02*
X7769428Y-12798452D01*
X7769428Y-12798452D02*
X7769428Y-12627024D01*
X8026571Y-12827024D02*
X8026571Y-12627024D01*
X8026571Y-12627024D02*
X8093238Y-12769881D01*
X8093238Y-12769881D02*
X8159905Y-12627024D01*
X8159905Y-12627024D02*
X8159905Y-12827024D01*
X8340857Y-12827024D02*
X8340857Y-12722262D01*
X8340857Y-12722262D02*
X8331333Y-12703214D01*
X8331333Y-12703214D02*
X8312286Y-12693690D01*
X8312286Y-12693690D02*
X8274190Y-12693690D01*
X8274190Y-12693690D02*
X8255143Y-12703214D01*
X8340857Y-12817500D02*
X8321809Y-12827024D01*
X8321809Y-12827024D02*
X8274190Y-12827024D01*
X8274190Y-12827024D02*
X8255143Y-12817500D01*
X8255143Y-12817500D02*
X8245619Y-12798452D01*
X8245619Y-12798452D02*
X8245619Y-12779405D01*
X8245619Y-12779405D02*
X8255143Y-12760357D01*
X8255143Y-12760357D02*
X8274190Y-12750833D01*
X8274190Y-12750833D02*
X8321809Y-12750833D01*
X8321809Y-12750833D02*
X8340857Y-12741309D01*
X8436095Y-12693690D02*
X8436095Y-12893690D01*
X8436095Y-12703214D02*
X8455143Y-12693690D01*
X8455143Y-12693690D02*
X8493238Y-12693690D01*
X8493238Y-12693690D02*
X8512286Y-12703214D01*
X8512286Y-12703214D02*
X8521810Y-12712738D01*
X8521810Y-12712738D02*
X8531333Y-12731786D01*
X8531333Y-12731786D02*
X8531333Y-12788928D01*
X8531333Y-12788928D02*
X8521810Y-12807976D01*
X8521810Y-12807976D02*
X8512286Y-12817500D01*
X8512286Y-12817500D02*
X8493238Y-12827024D01*
X8493238Y-12827024D02*
X8455143Y-12827024D01*
X8455143Y-12827024D02*
X8436095Y-12817500D01*
X8617048Y-12807976D02*
X8626571Y-12817500D01*
X8626571Y-12817500D02*
X8617048Y-12827024D01*
X8617048Y-12827024D02*
X8607524Y-12817500D01*
X8607524Y-12817500D02*
X8617048Y-12807976D01*
X8617048Y-12807976D02*
X8617048Y-12827024D01*
X8617048Y-12703214D02*
X8626571Y-12712738D01*
X8626571Y-12712738D02*
X8617048Y-12722262D01*
X8617048Y-12722262D02*
X8607524Y-12712738D01*
X8607524Y-12712738D02*
X8617048Y-12703214D01*
X8617048Y-12703214D02*
X8617048Y-12722262D01*
D12*
X6938000Y-13124500D02*
X6998000Y-13184500D01*
X6998000Y-13124500D02*
X6938000Y-13184500D01*
D11*
X7283714Y-13047024D02*
X7302762Y-13047024D01*
X7302762Y-13047024D02*
X7321809Y-13056548D01*
X7321809Y-13056548D02*
X7331333Y-13066071D01*
X7331333Y-13066071D02*
X7340857Y-13085119D01*
X7340857Y-13085119D02*
X7350381Y-13123214D01*
X7350381Y-13123214D02*
X7350381Y-13170833D01*
X7350381Y-13170833D02*
X7340857Y-13208928D01*
X7340857Y-13208928D02*
X7331333Y-13227976D01*
X7331333Y-13227976D02*
X7321809Y-13237500D01*
X7321809Y-13237500D02*
X7302762Y-13247024D01*
X7302762Y-13247024D02*
X7283714Y-13247024D01*
X7283714Y-13247024D02*
X7264667Y-13237500D01*
X7264667Y-13237500D02*
X7255143Y-13227976D01*
X7255143Y-13227976D02*
X7245619Y-13208928D01*
X7245619Y-13208928D02*
X7236095Y-13170833D01*
X7236095Y-13170833D02*
X7236095Y-13123214D01*
X7236095Y-13123214D02*
X7245619Y-13085119D01*
X7245619Y-13085119D02*
X7255143Y-13066071D01*
X7255143Y-13066071D02*
X7264667Y-13056548D01*
X7264667Y-13056548D02*
X7283714Y-13047024D01*
X7436095Y-13227976D02*
X7445619Y-13237500D01*
X7445619Y-13237500D02*
X7436095Y-13247024D01*
X7436095Y-13247024D02*
X7426571Y-13237500D01*
X7426571Y-13237500D02*
X7436095Y-13227976D01*
X7436095Y-13227976D02*
X7436095Y-13247024D01*
X7617048Y-13047024D02*
X7578952Y-13047024D01*
X7578952Y-13047024D02*
X7559905Y-13056548D01*
X7559905Y-13056548D02*
X7550381Y-13066071D01*
X7550381Y-13066071D02*
X7531333Y-13094643D01*
X7531333Y-13094643D02*
X7521809Y-13132738D01*
X7521809Y-13132738D02*
X7521809Y-13208928D01*
X7521809Y-13208928D02*
X7531333Y-13227976D01*
X7531333Y-13227976D02*
X7540857Y-13237500D01*
X7540857Y-13237500D02*
X7559905Y-13247024D01*
X7559905Y-13247024D02*
X7598000Y-13247024D01*
X7598000Y-13247024D02*
X7617048Y-13237500D01*
X7617048Y-13237500D02*
X7626571Y-13227976D01*
X7626571Y-13227976D02*
X7636095Y-13208928D01*
X7636095Y-13208928D02*
X7636095Y-13161309D01*
X7636095Y-13161309D02*
X7626571Y-13142262D01*
X7626571Y-13142262D02*
X7617048Y-13132738D01*
X7617048Y-13132738D02*
X7598000Y-13123214D01*
X7598000Y-13123214D02*
X7559905Y-13123214D01*
X7559905Y-13123214D02*
X7540857Y-13132738D01*
X7540857Y-13132738D02*
X7531333Y-13142262D01*
X7531333Y-13142262D02*
X7521809Y-13161309D01*
X7759905Y-13047024D02*
X7778952Y-13047024D01*
X7778952Y-13047024D02*
X7798000Y-13056548D01*
X7798000Y-13056548D02*
X7807524Y-13066071D01*
X7807524Y-13066071D02*
X7817048Y-13085119D01*
X7817048Y-13085119D02*
X7826571Y-13123214D01*
X7826571Y-13123214D02*
X7826571Y-13170833D01*
X7826571Y-13170833D02*
X7817048Y-13208928D01*
X7817048Y-13208928D02*
X7807524Y-13227976D01*
X7807524Y-13227976D02*
X7798000Y-13237500D01*
X7798000Y-13237500D02*
X7778952Y-13247024D01*
X7778952Y-13247024D02*
X7759905Y-13247024D01*
X7759905Y-13247024D02*
X7740857Y-13237500D01*
X7740857Y-13237500D02*
X7731333Y-13227976D01*
X7731333Y-13227976D02*
X7721809Y-13208928D01*
X7721809Y-13208928D02*
X7712286Y-13170833D01*
X7712286Y-13170833D02*
X7712286Y-13123214D01*
X7712286Y-13123214D02*
X7721809Y-13085119D01*
X7721809Y-13085119D02*
X7731333Y-13066071D01*
X7731333Y-13066071D02*
X7740857Y-13056548D01*
X7740857Y-13056548D02*
X7759905Y-13047024D01*
X7950381Y-13047024D02*
X7969429Y-13047024D01*
X7969429Y-13047024D02*
X7988476Y-13056548D01*
X7988476Y-13056548D02*
X7998000Y-13066071D01*
X7998000Y-13066071D02*
X8007524Y-13085119D01*
X8007524Y-13085119D02*
X8017048Y-13123214D01*
X8017048Y-13123214D02*
X8017048Y-13170833D01*
X8017048Y-13170833D02*
X8007524Y-13208928D01*
X8007524Y-13208928D02*
X7998000Y-13227976D01*
X7998000Y-13227976D02*
X7988476Y-13237500D01*
X7988476Y-13237500D02*
X7969429Y-13247024D01*
X7969429Y-13247024D02*
X7950381Y-13247024D01*
X7950381Y-13247024D02*
X7931333Y-13237500D01*
X7931333Y-13237500D02*
X7921809Y-13227976D01*
X7921809Y-13227976D02*
X7912286Y-13208928D01*
X7912286Y-13208928D02*
X7902762Y-13170833D01*
X7902762Y-13170833D02*
X7902762Y-13123214D01*
X7902762Y-13123214D02*
X7912286Y-13085119D01*
X7912286Y-13085119D02*
X7921809Y-13066071D01*
X7921809Y-13066071D02*
X7931333Y-13056548D01*
X7931333Y-13056548D02*
X7950381Y-13047024D01*
X8102762Y-13247024D02*
X8102762Y-13113690D01*
X8102762Y-13132738D02*
X8112286Y-13123214D01*
X8112286Y-13123214D02*
X8131333Y-13113690D01*
X8131333Y-13113690D02*
X8159905Y-13113690D01*
X8159905Y-13113690D02*
X8178952Y-13123214D01*
X8178952Y-13123214D02*
X8188476Y-13142262D01*
X8188476Y-13142262D02*
X8188476Y-13247024D01*
X8188476Y-13142262D02*
X8198000Y-13123214D01*
X8198000Y-13123214D02*
X8217048Y-13113690D01*
X8217048Y-13113690D02*
X8245619Y-13113690D01*
X8245619Y-13113690D02*
X8264667Y-13123214D01*
X8264667Y-13123214D02*
X8274190Y-13142262D01*
X8274190Y-13142262D02*
X8274190Y-13247024D01*
X8369429Y-13247024D02*
X8369429Y-13113690D01*
X8369429Y-13132738D02*
X8378952Y-13123214D01*
X8378952Y-13123214D02*
X8398000Y-13113690D01*
X8398000Y-13113690D02*
X8426572Y-13113690D01*
X8426572Y-13113690D02*
X8445619Y-13123214D01*
X8445619Y-13123214D02*
X8455143Y-13142262D01*
X8455143Y-13142262D02*
X8455143Y-13247024D01*
X8455143Y-13142262D02*
X8464667Y-13123214D01*
X8464667Y-13123214D02*
X8483714Y-13113690D01*
X8483714Y-13113690D02*
X8512286Y-13113690D01*
X8512286Y-13113690D02*
X8531333Y-13123214D01*
X8531333Y-13123214D02*
X8540857Y-13142262D01*
X8540857Y-13142262D02*
X8540857Y-13247024D01*
X8931333Y-13037500D02*
X8759905Y-13294643D01*
X9188476Y-13047024D02*
X9207524Y-13047024D01*
X9207524Y-13047024D02*
X9226572Y-13056548D01*
X9226572Y-13056548D02*
X9236095Y-13066071D01*
X9236095Y-13066071D02*
X9245619Y-13085119D01*
X9245619Y-13085119D02*
X9255143Y-13123214D01*
X9255143Y-13123214D02*
X9255143Y-13170833D01*
X9255143Y-13170833D02*
X9245619Y-13208928D01*
X9245619Y-13208928D02*
X9236095Y-13227976D01*
X9236095Y-13227976D02*
X9226572Y-13237500D01*
X9226572Y-13237500D02*
X9207524Y-13247024D01*
X9207524Y-13247024D02*
X9188476Y-13247024D01*
X9188476Y-13247024D02*
X9169429Y-13237500D01*
X9169429Y-13237500D02*
X9159905Y-13227976D01*
X9159905Y-13227976D02*
X9150381Y-13208928D01*
X9150381Y-13208928D02*
X9140857Y-13170833D01*
X9140857Y-13170833D02*
X9140857Y-13123214D01*
X9140857Y-13123214D02*
X9150381Y-13085119D01*
X9150381Y-13085119D02*
X9159905Y-13066071D01*
X9159905Y-13066071D02*
X9169429Y-13056548D01*
X9169429Y-13056548D02*
X9188476Y-13047024D01*
X9340857Y-13227976D02*
X9350381Y-13237500D01*
X9350381Y-13237500D02*
X9340857Y-13247024D01*
X9340857Y-13247024D02*
X9331334Y-13237500D01*
X9331334Y-13237500D02*
X9340857Y-13227976D01*
X9340857Y-13227976D02*
X9340857Y-13247024D01*
X9474191Y-13047024D02*
X9493238Y-13047024D01*
X9493238Y-13047024D02*
X9512286Y-13056548D01*
X9512286Y-13056548D02*
X9521810Y-13066071D01*
X9521810Y-13066071D02*
X9531334Y-13085119D01*
X9531334Y-13085119D02*
X9540857Y-13123214D01*
X9540857Y-13123214D02*
X9540857Y-13170833D01*
X9540857Y-13170833D02*
X9531334Y-13208928D01*
X9531334Y-13208928D02*
X9521810Y-13227976D01*
X9521810Y-13227976D02*
X9512286Y-13237500D01*
X9512286Y-13237500D02*
X9493238Y-13247024D01*
X9493238Y-13247024D02*
X9474191Y-13247024D01*
X9474191Y-13247024D02*
X9455143Y-13237500D01*
X9455143Y-13237500D02*
X9445619Y-13227976D01*
X9445619Y-13227976D02*
X9436095Y-13208928D01*
X9436095Y-13208928D02*
X9426572Y-13170833D01*
X9426572Y-13170833D02*
X9426572Y-13123214D01*
X9426572Y-13123214D02*
X9436095Y-13085119D01*
X9436095Y-13085119D02*
X9445619Y-13066071D01*
X9445619Y-13066071D02*
X9455143Y-13056548D01*
X9455143Y-13056548D02*
X9474191Y-13047024D01*
X9617048Y-13066071D02*
X9626572Y-13056548D01*
X9626572Y-13056548D02*
X9645619Y-13047024D01*
X9645619Y-13047024D02*
X9693238Y-13047024D01*
X9693238Y-13047024D02*
X9712286Y-13056548D01*
X9712286Y-13056548D02*
X9721810Y-13066071D01*
X9721810Y-13066071D02*
X9731334Y-13085119D01*
X9731334Y-13085119D02*
X9731334Y-13104167D01*
X9731334Y-13104167D02*
X9721810Y-13132738D01*
X9721810Y-13132738D02*
X9607524Y-13247024D01*
X9607524Y-13247024D02*
X9731334Y-13247024D01*
X9798000Y-13047024D02*
X9921810Y-13047024D01*
X9921810Y-13047024D02*
X9855143Y-13123214D01*
X9855143Y-13123214D02*
X9883715Y-13123214D01*
X9883715Y-13123214D02*
X9902762Y-13132738D01*
X9902762Y-13132738D02*
X9912286Y-13142262D01*
X9912286Y-13142262D02*
X9921810Y-13161309D01*
X9921810Y-13161309D02*
X9921810Y-13208928D01*
X9921810Y-13208928D02*
X9912286Y-13227976D01*
X9912286Y-13227976D02*
X9902762Y-13237500D01*
X9902762Y-13237500D02*
X9883715Y-13247024D01*
X9883715Y-13247024D02*
X9826572Y-13247024D01*
X9826572Y-13247024D02*
X9807524Y-13237500D01*
X9807524Y-13237500D02*
X9798000Y-13227976D01*
X10093238Y-13047024D02*
X10055143Y-13047024D01*
X10055143Y-13047024D02*
X10036095Y-13056548D01*
X10036095Y-13056548D02*
X10026572Y-13066071D01*
X10026572Y-13066071D02*
X10007524Y-13094643D01*
X10007524Y-13094643D02*
X9998000Y-13132738D01*
X9998000Y-13132738D02*
X9998000Y-13208928D01*
X9998000Y-13208928D02*
X10007524Y-13227976D01*
X10007524Y-13227976D02*
X10017048Y-13237500D01*
X10017048Y-13237500D02*
X10036095Y-13247024D01*
X10036095Y-13247024D02*
X10074191Y-13247024D01*
X10074191Y-13247024D02*
X10093238Y-13237500D01*
X10093238Y-13237500D02*
X10102762Y-13227976D01*
X10102762Y-13227976D02*
X10112286Y-13208928D01*
X10112286Y-13208928D02*
X10112286Y-13161309D01*
X10112286Y-13161309D02*
X10102762Y-13142262D01*
X10102762Y-13142262D02*
X10093238Y-13132738D01*
X10093238Y-13132738D02*
X10074191Y-13123214D01*
X10074191Y-13123214D02*
X10036095Y-13123214D01*
X10036095Y-13123214D02*
X10017048Y-13132738D01*
X10017048Y-13132738D02*
X10007524Y-13142262D01*
X10007524Y-13142262D02*
X9998000Y-13161309D01*
X10188476Y-13047024D02*
X10188476Y-13085119D01*
X10264667Y-13047024D02*
X10264667Y-13085119D01*
X10559905Y-13323214D02*
X10550381Y-13313690D01*
X10550381Y-13313690D02*
X10531334Y-13285119D01*
X10531334Y-13285119D02*
X10521810Y-13266071D01*
X10521810Y-13266071D02*
X10512286Y-13237500D01*
X10512286Y-13237500D02*
X10502762Y-13189881D01*
X10502762Y-13189881D02*
X10502762Y-13151786D01*
X10502762Y-13151786D02*
X10512286Y-13104167D01*
X10512286Y-13104167D02*
X10521810Y-13075595D01*
X10521810Y-13075595D02*
X10531334Y-13056548D01*
X10531334Y-13056548D02*
X10550381Y-13027976D01*
X10550381Y-13027976D02*
X10559905Y-13018452D01*
X10617048Y-13047024D02*
X10740857Y-13047024D01*
X10740857Y-13047024D02*
X10674191Y-13123214D01*
X10674191Y-13123214D02*
X10702762Y-13123214D01*
X10702762Y-13123214D02*
X10721810Y-13132738D01*
X10721810Y-13132738D02*
X10731334Y-13142262D01*
X10731334Y-13142262D02*
X10740857Y-13161309D01*
X10740857Y-13161309D02*
X10740857Y-13208928D01*
X10740857Y-13208928D02*
X10731334Y-13227976D01*
X10731334Y-13227976D02*
X10721810Y-13237500D01*
X10721810Y-13237500D02*
X10702762Y-13247024D01*
X10702762Y-13247024D02*
X10645619Y-13247024D01*
X10645619Y-13247024D02*
X10626572Y-13237500D01*
X10626572Y-13237500D02*
X10617048Y-13227976D01*
X10817048Y-13066071D02*
X10826572Y-13056548D01*
X10826572Y-13056548D02*
X10845619Y-13047024D01*
X10845619Y-13047024D02*
X10893238Y-13047024D01*
X10893238Y-13047024D02*
X10912286Y-13056548D01*
X10912286Y-13056548D02*
X10921810Y-13066071D01*
X10921810Y-13066071D02*
X10931334Y-13085119D01*
X10931334Y-13085119D02*
X10931334Y-13104167D01*
X10931334Y-13104167D02*
X10921810Y-13132738D01*
X10921810Y-13132738D02*
X10807524Y-13247024D01*
X10807524Y-13247024D02*
X10931334Y-13247024D01*
X11169429Y-13247024D02*
X11169429Y-13047024D01*
X11255143Y-13247024D02*
X11255143Y-13142262D01*
X11255143Y-13142262D02*
X11245619Y-13123214D01*
X11245619Y-13123214D02*
X11226572Y-13113690D01*
X11226572Y-13113690D02*
X11198000Y-13113690D01*
X11198000Y-13113690D02*
X11178953Y-13123214D01*
X11178953Y-13123214D02*
X11169429Y-13132738D01*
X11378953Y-13247024D02*
X11359905Y-13237500D01*
X11359905Y-13237500D02*
X11350381Y-13227976D01*
X11350381Y-13227976D02*
X11340857Y-13208928D01*
X11340857Y-13208928D02*
X11340857Y-13151786D01*
X11340857Y-13151786D02*
X11350381Y-13132738D01*
X11350381Y-13132738D02*
X11359905Y-13123214D01*
X11359905Y-13123214D02*
X11378953Y-13113690D01*
X11378953Y-13113690D02*
X11407524Y-13113690D01*
X11407524Y-13113690D02*
X11426572Y-13123214D01*
X11426572Y-13123214D02*
X11436096Y-13132738D01*
X11436096Y-13132738D02*
X11445619Y-13151786D01*
X11445619Y-13151786D02*
X11445619Y-13208928D01*
X11445619Y-13208928D02*
X11436096Y-13227976D01*
X11436096Y-13227976D02*
X11426572Y-13237500D01*
X11426572Y-13237500D02*
X11407524Y-13247024D01*
X11407524Y-13247024D02*
X11378953Y-13247024D01*
X11559905Y-13247024D02*
X11540857Y-13237500D01*
X11540857Y-13237500D02*
X11531334Y-13218452D01*
X11531334Y-13218452D02*
X11531334Y-13047024D01*
X11712286Y-13237500D02*
X11693238Y-13247024D01*
X11693238Y-13247024D02*
X11655143Y-13247024D01*
X11655143Y-13247024D02*
X11636096Y-13237500D01*
X11636096Y-13237500D02*
X11626572Y-13218452D01*
X11626572Y-13218452D02*
X11626572Y-13142262D01*
X11626572Y-13142262D02*
X11636096Y-13123214D01*
X11636096Y-13123214D02*
X11655143Y-13113690D01*
X11655143Y-13113690D02*
X11693238Y-13113690D01*
X11693238Y-13113690D02*
X11712286Y-13123214D01*
X11712286Y-13123214D02*
X11721810Y-13142262D01*
X11721810Y-13142262D02*
X11721810Y-13161309D01*
X11721810Y-13161309D02*
X11626572Y-13180357D01*
X11798000Y-13237500D02*
X11817048Y-13247024D01*
X11817048Y-13247024D02*
X11855143Y-13247024D01*
X11855143Y-13247024D02*
X11874191Y-13237500D01*
X11874191Y-13237500D02*
X11883715Y-13218452D01*
X11883715Y-13218452D02*
X11883715Y-13208928D01*
X11883715Y-13208928D02*
X11874191Y-13189881D01*
X11874191Y-13189881D02*
X11855143Y-13180357D01*
X11855143Y-13180357D02*
X11826572Y-13180357D01*
X11826572Y-13180357D02*
X11807524Y-13170833D01*
X11807524Y-13170833D02*
X11798000Y-13151786D01*
X11798000Y-13151786D02*
X11798000Y-13142262D01*
X11798000Y-13142262D02*
X11807524Y-13123214D01*
X11807524Y-13123214D02*
X11826572Y-13113690D01*
X11826572Y-13113690D02*
X11855143Y-13113690D01*
X11855143Y-13113690D02*
X11874191Y-13123214D01*
X11950381Y-13323214D02*
X11959905Y-13313690D01*
X11959905Y-13313690D02*
X11978953Y-13285119D01*
X11978953Y-13285119D02*
X11988477Y-13266071D01*
X11988477Y-13266071D02*
X11998000Y-13237500D01*
X11998000Y-13237500D02*
X12007524Y-13189881D01*
X12007524Y-13189881D02*
X12007524Y-13151786D01*
X12007524Y-13151786D02*
X11998000Y-13104167D01*
X11998000Y-13104167D02*
X11988477Y-13075595D01*
X11988477Y-13075595D02*
X11978953Y-13056548D01*
X11978953Y-13056548D02*
X11959905Y-13027976D01*
X11959905Y-13027976D02*
X11950381Y-13018452D01*
D13*
X6998000Y-13418500D02*
G75*
G03*
X6998000Y-13418500I-40000J0D01*
G01*
D11*
X7283714Y-13311024D02*
X7302762Y-13311024D01*
X7302762Y-13311024D02*
X7321809Y-13320548D01*
X7321809Y-13320548D02*
X7331333Y-13330071D01*
X7331333Y-13330071D02*
X7340857Y-13349119D01*
X7340857Y-13349119D02*
X7350381Y-13387214D01*
X7350381Y-13387214D02*
X7350381Y-13434833D01*
X7350381Y-13434833D02*
X7340857Y-13472928D01*
X7340857Y-13472928D02*
X7331333Y-13491976D01*
X7331333Y-13491976D02*
X7321809Y-13501500D01*
X7321809Y-13501500D02*
X7302762Y-13511024D01*
X7302762Y-13511024D02*
X7283714Y-13511024D01*
X7283714Y-13511024D02*
X7264667Y-13501500D01*
X7264667Y-13501500D02*
X7255143Y-13491976D01*
X7255143Y-13491976D02*
X7245619Y-13472928D01*
X7245619Y-13472928D02*
X7236095Y-13434833D01*
X7236095Y-13434833D02*
X7236095Y-13387214D01*
X7236095Y-13387214D02*
X7245619Y-13349119D01*
X7245619Y-13349119D02*
X7255143Y-13330071D01*
X7255143Y-13330071D02*
X7264667Y-13320548D01*
X7264667Y-13320548D02*
X7283714Y-13311024D01*
X7436095Y-13491976D02*
X7445619Y-13501500D01*
X7445619Y-13501500D02*
X7436095Y-13511024D01*
X7436095Y-13511024D02*
X7426571Y-13501500D01*
X7426571Y-13501500D02*
X7436095Y-13491976D01*
X7436095Y-13491976D02*
X7436095Y-13511024D01*
X7559905Y-13396738D02*
X7540857Y-13387214D01*
X7540857Y-13387214D02*
X7531333Y-13377690D01*
X7531333Y-13377690D02*
X7521809Y-13358643D01*
X7521809Y-13358643D02*
X7521809Y-13349119D01*
X7521809Y-13349119D02*
X7531333Y-13330071D01*
X7531333Y-13330071D02*
X7540857Y-13320548D01*
X7540857Y-13320548D02*
X7559905Y-13311024D01*
X7559905Y-13311024D02*
X7598000Y-13311024D01*
X7598000Y-13311024D02*
X7617048Y-13320548D01*
X7617048Y-13320548D02*
X7626571Y-13330071D01*
X7626571Y-13330071D02*
X7636095Y-13349119D01*
X7636095Y-13349119D02*
X7636095Y-13358643D01*
X7636095Y-13358643D02*
X7626571Y-13377690D01*
X7626571Y-13377690D02*
X7617048Y-13387214D01*
X7617048Y-13387214D02*
X7598000Y-13396738D01*
X7598000Y-13396738D02*
X7559905Y-13396738D01*
X7559905Y-13396738D02*
X7540857Y-13406262D01*
X7540857Y-13406262D02*
X7531333Y-13415786D01*
X7531333Y-13415786D02*
X7521809Y-13434833D01*
X7521809Y-13434833D02*
X7521809Y-13472928D01*
X7521809Y-13472928D02*
X7531333Y-13491976D01*
X7531333Y-13491976D02*
X7540857Y-13501500D01*
X7540857Y-13501500D02*
X7559905Y-13511024D01*
X7559905Y-13511024D02*
X7598000Y-13511024D01*
X7598000Y-13511024D02*
X7617048Y-13501500D01*
X7617048Y-13501500D02*
X7626571Y-13491976D01*
X7626571Y-13491976D02*
X7636095Y-13472928D01*
X7636095Y-13472928D02*
X7636095Y-13434833D01*
X7636095Y-13434833D02*
X7626571Y-13415786D01*
X7626571Y-13415786D02*
X7617048Y-13406262D01*
X7617048Y-13406262D02*
X7598000Y-13396738D01*
X7759905Y-13311024D02*
X7778952Y-13311024D01*
X7778952Y-13311024D02*
X7798000Y-13320548D01*
X7798000Y-13320548D02*
X7807524Y-13330071D01*
X7807524Y-13330071D02*
X7817048Y-13349119D01*
X7817048Y-13349119D02*
X7826571Y-13387214D01*
X7826571Y-13387214D02*
X7826571Y-13434833D01*
X7826571Y-13434833D02*
X7817048Y-13472928D01*
X7817048Y-13472928D02*
X7807524Y-13491976D01*
X7807524Y-13491976D02*
X7798000Y-13501500D01*
X7798000Y-13501500D02*
X7778952Y-13511024D01*
X7778952Y-13511024D02*
X7759905Y-13511024D01*
X7759905Y-13511024D02*
X7740857Y-13501500D01*
X7740857Y-13501500D02*
X7731333Y-13491976D01*
X7731333Y-13491976D02*
X7721809Y-13472928D01*
X7721809Y-13472928D02*
X7712286Y-13434833D01*
X7712286Y-13434833D02*
X7712286Y-13387214D01*
X7712286Y-13387214D02*
X7721809Y-13349119D01*
X7721809Y-13349119D02*
X7731333Y-13330071D01*
X7731333Y-13330071D02*
X7740857Y-13320548D01*
X7740857Y-13320548D02*
X7759905Y-13311024D01*
X7950381Y-13311024D02*
X7969429Y-13311024D01*
X7969429Y-13311024D02*
X7988476Y-13320548D01*
X7988476Y-13320548D02*
X7998000Y-13330071D01*
X7998000Y-13330071D02*
X8007524Y-13349119D01*
X8007524Y-13349119D02*
X8017048Y-13387214D01*
X8017048Y-13387214D02*
X8017048Y-13434833D01*
X8017048Y-13434833D02*
X8007524Y-13472928D01*
X8007524Y-13472928D02*
X7998000Y-13491976D01*
X7998000Y-13491976D02*
X7988476Y-13501500D01*
X7988476Y-13501500D02*
X7969429Y-13511024D01*
X7969429Y-13511024D02*
X7950381Y-13511024D01*
X7950381Y-13511024D02*
X7931333Y-13501500D01*
X7931333Y-13501500D02*
X7921809Y-13491976D01*
X7921809Y-13491976D02*
X7912286Y-13472928D01*
X7912286Y-13472928D02*
X7902762Y-13434833D01*
X7902762Y-13434833D02*
X7902762Y-13387214D01*
X7902762Y-13387214D02*
X7912286Y-13349119D01*
X7912286Y-13349119D02*
X7921809Y-13330071D01*
X7921809Y-13330071D02*
X7931333Y-13320548D01*
X7931333Y-13320548D02*
X7950381Y-13311024D01*
X8102762Y-13511024D02*
X8102762Y-13377690D01*
X8102762Y-13396738D02*
X8112286Y-13387214D01*
X8112286Y-13387214D02*
X8131333Y-13377690D01*
X8131333Y-13377690D02*
X8159905Y-13377690D01*
X8159905Y-13377690D02*
X8178952Y-13387214D01*
X8178952Y-13387214D02*
X8188476Y-13406262D01*
X8188476Y-13406262D02*
X8188476Y-13511024D01*
X8188476Y-13406262D02*
X8198000Y-13387214D01*
X8198000Y-13387214D02*
X8217048Y-13377690D01*
X8217048Y-13377690D02*
X8245619Y-13377690D01*
X8245619Y-13377690D02*
X8264667Y-13387214D01*
X8264667Y-13387214D02*
X8274190Y-13406262D01*
X8274190Y-13406262D02*
X8274190Y-13511024D01*
X8369429Y-13511024D02*
X8369429Y-13377690D01*
X8369429Y-13396738D02*
X8378952Y-13387214D01*
X8378952Y-13387214D02*
X8398000Y-13377690D01*
X8398000Y-13377690D02*
X8426572Y-13377690D01*
X8426572Y-13377690D02*
X8445619Y-13387214D01*
X8445619Y-13387214D02*
X8455143Y-13406262D01*
X8455143Y-13406262D02*
X8455143Y-13511024D01*
X8455143Y-13406262D02*
X8464667Y-13387214D01*
X8464667Y-13387214D02*
X8483714Y-13377690D01*
X8483714Y-13377690D02*
X8512286Y-13377690D01*
X8512286Y-13377690D02*
X8531333Y-13387214D01*
X8531333Y-13387214D02*
X8540857Y-13406262D01*
X8540857Y-13406262D02*
X8540857Y-13511024D01*
X8931333Y-13301500D02*
X8759905Y-13558643D01*
X9188476Y-13311024D02*
X9207524Y-13311024D01*
X9207524Y-13311024D02*
X9226572Y-13320548D01*
X9226572Y-13320548D02*
X9236095Y-13330071D01*
X9236095Y-13330071D02*
X9245619Y-13349119D01*
X9245619Y-13349119D02*
X9255143Y-13387214D01*
X9255143Y-13387214D02*
X9255143Y-13434833D01*
X9255143Y-13434833D02*
X9245619Y-13472928D01*
X9245619Y-13472928D02*
X9236095Y-13491976D01*
X9236095Y-13491976D02*
X9226572Y-13501500D01*
X9226572Y-13501500D02*
X9207524Y-13511024D01*
X9207524Y-13511024D02*
X9188476Y-13511024D01*
X9188476Y-13511024D02*
X9169429Y-13501500D01*
X9169429Y-13501500D02*
X9159905Y-13491976D01*
X9159905Y-13491976D02*
X9150381Y-13472928D01*
X9150381Y-13472928D02*
X9140857Y-13434833D01*
X9140857Y-13434833D02*
X9140857Y-13387214D01*
X9140857Y-13387214D02*
X9150381Y-13349119D01*
X9150381Y-13349119D02*
X9159905Y-13330071D01*
X9159905Y-13330071D02*
X9169429Y-13320548D01*
X9169429Y-13320548D02*
X9188476Y-13311024D01*
X9340857Y-13491976D02*
X9350381Y-13501500D01*
X9350381Y-13501500D02*
X9340857Y-13511024D01*
X9340857Y-13511024D02*
X9331334Y-13501500D01*
X9331334Y-13501500D02*
X9340857Y-13491976D01*
X9340857Y-13491976D02*
X9340857Y-13511024D01*
X9474191Y-13311024D02*
X9493238Y-13311024D01*
X9493238Y-13311024D02*
X9512286Y-13320548D01*
X9512286Y-13320548D02*
X9521810Y-13330071D01*
X9521810Y-13330071D02*
X9531334Y-13349119D01*
X9531334Y-13349119D02*
X9540857Y-13387214D01*
X9540857Y-13387214D02*
X9540857Y-13434833D01*
X9540857Y-13434833D02*
X9531334Y-13472928D01*
X9531334Y-13472928D02*
X9521810Y-13491976D01*
X9521810Y-13491976D02*
X9512286Y-13501500D01*
X9512286Y-13501500D02*
X9493238Y-13511024D01*
X9493238Y-13511024D02*
X9474191Y-13511024D01*
X9474191Y-13511024D02*
X9455143Y-13501500D01*
X9455143Y-13501500D02*
X9445619Y-13491976D01*
X9445619Y-13491976D02*
X9436095Y-13472928D01*
X9436095Y-13472928D02*
X9426572Y-13434833D01*
X9426572Y-13434833D02*
X9426572Y-13387214D01*
X9426572Y-13387214D02*
X9436095Y-13349119D01*
X9436095Y-13349119D02*
X9445619Y-13330071D01*
X9445619Y-13330071D02*
X9455143Y-13320548D01*
X9455143Y-13320548D02*
X9474191Y-13311024D01*
X9607524Y-13311024D02*
X9731334Y-13311024D01*
X9731334Y-13311024D02*
X9664667Y-13387214D01*
X9664667Y-13387214D02*
X9693238Y-13387214D01*
X9693238Y-13387214D02*
X9712286Y-13396738D01*
X9712286Y-13396738D02*
X9721810Y-13406262D01*
X9721810Y-13406262D02*
X9731334Y-13425309D01*
X9731334Y-13425309D02*
X9731334Y-13472928D01*
X9731334Y-13472928D02*
X9721810Y-13491976D01*
X9721810Y-13491976D02*
X9712286Y-13501500D01*
X9712286Y-13501500D02*
X9693238Y-13511024D01*
X9693238Y-13511024D02*
X9636095Y-13511024D01*
X9636095Y-13511024D02*
X9617048Y-13501500D01*
X9617048Y-13501500D02*
X9607524Y-13491976D01*
X9921810Y-13511024D02*
X9807524Y-13511024D01*
X9864667Y-13511024D02*
X9864667Y-13311024D01*
X9864667Y-13311024D02*
X9845619Y-13339595D01*
X9845619Y-13339595D02*
X9826572Y-13358643D01*
X9826572Y-13358643D02*
X9807524Y-13368167D01*
X10102762Y-13311024D02*
X10007524Y-13311024D01*
X10007524Y-13311024D02*
X9998000Y-13406262D01*
X9998000Y-13406262D02*
X10007524Y-13396738D01*
X10007524Y-13396738D02*
X10026572Y-13387214D01*
X10026572Y-13387214D02*
X10074191Y-13387214D01*
X10074191Y-13387214D02*
X10093238Y-13396738D01*
X10093238Y-13396738D02*
X10102762Y-13406262D01*
X10102762Y-13406262D02*
X10112286Y-13425309D01*
X10112286Y-13425309D02*
X10112286Y-13472928D01*
X10112286Y-13472928D02*
X10102762Y-13491976D01*
X10102762Y-13491976D02*
X10093238Y-13501500D01*
X10093238Y-13501500D02*
X10074191Y-13511024D01*
X10074191Y-13511024D02*
X10026572Y-13511024D01*
X10026572Y-13511024D02*
X10007524Y-13501500D01*
X10007524Y-13501500D02*
X9998000Y-13491976D01*
X10188476Y-13311024D02*
X10188476Y-13349119D01*
X10264667Y-13311024D02*
X10264667Y-13349119D01*
X10559905Y-13587214D02*
X10550381Y-13577690D01*
X10550381Y-13577690D02*
X10531334Y-13549119D01*
X10531334Y-13549119D02*
X10521810Y-13530071D01*
X10521810Y-13530071D02*
X10512286Y-13501500D01*
X10512286Y-13501500D02*
X10502762Y-13453881D01*
X10502762Y-13453881D02*
X10502762Y-13415786D01*
X10502762Y-13415786D02*
X10512286Y-13368167D01*
X10512286Y-13368167D02*
X10521810Y-13339595D01*
X10521810Y-13339595D02*
X10531334Y-13320548D01*
X10531334Y-13320548D02*
X10550381Y-13291976D01*
X10550381Y-13291976D02*
X10559905Y-13282452D01*
X10617048Y-13311024D02*
X10740857Y-13311024D01*
X10740857Y-13311024D02*
X10674191Y-13387214D01*
X10674191Y-13387214D02*
X10702762Y-13387214D01*
X10702762Y-13387214D02*
X10721810Y-13396738D01*
X10721810Y-13396738D02*
X10731334Y-13406262D01*
X10731334Y-13406262D02*
X10740857Y-13425309D01*
X10740857Y-13425309D02*
X10740857Y-13472928D01*
X10740857Y-13472928D02*
X10731334Y-13491976D01*
X10731334Y-13491976D02*
X10721810Y-13501500D01*
X10721810Y-13501500D02*
X10702762Y-13511024D01*
X10702762Y-13511024D02*
X10645619Y-13511024D01*
X10645619Y-13511024D02*
X10626572Y-13501500D01*
X10626572Y-13501500D02*
X10617048Y-13491976D01*
X10855143Y-13396738D02*
X10836096Y-13387214D01*
X10836096Y-13387214D02*
X10826572Y-13377690D01*
X10826572Y-13377690D02*
X10817048Y-13358643D01*
X10817048Y-13358643D02*
X10817048Y-13349119D01*
X10817048Y-13349119D02*
X10826572Y-13330071D01*
X10826572Y-13330071D02*
X10836096Y-13320548D01*
X10836096Y-13320548D02*
X10855143Y-13311024D01*
X10855143Y-13311024D02*
X10893238Y-13311024D01*
X10893238Y-13311024D02*
X10912286Y-13320548D01*
X10912286Y-13320548D02*
X10921810Y-13330071D01*
X10921810Y-13330071D02*
X10931334Y-13349119D01*
X10931334Y-13349119D02*
X10931334Y-13358643D01*
X10931334Y-13358643D02*
X10921810Y-13377690D01*
X10921810Y-13377690D02*
X10912286Y-13387214D01*
X10912286Y-13387214D02*
X10893238Y-13396738D01*
X10893238Y-13396738D02*
X10855143Y-13396738D01*
X10855143Y-13396738D02*
X10836096Y-13406262D01*
X10836096Y-13406262D02*
X10826572Y-13415786D01*
X10826572Y-13415786D02*
X10817048Y-13434833D01*
X10817048Y-13434833D02*
X10817048Y-13472928D01*
X10817048Y-13472928D02*
X10826572Y-13491976D01*
X10826572Y-13491976D02*
X10836096Y-13501500D01*
X10836096Y-13501500D02*
X10855143Y-13511024D01*
X10855143Y-13511024D02*
X10893238Y-13511024D01*
X10893238Y-13511024D02*
X10912286Y-13501500D01*
X10912286Y-13501500D02*
X10921810Y-13491976D01*
X10921810Y-13491976D02*
X10931334Y-13472928D01*
X10931334Y-13472928D02*
X10931334Y-13434833D01*
X10931334Y-13434833D02*
X10921810Y-13415786D01*
X10921810Y-13415786D02*
X10912286Y-13406262D01*
X10912286Y-13406262D02*
X10893238Y-13396738D01*
X11169429Y-13511024D02*
X11169429Y-13311024D01*
X11255143Y-13511024D02*
X11255143Y-13406262D01*
X11255143Y-13406262D02*
X11245619Y-13387214D01*
X11245619Y-13387214D02*
X11226572Y-13377690D01*
X11226572Y-13377690D02*
X11198000Y-13377690D01*
X11198000Y-13377690D02*
X11178953Y-13387214D01*
X11178953Y-13387214D02*
X11169429Y-13396738D01*
X11378953Y-13511024D02*
X11359905Y-13501500D01*
X11359905Y-13501500D02*
X11350381Y-13491976D01*
X11350381Y-13491976D02*
X11340857Y-13472928D01*
X11340857Y-13472928D02*
X11340857Y-13415786D01*
X11340857Y-13415786D02*
X11350381Y-13396738D01*
X11350381Y-13396738D02*
X11359905Y-13387214D01*
X11359905Y-13387214D02*
X11378953Y-13377690D01*
X11378953Y-13377690D02*
X11407524Y-13377690D01*
X11407524Y-13377690D02*
X11426572Y-13387214D01*
X11426572Y-13387214D02*
X11436096Y-13396738D01*
X11436096Y-13396738D02*
X11445619Y-13415786D01*
X11445619Y-13415786D02*
X11445619Y-13472928D01*
X11445619Y-13472928D02*
X11436096Y-13491976D01*
X11436096Y-13491976D02*
X11426572Y-13501500D01*
X11426572Y-13501500D02*
X11407524Y-13511024D01*
X11407524Y-13511024D02*
X11378953Y-13511024D01*
X11559905Y-13511024D02*
X11540857Y-13501500D01*
X11540857Y-13501500D02*
X11531334Y-13482452D01*
X11531334Y-13482452D02*
X11531334Y-13311024D01*
X11712286Y-13501500D02*
X11693238Y-13511024D01*
X11693238Y-13511024D02*
X11655143Y-13511024D01*
X11655143Y-13511024D02*
X11636096Y-13501500D01*
X11636096Y-13501500D02*
X11626572Y-13482452D01*
X11626572Y-13482452D02*
X11626572Y-13406262D01*
X11626572Y-13406262D02*
X11636096Y-13387214D01*
X11636096Y-13387214D02*
X11655143Y-13377690D01*
X11655143Y-13377690D02*
X11693238Y-13377690D01*
X11693238Y-13377690D02*
X11712286Y-13387214D01*
X11712286Y-13387214D02*
X11721810Y-13406262D01*
X11721810Y-13406262D02*
X11721810Y-13425309D01*
X11721810Y-13425309D02*
X11626572Y-13444357D01*
X11798000Y-13501500D02*
X11817048Y-13511024D01*
X11817048Y-13511024D02*
X11855143Y-13511024D01*
X11855143Y-13511024D02*
X11874191Y-13501500D01*
X11874191Y-13501500D02*
X11883715Y-13482452D01*
X11883715Y-13482452D02*
X11883715Y-13472928D01*
X11883715Y-13472928D02*
X11874191Y-13453881D01*
X11874191Y-13453881D02*
X11855143Y-13444357D01*
X11855143Y-13444357D02*
X11826572Y-13444357D01*
X11826572Y-13444357D02*
X11807524Y-13434833D01*
X11807524Y-13434833D02*
X11798000Y-13415786D01*
X11798000Y-13415786D02*
X11798000Y-13406262D01*
X11798000Y-13406262D02*
X11807524Y-13387214D01*
X11807524Y-13387214D02*
X11826572Y-13377690D01*
X11826572Y-13377690D02*
X11855143Y-13377690D01*
X11855143Y-13377690D02*
X11874191Y-13387214D01*
X11950381Y-13587214D02*
X11959905Y-13577690D01*
X11959905Y-13577690D02*
X11978953Y-13549119D01*
X11978953Y-13549119D02*
X11988477Y-13530071D01*
X11988477Y-13530071D02*
X11998000Y-13501500D01*
X11998000Y-13501500D02*
X12007524Y-13453881D01*
X12007524Y-13453881D02*
X12007524Y-13415786D01*
X12007524Y-13415786D02*
X11998000Y-13368167D01*
X11998000Y-13368167D02*
X11988477Y-13339595D01*
X11988477Y-13339595D02*
X11978953Y-13320548D01*
X11978953Y-13320548D02*
X11959905Y-13291976D01*
X11959905Y-13291976D02*
X11950381Y-13282452D01*
D14*
X6953000Y-13637500D02*
X6953000Y-13727500D01*
X6908000Y-13682500D02*
X6998000Y-13682500D01*
D11*
X7283714Y-13575024D02*
X7302762Y-13575024D01*
X7302762Y-13575024D02*
X7321809Y-13584548D01*
X7321809Y-13584548D02*
X7331333Y-13594071D01*
X7331333Y-13594071D02*
X7340857Y-13613119D01*
X7340857Y-13613119D02*
X7350381Y-13651214D01*
X7350381Y-13651214D02*
X7350381Y-13698833D01*
X7350381Y-13698833D02*
X7340857Y-13736928D01*
X7340857Y-13736928D02*
X7331333Y-13755976D01*
X7331333Y-13755976D02*
X7321809Y-13765500D01*
X7321809Y-13765500D02*
X7302762Y-13775024D01*
X7302762Y-13775024D02*
X7283714Y-13775024D01*
X7283714Y-13775024D02*
X7264667Y-13765500D01*
X7264667Y-13765500D02*
X7255143Y-13755976D01*
X7255143Y-13755976D02*
X7245619Y-13736928D01*
X7245619Y-13736928D02*
X7236095Y-13698833D01*
X7236095Y-13698833D02*
X7236095Y-13651214D01*
X7236095Y-13651214D02*
X7245619Y-13613119D01*
X7245619Y-13613119D02*
X7255143Y-13594071D01*
X7255143Y-13594071D02*
X7264667Y-13584548D01*
X7264667Y-13584548D02*
X7283714Y-13575024D01*
X7436095Y-13755976D02*
X7445619Y-13765500D01*
X7445619Y-13765500D02*
X7436095Y-13775024D01*
X7436095Y-13775024D02*
X7426571Y-13765500D01*
X7426571Y-13765500D02*
X7436095Y-13755976D01*
X7436095Y-13755976D02*
X7436095Y-13775024D01*
X7540857Y-13775024D02*
X7578952Y-13775024D01*
X7578952Y-13775024D02*
X7598000Y-13765500D01*
X7598000Y-13765500D02*
X7607524Y-13755976D01*
X7607524Y-13755976D02*
X7626571Y-13727405D01*
X7626571Y-13727405D02*
X7636095Y-13689309D01*
X7636095Y-13689309D02*
X7636095Y-13613119D01*
X7636095Y-13613119D02*
X7626571Y-13594071D01*
X7626571Y-13594071D02*
X7617048Y-13584548D01*
X7617048Y-13584548D02*
X7598000Y-13575024D01*
X7598000Y-13575024D02*
X7559905Y-13575024D01*
X7559905Y-13575024D02*
X7540857Y-13584548D01*
X7540857Y-13584548D02*
X7531333Y-13594071D01*
X7531333Y-13594071D02*
X7521809Y-13613119D01*
X7521809Y-13613119D02*
X7521809Y-13660738D01*
X7521809Y-13660738D02*
X7531333Y-13679786D01*
X7531333Y-13679786D02*
X7540857Y-13689309D01*
X7540857Y-13689309D02*
X7559905Y-13698833D01*
X7559905Y-13698833D02*
X7598000Y-13698833D01*
X7598000Y-13698833D02*
X7617048Y-13689309D01*
X7617048Y-13689309D02*
X7626571Y-13679786D01*
X7626571Y-13679786D02*
X7636095Y-13660738D01*
X7759905Y-13575024D02*
X7778952Y-13575024D01*
X7778952Y-13575024D02*
X7798000Y-13584548D01*
X7798000Y-13584548D02*
X7807524Y-13594071D01*
X7807524Y-13594071D02*
X7817048Y-13613119D01*
X7817048Y-13613119D02*
X7826571Y-13651214D01*
X7826571Y-13651214D02*
X7826571Y-13698833D01*
X7826571Y-13698833D02*
X7817048Y-13736928D01*
X7817048Y-13736928D02*
X7807524Y-13755976D01*
X7807524Y-13755976D02*
X7798000Y-13765500D01*
X7798000Y-13765500D02*
X7778952Y-13775024D01*
X7778952Y-13775024D02*
X7759905Y-13775024D01*
X7759905Y-13775024D02*
X7740857Y-13765500D01*
X7740857Y-13765500D02*
X7731333Y-13755976D01*
X7731333Y-13755976D02*
X7721809Y-13736928D01*
X7721809Y-13736928D02*
X7712286Y-13698833D01*
X7712286Y-13698833D02*
X7712286Y-13651214D01*
X7712286Y-13651214D02*
X7721809Y-13613119D01*
X7721809Y-13613119D02*
X7731333Y-13594071D01*
X7731333Y-13594071D02*
X7740857Y-13584548D01*
X7740857Y-13584548D02*
X7759905Y-13575024D01*
X7950381Y-13575024D02*
X7969429Y-13575024D01*
X7969429Y-13575024D02*
X7988476Y-13584548D01*
X7988476Y-13584548D02*
X7998000Y-13594071D01*
X7998000Y-13594071D02*
X8007524Y-13613119D01*
X8007524Y-13613119D02*
X8017048Y-13651214D01*
X8017048Y-13651214D02*
X8017048Y-13698833D01*
X8017048Y-13698833D02*
X8007524Y-13736928D01*
X8007524Y-13736928D02*
X7998000Y-13755976D01*
X7998000Y-13755976D02*
X7988476Y-13765500D01*
X7988476Y-13765500D02*
X7969429Y-13775024D01*
X7969429Y-13775024D02*
X7950381Y-13775024D01*
X7950381Y-13775024D02*
X7931333Y-13765500D01*
X7931333Y-13765500D02*
X7921809Y-13755976D01*
X7921809Y-13755976D02*
X7912286Y-13736928D01*
X7912286Y-13736928D02*
X7902762Y-13698833D01*
X7902762Y-13698833D02*
X7902762Y-13651214D01*
X7902762Y-13651214D02*
X7912286Y-13613119D01*
X7912286Y-13613119D02*
X7921809Y-13594071D01*
X7921809Y-13594071D02*
X7931333Y-13584548D01*
X7931333Y-13584548D02*
X7950381Y-13575024D01*
X8102762Y-13775024D02*
X8102762Y-13641690D01*
X8102762Y-13660738D02*
X8112286Y-13651214D01*
X8112286Y-13651214D02*
X8131333Y-13641690D01*
X8131333Y-13641690D02*
X8159905Y-13641690D01*
X8159905Y-13641690D02*
X8178952Y-13651214D01*
X8178952Y-13651214D02*
X8188476Y-13670262D01*
X8188476Y-13670262D02*
X8188476Y-13775024D01*
X8188476Y-13670262D02*
X8198000Y-13651214D01*
X8198000Y-13651214D02*
X8217048Y-13641690D01*
X8217048Y-13641690D02*
X8245619Y-13641690D01*
X8245619Y-13641690D02*
X8264667Y-13651214D01*
X8264667Y-13651214D02*
X8274190Y-13670262D01*
X8274190Y-13670262D02*
X8274190Y-13775024D01*
X8369429Y-13775024D02*
X8369429Y-13641690D01*
X8369429Y-13660738D02*
X8378952Y-13651214D01*
X8378952Y-13651214D02*
X8398000Y-13641690D01*
X8398000Y-13641690D02*
X8426572Y-13641690D01*
X8426572Y-13641690D02*
X8445619Y-13651214D01*
X8445619Y-13651214D02*
X8455143Y-13670262D01*
X8455143Y-13670262D02*
X8455143Y-13775024D01*
X8455143Y-13670262D02*
X8464667Y-13651214D01*
X8464667Y-13651214D02*
X8483714Y-13641690D01*
X8483714Y-13641690D02*
X8512286Y-13641690D01*
X8512286Y-13641690D02*
X8531333Y-13651214D01*
X8531333Y-13651214D02*
X8540857Y-13670262D01*
X8540857Y-13670262D02*
X8540857Y-13775024D01*
X8931333Y-13565500D02*
X8759905Y-13822643D01*
X9188476Y-13575024D02*
X9207524Y-13575024D01*
X9207524Y-13575024D02*
X9226572Y-13584548D01*
X9226572Y-13584548D02*
X9236095Y-13594071D01*
X9236095Y-13594071D02*
X9245619Y-13613119D01*
X9245619Y-13613119D02*
X9255143Y-13651214D01*
X9255143Y-13651214D02*
X9255143Y-13698833D01*
X9255143Y-13698833D02*
X9245619Y-13736928D01*
X9245619Y-13736928D02*
X9236095Y-13755976D01*
X9236095Y-13755976D02*
X9226572Y-13765500D01*
X9226572Y-13765500D02*
X9207524Y-13775024D01*
X9207524Y-13775024D02*
X9188476Y-13775024D01*
X9188476Y-13775024D02*
X9169429Y-13765500D01*
X9169429Y-13765500D02*
X9159905Y-13755976D01*
X9159905Y-13755976D02*
X9150381Y-13736928D01*
X9150381Y-13736928D02*
X9140857Y-13698833D01*
X9140857Y-13698833D02*
X9140857Y-13651214D01*
X9140857Y-13651214D02*
X9150381Y-13613119D01*
X9150381Y-13613119D02*
X9159905Y-13594071D01*
X9159905Y-13594071D02*
X9169429Y-13584548D01*
X9169429Y-13584548D02*
X9188476Y-13575024D01*
X9340857Y-13755976D02*
X9350381Y-13765500D01*
X9350381Y-13765500D02*
X9340857Y-13775024D01*
X9340857Y-13775024D02*
X9331334Y-13765500D01*
X9331334Y-13765500D02*
X9340857Y-13755976D01*
X9340857Y-13755976D02*
X9340857Y-13775024D01*
X9474191Y-13575024D02*
X9493238Y-13575024D01*
X9493238Y-13575024D02*
X9512286Y-13584548D01*
X9512286Y-13584548D02*
X9521810Y-13594071D01*
X9521810Y-13594071D02*
X9531334Y-13613119D01*
X9531334Y-13613119D02*
X9540857Y-13651214D01*
X9540857Y-13651214D02*
X9540857Y-13698833D01*
X9540857Y-13698833D02*
X9531334Y-13736928D01*
X9531334Y-13736928D02*
X9521810Y-13755976D01*
X9521810Y-13755976D02*
X9512286Y-13765500D01*
X9512286Y-13765500D02*
X9493238Y-13775024D01*
X9493238Y-13775024D02*
X9474191Y-13775024D01*
X9474191Y-13775024D02*
X9455143Y-13765500D01*
X9455143Y-13765500D02*
X9445619Y-13755976D01*
X9445619Y-13755976D02*
X9436095Y-13736928D01*
X9436095Y-13736928D02*
X9426572Y-13698833D01*
X9426572Y-13698833D02*
X9426572Y-13651214D01*
X9426572Y-13651214D02*
X9436095Y-13613119D01*
X9436095Y-13613119D02*
X9445619Y-13594071D01*
X9445619Y-13594071D02*
X9455143Y-13584548D01*
X9455143Y-13584548D02*
X9474191Y-13575024D01*
X9607524Y-13575024D02*
X9731334Y-13575024D01*
X9731334Y-13575024D02*
X9664667Y-13651214D01*
X9664667Y-13651214D02*
X9693238Y-13651214D01*
X9693238Y-13651214D02*
X9712286Y-13660738D01*
X9712286Y-13660738D02*
X9721810Y-13670262D01*
X9721810Y-13670262D02*
X9731334Y-13689309D01*
X9731334Y-13689309D02*
X9731334Y-13736928D01*
X9731334Y-13736928D02*
X9721810Y-13755976D01*
X9721810Y-13755976D02*
X9712286Y-13765500D01*
X9712286Y-13765500D02*
X9693238Y-13775024D01*
X9693238Y-13775024D02*
X9636095Y-13775024D01*
X9636095Y-13775024D02*
X9617048Y-13765500D01*
X9617048Y-13765500D02*
X9607524Y-13755976D01*
X9912286Y-13575024D02*
X9817048Y-13575024D01*
X9817048Y-13575024D02*
X9807524Y-13670262D01*
X9807524Y-13670262D02*
X9817048Y-13660738D01*
X9817048Y-13660738D02*
X9836095Y-13651214D01*
X9836095Y-13651214D02*
X9883715Y-13651214D01*
X9883715Y-13651214D02*
X9902762Y-13660738D01*
X9902762Y-13660738D02*
X9912286Y-13670262D01*
X9912286Y-13670262D02*
X9921810Y-13689309D01*
X9921810Y-13689309D02*
X9921810Y-13736928D01*
X9921810Y-13736928D02*
X9912286Y-13755976D01*
X9912286Y-13755976D02*
X9902762Y-13765500D01*
X9902762Y-13765500D02*
X9883715Y-13775024D01*
X9883715Y-13775024D02*
X9836095Y-13775024D01*
X9836095Y-13775024D02*
X9817048Y-13765500D01*
X9817048Y-13765500D02*
X9807524Y-13755976D01*
X10093238Y-13641690D02*
X10093238Y-13775024D01*
X10045619Y-13565500D02*
X9998000Y-13708357D01*
X9998000Y-13708357D02*
X10121810Y-13708357D01*
X10188476Y-13575024D02*
X10188476Y-13613119D01*
X10264667Y-13575024D02*
X10264667Y-13613119D01*
X10559905Y-13851214D02*
X10550381Y-13841690D01*
X10550381Y-13841690D02*
X10531334Y-13813119D01*
X10531334Y-13813119D02*
X10521810Y-13794071D01*
X10521810Y-13794071D02*
X10512286Y-13765500D01*
X10512286Y-13765500D02*
X10502762Y-13717881D01*
X10502762Y-13717881D02*
X10502762Y-13679786D01*
X10502762Y-13679786D02*
X10512286Y-13632167D01*
X10512286Y-13632167D02*
X10521810Y-13603595D01*
X10521810Y-13603595D02*
X10531334Y-13584548D01*
X10531334Y-13584548D02*
X10550381Y-13555976D01*
X10550381Y-13555976D02*
X10559905Y-13546452D01*
X10626572Y-13594071D02*
X10636096Y-13584548D01*
X10636096Y-13584548D02*
X10655143Y-13575024D01*
X10655143Y-13575024D02*
X10702762Y-13575024D01*
X10702762Y-13575024D02*
X10721810Y-13584548D01*
X10721810Y-13584548D02*
X10731334Y-13594071D01*
X10731334Y-13594071D02*
X10740857Y-13613119D01*
X10740857Y-13613119D02*
X10740857Y-13632167D01*
X10740857Y-13632167D02*
X10731334Y-13660738D01*
X10731334Y-13660738D02*
X10617048Y-13775024D01*
X10617048Y-13775024D02*
X10740857Y-13775024D01*
X10978953Y-13775024D02*
X10978953Y-13575024D01*
X11064667Y-13775024D02*
X11064667Y-13670262D01*
X11064667Y-13670262D02*
X11055143Y-13651214D01*
X11055143Y-13651214D02*
X11036096Y-13641690D01*
X11036096Y-13641690D02*
X11007524Y-13641690D01*
X11007524Y-13641690D02*
X10988477Y-13651214D01*
X10988477Y-13651214D02*
X10978953Y-13660738D01*
X11188476Y-13775024D02*
X11169429Y-13765500D01*
X11169429Y-13765500D02*
X11159905Y-13755976D01*
X11159905Y-13755976D02*
X11150381Y-13736928D01*
X11150381Y-13736928D02*
X11150381Y-13679786D01*
X11150381Y-13679786D02*
X11159905Y-13660738D01*
X11159905Y-13660738D02*
X11169429Y-13651214D01*
X11169429Y-13651214D02*
X11188476Y-13641690D01*
X11188476Y-13641690D02*
X11217048Y-13641690D01*
X11217048Y-13641690D02*
X11236096Y-13651214D01*
X11236096Y-13651214D02*
X11245619Y-13660738D01*
X11245619Y-13660738D02*
X11255143Y-13679786D01*
X11255143Y-13679786D02*
X11255143Y-13736928D01*
X11255143Y-13736928D02*
X11245619Y-13755976D01*
X11245619Y-13755976D02*
X11236096Y-13765500D01*
X11236096Y-13765500D02*
X11217048Y-13775024D01*
X11217048Y-13775024D02*
X11188476Y-13775024D01*
X11369429Y-13775024D02*
X11350381Y-13765500D01*
X11350381Y-13765500D02*
X11340857Y-13746452D01*
X11340857Y-13746452D02*
X11340857Y-13575024D01*
X11521810Y-13765500D02*
X11502762Y-13775024D01*
X11502762Y-13775024D02*
X11464667Y-13775024D01*
X11464667Y-13775024D02*
X11445619Y-13765500D01*
X11445619Y-13765500D02*
X11436096Y-13746452D01*
X11436096Y-13746452D02*
X11436096Y-13670262D01*
X11436096Y-13670262D02*
X11445619Y-13651214D01*
X11445619Y-13651214D02*
X11464667Y-13641690D01*
X11464667Y-13641690D02*
X11502762Y-13641690D01*
X11502762Y-13641690D02*
X11521810Y-13651214D01*
X11521810Y-13651214D02*
X11531334Y-13670262D01*
X11531334Y-13670262D02*
X11531334Y-13689309D01*
X11531334Y-13689309D02*
X11436096Y-13708357D01*
X11607524Y-13765500D02*
X11626572Y-13775024D01*
X11626572Y-13775024D02*
X11664667Y-13775024D01*
X11664667Y-13775024D02*
X11683715Y-13765500D01*
X11683715Y-13765500D02*
X11693238Y-13746452D01*
X11693238Y-13746452D02*
X11693238Y-13736928D01*
X11693238Y-13736928D02*
X11683715Y-13717881D01*
X11683715Y-13717881D02*
X11664667Y-13708357D01*
X11664667Y-13708357D02*
X11636096Y-13708357D01*
X11636096Y-13708357D02*
X11617048Y-13698833D01*
X11617048Y-13698833D02*
X11607524Y-13679786D01*
X11607524Y-13679786D02*
X11607524Y-13670262D01*
X11607524Y-13670262D02*
X11617048Y-13651214D01*
X11617048Y-13651214D02*
X11636096Y-13641690D01*
X11636096Y-13641690D02*
X11664667Y-13641690D01*
X11664667Y-13641690D02*
X11683715Y-13651214D01*
X11759905Y-13851214D02*
X11769429Y-13841690D01*
X11769429Y-13841690D02*
X11788477Y-13813119D01*
X11788477Y-13813119D02*
X11798000Y-13794071D01*
X11798000Y-13794071D02*
X11807524Y-13765500D01*
X11807524Y-13765500D02*
X11817048Y-13717881D01*
X11817048Y-13717881D02*
X11817048Y-13679786D01*
X11817048Y-13679786D02*
X11807524Y-13632167D01*
X11807524Y-13632167D02*
X11798000Y-13603595D01*
X11798000Y-13603595D02*
X11788477Y-13584548D01*
X11788477Y-13584548D02*
X11769429Y-13555976D01*
X11769429Y-13555976D02*
X11759905Y-13546452D01*
D10*
X6983356Y-13981856D02*
X6983356Y-13911144D01*
X6912644Y-13911144D01*
X6912644Y-13981856D01*
X6983356Y-13981856D01*
D11*
X7350381Y-14039024D02*
X7236095Y-14039024D01*
X7293238Y-14039024D02*
X7293238Y-13839024D01*
X7293238Y-13839024D02*
X7274190Y-13867595D01*
X7274190Y-13867595D02*
X7255143Y-13886643D01*
X7255143Y-13886643D02*
X7236095Y-13896167D01*
X7436095Y-14019976D02*
X7445619Y-14029500D01*
X7445619Y-14029500D02*
X7436095Y-14039024D01*
X7436095Y-14039024D02*
X7426571Y-14029500D01*
X7426571Y-14029500D02*
X7436095Y-14019976D01*
X7436095Y-14019976D02*
X7436095Y-14039024D01*
X7569428Y-13839024D02*
X7588476Y-13839024D01*
X7588476Y-13839024D02*
X7607524Y-13848548D01*
X7607524Y-13848548D02*
X7617048Y-13858071D01*
X7617048Y-13858071D02*
X7626571Y-13877119D01*
X7626571Y-13877119D02*
X7636095Y-13915214D01*
X7636095Y-13915214D02*
X7636095Y-13962833D01*
X7636095Y-13962833D02*
X7626571Y-14000928D01*
X7626571Y-14000928D02*
X7617048Y-14019976D01*
X7617048Y-14019976D02*
X7607524Y-14029500D01*
X7607524Y-14029500D02*
X7588476Y-14039024D01*
X7588476Y-14039024D02*
X7569428Y-14039024D01*
X7569428Y-14039024D02*
X7550381Y-14029500D01*
X7550381Y-14029500D02*
X7540857Y-14019976D01*
X7540857Y-14019976D02*
X7531333Y-14000928D01*
X7531333Y-14000928D02*
X7521809Y-13962833D01*
X7521809Y-13962833D02*
X7521809Y-13915214D01*
X7521809Y-13915214D02*
X7531333Y-13877119D01*
X7531333Y-13877119D02*
X7540857Y-13858071D01*
X7540857Y-13858071D02*
X7550381Y-13848548D01*
X7550381Y-13848548D02*
X7569428Y-13839024D01*
X7759905Y-13839024D02*
X7778952Y-13839024D01*
X7778952Y-13839024D02*
X7798000Y-13848548D01*
X7798000Y-13848548D02*
X7807524Y-13858071D01*
X7807524Y-13858071D02*
X7817048Y-13877119D01*
X7817048Y-13877119D02*
X7826571Y-13915214D01*
X7826571Y-13915214D02*
X7826571Y-13962833D01*
X7826571Y-13962833D02*
X7817048Y-14000928D01*
X7817048Y-14000928D02*
X7807524Y-14019976D01*
X7807524Y-14019976D02*
X7798000Y-14029500D01*
X7798000Y-14029500D02*
X7778952Y-14039024D01*
X7778952Y-14039024D02*
X7759905Y-14039024D01*
X7759905Y-14039024D02*
X7740857Y-14029500D01*
X7740857Y-14029500D02*
X7731333Y-14019976D01*
X7731333Y-14019976D02*
X7721809Y-14000928D01*
X7721809Y-14000928D02*
X7712286Y-13962833D01*
X7712286Y-13962833D02*
X7712286Y-13915214D01*
X7712286Y-13915214D02*
X7721809Y-13877119D01*
X7721809Y-13877119D02*
X7731333Y-13858071D01*
X7731333Y-13858071D02*
X7740857Y-13848548D01*
X7740857Y-13848548D02*
X7759905Y-13839024D01*
X7950381Y-13839024D02*
X7969429Y-13839024D01*
X7969429Y-13839024D02*
X7988476Y-13848548D01*
X7988476Y-13848548D02*
X7998000Y-13858071D01*
X7998000Y-13858071D02*
X8007524Y-13877119D01*
X8007524Y-13877119D02*
X8017048Y-13915214D01*
X8017048Y-13915214D02*
X8017048Y-13962833D01*
X8017048Y-13962833D02*
X8007524Y-14000928D01*
X8007524Y-14000928D02*
X7998000Y-14019976D01*
X7998000Y-14019976D02*
X7988476Y-14029500D01*
X7988476Y-14029500D02*
X7969429Y-14039024D01*
X7969429Y-14039024D02*
X7950381Y-14039024D01*
X7950381Y-14039024D02*
X7931333Y-14029500D01*
X7931333Y-14029500D02*
X7921809Y-14019976D01*
X7921809Y-14019976D02*
X7912286Y-14000928D01*
X7912286Y-14000928D02*
X7902762Y-13962833D01*
X7902762Y-13962833D02*
X7902762Y-13915214D01*
X7902762Y-13915214D02*
X7912286Y-13877119D01*
X7912286Y-13877119D02*
X7921809Y-13858071D01*
X7921809Y-13858071D02*
X7931333Y-13848548D01*
X7931333Y-13848548D02*
X7950381Y-13839024D01*
X8102762Y-14039024D02*
X8102762Y-13905690D01*
X8102762Y-13924738D02*
X8112286Y-13915214D01*
X8112286Y-13915214D02*
X8131333Y-13905690D01*
X8131333Y-13905690D02*
X8159905Y-13905690D01*
X8159905Y-13905690D02*
X8178952Y-13915214D01*
X8178952Y-13915214D02*
X8188476Y-13934262D01*
X8188476Y-13934262D02*
X8188476Y-14039024D01*
X8188476Y-13934262D02*
X8198000Y-13915214D01*
X8198000Y-13915214D02*
X8217048Y-13905690D01*
X8217048Y-13905690D02*
X8245619Y-13905690D01*
X8245619Y-13905690D02*
X8264667Y-13915214D01*
X8264667Y-13915214D02*
X8274190Y-13934262D01*
X8274190Y-13934262D02*
X8274190Y-14039024D01*
X8369429Y-14039024D02*
X8369429Y-13905690D01*
X8369429Y-13924738D02*
X8378952Y-13915214D01*
X8378952Y-13915214D02*
X8398000Y-13905690D01*
X8398000Y-13905690D02*
X8426572Y-13905690D01*
X8426572Y-13905690D02*
X8445619Y-13915214D01*
X8445619Y-13915214D02*
X8455143Y-13934262D01*
X8455143Y-13934262D02*
X8455143Y-14039024D01*
X8455143Y-13934262D02*
X8464667Y-13915214D01*
X8464667Y-13915214D02*
X8483714Y-13905690D01*
X8483714Y-13905690D02*
X8512286Y-13905690D01*
X8512286Y-13905690D02*
X8531333Y-13915214D01*
X8531333Y-13915214D02*
X8540857Y-13934262D01*
X8540857Y-13934262D02*
X8540857Y-14039024D01*
X8931333Y-13829500D02*
X8759905Y-14086643D01*
X9188476Y-13839024D02*
X9207524Y-13839024D01*
X9207524Y-13839024D02*
X9226572Y-13848548D01*
X9226572Y-13848548D02*
X9236095Y-13858071D01*
X9236095Y-13858071D02*
X9245619Y-13877119D01*
X9245619Y-13877119D02*
X9255143Y-13915214D01*
X9255143Y-13915214D02*
X9255143Y-13962833D01*
X9255143Y-13962833D02*
X9245619Y-14000928D01*
X9245619Y-14000928D02*
X9236095Y-14019976D01*
X9236095Y-14019976D02*
X9226572Y-14029500D01*
X9226572Y-14029500D02*
X9207524Y-14039024D01*
X9207524Y-14039024D02*
X9188476Y-14039024D01*
X9188476Y-14039024D02*
X9169429Y-14029500D01*
X9169429Y-14029500D02*
X9159905Y-14019976D01*
X9159905Y-14019976D02*
X9150381Y-14000928D01*
X9150381Y-14000928D02*
X9140857Y-13962833D01*
X9140857Y-13962833D02*
X9140857Y-13915214D01*
X9140857Y-13915214D02*
X9150381Y-13877119D01*
X9150381Y-13877119D02*
X9159905Y-13858071D01*
X9159905Y-13858071D02*
X9169429Y-13848548D01*
X9169429Y-13848548D02*
X9188476Y-13839024D01*
X9340857Y-14019976D02*
X9350381Y-14029500D01*
X9350381Y-14029500D02*
X9340857Y-14039024D01*
X9340857Y-14039024D02*
X9331334Y-14029500D01*
X9331334Y-14029500D02*
X9340857Y-14019976D01*
X9340857Y-14019976D02*
X9340857Y-14039024D01*
X9474191Y-13839024D02*
X9493238Y-13839024D01*
X9493238Y-13839024D02*
X9512286Y-13848548D01*
X9512286Y-13848548D02*
X9521810Y-13858071D01*
X9521810Y-13858071D02*
X9531334Y-13877119D01*
X9531334Y-13877119D02*
X9540857Y-13915214D01*
X9540857Y-13915214D02*
X9540857Y-13962833D01*
X9540857Y-13962833D02*
X9531334Y-14000928D01*
X9531334Y-14000928D02*
X9521810Y-14019976D01*
X9521810Y-14019976D02*
X9512286Y-14029500D01*
X9512286Y-14029500D02*
X9493238Y-14039024D01*
X9493238Y-14039024D02*
X9474191Y-14039024D01*
X9474191Y-14039024D02*
X9455143Y-14029500D01*
X9455143Y-14029500D02*
X9445619Y-14019976D01*
X9445619Y-14019976D02*
X9436095Y-14000928D01*
X9436095Y-14000928D02*
X9426572Y-13962833D01*
X9426572Y-13962833D02*
X9426572Y-13915214D01*
X9426572Y-13915214D02*
X9436095Y-13877119D01*
X9436095Y-13877119D02*
X9445619Y-13858071D01*
X9445619Y-13858071D02*
X9455143Y-13848548D01*
X9455143Y-13848548D02*
X9474191Y-13839024D01*
X9607524Y-13839024D02*
X9731334Y-13839024D01*
X9731334Y-13839024D02*
X9664667Y-13915214D01*
X9664667Y-13915214D02*
X9693238Y-13915214D01*
X9693238Y-13915214D02*
X9712286Y-13924738D01*
X9712286Y-13924738D02*
X9721810Y-13934262D01*
X9721810Y-13934262D02*
X9731334Y-13953309D01*
X9731334Y-13953309D02*
X9731334Y-14000928D01*
X9731334Y-14000928D02*
X9721810Y-14019976D01*
X9721810Y-14019976D02*
X9712286Y-14029500D01*
X9712286Y-14029500D02*
X9693238Y-14039024D01*
X9693238Y-14039024D02*
X9636095Y-14039024D01*
X9636095Y-14039024D02*
X9617048Y-14029500D01*
X9617048Y-14029500D02*
X9607524Y-14019976D01*
X9826572Y-14039024D02*
X9864667Y-14039024D01*
X9864667Y-14039024D02*
X9883715Y-14029500D01*
X9883715Y-14029500D02*
X9893238Y-14019976D01*
X9893238Y-14019976D02*
X9912286Y-13991405D01*
X9912286Y-13991405D02*
X9921810Y-13953309D01*
X9921810Y-13953309D02*
X9921810Y-13877119D01*
X9921810Y-13877119D02*
X9912286Y-13858071D01*
X9912286Y-13858071D02*
X9902762Y-13848548D01*
X9902762Y-13848548D02*
X9883715Y-13839024D01*
X9883715Y-13839024D02*
X9845619Y-13839024D01*
X9845619Y-13839024D02*
X9826572Y-13848548D01*
X9826572Y-13848548D02*
X9817048Y-13858071D01*
X9817048Y-13858071D02*
X9807524Y-13877119D01*
X9807524Y-13877119D02*
X9807524Y-13924738D01*
X9807524Y-13924738D02*
X9817048Y-13943786D01*
X9817048Y-13943786D02*
X9826572Y-13953309D01*
X9826572Y-13953309D02*
X9845619Y-13962833D01*
X9845619Y-13962833D02*
X9883715Y-13962833D01*
X9883715Y-13962833D02*
X9902762Y-13953309D01*
X9902762Y-13953309D02*
X9912286Y-13943786D01*
X9912286Y-13943786D02*
X9921810Y-13924738D01*
X10093238Y-13905690D02*
X10093238Y-14039024D01*
X10045619Y-13829500D02*
X9998000Y-13972357D01*
X9998000Y-13972357D02*
X10121810Y-13972357D01*
X10188476Y-13839024D02*
X10188476Y-13877119D01*
X10264667Y-13839024D02*
X10264667Y-13877119D01*
X10559905Y-14115214D02*
X10550381Y-14105690D01*
X10550381Y-14105690D02*
X10531334Y-14077119D01*
X10531334Y-14077119D02*
X10521810Y-14058071D01*
X10521810Y-14058071D02*
X10512286Y-14029500D01*
X10512286Y-14029500D02*
X10502762Y-13981881D01*
X10502762Y-13981881D02*
X10502762Y-13943786D01*
X10502762Y-13943786D02*
X10512286Y-13896167D01*
X10512286Y-13896167D02*
X10521810Y-13867595D01*
X10521810Y-13867595D02*
X10531334Y-13848548D01*
X10531334Y-13848548D02*
X10550381Y-13819976D01*
X10550381Y-13819976D02*
X10559905Y-13810452D01*
X10617048Y-13839024D02*
X10750381Y-13839024D01*
X10750381Y-13839024D02*
X10664667Y-14039024D01*
X10817048Y-13858071D02*
X10826572Y-13848548D01*
X10826572Y-13848548D02*
X10845619Y-13839024D01*
X10845619Y-13839024D02*
X10893238Y-13839024D01*
X10893238Y-13839024D02*
X10912286Y-13848548D01*
X10912286Y-13848548D02*
X10921810Y-13858071D01*
X10921810Y-13858071D02*
X10931334Y-13877119D01*
X10931334Y-13877119D02*
X10931334Y-13896167D01*
X10931334Y-13896167D02*
X10921810Y-13924738D01*
X10921810Y-13924738D02*
X10807524Y-14039024D01*
X10807524Y-14039024D02*
X10931334Y-14039024D01*
X11169429Y-14039024D02*
X11169429Y-13839024D01*
X11255143Y-14039024D02*
X11255143Y-13934262D01*
X11255143Y-13934262D02*
X11245619Y-13915214D01*
X11245619Y-13915214D02*
X11226572Y-13905690D01*
X11226572Y-13905690D02*
X11198000Y-13905690D01*
X11198000Y-13905690D02*
X11178953Y-13915214D01*
X11178953Y-13915214D02*
X11169429Y-13924738D01*
X11378953Y-14039024D02*
X11359905Y-14029500D01*
X11359905Y-14029500D02*
X11350381Y-14019976D01*
X11350381Y-14019976D02*
X11340857Y-14000928D01*
X11340857Y-14000928D02*
X11340857Y-13943786D01*
X11340857Y-13943786D02*
X11350381Y-13924738D01*
X11350381Y-13924738D02*
X11359905Y-13915214D01*
X11359905Y-13915214D02*
X11378953Y-13905690D01*
X11378953Y-13905690D02*
X11407524Y-13905690D01*
X11407524Y-13905690D02*
X11426572Y-13915214D01*
X11426572Y-13915214D02*
X11436096Y-13924738D01*
X11436096Y-13924738D02*
X11445619Y-13943786D01*
X11445619Y-13943786D02*
X11445619Y-14000928D01*
X11445619Y-14000928D02*
X11436096Y-14019976D01*
X11436096Y-14019976D02*
X11426572Y-14029500D01*
X11426572Y-14029500D02*
X11407524Y-14039024D01*
X11407524Y-14039024D02*
X11378953Y-14039024D01*
X11559905Y-14039024D02*
X11540857Y-14029500D01*
X11540857Y-14029500D02*
X11531334Y-14010452D01*
X11531334Y-14010452D02*
X11531334Y-13839024D01*
X11712286Y-14029500D02*
X11693238Y-14039024D01*
X11693238Y-14039024D02*
X11655143Y-14039024D01*
X11655143Y-14039024D02*
X11636096Y-14029500D01*
X11636096Y-14029500D02*
X11626572Y-14010452D01*
X11626572Y-14010452D02*
X11626572Y-13934262D01*
X11626572Y-13934262D02*
X11636096Y-13915214D01*
X11636096Y-13915214D02*
X11655143Y-13905690D01*
X11655143Y-13905690D02*
X11693238Y-13905690D01*
X11693238Y-13905690D02*
X11712286Y-13915214D01*
X11712286Y-13915214D02*
X11721810Y-13934262D01*
X11721810Y-13934262D02*
X11721810Y-13953309D01*
X11721810Y-13953309D02*
X11626572Y-13972357D01*
X11798000Y-14029500D02*
X11817048Y-14039024D01*
X11817048Y-14039024D02*
X11855143Y-14039024D01*
X11855143Y-14039024D02*
X11874191Y-14029500D01*
X11874191Y-14029500D02*
X11883715Y-14010452D01*
X11883715Y-14010452D02*
X11883715Y-14000928D01*
X11883715Y-14000928D02*
X11874191Y-13981881D01*
X11874191Y-13981881D02*
X11855143Y-13972357D01*
X11855143Y-13972357D02*
X11826572Y-13972357D01*
X11826572Y-13972357D02*
X11807524Y-13962833D01*
X11807524Y-13962833D02*
X11798000Y-13943786D01*
X11798000Y-13943786D02*
X11798000Y-13934262D01*
X11798000Y-13934262D02*
X11807524Y-13915214D01*
X11807524Y-13915214D02*
X11826572Y-13905690D01*
X11826572Y-13905690D02*
X11855143Y-13905690D01*
X11855143Y-13905690D02*
X11874191Y-13915214D01*
X11950381Y-14115214D02*
X11959905Y-14105690D01*
X11959905Y-14105690D02*
X11978953Y-14077119D01*
X11978953Y-14077119D02*
X11988477Y-14058071D01*
X11988477Y-14058071D02*
X11998000Y-14029500D01*
X11998000Y-14029500D02*
X12007524Y-13981881D01*
X12007524Y-13981881D02*
X12007524Y-13943786D01*
X12007524Y-13943786D02*
X11998000Y-13896167D01*
X11998000Y-13896167D02*
X11988477Y-13867595D01*
X11988477Y-13867595D02*
X11978953Y-13848548D01*
X11978953Y-13848548D02*
X11959905Y-13819976D01*
X11959905Y-13819976D02*
X11950381Y-13810452D01*
D15*
X6943000Y-14265500D02*
X6998000Y-14210500D01*
X6943000Y-14155500D01*
X6888000Y-14210500D01*
X6943000Y-14265500D01*
D11*
X7350381Y-14303024D02*
X7236095Y-14303024D01*
X7293238Y-14303024D02*
X7293238Y-14103024D01*
X7293238Y-14103024D02*
X7274190Y-14131595D01*
X7274190Y-14131595D02*
X7255143Y-14150643D01*
X7255143Y-14150643D02*
X7236095Y-14160167D01*
X7436095Y-14283976D02*
X7445619Y-14293500D01*
X7445619Y-14293500D02*
X7436095Y-14303024D01*
X7436095Y-14303024D02*
X7426571Y-14293500D01*
X7426571Y-14293500D02*
X7436095Y-14283976D01*
X7436095Y-14283976D02*
X7436095Y-14303024D01*
X7636095Y-14303024D02*
X7521809Y-14303024D01*
X7578952Y-14303024D02*
X7578952Y-14103024D01*
X7578952Y-14103024D02*
X7559905Y-14131595D01*
X7559905Y-14131595D02*
X7540857Y-14150643D01*
X7540857Y-14150643D02*
X7521809Y-14160167D01*
X7759905Y-14103024D02*
X7778952Y-14103024D01*
X7778952Y-14103024D02*
X7798000Y-14112548D01*
X7798000Y-14112548D02*
X7807524Y-14122071D01*
X7807524Y-14122071D02*
X7817048Y-14141119D01*
X7817048Y-14141119D02*
X7826571Y-14179214D01*
X7826571Y-14179214D02*
X7826571Y-14226833D01*
X7826571Y-14226833D02*
X7817048Y-14264928D01*
X7817048Y-14264928D02*
X7807524Y-14283976D01*
X7807524Y-14283976D02*
X7798000Y-14293500D01*
X7798000Y-14293500D02*
X7778952Y-14303024D01*
X7778952Y-14303024D02*
X7759905Y-14303024D01*
X7759905Y-14303024D02*
X7740857Y-14293500D01*
X7740857Y-14293500D02*
X7731333Y-14283976D01*
X7731333Y-14283976D02*
X7721809Y-14264928D01*
X7721809Y-14264928D02*
X7712286Y-14226833D01*
X7712286Y-14226833D02*
X7712286Y-14179214D01*
X7712286Y-14179214D02*
X7721809Y-14141119D01*
X7721809Y-14141119D02*
X7731333Y-14122071D01*
X7731333Y-14122071D02*
X7740857Y-14112548D01*
X7740857Y-14112548D02*
X7759905Y-14103024D01*
X7950381Y-14103024D02*
X7969429Y-14103024D01*
X7969429Y-14103024D02*
X7988476Y-14112548D01*
X7988476Y-14112548D02*
X7998000Y-14122071D01*
X7998000Y-14122071D02*
X8007524Y-14141119D01*
X8007524Y-14141119D02*
X8017048Y-14179214D01*
X8017048Y-14179214D02*
X8017048Y-14226833D01*
X8017048Y-14226833D02*
X8007524Y-14264928D01*
X8007524Y-14264928D02*
X7998000Y-14283976D01*
X7998000Y-14283976D02*
X7988476Y-14293500D01*
X7988476Y-14293500D02*
X7969429Y-14303024D01*
X7969429Y-14303024D02*
X7950381Y-14303024D01*
X7950381Y-14303024D02*
X7931333Y-14293500D01*
X7931333Y-14293500D02*
X7921809Y-14283976D01*
X7921809Y-14283976D02*
X7912286Y-14264928D01*
X7912286Y-14264928D02*
X7902762Y-14226833D01*
X7902762Y-14226833D02*
X7902762Y-14179214D01*
X7902762Y-14179214D02*
X7912286Y-14141119D01*
X7912286Y-14141119D02*
X7921809Y-14122071D01*
X7921809Y-14122071D02*
X7931333Y-14112548D01*
X7931333Y-14112548D02*
X7950381Y-14103024D01*
X8102762Y-14303024D02*
X8102762Y-14169690D01*
X8102762Y-14188738D02*
X8112286Y-14179214D01*
X8112286Y-14179214D02*
X8131333Y-14169690D01*
X8131333Y-14169690D02*
X8159905Y-14169690D01*
X8159905Y-14169690D02*
X8178952Y-14179214D01*
X8178952Y-14179214D02*
X8188476Y-14198262D01*
X8188476Y-14198262D02*
X8188476Y-14303024D01*
X8188476Y-14198262D02*
X8198000Y-14179214D01*
X8198000Y-14179214D02*
X8217048Y-14169690D01*
X8217048Y-14169690D02*
X8245619Y-14169690D01*
X8245619Y-14169690D02*
X8264667Y-14179214D01*
X8264667Y-14179214D02*
X8274190Y-14198262D01*
X8274190Y-14198262D02*
X8274190Y-14303024D01*
X8369429Y-14303024D02*
X8369429Y-14169690D01*
X8369429Y-14188738D02*
X8378952Y-14179214D01*
X8378952Y-14179214D02*
X8398000Y-14169690D01*
X8398000Y-14169690D02*
X8426572Y-14169690D01*
X8426572Y-14169690D02*
X8445619Y-14179214D01*
X8445619Y-14179214D02*
X8455143Y-14198262D01*
X8455143Y-14198262D02*
X8455143Y-14303024D01*
X8455143Y-14198262D02*
X8464667Y-14179214D01*
X8464667Y-14179214D02*
X8483714Y-14169690D01*
X8483714Y-14169690D02*
X8512286Y-14169690D01*
X8512286Y-14169690D02*
X8531333Y-14179214D01*
X8531333Y-14179214D02*
X8540857Y-14198262D01*
X8540857Y-14198262D02*
X8540857Y-14303024D01*
X8931333Y-14093500D02*
X8759905Y-14350643D01*
X9188476Y-14103024D02*
X9207524Y-14103024D01*
X9207524Y-14103024D02*
X9226572Y-14112548D01*
X9226572Y-14112548D02*
X9236095Y-14122071D01*
X9236095Y-14122071D02*
X9245619Y-14141119D01*
X9245619Y-14141119D02*
X9255143Y-14179214D01*
X9255143Y-14179214D02*
X9255143Y-14226833D01*
X9255143Y-14226833D02*
X9245619Y-14264928D01*
X9245619Y-14264928D02*
X9236095Y-14283976D01*
X9236095Y-14283976D02*
X9226572Y-14293500D01*
X9226572Y-14293500D02*
X9207524Y-14303024D01*
X9207524Y-14303024D02*
X9188476Y-14303024D01*
X9188476Y-14303024D02*
X9169429Y-14293500D01*
X9169429Y-14293500D02*
X9159905Y-14283976D01*
X9159905Y-14283976D02*
X9150381Y-14264928D01*
X9150381Y-14264928D02*
X9140857Y-14226833D01*
X9140857Y-14226833D02*
X9140857Y-14179214D01*
X9140857Y-14179214D02*
X9150381Y-14141119D01*
X9150381Y-14141119D02*
X9159905Y-14122071D01*
X9159905Y-14122071D02*
X9169429Y-14112548D01*
X9169429Y-14112548D02*
X9188476Y-14103024D01*
X9340857Y-14283976D02*
X9350381Y-14293500D01*
X9350381Y-14293500D02*
X9340857Y-14303024D01*
X9340857Y-14303024D02*
X9331334Y-14293500D01*
X9331334Y-14293500D02*
X9340857Y-14283976D01*
X9340857Y-14283976D02*
X9340857Y-14303024D01*
X9474191Y-14103024D02*
X9493238Y-14103024D01*
X9493238Y-14103024D02*
X9512286Y-14112548D01*
X9512286Y-14112548D02*
X9521810Y-14122071D01*
X9521810Y-14122071D02*
X9531334Y-14141119D01*
X9531334Y-14141119D02*
X9540857Y-14179214D01*
X9540857Y-14179214D02*
X9540857Y-14226833D01*
X9540857Y-14226833D02*
X9531334Y-14264928D01*
X9531334Y-14264928D02*
X9521810Y-14283976D01*
X9521810Y-14283976D02*
X9512286Y-14293500D01*
X9512286Y-14293500D02*
X9493238Y-14303024D01*
X9493238Y-14303024D02*
X9474191Y-14303024D01*
X9474191Y-14303024D02*
X9455143Y-14293500D01*
X9455143Y-14293500D02*
X9445619Y-14283976D01*
X9445619Y-14283976D02*
X9436095Y-14264928D01*
X9436095Y-14264928D02*
X9426572Y-14226833D01*
X9426572Y-14226833D02*
X9426572Y-14179214D01*
X9426572Y-14179214D02*
X9436095Y-14141119D01*
X9436095Y-14141119D02*
X9445619Y-14122071D01*
X9445619Y-14122071D02*
X9455143Y-14112548D01*
X9455143Y-14112548D02*
X9474191Y-14103024D01*
X9712286Y-14169690D02*
X9712286Y-14303024D01*
X9664667Y-14093500D02*
X9617048Y-14236357D01*
X9617048Y-14236357D02*
X9740857Y-14236357D01*
X9798000Y-14103024D02*
X9921810Y-14103024D01*
X9921810Y-14103024D02*
X9855143Y-14179214D01*
X9855143Y-14179214D02*
X9883715Y-14179214D01*
X9883715Y-14179214D02*
X9902762Y-14188738D01*
X9902762Y-14188738D02*
X9912286Y-14198262D01*
X9912286Y-14198262D02*
X9921810Y-14217309D01*
X9921810Y-14217309D02*
X9921810Y-14264928D01*
X9921810Y-14264928D02*
X9912286Y-14283976D01*
X9912286Y-14283976D02*
X9902762Y-14293500D01*
X9902762Y-14293500D02*
X9883715Y-14303024D01*
X9883715Y-14303024D02*
X9826572Y-14303024D01*
X9826572Y-14303024D02*
X9807524Y-14293500D01*
X9807524Y-14293500D02*
X9798000Y-14283976D01*
X9988476Y-14103024D02*
X10112286Y-14103024D01*
X10112286Y-14103024D02*
X10045619Y-14179214D01*
X10045619Y-14179214D02*
X10074191Y-14179214D01*
X10074191Y-14179214D02*
X10093238Y-14188738D01*
X10093238Y-14188738D02*
X10102762Y-14198262D01*
X10102762Y-14198262D02*
X10112286Y-14217309D01*
X10112286Y-14217309D02*
X10112286Y-14264928D01*
X10112286Y-14264928D02*
X10102762Y-14283976D01*
X10102762Y-14283976D02*
X10093238Y-14293500D01*
X10093238Y-14293500D02*
X10074191Y-14303024D01*
X10074191Y-14303024D02*
X10017048Y-14303024D01*
X10017048Y-14303024D02*
X9998000Y-14293500D01*
X9998000Y-14293500D02*
X9988476Y-14283976D01*
X10188476Y-14103024D02*
X10188476Y-14141119D01*
X10264667Y-14103024D02*
X10264667Y-14141119D01*
X10559905Y-14379214D02*
X10550381Y-14369690D01*
X10550381Y-14369690D02*
X10531334Y-14341119D01*
X10531334Y-14341119D02*
X10521810Y-14322071D01*
X10521810Y-14322071D02*
X10512286Y-14293500D01*
X10512286Y-14293500D02*
X10502762Y-14245881D01*
X10502762Y-14245881D02*
X10502762Y-14207786D01*
X10502762Y-14207786D02*
X10512286Y-14160167D01*
X10512286Y-14160167D02*
X10521810Y-14131595D01*
X10521810Y-14131595D02*
X10531334Y-14112548D01*
X10531334Y-14112548D02*
X10550381Y-14083976D01*
X10550381Y-14083976D02*
X10559905Y-14074452D01*
X10617048Y-14103024D02*
X10740857Y-14103024D01*
X10740857Y-14103024D02*
X10674191Y-14179214D01*
X10674191Y-14179214D02*
X10702762Y-14179214D01*
X10702762Y-14179214D02*
X10721810Y-14188738D01*
X10721810Y-14188738D02*
X10731334Y-14198262D01*
X10731334Y-14198262D02*
X10740857Y-14217309D01*
X10740857Y-14217309D02*
X10740857Y-14264928D01*
X10740857Y-14264928D02*
X10731334Y-14283976D01*
X10731334Y-14283976D02*
X10721810Y-14293500D01*
X10721810Y-14293500D02*
X10702762Y-14303024D01*
X10702762Y-14303024D02*
X10645619Y-14303024D01*
X10645619Y-14303024D02*
X10626572Y-14293500D01*
X10626572Y-14293500D02*
X10617048Y-14283976D01*
X10978953Y-14303024D02*
X10978953Y-14103024D01*
X11064667Y-14303024D02*
X11064667Y-14198262D01*
X11064667Y-14198262D02*
X11055143Y-14179214D01*
X11055143Y-14179214D02*
X11036096Y-14169690D01*
X11036096Y-14169690D02*
X11007524Y-14169690D01*
X11007524Y-14169690D02*
X10988477Y-14179214D01*
X10988477Y-14179214D02*
X10978953Y-14188738D01*
X11188476Y-14303024D02*
X11169429Y-14293500D01*
X11169429Y-14293500D02*
X11159905Y-14283976D01*
X11159905Y-14283976D02*
X11150381Y-14264928D01*
X11150381Y-14264928D02*
X11150381Y-14207786D01*
X11150381Y-14207786D02*
X11159905Y-14188738D01*
X11159905Y-14188738D02*
X11169429Y-14179214D01*
X11169429Y-14179214D02*
X11188476Y-14169690D01*
X11188476Y-14169690D02*
X11217048Y-14169690D01*
X11217048Y-14169690D02*
X11236096Y-14179214D01*
X11236096Y-14179214D02*
X11245619Y-14188738D01*
X11245619Y-14188738D02*
X11255143Y-14207786D01*
X11255143Y-14207786D02*
X11255143Y-14264928D01*
X11255143Y-14264928D02*
X11245619Y-14283976D01*
X11245619Y-14283976D02*
X11236096Y-14293500D01*
X11236096Y-14293500D02*
X11217048Y-14303024D01*
X11217048Y-14303024D02*
X11188476Y-14303024D01*
X11369429Y-14303024D02*
X11350381Y-14293500D01*
X11350381Y-14293500D02*
X11340857Y-14274452D01*
X11340857Y-14274452D02*
X11340857Y-14103024D01*
X11521810Y-14293500D02*
X11502762Y-14303024D01*
X11502762Y-14303024D02*
X11464667Y-14303024D01*
X11464667Y-14303024D02*
X11445619Y-14293500D01*
X11445619Y-14293500D02*
X11436096Y-14274452D01*
X11436096Y-14274452D02*
X11436096Y-14198262D01*
X11436096Y-14198262D02*
X11445619Y-14179214D01*
X11445619Y-14179214D02*
X11464667Y-14169690D01*
X11464667Y-14169690D02*
X11502762Y-14169690D01*
X11502762Y-14169690D02*
X11521810Y-14179214D01*
X11521810Y-14179214D02*
X11531334Y-14198262D01*
X11531334Y-14198262D02*
X11531334Y-14217309D01*
X11531334Y-14217309D02*
X11436096Y-14236357D01*
X11607524Y-14293500D02*
X11626572Y-14303024D01*
X11626572Y-14303024D02*
X11664667Y-14303024D01*
X11664667Y-14303024D02*
X11683715Y-14293500D01*
X11683715Y-14293500D02*
X11693238Y-14274452D01*
X11693238Y-14274452D02*
X11693238Y-14264928D01*
X11693238Y-14264928D02*
X11683715Y-14245881D01*
X11683715Y-14245881D02*
X11664667Y-14236357D01*
X11664667Y-14236357D02*
X11636096Y-14236357D01*
X11636096Y-14236357D02*
X11617048Y-14226833D01*
X11617048Y-14226833D02*
X11607524Y-14207786D01*
X11607524Y-14207786D02*
X11607524Y-14198262D01*
X11607524Y-14198262D02*
X11617048Y-14179214D01*
X11617048Y-14179214D02*
X11636096Y-14169690D01*
X11636096Y-14169690D02*
X11664667Y-14169690D01*
X11664667Y-14169690D02*
X11683715Y-14179214D01*
X11759905Y-14379214D02*
X11769429Y-14369690D01*
X11769429Y-14369690D02*
X11788477Y-14341119D01*
X11788477Y-14341119D02*
X11798000Y-14322071D01*
X11798000Y-14322071D02*
X11807524Y-14293500D01*
X11807524Y-14293500D02*
X11817048Y-14245881D01*
X11817048Y-14245881D02*
X11817048Y-14207786D01*
X11817048Y-14207786D02*
X11807524Y-14160167D01*
X11807524Y-14160167D02*
X11798000Y-14131595D01*
X11798000Y-14131595D02*
X11788477Y-14112548D01*
X11788477Y-14112548D02*
X11769429Y-14083976D01*
X11769429Y-14083976D02*
X11759905Y-14074452D01*
D16*
X6878000Y-14414500D02*
X6998000Y-14534500D01*
X6998000Y-14414500D02*
X6878000Y-14534500D01*
X6998000Y-14474500D02*
G75*
G03*
X6998000Y-14474500I-60000J0D01*
G01*
D11*
X7350381Y-14567024D02*
X7236095Y-14567024D01*
X7293238Y-14567024D02*
X7293238Y-14367024D01*
X7293238Y-14367024D02*
X7274190Y-14395595D01*
X7274190Y-14395595D02*
X7255143Y-14414643D01*
X7255143Y-14414643D02*
X7236095Y-14424167D01*
X7436095Y-14547976D02*
X7445619Y-14557500D01*
X7445619Y-14557500D02*
X7436095Y-14567024D01*
X7436095Y-14567024D02*
X7426571Y-14557500D01*
X7426571Y-14557500D02*
X7436095Y-14547976D01*
X7436095Y-14547976D02*
X7436095Y-14567024D01*
X7521809Y-14386071D02*
X7531333Y-14376548D01*
X7531333Y-14376548D02*
X7550381Y-14367024D01*
X7550381Y-14367024D02*
X7598000Y-14367024D01*
X7598000Y-14367024D02*
X7617048Y-14376548D01*
X7617048Y-14376548D02*
X7626571Y-14386071D01*
X7626571Y-14386071D02*
X7636095Y-14405119D01*
X7636095Y-14405119D02*
X7636095Y-14424167D01*
X7636095Y-14424167D02*
X7626571Y-14452738D01*
X7626571Y-14452738D02*
X7512286Y-14567024D01*
X7512286Y-14567024D02*
X7636095Y-14567024D01*
X7759905Y-14367024D02*
X7778952Y-14367024D01*
X7778952Y-14367024D02*
X7798000Y-14376548D01*
X7798000Y-14376548D02*
X7807524Y-14386071D01*
X7807524Y-14386071D02*
X7817048Y-14405119D01*
X7817048Y-14405119D02*
X7826571Y-14443214D01*
X7826571Y-14443214D02*
X7826571Y-14490833D01*
X7826571Y-14490833D02*
X7817048Y-14528928D01*
X7817048Y-14528928D02*
X7807524Y-14547976D01*
X7807524Y-14547976D02*
X7798000Y-14557500D01*
X7798000Y-14557500D02*
X7778952Y-14567024D01*
X7778952Y-14567024D02*
X7759905Y-14567024D01*
X7759905Y-14567024D02*
X7740857Y-14557500D01*
X7740857Y-14557500D02*
X7731333Y-14547976D01*
X7731333Y-14547976D02*
X7721809Y-14528928D01*
X7721809Y-14528928D02*
X7712286Y-14490833D01*
X7712286Y-14490833D02*
X7712286Y-14443214D01*
X7712286Y-14443214D02*
X7721809Y-14405119D01*
X7721809Y-14405119D02*
X7731333Y-14386071D01*
X7731333Y-14386071D02*
X7740857Y-14376548D01*
X7740857Y-14376548D02*
X7759905Y-14367024D01*
X7950381Y-14367024D02*
X7969429Y-14367024D01*
X7969429Y-14367024D02*
X7988476Y-14376548D01*
X7988476Y-14376548D02*
X7998000Y-14386071D01*
X7998000Y-14386071D02*
X8007524Y-14405119D01*
X8007524Y-14405119D02*
X8017048Y-14443214D01*
X8017048Y-14443214D02*
X8017048Y-14490833D01*
X8017048Y-14490833D02*
X8007524Y-14528928D01*
X8007524Y-14528928D02*
X7998000Y-14547976D01*
X7998000Y-14547976D02*
X7988476Y-14557500D01*
X7988476Y-14557500D02*
X7969429Y-14567024D01*
X7969429Y-14567024D02*
X7950381Y-14567024D01*
X7950381Y-14567024D02*
X7931333Y-14557500D01*
X7931333Y-14557500D02*
X7921809Y-14547976D01*
X7921809Y-14547976D02*
X7912286Y-14528928D01*
X7912286Y-14528928D02*
X7902762Y-14490833D01*
X7902762Y-14490833D02*
X7902762Y-14443214D01*
X7902762Y-14443214D02*
X7912286Y-14405119D01*
X7912286Y-14405119D02*
X7921809Y-14386071D01*
X7921809Y-14386071D02*
X7931333Y-14376548D01*
X7931333Y-14376548D02*
X7950381Y-14367024D01*
X8102762Y-14567024D02*
X8102762Y-14433690D01*
X8102762Y-14452738D02*
X8112286Y-14443214D01*
X8112286Y-14443214D02*
X8131333Y-14433690D01*
X8131333Y-14433690D02*
X8159905Y-14433690D01*
X8159905Y-14433690D02*
X8178952Y-14443214D01*
X8178952Y-14443214D02*
X8188476Y-14462262D01*
X8188476Y-14462262D02*
X8188476Y-14567024D01*
X8188476Y-14462262D02*
X8198000Y-14443214D01*
X8198000Y-14443214D02*
X8217048Y-14433690D01*
X8217048Y-14433690D02*
X8245619Y-14433690D01*
X8245619Y-14433690D02*
X8264667Y-14443214D01*
X8264667Y-14443214D02*
X8274190Y-14462262D01*
X8274190Y-14462262D02*
X8274190Y-14567024D01*
X8369429Y-14567024D02*
X8369429Y-14433690D01*
X8369429Y-14452738D02*
X8378952Y-14443214D01*
X8378952Y-14443214D02*
X8398000Y-14433690D01*
X8398000Y-14433690D02*
X8426572Y-14433690D01*
X8426572Y-14433690D02*
X8445619Y-14443214D01*
X8445619Y-14443214D02*
X8455143Y-14462262D01*
X8455143Y-14462262D02*
X8455143Y-14567024D01*
X8455143Y-14462262D02*
X8464667Y-14443214D01*
X8464667Y-14443214D02*
X8483714Y-14433690D01*
X8483714Y-14433690D02*
X8512286Y-14433690D01*
X8512286Y-14433690D02*
X8531333Y-14443214D01*
X8531333Y-14443214D02*
X8540857Y-14462262D01*
X8540857Y-14462262D02*
X8540857Y-14567024D01*
X8931333Y-14357500D02*
X8759905Y-14614643D01*
X9188476Y-14367024D02*
X9207524Y-14367024D01*
X9207524Y-14367024D02*
X9226572Y-14376548D01*
X9226572Y-14376548D02*
X9236095Y-14386071D01*
X9236095Y-14386071D02*
X9245619Y-14405119D01*
X9245619Y-14405119D02*
X9255143Y-14443214D01*
X9255143Y-14443214D02*
X9255143Y-14490833D01*
X9255143Y-14490833D02*
X9245619Y-14528928D01*
X9245619Y-14528928D02*
X9236095Y-14547976D01*
X9236095Y-14547976D02*
X9226572Y-14557500D01*
X9226572Y-14557500D02*
X9207524Y-14567024D01*
X9207524Y-14567024D02*
X9188476Y-14567024D01*
X9188476Y-14567024D02*
X9169429Y-14557500D01*
X9169429Y-14557500D02*
X9159905Y-14547976D01*
X9159905Y-14547976D02*
X9150381Y-14528928D01*
X9150381Y-14528928D02*
X9140857Y-14490833D01*
X9140857Y-14490833D02*
X9140857Y-14443214D01*
X9140857Y-14443214D02*
X9150381Y-14405119D01*
X9150381Y-14405119D02*
X9159905Y-14386071D01*
X9159905Y-14386071D02*
X9169429Y-14376548D01*
X9169429Y-14376548D02*
X9188476Y-14367024D01*
X9340857Y-14547976D02*
X9350381Y-14557500D01*
X9350381Y-14557500D02*
X9340857Y-14567024D01*
X9340857Y-14567024D02*
X9331334Y-14557500D01*
X9331334Y-14557500D02*
X9340857Y-14547976D01*
X9340857Y-14547976D02*
X9340857Y-14567024D01*
X9474191Y-14367024D02*
X9493238Y-14367024D01*
X9493238Y-14367024D02*
X9512286Y-14376548D01*
X9512286Y-14376548D02*
X9521810Y-14386071D01*
X9521810Y-14386071D02*
X9531334Y-14405119D01*
X9531334Y-14405119D02*
X9540857Y-14443214D01*
X9540857Y-14443214D02*
X9540857Y-14490833D01*
X9540857Y-14490833D02*
X9531334Y-14528928D01*
X9531334Y-14528928D02*
X9521810Y-14547976D01*
X9521810Y-14547976D02*
X9512286Y-14557500D01*
X9512286Y-14557500D02*
X9493238Y-14567024D01*
X9493238Y-14567024D02*
X9474191Y-14567024D01*
X9474191Y-14567024D02*
X9455143Y-14557500D01*
X9455143Y-14557500D02*
X9445619Y-14547976D01*
X9445619Y-14547976D02*
X9436095Y-14528928D01*
X9436095Y-14528928D02*
X9426572Y-14490833D01*
X9426572Y-14490833D02*
X9426572Y-14443214D01*
X9426572Y-14443214D02*
X9436095Y-14405119D01*
X9436095Y-14405119D02*
X9445619Y-14386071D01*
X9445619Y-14386071D02*
X9455143Y-14376548D01*
X9455143Y-14376548D02*
X9474191Y-14367024D01*
X9712286Y-14433690D02*
X9712286Y-14567024D01*
X9664667Y-14357500D02*
X9617048Y-14500357D01*
X9617048Y-14500357D02*
X9740857Y-14500357D01*
X9798000Y-14367024D02*
X9931334Y-14367024D01*
X9931334Y-14367024D02*
X9845619Y-14567024D01*
X9998000Y-14386071D02*
X10007524Y-14376548D01*
X10007524Y-14376548D02*
X10026572Y-14367024D01*
X10026572Y-14367024D02*
X10074191Y-14367024D01*
X10074191Y-14367024D02*
X10093238Y-14376548D01*
X10093238Y-14376548D02*
X10102762Y-14386071D01*
X10102762Y-14386071D02*
X10112286Y-14405119D01*
X10112286Y-14405119D02*
X10112286Y-14424167D01*
X10112286Y-14424167D02*
X10102762Y-14452738D01*
X10102762Y-14452738D02*
X9988476Y-14567024D01*
X9988476Y-14567024D02*
X10112286Y-14567024D01*
X10188476Y-14367024D02*
X10188476Y-14405119D01*
X10264667Y-14367024D02*
X10264667Y-14405119D01*
X10559905Y-14643214D02*
X10550381Y-14633690D01*
X10550381Y-14633690D02*
X10531334Y-14605119D01*
X10531334Y-14605119D02*
X10521810Y-14586071D01*
X10521810Y-14586071D02*
X10512286Y-14557500D01*
X10512286Y-14557500D02*
X10502762Y-14509881D01*
X10502762Y-14509881D02*
X10502762Y-14471786D01*
X10502762Y-14471786D02*
X10512286Y-14424167D01*
X10512286Y-14424167D02*
X10521810Y-14395595D01*
X10521810Y-14395595D02*
X10531334Y-14376548D01*
X10531334Y-14376548D02*
X10550381Y-14347976D01*
X10550381Y-14347976D02*
X10559905Y-14338452D01*
X10721810Y-14367024D02*
X10683715Y-14367024D01*
X10683715Y-14367024D02*
X10664667Y-14376548D01*
X10664667Y-14376548D02*
X10655143Y-14386071D01*
X10655143Y-14386071D02*
X10636096Y-14414643D01*
X10636096Y-14414643D02*
X10626572Y-14452738D01*
X10626572Y-14452738D02*
X10626572Y-14528928D01*
X10626572Y-14528928D02*
X10636096Y-14547976D01*
X10636096Y-14547976D02*
X10645619Y-14557500D01*
X10645619Y-14557500D02*
X10664667Y-14567024D01*
X10664667Y-14567024D02*
X10702762Y-14567024D01*
X10702762Y-14567024D02*
X10721810Y-14557500D01*
X10721810Y-14557500D02*
X10731334Y-14547976D01*
X10731334Y-14547976D02*
X10740857Y-14528928D01*
X10740857Y-14528928D02*
X10740857Y-14481309D01*
X10740857Y-14481309D02*
X10731334Y-14462262D01*
X10731334Y-14462262D02*
X10721810Y-14452738D01*
X10721810Y-14452738D02*
X10702762Y-14443214D01*
X10702762Y-14443214D02*
X10664667Y-14443214D01*
X10664667Y-14443214D02*
X10645619Y-14452738D01*
X10645619Y-14452738D02*
X10636096Y-14462262D01*
X10636096Y-14462262D02*
X10626572Y-14481309D01*
X10978953Y-14567024D02*
X10978953Y-14367024D01*
X11064667Y-14567024D02*
X11064667Y-14462262D01*
X11064667Y-14462262D02*
X11055143Y-14443214D01*
X11055143Y-14443214D02*
X11036096Y-14433690D01*
X11036096Y-14433690D02*
X11007524Y-14433690D01*
X11007524Y-14433690D02*
X10988477Y-14443214D01*
X10988477Y-14443214D02*
X10978953Y-14452738D01*
X11188476Y-14567024D02*
X11169429Y-14557500D01*
X11169429Y-14557500D02*
X11159905Y-14547976D01*
X11159905Y-14547976D02*
X11150381Y-14528928D01*
X11150381Y-14528928D02*
X11150381Y-14471786D01*
X11150381Y-14471786D02*
X11159905Y-14452738D01*
X11159905Y-14452738D02*
X11169429Y-14443214D01*
X11169429Y-14443214D02*
X11188476Y-14433690D01*
X11188476Y-14433690D02*
X11217048Y-14433690D01*
X11217048Y-14433690D02*
X11236096Y-14443214D01*
X11236096Y-14443214D02*
X11245619Y-14452738D01*
X11245619Y-14452738D02*
X11255143Y-14471786D01*
X11255143Y-14471786D02*
X11255143Y-14528928D01*
X11255143Y-14528928D02*
X11245619Y-14547976D01*
X11245619Y-14547976D02*
X11236096Y-14557500D01*
X11236096Y-14557500D02*
X11217048Y-14567024D01*
X11217048Y-14567024D02*
X11188476Y-14567024D01*
X11369429Y-14567024D02*
X11350381Y-14557500D01*
X11350381Y-14557500D02*
X11340857Y-14538452D01*
X11340857Y-14538452D02*
X11340857Y-14367024D01*
X11521810Y-14557500D02*
X11502762Y-14567024D01*
X11502762Y-14567024D02*
X11464667Y-14567024D01*
X11464667Y-14567024D02*
X11445619Y-14557500D01*
X11445619Y-14557500D02*
X11436096Y-14538452D01*
X11436096Y-14538452D02*
X11436096Y-14462262D01*
X11436096Y-14462262D02*
X11445619Y-14443214D01*
X11445619Y-14443214D02*
X11464667Y-14433690D01*
X11464667Y-14433690D02*
X11502762Y-14433690D01*
X11502762Y-14433690D02*
X11521810Y-14443214D01*
X11521810Y-14443214D02*
X11531334Y-14462262D01*
X11531334Y-14462262D02*
X11531334Y-14481309D01*
X11531334Y-14481309D02*
X11436096Y-14500357D01*
X11607524Y-14557500D02*
X11626572Y-14567024D01*
X11626572Y-14567024D02*
X11664667Y-14567024D01*
X11664667Y-14567024D02*
X11683715Y-14557500D01*
X11683715Y-14557500D02*
X11693238Y-14538452D01*
X11693238Y-14538452D02*
X11693238Y-14528928D01*
X11693238Y-14528928D02*
X11683715Y-14509881D01*
X11683715Y-14509881D02*
X11664667Y-14500357D01*
X11664667Y-14500357D02*
X11636096Y-14500357D01*
X11636096Y-14500357D02*
X11617048Y-14490833D01*
X11617048Y-14490833D02*
X11607524Y-14471786D01*
X11607524Y-14471786D02*
X11607524Y-14462262D01*
X11607524Y-14462262D02*
X11617048Y-14443214D01*
X11617048Y-14443214D02*
X11636096Y-14433690D01*
X11636096Y-14433690D02*
X11664667Y-14433690D01*
X11664667Y-14433690D02*
X11683715Y-14443214D01*
X11759905Y-14643214D02*
X11769429Y-14633690D01*
X11769429Y-14633690D02*
X11788477Y-14605119D01*
X11788477Y-14605119D02*
X11798000Y-14586071D01*
X11798000Y-14586071D02*
X11807524Y-14557500D01*
X11807524Y-14557500D02*
X11817048Y-14509881D01*
X11817048Y-14509881D02*
X11817048Y-14471786D01*
X11817048Y-14471786D02*
X11807524Y-14424167D01*
X11807524Y-14424167D02*
X11798000Y-14395595D01*
X11798000Y-14395595D02*
X11788477Y-14376548D01*
X11788477Y-14376548D02*
X11769429Y-14347976D01*
X11769429Y-14347976D02*
X11759905Y-14338452D01*
D17*
X6868000Y-14673500D02*
X6998000Y-14803500D01*
X6998000Y-14673500D02*
X6868000Y-14803500D01*
X6933000Y-14673500D02*
X6933000Y-14803500D01*
X6868000Y-14738500D02*
X6998000Y-14738500D01*
D11*
X7350381Y-14831024D02*
X7236095Y-14831024D01*
X7293238Y-14831024D02*
X7293238Y-14631024D01*
X7293238Y-14631024D02*
X7274190Y-14659595D01*
X7274190Y-14659595D02*
X7255143Y-14678643D01*
X7255143Y-14678643D02*
X7236095Y-14688167D01*
X7436095Y-14811976D02*
X7445619Y-14821500D01*
X7445619Y-14821500D02*
X7436095Y-14831024D01*
X7436095Y-14831024D02*
X7426571Y-14821500D01*
X7426571Y-14821500D02*
X7436095Y-14811976D01*
X7436095Y-14811976D02*
X7436095Y-14831024D01*
X7512286Y-14631024D02*
X7636095Y-14631024D01*
X7636095Y-14631024D02*
X7569428Y-14707214D01*
X7569428Y-14707214D02*
X7598000Y-14707214D01*
X7598000Y-14707214D02*
X7617048Y-14716738D01*
X7617048Y-14716738D02*
X7626571Y-14726262D01*
X7626571Y-14726262D02*
X7636095Y-14745309D01*
X7636095Y-14745309D02*
X7636095Y-14792928D01*
X7636095Y-14792928D02*
X7626571Y-14811976D01*
X7626571Y-14811976D02*
X7617048Y-14821500D01*
X7617048Y-14821500D02*
X7598000Y-14831024D01*
X7598000Y-14831024D02*
X7540857Y-14831024D01*
X7540857Y-14831024D02*
X7521809Y-14821500D01*
X7521809Y-14821500D02*
X7512286Y-14811976D01*
X7759905Y-14631024D02*
X7778952Y-14631024D01*
X7778952Y-14631024D02*
X7798000Y-14640548D01*
X7798000Y-14640548D02*
X7807524Y-14650071D01*
X7807524Y-14650071D02*
X7817048Y-14669119D01*
X7817048Y-14669119D02*
X7826571Y-14707214D01*
X7826571Y-14707214D02*
X7826571Y-14754833D01*
X7826571Y-14754833D02*
X7817048Y-14792928D01*
X7817048Y-14792928D02*
X7807524Y-14811976D01*
X7807524Y-14811976D02*
X7798000Y-14821500D01*
X7798000Y-14821500D02*
X7778952Y-14831024D01*
X7778952Y-14831024D02*
X7759905Y-14831024D01*
X7759905Y-14831024D02*
X7740857Y-14821500D01*
X7740857Y-14821500D02*
X7731333Y-14811976D01*
X7731333Y-14811976D02*
X7721809Y-14792928D01*
X7721809Y-14792928D02*
X7712286Y-14754833D01*
X7712286Y-14754833D02*
X7712286Y-14707214D01*
X7712286Y-14707214D02*
X7721809Y-14669119D01*
X7721809Y-14669119D02*
X7731333Y-14650071D01*
X7731333Y-14650071D02*
X7740857Y-14640548D01*
X7740857Y-14640548D02*
X7759905Y-14631024D01*
X7950381Y-14631024D02*
X7969429Y-14631024D01*
X7969429Y-14631024D02*
X7988476Y-14640548D01*
X7988476Y-14640548D02*
X7998000Y-14650071D01*
X7998000Y-14650071D02*
X8007524Y-14669119D01*
X8007524Y-14669119D02*
X8017048Y-14707214D01*
X8017048Y-14707214D02*
X8017048Y-14754833D01*
X8017048Y-14754833D02*
X8007524Y-14792928D01*
X8007524Y-14792928D02*
X7998000Y-14811976D01*
X7998000Y-14811976D02*
X7988476Y-14821500D01*
X7988476Y-14821500D02*
X7969429Y-14831024D01*
X7969429Y-14831024D02*
X7950381Y-14831024D01*
X7950381Y-14831024D02*
X7931333Y-14821500D01*
X7931333Y-14821500D02*
X7921809Y-14811976D01*
X7921809Y-14811976D02*
X7912286Y-14792928D01*
X7912286Y-14792928D02*
X7902762Y-14754833D01*
X7902762Y-14754833D02*
X7902762Y-14707214D01*
X7902762Y-14707214D02*
X7912286Y-14669119D01*
X7912286Y-14669119D02*
X7921809Y-14650071D01*
X7921809Y-14650071D02*
X7931333Y-14640548D01*
X7931333Y-14640548D02*
X7950381Y-14631024D01*
X8102762Y-14831024D02*
X8102762Y-14697690D01*
X8102762Y-14716738D02*
X8112286Y-14707214D01*
X8112286Y-14707214D02*
X8131333Y-14697690D01*
X8131333Y-14697690D02*
X8159905Y-14697690D01*
X8159905Y-14697690D02*
X8178952Y-14707214D01*
X8178952Y-14707214D02*
X8188476Y-14726262D01*
X8188476Y-14726262D02*
X8188476Y-14831024D01*
X8188476Y-14726262D02*
X8198000Y-14707214D01*
X8198000Y-14707214D02*
X8217048Y-14697690D01*
X8217048Y-14697690D02*
X8245619Y-14697690D01*
X8245619Y-14697690D02*
X8264667Y-14707214D01*
X8264667Y-14707214D02*
X8274190Y-14726262D01*
X8274190Y-14726262D02*
X8274190Y-14831024D01*
X8369429Y-14831024D02*
X8369429Y-14697690D01*
X8369429Y-14716738D02*
X8378952Y-14707214D01*
X8378952Y-14707214D02*
X8398000Y-14697690D01*
X8398000Y-14697690D02*
X8426572Y-14697690D01*
X8426572Y-14697690D02*
X8445619Y-14707214D01*
X8445619Y-14707214D02*
X8455143Y-14726262D01*
X8455143Y-14726262D02*
X8455143Y-14831024D01*
X8455143Y-14726262D02*
X8464667Y-14707214D01*
X8464667Y-14707214D02*
X8483714Y-14697690D01*
X8483714Y-14697690D02*
X8512286Y-14697690D01*
X8512286Y-14697690D02*
X8531333Y-14707214D01*
X8531333Y-14707214D02*
X8540857Y-14726262D01*
X8540857Y-14726262D02*
X8540857Y-14831024D01*
X8931333Y-14621500D02*
X8759905Y-14878643D01*
X9188476Y-14631024D02*
X9207524Y-14631024D01*
X9207524Y-14631024D02*
X9226572Y-14640548D01*
X9226572Y-14640548D02*
X9236095Y-14650071D01*
X9236095Y-14650071D02*
X9245619Y-14669119D01*
X9245619Y-14669119D02*
X9255143Y-14707214D01*
X9255143Y-14707214D02*
X9255143Y-14754833D01*
X9255143Y-14754833D02*
X9245619Y-14792928D01*
X9245619Y-14792928D02*
X9236095Y-14811976D01*
X9236095Y-14811976D02*
X9226572Y-14821500D01*
X9226572Y-14821500D02*
X9207524Y-14831024D01*
X9207524Y-14831024D02*
X9188476Y-14831024D01*
X9188476Y-14831024D02*
X9169429Y-14821500D01*
X9169429Y-14821500D02*
X9159905Y-14811976D01*
X9159905Y-14811976D02*
X9150381Y-14792928D01*
X9150381Y-14792928D02*
X9140857Y-14754833D01*
X9140857Y-14754833D02*
X9140857Y-14707214D01*
X9140857Y-14707214D02*
X9150381Y-14669119D01*
X9150381Y-14669119D02*
X9159905Y-14650071D01*
X9159905Y-14650071D02*
X9169429Y-14640548D01*
X9169429Y-14640548D02*
X9188476Y-14631024D01*
X9340857Y-14811976D02*
X9350381Y-14821500D01*
X9350381Y-14821500D02*
X9340857Y-14831024D01*
X9340857Y-14831024D02*
X9331334Y-14821500D01*
X9331334Y-14821500D02*
X9340857Y-14811976D01*
X9340857Y-14811976D02*
X9340857Y-14831024D01*
X9474191Y-14631024D02*
X9493238Y-14631024D01*
X9493238Y-14631024D02*
X9512286Y-14640548D01*
X9512286Y-14640548D02*
X9521810Y-14650071D01*
X9521810Y-14650071D02*
X9531334Y-14669119D01*
X9531334Y-14669119D02*
X9540857Y-14707214D01*
X9540857Y-14707214D02*
X9540857Y-14754833D01*
X9540857Y-14754833D02*
X9531334Y-14792928D01*
X9531334Y-14792928D02*
X9521810Y-14811976D01*
X9521810Y-14811976D02*
X9512286Y-14821500D01*
X9512286Y-14821500D02*
X9493238Y-14831024D01*
X9493238Y-14831024D02*
X9474191Y-14831024D01*
X9474191Y-14831024D02*
X9455143Y-14821500D01*
X9455143Y-14821500D02*
X9445619Y-14811976D01*
X9445619Y-14811976D02*
X9436095Y-14792928D01*
X9436095Y-14792928D02*
X9426572Y-14754833D01*
X9426572Y-14754833D02*
X9426572Y-14707214D01*
X9426572Y-14707214D02*
X9436095Y-14669119D01*
X9436095Y-14669119D02*
X9445619Y-14650071D01*
X9445619Y-14650071D02*
X9455143Y-14640548D01*
X9455143Y-14640548D02*
X9474191Y-14631024D01*
X9721810Y-14631024D02*
X9626572Y-14631024D01*
X9626572Y-14631024D02*
X9617048Y-14726262D01*
X9617048Y-14726262D02*
X9626572Y-14716738D01*
X9626572Y-14716738D02*
X9645619Y-14707214D01*
X9645619Y-14707214D02*
X9693238Y-14707214D01*
X9693238Y-14707214D02*
X9712286Y-14716738D01*
X9712286Y-14716738D02*
X9721810Y-14726262D01*
X9721810Y-14726262D02*
X9731334Y-14745309D01*
X9731334Y-14745309D02*
X9731334Y-14792928D01*
X9731334Y-14792928D02*
X9721810Y-14811976D01*
X9721810Y-14811976D02*
X9712286Y-14821500D01*
X9712286Y-14821500D02*
X9693238Y-14831024D01*
X9693238Y-14831024D02*
X9645619Y-14831024D01*
X9645619Y-14831024D02*
X9626572Y-14821500D01*
X9626572Y-14821500D02*
X9617048Y-14811976D01*
X9921810Y-14831024D02*
X9807524Y-14831024D01*
X9864667Y-14831024D02*
X9864667Y-14631024D01*
X9864667Y-14631024D02*
X9845619Y-14659595D01*
X9845619Y-14659595D02*
X9826572Y-14678643D01*
X9826572Y-14678643D02*
X9807524Y-14688167D01*
X9998000Y-14650071D02*
X10007524Y-14640548D01*
X10007524Y-14640548D02*
X10026572Y-14631024D01*
X10026572Y-14631024D02*
X10074191Y-14631024D01*
X10074191Y-14631024D02*
X10093238Y-14640548D01*
X10093238Y-14640548D02*
X10102762Y-14650071D01*
X10102762Y-14650071D02*
X10112286Y-14669119D01*
X10112286Y-14669119D02*
X10112286Y-14688167D01*
X10112286Y-14688167D02*
X10102762Y-14716738D01*
X10102762Y-14716738D02*
X9988476Y-14831024D01*
X9988476Y-14831024D02*
X10112286Y-14831024D01*
X10188476Y-14631024D02*
X10188476Y-14669119D01*
X10264667Y-14631024D02*
X10264667Y-14669119D01*
X10559905Y-14907214D02*
X10550381Y-14897690D01*
X10550381Y-14897690D02*
X10531334Y-14869119D01*
X10531334Y-14869119D02*
X10521810Y-14850071D01*
X10521810Y-14850071D02*
X10512286Y-14821500D01*
X10512286Y-14821500D02*
X10502762Y-14773881D01*
X10502762Y-14773881D02*
X10502762Y-14735786D01*
X10502762Y-14735786D02*
X10512286Y-14688167D01*
X10512286Y-14688167D02*
X10521810Y-14659595D01*
X10521810Y-14659595D02*
X10531334Y-14640548D01*
X10531334Y-14640548D02*
X10550381Y-14611976D01*
X10550381Y-14611976D02*
X10559905Y-14602452D01*
X10731334Y-14631024D02*
X10636096Y-14631024D01*
X10636096Y-14631024D02*
X10626572Y-14726262D01*
X10626572Y-14726262D02*
X10636096Y-14716738D01*
X10636096Y-14716738D02*
X10655143Y-14707214D01*
X10655143Y-14707214D02*
X10702762Y-14707214D01*
X10702762Y-14707214D02*
X10721810Y-14716738D01*
X10721810Y-14716738D02*
X10731334Y-14726262D01*
X10731334Y-14726262D02*
X10740857Y-14745309D01*
X10740857Y-14745309D02*
X10740857Y-14792928D01*
X10740857Y-14792928D02*
X10731334Y-14811976D01*
X10731334Y-14811976D02*
X10721810Y-14821500D01*
X10721810Y-14821500D02*
X10702762Y-14831024D01*
X10702762Y-14831024D02*
X10655143Y-14831024D01*
X10655143Y-14831024D02*
X10636096Y-14821500D01*
X10636096Y-14821500D02*
X10626572Y-14811976D01*
X10978953Y-14831024D02*
X10978953Y-14631024D01*
X11064667Y-14831024D02*
X11064667Y-14726262D01*
X11064667Y-14726262D02*
X11055143Y-14707214D01*
X11055143Y-14707214D02*
X11036096Y-14697690D01*
X11036096Y-14697690D02*
X11007524Y-14697690D01*
X11007524Y-14697690D02*
X10988477Y-14707214D01*
X10988477Y-14707214D02*
X10978953Y-14716738D01*
X11188476Y-14831024D02*
X11169429Y-14821500D01*
X11169429Y-14821500D02*
X11159905Y-14811976D01*
X11159905Y-14811976D02*
X11150381Y-14792928D01*
X11150381Y-14792928D02*
X11150381Y-14735786D01*
X11150381Y-14735786D02*
X11159905Y-14716738D01*
X11159905Y-14716738D02*
X11169429Y-14707214D01*
X11169429Y-14707214D02*
X11188476Y-14697690D01*
X11188476Y-14697690D02*
X11217048Y-14697690D01*
X11217048Y-14697690D02*
X11236096Y-14707214D01*
X11236096Y-14707214D02*
X11245619Y-14716738D01*
X11245619Y-14716738D02*
X11255143Y-14735786D01*
X11255143Y-14735786D02*
X11255143Y-14792928D01*
X11255143Y-14792928D02*
X11245619Y-14811976D01*
X11245619Y-14811976D02*
X11236096Y-14821500D01*
X11236096Y-14821500D02*
X11217048Y-14831024D01*
X11217048Y-14831024D02*
X11188476Y-14831024D01*
X11369429Y-14831024D02*
X11350381Y-14821500D01*
X11350381Y-14821500D02*
X11340857Y-14802452D01*
X11340857Y-14802452D02*
X11340857Y-14631024D01*
X11521810Y-14821500D02*
X11502762Y-14831024D01*
X11502762Y-14831024D02*
X11464667Y-14831024D01*
X11464667Y-14831024D02*
X11445619Y-14821500D01*
X11445619Y-14821500D02*
X11436096Y-14802452D01*
X11436096Y-14802452D02*
X11436096Y-14726262D01*
X11436096Y-14726262D02*
X11445619Y-14707214D01*
X11445619Y-14707214D02*
X11464667Y-14697690D01*
X11464667Y-14697690D02*
X11502762Y-14697690D01*
X11502762Y-14697690D02*
X11521810Y-14707214D01*
X11521810Y-14707214D02*
X11531334Y-14726262D01*
X11531334Y-14726262D02*
X11531334Y-14745309D01*
X11531334Y-14745309D02*
X11436096Y-14764357D01*
X11607524Y-14821500D02*
X11626572Y-14831024D01*
X11626572Y-14831024D02*
X11664667Y-14831024D01*
X11664667Y-14831024D02*
X11683715Y-14821500D01*
X11683715Y-14821500D02*
X11693238Y-14802452D01*
X11693238Y-14802452D02*
X11693238Y-14792928D01*
X11693238Y-14792928D02*
X11683715Y-14773881D01*
X11683715Y-14773881D02*
X11664667Y-14764357D01*
X11664667Y-14764357D02*
X11636096Y-14764357D01*
X11636096Y-14764357D02*
X11617048Y-14754833D01*
X11617048Y-14754833D02*
X11607524Y-14735786D01*
X11607524Y-14735786D02*
X11607524Y-14726262D01*
X11607524Y-14726262D02*
X11617048Y-14707214D01*
X11617048Y-14707214D02*
X11636096Y-14697690D01*
X11636096Y-14697690D02*
X11664667Y-14697690D01*
X11664667Y-14697690D02*
X11683715Y-14707214D01*
X11759905Y-14907214D02*
X11769429Y-14897690D01*
X11769429Y-14897690D02*
X11788477Y-14869119D01*
X11788477Y-14869119D02*
X11798000Y-14850071D01*
X11798000Y-14850071D02*
X11807524Y-14821500D01*
X11807524Y-14821500D02*
X11817048Y-14773881D01*
X11817048Y-14773881D02*
X11817048Y-14735786D01*
X11817048Y-14735786D02*
X11807524Y-14688167D01*
X11807524Y-14688167D02*
X11798000Y-14659595D01*
X11798000Y-14659595D02*
X11788477Y-14640548D01*
X11788477Y-14640548D02*
X11769429Y-14611976D01*
X11769429Y-14611976D02*
X11759905Y-14602452D01*
D18*
X6858000Y-14932500D02*
X6998000Y-15072500D01*
X6998000Y-14932500D02*
X6858000Y-15072500D01*
X6977498Y-15051998D02*
X6977498Y-14953002D01*
X6878502Y-14953002D01*
X6878502Y-15051998D01*
X6977498Y-15051998D01*
D11*
X7350381Y-15095024D02*
X7236095Y-15095024D01*
X7293238Y-15095024D02*
X7293238Y-14895024D01*
X7293238Y-14895024D02*
X7274190Y-14923595D01*
X7274190Y-14923595D02*
X7255143Y-14942643D01*
X7255143Y-14942643D02*
X7236095Y-14952167D01*
X7436095Y-15075976D02*
X7445619Y-15085500D01*
X7445619Y-15085500D02*
X7436095Y-15095024D01*
X7436095Y-15095024D02*
X7426571Y-15085500D01*
X7426571Y-15085500D02*
X7436095Y-15075976D01*
X7436095Y-15075976D02*
X7436095Y-15095024D01*
X7617048Y-14961690D02*
X7617048Y-15095024D01*
X7569428Y-14885500D02*
X7521809Y-15028357D01*
X7521809Y-15028357D02*
X7645619Y-15028357D01*
X7759905Y-14895024D02*
X7778952Y-14895024D01*
X7778952Y-14895024D02*
X7798000Y-14904548D01*
X7798000Y-14904548D02*
X7807524Y-14914071D01*
X7807524Y-14914071D02*
X7817048Y-14933119D01*
X7817048Y-14933119D02*
X7826571Y-14971214D01*
X7826571Y-14971214D02*
X7826571Y-15018833D01*
X7826571Y-15018833D02*
X7817048Y-15056928D01*
X7817048Y-15056928D02*
X7807524Y-15075976D01*
X7807524Y-15075976D02*
X7798000Y-15085500D01*
X7798000Y-15085500D02*
X7778952Y-15095024D01*
X7778952Y-15095024D02*
X7759905Y-15095024D01*
X7759905Y-15095024D02*
X7740857Y-15085500D01*
X7740857Y-15085500D02*
X7731333Y-15075976D01*
X7731333Y-15075976D02*
X7721809Y-15056928D01*
X7721809Y-15056928D02*
X7712286Y-15018833D01*
X7712286Y-15018833D02*
X7712286Y-14971214D01*
X7712286Y-14971214D02*
X7721809Y-14933119D01*
X7721809Y-14933119D02*
X7731333Y-14914071D01*
X7731333Y-14914071D02*
X7740857Y-14904548D01*
X7740857Y-14904548D02*
X7759905Y-14895024D01*
X7950381Y-14895024D02*
X7969429Y-14895024D01*
X7969429Y-14895024D02*
X7988476Y-14904548D01*
X7988476Y-14904548D02*
X7998000Y-14914071D01*
X7998000Y-14914071D02*
X8007524Y-14933119D01*
X8007524Y-14933119D02*
X8017048Y-14971214D01*
X8017048Y-14971214D02*
X8017048Y-15018833D01*
X8017048Y-15018833D02*
X8007524Y-15056928D01*
X8007524Y-15056928D02*
X7998000Y-15075976D01*
X7998000Y-15075976D02*
X7988476Y-15085500D01*
X7988476Y-15085500D02*
X7969429Y-15095024D01*
X7969429Y-15095024D02*
X7950381Y-15095024D01*
X7950381Y-15095024D02*
X7931333Y-15085500D01*
X7931333Y-15085500D02*
X7921809Y-15075976D01*
X7921809Y-15075976D02*
X7912286Y-15056928D01*
X7912286Y-15056928D02*
X7902762Y-15018833D01*
X7902762Y-15018833D02*
X7902762Y-14971214D01*
X7902762Y-14971214D02*
X7912286Y-14933119D01*
X7912286Y-14933119D02*
X7921809Y-14914071D01*
X7921809Y-14914071D02*
X7931333Y-14904548D01*
X7931333Y-14904548D02*
X7950381Y-14895024D01*
X8102762Y-15095024D02*
X8102762Y-14961690D01*
X8102762Y-14980738D02*
X8112286Y-14971214D01*
X8112286Y-14971214D02*
X8131333Y-14961690D01*
X8131333Y-14961690D02*
X8159905Y-14961690D01*
X8159905Y-14961690D02*
X8178952Y-14971214D01*
X8178952Y-14971214D02*
X8188476Y-14990262D01*
X8188476Y-14990262D02*
X8188476Y-15095024D01*
X8188476Y-14990262D02*
X8198000Y-14971214D01*
X8198000Y-14971214D02*
X8217048Y-14961690D01*
X8217048Y-14961690D02*
X8245619Y-14961690D01*
X8245619Y-14961690D02*
X8264667Y-14971214D01*
X8264667Y-14971214D02*
X8274190Y-14990262D01*
X8274190Y-14990262D02*
X8274190Y-15095024D01*
X8369429Y-15095024D02*
X8369429Y-14961690D01*
X8369429Y-14980738D02*
X8378952Y-14971214D01*
X8378952Y-14971214D02*
X8398000Y-14961690D01*
X8398000Y-14961690D02*
X8426572Y-14961690D01*
X8426572Y-14961690D02*
X8445619Y-14971214D01*
X8445619Y-14971214D02*
X8455143Y-14990262D01*
X8455143Y-14990262D02*
X8455143Y-15095024D01*
X8455143Y-14990262D02*
X8464667Y-14971214D01*
X8464667Y-14971214D02*
X8483714Y-14961690D01*
X8483714Y-14961690D02*
X8512286Y-14961690D01*
X8512286Y-14961690D02*
X8531333Y-14971214D01*
X8531333Y-14971214D02*
X8540857Y-14990262D01*
X8540857Y-14990262D02*
X8540857Y-15095024D01*
X8931333Y-14885500D02*
X8759905Y-15142643D01*
X9188476Y-14895024D02*
X9207524Y-14895024D01*
X9207524Y-14895024D02*
X9226572Y-14904548D01*
X9226572Y-14904548D02*
X9236095Y-14914071D01*
X9236095Y-14914071D02*
X9245619Y-14933119D01*
X9245619Y-14933119D02*
X9255143Y-14971214D01*
X9255143Y-14971214D02*
X9255143Y-15018833D01*
X9255143Y-15018833D02*
X9245619Y-15056928D01*
X9245619Y-15056928D02*
X9236095Y-15075976D01*
X9236095Y-15075976D02*
X9226572Y-15085500D01*
X9226572Y-15085500D02*
X9207524Y-15095024D01*
X9207524Y-15095024D02*
X9188476Y-15095024D01*
X9188476Y-15095024D02*
X9169429Y-15085500D01*
X9169429Y-15085500D02*
X9159905Y-15075976D01*
X9159905Y-15075976D02*
X9150381Y-15056928D01*
X9150381Y-15056928D02*
X9140857Y-15018833D01*
X9140857Y-15018833D02*
X9140857Y-14971214D01*
X9140857Y-14971214D02*
X9150381Y-14933119D01*
X9150381Y-14933119D02*
X9159905Y-14914071D01*
X9159905Y-14914071D02*
X9169429Y-14904548D01*
X9169429Y-14904548D02*
X9188476Y-14895024D01*
X9340857Y-15075976D02*
X9350381Y-15085500D01*
X9350381Y-15085500D02*
X9340857Y-15095024D01*
X9340857Y-15095024D02*
X9331334Y-15085500D01*
X9331334Y-15085500D02*
X9340857Y-15075976D01*
X9340857Y-15075976D02*
X9340857Y-15095024D01*
X9474191Y-14895024D02*
X9493238Y-14895024D01*
X9493238Y-14895024D02*
X9512286Y-14904548D01*
X9512286Y-14904548D02*
X9521810Y-14914071D01*
X9521810Y-14914071D02*
X9531334Y-14933119D01*
X9531334Y-14933119D02*
X9540857Y-14971214D01*
X9540857Y-14971214D02*
X9540857Y-15018833D01*
X9540857Y-15018833D02*
X9531334Y-15056928D01*
X9531334Y-15056928D02*
X9521810Y-15075976D01*
X9521810Y-15075976D02*
X9512286Y-15085500D01*
X9512286Y-15085500D02*
X9493238Y-15095024D01*
X9493238Y-15095024D02*
X9474191Y-15095024D01*
X9474191Y-15095024D02*
X9455143Y-15085500D01*
X9455143Y-15085500D02*
X9445619Y-15075976D01*
X9445619Y-15075976D02*
X9436095Y-15056928D01*
X9436095Y-15056928D02*
X9426572Y-15018833D01*
X9426572Y-15018833D02*
X9426572Y-14971214D01*
X9426572Y-14971214D02*
X9436095Y-14933119D01*
X9436095Y-14933119D02*
X9445619Y-14914071D01*
X9445619Y-14914071D02*
X9455143Y-14904548D01*
X9455143Y-14904548D02*
X9474191Y-14895024D01*
X9721810Y-14895024D02*
X9626572Y-14895024D01*
X9626572Y-14895024D02*
X9617048Y-14990262D01*
X9617048Y-14990262D02*
X9626572Y-14980738D01*
X9626572Y-14980738D02*
X9645619Y-14971214D01*
X9645619Y-14971214D02*
X9693238Y-14971214D01*
X9693238Y-14971214D02*
X9712286Y-14980738D01*
X9712286Y-14980738D02*
X9721810Y-14990262D01*
X9721810Y-14990262D02*
X9731334Y-15009309D01*
X9731334Y-15009309D02*
X9731334Y-15056928D01*
X9731334Y-15056928D02*
X9721810Y-15075976D01*
X9721810Y-15075976D02*
X9712286Y-15085500D01*
X9712286Y-15085500D02*
X9693238Y-15095024D01*
X9693238Y-15095024D02*
X9645619Y-15095024D01*
X9645619Y-15095024D02*
X9626572Y-15085500D01*
X9626572Y-15085500D02*
X9617048Y-15075976D01*
X9912286Y-14895024D02*
X9817048Y-14895024D01*
X9817048Y-14895024D02*
X9807524Y-14990262D01*
X9807524Y-14990262D02*
X9817048Y-14980738D01*
X9817048Y-14980738D02*
X9836095Y-14971214D01*
X9836095Y-14971214D02*
X9883715Y-14971214D01*
X9883715Y-14971214D02*
X9902762Y-14980738D01*
X9902762Y-14980738D02*
X9912286Y-14990262D01*
X9912286Y-14990262D02*
X9921810Y-15009309D01*
X9921810Y-15009309D02*
X9921810Y-15056928D01*
X9921810Y-15056928D02*
X9912286Y-15075976D01*
X9912286Y-15075976D02*
X9902762Y-15085500D01*
X9902762Y-15085500D02*
X9883715Y-15095024D01*
X9883715Y-15095024D02*
X9836095Y-15095024D01*
X9836095Y-15095024D02*
X9817048Y-15085500D01*
X9817048Y-15085500D02*
X9807524Y-15075976D01*
X10112286Y-15095024D02*
X9998000Y-15095024D01*
X10055143Y-15095024D02*
X10055143Y-14895024D01*
X10055143Y-14895024D02*
X10036095Y-14923595D01*
X10036095Y-14923595D02*
X10017048Y-14942643D01*
X10017048Y-14942643D02*
X9998000Y-14952167D01*
X10188476Y-14895024D02*
X10188476Y-14933119D01*
X10264667Y-14895024D02*
X10264667Y-14933119D01*
X10559905Y-15171214D02*
X10550381Y-15161690D01*
X10550381Y-15161690D02*
X10531334Y-15133119D01*
X10531334Y-15133119D02*
X10521810Y-15114071D01*
X10521810Y-15114071D02*
X10512286Y-15085500D01*
X10512286Y-15085500D02*
X10502762Y-15037881D01*
X10502762Y-15037881D02*
X10502762Y-14999786D01*
X10502762Y-14999786D02*
X10512286Y-14952167D01*
X10512286Y-14952167D02*
X10521810Y-14923595D01*
X10521810Y-14923595D02*
X10531334Y-14904548D01*
X10531334Y-14904548D02*
X10550381Y-14875976D01*
X10550381Y-14875976D02*
X10559905Y-14866452D01*
X10626572Y-14914071D02*
X10636096Y-14904548D01*
X10636096Y-14904548D02*
X10655143Y-14895024D01*
X10655143Y-14895024D02*
X10702762Y-14895024D01*
X10702762Y-14895024D02*
X10721810Y-14904548D01*
X10721810Y-14904548D02*
X10731334Y-14914071D01*
X10731334Y-14914071D02*
X10740857Y-14933119D01*
X10740857Y-14933119D02*
X10740857Y-14952167D01*
X10740857Y-14952167D02*
X10731334Y-14980738D01*
X10731334Y-14980738D02*
X10617048Y-15095024D01*
X10617048Y-15095024D02*
X10740857Y-15095024D01*
X10978953Y-15095024D02*
X10978953Y-14895024D01*
X11064667Y-15095024D02*
X11064667Y-14990262D01*
X11064667Y-14990262D02*
X11055143Y-14971214D01*
X11055143Y-14971214D02*
X11036096Y-14961690D01*
X11036096Y-14961690D02*
X11007524Y-14961690D01*
X11007524Y-14961690D02*
X10988477Y-14971214D01*
X10988477Y-14971214D02*
X10978953Y-14980738D01*
X11188476Y-15095024D02*
X11169429Y-15085500D01*
X11169429Y-15085500D02*
X11159905Y-15075976D01*
X11159905Y-15075976D02*
X11150381Y-15056928D01*
X11150381Y-15056928D02*
X11150381Y-14999786D01*
X11150381Y-14999786D02*
X11159905Y-14980738D01*
X11159905Y-14980738D02*
X11169429Y-14971214D01*
X11169429Y-14971214D02*
X11188476Y-14961690D01*
X11188476Y-14961690D02*
X11217048Y-14961690D01*
X11217048Y-14961690D02*
X11236096Y-14971214D01*
X11236096Y-14971214D02*
X11245619Y-14980738D01*
X11245619Y-14980738D02*
X11255143Y-14999786D01*
X11255143Y-14999786D02*
X11255143Y-15056928D01*
X11255143Y-15056928D02*
X11245619Y-15075976D01*
X11245619Y-15075976D02*
X11236096Y-15085500D01*
X11236096Y-15085500D02*
X11217048Y-15095024D01*
X11217048Y-15095024D02*
X11188476Y-15095024D01*
X11369429Y-15095024D02*
X11350381Y-15085500D01*
X11350381Y-15085500D02*
X11340857Y-15066452D01*
X11340857Y-15066452D02*
X11340857Y-14895024D01*
X11521810Y-15085500D02*
X11502762Y-15095024D01*
X11502762Y-15095024D02*
X11464667Y-15095024D01*
X11464667Y-15095024D02*
X11445619Y-15085500D01*
X11445619Y-15085500D02*
X11436096Y-15066452D01*
X11436096Y-15066452D02*
X11436096Y-14990262D01*
X11436096Y-14990262D02*
X11445619Y-14971214D01*
X11445619Y-14971214D02*
X11464667Y-14961690D01*
X11464667Y-14961690D02*
X11502762Y-14961690D01*
X11502762Y-14961690D02*
X11521810Y-14971214D01*
X11521810Y-14971214D02*
X11531334Y-14990262D01*
X11531334Y-14990262D02*
X11531334Y-15009309D01*
X11531334Y-15009309D02*
X11436096Y-15028357D01*
X11607524Y-15085500D02*
X11626572Y-15095024D01*
X11626572Y-15095024D02*
X11664667Y-15095024D01*
X11664667Y-15095024D02*
X11683715Y-15085500D01*
X11683715Y-15085500D02*
X11693238Y-15066452D01*
X11693238Y-15066452D02*
X11693238Y-15056928D01*
X11693238Y-15056928D02*
X11683715Y-15037881D01*
X11683715Y-15037881D02*
X11664667Y-15028357D01*
X11664667Y-15028357D02*
X11636096Y-15028357D01*
X11636096Y-15028357D02*
X11617048Y-15018833D01*
X11617048Y-15018833D02*
X11607524Y-14999786D01*
X11607524Y-14999786D02*
X11607524Y-14990262D01*
X11607524Y-14990262D02*
X11617048Y-14971214D01*
X11617048Y-14971214D02*
X11636096Y-14961690D01*
X11636096Y-14961690D02*
X11664667Y-14961690D01*
X11664667Y-14961690D02*
X11683715Y-14971214D01*
X11759905Y-15171214D02*
X11769429Y-15161690D01*
X11769429Y-15161690D02*
X11788477Y-15133119D01*
X11788477Y-15133119D02*
X11798000Y-15114071D01*
X11798000Y-15114071D02*
X11807524Y-15085500D01*
X11807524Y-15085500D02*
X11817048Y-15037881D01*
X11817048Y-15037881D02*
X11817048Y-14999786D01*
X11817048Y-14999786D02*
X11807524Y-14952167D01*
X11807524Y-14952167D02*
X11798000Y-14923595D01*
X11798000Y-14923595D02*
X11788477Y-14904548D01*
X11788477Y-14904548D02*
X11769429Y-14875976D01*
X11769429Y-14875976D02*
X11759905Y-14866452D01*
D19*
X6848000Y-15191500D02*
X6998000Y-15341500D01*
X6998000Y-15191500D02*
X6848000Y-15341500D01*
X6923000Y-15341500D02*
X6998000Y-15266500D01*
X6923000Y-15191500D01*
X6848000Y-15266500D01*
X6923000Y-15341500D01*
D11*
X7350381Y-15359024D02*
X7236095Y-15359024D01*
X7293238Y-15359024D02*
X7293238Y-15159024D01*
X7293238Y-15159024D02*
X7274190Y-15187595D01*
X7274190Y-15187595D02*
X7255143Y-15206643D01*
X7255143Y-15206643D02*
X7236095Y-15216167D01*
X7436095Y-15339976D02*
X7445619Y-15349500D01*
X7445619Y-15349500D02*
X7436095Y-15359024D01*
X7436095Y-15359024D02*
X7426571Y-15349500D01*
X7426571Y-15349500D02*
X7436095Y-15339976D01*
X7436095Y-15339976D02*
X7436095Y-15359024D01*
X7626571Y-15159024D02*
X7531333Y-15159024D01*
X7531333Y-15159024D02*
X7521809Y-15254262D01*
X7521809Y-15254262D02*
X7531333Y-15244738D01*
X7531333Y-15244738D02*
X7550381Y-15235214D01*
X7550381Y-15235214D02*
X7598000Y-15235214D01*
X7598000Y-15235214D02*
X7617048Y-15244738D01*
X7617048Y-15244738D02*
X7626571Y-15254262D01*
X7626571Y-15254262D02*
X7636095Y-15273309D01*
X7636095Y-15273309D02*
X7636095Y-15320928D01*
X7636095Y-15320928D02*
X7626571Y-15339976D01*
X7626571Y-15339976D02*
X7617048Y-15349500D01*
X7617048Y-15349500D02*
X7598000Y-15359024D01*
X7598000Y-15359024D02*
X7550381Y-15359024D01*
X7550381Y-15359024D02*
X7531333Y-15349500D01*
X7531333Y-15349500D02*
X7521809Y-15339976D01*
X7759905Y-15159024D02*
X7778952Y-15159024D01*
X7778952Y-15159024D02*
X7798000Y-15168548D01*
X7798000Y-15168548D02*
X7807524Y-15178071D01*
X7807524Y-15178071D02*
X7817048Y-15197119D01*
X7817048Y-15197119D02*
X7826571Y-15235214D01*
X7826571Y-15235214D02*
X7826571Y-15282833D01*
X7826571Y-15282833D02*
X7817048Y-15320928D01*
X7817048Y-15320928D02*
X7807524Y-15339976D01*
X7807524Y-15339976D02*
X7798000Y-15349500D01*
X7798000Y-15349500D02*
X7778952Y-15359024D01*
X7778952Y-15359024D02*
X7759905Y-15359024D01*
X7759905Y-15359024D02*
X7740857Y-15349500D01*
X7740857Y-15349500D02*
X7731333Y-15339976D01*
X7731333Y-15339976D02*
X7721809Y-15320928D01*
X7721809Y-15320928D02*
X7712286Y-15282833D01*
X7712286Y-15282833D02*
X7712286Y-15235214D01*
X7712286Y-15235214D02*
X7721809Y-15197119D01*
X7721809Y-15197119D02*
X7731333Y-15178071D01*
X7731333Y-15178071D02*
X7740857Y-15168548D01*
X7740857Y-15168548D02*
X7759905Y-15159024D01*
X7950381Y-15159024D02*
X7969429Y-15159024D01*
X7969429Y-15159024D02*
X7988476Y-15168548D01*
X7988476Y-15168548D02*
X7998000Y-15178071D01*
X7998000Y-15178071D02*
X8007524Y-15197119D01*
X8007524Y-15197119D02*
X8017048Y-15235214D01*
X8017048Y-15235214D02*
X8017048Y-15282833D01*
X8017048Y-15282833D02*
X8007524Y-15320928D01*
X8007524Y-15320928D02*
X7998000Y-15339976D01*
X7998000Y-15339976D02*
X7988476Y-15349500D01*
X7988476Y-15349500D02*
X7969429Y-15359024D01*
X7969429Y-15359024D02*
X7950381Y-15359024D01*
X7950381Y-15359024D02*
X7931333Y-15349500D01*
X7931333Y-15349500D02*
X7921809Y-15339976D01*
X7921809Y-15339976D02*
X7912286Y-15320928D01*
X7912286Y-15320928D02*
X7902762Y-15282833D01*
X7902762Y-15282833D02*
X7902762Y-15235214D01*
X7902762Y-15235214D02*
X7912286Y-15197119D01*
X7912286Y-15197119D02*
X7921809Y-15178071D01*
X7921809Y-15178071D02*
X7931333Y-15168548D01*
X7931333Y-15168548D02*
X7950381Y-15159024D01*
X8102762Y-15359024D02*
X8102762Y-15225690D01*
X8102762Y-15244738D02*
X8112286Y-15235214D01*
X8112286Y-15235214D02*
X8131333Y-15225690D01*
X8131333Y-15225690D02*
X8159905Y-15225690D01*
X8159905Y-15225690D02*
X8178952Y-15235214D01*
X8178952Y-15235214D02*
X8188476Y-15254262D01*
X8188476Y-15254262D02*
X8188476Y-15359024D01*
X8188476Y-15254262D02*
X8198000Y-15235214D01*
X8198000Y-15235214D02*
X8217048Y-15225690D01*
X8217048Y-15225690D02*
X8245619Y-15225690D01*
X8245619Y-15225690D02*
X8264667Y-15235214D01*
X8264667Y-15235214D02*
X8274190Y-15254262D01*
X8274190Y-15254262D02*
X8274190Y-15359024D01*
X8369429Y-15359024D02*
X8369429Y-15225690D01*
X8369429Y-15244738D02*
X8378952Y-15235214D01*
X8378952Y-15235214D02*
X8398000Y-15225690D01*
X8398000Y-15225690D02*
X8426572Y-15225690D01*
X8426572Y-15225690D02*
X8445619Y-15235214D01*
X8445619Y-15235214D02*
X8455143Y-15254262D01*
X8455143Y-15254262D02*
X8455143Y-15359024D01*
X8455143Y-15254262D02*
X8464667Y-15235214D01*
X8464667Y-15235214D02*
X8483714Y-15225690D01*
X8483714Y-15225690D02*
X8512286Y-15225690D01*
X8512286Y-15225690D02*
X8531333Y-15235214D01*
X8531333Y-15235214D02*
X8540857Y-15254262D01*
X8540857Y-15254262D02*
X8540857Y-15359024D01*
X8931333Y-15149500D02*
X8759905Y-15406643D01*
X9188476Y-15159024D02*
X9207524Y-15159024D01*
X9207524Y-15159024D02*
X9226572Y-15168548D01*
X9226572Y-15168548D02*
X9236095Y-15178071D01*
X9236095Y-15178071D02*
X9245619Y-15197119D01*
X9245619Y-15197119D02*
X9255143Y-15235214D01*
X9255143Y-15235214D02*
X9255143Y-15282833D01*
X9255143Y-15282833D02*
X9245619Y-15320928D01*
X9245619Y-15320928D02*
X9236095Y-15339976D01*
X9236095Y-15339976D02*
X9226572Y-15349500D01*
X9226572Y-15349500D02*
X9207524Y-15359024D01*
X9207524Y-15359024D02*
X9188476Y-15359024D01*
X9188476Y-15359024D02*
X9169429Y-15349500D01*
X9169429Y-15349500D02*
X9159905Y-15339976D01*
X9159905Y-15339976D02*
X9150381Y-15320928D01*
X9150381Y-15320928D02*
X9140857Y-15282833D01*
X9140857Y-15282833D02*
X9140857Y-15235214D01*
X9140857Y-15235214D02*
X9150381Y-15197119D01*
X9150381Y-15197119D02*
X9159905Y-15178071D01*
X9159905Y-15178071D02*
X9169429Y-15168548D01*
X9169429Y-15168548D02*
X9188476Y-15159024D01*
X9340857Y-15339976D02*
X9350381Y-15349500D01*
X9350381Y-15349500D02*
X9340857Y-15359024D01*
X9340857Y-15359024D02*
X9331334Y-15349500D01*
X9331334Y-15349500D02*
X9340857Y-15339976D01*
X9340857Y-15339976D02*
X9340857Y-15359024D01*
X9474191Y-15159024D02*
X9493238Y-15159024D01*
X9493238Y-15159024D02*
X9512286Y-15168548D01*
X9512286Y-15168548D02*
X9521810Y-15178071D01*
X9521810Y-15178071D02*
X9531334Y-15197119D01*
X9531334Y-15197119D02*
X9540857Y-15235214D01*
X9540857Y-15235214D02*
X9540857Y-15282833D01*
X9540857Y-15282833D02*
X9531334Y-15320928D01*
X9531334Y-15320928D02*
X9521810Y-15339976D01*
X9521810Y-15339976D02*
X9512286Y-15349500D01*
X9512286Y-15349500D02*
X9493238Y-15359024D01*
X9493238Y-15359024D02*
X9474191Y-15359024D01*
X9474191Y-15359024D02*
X9455143Y-15349500D01*
X9455143Y-15349500D02*
X9445619Y-15339976D01*
X9445619Y-15339976D02*
X9436095Y-15320928D01*
X9436095Y-15320928D02*
X9426572Y-15282833D01*
X9426572Y-15282833D02*
X9426572Y-15235214D01*
X9426572Y-15235214D02*
X9436095Y-15197119D01*
X9436095Y-15197119D02*
X9445619Y-15178071D01*
X9445619Y-15178071D02*
X9455143Y-15168548D01*
X9455143Y-15168548D02*
X9474191Y-15159024D01*
X9721810Y-15159024D02*
X9626572Y-15159024D01*
X9626572Y-15159024D02*
X9617048Y-15254262D01*
X9617048Y-15254262D02*
X9626572Y-15244738D01*
X9626572Y-15244738D02*
X9645619Y-15235214D01*
X9645619Y-15235214D02*
X9693238Y-15235214D01*
X9693238Y-15235214D02*
X9712286Y-15244738D01*
X9712286Y-15244738D02*
X9721810Y-15254262D01*
X9721810Y-15254262D02*
X9731334Y-15273309D01*
X9731334Y-15273309D02*
X9731334Y-15320928D01*
X9731334Y-15320928D02*
X9721810Y-15339976D01*
X9721810Y-15339976D02*
X9712286Y-15349500D01*
X9712286Y-15349500D02*
X9693238Y-15359024D01*
X9693238Y-15359024D02*
X9645619Y-15359024D01*
X9645619Y-15359024D02*
X9626572Y-15349500D01*
X9626572Y-15349500D02*
X9617048Y-15339976D01*
X9826572Y-15359024D02*
X9864667Y-15359024D01*
X9864667Y-15359024D02*
X9883715Y-15349500D01*
X9883715Y-15349500D02*
X9893238Y-15339976D01*
X9893238Y-15339976D02*
X9912286Y-15311405D01*
X9912286Y-15311405D02*
X9921810Y-15273309D01*
X9921810Y-15273309D02*
X9921810Y-15197119D01*
X9921810Y-15197119D02*
X9912286Y-15178071D01*
X9912286Y-15178071D02*
X9902762Y-15168548D01*
X9902762Y-15168548D02*
X9883715Y-15159024D01*
X9883715Y-15159024D02*
X9845619Y-15159024D01*
X9845619Y-15159024D02*
X9826572Y-15168548D01*
X9826572Y-15168548D02*
X9817048Y-15178071D01*
X9817048Y-15178071D02*
X9807524Y-15197119D01*
X9807524Y-15197119D02*
X9807524Y-15244738D01*
X9807524Y-15244738D02*
X9817048Y-15263786D01*
X9817048Y-15263786D02*
X9826572Y-15273309D01*
X9826572Y-15273309D02*
X9845619Y-15282833D01*
X9845619Y-15282833D02*
X9883715Y-15282833D01*
X9883715Y-15282833D02*
X9902762Y-15273309D01*
X9902762Y-15273309D02*
X9912286Y-15263786D01*
X9912286Y-15263786D02*
X9921810Y-15244738D01*
X10112286Y-15359024D02*
X9998000Y-15359024D01*
X10055143Y-15359024D02*
X10055143Y-15159024D01*
X10055143Y-15159024D02*
X10036095Y-15187595D01*
X10036095Y-15187595D02*
X10017048Y-15206643D01*
X10017048Y-15206643D02*
X9998000Y-15216167D01*
X10188476Y-15159024D02*
X10188476Y-15197119D01*
X10264667Y-15159024D02*
X10264667Y-15197119D01*
X10559905Y-15435214D02*
X10550381Y-15425690D01*
X10550381Y-15425690D02*
X10531334Y-15397119D01*
X10531334Y-15397119D02*
X10521810Y-15378071D01*
X10521810Y-15378071D02*
X10512286Y-15349500D01*
X10512286Y-15349500D02*
X10502762Y-15301881D01*
X10502762Y-15301881D02*
X10502762Y-15263786D01*
X10502762Y-15263786D02*
X10512286Y-15216167D01*
X10512286Y-15216167D02*
X10521810Y-15187595D01*
X10521810Y-15187595D02*
X10531334Y-15168548D01*
X10531334Y-15168548D02*
X10550381Y-15139976D01*
X10550381Y-15139976D02*
X10559905Y-15130452D01*
X10674191Y-15159024D02*
X10693238Y-15159024D01*
X10693238Y-15159024D02*
X10712286Y-15168548D01*
X10712286Y-15168548D02*
X10721810Y-15178071D01*
X10721810Y-15178071D02*
X10731334Y-15197119D01*
X10731334Y-15197119D02*
X10740857Y-15235214D01*
X10740857Y-15235214D02*
X10740857Y-15282833D01*
X10740857Y-15282833D02*
X10731334Y-15320928D01*
X10731334Y-15320928D02*
X10721810Y-15339976D01*
X10721810Y-15339976D02*
X10712286Y-15349500D01*
X10712286Y-15349500D02*
X10693238Y-15359024D01*
X10693238Y-15359024D02*
X10674191Y-15359024D01*
X10674191Y-15359024D02*
X10655143Y-15349500D01*
X10655143Y-15349500D02*
X10645619Y-15339976D01*
X10645619Y-15339976D02*
X10636096Y-15320928D01*
X10636096Y-15320928D02*
X10626572Y-15282833D01*
X10626572Y-15282833D02*
X10626572Y-15235214D01*
X10626572Y-15235214D02*
X10636096Y-15197119D01*
X10636096Y-15197119D02*
X10645619Y-15178071D01*
X10645619Y-15178071D02*
X10655143Y-15168548D01*
X10655143Y-15168548D02*
X10674191Y-15159024D01*
X10978953Y-15359024D02*
X10978953Y-15159024D01*
X11064667Y-15359024D02*
X11064667Y-15254262D01*
X11064667Y-15254262D02*
X11055143Y-15235214D01*
X11055143Y-15235214D02*
X11036096Y-15225690D01*
X11036096Y-15225690D02*
X11007524Y-15225690D01*
X11007524Y-15225690D02*
X10988477Y-15235214D01*
X10988477Y-15235214D02*
X10978953Y-15244738D01*
X11188476Y-15359024D02*
X11169429Y-15349500D01*
X11169429Y-15349500D02*
X11159905Y-15339976D01*
X11159905Y-15339976D02*
X11150381Y-15320928D01*
X11150381Y-15320928D02*
X11150381Y-15263786D01*
X11150381Y-15263786D02*
X11159905Y-15244738D01*
X11159905Y-15244738D02*
X11169429Y-15235214D01*
X11169429Y-15235214D02*
X11188476Y-15225690D01*
X11188476Y-15225690D02*
X11217048Y-15225690D01*
X11217048Y-15225690D02*
X11236096Y-15235214D01*
X11236096Y-15235214D02*
X11245619Y-15244738D01*
X11245619Y-15244738D02*
X11255143Y-15263786D01*
X11255143Y-15263786D02*
X11255143Y-15320928D01*
X11255143Y-15320928D02*
X11245619Y-15339976D01*
X11245619Y-15339976D02*
X11236096Y-15349500D01*
X11236096Y-15349500D02*
X11217048Y-15359024D01*
X11217048Y-15359024D02*
X11188476Y-15359024D01*
X11369429Y-15359024D02*
X11350381Y-15349500D01*
X11350381Y-15349500D02*
X11340857Y-15330452D01*
X11340857Y-15330452D02*
X11340857Y-15159024D01*
X11521810Y-15349500D02*
X11502762Y-15359024D01*
X11502762Y-15359024D02*
X11464667Y-15359024D01*
X11464667Y-15359024D02*
X11445619Y-15349500D01*
X11445619Y-15349500D02*
X11436096Y-15330452D01*
X11436096Y-15330452D02*
X11436096Y-15254262D01*
X11436096Y-15254262D02*
X11445619Y-15235214D01*
X11445619Y-15235214D02*
X11464667Y-15225690D01*
X11464667Y-15225690D02*
X11502762Y-15225690D01*
X11502762Y-15225690D02*
X11521810Y-15235214D01*
X11521810Y-15235214D02*
X11531334Y-15254262D01*
X11531334Y-15254262D02*
X11531334Y-15273309D01*
X11531334Y-15273309D02*
X11436096Y-15292357D01*
X11607524Y-15349500D02*
X11626572Y-15359024D01*
X11626572Y-15359024D02*
X11664667Y-15359024D01*
X11664667Y-15359024D02*
X11683715Y-15349500D01*
X11683715Y-15349500D02*
X11693238Y-15330452D01*
X11693238Y-15330452D02*
X11693238Y-15320928D01*
X11693238Y-15320928D02*
X11683715Y-15301881D01*
X11683715Y-15301881D02*
X11664667Y-15292357D01*
X11664667Y-15292357D02*
X11636096Y-15292357D01*
X11636096Y-15292357D02*
X11617048Y-15282833D01*
X11617048Y-15282833D02*
X11607524Y-15263786D01*
X11607524Y-15263786D02*
X11607524Y-15254262D01*
X11607524Y-15254262D02*
X11617048Y-15235214D01*
X11617048Y-15235214D02*
X11636096Y-15225690D01*
X11636096Y-15225690D02*
X11664667Y-15225690D01*
X11664667Y-15225690D02*
X11683715Y-15235214D01*
X11931334Y-15282833D02*
X12083715Y-15282833D01*
X12007524Y-15359024D02*
X12007524Y-15206643D01*
X12321810Y-15178071D02*
X12331334Y-15168548D01*
X12331334Y-15168548D02*
X12350381Y-15159024D01*
X12350381Y-15159024D02*
X12398000Y-15159024D01*
X12398000Y-15159024D02*
X12417048Y-15168548D01*
X12417048Y-15168548D02*
X12426572Y-15178071D01*
X12426572Y-15178071D02*
X12436096Y-15197119D01*
X12436096Y-15197119D02*
X12436096Y-15216167D01*
X12436096Y-15216167D02*
X12426572Y-15244738D01*
X12426572Y-15244738D02*
X12312286Y-15359024D01*
X12312286Y-15359024D02*
X12436096Y-15359024D01*
X12664667Y-15349500D02*
X12683715Y-15359024D01*
X12683715Y-15359024D02*
X12721810Y-15359024D01*
X12721810Y-15359024D02*
X12740858Y-15349500D01*
X12740858Y-15349500D02*
X12750381Y-15330452D01*
X12750381Y-15330452D02*
X12750381Y-15320928D01*
X12750381Y-15320928D02*
X12740858Y-15301881D01*
X12740858Y-15301881D02*
X12721810Y-15292357D01*
X12721810Y-15292357D02*
X12693239Y-15292357D01*
X12693239Y-15292357D02*
X12674191Y-15282833D01*
X12674191Y-15282833D02*
X12664667Y-15263786D01*
X12664667Y-15263786D02*
X12664667Y-15254262D01*
X12664667Y-15254262D02*
X12674191Y-15235214D01*
X12674191Y-15235214D02*
X12693239Y-15225690D01*
X12693239Y-15225690D02*
X12721810Y-15225690D01*
X12721810Y-15225690D02*
X12740858Y-15235214D01*
X12864667Y-15359024D02*
X12845620Y-15349500D01*
X12845620Y-15349500D02*
X12836096Y-15330452D01*
X12836096Y-15330452D02*
X12836096Y-15159024D01*
X12969429Y-15359024D02*
X12950381Y-15349500D01*
X12950381Y-15349500D02*
X12940858Y-15339976D01*
X12940858Y-15339976D02*
X12931334Y-15320928D01*
X12931334Y-15320928D02*
X12931334Y-15263786D01*
X12931334Y-15263786D02*
X12940858Y-15244738D01*
X12940858Y-15244738D02*
X12950381Y-15235214D01*
X12950381Y-15235214D02*
X12969429Y-15225690D01*
X12969429Y-15225690D02*
X12998001Y-15225690D01*
X12998001Y-15225690D02*
X13017048Y-15235214D01*
X13017048Y-15235214D02*
X13026572Y-15244738D01*
X13026572Y-15244738D02*
X13036096Y-15263786D01*
X13036096Y-15263786D02*
X13036096Y-15320928D01*
X13036096Y-15320928D02*
X13026572Y-15339976D01*
X13026572Y-15339976D02*
X13017048Y-15349500D01*
X13017048Y-15349500D02*
X12998001Y-15359024D01*
X12998001Y-15359024D02*
X12969429Y-15359024D01*
X13093239Y-15225690D02*
X13169429Y-15225690D01*
X13121810Y-15159024D02*
X13121810Y-15330452D01*
X13121810Y-15330452D02*
X13131334Y-15349500D01*
X13131334Y-15349500D02*
X13150381Y-15359024D01*
X13150381Y-15359024D02*
X13169429Y-15359024D01*
X13226572Y-15349500D02*
X13245620Y-15359024D01*
X13245620Y-15359024D02*
X13283715Y-15359024D01*
X13283715Y-15359024D02*
X13302762Y-15349500D01*
X13302762Y-15349500D02*
X13312286Y-15330452D01*
X13312286Y-15330452D02*
X13312286Y-15320928D01*
X13312286Y-15320928D02*
X13302762Y-15301881D01*
X13302762Y-15301881D02*
X13283715Y-15292357D01*
X13283715Y-15292357D02*
X13255143Y-15292357D01*
X13255143Y-15292357D02*
X13236096Y-15282833D01*
X13236096Y-15282833D02*
X13226572Y-15263786D01*
X13226572Y-15263786D02*
X13226572Y-15254262D01*
X13226572Y-15254262D02*
X13236096Y-15235214D01*
X13236096Y-15235214D02*
X13255143Y-15225690D01*
X13255143Y-15225690D02*
X13283715Y-15225690D01*
X13283715Y-15225690D02*
X13302762Y-15235214D01*
X13378953Y-15435214D02*
X13388477Y-15425690D01*
X13388477Y-15425690D02*
X13407524Y-15397119D01*
X13407524Y-15397119D02*
X13417048Y-15378071D01*
X13417048Y-15378071D02*
X13426572Y-15349500D01*
X13426572Y-15349500D02*
X13436096Y-15301881D01*
X13436096Y-15301881D02*
X13436096Y-15263786D01*
X13436096Y-15263786D02*
X13426572Y-15216167D01*
X13426572Y-15216167D02*
X13417048Y-15187595D01*
X13417048Y-15187595D02*
X13407524Y-15168548D01*
X13407524Y-15168548D02*
X13388477Y-15139976D01*
X13388477Y-15139976D02*
X13378953Y-15130452D01*
M02*
