M48
; DRILL file {KiCad 7.0.1} date Tue Sep 24 21:19:16 2024
; FORMAT={-:-/ absolute / inch / decimal}
; #@! TF.CreationDate,2024-09-24T21:19:16+02:00
; #@! TF.GenerationSoftware,Kicad,Pcbnew,7.0.1
; #@! TF.FileFunction,Plated,1,2,PTH
FMAT,2
INCH
; #@! TA.AperFunction,Plated,PTH,ViaDrill
T1C0.0236
; #@! TA.AperFunction,Plated,PTH,ComponentDrill
T2C0.0315
; #@! TA.AperFunction,Plated,PTH,ComponentDrill
T3C0.0354
; #@! TA.AperFunction,Plated,PTH,ComponentDrill
T4C0.0394
; #@! TA.AperFunction,Plated,PTH,ComponentDrill
T5C0.0433
; #@! TA.AperFunction,Plated,PTH,ComponentDrill
T6C0.0472
; #@! TA.AperFunction,Plated,PTH,ComponentDrill
T7C0.0512
; #@! TA.AperFunction,Plated,PTH,ComponentDrill
T8C0.0551
; #@! TA.AperFunction,Plated,PTH,ComponentDrill
T9C0.0591
%
G90
G05
T1
X3.0771Y-3.195
X4.1871Y-4.725
X4.1971Y-3.185
X4.1971Y-4.105
X4.2071Y-3.885
X4.2371Y-3.3037
X4.2371Y-3.405
X4.2383Y-3.5037
X4.2671Y-3.835
X4.2671Y-3.955
X4.3571Y-4.065
X4.3671Y-3.685
X4.4571Y-3.845
X4.4971Y-2.265
X4.5071Y-3.925
X4.5351Y-3.3774
X4.5371Y-4.255
X4.6071Y-3.855
X4.7112Y-3.3786
X4.7771Y-3.875
X4.9065Y-3.9317
X5.0071Y-4.455
X5.2471Y-3.035
X5.5271Y-3.575
X5.6371Y-3.225
X5.7471Y-3.185
X5.8271Y-3.145
X7.6871Y-3.855
X7.7471Y-3.2292
X7.7471Y-3.455
X7.7771Y-3.895
T2
X4.8459Y-3.2288
X4.8459Y-3.3288
X4.8459Y-3.4288
X4.8459Y-3.5288
X6.1171Y-3.465
X6.2155Y-3.465
X8.0412Y-2.7292
X8.0412Y-2.8292
X8.0412Y-2.9292
X8.0412Y-3.0292
X8.0412Y-3.1292
X8.0412Y-3.2292
X8.0412Y-3.3292
X8.0412Y-3.4292
X8.0412Y-3.5292
X8.0412Y-3.6292
X8.0412Y-3.7292
X8.0412Y-3.8292
X8.0412Y-3.9292
X8.0412Y-4.0292
T3
X3.7325Y-4.7281
X3.8325Y-4.7281
X6.4325Y-3.0287
X6.4325Y-3.1287
X6.4325Y-3.2287
X6.4325Y-3.3287
X6.4325Y-3.4287
X6.4325Y-3.5287
X6.4325Y-3.6287
X6.4325Y-3.7287
X6.4325Y-3.8287
X6.4325Y-3.9287
X6.4325Y-4.0287
X6.4325Y-4.1287
X6.4325Y-4.2287
X6.4325Y-4.3287
X6.4325Y-4.4287
X6.4325Y-4.5287
X6.4325Y-4.6287
X6.4325Y-4.7287
X6.4325Y-4.8287
X7.4323Y-4.7286
X7.4323Y-4.8286
X7.4325Y-3.0287
X7.4325Y-3.1287
X7.4325Y-3.2287
X7.4325Y-3.3287
X7.4325Y-3.4287
X7.4325Y-3.5287
X7.4325Y-3.6287
X7.4325Y-3.7287
X7.4325Y-3.8287
X7.4325Y-3.9287
X7.4325Y-4.0287
X7.4325Y-4.1287
X7.4325Y-4.2287
X7.4325Y-4.3287
X7.4325Y-4.4287
X7.4325Y-4.5287
X7.4325Y-4.6287
T4
X3.0088Y-2.4037
X3.0088Y-2.5037
X3.0088Y-2.8531
X3.0088Y-2.9531
X3.0088Y-3.0531
X3.0088Y-3.3533
X3.0088Y-3.4533
X3.0088Y-3.5533
X3.0088Y-3.6533
X3.7091Y-3.2683
X3.7091Y-3.8392
X3.8075Y-3.8392
X3.9059Y-3.2683
X3.9059Y-3.8392
X5.1872Y-4.445
X5.1872Y-4.7678
X5.2246Y-2.85
X5.3246Y-2.85
X5.325Y-3.825
X5.4246Y-2.85
X5.425Y-3.825
X5.5246Y-2.85
X5.525Y-3.825
X5.6246Y-2.85
X5.625Y-3.825
X5.7246Y-2.85
X5.7778Y-4.445
X5.7778Y-4.7678
X6.1069Y-3.185
X6.1075Y-4.5001
X6.1075Y-4.697
X6.2069Y-3.185
T5
X5.3971Y-4.625
X5.4971Y-4.625
X5.5971Y-4.625
T6
X5.1371Y-2.265
X5.2749Y-2.4619
X5.4127Y-2.265
X5.5505Y-2.4619
X5.6883Y-2.265
X5.8261Y-2.4619
T7
X3.5406Y-2.75
X3.6193Y-2.5138
X3.6193Y-2.9862
X4.0996Y-2.5138
X4.0996Y-2.9862
T8
X3.0575Y-4.0037
X3.0575Y-4.2037
T9
G00X3.587Y-3.5695
M15
G01X3.587Y-3.5183
M16
G05
G00X4.028Y-3.5695
M15
G01X4.028Y-3.5183
M16
G05
T0
M30
