%TF.GenerationSoftware,KiCad,Pcbnew,7.0.1*%
%TF.CreationDate,2024-11-06T09:58:47+01:00*%
%TF.ProjectId,mangiatoia,6d616e67-6961-4746-9f69-612e6b696361,1.1*%
%TF.SameCoordinates,Original*%
%TF.FileFunction,Drillmap*%
%TF.FilePolarity,Positive*%
%FSLAX45Y45*%
G04 Gerber Fmt 4.5, Leading zero omitted, Abs format (unit mm)*
G04 Created by KiCad (PCBNEW 7.0.1) date 2024-11-06 09:58:47*
%MOMM*%
%LPD*%
G01*
G04 APERTURE LIST*
%ADD10C,0.100000*%
%ADD11C,0.200000*%
%ADD12C,0.430000*%
G04 APERTURE END LIST*
D10*
X20503000Y-4509500D02*
X7503000Y-4509500D01*
X20503000Y-12509500D02*
G75*
G03*
X21003000Y-12009500I0J500000D01*
G01*
X7003000Y-12009500D02*
G75*
G03*
X7503000Y-12509500I500000J0D01*
G01*
X7003000Y-5009500D02*
X7003000Y-12009500D01*
X12550690Y-10792870D02*
G75*
G03*
X12550690Y-10792870I-254000J0D01*
G01*
X21003000Y-5009500D02*
G75*
G03*
X20503000Y-4509500I-500000J0D01*
G01*
X12550690Y-6398670D02*
G75*
G03*
X12550690Y-6398670I-254000J0D01*
G01*
X20208799Y-6363621D02*
G75*
G03*
X20208799Y-6363621I-254000J0D01*
G01*
X7503000Y-4509500D02*
G75*
G03*
X7003000Y-5009500I0J-500000D01*
G01*
X21003000Y-12009500D02*
X21003000Y-5009500D01*
X7503000Y-12509500D02*
X20503000Y-12509500D01*
X20212000Y-10804500D02*
G75*
G03*
X20212000Y-10804500I-254000J0D01*
G01*
D11*
D12*
X7288000Y-4794500D02*
X7718000Y-5224500D01*
X7718000Y-4794500D02*
X7288000Y-5224500D01*
X7288000Y-11794500D02*
X7718000Y-12224500D01*
X7718000Y-11794500D02*
X7288000Y-12224500D01*
X20288000Y-4794500D02*
X20718000Y-5224500D01*
X20718000Y-4794500D02*
X20288000Y-5224500D01*
X20288000Y-11794500D02*
X20718000Y-12224500D01*
X20718000Y-11794500D02*
X20288000Y-12224500D01*
D11*
X7245619Y-12827024D02*
X7245619Y-12627024D01*
X7245619Y-12627024D02*
X7293238Y-12627024D01*
X7293238Y-12627024D02*
X7321809Y-12636548D01*
X7321809Y-12636548D02*
X7340857Y-12655595D01*
X7340857Y-12655595D02*
X7350381Y-12674643D01*
X7350381Y-12674643D02*
X7359905Y-12712738D01*
X7359905Y-12712738D02*
X7359905Y-12741309D01*
X7359905Y-12741309D02*
X7350381Y-12779405D01*
X7350381Y-12779405D02*
X7340857Y-12798452D01*
X7340857Y-12798452D02*
X7321809Y-12817500D01*
X7321809Y-12817500D02*
X7293238Y-12827024D01*
X7293238Y-12827024D02*
X7245619Y-12827024D01*
X7445619Y-12827024D02*
X7445619Y-12693690D01*
X7445619Y-12731786D02*
X7455143Y-12712738D01*
X7455143Y-12712738D02*
X7464667Y-12703214D01*
X7464667Y-12703214D02*
X7483714Y-12693690D01*
X7483714Y-12693690D02*
X7502762Y-12693690D01*
X7569428Y-12827024D02*
X7569428Y-12693690D01*
X7569428Y-12627024D02*
X7559905Y-12636548D01*
X7559905Y-12636548D02*
X7569428Y-12646071D01*
X7569428Y-12646071D02*
X7578952Y-12636548D01*
X7578952Y-12636548D02*
X7569428Y-12627024D01*
X7569428Y-12627024D02*
X7569428Y-12646071D01*
X7693238Y-12827024D02*
X7674190Y-12817500D01*
X7674190Y-12817500D02*
X7664667Y-12798452D01*
X7664667Y-12798452D02*
X7664667Y-12627024D01*
X7798000Y-12827024D02*
X7778952Y-12817500D01*
X7778952Y-12817500D02*
X7769428Y-12798452D01*
X7769428Y-12798452D02*
X7769428Y-12627024D01*
X8026571Y-12827024D02*
X8026571Y-12627024D01*
X8026571Y-12627024D02*
X8093238Y-12769881D01*
X8093238Y-12769881D02*
X8159905Y-12627024D01*
X8159905Y-12627024D02*
X8159905Y-12827024D01*
X8340857Y-12827024D02*
X8340857Y-12722262D01*
X8340857Y-12722262D02*
X8331333Y-12703214D01*
X8331333Y-12703214D02*
X8312286Y-12693690D01*
X8312286Y-12693690D02*
X8274190Y-12693690D01*
X8274190Y-12693690D02*
X8255143Y-12703214D01*
X8340857Y-12817500D02*
X8321809Y-12827024D01*
X8321809Y-12827024D02*
X8274190Y-12827024D01*
X8274190Y-12827024D02*
X8255143Y-12817500D01*
X8255143Y-12817500D02*
X8245619Y-12798452D01*
X8245619Y-12798452D02*
X8245619Y-12779405D01*
X8245619Y-12779405D02*
X8255143Y-12760357D01*
X8255143Y-12760357D02*
X8274190Y-12750833D01*
X8274190Y-12750833D02*
X8321809Y-12750833D01*
X8321809Y-12750833D02*
X8340857Y-12741309D01*
X8436095Y-12693690D02*
X8436095Y-12893690D01*
X8436095Y-12703214D02*
X8455143Y-12693690D01*
X8455143Y-12693690D02*
X8493238Y-12693690D01*
X8493238Y-12693690D02*
X8512286Y-12703214D01*
X8512286Y-12703214D02*
X8521810Y-12712738D01*
X8521810Y-12712738D02*
X8531333Y-12731786D01*
X8531333Y-12731786D02*
X8531333Y-12788928D01*
X8531333Y-12788928D02*
X8521810Y-12807976D01*
X8521810Y-12807976D02*
X8512286Y-12817500D01*
X8512286Y-12817500D02*
X8493238Y-12827024D01*
X8493238Y-12827024D02*
X8455143Y-12827024D01*
X8455143Y-12827024D02*
X8436095Y-12817500D01*
X8617048Y-12807976D02*
X8626571Y-12817500D01*
X8626571Y-12817500D02*
X8617048Y-12827024D01*
X8617048Y-12827024D02*
X8607524Y-12817500D01*
X8607524Y-12817500D02*
X8617048Y-12807976D01*
X8617048Y-12807976D02*
X8617048Y-12827024D01*
X8617048Y-12703214D02*
X8626571Y-12712738D01*
X8626571Y-12712738D02*
X8617048Y-12722262D01*
X8617048Y-12722262D02*
X8607524Y-12712738D01*
X8607524Y-12712738D02*
X8617048Y-12703214D01*
X8617048Y-12703214D02*
X8617048Y-12722262D01*
X6798000Y-13054500D02*
X6998000Y-13254500D01*
X6998000Y-13054500D02*
X6798000Y-13254500D01*
X7331333Y-13113690D02*
X7331333Y-13247024D01*
X7283714Y-13037500D02*
X7236095Y-13180357D01*
X7236095Y-13180357D02*
X7359905Y-13180357D01*
X7436095Y-13227976D02*
X7445619Y-13237500D01*
X7445619Y-13237500D02*
X7436095Y-13247024D01*
X7436095Y-13247024D02*
X7426571Y-13237500D01*
X7426571Y-13237500D02*
X7436095Y-13227976D01*
X7436095Y-13227976D02*
X7436095Y-13247024D01*
X7512286Y-13047024D02*
X7636095Y-13047024D01*
X7636095Y-13047024D02*
X7569428Y-13123214D01*
X7569428Y-13123214D02*
X7598000Y-13123214D01*
X7598000Y-13123214D02*
X7617048Y-13132738D01*
X7617048Y-13132738D02*
X7626571Y-13142262D01*
X7626571Y-13142262D02*
X7636095Y-13161309D01*
X7636095Y-13161309D02*
X7636095Y-13208928D01*
X7636095Y-13208928D02*
X7626571Y-13227976D01*
X7626571Y-13227976D02*
X7617048Y-13237500D01*
X7617048Y-13237500D02*
X7598000Y-13247024D01*
X7598000Y-13247024D02*
X7540857Y-13247024D01*
X7540857Y-13247024D02*
X7521809Y-13237500D01*
X7521809Y-13237500D02*
X7512286Y-13227976D01*
X7759905Y-13047024D02*
X7778952Y-13047024D01*
X7778952Y-13047024D02*
X7798000Y-13056548D01*
X7798000Y-13056548D02*
X7807524Y-13066071D01*
X7807524Y-13066071D02*
X7817048Y-13085119D01*
X7817048Y-13085119D02*
X7826571Y-13123214D01*
X7826571Y-13123214D02*
X7826571Y-13170833D01*
X7826571Y-13170833D02*
X7817048Y-13208928D01*
X7817048Y-13208928D02*
X7807524Y-13227976D01*
X7807524Y-13227976D02*
X7798000Y-13237500D01*
X7798000Y-13237500D02*
X7778952Y-13247024D01*
X7778952Y-13247024D02*
X7759905Y-13247024D01*
X7759905Y-13247024D02*
X7740857Y-13237500D01*
X7740857Y-13237500D02*
X7731333Y-13227976D01*
X7731333Y-13227976D02*
X7721809Y-13208928D01*
X7721809Y-13208928D02*
X7712286Y-13170833D01*
X7712286Y-13170833D02*
X7712286Y-13123214D01*
X7712286Y-13123214D02*
X7721809Y-13085119D01*
X7721809Y-13085119D02*
X7731333Y-13066071D01*
X7731333Y-13066071D02*
X7740857Y-13056548D01*
X7740857Y-13056548D02*
X7759905Y-13047024D01*
X7950381Y-13047024D02*
X7969429Y-13047024D01*
X7969429Y-13047024D02*
X7988476Y-13056548D01*
X7988476Y-13056548D02*
X7998000Y-13066071D01*
X7998000Y-13066071D02*
X8007524Y-13085119D01*
X8007524Y-13085119D02*
X8017048Y-13123214D01*
X8017048Y-13123214D02*
X8017048Y-13170833D01*
X8017048Y-13170833D02*
X8007524Y-13208928D01*
X8007524Y-13208928D02*
X7998000Y-13227976D01*
X7998000Y-13227976D02*
X7988476Y-13237500D01*
X7988476Y-13237500D02*
X7969429Y-13247024D01*
X7969429Y-13247024D02*
X7950381Y-13247024D01*
X7950381Y-13247024D02*
X7931333Y-13237500D01*
X7931333Y-13237500D02*
X7921809Y-13227976D01*
X7921809Y-13227976D02*
X7912286Y-13208928D01*
X7912286Y-13208928D02*
X7902762Y-13170833D01*
X7902762Y-13170833D02*
X7902762Y-13123214D01*
X7902762Y-13123214D02*
X7912286Y-13085119D01*
X7912286Y-13085119D02*
X7921809Y-13066071D01*
X7921809Y-13066071D02*
X7931333Y-13056548D01*
X7931333Y-13056548D02*
X7950381Y-13047024D01*
X8102762Y-13247024D02*
X8102762Y-13113690D01*
X8102762Y-13132738D02*
X8112286Y-13123214D01*
X8112286Y-13123214D02*
X8131333Y-13113690D01*
X8131333Y-13113690D02*
X8159905Y-13113690D01*
X8159905Y-13113690D02*
X8178952Y-13123214D01*
X8178952Y-13123214D02*
X8188476Y-13142262D01*
X8188476Y-13142262D02*
X8188476Y-13247024D01*
X8188476Y-13142262D02*
X8198000Y-13123214D01*
X8198000Y-13123214D02*
X8217048Y-13113690D01*
X8217048Y-13113690D02*
X8245619Y-13113690D01*
X8245619Y-13113690D02*
X8264667Y-13123214D01*
X8264667Y-13123214D02*
X8274190Y-13142262D01*
X8274190Y-13142262D02*
X8274190Y-13247024D01*
X8369429Y-13247024D02*
X8369429Y-13113690D01*
X8369429Y-13132738D02*
X8378952Y-13123214D01*
X8378952Y-13123214D02*
X8398000Y-13113690D01*
X8398000Y-13113690D02*
X8426572Y-13113690D01*
X8426572Y-13113690D02*
X8445619Y-13123214D01*
X8445619Y-13123214D02*
X8455143Y-13142262D01*
X8455143Y-13142262D02*
X8455143Y-13247024D01*
X8455143Y-13142262D02*
X8464667Y-13123214D01*
X8464667Y-13123214D02*
X8483714Y-13113690D01*
X8483714Y-13113690D02*
X8512286Y-13113690D01*
X8512286Y-13113690D02*
X8531333Y-13123214D01*
X8531333Y-13123214D02*
X8540857Y-13142262D01*
X8540857Y-13142262D02*
X8540857Y-13247024D01*
X8931333Y-13037500D02*
X8759905Y-13294643D01*
X9188476Y-13047024D02*
X9207524Y-13047024D01*
X9207524Y-13047024D02*
X9226572Y-13056548D01*
X9226572Y-13056548D02*
X9236095Y-13066071D01*
X9236095Y-13066071D02*
X9245619Y-13085119D01*
X9245619Y-13085119D02*
X9255143Y-13123214D01*
X9255143Y-13123214D02*
X9255143Y-13170833D01*
X9255143Y-13170833D02*
X9245619Y-13208928D01*
X9245619Y-13208928D02*
X9236095Y-13227976D01*
X9236095Y-13227976D02*
X9226572Y-13237500D01*
X9226572Y-13237500D02*
X9207524Y-13247024D01*
X9207524Y-13247024D02*
X9188476Y-13247024D01*
X9188476Y-13247024D02*
X9169429Y-13237500D01*
X9169429Y-13237500D02*
X9159905Y-13227976D01*
X9159905Y-13227976D02*
X9150381Y-13208928D01*
X9150381Y-13208928D02*
X9140857Y-13170833D01*
X9140857Y-13170833D02*
X9140857Y-13123214D01*
X9140857Y-13123214D02*
X9150381Y-13085119D01*
X9150381Y-13085119D02*
X9159905Y-13066071D01*
X9159905Y-13066071D02*
X9169429Y-13056548D01*
X9169429Y-13056548D02*
X9188476Y-13047024D01*
X9340857Y-13227976D02*
X9350381Y-13237500D01*
X9350381Y-13237500D02*
X9340857Y-13247024D01*
X9340857Y-13247024D02*
X9331334Y-13237500D01*
X9331334Y-13237500D02*
X9340857Y-13227976D01*
X9340857Y-13227976D02*
X9340857Y-13247024D01*
X9540857Y-13247024D02*
X9426572Y-13247024D01*
X9483714Y-13247024D02*
X9483714Y-13047024D01*
X9483714Y-13047024D02*
X9464667Y-13075595D01*
X9464667Y-13075595D02*
X9445619Y-13094643D01*
X9445619Y-13094643D02*
X9426572Y-13104167D01*
X9712286Y-13047024D02*
X9674191Y-13047024D01*
X9674191Y-13047024D02*
X9655143Y-13056548D01*
X9655143Y-13056548D02*
X9645619Y-13066071D01*
X9645619Y-13066071D02*
X9626572Y-13094643D01*
X9626572Y-13094643D02*
X9617048Y-13132738D01*
X9617048Y-13132738D02*
X9617048Y-13208928D01*
X9617048Y-13208928D02*
X9626572Y-13227976D01*
X9626572Y-13227976D02*
X9636095Y-13237500D01*
X9636095Y-13237500D02*
X9655143Y-13247024D01*
X9655143Y-13247024D02*
X9693238Y-13247024D01*
X9693238Y-13247024D02*
X9712286Y-13237500D01*
X9712286Y-13237500D02*
X9721810Y-13227976D01*
X9721810Y-13227976D02*
X9731334Y-13208928D01*
X9731334Y-13208928D02*
X9731334Y-13161309D01*
X9731334Y-13161309D02*
X9721810Y-13142262D01*
X9721810Y-13142262D02*
X9712286Y-13132738D01*
X9712286Y-13132738D02*
X9693238Y-13123214D01*
X9693238Y-13123214D02*
X9655143Y-13123214D01*
X9655143Y-13123214D02*
X9636095Y-13132738D01*
X9636095Y-13132738D02*
X9626572Y-13142262D01*
X9626572Y-13142262D02*
X9617048Y-13161309D01*
X9826572Y-13247024D02*
X9864667Y-13247024D01*
X9864667Y-13247024D02*
X9883715Y-13237500D01*
X9883715Y-13237500D02*
X9893238Y-13227976D01*
X9893238Y-13227976D02*
X9912286Y-13199405D01*
X9912286Y-13199405D02*
X9921810Y-13161309D01*
X9921810Y-13161309D02*
X9921810Y-13085119D01*
X9921810Y-13085119D02*
X9912286Y-13066071D01*
X9912286Y-13066071D02*
X9902762Y-13056548D01*
X9902762Y-13056548D02*
X9883715Y-13047024D01*
X9883715Y-13047024D02*
X9845619Y-13047024D01*
X9845619Y-13047024D02*
X9826572Y-13056548D01*
X9826572Y-13056548D02*
X9817048Y-13066071D01*
X9817048Y-13066071D02*
X9807524Y-13085119D01*
X9807524Y-13085119D02*
X9807524Y-13132738D01*
X9807524Y-13132738D02*
X9817048Y-13151786D01*
X9817048Y-13151786D02*
X9826572Y-13161309D01*
X9826572Y-13161309D02*
X9845619Y-13170833D01*
X9845619Y-13170833D02*
X9883715Y-13170833D01*
X9883715Y-13170833D02*
X9902762Y-13161309D01*
X9902762Y-13161309D02*
X9912286Y-13151786D01*
X9912286Y-13151786D02*
X9921810Y-13132738D01*
X9988476Y-13047024D02*
X10112286Y-13047024D01*
X10112286Y-13047024D02*
X10045619Y-13123214D01*
X10045619Y-13123214D02*
X10074191Y-13123214D01*
X10074191Y-13123214D02*
X10093238Y-13132738D01*
X10093238Y-13132738D02*
X10102762Y-13142262D01*
X10102762Y-13142262D02*
X10112286Y-13161309D01*
X10112286Y-13161309D02*
X10112286Y-13208928D01*
X10112286Y-13208928D02*
X10102762Y-13227976D01*
X10102762Y-13227976D02*
X10093238Y-13237500D01*
X10093238Y-13237500D02*
X10074191Y-13247024D01*
X10074191Y-13247024D02*
X10017048Y-13247024D01*
X10017048Y-13247024D02*
X9998000Y-13237500D01*
X9998000Y-13237500D02*
X9988476Y-13227976D01*
X10188476Y-13047024D02*
X10188476Y-13085119D01*
X10264667Y-13047024D02*
X10264667Y-13085119D01*
X10559905Y-13323214D02*
X10550381Y-13313690D01*
X10550381Y-13313690D02*
X10531334Y-13285119D01*
X10531334Y-13285119D02*
X10521810Y-13266071D01*
X10521810Y-13266071D02*
X10512286Y-13237500D01*
X10512286Y-13237500D02*
X10502762Y-13189881D01*
X10502762Y-13189881D02*
X10502762Y-13151786D01*
X10502762Y-13151786D02*
X10512286Y-13104167D01*
X10512286Y-13104167D02*
X10521810Y-13075595D01*
X10521810Y-13075595D02*
X10531334Y-13056548D01*
X10531334Y-13056548D02*
X10550381Y-13027976D01*
X10550381Y-13027976D02*
X10559905Y-13018452D01*
X10721810Y-13113690D02*
X10721810Y-13247024D01*
X10674191Y-13037500D02*
X10626572Y-13180357D01*
X10626572Y-13180357D02*
X10750381Y-13180357D01*
X10978953Y-13247024D02*
X10978953Y-13047024D01*
X11064667Y-13247024D02*
X11064667Y-13142262D01*
X11064667Y-13142262D02*
X11055143Y-13123214D01*
X11055143Y-13123214D02*
X11036096Y-13113690D01*
X11036096Y-13113690D02*
X11007524Y-13113690D01*
X11007524Y-13113690D02*
X10988477Y-13123214D01*
X10988477Y-13123214D02*
X10978953Y-13132738D01*
X11188476Y-13247024D02*
X11169429Y-13237500D01*
X11169429Y-13237500D02*
X11159905Y-13227976D01*
X11159905Y-13227976D02*
X11150381Y-13208928D01*
X11150381Y-13208928D02*
X11150381Y-13151786D01*
X11150381Y-13151786D02*
X11159905Y-13132738D01*
X11159905Y-13132738D02*
X11169429Y-13123214D01*
X11169429Y-13123214D02*
X11188476Y-13113690D01*
X11188476Y-13113690D02*
X11217048Y-13113690D01*
X11217048Y-13113690D02*
X11236096Y-13123214D01*
X11236096Y-13123214D02*
X11245619Y-13132738D01*
X11245619Y-13132738D02*
X11255143Y-13151786D01*
X11255143Y-13151786D02*
X11255143Y-13208928D01*
X11255143Y-13208928D02*
X11245619Y-13227976D01*
X11245619Y-13227976D02*
X11236096Y-13237500D01*
X11236096Y-13237500D02*
X11217048Y-13247024D01*
X11217048Y-13247024D02*
X11188476Y-13247024D01*
X11369429Y-13247024D02*
X11350381Y-13237500D01*
X11350381Y-13237500D02*
X11340857Y-13218452D01*
X11340857Y-13218452D02*
X11340857Y-13047024D01*
X11521810Y-13237500D02*
X11502762Y-13247024D01*
X11502762Y-13247024D02*
X11464667Y-13247024D01*
X11464667Y-13247024D02*
X11445619Y-13237500D01*
X11445619Y-13237500D02*
X11436096Y-13218452D01*
X11436096Y-13218452D02*
X11436096Y-13142262D01*
X11436096Y-13142262D02*
X11445619Y-13123214D01*
X11445619Y-13123214D02*
X11464667Y-13113690D01*
X11464667Y-13113690D02*
X11502762Y-13113690D01*
X11502762Y-13113690D02*
X11521810Y-13123214D01*
X11521810Y-13123214D02*
X11531334Y-13142262D01*
X11531334Y-13142262D02*
X11531334Y-13161309D01*
X11531334Y-13161309D02*
X11436096Y-13180357D01*
X11607524Y-13237500D02*
X11626572Y-13247024D01*
X11626572Y-13247024D02*
X11664667Y-13247024D01*
X11664667Y-13247024D02*
X11683715Y-13237500D01*
X11683715Y-13237500D02*
X11693238Y-13218452D01*
X11693238Y-13218452D02*
X11693238Y-13208928D01*
X11693238Y-13208928D02*
X11683715Y-13189881D01*
X11683715Y-13189881D02*
X11664667Y-13180357D01*
X11664667Y-13180357D02*
X11636096Y-13180357D01*
X11636096Y-13180357D02*
X11617048Y-13170833D01*
X11617048Y-13170833D02*
X11607524Y-13151786D01*
X11607524Y-13151786D02*
X11607524Y-13142262D01*
X11607524Y-13142262D02*
X11617048Y-13123214D01*
X11617048Y-13123214D02*
X11636096Y-13113690D01*
X11636096Y-13113690D02*
X11664667Y-13113690D01*
X11664667Y-13113690D02*
X11683715Y-13123214D01*
X11759905Y-13323214D02*
X11769429Y-13313690D01*
X11769429Y-13313690D02*
X11788477Y-13285119D01*
X11788477Y-13285119D02*
X11798000Y-13266071D01*
X11798000Y-13266071D02*
X11807524Y-13237500D01*
X11807524Y-13237500D02*
X11817048Y-13189881D01*
X11817048Y-13189881D02*
X11817048Y-13151786D01*
X11817048Y-13151786D02*
X11807524Y-13104167D01*
X11807524Y-13104167D02*
X11798000Y-13075595D01*
X11798000Y-13075595D02*
X11788477Y-13056548D01*
X11788477Y-13056548D02*
X11769429Y-13027976D01*
X11769429Y-13027976D02*
X11759905Y-13018452D01*
X12121810Y-13323214D02*
X12112286Y-13313690D01*
X12112286Y-13313690D02*
X12093238Y-13285119D01*
X12093238Y-13285119D02*
X12083715Y-13266071D01*
X12083715Y-13266071D02*
X12074191Y-13237500D01*
X12074191Y-13237500D02*
X12064667Y-13189881D01*
X12064667Y-13189881D02*
X12064667Y-13151786D01*
X12064667Y-13151786D02*
X12074191Y-13104167D01*
X12074191Y-13104167D02*
X12083715Y-13075595D01*
X12083715Y-13075595D02*
X12093238Y-13056548D01*
X12093238Y-13056548D02*
X12112286Y-13027976D01*
X12112286Y-13027976D02*
X12121810Y-13018452D01*
X12198000Y-13113690D02*
X12198000Y-13247024D01*
X12198000Y-13132738D02*
X12207524Y-13123214D01*
X12207524Y-13123214D02*
X12226572Y-13113690D01*
X12226572Y-13113690D02*
X12255143Y-13113690D01*
X12255143Y-13113690D02*
X12274191Y-13123214D01*
X12274191Y-13123214D02*
X12283715Y-13142262D01*
X12283715Y-13142262D02*
X12283715Y-13247024D01*
X12407524Y-13247024D02*
X12388477Y-13237500D01*
X12388477Y-13237500D02*
X12378953Y-13227976D01*
X12378953Y-13227976D02*
X12369429Y-13208928D01*
X12369429Y-13208928D02*
X12369429Y-13151786D01*
X12369429Y-13151786D02*
X12378953Y-13132738D01*
X12378953Y-13132738D02*
X12388477Y-13123214D01*
X12388477Y-13123214D02*
X12407524Y-13113690D01*
X12407524Y-13113690D02*
X12436096Y-13113690D01*
X12436096Y-13113690D02*
X12455143Y-13123214D01*
X12455143Y-13123214D02*
X12464667Y-13132738D01*
X12464667Y-13132738D02*
X12474191Y-13151786D01*
X12474191Y-13151786D02*
X12474191Y-13208928D01*
X12474191Y-13208928D02*
X12464667Y-13227976D01*
X12464667Y-13227976D02*
X12455143Y-13237500D01*
X12455143Y-13237500D02*
X12436096Y-13247024D01*
X12436096Y-13247024D02*
X12407524Y-13247024D01*
X12531334Y-13113690D02*
X12607524Y-13113690D01*
X12559905Y-13047024D02*
X12559905Y-13218452D01*
X12559905Y-13218452D02*
X12569429Y-13237500D01*
X12569429Y-13237500D02*
X12588477Y-13247024D01*
X12588477Y-13247024D02*
X12607524Y-13247024D01*
X12826572Y-13113690D02*
X12826572Y-13313690D01*
X12826572Y-13123214D02*
X12845619Y-13113690D01*
X12845619Y-13113690D02*
X12883715Y-13113690D01*
X12883715Y-13113690D02*
X12902762Y-13123214D01*
X12902762Y-13123214D02*
X12912286Y-13132738D01*
X12912286Y-13132738D02*
X12921810Y-13151786D01*
X12921810Y-13151786D02*
X12921810Y-13208928D01*
X12921810Y-13208928D02*
X12912286Y-13227976D01*
X12912286Y-13227976D02*
X12902762Y-13237500D01*
X12902762Y-13237500D02*
X12883715Y-13247024D01*
X12883715Y-13247024D02*
X12845619Y-13247024D01*
X12845619Y-13247024D02*
X12826572Y-13237500D01*
X13036096Y-13247024D02*
X13017048Y-13237500D01*
X13017048Y-13237500D02*
X13007524Y-13218452D01*
X13007524Y-13218452D02*
X13007524Y-13047024D01*
X13198000Y-13247024D02*
X13198000Y-13142262D01*
X13198000Y-13142262D02*
X13188477Y-13123214D01*
X13188477Y-13123214D02*
X13169429Y-13113690D01*
X13169429Y-13113690D02*
X13131334Y-13113690D01*
X13131334Y-13113690D02*
X13112286Y-13123214D01*
X13198000Y-13237500D02*
X13178953Y-13247024D01*
X13178953Y-13247024D02*
X13131334Y-13247024D01*
X13131334Y-13247024D02*
X13112286Y-13237500D01*
X13112286Y-13237500D02*
X13102762Y-13218452D01*
X13102762Y-13218452D02*
X13102762Y-13199405D01*
X13102762Y-13199405D02*
X13112286Y-13180357D01*
X13112286Y-13180357D02*
X13131334Y-13170833D01*
X13131334Y-13170833D02*
X13178953Y-13170833D01*
X13178953Y-13170833D02*
X13198000Y-13161309D01*
X13264667Y-13113690D02*
X13340858Y-13113690D01*
X13293239Y-13047024D02*
X13293239Y-13218452D01*
X13293239Y-13218452D02*
X13302762Y-13237500D01*
X13302762Y-13237500D02*
X13321810Y-13247024D01*
X13321810Y-13247024D02*
X13340858Y-13247024D01*
X13483715Y-13237500D02*
X13464667Y-13247024D01*
X13464667Y-13247024D02*
X13426572Y-13247024D01*
X13426572Y-13247024D02*
X13407524Y-13237500D01*
X13407524Y-13237500D02*
X13398000Y-13218452D01*
X13398000Y-13218452D02*
X13398000Y-13142262D01*
X13398000Y-13142262D02*
X13407524Y-13123214D01*
X13407524Y-13123214D02*
X13426572Y-13113690D01*
X13426572Y-13113690D02*
X13464667Y-13113690D01*
X13464667Y-13113690D02*
X13483715Y-13123214D01*
X13483715Y-13123214D02*
X13493239Y-13142262D01*
X13493239Y-13142262D02*
X13493239Y-13161309D01*
X13493239Y-13161309D02*
X13398000Y-13180357D01*
X13664667Y-13247024D02*
X13664667Y-13047024D01*
X13664667Y-13237500D02*
X13645620Y-13247024D01*
X13645620Y-13247024D02*
X13607524Y-13247024D01*
X13607524Y-13247024D02*
X13588477Y-13237500D01*
X13588477Y-13237500D02*
X13578953Y-13227976D01*
X13578953Y-13227976D02*
X13569429Y-13208928D01*
X13569429Y-13208928D02*
X13569429Y-13151786D01*
X13569429Y-13151786D02*
X13578953Y-13132738D01*
X13578953Y-13132738D02*
X13588477Y-13123214D01*
X13588477Y-13123214D02*
X13607524Y-13113690D01*
X13607524Y-13113690D02*
X13645620Y-13113690D01*
X13645620Y-13113690D02*
X13664667Y-13123214D01*
X13740858Y-13323214D02*
X13750381Y-13313690D01*
X13750381Y-13313690D02*
X13769429Y-13285119D01*
X13769429Y-13285119D02*
X13778953Y-13266071D01*
X13778953Y-13266071D02*
X13788477Y-13237500D01*
X13788477Y-13237500D02*
X13798000Y-13189881D01*
X13798000Y-13189881D02*
X13798000Y-13151786D01*
X13798000Y-13151786D02*
X13788477Y-13104167D01*
X13788477Y-13104167D02*
X13778953Y-13075595D01*
X13778953Y-13075595D02*
X13769429Y-13056548D01*
X13769429Y-13056548D02*
X13750381Y-13027976D01*
X13750381Y-13027976D02*
X13740858Y-13018452D01*
M02*
