%TF.GenerationSoftware,KiCad,Pcbnew,7.0.1*%
%TF.CreationDate,2025-02-05T10:50:57+01:00*%
%TF.ProjectId,mangiatoia,6d616e67-6961-4746-9f69-612e6b696361,1.1*%
%TF.SameCoordinates,Original*%
%TF.FileFunction,Soldermask,Bot*%
%TF.FilePolarity,Negative*%
%FSLAX46Y46*%
G04 Gerber Fmt 4.6, Leading zero omitted, Abs format (unit mm)*
G04 Created by KiCad (PCBNEW 7.0.1) date 2025-02-05 10:50:57*
%MOMM*%
%LPD*%
G01*
G04 APERTURE LIST*
G04 Aperture macros list*
%AMRoundRect*
0 Rectangle with rounded corners*
0 $1 Rounding radius*
0 $2 $3 $4 $5 $6 $7 $8 $9 X,Y pos of 4 corners*
0 Add a 4 corners polygon primitive as box body*
4,1,4,$2,$3,$4,$5,$6,$7,$8,$9,$2,$3,0*
0 Add four circle primitives for the rounded corners*
1,1,$1+$1,$2,$3*
1,1,$1+$1,$4,$5*
1,1,$1+$1,$6,$7*
1,1,$1+$1,$8,$9*
0 Add four rect primitives between the rounded corners*
20,1,$1+$1,$2,$3,$4,$5,0*
20,1,$1+$1,$4,$5,$6,$7,0*
20,1,$1+$1,$6,$7,$8,$9,0*
20,1,$1+$1,$8,$9,$2,$3,0*%
G04 Aperture macros list end*
%ADD10R,2.000000X2.000000*%
%ADD11C,2.000000*%
%ADD12R,1.700000X1.700000*%
%ADD13O,1.700000X1.700000*%
%ADD14C,3.000000*%
%ADD15C,2.540000*%
%ADD16C,4.300000*%
%ADD17R,1.800000X1.400000*%
%ADD18O,1.800000X1.400000*%
%ADD19R,1.600000X1.600000*%
%ADD20C,1.600000*%
%ADD21R,1.905000X2.000000*%
%ADD22O,1.905000X2.000000*%
%ADD23RoundRect,0.249999X-1.550001X0.790001X-1.550001X-0.790001X1.550001X-0.790001X1.550001X0.790001X0*%
%ADD24O,3.600000X2.080000*%
%ADD25R,2.000000X1.400000*%
%ADD26O,2.000000X1.400000*%
%ADD27O,3.000000X1.500000*%
%ADD28R,2.000000X3.200000*%
%ADD29R,1.800000X1.800000*%
%ADD30C,1.800000*%
G04 APERTURE END LIST*
D10*
%TO.C,BZ1*%
X99748000Y-118364000D03*
D11*
X92148000Y-118364000D03*
%TD*%
D12*
%TO.C,J6*%
X132705000Y-72390000D03*
D13*
X135245000Y-72390000D03*
X137785000Y-72390000D03*
X140325000Y-72390000D03*
X142865000Y-72390000D03*
X145405000Y-72390000D03*
%TD*%
D14*
%TO.C,K1*%
X89930000Y-69850000D03*
X104130000Y-63850000D03*
X104130000Y-75850000D03*
X91930000Y-75850000D03*
X91930000Y-63850000D03*
%TD*%
D15*
%TO.C,J7*%
X147982000Y-62531000D03*
X144482000Y-57531000D03*
X140982000Y-62531000D03*
X137482000Y-57531000D03*
X133982000Y-62531000D03*
X130482000Y-57531000D03*
%TD*%
D12*
%TO.C,J2*%
X76422500Y-92795000D03*
D13*
X76422500Y-90255000D03*
X76422500Y-87715000D03*
X76422500Y-85175000D03*
%TD*%
D10*
%TO.C,C2*%
X155130000Y-119302677D03*
D11*
X155130000Y-114302677D03*
%TD*%
D16*
%TO.C,H4*%
X205030000Y-120095000D03*
%TD*%
%TO.C,H1*%
X75030000Y-50095000D03*
%TD*%
D17*
%TO.C,U3*%
X131755000Y-112903000D03*
D18*
X131755000Y-121103000D03*
X146755000Y-112903000D03*
X146755000Y-121103000D03*
%TD*%
D12*
%TO.C,J4*%
X76422500Y-63595000D03*
D13*
X76422500Y-61055000D03*
%TD*%
D19*
%TO.C,C1*%
X155374000Y-88011000D03*
D20*
X157874000Y-88011000D03*
%TD*%
D21*
%TO.C,U5*%
X137086000Y-117475000D03*
D22*
X139626000Y-117475000D03*
X142166000Y-117475000D03*
%TD*%
D16*
%TO.C,H2*%
X205030000Y-50095000D03*
%TD*%
D12*
%TO.C,J3*%
X76422500Y-77550000D03*
D13*
X76422500Y-75010000D03*
X76422500Y-72470000D03*
%TD*%
D16*
%TO.C,H3*%
X75030000Y-120095000D03*
%TD*%
D23*
%TO.C,J1*%
X77660000Y-101695000D03*
D24*
X77660000Y-106775000D03*
%TD*%
D25*
%TO.C,U1*%
X163385000Y-76930000D03*
D26*
X163385000Y-79470000D03*
X163385000Y-82010000D03*
X163385000Y-84550000D03*
X163385000Y-87090000D03*
X163385000Y-89630000D03*
X163385000Y-92170000D03*
X163385000Y-94710000D03*
X163385000Y-97250000D03*
X163385000Y-99790000D03*
X163385000Y-102330000D03*
X163385000Y-104870000D03*
X163385000Y-107410000D03*
X163385000Y-109950000D03*
X163385000Y-112490000D03*
X163385000Y-115030000D03*
X163385000Y-117570000D03*
X163385000Y-120110000D03*
X163385000Y-122650000D03*
X188781320Y-122647280D03*
X188781320Y-120107280D03*
X188785000Y-117570000D03*
X188785000Y-115030000D03*
X188785000Y-112490000D03*
X188785000Y-109950000D03*
X188785000Y-107410000D03*
X188785000Y-104870000D03*
X188785000Y-102330000D03*
X188785000Y-99790000D03*
X188785000Y-97250000D03*
X188785000Y-94710000D03*
X188785000Y-92170000D03*
X188785000Y-89630000D03*
X188785000Y-87090000D03*
X188785000Y-84550000D03*
X188785000Y-82010000D03*
X188785000Y-79470000D03*
X188785000Y-76930000D03*
%TD*%
D12*
%TO.C,J5*%
X135255000Y-97155000D03*
D13*
X137795000Y-97155000D03*
X140335000Y-97155000D03*
X142875000Y-97155000D03*
%TD*%
D12*
%TO.C,JP1*%
X155115000Y-80899000D03*
D13*
X157655000Y-80899000D03*
%TD*%
D27*
%TO.C,U2*%
X204246902Y-69320700D03*
X201706902Y-69320700D03*
X204246902Y-71860700D03*
X201706902Y-71860700D03*
X204246902Y-74400700D03*
X201706902Y-74400700D03*
X204246902Y-76940700D03*
X201706902Y-76940700D03*
X204246902Y-79480700D03*
X201706902Y-79480700D03*
X204246902Y-82020700D03*
X201706902Y-82020700D03*
X204246902Y-84560700D03*
X201706902Y-84560700D03*
X204246902Y-87100700D03*
X201706902Y-87100700D03*
X204246902Y-89640700D03*
X201706902Y-89640700D03*
X204246902Y-92180700D03*
X201706902Y-92180700D03*
X204246902Y-94720700D03*
X201706902Y-94720700D03*
X204246902Y-97260700D03*
X201706902Y-97260700D03*
X204246902Y-99800700D03*
X201706902Y-99800700D03*
X204246902Y-102340700D03*
X201706902Y-102340700D03*
X125626902Y-82010700D03*
X123086902Y-82010700D03*
X125626902Y-84550700D03*
X123086902Y-84550700D03*
X125626902Y-87090700D03*
X123086902Y-87090700D03*
X125626902Y-89630700D03*
X123086902Y-89630700D03*
%TD*%
D10*
%TO.C,ENC1*%
X99210000Y-97515000D03*
D11*
X94210000Y-97515000D03*
X96710000Y-97515000D03*
D28*
X91110000Y-90015000D03*
X102310000Y-90015000D03*
D11*
X94210000Y-83015000D03*
X99210000Y-83015000D03*
%TD*%
D29*
%TO.C,DL1*%
X94805000Y-120095000D03*
D30*
X97345000Y-120095000D03*
%TD*%
M02*
