%TF.GenerationSoftware,KiCad,Pcbnew,7.0.1*%
%TF.CreationDate,2024-09-24T21:19:13+02:00*%
%TF.ProjectId,mangiatoia,6d616e67-6961-4746-9f69-612e6b696361,1.0*%
%TF.SameCoordinates,Original*%
%TF.FileFunction,Profile,NP*%
%FSLAX46Y46*%
G04 Gerber Fmt 4.6, Leading zero omitted, Abs format (unit mm)*
G04 Created by KiCad (PCBNEW 7.0.1) date 2024-09-24 21:19:13*
%MOMM*%
%LPD*%
G01*
G04 APERTURE LIST*
%TA.AperFunction,Profile*%
%ADD10C,0.100000*%
%TD*%
%ADD11C,0.300000*%
G04 APERTURE END LIST*
D10*
X205030000Y-45095000D02*
X75030000Y-45095000D01*
X205030000Y-125095000D02*
G75*
G03*
X210030000Y-120095000I0J5000000D01*
G01*
X70030000Y-120095000D02*
G75*
G03*
X75030000Y-125095000I5000000J0D01*
G01*
X70030000Y-50095000D02*
X70030000Y-120095000D01*
X125506902Y-107928700D02*
G75*
G03*
X125506902Y-107928700I-2540000J0D01*
G01*
X210030000Y-50095000D02*
G75*
G03*
X205030000Y-45095000I-5000000J0D01*
G01*
X125506902Y-63986700D02*
G75*
G03*
X125506902Y-63986700I-2540000J0D01*
G01*
X202087988Y-63636213D02*
G75*
G03*
X202087988Y-63636213I-2540000J0D01*
G01*
X75030000Y-45095000D02*
G75*
G03*
X70030000Y-50095000I0J-5000000D01*
G01*
X210030000Y-120095000D02*
X210030000Y-50095000D01*
X75030000Y-125095000D02*
X205030000Y-125095000D01*
X202120000Y-108045000D02*
G75*
G03*
X202120000Y-108045000I-2540000J0D01*
G01*
D11*
X227512380Y-93952143D02*
X227417142Y-94142619D01*
X227417142Y-94142619D02*
X227321904Y-94237857D01*
X227321904Y-94237857D02*
X227131428Y-94333095D01*
X227131428Y-94333095D02*
X227036190Y-94333095D01*
X227036190Y-94333095D02*
X226845714Y-94237857D01*
X226845714Y-94237857D02*
X226750476Y-94142619D01*
X226750476Y-94142619D02*
X226655238Y-93952143D01*
X226655238Y-93952143D02*
X226655238Y-93571190D01*
X226655238Y-93571190D02*
X226750476Y-93380714D01*
X226750476Y-93380714D02*
X226845714Y-93285476D01*
X226845714Y-93285476D02*
X227036190Y-93190238D01*
X227036190Y-93190238D02*
X227131428Y-93190238D01*
X227131428Y-93190238D02*
X227321904Y-93285476D01*
X227321904Y-93285476D02*
X227417142Y-93380714D01*
X227417142Y-93380714D02*
X227512380Y-93571190D01*
X227512380Y-93571190D02*
X227512380Y-93952143D01*
X227512380Y-93952143D02*
X227607619Y-94142619D01*
X227607619Y-94142619D02*
X227702857Y-94237857D01*
X227702857Y-94237857D02*
X227893333Y-94333095D01*
X227893333Y-94333095D02*
X228274285Y-94333095D01*
X228274285Y-94333095D02*
X228464761Y-94237857D01*
X228464761Y-94237857D02*
X228560000Y-94142619D01*
X228560000Y-94142619D02*
X228655238Y-93952143D01*
X228655238Y-93952143D02*
X228655238Y-93571190D01*
X228655238Y-93571190D02*
X228560000Y-93380714D01*
X228560000Y-93380714D02*
X228464761Y-93285476D01*
X228464761Y-93285476D02*
X228274285Y-93190238D01*
X228274285Y-93190238D02*
X227893333Y-93190238D01*
X227893333Y-93190238D02*
X227702857Y-93285476D01*
X227702857Y-93285476D02*
X227607619Y-93380714D01*
X227607619Y-93380714D02*
X227512380Y-93571190D01*
X226655238Y-91952143D02*
X226655238Y-91761666D01*
X226655238Y-91761666D02*
X226750476Y-91571190D01*
X226750476Y-91571190D02*
X226845714Y-91475952D01*
X226845714Y-91475952D02*
X227036190Y-91380714D01*
X227036190Y-91380714D02*
X227417142Y-91285476D01*
X227417142Y-91285476D02*
X227893333Y-91285476D01*
X227893333Y-91285476D02*
X228274285Y-91380714D01*
X228274285Y-91380714D02*
X228464761Y-91475952D01*
X228464761Y-91475952D02*
X228560000Y-91571190D01*
X228560000Y-91571190D02*
X228655238Y-91761666D01*
X228655238Y-91761666D02*
X228655238Y-91952143D01*
X228655238Y-91952143D02*
X228560000Y-92142619D01*
X228560000Y-92142619D02*
X228464761Y-92237857D01*
X228464761Y-92237857D02*
X228274285Y-92333095D01*
X228274285Y-92333095D02*
X227893333Y-92428333D01*
X227893333Y-92428333D02*
X227417142Y-92428333D01*
X227417142Y-92428333D02*
X227036190Y-92333095D01*
X227036190Y-92333095D02*
X226845714Y-92237857D01*
X226845714Y-92237857D02*
X226750476Y-92142619D01*
X226750476Y-92142619D02*
X226655238Y-91952143D01*
X228560000Y-90333095D02*
X228655238Y-90333095D01*
X228655238Y-90333095D02*
X228845714Y-90428333D01*
X228845714Y-90428333D02*
X228940952Y-90523571D01*
X226655238Y-89095000D02*
X226655238Y-88904523D01*
X226655238Y-88904523D02*
X226750476Y-88714047D01*
X226750476Y-88714047D02*
X226845714Y-88618809D01*
X226845714Y-88618809D02*
X227036190Y-88523571D01*
X227036190Y-88523571D02*
X227417142Y-88428333D01*
X227417142Y-88428333D02*
X227893333Y-88428333D01*
X227893333Y-88428333D02*
X228274285Y-88523571D01*
X228274285Y-88523571D02*
X228464761Y-88618809D01*
X228464761Y-88618809D02*
X228560000Y-88714047D01*
X228560000Y-88714047D02*
X228655238Y-88904523D01*
X228655238Y-88904523D02*
X228655238Y-89095000D01*
X228655238Y-89095000D02*
X228560000Y-89285476D01*
X228560000Y-89285476D02*
X228464761Y-89380714D01*
X228464761Y-89380714D02*
X228274285Y-89475952D01*
X228274285Y-89475952D02*
X227893333Y-89571190D01*
X227893333Y-89571190D02*
X227417142Y-89571190D01*
X227417142Y-89571190D02*
X227036190Y-89475952D01*
X227036190Y-89475952D02*
X226845714Y-89380714D01*
X226845714Y-89380714D02*
X226750476Y-89285476D01*
X226750476Y-89285476D02*
X226655238Y-89095000D01*
X226655238Y-87190238D02*
X226655238Y-86999761D01*
X226655238Y-86999761D02*
X226750476Y-86809285D01*
X226750476Y-86809285D02*
X226845714Y-86714047D01*
X226845714Y-86714047D02*
X227036190Y-86618809D01*
X227036190Y-86618809D02*
X227417142Y-86523571D01*
X227417142Y-86523571D02*
X227893333Y-86523571D01*
X227893333Y-86523571D02*
X228274285Y-86618809D01*
X228274285Y-86618809D02*
X228464761Y-86714047D01*
X228464761Y-86714047D02*
X228560000Y-86809285D01*
X228560000Y-86809285D02*
X228655238Y-86999761D01*
X228655238Y-86999761D02*
X228655238Y-87190238D01*
X228655238Y-87190238D02*
X228560000Y-87380714D01*
X228560000Y-87380714D02*
X228464761Y-87475952D01*
X228464761Y-87475952D02*
X228274285Y-87571190D01*
X228274285Y-87571190D02*
X227893333Y-87666428D01*
X227893333Y-87666428D02*
X227417142Y-87666428D01*
X227417142Y-87666428D02*
X227036190Y-87571190D01*
X227036190Y-87571190D02*
X226845714Y-87475952D01*
X226845714Y-87475952D02*
X226750476Y-87380714D01*
X226750476Y-87380714D02*
X226655238Y-87190238D01*
X226655238Y-85285476D02*
X226655238Y-85094999D01*
X226655238Y-85094999D02*
X226750476Y-84904523D01*
X226750476Y-84904523D02*
X226845714Y-84809285D01*
X226845714Y-84809285D02*
X227036190Y-84714047D01*
X227036190Y-84714047D02*
X227417142Y-84618809D01*
X227417142Y-84618809D02*
X227893333Y-84618809D01*
X227893333Y-84618809D02*
X228274285Y-84714047D01*
X228274285Y-84714047D02*
X228464761Y-84809285D01*
X228464761Y-84809285D02*
X228560000Y-84904523D01*
X228560000Y-84904523D02*
X228655238Y-85094999D01*
X228655238Y-85094999D02*
X228655238Y-85285476D01*
X228655238Y-85285476D02*
X228560000Y-85475952D01*
X228560000Y-85475952D02*
X228464761Y-85571190D01*
X228464761Y-85571190D02*
X228274285Y-85666428D01*
X228274285Y-85666428D02*
X227893333Y-85761666D01*
X227893333Y-85761666D02*
X227417142Y-85761666D01*
X227417142Y-85761666D02*
X227036190Y-85666428D01*
X227036190Y-85666428D02*
X226845714Y-85571190D01*
X226845714Y-85571190D02*
X226750476Y-85475952D01*
X226750476Y-85475952D02*
X226655238Y-85285476D01*
X226655238Y-83380714D02*
X226655238Y-83190237D01*
X226655238Y-83190237D02*
X226750476Y-82999761D01*
X226750476Y-82999761D02*
X226845714Y-82904523D01*
X226845714Y-82904523D02*
X227036190Y-82809285D01*
X227036190Y-82809285D02*
X227417142Y-82714047D01*
X227417142Y-82714047D02*
X227893333Y-82714047D01*
X227893333Y-82714047D02*
X228274285Y-82809285D01*
X228274285Y-82809285D02*
X228464761Y-82904523D01*
X228464761Y-82904523D02*
X228560000Y-82999761D01*
X228560000Y-82999761D02*
X228655238Y-83190237D01*
X228655238Y-83190237D02*
X228655238Y-83380714D01*
X228655238Y-83380714D02*
X228560000Y-83571190D01*
X228560000Y-83571190D02*
X228464761Y-83666428D01*
X228464761Y-83666428D02*
X228274285Y-83761666D01*
X228274285Y-83761666D02*
X227893333Y-83856904D01*
X227893333Y-83856904D02*
X227417142Y-83856904D01*
X227417142Y-83856904D02*
X227036190Y-83761666D01*
X227036190Y-83761666D02*
X226845714Y-83666428D01*
X226845714Y-83666428D02*
X226750476Y-83571190D01*
X226750476Y-83571190D02*
X226655238Y-83380714D01*
X228655238Y-80333094D02*
X227321904Y-80333094D01*
X227512380Y-80333094D02*
X227417142Y-80237856D01*
X227417142Y-80237856D02*
X227321904Y-80047380D01*
X227321904Y-80047380D02*
X227321904Y-79761665D01*
X227321904Y-79761665D02*
X227417142Y-79571189D01*
X227417142Y-79571189D02*
X227607619Y-79475951D01*
X227607619Y-79475951D02*
X228655238Y-79475951D01*
X227607619Y-79475951D02*
X227417142Y-79380713D01*
X227417142Y-79380713D02*
X227321904Y-79190237D01*
X227321904Y-79190237D02*
X227321904Y-78904523D01*
X227321904Y-78904523D02*
X227417142Y-78714046D01*
X227417142Y-78714046D02*
X227607619Y-78618808D01*
X227607619Y-78618808D02*
X228655238Y-78618808D01*
X228655238Y-77666427D02*
X227321904Y-77666427D01*
X227512380Y-77666427D02*
X227417142Y-77571189D01*
X227417142Y-77571189D02*
X227321904Y-77380713D01*
X227321904Y-77380713D02*
X227321904Y-77094998D01*
X227321904Y-77094998D02*
X227417142Y-76904522D01*
X227417142Y-76904522D02*
X227607619Y-76809284D01*
X227607619Y-76809284D02*
X228655238Y-76809284D01*
X227607619Y-76809284D02*
X227417142Y-76714046D01*
X227417142Y-76714046D02*
X227321904Y-76523570D01*
X227321904Y-76523570D02*
X227321904Y-76237856D01*
X227321904Y-76237856D02*
X227417142Y-76047379D01*
X227417142Y-76047379D02*
X227607619Y-75952141D01*
X227607619Y-75952141D02*
X228655238Y-75952141D01*
D10*
X210530000Y-45095000D02*
X230616420Y-45095000D01*
X210530000Y-125095000D02*
X230616420Y-125095000D01*
X230030000Y-45095000D02*
X230030000Y-125095000D01*
X230030000Y-45095000D02*
X230030000Y-125095000D01*
X230030000Y-45095000D02*
X231415246Y-47756032D01*
X230030000Y-45095000D02*
X228644754Y-47756032D01*
X230030000Y-125095000D02*
X228644754Y-122433968D01*
X230030000Y-125095000D02*
X231415246Y-122433968D01*
D11*
X130982380Y-143720238D02*
X129839523Y-143720238D01*
X130410951Y-143720238D02*
X130410951Y-141720238D01*
X130410951Y-141720238D02*
X130220475Y-142005952D01*
X130220475Y-142005952D02*
X130029999Y-142196428D01*
X130029999Y-142196428D02*
X129839523Y-142291666D01*
X132696666Y-142386904D02*
X132696666Y-143720238D01*
X132220475Y-141625000D02*
X131744285Y-143053571D01*
X131744285Y-143053571D02*
X132982380Y-143053571D01*
X134125237Y-141720238D02*
X134315714Y-141720238D01*
X134315714Y-141720238D02*
X134506190Y-141815476D01*
X134506190Y-141815476D02*
X134601428Y-141910714D01*
X134601428Y-141910714D02*
X134696666Y-142101190D01*
X134696666Y-142101190D02*
X134791904Y-142482142D01*
X134791904Y-142482142D02*
X134791904Y-142958333D01*
X134791904Y-142958333D02*
X134696666Y-143339285D01*
X134696666Y-143339285D02*
X134601428Y-143529761D01*
X134601428Y-143529761D02*
X134506190Y-143625000D01*
X134506190Y-143625000D02*
X134315714Y-143720238D01*
X134315714Y-143720238D02*
X134125237Y-143720238D01*
X134125237Y-143720238D02*
X133934761Y-143625000D01*
X133934761Y-143625000D02*
X133839523Y-143529761D01*
X133839523Y-143529761D02*
X133744285Y-143339285D01*
X133744285Y-143339285D02*
X133649047Y-142958333D01*
X133649047Y-142958333D02*
X133649047Y-142482142D01*
X133649047Y-142482142D02*
X133744285Y-142101190D01*
X133744285Y-142101190D02*
X133839523Y-141910714D01*
X133839523Y-141910714D02*
X133934761Y-141815476D01*
X133934761Y-141815476D02*
X134125237Y-141720238D01*
X135744285Y-143625000D02*
X135744285Y-143720238D01*
X135744285Y-143720238D02*
X135649047Y-143910714D01*
X135649047Y-143910714D02*
X135553809Y-144005952D01*
X136982380Y-141720238D02*
X137172857Y-141720238D01*
X137172857Y-141720238D02*
X137363333Y-141815476D01*
X137363333Y-141815476D02*
X137458571Y-141910714D01*
X137458571Y-141910714D02*
X137553809Y-142101190D01*
X137553809Y-142101190D02*
X137649047Y-142482142D01*
X137649047Y-142482142D02*
X137649047Y-142958333D01*
X137649047Y-142958333D02*
X137553809Y-143339285D01*
X137553809Y-143339285D02*
X137458571Y-143529761D01*
X137458571Y-143529761D02*
X137363333Y-143625000D01*
X137363333Y-143625000D02*
X137172857Y-143720238D01*
X137172857Y-143720238D02*
X136982380Y-143720238D01*
X136982380Y-143720238D02*
X136791904Y-143625000D01*
X136791904Y-143625000D02*
X136696666Y-143529761D01*
X136696666Y-143529761D02*
X136601428Y-143339285D01*
X136601428Y-143339285D02*
X136506190Y-142958333D01*
X136506190Y-142958333D02*
X136506190Y-142482142D01*
X136506190Y-142482142D02*
X136601428Y-142101190D01*
X136601428Y-142101190D02*
X136696666Y-141910714D01*
X136696666Y-141910714D02*
X136791904Y-141815476D01*
X136791904Y-141815476D02*
X136982380Y-141720238D01*
X138887142Y-141720238D02*
X139077619Y-141720238D01*
X139077619Y-141720238D02*
X139268095Y-141815476D01*
X139268095Y-141815476D02*
X139363333Y-141910714D01*
X139363333Y-141910714D02*
X139458571Y-142101190D01*
X139458571Y-142101190D02*
X139553809Y-142482142D01*
X139553809Y-142482142D02*
X139553809Y-142958333D01*
X139553809Y-142958333D02*
X139458571Y-143339285D01*
X139458571Y-143339285D02*
X139363333Y-143529761D01*
X139363333Y-143529761D02*
X139268095Y-143625000D01*
X139268095Y-143625000D02*
X139077619Y-143720238D01*
X139077619Y-143720238D02*
X138887142Y-143720238D01*
X138887142Y-143720238D02*
X138696666Y-143625000D01*
X138696666Y-143625000D02*
X138601428Y-143529761D01*
X138601428Y-143529761D02*
X138506190Y-143339285D01*
X138506190Y-143339285D02*
X138410952Y-142958333D01*
X138410952Y-142958333D02*
X138410952Y-142482142D01*
X138410952Y-142482142D02*
X138506190Y-142101190D01*
X138506190Y-142101190D02*
X138601428Y-141910714D01*
X138601428Y-141910714D02*
X138696666Y-141815476D01*
X138696666Y-141815476D02*
X138887142Y-141720238D01*
X140791904Y-141720238D02*
X140982381Y-141720238D01*
X140982381Y-141720238D02*
X141172857Y-141815476D01*
X141172857Y-141815476D02*
X141268095Y-141910714D01*
X141268095Y-141910714D02*
X141363333Y-142101190D01*
X141363333Y-142101190D02*
X141458571Y-142482142D01*
X141458571Y-142482142D02*
X141458571Y-142958333D01*
X141458571Y-142958333D02*
X141363333Y-143339285D01*
X141363333Y-143339285D02*
X141268095Y-143529761D01*
X141268095Y-143529761D02*
X141172857Y-143625000D01*
X141172857Y-143625000D02*
X140982381Y-143720238D01*
X140982381Y-143720238D02*
X140791904Y-143720238D01*
X140791904Y-143720238D02*
X140601428Y-143625000D01*
X140601428Y-143625000D02*
X140506190Y-143529761D01*
X140506190Y-143529761D02*
X140410952Y-143339285D01*
X140410952Y-143339285D02*
X140315714Y-142958333D01*
X140315714Y-142958333D02*
X140315714Y-142482142D01*
X140315714Y-142482142D02*
X140410952Y-142101190D01*
X140410952Y-142101190D02*
X140506190Y-141910714D01*
X140506190Y-141910714D02*
X140601428Y-141815476D01*
X140601428Y-141815476D02*
X140791904Y-141720238D01*
X142696666Y-141720238D02*
X142887143Y-141720238D01*
X142887143Y-141720238D02*
X143077619Y-141815476D01*
X143077619Y-141815476D02*
X143172857Y-141910714D01*
X143172857Y-141910714D02*
X143268095Y-142101190D01*
X143268095Y-142101190D02*
X143363333Y-142482142D01*
X143363333Y-142482142D02*
X143363333Y-142958333D01*
X143363333Y-142958333D02*
X143268095Y-143339285D01*
X143268095Y-143339285D02*
X143172857Y-143529761D01*
X143172857Y-143529761D02*
X143077619Y-143625000D01*
X143077619Y-143625000D02*
X142887143Y-143720238D01*
X142887143Y-143720238D02*
X142696666Y-143720238D01*
X142696666Y-143720238D02*
X142506190Y-143625000D01*
X142506190Y-143625000D02*
X142410952Y-143529761D01*
X142410952Y-143529761D02*
X142315714Y-143339285D01*
X142315714Y-143339285D02*
X142220476Y-142958333D01*
X142220476Y-142958333D02*
X142220476Y-142482142D01*
X142220476Y-142482142D02*
X142315714Y-142101190D01*
X142315714Y-142101190D02*
X142410952Y-141910714D01*
X142410952Y-141910714D02*
X142506190Y-141815476D01*
X142506190Y-141815476D02*
X142696666Y-141720238D01*
X145744286Y-143720238D02*
X145744286Y-142386904D01*
X145744286Y-142577380D02*
X145839524Y-142482142D01*
X145839524Y-142482142D02*
X146030000Y-142386904D01*
X146030000Y-142386904D02*
X146315715Y-142386904D01*
X146315715Y-142386904D02*
X146506191Y-142482142D01*
X146506191Y-142482142D02*
X146601429Y-142672619D01*
X146601429Y-142672619D02*
X146601429Y-143720238D01*
X146601429Y-142672619D02*
X146696667Y-142482142D01*
X146696667Y-142482142D02*
X146887143Y-142386904D01*
X146887143Y-142386904D02*
X147172857Y-142386904D01*
X147172857Y-142386904D02*
X147363334Y-142482142D01*
X147363334Y-142482142D02*
X147458572Y-142672619D01*
X147458572Y-142672619D02*
X147458572Y-143720238D01*
X148410953Y-143720238D02*
X148410953Y-142386904D01*
X148410953Y-142577380D02*
X148506191Y-142482142D01*
X148506191Y-142482142D02*
X148696667Y-142386904D01*
X148696667Y-142386904D02*
X148982382Y-142386904D01*
X148982382Y-142386904D02*
X149172858Y-142482142D01*
X149172858Y-142482142D02*
X149268096Y-142672619D01*
X149268096Y-142672619D02*
X149268096Y-143720238D01*
X149268096Y-142672619D02*
X149363334Y-142482142D01*
X149363334Y-142482142D02*
X149553810Y-142386904D01*
X149553810Y-142386904D02*
X149839524Y-142386904D01*
X149839524Y-142386904D02*
X150030001Y-142482142D01*
X150030001Y-142482142D02*
X150125239Y-142672619D01*
X150125239Y-142672619D02*
X150125239Y-143720238D01*
D10*
X210030000Y-125595000D02*
X210030000Y-145681420D01*
X70030000Y-125595000D02*
X70030000Y-145681420D01*
X210030000Y-145095000D02*
X70030000Y-145095000D01*
X210030000Y-145095000D02*
X70030000Y-145095000D01*
X210030000Y-145095000D02*
X207368968Y-146480246D01*
X210030000Y-145095000D02*
X207368968Y-143709754D01*
X70030000Y-145095000D02*
X72691032Y-143709754D01*
X70030000Y-145095000D02*
X72691032Y-146480246D01*
M02*
